<svg width="257" height="145" viewBox="0 0 257 145" fill="none" xmlns="http://www.w3.org/2000/svg">
<rect x="0.394897" y="0.439056" width="256" height="144" fill="#9985FF"/>
<ellipse cx="128.395" cy="51.9287" rx="23.4665" ry="23.4896" fill="white"/>
<path opacity="0.64" d="M163.595 81.2046C163.595 85.8316 162.684 90.4134 160.915 94.6882C159.146 98.9631 156.553 102.847 153.285 106.119C150.016 109.391 146.136 111.986 141.865 113.757C137.595 115.528 133.017 116.439 128.395 116.439C123.772 116.439 119.195 115.528 114.925 113.757C110.654 111.986 106.774 109.391 103.505 106.119C100.236 102.847 97.6436 98.9631 95.8746 94.6882C94.1057 90.4134 93.1952 85.8316 93.1952 81.2046L128.395 81.2046H163.595Z" fill="white"/>
</svg>
