<svg xmlns="http://www.w3.org/2000/svg" xmlns:xlink="http://www.w3.org/1999/xlink" viewBox="0 0 682.73 385.62"><defs><style>.cls-1{fill:#9586f7;}.cls-2{fill:#fff;}.cls-3{fill:#060282;}.cls-4{opacity:0.28;}.cls-5{fill:#5946ef;}.cls-6{fill:url(#linear-gradient);}.cls-7{fill:url(#linear-gradient-2);}.cls-8{fill:url(#linear-gradient-3);}.cls-9{fill:url(#linear-gradient-4);}</style><linearGradient id="linear-gradient" x1="196.29" y1="143.92" x2="196.29" y2="-7.85" gradientUnits="userSpaceOnUse"><stop offset="0" stop-color="#9586f7" stop-opacity="0"/><stop offset="1" stop-color="#060282"/></linearGradient><linearGradient id="linear-gradient-2" x1="293.03" y1="143.92" x2="293.03" y2="-8.28" xlink:href="#linear-gradient"/><linearGradient id="linear-gradient-3" x1="389.78" y1="143.92" x2="389.78" y2="-8.49" xlink:href="#linear-gradient"/><linearGradient id="linear-gradient-4" x1="486.57" y1="143.92" x2="486.57" y2="-8.4" xlink:href="#linear-gradient"/></defs><g id="Layer_2" data-name="Layer 2"><g id="Layer_1-2" data-name="Layer 1"><rect class="cls-1" width="682.73" height="385.13"/><polygon class="cls-2" points="531.96 325.32 531.24 324.95 530.52 325.27 529.81 325.33 529.09 325.27 528.37 325.07 527.66 325 526.94 325.54 526.22 325.3 525.51 325.52 524.79 325.33 524.07 325.03 523.36 325.47 522.64 325.15 521.92 325.53 521.21 325.06 520.49 325 519.77 325.57 519.06 325.35 518.34 325.03 517.62 325.07 516.91 325.46 516.19 325.43 515.47 325.35 514.75 325.08 514.04 325.41 513.32 325.27 512.6 325.53 511.89 325.29 511.17 325.55 510.45 324.94 509.74 325.57 509.02 325.4 508.3 325.57 507.58 325.15 506.87 325.14 506.15 324.95 505.43 325.35 504.71 325.38 504 325.26 503.28 325.01 502.56 325.55 501.84 325.5 501.12 324.9 500.4 325.03 499.69 325.45 498.97 325.36 498.25 325.43 497.53 324.93 496.81 325.11 496.1 325.06 495.38 325.05 494.66 325.53 493.94 325.13 493.22 325.53 492.5 325.15 491.78 325.48 491.06 325.25 490.35 325.48 489.63 325.02 488.91 325.33 488.19 325.01 487.47 325.01 486.75 324.96 486.03 325.06 485.31 325.53 484.59 325.02 483.87 325.26 483.15 325.56 482.43 325.22 481.71 325.56 480.99 325.04 480.27 325.38 479.55 325.2 478.83 324.91 478.11 325.28 477.38 325.37 476.66 325.39 475.94 325.39 475.22 325.24 474.5 325.48 473.78 324.89 473.06 325.25 472.34 325 471.62 325.54 470.9 325.15 470.18 324.95 469.46 325.56 468.74 325.03 468.02 325.13 467.3 325.26 466.58 325.06 465.86 325.09 465.14 324.96 464.42 325.05 463.7 324.98 462.98 324.89 462.26 325.39 461.55 324.96 460.83 325.49 460.11 325.04 459.39 325.39 458.67 325.16 457.95 325.58 457.23 324.89 456.51 324.92 455.79 324.89 455.07 325.56 454.36 325.24 453.64 325.35 452.92 325.23 452.2 325.22 451.48 325.32 450.76 325.43 450.05 325.21 449.33 325.44 448.61 325.52 447.89 325 447.17 325.52 446.45 325.42 445.74 324.89 445.02 325.09 444.3 325.52 443.58 325.41 442.86 325.42 442.14 325.58 441.43 325.11 440.71 325.53 439.99 325.17 439.27 324.93 438.55 325.56 437.83 325.02 437.12 325.57 436.4 325.51 435.68 325.41 434.96 325.23 434.24 325.25 433.53 325.09 432.81 325.24 432.09 325.23 431.37 325.52 430.65 325.29 429.93 325.36 429.22 325.16 428.5 324.93 427.78 325.08 427.06 325.48 426.34 324.89 425.62 325.2 424.9 325.14 424.19 325.06 423.47 325.39 422.75 325.17 422.03 325.15 421.31 324.93 420.59 325.28 419.87 325.12 419.15 325.2 418.43 325.43 417.71 325.58 417 325.15 416.28 325.28 415.56 325.19 414.84 325.25 414.12 325.18 413.4 325.47 412.68 324.94 411.96 324.9 411.24 325 410.52 325.33 409.8 325.57 409.08 325.26 408.36 325 407.64 325.44 406.92 325.05 406.2 325.3 405.48 325.13 404.75 324.94 404.03 325.03 403.31 325.54 402.59 325.06 401.87 324.92 401.15 325.1 400.43 325.24 399.7 324.95 398.98 325.23 398.26 325.49 397.54 325.37 396.82 325.09 396.1 325.27 395.38 325.03 394.66 325.24 393.94 325.14 393.22 325.38 392.5 325.55 391.78 324.91 391.06 325.36 390.34 325.47 389.62 325.35 388.9 325.28 388.18 325.16 387.46 325.18 386.74 325.38 386.02 325.38 385.3 325.29 384.58 324.94 383.86 325.2 383.14 324.93 382.42 325.04 381.7 325.31 380.98 325.49 380.26 325.44 379.54 325.57 378.82 325.39 378.1 325.25 377.38 325.17 376.67 325.1 375.95 325.2 375.23 325.55 374.51 325.07 373.79 325.55 373.07 325.4 372.35 325.24 371.63 325.09 370.91 325.13 370.19 325.52 369.47 325.38 368.75 324.91 368.03 324.88 367.31 325.29 366.59 324.97 365.87 325.39 365.15 325.04 364.43 325.52 363.71 325.37 362.99 325.38 362.27 325.24 361.55 325.29 360.83 325.47 360.11 325.23 359.39 325.52 358.67 325.06 357.95 325.54 357.23 325.58 356.51 325.15 355.79 325.05 355.07 325.33 354.35 325.13 353.63 325.45 352.91 325.56 352.19 325.41 351.46 325.31 350.74 325.36 350.02 325.5 349.3 325.5 348.58 325.49 347.86 325.5 347.13 325.23 346.41 325.4 345.69 324.88 344.97 325.31 344.25 324.98 343.53 325.11 342.81 325.44 342.09 324.99 341.37 325.09 340.64 325.44 339.92 325.2 339.2 325.11 338.48 325.49 337.76 325.05 337.04 325.01 336.32 325.03 335.6 325.07 334.88 325.09 334.16 324.94 333.44 325.02 332.72 325.51 332 325.34 331.28 325.55 330.56 325.5 329.84 325.35 329.12 325.21 328.4 325.03 327.68 325.49 326.96 325.06 326.24 325.42 325.52 325.13 324.81 325.56 324.09 325.36 323.37 325.44 322.65 325.28 321.93 325.42 321.21 324.89 320.5 325.18 319.78 325.37 319.06 325.06 318.34 325.33 317.62 325.28 316.9 325.57 316.18 325.19 315.46 325.52 314.74 325.4 314.01 324.95 313.29 325.19 312.57 325.48 311.85 325.31 311.13 325.41 310.4 325.03 309.68 325.16 308.96 325.5 308.24 325.22 307.52 325.12 306.8 324.94 306.08 324.95 305.36 325.34 304.64 325.54 303.92 325.23 303.2 325.53 302.48 325.26 301.76 325.04 301.04 325.3 300.32 325.19 299.61 325.24 298.89 325.44 298.17 324.95 297.45 325.48 296.73 324.9 296.02 324.96 295.3 325.52 294.58 325.18 293.86 325.23 293.14 325.06 292.43 324.93 291.71 325.39 290.99 325.49 290.28 325.18 289.56 324.93 288.84 325.13 288.12 325.51 287.41 325.06 286.69 325.48 285.97 325.51 285.25 325.48 284.54 325.28 283.82 325.33 283.1 325.16 282.38 325.41 281.67 325.12 280.95 325.38 280.23 325.13 279.51 325.52 278.8 325.4 278.08 325.09 277.36 324.89 276.64 325.44 275.92 324.89 275.2 325.38 274.48 325.13 273.76 324.89 273.04 325.48 272.32 324.89 271.61 325.23 270.88 325.12 270.16 325.08 269.44 324.99 268.72 325.5 268 325.43 267.28 325.27 266.56 325.51 265.83 325.39 265.11 325.26 264.39 325.01 263.67 325.4 262.94 325.26 262.22 325.32 261.5 325.18 260.77 325.35 260.05 325.54 259.33 325.18 258.61 325.26 257.89 325.15 257.16 325.15 256.44 325.27 255.72 324.99 255 325.37 254.28 325.33 253.56 325.25 252.84 325.44 252.12 325.27 251.4 325.5 250.68 325.28 249.96 324.96 249.24 325.4 248.52 325.41 247.8 324.92 247.08 325.57 246.36 325.11 245.64 324.97 244.92 325.44 244.2 325.41 243.48 325.07 242.76 325.42 242.04 325.47 241.31 325.49 240.59 324.89 239.87 325.57 239.15 324.92 238.43 325.11 237.71 325.19 236.98 324.9 236.26 325.43 235.54 324.93 234.81 325.17 234.09 325.3 233.36 325.06 232.64 325.35 231.92 325.35 231.19 325.03 230.47 325.53 229.75 325.26 229.03 325.42 228.3 325.42 227.58 325.07 226.86 324.94 226.14 325.43 225.41 325.52 224.69 325.08 223.97 325.52 223.25 325.03 222.53 325.37 221.81 325.22 221.08 325.19 220.36 325.56 219.64 325.06 218.92 324.98 218.19 325.03 217.47 325.56 216.75 325.33 216.02 324.88 215.3 325.05 214.57 324.95 213.85 325.44 213.12 324.92 212.4 325.21 211.68 324.94 210.95 325.47 210.23 325.18 209.51 325.56 208.78 325.54 208.06 325.19 207.34 325.19 206.62 325.35 205.89 325.47 205.17 325.27 204.45 325.09 203.72 325.22 203 325.41 202.27 325.2 201.55 325.5 200.82 325.32 200.1 325.43 199.37 324.95 198.65 324.95 197.93 325.3 197.21 325.36 196.49 325.41 195.77 325.54 195.05 325 194.32 325.11 193.6 325.02 192.88 324.9 192.15 325.31 191.43 325.38 190.7 324.98 189.98 325.34 189.25 325.1 188.53 324.95 187.81 325.08 187.09 325 186.37 325.08 185.65 325.02 184.93 325.41 184.2 325.32 183.48 325.33 182.76 325.39 182.04 324.93 181.31 325.26 180.59 325.27 179.86 325 179.13 325.36 178.41 325.46 177.68 325.37 176.96 325.2 176.24 324.97 175.51 325.28 174.79 325.38 174.06 324.92 173.34 325.33 172.61 325.5 171.88 325.38 171.16 325.06 170.43 325.33 169.71 325.1 168.98 325.23 168.25 325.04 167.53 325.38 166.8 324.98 166.07 325.04 165.34 325.28 164.62 325.13 163.9 325.02 163.18 325.16 162.45 324.89 161.72 325.18 160.99 325.03 160.27 325.54 159.54 325.41 158.81 325.2 158.08 325.25 157.36 324.92 156.63 325.19 155.9 325.35 155.17 325.05 154.44 325.42 153.71 324.92 152.98 325.47 152.24 325.2 151.51 325.46 150.77 325.31 150.06 324.89 149.32 325.37 148.59 325.37 147.92 324.88 147.21 324.77 146.44 324.96 145.78 324.58 145.06 324.5 144.48 323.95 143.75 323.88 142.94 324.02 142.47 323.24 141.61 323.42 140.91 323.21 140.36 322.68 139.65 322.47 139.16 321.87 138.71 321.25 138.12 320.87 137.3 320.75 136.98 320.01 136.3 319.7 135.82 319.17 135.01 318.96 134.84 318.13 134.27 317.67 133.77 317.16 133.16 316.72 132.82 316.06 132.21 315.61 132.08 314.83 131.56 314.29 131.13 313.7 130.99 312.96 130.64 312.32 130.55 311.58 130.11 310.98 129.75 310.34 129.76 309.58 129.57 308.89 129.51 308.16 128.95 307.55 128.85 306.83 129.02 306.07 128.87 305.37 128.88 304.64 128.6 303.93 129.06 303.21 128.61 302.49 128.92 301.77 128.62 301.05 128.66 300.33 128.57 299.62 129.04 298.9 128.99 298.18 128.55 297.46 129.05 296.74 128.51 296.02 128.71 295.3 128.9 294.58 129.06 293.87 128.41 293.15 128.5 292.43 128.53 291.71 128.52 290.99 128.84 290.27 129.03 289.55 128.57 288.83 128.78 288.11 128.67 287.39 129.02 286.67 128.74 285.95 128.81 285.23 128.46 284.51 128.54 283.79 128.42 283.07 128.53 282.35 128.9 281.63 129 280.91 128.42 280.19 128.61 279.47 128.43 278.75 128.92 278.02 128.97 277.31 128.88 276.58 129.09 275.86 128.43 275.14 128.94 274.42 128.73 273.7 129.03 272.98 128.63 272.26 128.7 271.55 129.03 270.82 129.06 270.11 128.75 269.39 129.06 268.67 128.81 267.95 128.76 267.23 128.84 266.51 128.86 265.79 128.43 265.07 129.04 264.35 128.63 263.63 128.78 262.91 128.84 262.19 128.6 261.47 128.66 260.75 128.74 260.04 128.9 259.32 128.4 258.6 128.59 257.88 128.57 257.16 128.5 256.44 128.74 255.73 128.79 255.01 128.9 254.29 129.06 253.57 128.86 252.86 128.66 252.14 128.92 251.42 128.53 250.71 128.43 249.99 128.7 249.27 129.03 248.55 128.46 247.83 128.85 247.11 128.69 246.39 128.68 245.67 128.5 244.95 128.88 244.23 128.71 243.51 128.92 242.79 128.75 242.06 128.64 241.34 128.59 240.62 128.57 239.9 128.63 239.18 128.72 238.46 129.1 237.75 128.98 237.03 128.56 236.31 128.73 235.59 128.46 234.87 128.73 234.15 128.88 233.43 128.79 232.71 128.48 232 128.88 231.28 128.74 230.56 128.48 229.84 128.7 229.13 128.51 228.41 128.47 227.69 128.87 226.97 129.05 226.26 128.6 225.54 129.09 224.82 128.58 224.11 128.54 223.39 128.73 222.67 128.93 221.96 128.78 221.24 128.5 220.53 129.07 219.81 128.57 219.09 128.77 218.38 128.75 217.66 128.55 216.94 128.63 216.23 128.45 215.51 128.58 214.79 128.76 214.08 128.85 213.36 128.7 212.64 128.64 211.93 128.91 211.21 128.4 210.49 128.81 209.78 128.91 209.06 129.06 208.34 128.75 207.62 129.03 206.91 128.56 206.19 128.52 205.47 128.72 204.75 128.88 204.03 128.44 203.31 128.65 202.59 129.01 201.88 128.6 201.16 128.84 200.44 128.56 199.72 128.85 199 128.65 198.28 128.8 197.55 128.61 196.83 128.63 196.11 128.88 195.39 128.61 194.67 128.5 193.94 128.73 193.22 128.75 192.5 128.63 191.78 128.82 191.06 128.79 190.34 128.78 189.61 128.79 188.89 128.46 188.17 128.66 187.45 128.93 186.73 128.9 186.01 128.63 185.29 129.03 184.57 129.01 183.85 128.6 183.13 128.4 182.42 128.91 181.7 129.01 180.98 129.05 180.26 128.69 179.54 128.89 178.82 128.8 178.1 129.06 177.38 128.96 176.66 128.53 175.94 128.56 175.22 128.74 174.5 128.68 173.78 128.75 173.06 128.65 172.34 128.69 171.62 128.95 170.9 128.99 170.18 129.04 169.46 128.66 168.74 128.89 168.02 128.59 167.3 129 166.57 128.9 165.85 128.91 165.13 128.6 164.4 128.47 163.68 128.61 162.96 128.58 162.24 128.61 161.51 128.59 160.79 128.79 160.07 128.4 159.35 128.8 158.63 128.98 157.91 128.9 157.19 128.71 156.47 128.49 155.75 128.61 155.02 129 154.3 128.68 153.58 129.09 152.86 128.46 152.14 128.84 151.42 128.72 150.7 128.59 149.98 128.7 149.25 128.43 148.53 128.44 147.81 128.9 147.09 128.64 146.36 128.73 145.64 128.45 144.91 128.99 144.19 128.88 143.47 128.58 142.75 129.05 142.02 128.74 141.3 128.74 140.58 128.92 139.86 128.9 139.13 128.44 138.41 128.86 137.69 128.75 136.97 128.81 136.25 129.04 135.52 128.42 134.8 128.74 134.08 129.05 133.35 128.81 132.63 129.09 131.91 128.8 131.18 128.66 130.46 129.01 129.74 128.91 129.01 128.9 128.29 128.6 127.58 128.99 126.86 128.52 126.14 129 125.42 129.03 124.69 128.84 123.97 128.88 123.25 128.91 122.52 128.78 121.8 128.42 121.08 128.93 120.35 128.48 119.63 128.45 118.91 129.03 118.19 128.84 117.47 128.55 116.75 128.62 116.03 128.55 115.31 129.07 114.59 128.43 113.87 128.6 113.14 129.02 112.42 128.92 111.7 128.61 110.97 128.42 110.25 128.52 109.52 128.76 108.8 128.91 108.07 128.48 107.35 129.04 106.63 128.96 105.91 128.7 105.18 128.59 104.46 128.47 103.73 128.5 103 128.4 102.28 128.68 101.55 128.6 100.83 128.84 100.1 128.53 99.38 128.76 98.65 128.6 97.93 128.48 97.2 128.86 96.47 128.83 95.75 128.89 95.03 128.44 94.31 129.03 93.58 128.57 92.86 128.8 92.13 128.68 91.4 128.77 90.68 128.88 89.95 128.95 89.22 128.49 88.5 128.54 87.77 128.71 87.04 128.91 86.31 128.47 85.58 128.72 84.85 128.51 84.12 128.66 83.39 128.94 82.66 128.7 81.92 128.7 81.2 128.96 80.49 128.7 79.74 128.67 79.01 129.19 78.35 129.27 77.64 129.51 76.96 129.75 76.28 129.38 75.42 130.15 74.92 129.93 74.07 130.61 73.57 130.48 72.72 130.88 72.11 131.18 71.44 131.97 71.06 131.97 70.23 132.55 69.74 132.95 69.14 133.51 68.67 133.78 67.97 134.09 67.28 134.56 66.72 135.07 66.22 135.74 65.86 136.41 65.54 136.73 64.8 137.32 64.37 137.79 63.8 138.65 63.76 139.33 63.5 139.71 62.75 140.33 62.38 140.91 61.9 141.79 62.09 142.29 61.42 142.91 61.03 143.79 61.32 144.38 60.84 145.12 60.81 145.8 60.57 146.49 60.37 147.19 60.22 147.92 60.27 148.59 59.8 149.32 59.71 150.05 59.76 150.77 59.82 151.49 60.15 152.21 59.95 152.92 59.9 153.64 59.74 154.35 59.94 155.07 60.2 155.79 60.04 156.5 59.73 157.22 59.6 157.94 60.02 158.66 59.56 159.37 59.86 160.09 59.97 160.8 60.04 161.52 59.91 162.24 60.03 162.96 59.6 163.67 59.67 164.39 59.87 165.1 60.24 165.82 60.13 166.54 59.81 167.26 59.58 167.97 60.08 168.69 59.97 169.41 59.64 170.12 59.85 170.84 59.85 171.56 60.02 172.28 59.72 172.99 59.83 173.71 59.81 174.43 60.17 175.15 59.81 175.86 59.81 176.58 59.99 177.3 60.06 178.01 60.19 178.73 59.81 179.45 59.76 180.17 60.03 180.89 59.78 181.6 59.89 182.32 59.76 183.04 59.91 183.76 59.7 184.48 59.89 185.19 59.62 185.91 59.94 186.63 60.17 187.35 59.6 188.07 59.79 188.79 59.87 189.51 60.06 190.23 59.93 190.94 60.16 191.66 60.04 192.38 60.16 193.1 59.7 193.82 59.57 194.54 59.77 195.26 59.91 195.98 59.89 196.7 60.19 197.42 60.23 198.14 60.02 198.86 60.16 199.58 59.65 200.3 60.24 201.02 59.84 201.74 60.06 202.46 59.73 203.18 59.84 203.9 59.89 204.62 59.78 205.34 60.18 206.06 60.03 206.79 59.83 207.51 60.04 208.23 59.61 208.95 59.62 209.67 60.03 210.39 60.25 211.11 60.1 211.83 59.86 212.55 60.1 213.27 60.18 213.99 60.22 214.71 59.77 215.43 60.16 216.15 60 216.87 59.77 217.59 59.6 218.31 59.73 219.03 59.77 219.75 59.56 220.46 59.74 221.18 60.15 221.9 60.21 222.62 59.95 223.34 59.86 224.06 60.13 224.78 59.63 225.5 60.25 226.22 60.23 226.94 59.95 227.65 59.86 228.37 60.05 229.09 59.63 229.81 59.99 230.53 60.14 231.25 59.63 231.96 60 232.68 60.13 233.4 60.16 234.12 59.76 234.84 59.87 235.56 59.94 236.27 60.19 236.99 60.16 237.71 59.86 238.43 60.18 239.15 60.13 239.87 59.88 240.58 60.24 241.3 60.21 242.02 59.89 242.74 60.02 243.46 59.92 244.18 59.55 244.89 60.2 245.61 59.61 246.33 59.72 247.05 60.14 247.77 60.06 248.48 59.8 249.2 59.98 249.92 60.06 250.64 59.64 251.36 60.03 252.07 60.15 252.79 59.89 253.51 59.89 254.23 60.03 254.95 60.09 255.67 59.73 256.39 60.03 257.11 59.75 257.82 59.68 258.54 59.78 259.26 59.7 259.98 59.87 260.7 60 261.42 59.88 262.14 59.72 262.86 59.66 263.57 59.67 264.29 59.72 265.01 59.89 265.73 60.12 266.45 59.63 267.17 60.21 267.89 59.88 268.61 59.8 269.33 60.02 270.05 59.77 270.77 60 271.49 59.67 272.21 59.71 272.93 60.13 273.65 59.56 274.37 59.69 275.09 59.62 275.81 60.08 276.53 60.23 277.25 59.69 277.97 59.97 278.69 60 279.42 60.09 280.14 60.02 280.86 59.88 281.58 59.95 282.3 59.73 283.02 59.9 283.75 59.61 284.47 60.12 285.19 60 285.91 59.92 286.63 60.14 287.35 59.6 288.07 59.97 288.79 59.8 289.51 60.21 290.23 59.68 290.95 59.96 291.67 59.9 292.39 59.61 293.11 59.77 293.83 60.05 294.55 59.7 295.27 59.74 295.99 59.88 296.71 59.58 297.43 59.65 298.15 59.6 298.87 59.89 299.59 59.95 300.31 59.59 301.03 60.17 301.75 59.82 302.47 60.11 303.19 60.11 303.9 59.69 304.62 60.24 305.34 59.81 306.06 60.09 306.78 59.94 307.5 60.16 308.22 59.68 308.94 59.69 309.66 59.76 310.38 59.94 311.1 60.25 311.82 59.69 312.54 59.96 313.26 60.25 313.98 59.98 314.7 59.64 315.42 60.22 316.13 59.68 316.86 60.05 317.57 59.7 318.29 60.12 319.01 60.2 319.73 59.92 320.45 60.15 321.17 59.66 321.89 60.18 322.61 59.77 323.33 60 324.06 60.23 324.77 59.96 325.5 60.12 326.22 59.91 326.94 59.82 327.66 59.9 328.38 60.04 329.1 59.56 329.82 59.83 330.54 59.76 331.26 59.8 331.99 59.71 332.71 60.21 333.43 59.59 334.15 60.01 334.87 59.68 335.6 59.66 336.32 59.79 337.04 59.72 337.76 59.77 338.48 60.11 339.2 59.85 339.92 59.68 340.64 60.2 341.36 59.9 342.08 59.72 342.8 59.65 343.52 59.66 344.25 60.11 344.97 59.86 345.69 59.66 346.41 59.76 347.13 60.09 347.85 59.59 348.57 59.65 349.29 59.62 350.01 59.64 350.73 59.71 351.45 59.72 352.17 60.19 352.89 59.94 353.61 59.9 354.33 60.23 355.05 59.66 355.77 59.74 356.49 59.65 357.21 59.84 357.92 59.64 358.64 59.81 359.36 60.19 360.08 59.92 360.79 59.95 361.51 59.76 362.23 60.1 362.95 59.95 363.67 59.56 364.39 59.97 365.11 59.66 365.83 60.16 366.55 59.76 367.27 59.92 367.99 60.12 368.71 60.12 369.44 59.77 370.16 60.12 370.88 59.81 371.6 59.92 372.32 59.8 373.04 59.98 373.77 59.92 374.49 60.15 375.21 59.67 375.93 59.97 376.65 59.95 377.37 59.69 378.09 59.57 378.81 60.16 379.53 59.95 380.25 60.21 380.96 60.14 381.68 59.95 382.4 59.62 383.12 60.13 383.84 60.2 384.56 59.66 385.28 59.73 385.99 59.65 386.71 59.66 387.43 60.2 388.15 59.65 388.87 59.58 389.58 59.59 390.3 60.24 391.02 60.17 391.74 60.2 392.45 60.23 393.17 59.7 393.89 60.1 394.6 59.55 395.32 59.9 396.04 59.64 396.76 59.55 397.47 59.7 398.19 59.84 398.91 60 399.63 59.77 400.34 59.94 401.06 59.75 401.78 59.85 402.5 59.81 403.21 60.11 403.93 59.6 404.65 60.02 405.37 59.59 406.09 60.17 406.81 60.15 407.53 59.71 408.25 60.24 408.96 60.25 409.68 60.23 410.4 60.2 411.12 59.8 411.84 59.8 412.56 59.99 413.29 60.19 414.01 60.1 414.73 60.19 415.45 59.91 416.17 60.02 416.89 59.75 417.62 60.23 418.34 59.73 419.06 59.58 419.79 59.84 420.51 60.16 421.23 59.73 421.95 59.85 422.68 59.74 423.4 60.18 424.12 60.18 424.84 60.06 425.56 60.09 426.29 59.77 427.01 59.93 427.73 59.65 428.45 59.96 429.17 60.08 429.89 59.76 430.61 59.84 431.33 59.83 432.05 59.62 432.77 59.58 433.49 60 434.21 60.04 434.93 60.14 435.65 60.05 436.37 59.63 437.09 60.13 437.81 59.6 438.53 59.66 439.25 59.91 439.97 59.95 440.69 59.66 441.41 60.11 442.13 60.13 442.86 60.1 443.58 59.67 444.3 59.74 445.02 59.76 445.75 60.06 446.47 59.85 447.19 59.76 447.92 59.98 448.64 59.68 449.36 60.05 450.09 60.22 450.81 59.64 451.54 59.75 452.26 60.14 452.98 60.01 453.7 60.08 454.43 59.62 455.15 59.71 455.87 60.21 456.59 60.04 457.31 60.11 458.04 60.16 458.76 59.87 459.48 59.9 460.2 59.96 460.92 59.94 461.64 59.6 462.37 59.98 463.09 59.59 463.81 60.01 464.53 60.08 465.26 59.6 465.98 59.79 466.71 59.8 467.43 59.56 468.15 59.65 468.88 59.99 469.6 60.03 470.33 59.8 471.05 59.6 471.77 59.75 472.5 59.6 473.22 60.23 473.94 59.75 474.67 59.84 475.39 60.19 476.11 60.12 476.83 59.8 477.56 60.21 478.28 59.58 479.01 59.7 479.73 59.75 480.45 60.25 481.18 59.65 481.9 59.88 482.63 59.62 483.35 60.12 484.08 59.77 484.8 59.84 485.52 59.89 486.24 60.18 486.96 60.17 487.68 59.74 488.4 59.83 489.13 59.93 489.85 59.89 490.58 60.25 491.3 59.9 492.03 60.03 492.75 59.94 493.47 59.85 494.19 59.66 494.92 60.22 495.64 59.73 496.36 59.72 497.08 60.2 497.8 60.24 498.52 59.6 499.25 59.64 499.97 59.85 500.69 60.23 501.42 59.57 502.14 59.8 502.87 59.72 503.59 59.78 504.32 60.06 505.04 60.16 505.77 59.56 506.49 59.91 507.22 59.67 507.94 59.77 508.67 59.68 509.39 60.21 510.12 59.99 510.84 60.18 511.57 59.96 512.3 59.59 513.02 59.88 513.75 60.05 514.47 59.88 515.2 59.76 515.93 59.75 516.66 59.8 517.38 59.56 518.11 59.75 518.83 59.57 519.55 59.8 520.28 60.2 521 60.04 521.73 60.07 522.46 59.84 523.19 59.73 523.91 59.89 524.64 59.9 525.37 60.13 526.1 60.23 526.83 59.96 527.56 59.58 528.29 59.7 529.02 59.86 529.75 60.16 530.49 60.12 531.22 60.14 531.96 59.84 532.67 60.1 533.38 60.29 534.1 60.16 534.84 60.07 535.52 60.37 536.32 60.02 536.94 60.55 537.61 60.83 538.33 60.93 539.05 61.02 539.73 61.27 540.27 61.84 541.01 61.93 541.55 62.47 542.2 62.75 542.86 63.03 543.75 62.95 544.09 63.76 544.58 64.3 545.46 64.33 545.71 65.17 546.39 65.47 547.2 65.65 547.53 66.35 548.14 66.76 548.34 67.56 548.95 67.98 549.31 68.61 549.94 69.04 550.12 69.79 550.9 70.15 551.05 70.9 551.26 71.61 551.74 72.17 552.17 72.77 551.97 73.64 552.4 74.23 552.59 74.92 553.28 75.45 553.12 76.25 553.41 76.92 553.28 77.68 553.75 78.32 554.04 79.01 553.93 79.76 553.93 80.48 554.05 81.2 553.97 81.92 554.26 82.64 554.23 83.36 553.97 84.08 553.71 84.8 554.24 85.51 553.99 86.23 553.98 86.95 554.12 87.67 553.96 88.39 554.24 89.11 554.13 89.83 554.26 90.54 553.96 91.26 554.14 91.98 554.32 92.7 554.24 93.42 553.85 94.14 553.8 94.86 554.01 95.58 554.19 96.3 554.07 97.02 554.16 97.74 553.89 98.46 554.29 99.18 554 99.9 553.64 100.62 553.97 101.34 554.21 102.06 553.97 102.78 553.68 103.5 554.09 104.22 553.76 104.94 553.78 105.66 554 106.38 554.12 107.1 553.81 107.82 553.7 108.54 553.73 109.27 553.99 109.98 553.84 110.7 554.09 111.42 554.02 112.14 554 112.86 554.21 113.58 554.1 114.3 553.87 115.02 553.86 115.74 553.68 116.46 553.97 117.18 554.26 117.9 553.76 118.62 554.19 119.34 554.23 120.06 553.93 120.78 553.98 121.5 554.02 122.22 553.72 122.94 554.13 123.66 554.01 124.37 553.98 125.09 553.74 125.81 554.1 126.53 554.16 127.25 553.67 127.97 553.85 128.69 553.97 129.4 554.31 130.12 553.98 130.84 554.02 131.55 554 132.27 554.06 132.99 554.05 133.71 554.07 134.42 553.97 135.14 553.96 135.86 553.98 136.58 553.77 137.3 553.7 138.02 553.63 138.74 553.7 139.46 553.88 140.18 553.66 140.9 554.16 141.62 554.17 142.34 553.73 143.06 553.68 143.78 554.29 144.5 553.71 145.22 553.86 145.94 553.82 146.66 554.04 147.38 553.78 148.1 553.9 148.82 553.84 149.54 553.95 150.26 553.81 150.98 554.24 151.7 554.01 152.41 553.74 153.13 553.68 153.85 554.25 154.57 553.71 155.29 553.98 156 553.76 156.72 553.66 157.44 554 158.15 554.08 158.87 553.82 159.59 554.14 160.31 553.71 161.02 553.67 161.74 553.84 162.45 554.18 163.17 554.21 163.89 554.22 164.6 553.92 165.32 554 166.04 554.12 166.75 553.9 167.47 554.29 168.19 553.89 168.9 553.89 169.62 554.32 170.34 553.83 171.05 554.18 171.77 553.76 172.49 553.88 173.2 553.87 173.92 554.24 174.64 553.78 175.35 554.07 176.07 553.71 176.79 553.96 177.5 553.99 178.22 554.25 178.94 553.71 179.66 554.19 180.38 553.77 181.1 554.11 181.81 553.9 182.53 554.16 183.25 554.07 183.97 554.07 184.69 553.94 185.41 554.24 186.13 553.7 186.85 554.05 187.57 553.85 188.3 554.2 189.02 553.98 189.74 554.04 190.46 554.17 191.19 554.22 191.91 553.89 192.63 554.08 193.35 554.26 194.07 554.12 194.79 554.09 195.51 553.67 196.24 553.82 196.96 554.03 197.68 554.08 198.4 553.82 199.12 554.1 199.84 554 200.55 553.97 201.27 553.99 201.99 554.21 202.71 553.71 203.43 554.14 204.15 554.14 204.87 554.31 205.59 554.02 206.31 553.71 207.03 554.2 207.75 554.11 208.47 554.32 209.19 553.86 209.91 554.11 210.62 554.3 211.34 554.03 212.06 554.2 212.78 553.83 213.5 554.15 214.22 554.01 214.95 553.85 215.67 554.3 216.39 553.74 217.11 553.85 217.83 553.78 218.56 553.77 219.28 553.92 220 553.97 220.72 554.08 221.45 554 222.17 554.11 222.89 553.64 223.61 554.31 224.34 553.75 225.06 553.73 225.78 553.94 226.5 554.28 227.22 553.98 227.94 553.69 228.66 553.73 229.38 553.72 230.1 554.18 230.82 554.06 231.55 554.21 232.27 554.08 232.99 553.83 233.71 554.16 234.43 553.75 235.15 553.74 235.88 553.83 236.6 553.92 237.32 554.07 238.04 554.22 238.77 554.26 239.49 553.67 240.22 554 240.94 554.01 241.66 553.97 242.38 554.01 243.11 553.93 243.83 554.1 244.55 553.88 245.27 553.65 245.99 554.12 246.72 553.64 247.44 554.1 248.16 553.87 248.88 554.02 249.6 553.86 250.33 553.76 251.05 554.11 251.78 553.88 252.5 553.92 253.22 554.15 253.95 553.76 254.67 553.87 255.39 554.22 256.12 553.73 256.83 553.64 257.55 554.16 258.27 553.75 258.99 553.92 259.71 554.14 260.44 553.96 261.16 553.86 261.88 554.3 262.61 553.99 263.33 553.69 264.05 553.95 264.78 554.05 265.5 554.22 266.22 553.98 266.94 554.22 267.66 553.8 268.38 553.95 269.1 553.7 269.82 554.25 270.54 554.22 271.26 553.67 271.99 553.98 272.71 553.68 273.43 554.02 274.16 554.08 274.88 554.2 275.61 554.24 276.33 554.26 277.06 554.19 277.78 554.17 278.5 553.9 279.22 553.99 279.95 554.3 280.67 553.81 281.4 554.1 282.13 554.01 282.85 553.67 283.57 554.17 284.3 554.13 285.02 553.73 285.75 553.88 286.48 553.96 287.2 554.28 287.93 553.85 288.65 554.26 289.38 553.69 290.1 554.29 290.82 553.79 291.55 554.07 292.27 554.02 293 554.29 293.73 554.02 294.45 553.89 295.18 554.03 295.91 554.31 296.63 554.25 297.36 554.14 298.09 554.25 298.82 554.03 299.55 554 300.28 553.79 301.01 554.06 301.74 553.88 302.47 553.77 303.21 554.11 303.93 553.84 304.64 553.96 305.38 553.81 306.09 553.46 306.76 553.53 307.5 553.53 308.24 552.9 308.82 552.89 309.56 553.11 310.39 552.29 310.86 552.21 311.6 552.14 312.36 551.9 313.05 551.31 313.56 551.24 314.34 550.43 314.7 550.04 315.3 549.99 316.13 549.54 316.71 549.1 317.28 548.43 317.67 548.01 318.25 547.26 318.52 547.04 319.33 546.57 319.88 546 320.32 545.51 320.89 544.85 321.21 544.24 321.6 543.58 321.92 542.95 322.27 542.25 322.49 541.71 323.01 540.94 323.05 540.33 323.43 539.64 323.63 539.1 324.27 538.35 324.29 537.68 324.58 537.03 324.97 536.26 324.88 535.51 324.74 534.84 325.1 534.13 325.24 533.4 325.3 532.67 325.11 531.96 325.32"/><polygon class="cls-3" points="228.63 325.18 227.86 324.9 227.14 325.6 226.42 324.83 225.71 325.28 224.99 325.38 224.28 324.86 223.56 324.97 222.84 324.92 222.13 325.48 221.41 325.08 220.69 324.91 219.98 324.87 219.27 324.82 218.55 325.67 217.84 324.85 217.12 325.09 216.4 324.84 215.69 325.31 214.97 324.94 214.25 325.68 213.53 324.92 212.81 324.98 212.09 325.45 211.37 325.67 210.65 324.88 209.93 324.89 209.21 325.13 208.49 325.52 207.76 325.41 207.07 325.26 207.2 325.95 206.92 326.67 207.39 327.39 207.18 328.11 206.66 328.83 207.1 329.55 206.64 330.26 207.25 330.99 207.49 331.71 206.55 332.43 207.36 333.15 207.27 333.87 207.2 334.59 206.97 335.31 206.55 336.03 206.93 336.75 207.34 337.47 207.5 338.19 206.6 338.91 206.56 339.63 206.62 340.34 207.16 341.06 206.76 341.78 206.71 342.5 207.11 343.22 207.38 343.94 207.29 344.67 206.97 345.39 206.8 346.11 207.39 346.83 206.8 347.55 206.75 348.26 207.4 348.98 207.48 349.7 206.85 350.42 206.68 351.13 207.52 351.85 206.93 352.57 207.4 353.29 207.16 354.01 207.19 354.73 206.64 355.45 206.96 356.18 206.88 356.9 206.75 357.62 207.24 358.34 207.19 359.06 206.91 359.78 207.21 360.5 206.73 361.23 206.81 361.95 206.95 362.67 207.02 363.39 207.34 364.12 207.46 364.84 207.48 365.56 207.34 366.28 206.79 367.01 207.47 367.73 207.42 368.45 206.89 369.18 206.65 369.9 207.1 370.62 207 371.35 207.21 372.07 206.75 372.79 207.32 373.5 207.44 374.23 206.65 374.95 206.61 375.68 206.58 376.4 207.14 377.12 206.86 377.85 206.77 378.58 206.68 379.3 206.97 380.03 207 380.76 206.83 381.48 207.18 382.21 207.5 382.94 206.57 383.67 207.28 384.4 207.38 384.79 207.76 384.65 208.47 385.18 209.19 385.29 209.9 384.94 210.62 385.39 211.34 385.34 212.05 385.6 212.77 384.84 213.49 384.65 214.2 385.21 214.92 385.42 215.63 384.65 216.34 384.79 217.06 384.84 217.78 385.18 218.49 385.14 219.21 384.76 219.93 385.44 220.64 385.33 221.36 385.32 222.08 385.33 222.8 384.91 223.52 385.3 224.24 385.01 224.96 384.94 225.68 385.34 226.4 385.47 227.12 385.47 227.85 385.45 228.24 384.79 228.61 384.41 228.62 383.69 228.72 382.97 228.75 382.25 228.3 381.53 228.63 380.81 228.41 380.09 228.4 379.37 228.91 378.65 228.59 377.93 228.49 377.21 228.59 376.49 228.62 375.77 228.63 375.05 228.28 374.32 228.37 373.6 229 372.88 228.34 372.16 228.7 371.45 228.87 370.73 228.66 370.01 228.23 369.3 228.81 368.58 228.69 367.86 228.58 367.14 228.57 366.41 228.91 365.69 228.2 364.97 228.11 364.25 228.19 363.53 228.18 362.81 228.73 362.09 228.73 361.38 228.09 360.66 228.46 359.94 228.35 359.22 228.81 358.5 228.44 357.79 228.35 357.07 228.68 356.35 228.24 355.63 228.9 354.9 228.08 354.18 228.19 353.46 228.26 352.74 228.65 352.01 228.39 351.29 228.43 350.57 228.39 349.85 228.25 349.13 228.89 348.41 228.66 347.69 228.65 346.96 228.69 346.24 228.11 345.52 228.41 344.8 228.13 344.07 228.57 343.35 228.73 342.63 228.42 341.9 228.1 341.18 229.01 340.46 228.12 339.73 228.27 339.01 228.53 338.29 228.18 337.57 228.88 336.85 228.52 336.13 228.43 335.4 228.82 334.68 228.24 333.96 228.4 333.23 228.71 332.51 228.98 331.78 228.21 331.06 228.89 330.33 228.17 329.6 228.15 328.88 228.31 328.15 228.41 327.42 228.08 326.69 228.99 325.97 228.63 325.18"/><polygon class="cls-3" points="471.5 325.56 471.11 324.97 470.4 324.92 469.68 325.46 468.97 325.19 468.25 325.67 467.54 325.08 466.82 325.4 466.1 325.31 465.38 325.36 464.67 325.57 463.95 324.81 463.24 325.43 462.53 325.66 461.81 325.05 461.1 325.68 460.38 324.89 459.66 325.24 458.94 324.79 458.23 325.6 457.51 325.21 456.79 324.77 456.07 325.44 455.35 325.05 454.63 325.1 453.91 325.05 453.19 324.98 452.47 325.46 451.75 325.66 451.02 325.4 450.45 325.38 450.46 325.95 450.61 326.67 450.43 327.39 450.67 328.11 450.17 328.83 450.71 329.55 449.81 330.26 450.26 330.99 450.78 331.71 450.21 332.43 450.06 333.15 450.09 333.87 450.46 334.59 450.4 335.31 450.09 336.03 450.45 336.75 449.8 337.47 450.16 338.19 450.45 338.91 450.12 339.63 450.65 340.34 450.57 341.06 450 341.78 450.68 342.5 449.83 343.22 450.49 343.94 450.07 344.67 450.08 345.39 450.75 346.11 450.52 346.83 450.14 347.55 450.37 348.26 450.6 348.98 450.31 349.7 450.02 350.42 450.56 351.13 449.94 351.85 450.54 352.57 450.69 353.29 450.33 354.01 450.37 354.73 450.57 355.45 450.68 356.18 450.78 356.9 450.23 357.62 450.08 358.34 450.14 359.06 449.87 359.78 450 360.5 450.62 361.23 450.55 361.95 450.59 362.67 450.16 363.39 450.54 364.12 450.17 364.84 450.69 365.56 450.33 366.28 450.19 367.01 450.18 367.73 450.04 368.45 450.61 369.18 450.64 369.9 450.67 370.62 450.23 371.35 450.53 372.07 450.15 372.79 450.27 373.5 450.68 374.23 449.86 374.95 450.43 375.68 449.85 376.4 450.79 377.12 450.65 377.85 449.87 378.58 449.81 379.3 450.39 380.03 450.59 380.76 449.98 381.48 450.52 382.21 450.12 382.94 450.27 383.67 450.09 384.4 450.4 385.03 451.01 385.58 451.73 385.24 452.45 384.85 453.16 384.99 453.88 385.62 454.59 385.11 455.31 384.83 456.03 385.57 456.75 384.74 457.46 385.42 458.18 384.72 458.89 385.61 459.6 385.27 460.32 385.49 461.03 385.08 461.75 385.03 462.47 385.22 463.19 385.48 463.9 384.93 464.62 385.42 465.34 384.69 466.06 384.87 466.78 385.04 467.5 384.67 468.22 384.69 468.94 385.48 469.66 385.53 470.38 385.28 471.11 384.84 472.01 385.31 471.9 384.41 471.39 383.69 471.48 382.97 471.35 382.25 471.66 381.53 471.97 380.81 472.16 380.09 472.17 379.37 472.16 378.65 471.86 377.93 472.2 377.21 472.26 376.49 471.4 375.77 471.46 375.05 472.27 374.32 472.11 373.6 472.13 372.88 471.72 372.16 471.68 371.45 471.87 370.73 471.92 370.01 471.98 369.3 472.2 368.58 471.56 367.86 471.79 367.14 471.56 366.41 472.3 365.69 471.39 364.97 472.05 364.25 471.9 363.53 471.83 362.81 471.82 362.09 471.55 361.38 472.29 360.66 472.23 359.94 472.11 359.22 471.7 358.5 472.13 357.79 471.39 357.07 472.1 356.35 471.66 355.63 471.74 354.9 472.28 354.18 471.99 353.46 471.97 352.74 471.58 352.01 471.43 351.29 471.6 350.57 472.01 349.85 472.05 349.13 472.21 348.41 472.24 347.69 471.63 346.96 471.53 346.24 471.35 345.52 471.44 344.8 472.28 344.07 472.01 343.35 472.32 342.63 471.69 341.9 471.98 341.18 471.88 340.46 472.17 339.73 471.55 339.01 471.5 338.29 472.22 337.57 471.46 336.85 472.11 336.13 472.07 335.4 472.25 334.68 471.76 333.96 471.36 333.23 471.96 332.51 472.17 331.78 471.48 331.06 472.3 330.33 472.31 329.6 472.04 328.88 471.42 328.15 471.38 327.42 471.5 326.69 472.14 325.87 471.5 325.56"/><g class="cls-4"><polygon class="cls-1" points="554.03 303.26 553.26 302.96 552.54 303.24 551.82 303.31 551.11 303.25 550.39 303.06 549.67 303 548.95 303.5 548.24 303.27 547.52 303.48 546.8 303.31 546.09 303.02 545.37 303.43 544.65 303.14 543.93 303.48 543.22 303.06 542.5 303 541.78 303.52 541.07 303.32 540.35 303.03 539.63 303.06 538.92 303.42 538.2 303.39 537.49 303.32 536.77 303.07 536.05 303.37 535.34 303.25 534.62 303.49 533.9 303.26 533.19 303.51 532.47 302.95 531.76 303.52 531.04 303.37 530.32 303.52 529.61 303.13 528.89 303.13 528.18 302.96 527.46 303.32 526.74 303.35 526.03 303.24 525.31 303.01 524.6 303.5 523.88 303.46 523.16 302.9 522.45 303.03 521.73 303.41 521.02 303.32 520.3 303.39 519.59 302.94 518.87 303.1 518.15 303.06 517.44 303.05 516.72 303.48 516.01 303.12 515.29 303.48 514.58 303.14 513.86 303.44 513.14 303.23 512.43 303.44 511.71 303.02 511 303.3 510.28 303.01 509.56 303 508.85 302.97 508.13 303.05 507.42 303.49 506.7 303.02 505.99 303.24 505.27 303.51 504.55 303.2 503.84 303.51 503.12 303.04 502.41 303.34 501.69 303.19 500.98 302.92 500.26 303.26 499.54 303.34 498.83 303.36 498.11 303.36 497.39 303.22 496.68 303.43 495.96 302.9 495.25 303.23 494.53 303 493.81 303.49 493.1 303.13 492.38 302.95 491.67 303.51 490.95 303.03 490.23 303.12 489.52 303.23 488.8 303.05 488.08 303.08 487.37 302.96 486.65 303.04 485.93 302.98 485.22 302.9 484.5 303.36 483.78 302.96 483.07 303.44 482.35 303.03 481.63 303.36 480.92 303.15 480.2 303.53 479.48 302.9 478.76 302.93 478.05 302.9 477.33 303.52 476.61 303.22 475.89 303.32 475.18 303.21 474.46 303.2 473.74 303.29 473.02 303.39 472.31 303.19 471.59 303.4 470.87 303.47 470.15 303 469.43 303.47 468.71 303.38 468 302.9 467.28 303.09 466.56 303.48 465.84 303.38 465.12 303.39 464.4 303.53 463.68 303.1 462.96 303.49 462.24 303.16 461.52 302.94 460.81 303.51 460.09 303.01 459.37 303.52 458.65 303.46 457.93 303.38 457.21 303.2 456.49 303.23 455.77 303.08 455.05 303.22 454.33 303.21 453.61 303.47 452.89 303.26 452.17 303.32 451.45 303.15 450.73 302.94 450.01 303.08 449.29 303.44 448.57 302.9 447.85 303.18 447.13 303.12 446.41 303.06 445.69 303.36 444.97 303.15 444.25 303.14 443.53 302.94 442.82 303.26 442.1 303.11 441.38 303.18 440.66 303.39 439.94 303.53 439.22 303.13 438.5 303.25 437.79 303.17 437.07 303.23 436.35 303.16 435.63 303.43 434.91 302.94 434.19 302.91 433.48 303 432.76 303.3 432.04 303.52 431.32 303.24 430.61 303 429.89 303.4 429.17 303.05 428.45 303.27 427.73 303.12 427.02 302.94 426.3 303.02 425.58 303.49 424.86 303.05 424.15 302.93 423.43 303.09 422.71 303.22 421.99 302.95 421.28 303.21 420.56 303.45 419.84 303.33 419.12 303.08 418.41 303.25 417.69 303.02 416.97 303.21 416.25 303.13 415.54 303.34 414.82 303.5 414.1 302.91 413.38 303.33 412.67 303.43 411.95 303.32 411.23 303.25 410.51 303.15 409.8 303.16 409.08 303.34 408.36 303.34 407.64 303.26 406.93 302.94 406.21 303.18 405.49 302.94 404.77 303.04 404.05 303.28 403.34 303.45 402.62 303.4 401.9 303.52 401.18 303.35 400.46 303.23 399.75 303.15 399.03 303.09 398.31 303.19 397.59 303.5 396.87 303.06 396.15 303.5 395.44 303.37 394.72 303.22 394 303.08 393.28 303.12 392.56 303.47 391.84 303.35 391.12 302.91 390.4 302.89 389.69 303.26 388.96 302.97 388.25 303.36 387.53 303.03 386.81 303.48 386.09 303.34 385.37 303.35 384.65 303.22 383.93 303.26 383.21 303.43 382.49 303.21 381.77 303.48 381.05 303.06 380.32 303.49 379.61 303.53 378.88 303.13 378.16 303.05 377.44 303.3 376.72 303.12 376 303.41 375.28 303.51 374.56 303.37 373.84 303.29 373.12 303.33 372.4 303.46 371.68 303.46 370.96 303.45 370.24 303.45 369.52 303.21 368.8 303.37 368.08 302.89 367.37 303.28 366.65 302.98 365.93 303.1 365.21 303.4 364.49 302.99 363.77 303.08 363.05 303.4 362.33 303.18 361.61 303.1 360.89 303.45 360.18 303.05 359.46 303 358.74 303.03 358.02 303.07 357.3 303.08 356.58 302.94 355.86 303.01 355.14 303.47 354.43 303.31 353.71 303.51 352.99 303.45 352.27 303.32 351.55 303.19 350.83 303.02 350.11 303.45 349.39 303.05 348.68 303.38 347.96 303.11 347.24 303.51 346.52 303.33 345.8 303.4 345.08 303.25 344.36 303.38 343.64 302.9 342.93 303.16 342.21 303.34 341.49 303.06 340.77 303.3 340.05 303.26 339.33 303.52 338.61 303.17 337.89 303.47 337.17 303.37 336.45 302.95 335.73 303.17 335.01 303.44 334.29 303.29 333.57 303.38 332.85 303.03 332.13 303.15 331.41 303.46 330.69 303.2 329.97 303.11 329.25 302.94 328.53 302.95 327.81 303.31 327.08 303.49 326.36 303.21 325.64 303.48 324.92 303.24 324.2 303.03 323.48 303.28 322.76 303.17 322.04 303.22 321.32 303.4 320.6 302.96 319.88 303.44 319.16 302.91 318.44 302.96 317.72 303.47 317 303.16 316.28 303.2 315.56 303.06 314.84 302.94 314.12 303.36 313.4 303.45 312.68 303.16 311.96 302.93 311.24 303.12 310.52 303.47 309.81 303.06 309.08 303.43 308.37 303.46 307.65 303.44 306.93 303.25 306.21 303.3 305.49 303.15 304.77 303.37 304.05 303.11 303.33 303.35 302.62 303.12 301.9 303.47 301.18 303.36 300.46 303.08 299.75 302.9 299.03 303.4 298.31 302.9 297.59 303.35 296.87 303.11 296.16 302.9 295.44 303.44 294.72 302.9 294 303.21 293.28 303.11 292.56 303.07 291.84 302.99 291.12 303.45 290.39 303.39 289.67 303.25 288.95 303.47 288.23 303.36 287.51 303.24 286.79 303.01 286.07 303.37 285.35 303.24 284.63 303.3 283.91 303.16 283.19 303.32 282.47 303.49 281.75 303.17 281.03 303.24 280.31 303.14 279.6 303.14 278.88 303.25 278.16 302.99 277.44 303.34 276.72 303.3 276.01 303.22 275.29 303.4 274.57 303.25 273.86 303.46 273.14 303.26 272.42 302.97 271.7 303.36 270.99 303.38 270.27 302.93 269.55 303.52 268.84 303.1 268.12 302.97 267.4 303.4 266.69 303.37 265.97 303.06 265.25 303.38 264.54 303.43 263.82 303.44 263.1 302.9 262.39 303.52 261.67 302.93 260.95 303.1 260.24 303.18 259.52 302.91 258.8 303.39 258.08 302.94 257.37 303.15 256.65 303.27 255.93 303.05 255.22 303.32 254.5 303.31 253.78 303.03 253.06 303.49 252.34 303.23 251.62 303.38 250.91 303.38 250.19 303.06 249.47 302.95 248.75 303.39 248.03 303.47 247.31 303.08 246.59 303.48 245.87 303.02 245.15 303.33 244.42 303.2 243.7 303.17 242.98 303.51 242.26 303.05 241.53 302.99 240.81 303.02 240.09 303.51 239.37 303.3 238.65 302.89 237.93 303.04 237.2 302.96 236.48 303.4 235.76 302.92 235.04 303.19 234.32 302.94 233.6 303.43 232.88 303.17 232.16 303.51 231.44 303.5 230.72 303.17 230 303.17 229.28 303.31 228.56 303.43 227.84 303.24 227.12 303.08 226.4 303.2 225.69 303.38 224.97 303.18 224.25 303.46 223.53 303.29 222.81 303.39 222.09 302.95 221.37 302.96 220.65 303.27 219.93 303.33 219.21 303.37 218.49 303.5 217.76 303 217.04 303.1 216.32 303.01 215.6 302.9 214.88 303.29 214.16 303.34 213.43 302.98 212.71 303.31 211.99 303.1 211.26 302.95 210.54 303.07 209.82 303 209.09 303.07 208.37 303.02 207.65 303.37 206.93 303.29 206.21 303.3 205.49 303.35 204.76 302.94 204.04 303.24 203.32 303.24 202.6 303 201.88 303.33 201.16 303.42 200.44 303.34 199.72 303.18 199 302.97 198.27 303.26 197.55 303.35 196.83 302.93 196.11 303.3 195.38 303.46 194.66 303.35 193.94 303.05 193.22 303.31 192.49 303.09 191.77 303.21 191.04 303.04 190.32 303.35 189.6 302.98 188.88 303.03 188.15 303.26 187.43 303.12 186.71 303.02 185.99 303.14 185.26 302.9 184.54 303.16 183.82 303.02 183.1 303.5 182.37 303.37 181.65 303.19 180.93 303.22 180.2 302.93 179.48 303.18 178.75 303.32 178.03 303.04 177.31 303.39 176.58 302.92 175.86 303.43 175.14 303.18 174.42 303.42 173.7 303.28 172.98 302.91 172.26 303.38 171.54 303.44 170.81 303.06 170.09 303.06 169.37 303.35 168.64 303.14 167.92 303.23 167.2 302.89 166.48 303.04 165.75 303.41 165.03 302.91 164.31 303.37 163.59 303.48 162.87 303.27 162.15 303.43 161.43 303.19 160.71 302.94 159.99 302.96 159.26 303.32 158.54 302.97 157.81 303.16 157.09 303.09 156.36 303.47 155.64 303.06 154.91 303.16 154.19 303.21 153.47 303.39 152.75 303.28 152.02 303.51 151.3 303.22 150.57 303.37 149.84 303.45 149.12 303.25 148.39 303.29 147.67 303.09 146.94 303.27 146.22 303.38 145.49 303.15 144.76 303.14 144.04 303.04 143.31 303.42 142.59 303.39 141.86 303.13 141.14 303.2 140.42 303.13 139.69 303.36 138.96 302.93 138.24 303.34 137.51 303.05 136.79 303.33 136.06 303.29 135.33 303.38 134.6 302.95 133.87 302.99 133.14 303.39 132.41 302.94 131.69 303.43 130.95 303.25 130.22 303.07 129.49 302.93 128.53 303.43 128.52 302.49 128.55 301.77 128.54 301.05 128.83 300.33 129.01 299.62 128.59 298.9 128.78 298.18 128.68 297.46 129 296.74 128.74 296.02 128.8 295.3 128.48 294.58 128.56 293.87 128.45 293.15 128.55 292.43 128.89 291.71 128.98 290.99 128.45 290.27 128.62 289.55 128.46 288.83 128.9 288.11 128.95 287.39 128.87 286.67 129.06 285.95 128.46 285.23 128.93 284.51 128.73 283.79 129.01 283.07 128.65 282.35 128.7 281.63 129.01 280.91 129.04 280.19 128.75 279.47 129.04 278.75 128.81 278.02 128.76 277.31 128.84 276.58 128.85 275.86 128.46 275.14 129.02 274.42 128.64 273.7 128.77 272.98 128.83 272.26 128.62 271.55 128.67 270.82 128.74 270.11 128.88 269.39 128.44 268.67 128.61 267.95 128.58 267.23 128.52 266.51 128.74 265.79 128.78 265.07 128.88 264.35 129.03 263.63 128.85 262.91 128.67 262.19 128.91 261.47 128.55 260.75 128.46 260.04 128.7 259.32 129 258.6 128.48 257.88 128.84 257.16 128.7 256.44 128.68 255.73 128.52 255.01 128.87 254.29 128.71 253.57 128.91 252.86 128.75 252.14 128.65 251.42 128.6 250.71 128.59 249.99 128.64 249.27 128.72 248.55 129.07 247.83 128.96 247.11 128.58 246.39 128.73 245.67 128.49 244.95 128.73 244.23 128.87 243.51 128.78 242.79 128.5 242.06 128.87 241.34 128.74 240.62 128.51 239.9 128.71 239.18 128.53 238.46 128.5 237.75 128.85 237.03 129.03 236.31 128.62 235.59 129.06 234.87 128.6 234.15 128.56 233.43 128.73 232.71 128.92 232 128.78 231.28 128.52 230.56 129.04 229.84 128.58 229.13 128.77 228.41 128.75 227.69 128.57 226.97 128.64 226.26 128.48 225.54 128.59 224.82 128.76 224.11 128.84 223.39 128.7 222.67 128.65 221.96 128.89 221.24 128.43 220.53 128.8 219.81 128.9 219.09 129.04 218.38 128.75 217.66 129 216.94 128.58 216.23 128.54 215.51 128.72 214.79 128.87 214.08 128.46 213.36 128.65 212.64 128.99 211.93 128.62 211.21 128.83 210.49 128.58 209.78 128.84 209.06 128.66 208.34 128.79 207.62 128.62 206.91 128.64 206.19 128.87 205.47 128.63 204.75 128.52 204.03 128.73 203.31 128.75 202.59 128.64 201.88 128.81 201.16 128.78 200.44 128.78 199.72 128.79 199 128.48 198.28 128.67 197.55 128.92 196.83 128.89 196.11 128.65 195.39 129.01 194.67 128.99 193.94 128.61 193.22 128.43 192.5 128.89 191.78 128.99 191.06 129.03 190.34 128.7 189.61 128.87 188.89 128.8 188.17 129.03 187.45 128.94 186.73 128.55 186.01 128.57 185.29 128.74 184.57 128.69 183.85 128.75 183.13 128.65 182.42 128.69 181.7 128.94 180.98 128.97 180.26 129.01 179.54 128.67 178.82 128.88 178.1 128.61 177.38 128.97 176.66 128.89 175.94 128.89 175.22 128.62 174.5 128.5 173.78 128.63 173.06 128.59 172.34 128.63 171.62 128.6 170.9 128.79 170.18 128.44 169.46 128.8 168.74 128.96 168.02 128.89 167.3 128.71 166.57 128.52 165.85 128.62 165.13 128.98 164.4 128.69 163.68 129.06 162.96 128.48 162.24 128.83 161.51 128.72 160.79 128.61 160.07 128.71 159.35 128.45 158.63 128.47 157.91 128.89 157.19 128.65 156.47 128.73 155.75 128.48 155.02 128.97 154.3 128.87 153.58 128.59 152.86 129.03 152.14 128.74 151.42 128.74 150.7 128.91 149.98 128.89 149.25 128.47 148.53 128.85 147.81 128.75 147.09 128.81 146.36 129.02 145.64 128.44 144.91 128.74 144.19 129.03 143.47 128.81 142.75 129.06 142.02 128.79 141.3 128.67 140.58 128.99 139.86 128.9 139.13 128.89 138.41 128.61 137.69 128.96 136.97 128.54 136.25 128.97 135.52 129.01 134.8 128.83 134.08 128.87 133.35 128.9 132.63 128.78 131.91 128.45 131.18 128.92 130.46 128.5 129.74 128.48 129.01 129.01 128.29 128.83 127.58 128.57 126.86 128.63 126.14 128.57 125.42 129.04 124.69 128.46 123.97 128.61 123.25 128.99 122.52 128.91 121.8 128.62 121.08 128.45 120.35 128.54 119.63 128.76 118.91 128.89 118.19 128.5 117.47 129.02 116.75 128.94 116.03 128.71 115.31 128.6 114.59 128.5 113.87 128.52 113.14 128.43 112.42 128.69 111.7 128.61 110.97 128.83 110.25 128.55 109.52 128.76 108.8 128.62 108.07 128.5 107.35 128.85 106.63 128.82 105.91 128.88 105.18 128.47 104.46 129.01 103.73 128.59 103 128.79 102.28 128.69 101.55 128.77 100.83 128.87 100.1 128.94 99.38 128.51 98.65 128.56 97.93 128.72 97.2 128.9 96.47 128.5 95.75 128.72 95.03 128.53 94.31 128.67 93.58 128.92 92.86 128.7 92.13 128.69 91.4 128.9 90.68 128.61 89.95 128.5 89.22 128.88 88.5 128.84 87.77 128.92 87.04 128.98 86.31 128.44 85.58 128.96 84.85 128.51 84.12 128.92 83.39 128.5 82.66 128.64 81.81 129.47 81.73 130.19 82.19 130.91 81.79 131.62 81.99 132.34 81.98 133.06 82.13 133.77 81.93 134.49 81.74 135.21 81.71 135.93 81.73 136.64 81.91 137.36 82.11 138.08 81.79 138.79 81.81 139.51 81.65 140.23 82.07 140.94 82.21 141.66 81.8 142.38 81.78 143.09 81.64 143.81 82.14 144.53 81.76 145.24 81.64 145.96 82.16 146.68 81.91 147.39 82.07 148.11 82.01 148.82 81.97 149.54 81.95 150.26 82.09 150.97 81.74 151.69 81.7 152.4 81.78 153.12 81.85 153.84 82.15 154.55 81.96 155.27 81.92 155.98 81.77 156.7 81.96 157.42 82.19 158.13 82.05 158.85 81.76 159.56 81.64 160.28 82.03 161 81.61 161.71 81.88 162.43 81.99 163.14 82.05 163.86 81.93 164.57 82.04 165.29 81.65 166.01 81.72 166.72 81.89 167.44 82.23 168.15 82.13 168.87 81.84 169.58 81.63 170.3 82.09 171.02 81.99 171.73 81.69 172.45 81.88 173.16 81.87 173.88 82.03 174.59 81.75 175.31 81.86 176.03 81.84 176.74 82.17 177.46 81.83 178.17 81.84 178.89 82 179.6 82.06 180.32 82.19 181.04 81.84 181.75 81.79 182.47 82.03 183.19 81.81 183.9 81.91 184.62 81.79 185.33 81.93 186.05 81.73 186.76 81.91 187.48 81.67 188.2 81.96 188.91 82.17 189.63 81.65 190.35 81.82 191.06 81.89 191.78 82.07 192.5 81.94 193.21 82.16 193.93 82.05 194.65 82.16 195.36 81.73 196.08 81.62 196.79 81.8 197.51 81.93 198.23 81.91 198.94 82.18 199.66 82.22 200.38 82.03 201.1 82.16 201.81 81.7 202.53 82.23 203.25 81.86 203.97 82.07 204.68 81.77 205.4 81.87 206.12 81.91 206.84 81.81 207.55 82.18 208.27 82.04 208.99 81.85 209.71 82.05 210.42 81.65 211.14 81.66 211.86 82.04 212.58 82.24 213.3 82.1 214.01 81.89 214.73 82.1 215.45 82.18 216.17 82.21 216.89 81.8 217.61 82.16 218.33 82.01 219.04 81.8 219.76 81.65 220.48 81.77 221.2 81.8 221.92 81.61 222.64 81.77 223.36 82.14 224.08 82.2 224.8 81.97 225.52 81.88 226.24 82.14 226.96 81.67 227.68 82.24 228.4 82.22 229.12 81.97 229.84 81.88 230.56 82.06 231.28 81.67 232 82 232.72 82.14 233.44 81.68 234.16 82.01 234.88 82.13 235.6 82.16 236.32 81.79 237.04 81.89 237.76 81.96 238.47 82.19 239.19 82.16 239.91 81.88 240.63 82.17 241.35 82.13 242.07 81.9 242.79 82.23 243.5 82.2 244.22 81.92 244.94 82.03 245.66 81.94 246.38 81.6 247.1 82.19 247.81 81.66 248.53 81.75 249.25 82.14 249.97 82.07 250.69 81.83 251.41 82 252.12 82.07 252.84 81.69 253.56 82.04 254.28 82.15 254.99 81.91 255.71 81.91 256.43 82.03 257.15 82.09 257.86 81.77 258.58 82.04 259.3 81.79 260.02 81.72 260.73 81.81 261.45 81.74 262.17 81.89 262.89 82.01 263.6 81.9 264.32 81.75 265.04 81.7 265.76 81.71 266.47 81.75 267.19 81.91 267.91 82.12 268.63 81.67 269.34 82.2 270.06 81.9 270.78 81.82 271.5 82.03 272.21 81.8 272.93 82.01 273.65 81.71 274.37 81.75 275.08 82.13 275.8 81.61 276.52 81.73 277.24 81.66 277.96 82.09 278.67 82.23 279.39 81.72 280.11 81.98 280.83 82.02 281.55 82.09 282.26 82.03 282.98 81.9 283.7 81.97 284.42 81.77 285.14 81.92 285.86 81.66 286.57 82.12 287.29 82.01 288.01 81.94 288.73 82.14 289.45 81.64 290.17 81.99 290.89 81.83 291.61 82.2 292.32 81.72 293.04 81.97 293.76 81.92 294.48 81.66 295.2 81.81 295.92 82.06 296.64 81.73 297.36 81.78 298.08 81.9 298.8 81.63 299.52 81.7 300.24 81.65 300.96 81.91 301.68 81.96 302.4 81.64 303.12 82.17 303.84 81.85 304.56 82.11 305.29 82.11 306.01 81.73 306.73 82.23 307.45 81.84 308.17 82.09 308.89 81.96 309.61 82.15 310.33 81.72 311.05 81.73 311.77 81.79 312.49 81.96 313.2 82.24 313.92 81.72 314.64 81.97 315.36 82.24 316.08 81.99 316.8 81.68 317.52 82.21 318.24 81.72 318.96 82.05 319.68 81.74 320.4 82.12 321.12 82.19 321.83 81.94 322.55 82.15 323.27 81.71 323.99 82.17 324.71 81.81 325.43 82.02 326.15 82.22 326.87 81.97 327.58 82.12 328.3 81.93 329.02 81.85 329.74 81.92 330.46 82.05 331.18 81.61 331.9 81.85 332.61 81.79 333.33 81.83 334.05 81.75 334.77 82.2 335.49 81.64 336.21 82.02 336.93 81.72 337.65 81.7 338.37 81.82 339.08 81.76 339.8 81.8 340.52 82.11 341.24 81.87 341.96 81.72 342.68 82.19 343.4 81.92 344.12 81.76 344.84 81.69 345.56 81.7 346.28 82.11 347 81.89 347.72 81.7 348.44 81.79 349.16 82.09 349.88 81.64 350.6 81.7 351.32 81.67 352.04 81.68 352.76 81.75 353.48 81.76 354.2 82.19 354.92 81.96 355.64 81.92 356.36 82.22 357.08 81.7 357.81 81.77 358.53 81.69 359.25 81.86 359.97 81.69 360.69 81.84 361.41 82.19 362.13 81.94 362.85 81.97 363.57 81.79 364.29 82.11 365.01 81.97 365.73 81.61 366.45 81.98 367.17 81.71 367.89 82.16 368.61 81.79 369.33 81.94 370.05 82.12 370.76 82.12 371.49 81.8 372.2 82.12 372.92 81.84 373.64 81.94 374.36 81.83 375.08 81.99 375.8 81.94 376.52 82.15 377.24 81.71 377.96 81.98 378.68 81.96 379.4 81.73 380.11 81.61 380.83 82.16 381.55 81.97 382.26 82.21 382.98 82.14 383.7 81.97 384.42 81.67 385.13 82.13 385.85 82.2 386.57 81.7 387.29 81.76 388.01 81.69 388.73 81.7 389.45 82.19 390.17 81.69 390.89 81.63 391.61 81.64 392.33 82.24 393.06 82.17 393.78 82.19 394.5 82.22 395.22 81.73 395.94 82.11 396.66 81.6 397.38 81.92 398.1 81.68 398.82 81.6 399.54 81.74 400.26 81.87 400.98 82.01 401.69 81.8 402.41 81.96 403.13 81.78 403.85 81.88 404.57 81.84 405.29 82.11 406 81.64 406.72 82.03 407.44 81.63 408.16 82.17 408.87 82.15 409.59 81.74 410.31 82.23 411.02 82.24 411.74 82.22 412.46 82.2 413.18 81.83 413.89 81.83 414.61 82 415.32 82.18 416.04 82.1 416.76 82.18 417.48 81.93 418.19 82.03 418.91 81.78 419.63 82.22 420.34 81.77 421.06 81.63 421.77 81.86 422.49 82.16 423.21 81.76 423.93 81.88 424.64 81.78 425.36 82.18 426.08 82.18 426.8 82.06 427.51 82.09 428.23 81.8 428.95 81.95 429.67 81.69 430.38 81.98 431.1 82.08 431.82 81.79 432.54 81.87 433.26 81.85 433.98 81.66 434.7 81.63 435.42 82.02 436.14 82.05 436.86 82.14 437.58 82.06 438.3 81.67 439.02 82.13 439.75 81.65 440.47 81.7 441.19 81.93 441.92 81.97 442.64 81.7 443.36 82.11 444.08 82.13 444.8 82.1 445.52 81.71 446.25 81.77 446.97 81.79 447.69 82.06 448.41 81.88 449.13 81.79 449.85 82 450.57 81.72 451.29 82.06 452.01 82.21 452.73 81.68 453.45 81.78 454.17 82.14 454.88 82.02 455.61 82.09 456.32 81.66 457.04 81.75 457.76 82.2 458.48 82.05 459.2 82.11 459.92 82.16 460.64 81.89 461.36 81.92 462.08 81.98 462.8 81.95 463.52 81.64 464.24 82 464.96 81.64 465.68 82.02 466.4 82.09 467.13 81.64 467.85 81.82 468.57 81.83 469.29 81.61 470.02 81.69 470.74 82 471.46 82.04 472.19 81.83 472.91 81.65 473.63 81.78 474.36 81.64 475.08 82.23 475.8 81.79 476.52 81.86 477.24 82.19 477.96 82.12 478.68 81.83 479.41 82.2 480.13 81.63 480.85 81.74 481.57 81.79 482.29 82.24 483.01 81.69 483.73 81.91 484.45 81.67 485.18 82.12 485.9 81.8 486.62 81.87 487.34 81.91 488.07 82.17 488.79 82.17 489.51 81.77 490.24 81.86 490.96 81.95 491.69 81.92 492.41 82.24 493.13 81.92 493.85 82.04 494.58 81.96 495.3 81.88 496.02 81.7 496.74 82.21 497.46 81.76 498.19 81.76 498.91 82.2 499.63 82.23 500.36 81.64 501.08 81.69 501.8 81.88 502.52 82.22 503.25 81.62 503.97 81.83 504.7 81.76 505.42 81.81 506.14 82.07 506.87 82.16 507.59 81.61 508.31 81.93 509.02 81.71 509.75 81.8 510.47 81.72 511.19 82.2 511.91 82 512.64 82.18 513.36 81.98 514.09 81.63 514.81 81.9 515.53 82.06 516.25 81.9 516.97 81.79 517.69 81.78 518.41 81.83 519.13 81.61 519.86 81.78 520.58 81.62 521.3 81.83 522.02 82.2 522.74 82.05 523.47 82.07 524.19 81.87 524.91 81.77 525.64 81.91 526.37 81.92 527.09 82.13 527.81 82.22 528.54 81.97 529.26 81.62 529.98 81.74 530.71 81.89 531.43 82.16 532.16 82.12 532.88 82.14 533.61 81.87 534.34 82.09 535.06 82.23 535.79 82.06 536.51 81.9 537.24 82.08 537.97 81.63 538.69 81.99 539.42 82.09 540.14 82 540.86 81.87 541.59 81.87 542.31 82.17 543.03 81.98 543.76 82.22 544.49 82.17 545.22 82.09 545.94 81.61 546.67 82.06 547.4 82.21 548.13 81.76 548.86 82.22 549.59 82.02 550.32 81.64 551.04 81.89 551.77 81.75 552.51 82.11 553.24 81.93 553.9 82 554.09 82.64 553.83 83.36 554.25 84.08 554.02 84.8 553.87 85.51 554.02 86.23 554.14 86.95 553.66 87.67 553.82 88.39 553.77 89.11 554.22 89.83 553.88 90.54 553.99 91.26 553.72 91.98 554.04 92.7 554.21 93.42 554.03 94.14 553.97 94.86 554.06 95.58 553.97 96.3 554.24 97.02 554.21 97.74 553.97 98.46 553.73 99.18 554.22 99.9 553.99 100.62 553.98 101.34 554.1 102.06 553.97 102.78 554.22 103.5 554.12 104.22 554.24 104.94 553.96 105.66 554.12 106.38 554.29 107.1 554.22 107.82 553.86 108.54 553.82 109.27 554.01 109.98 554.17 110.7 554.06 111.42 554.14 112.14 553.9 112.86 554.26 113.58 554 114.3 553.67 115.02 553.97 115.74 554.19 116.46 553.97 117.18 553.71 117.9 554.08 118.62 553.77 119.34 553.8 120.06 554 120.78 554.1 121.5 553.82 122.22 553.73 122.94 553.75 123.66 553.99 124.37 553.86 125.09 554.08 125.81 554.02 126.53 554 127.25 554.19 127.97 554.09 128.69 553.88 129.4 553.87 130.12 553.71 130.84 553.97 131.55 554.24 132.27 553.78 132.99 554.17 133.71 554.2 134.42 553.94 135.14 553.98 135.86 554.01 136.58 553.74 137.3 554.12 138.02 554.01 138.74 553.98 139.46 553.76 140.18 554.09 140.9 554.14 141.62 553.7 142.34 553.86 143.06 553.97 143.78 554.28 144.5 553.98 145.22 554.02 145.94 554 146.66 554.05 147.38 554.04 148.1 554.06 148.82 553.97 149.54 553.96 150.26 553.98 150.98 553.78 151.7 553.73 152.41 553.66 153.13 553.72 153.85 553.89 154.57 553.68 155.29 554.14 156 554.16 156.72 553.75 157.44 553.71 158.15 554.26 158.87 553.73 159.59 553.87 160.31 553.83 161.02 554.04 161.74 553.8 162.45 553.91 163.17 553.85 163.89 553.95 164.6 553.82 165.32 554.22 166.04 554.01 166.75 553.76 167.47 553.7 168.19 554.22 168.9 553.73 169.62 553.98 170.34 553.78 171.05 553.69 171.77 554 172.49 554.07 173.2 553.84 173.92 554.13 174.64 553.73 175.35 553.7 176.07 553.85 176.79 554.16 177.5 554.19 178.22 554.2 178.94 553.93 179.66 554 180.38 554.11 181.1 553.91 181.81 554.26 182.53 553.9 183.25 553.89 183.97 554.29 184.69 553.84 185.41 554.16 186.13 553.78 186.85 553.89 187.57 553.88 188.3 554.22 189.02 553.8 189.74 554.06 190.46 553.73 191.19 553.96 191.91 553.99 192.63 554.23 193.35 553.74 194.07 554.17 194.79 553.79 195.51 554.1 196.24 553.9 196.96 554.15 197.68 554.07 198.4 554.06 199.12 553.94 199.84 554.21 200.55 553.73 201.27 554.04 201.99 553.86 202.71 554.18 203.43 553.98 204.15 554.03 204.87 554.15 205.59 554.2 206.31 553.9 207.03 554.07 207.75 554.24 208.47 554.11 209.19 554.08 209.91 553.69 210.62 553.83 211.34 554.02 212.06 554.07 212.78 553.83 213.5 554.09 214.22 554 214.95 553.97 215.67 553.99 216.39 554.19 217.11 553.73 217.83 554.13 218.56 554.13 219.28 554.28 220 554.01 220.72 553.73 221.45 554.18 222.17 554.1 222.89 554.29 223.61 553.87 224.34 554.1 225.06 554.27 225.78 554.02 226.5 554.18 227.22 553.84 227.94 554.14 228.66 554.01 229.38 553.86 230.1 554.27 230.82 553.76 231.55 553.86 232.27 553.8 232.99 553.79 233.71 553.92 234.43 553.97 235.15 554.07 235.88 554 236.6 554.1 237.32 553.67 238.04 554.28 238.77 553.77 239.49 553.75 240.22 553.95 240.94 554.26 241.66 553.98 242.38 553.71 243.11 553.75 243.83 553.74 244.55 554.16 245.27 554.05 245.99 554.19 246.72 554.07 247.44 553.84 248.16 554.14 248.88 553.77 249.6 553.76 250.33 553.85 251.05 553.93 251.78 554.06 252.5 554.2 253.22 554.24 253.95 553.7 254.67 554 255.39 554.01 256.12 553.97 256.83 554.01 257.55 553.93 258.27 554.08 258.99 553.88 259.71 553.68 260.44 554.11 261.16 553.67 261.88 554.09 262.61 553.88 263.33 554.02 264.05 553.87 264.78 553.78 265.5 554.1 266.22 553.89 266.94 553.92 267.66 554.13 268.38 553.78 269.1 553.88 269.82 554.2 270.54 553.75 271.26 553.67 271.99 554.14 272.71 553.77 273.43 553.93 274.16 554.13 274.88 553.96 275.61 553.87 276.33 554.27 277.06 553.99 277.78 553.71 278.5 553.95 279.22 554.05 279.95 554.2 280.67 553.98 281.4 554.2 282.13 553.82 282.85 553.95 283.57 553.73 284.3 554.23 285.02 554.2 285.75 553.7 286.48 553.98 287.2 553.7 287.93 554.01 288.65 554.08 289.38 554.18 290.1 554.22 290.82 554.24 291.55 554.17 292.27 554.15 293 553.91 293.73 553.99 294.45 554.27 295.18 553.82 295.91 554.09 296.63 554 297.36 553.7 298.09 554.15 298.82 554.12 299.55 553.75 300.28 553.89 301.01 553.96 301.74 554.25 302.46 554.03 303.26"/></g><polygon class="cls-5" points="206.84 59.9 207.25 60.62 207.16 61.34 206.56 61.96 206.81 62.73 206.48 63.38 205.99 63.94 205.85 64.64 206 65.54 205.16 65.86 204.81 66.48 204.19 66.88 204.09 67.75 203.6 68.29 202.84 68.5 202.28 68.93 201.57 69.13 200.94 69.42 200.56 70.32 199.67 70 199.13 70.68 198.46 71.04 197.65 70.6 196.93 70.44 196.24 70.97 195.56 70.35 194.82 70.7 194.15 70.44 193.45 70.31 192.86 69.86 192.1 69.89 191.59 69.33 190.95 69.06 190.34 68.73 189.81 68.29 189.37 67.73 188.23 67.92 187.77 67.33 187.61 66.52 186.84 66.18 186.87 65.31 186.72 64.59 186.01 64.14 186.27 63.29 185.57 62.76 185.95 61.95 185.64 61.3 185.61 60.6 185.76 59.9 185.21 59.18 185.41 58.47 185.56 57.77 185.88 57.12 185.64 56.3 186.56 55.89 186.71 55.2 186.43 54.23 187.46 54.03 187.43 53.13 187.88 52.56 188.29 51.95 189.3 51.98 189.88 51.61 190.1 50.7 190.76 50.4 191.47 50.23 191.94 49.51 192.82 49.82 193.53 49.78 194.11 49.2 194.83 49.21 195.51 48.77 196.24 48.74 196.94 49.27 197.61 49.52 198.34 49.38 199.09 49.3 199.87 49.22 200.22 50.3 201.13 50 201.63 50.57 202.16 51.04 202.91 51.22 203.35 51.8 204.19 51.95 204.11 53 205.09 53.11 205.09 53.99 206.07 54.23 206.36 54.91 206.34 55.72 206.33 56.48 206.51 57.15 206.76 57.81 206.99 58.48 206.76 59.21 206.84 59.9"/><polygon class="cls-5" points="303.93 59.9 303.41 60.59 303.74 61.32 304.04 62.1 303.27 62.66 303.08 63.33 303.23 64.14 303.05 64.87 302.61 65.46 302.13 66.01 301.76 66.63 301.08 67 300.97 67.88 300.33 68.27 299.42 68.28 298.95 68.83 298.6 69.62 297.86 69.78 297.04 69.67 296.58 70.49 295.94 70.89 295.19 70.96 294.35 70.19 293.73 71.21 292.99 71.01 292.26 71.04 291.52 71.06 290.88 70.52 290.17 70.43 289.62 69.83 288.98 69.58 288.33 69.35 287.44 69.5 286.83 69.12 286.42 68.47 285.56 68.37 285.53 67.36 285.17 66.75 284.28 66.58 284.13 65.82 283.18 65.56 283.46 64.6 283.18 63.97 283.14 63.25 282.94 62.59 282.13 62.06 282.19 61.32 282.62 60.58 282.2 59.9 281.89 59.17 281.75 58.42 282.55 57.82 282.23 57.02 283.11 56.54 283.38 55.92 283.42 55.18 283.62 54.49 283.94 53.85 284.38 53.29 284.49 52.44 285.22 52.13 285.91 51.83 286.43 51.35 287.15 51.16 287.31 50.07 288.26 50.3 288.72 49.59 289.43 49.4 290.08 49.05 290.81 48.92 291.56 49.03 292.26 48.84 292.99 49.18 293.68 49.33 294.38 49.37 295.06 49.49 295.93 48.94 296.45 49.7 297.09 50 297.8 50.16 298.57 50.24 298.89 51.08 299.7 51.16 300.38 51.48 300.59 52.31 301.26 52.65 301.26 53.56 302.07 53.83 302.38 54.48 302.63 55.15 303.27 55.64 303.14 56.45 303.83 57 303.83 57.74 303.42 58.53 304.3 59.16 303.93 59.9"/><polygon class="cls-5" points="400.99 59.9 400.21 60.59 400.61 61.33 399.97 61.94 400.52 62.79 400.51 63.56 399.66 64.01 399.25 64.59 398.92 65.2 398.51 65.77 398.43 66.57 397.86 67.03 397.69 67.86 396.64 67.78 396.12 68.22 396.01 69.28 395.19 69.34 394.68 69.93 393.81 69.74 393.1 69.82 392.52 70.3 391.77 70.1 391.17 70.74 390.45 70.73 389.74 71.17 389.05 70.34 388.35 70.41 387.55 70.88 386.94 70.32 386.39 69.76 385.59 69.92 384.97 69.56 384.18 69.53 383.65 69.01 383.28 68.31 382.76 67.85 381.83 67.81 381.7 66.95 381.15 66.49 380.52 66.06 380.26 65.37 379.58 64.91 379.5 64.14 379.71 63.3 379.43 62.66 378.87 62.06 379.32 61.27 379.18 60.59 378.91 59.9 378.53 59.17 378.83 58.46 378.62 57.69 379.47 57.15 379.37 56.38 379.26 55.56 379.8 55 380.66 54.66 380.41 53.67 381.37 53.48 381.55 52.72 382.34 52.5 382.34 51.47 383.05 51.18 383.72 50.89 384.26 50.4 384.96 50.21 385.39 49.4 386.11 49.22 386.98 49.59 387.69 49.62 388.38 49.56 389.01 48.84 389.74 48.87 390.44 49.28 391.22 48.64 391.8 49.56 392.44 49.82 393.36 49.23 393.8 50.11 394.47 50.31 395.28 50.31 395.8 50.83 396.59 50.98 396.99 51.64 397.46 52.18 397.55 53.05 398.23 53.39 398.84 53.82 399 54.55 399.3 55.19 399.58 55.82 399.75 56.5 400.54 57.01 400.03 57.85 400.79 58.45 400.17 59.22 400.99 59.9"/><polygon class="cls-5" points="497.29 59.9 497.57 60.63 497.35 61.33 496.96 61.98 496.74 62.65 497.19 63.53 496.75 64.15 496.29 64.73 496.26 65.55 495.16 65.7 495.32 66.68 494.76 67.16 493.91 67.33 493.89 68.35 492.8 68.14 492.51 68.92 491.84 69.18 491.12 69.3 490.48 69.55 489.95 70.09 489.19 69.99 488.58 70.45 487.88 70.45 487.21 70.9 486.49 71.25 485.74 71.23 485.12 70.26 484.29 70.93 483.77 70.01 483.1 69.88 482.35 69.88 481.66 69.67 481.25 68.97 480.35 69.08 479.57 68.91 479.15 68.26 479.14 67.25 478.3 67.08 477.54 66.76 477.07 66.19 477.18 65.28 476.94 64.61 476.44 64.06 476.5 63.29 476.43 62.6 475.74 62.04 475.97 61.29 475.29 60.63 475.32 59.9 475.86 59.2 475.91 58.51 475.37 57.69 476.45 57.21 475.92 56.31 476.5 55.77 477.17 55.3 477.28 54.58 477.8 54.09 478.15 53.51 478.66 53.04 478.89 52.31 479.48 51.91 479.63 50.97 480.17 50.44 480.91 50.25 481.7 50.2 482.28 49.76 482.89 49.32 483.64 49.3 484.36 49.22 485.01 48.7 485.8 49.39 486.49 49.22 487.18 49.29 487.91 49.12 488.66 48.97 489.29 49.45 489.9 49.85 490.83 49.41 491.44 49.87 491.79 50.71 492.45 50.98 493.28 51.05 493.54 51.86 494.25 52.13 494.35 53 495.03 53.35 495.55 53.85 495.82 54.51 496.19 55.12 496.27 55.85 496.8 56.4 496.72 57.16 497.38 57.73 497.6 58.44 497.36 59.19 497.29 59.9"/><polygon class="cls-6" points="196.23 57.33 195.71 57.56 195.23 58.13 195.06 58.84 194.69 59.46 195.24 60.48 194.64 61 194.24 61.61 193.74 62.17 193.96 63.05 193.33 63.56 193.4 64.37 192.97 64.96 192.7 65.63 191.84 66.04 191.56 66.7 192.01 67.68 191.79 68.36 191.52 69.03 190.99 69.59 190.23 70.04 190.31 70.86 189.75 71.4 190.05 72.31 189.28 72.76 189.57 73.67 188.59 74.03 188.51 74.77 188.69 75.63 188.41 76.29 187.5 76.68 187.36 77.4 186.69 77.89 186.46 78.57 186.74 79.48 186.06 79.96 186.32 80.86 185.7 81.37 185.58 82.1 184.8 82.55 185.08 83.45 184.41 83.94 184.52 84.78 183.88 85.28 183.81 86.03 183.3 86.6 183.25 87.36 183.09 88.07 182.22 88.48 182.21 89.26 182.27 90.07 181.4 90.48 181.1 91.13 180.76 91.76 181.07 92.68 180.97 93.42 180.6 94.05 179.76 94.46 179.85 95.28 179.05 95.72 179.08 96.52 178.43 97.02 178.44 97.81 178.49 98.61 178.39 99.34 177.82 99.87 177.75 100.62 177.54 101.3 177.21 101.94 176.48 102.4 176.37 103.14 175.86 103.69 175.63 104.38 175.15 104.95 175.05 105.69 175.28 106.58 174.53 107.04 174.71 107.9 174.34 108.52 173.24 108.83 173.68 109.81 173.06 110.32 172.56 110.88 172.55 111.66 172.18 112.28 171.83 112.91 171.47 113.54 171.72 114.43 170.71 114.77 171.06 115.71 170.15 116.1 170.08 116.85 169.99 117.59 169.24 118.06 169.15 118.81 168.77 119.43 168.6 120.14 168.79 121.01 168.24 121.55 167.81 122.15 167.35 122.74 167.65 123.65 166.86 124.09 166.73 124.83 166.88 125.68 166.46 126.28 166.27 126.99 165.66 127.51 165.66 128.3 164.73 128.68 165.06 129.61 164.85 130.31 164.4 130.9 164.34 131.66 163.55 132.1 163.42 132.83 162.91 133.39 163.01 134.22 162.22 134.66 162.5 135.57 161.68 136.01 161.56 136.74 161.59 137.54 160.78 137.98 160.93 138.84 160.36 139.38 160.57 140.26 159.66 140.66 160.07 141.63 159.48 142.16 158.74 142.63 158.39 143.28 158.45 144.1 158.13 144.83 158.91 144.77 159.62 144.75 160.34 145.15 161.05 144.78 161.77 145.09 162.48 144.94 163.2 145.21 163.91 145.13 164.63 144.83 165.34 144.76 166.06 145.24 166.78 145.06 167.49 144.99 168.21 144.51 168.93 145.08 169.64 144.79 170.36 145.21 171.08 145.15 171.8 145.15 172.51 144.81 173.23 144.59 173.95 144.82 174.66 144.93 175.38 144.91 176.1 144.68 176.81 144.59 177.53 144.69 178.25 144.59 178.96 145.11 179.68 144.82 180.4 144.57 181.11 145.26 181.83 144.63 182.55 145.17 183.27 144.59 183.99 144.83 184.7 144.93 185.42 144.71 186.14 144.55 186.86 144.9 187.57 145.02 188.29 145.07 189 144.68 189.71 144.36 190.43 144.68 191.14 145.09 191.86 144.88 192.58 144.57 193.29 144.58 194.01 145.07 194.73 144.31 195.45 144.76 196.16 144.68 196.88 144.85 197.6 144.29 198.31 145.04 199.03 144.48 199.74 144.95 200.46 145.25 201.17 144.59 201.88 144.76 202.6 145.04 203.32 144.7 204.03 145.28 204.75 144.34 205.47 144.8 206.19 144.89 206.91 144.53 207.63 144.49 208.35 144.61 209.06 145.18 209.78 144.49 210.5 144.61 211.22 145.11 211.94 144.85 212.66 144.38 213.38 144.71 214.1 144.96 214.82 145.24 215.53 145.09 216.25 144.33 216.97 144.87 217.69 144.99 218.41 144.91 219.14 144.49 219.85 144.41 220.58 144.45 221.29 144.47 222.01 145.26 222.72 144.42 223.44 144.72 224.17 144.64 224.89 144.5 225.61 144.59 226.33 144.57 227.05 144.71 227.77 144.43 228.49 145.24 229.22 144.77 229.94 144.42 230.66 144.63 231.39 144.58 232.11 144.89 232.84 145.14 233.57 144.97 234.15 144.69 234.45 143.94 233.88 143.41 233.76 142.68 233.4 142.06 233.12 141.4 232.55 140.86 231.96 140.34 232.36 139.39 232.13 138.7 231.79 138.07 231.42 137.45 231.26 136.74 231.01 136.06 230.06 135.69 229.59 135.12 230.12 134.1 229.1 133.76 228.85 133.08 229.12 132.18 228.46 131.69 228.19 131.02 227.82 130.4 228.18 129.46 227.72 128.88 226.96 128.42 226.85 127.69 226.37 127.11 226.54 126.26 225.8 125.8 225.28 125.24 225.01 124.58 225.62 123.53 225.09 122.98 224.47 122.46 223.95 121.91 224.02 121.1 223.36 120.6 223.81 119.62 223.02 119.18 222.62 118.58 222.45 117.86 222.64 117 222.01 116.49 221.36 115.99 221.25 115.25 221.12 114.52 220.86 113.85 220.31 113.3 220.7 112.35 219.69 112.01 219.48 111.32 219.5 110.52 218.94 109.98 219.16 109.11 218.87 108.45 218.38 107.88 218.4 107.09 217.49 106.7 217.45 105.93 217.26 105.23 217.18 104.48 216.41 104.03 216.21 103.34 216.02 102.65 215.75 101.98 215.44 101.34 215.57 100.51 215.12 99.93 214.15 99.57 214.71 98.54 213.88 98.12 213.41 97.54 213.14 96.88 213.54 95.92 212.47 95.6 212.39 94.85 212.01 94.23 212.14 93.39 211.57 92.85 211.12 92.27 211.02 91.53 210.83 90.82 210.15 90.34 209.87 89.68 210.11 88.79 209.69 88.19 209.6 87.45 209.47 86.72 209.26 86.03 208.26 85.68 208.73 84.69 207.75 84.33 207.62 83.6 207.59 82.83 207.35 82.14 206.84 81.58 206.71 80.86 206.76 80.05 205.97 79.61 206.08 78.77 205.67 78.17 205.28 77.55 204.95 76.9 204.26 76.41 203.98 75.75 203.6 75.13 203.73 74.28 203.47 73.61 203.34 72.88 203.06 72.21 202.43 71.7 202.59 70.84 201.93 70.34 202.1 69.49 201.8 68.84 200.99 68.41 200.5 67.83 200.88 66.88 200.24 66.37 199.56 65.87 199.56 65.08 199.46 64.34 199.44 63.56 198.7 63.09 198.12 62.55 197.91 61.85 198.15 60.95 197.67 60.37 197.79 59.53 197.24 58.97 196.42 58.53 196.7 57.59 196.23 57.33"/><polygon class="cls-7" points="292.99 57.09 292.94 57.77 292.84 58.51 292.35 59.08 291.96 59.69 291.6 60.31 291.09 60.87 291.34 61.76 290.86 62.34 290.13 62.8 289.69 63.39 290.12 64.36 289.93 65.06 289.33 65.58 288.55 66.02 288.96 66.98 288.31 67.48 288.38 68.3 287.85 68.85 287.12 69.32 286.83 69.98 286.92 70.8 286.38 71.35 285.99 71.96 285.93 72.72 285.57 73.34 285.86 74.25 285.19 74.75 285.43 75.63 284.26 75.9 284.43 76.76 284.06 77.38 284.31 78.27 283.64 78.76 283.4 79.44 283.15 80.11 282.71 80.7 282.47 81.38 282.08 82 281.5 82.52 281.47 83.3 280.92 83.84 281.03 84.67 280.84 85.37 280.43 85.98 279.92 86.54 279.69 87.23 279.74 88.03 279.19 88.58 279.16 89.35 278.65 89.91 278.79 90.75 277.91 91.15 277.53 91.78 277.84 92.69 277.14 93.17 277 93.89 276.96 94.66 276.48 95.23 276.12 95.86 275.5 96.37 275.87 97.32 275.28 97.85 274.66 98.36 274.96 99.27 274.3 99.75 273.73 100.28 274.1 101.22 274.03 101.97 273.36 102.46 273.07 103.11 272.62 103.7 272.54 104.44 272.57 105.24 271.57 105.59 271.45 106.33 271.12 106.97 270.9 107.66 270.82 108.41 270.23 108.94 269.74 109.51 270.18 110.48 269.38 110.92 269.13 111.59 269.17 112.39 268.56 112.91 268.38 113.61 268.08 114.26 268.13 115.06 267.47 115.56 267 116.14 266.8 116.84 266.39 117.45 266.75 118.39 266.03 118.86 266.08 119.67 265.71 120.3 265.19 120.86 264.83 121.49 264.98 122.33 264.06 122.72 263.94 123.45 263.49 124.05 263.37 124.78 263.64 125.68 263.32 126.33 262.7 126.85 262.77 127.67 262.41 128.3 261.86 128.85 261.39 129.43 261.14 130.11 261.44 131.03 260.65 131.47 260.18 132.05 260.21 132.84 259.84 133.47 259.77 134.22 259.57 134.93 259.06 135.49 258.35 135.97 258.38 136.77 258.4 137.57 258 138.19 257.3 138.68 257.03 139.35 256.87 140.07 256.5 140.7 256.14 141.34 256.32 142.21 256.04 142.88 255.56 143.47 254.97 144 255.02 144.74 255.65 145.15 256.37 144.41 257.08 144.57 257.8 144.62 258.51 145.1 259.23 145.17 259.94 144.45 260.66 144.74 261.38 144.69 262.09 145.03 262.81 144.48 263.52 144.85 264.24 144.59 264.96 145.29 265.67 144.97 266.39 144.82 267.11 144.89 267.83 144.59 268.55 144.8 269.26 144.93 269.98 144.56 270.7 144.6 271.41 144.31 272.13 144.65 272.85 144.72 273.56 144.82 274.28 145.2 275 145.04 275.71 144.5 276.43 144.4 277.14 145.12 277.86 144.52 278.58 144.85 279.3 144.5 280.01 144.79 280.73 145.22 281.45 145.16 282.17 145.23 282.89 144.57 283.6 144.64 284.32 145.05 285.03 144.4 285.75 144.29 286.46 144.74 287.18 145.13 287.89 144.36 288.61 145.15 289.32 144.41 290.04 145.08 290.76 145.15 291.48 144.6 292.2 145.23 292.91 144.91 293.63 145.04 294.34 144.93 295.06 144.53 295.77 144.82 296.49 144.94 297.2 144.65 297.92 144.76 298.63 145.26 299.35 144.61 300.06 145.13 300.78 145.01 301.5 144.9 302.22 145.12 302.94 144.78 303.66 144.81 304.38 144.97 305.1 144.59 305.81 145.16 306.53 145.03 307.25 144.62 307.96 144.65 308.68 144.35 309.4 145 310.13 144.99 310.85 144.55 311.56 144.91 312.28 144.67 313 144.29 313.72 144.47 314.44 144.79 315.16 144.86 315.88 144.95 316.6 144.89 317.32 144.53 318.04 144.56 318.75 144.91 319.47 144.66 320.19 145.05 320.91 144.31 321.63 145.07 322.35 144.49 323.07 144.5 323.8 144.38 324.52 145.24 325.24 144.59 325.97 144.33 326.69 145.15 327.41 144.36 328.13 145.24 328.86 145.13 329.58 145.18 330.31 144.31 331.09 144.82 330.34 144.31 330.07 143.65 329.76 143 329.59 142.3 329.3 141.65 329.25 140.89 329.38 140.05 329.04 139.41 328.43 138.9 328.59 138.05 328.03 137.51 327.93 136.77 326.9 136.44 326.69 135.74 327.01 134.82 326.46 134.28 326.52 133.47 325.64 133.06 325.81 132.21 325.62 131.5 325.41 130.81 324.56 130.4 324.82 129.5 324.1 129.03 323.5 128.51 324.04 127.49 323.53 126.94 323.33 126.24 322.95 125.62 322.76 124.92 321.79 124.56 321.65 123.84 321.87 122.97 321.26 122.45 321.38 121.61 320.6 121.17 320.21 120.56 320.64 119.59 319.74 119.2 319.87 118.36 319.42 117.77 319.17 117.09 318.89 116.43 318.36 115.88 318.45 115.05 317.54 114.67 317.54 113.88 317.11 113.28 317.03 112.53 316.37 112.04 316.66 111.13 315.92 110.67 315.88 109.9 316.02 109.06 315.8 108.37 314.96 107.95 314.78 107.25 314.04 106.78 313.84 106.09 314.18 105.16 313.64 104.61 313.05 104.08 312.64 103.48 312.63 102.71 312.12 102.15 312.58 101.17 311.47 100.88 311.4 100.13 311.03 99.51 311.18 98.67 310.93 97.99 310.53 97.38 310.16 96.76 309.9 96.09 309.72 95.38 308.97 94.92 309.43 93.94 308.58 93.52 308.3 92.86 308.13 92.15 307.98 91.43 307.96 90.66 307.36 90.14 306.94 89.54 306.41 88.98 306.44 88.19 306.03 87.59 305.47 87.05 305.64 86.19 305.34 85.54 305.19 84.82 305.03 84.1 304.94 83.35 304.16 82.9 304.3 82.06 303.54 81.6 302.9 81.09 303.44 80.08 302.5 79.7 302.45 78.94 302.62 78.08 301.98 77.57 301.68 76.91 300.96 76.43 301.2 75.55 300.79 74.94 300.29 74.36 300.51 73.48 299.77 73.02 299.6 72.3 299.35 71.62 298.73 71.1 298.43 70.45 298.05 69.83 298.44 68.88 297.72 68.41 297.65 67.66 297.67 66.86 296.67 66.5 296.68 65.71 296.17 65.14 296.63 64.16 295.88 63.69 295.69 62.98 295.21 62.4 295.27 61.58 295.14 60.85 294.28 60.43 294.25 59.65 293.42 59.22 294 58.17 293.2 57.72 292.99 57.09"/><polygon class="cls-8" points="389.74 56.97 389.21 57.57 389.37 58.41 388.46 58.8 388.77 59.72 388.71 60.47 388.32 61.08 387.52 61.51 387.29 62.2 386.83 62.77 386.89 63.59 386.85 64.35 386.41 64.94 385.69 65.41 386.12 66.38 385.59 66.93 385.15 67.53 385.18 68.32 384.21 68.68 384.08 69.41 383.98 70.15 384.14 71 383.75 71.62 382.82 72 383.14 72.92 382.23 73.31 382.51 74.21 381.96 74.75 381.31 75.25 381.19 75.98 380.85 76.62 381.11 77.51 380.45 78.01 380.36 78.75 379.91 79.33 379.31 79.86 379.24 80.61 379.06 81.31 378.79 81.98 378.7 82.72 378.49 83.41 377.87 83.93 377.96 84.75 377.62 85.39 377.31 86.04 376.65 86.53 376.94 87.44 376.4 88 376.06 88.63 375.3 89.09 375.13 89.8 374.86 90.46 374.8 91.22 374.96 92.07 374.24 92.54 373.77 93.12 373.44 93.76 373.63 94.63 373.56 95.38 373.23 96.02 372.23 96.37 372.59 97.31 372.12 97.89 371.81 98.53 371.43 99.14 371.61 100 370.89 100.46 370.48 101.06 370.79 101.97 369.59 102.23 369.78 103.1 369.45 103.74 369.24 104.43 368.74 104.99 368.16 105.52 368.71 106.54 367.67 106.88 367.7 107.68 367.38 108.33 367.31 109.08 366.51 109.52 366.54 110.31 366.48 111.07 365.99 111.64 365.83 112.35 365.31 112.91 365.29 113.68 364.48 114.11 364.21 114.77 364.47 115.67 364.2 116.34 363.59 116.86 363.13 117.44 363.47 118.38 362.87 118.9 362.53 119.54 362.28 120.22 362.27 121 361.95 121.64 361.42 122.2 361.38 122.97 361 123.59 360.66 124.23 360.6 124.99 359.83 125.44 359.81 126.22 359.19 126.74 359.1 127.49 358.49 128.01 358.9 128.97 358.55 129.61 357.87 130.1 357.67 130.8 357.82 131.65 356.78 131.98 357.14 132.92 356.79 133.55 356.7 134.3 356.3 134.92 355.31 135.28 355.88 136.31 355.2 136.8 354.55 137.31 354.54 138.1 354.52 138.88 354.24 139.55 353.81 140.15 353.7 140.9 352.94 141.36 352.76 142.07 352.35 142.69 352.08 143.36 351.64 143.97 351.92 144.64 352.4 145.28 353.12 144.77 353.83 144.71 354.55 144.53 355.26 144.4 355.98 144.59 356.69 144.64 357.41 144.95 358.12 144.93 358.84 145.02 359.56 145 360.27 144.68 360.99 144.84 361.7 144.85 362.42 144.79 363.14 145.11 363.86 144.69 364.57 144.63 365.29 144.42 366.01 145.07 366.73 145.02 367.44 144.73 368.16 144.81 368.88 144.36 369.59 144.3 370.31 144.93 371.03 144.91 371.74 144.57 372.46 145.21 373.18 144.9 373.89 144.43 374.61 144.44 375.33 144.79 376.04 144.68 376.76 144.7 377.48 144.41 378.2 145.04 378.92 144.54 379.63 144.48 380.35 144.67 381.07 144.54 381.78 145.26 382.49 144.52 383.21 144.32 383.92 144.76 384.64 145.12 385.36 144.81 386.07 144.99 386.79 144.6 387.51 144.88 388.23 145.22 388.94 144.51 389.66 144.76 390.38 144.91 391.09 144.57 391.81 144.91 392.52 144.53 393.24 144.6 393.95 144.74 394.67 144.54 395.38 144.57 396.1 144.52 396.81 144.89 397.53 144.32 398.25 144.45 398.97 145.21 399.69 144.45 400.41 145.1 401.13 145.15 401.84 145.19 402.56 144.89 403.28 145.15 404 144.63 404.71 145.02 405.43 144.91 406.15 144.59 406.87 144.58 407.59 145.02 408.31 145.16 409.03 144.96 409.75 144.33 410.47 144.5 411.19 144.99 411.91 144.63 412.63 145.18 413.35 145.06 414.07 144.49 414.79 144.34 415.5 145.07 416.22 144.85 416.94 145.27 417.66 144.43 418.38 144.91 419.1 144.3 419.82 145.09 420.55 145.24 421.27 144.3 421.99 144.34 422.71 145 423.44 145.06 424.16 145.22 424.88 144.45 425.61 145.07 426.33 145.17 427.06 144.33 427.66 144.7 427.93 143.95 426.96 143.59 427.37 142.63 426.58 142.19 426.05 141.64 426.47 140.68 425.83 140.18 425.64 139.48 425.01 138.97 424.92 138.23 424.33 137.71 423.96 137.08 423.67 136.43 423.99 135.5 423.24 135.05 423.4 134.19 423.03 133.57 422.5 133.02 421.94 132.47 422.4 131.49 421.72 131 421.24 130.43 421.62 129.48 421.12 128.92 420.86 128.25 420.05 127.81 420.36 126.9 419.74 126.39 419.12 125.87 419.14 125.08 418.79 124.45 418.3 123.88 418.75 122.91 418.09 122.41 418.08 121.63 417.56 121.08 416.87 120.6 417.29 119.63 416.77 119.07 416.18 118.55 415.71 117.97 415.94 117.09 415.73 116.39 414.86 115.98 415.11 115.09 414.38 114.62 414.71 113.69 414.52 112.99 413.58 112.62 413.87 111.71 413.69 111.01 412.58 110.7 412.39 110 412.2 109.3 412.22 108.51 412.04 107.81 411.44 107.28 411.56 106.45 411.06 105.88 410.73 105.24 410.7 104.47 410.2 103.9 409.35 103.5 409.34 102.72 409.45 101.9 409.04 101.3 408.59 100.71 408.13 100.14 408.11 99.36 407.48 98.86 407.92 97.89 407.29 97.38 406.67 96.86 406.76 96.04 406.38 95.42 405.64 94.96 405.41 94.27 405.37 93.5 404.81 92.96 405.13 92.04 404.69 91.45 404.5 90.75 403.93 90.21 403.94 89.43 403.09 89.02 402.79 88.36 403.17 87.42 402.31 87.01 402.52 86.13 402.09 85.54 402.23 84.69 401.93 84.03 401.38 83.49 401.39 82.7 400.88 82.13 400.06 81.7 399.91 80.98 399.96 80.17 399.79 79.46 398.78 79.12 398.75 78.34 398.72 77.57 398.79 76.75 398.33 76.17 397.53 75.72 397.8 74.82 397.36 74.23 396.78 73.69 396.4 73.07 396.02 72.45 396.32 71.53 395.36 71.16 395.56 70.29 394.82 69.83 394.61 69.13 394.88 68.23 394.65 67.55 393.85 67.11 393.87 66.31 393.57 65.65 393.51 64.89 392.81 64.4 392.75 63.64 392.18 63.1 391.63 62.54 391.39 61.85 391.03 61.22 391.52 60.22 390.49 59.87 390.71 58.98 390.11 58.45 390.45 57.51 389.74 56.97"/><polygon class="cls-9" points="486.49 57.02 485.89 57.54 485.68 58.22 485.94 59.12 485.06 59.52 485.39 60.44 484.32 60.76 484.11 61.45 483.89 62.13 484.19 63.04 484.08 63.78 483.45 64.28 482.96 64.85 482.95 65.63 482.66 66.29 482.53 67.02 482.14 67.63 481.42 68.1 481.71 69.01 480.82 69.41 480.57 70.08 480.22 70.72 480.03 71.42 479.79 72.1 479.32 72.67 479.36 73.47 478.62 73.93 478.63 74.72 478.64 75.5 478.42 76.19 478.12 76.84 477.78 77.48 477.8 78.27 477.2 78.79 477.06 79.51 476.64 80.11 476.28 80.74 476.24 81.5 475.97 82.17 475.14 82.59 475.09 83.35 475.15 84.16 474.77 84.78 474.51 85.45 474.12 86.06 473.54 86.6 473.18 87.22 473.22 88.03 472.79 88.63 472.67 89.36 472.46 90.05 471.86 90.57 471.55 91.22 471.45 91.96 470.84 92.48 471 93.33 470.48 93.89 470.5 94.68 470.11 95.29 469.22 95.69 469.15 96.44 468.94 97.13 468.5 97.73 468.48 98.5 468.4 99.24 468.19 99.92 467.32 100.33 467.33 101.11 467.14 101.81 466.85 102.46 466.29 102.99 466.49 103.86 466.15 104.5 465.39 104.95 465.3 105.69 464.7 106.22 465.2 107.22 464.64 107.76 463.84 108.2 463.79 108.97 463.81 109.75 463.29 110.31 462.94 110.94 462.65 111.6 462.1 112.14 461.94 112.86 461.88 113.61 461.81 114.36 461.81 115.14 460.76 115.47 460.88 116.31 460.34 116.86 460.42 117.68 460.14 118.34 459.46 118.84 459.17 119.5 459.46 120.41 458.63 120.83 458.62 121.61 458.18 122.2 458.02 122.92 457.65 123.55 457.58 124.3 457.51 125.06 456.93 125.6 456.08 126.01 456.13 126.82 455.87 127.5 455.83 128.27 455.47 128.9 454.93 129.45 454.53 130.06 454.89 131.01 454.29 131.53 453.98 132.18 453.3 132.67 453.21 133.41 452.71 133.98 452.51 134.69 452.72 135.57 452.18 136.12 452.09 136.87 451.43 137.37 451.52 138.2 451.31 138.9 450.43 139.31 450.62 140.18 449.87 140.65 450.2 141.58 449.88 142.23 449.58 142.9 449.31 143.57 448.73 144.12 448.4 144.81 449.15 144.75 449.86 144.59 450.58 145.19 451.3 144.79 452.01 144.82 452.73 144.31 453.44 145.18 454.15 144.45 454.87 145.17 455.59 145.08 456.3 144.31 457.02 145.15 457.74 144.74 458.45 145.23 459.17 144.44 459.89 144.49 460.6 144.62 461.32 145.14 462.04 144.56 462.76 144.82 463.48 144.7 464.19 144.44 464.91 144.5 465.63 145.03 466.34 144.63 467.06 144.53 467.77 144.72 468.49 144.78 469.21 144.95 469.92 144.5 470.64 144.78 471.36 144.82 472.07 144.79 472.79 144.95 473.51 144.54 474.23 144.84 474.95 144.87 475.66 144.48 476.38 144.73 477.1 145.28 477.82 145.28 478.53 144.63 479.24 144.98 479.96 144.57 480.67 144.74 481.39 144.95 482.1 144.82 482.82 144.38 483.54 144.83 484.26 144.82 484.98 144.93 485.69 145.09 486.41 144.89 487.12 144.94 487.84 144.93 488.55 144.37 489.27 145.06 489.98 145.05 490.7 145.23 491.41 144.77 492.13 145.2 492.84 144.67 493.56 145.04 494.28 144.42 495 145.15 495.72 144.46 496.44 145.09 497.15 144.76 497.87 145 498.59 145.21 499.31 144.34 500.02 145.13 500.74 144.93 501.46 144.78 502.18 144.9 502.9 144.48 503.62 144.3 504.34 145.04 505.06 144.75 505.78 144.85 506.5 144.35 507.22 144.36 507.94 144.35 508.66 144.86 509.38 144.48 510.1 144.42 510.82 144.72 511.53 144.96 512.25 145.26 512.97 145 513.69 145.04 514.41 144.58 515.13 145.24 515.85 144.66 516.57 144.5 517.29 145.01 518.01 144.65 518.74 144.66 519.46 144.34 520.18 145.11 520.91 145.05 521.63 144.32 522.35 144.74 523.08 144.67 523.81 145.18 524.75 144.93 524.18 144.16 523.8 143.55 523.74 142.8 523.76 142.01 522.8 141.64 522.69 140.91 522.91 140.03 522.5 139.43 521.6 139.04 521.7 138.22 521.8 137.39 521.47 136.75 520.45 136.41 520.16 135.75 520.42 134.86 520.31 134.12 519.29 133.78 519.22 133.03 519.24 132.24 519.18 131.48 518.48 131 518.17 130.35 517.67 129.78 517.5 129.07 517.47 128.3 517 127.72 516.75 127.05 516.38 126.43 516.68 125.52 515.55 125.23 515.33 124.54 515.09 123.87 515.46 122.92 514.97 122.36 514.41 121.81 514.48 121 513.97 120.44 514.09 119.61 513.3 119.17 512.98 118.52 512.7 117.86 512.55 117.14 512.21 116.51 511.7 115.94 511.91 115.07 511.46 114.48 511.49 113.68 510.79 113.2 510.24 112.66 509.85 112.04 510.09 111.15 509.73 110.53 509.44 109.87 509.57 109.03 509.12 108.45 508.47 107.95 507.87 107.42 507.65 106.73 507.41 106.06 507.43 105.26 507.11 104.62 507.2 103.79 506.11 103.49 505.95 102.78 506.23 101.88 505.55 101.4 505.41 100.68 505.51 99.86 505.19 99.22 504.54 98.72 504 98.18 503.57 97.58 503.78 96.71 503.57 96.01 502.81 95.56 502.67 94.83 502.18 94.26 501.9 93.6 501.59 92.95 501.4 92.25 501.34 91.49 501 90.86 500.83 90.15 500.98 89.3 500.07 88.92 499.55 88.36 499.36 87.66 499.57 86.78 498.95 86.27 498.72 85.59 498.53 84.89 498.19 84.25 498.03 83.53 498.02 82.75 497.58 82.15 497.32 81.48 496.44 81.07 496.84 80.12 496.69 79.4 495.55 79.11 495.56 78.32 495.75 77.45 495 76.99 494.86 76.26 494.63 75.57 494.11 75.01 493.83 74.34 493.62 73.65 493.33 72.99 493.02 72.34 493.19 71.47 492.28 71.08 492.08 70.39 491.7 69.76 491.74 68.97 491.59 68.25 491.53 67.49 491.06 66.91 490.36 66.42 490.23 65.69 489.63 65.16 489.62 64.38 489.33 63.71 489.21 62.97 488.55 62.47 488.44 61.72 488.25 61.02 487.68 60.47 487.89 59.59 487.53 58.95 487.1 58.34 486.9 57.63 486.49 57.02"/><polygon class="cls-3" points="296.78 221.18 296.24 221.21 295.94 220.44 295.3 220.09 294.77 219.6 294.24 219.12 293.2 219.25 293 218.36 292.31 218.06 291.85 217.5 291.57 216.71 291 216.28 290.51 215.74 289.35 216.01 289.09 215.2 288.64 214.63 287.85 214.47 287.3 214 287.09 213.13 286.62 212.58 286.05 212.15 285.19 212.05 284.72 211.48 283.89 211.36 283.52 210.68 283 210.18 282.54 209.6 281.95 209.18 281.39 208.73 280.94 208.15 280.02 208.13 280 207.04 279.1 206.99 278.75 206.29 278.38 205.6 277.6 205.4 277.25 204.7 276.38 204.62 275.61 204.42 275.16 203.84 274.45 203.55 274.29 202.62 273.34 202.64 273.01 201.91 272.36 201.57 271.76 201.17 271.47 200.39 270.58 200.34 270.02 199.88 269.89 198.91 269.04 198.8 268.97 197.76 268.22 197.53 267.6 197.15 267.11 196.59 266.15 196.62 266.11 195.53 265.37 195.29 264.5 195.2 264.26 194.36 263.78 193.8 263.2 193.35 262.7 192.81 261.94 192.56 262.45 192.04 262.8 191.34 263.29 190.81 264.39 191.01 264.95 190.56 264.95 189.43 265.63 189.12 266.52 189.06 267 188.52 267.45 187.94 268.01 187.49 268.62 187.11 269.05 186.5 269.39 185.79 270.44 185.93 270.8 185.25 271.45 184.91 271.94 184.37 272.63 184.08 273.26 183.72 273.79 183.23 274.11 182.49 274.94 182.35 275.37 181.75 275.87 181.23 276.21 180.5 276.59 179.84 277.7 180.05 278.2 179.53 278.53 178.8 279 178.24 279.38 177.58 280.09 177.3 280.77 176.98 281.34 176.54 281.85 176.03 282.1 175.2 282.89 175.03 283.24 174.32 284.23 174.38 284.62 173.72 285.45 173.59 285.71 172.78 286.24 172.29 286.8 171.85 287.55 171.62 287.68 170.65 288.64 170.68 289.12 170.12 289.89 169.92 289.88 168.79 290.65 168.57 291.51 168.48 291.6 167.45 292.62 167.54 292.82 166.65 293.74 166.63 294.02 165.83 294.43 165.2 295.27 165.07 295.67 164.4 296.39 164.13 296.78 164 297.46 163.94 297.57 164.8 298.41 165.05 298.86 165.63 298.92 166.53 299.49 167.02 300.11 167.47 300.88 167.79 300.71 168.57 300.56 169.11 299.95 169.5 299.56 170.14 299.11 170.72 298.44 171.03 297.94 171.55 297.11 171.67 296.44 171.99 296.19 172.8 295.79 173.45 294.93 173.53 294.7 174.39 293.77 174.4 293.57 175.29 292.83 175.52 292.3 176 291.55 176.23 290.88 176.54 290.79 177.56 289.83 177.53 289.55 178.31 289.02 178.8 288.1 178.82 287.65 179.41 287.54 180.4 286.68 180.49 286.15 180.98 285.38 181.19 285 181.85 284.34 182.19 283.74 182.59 283.23 183.1 283.17 184.15 282.19 184.08 281.58 184.48 281.19 185.13 280.88 185.88 279.82 185.75 279.84 186.9 279.06 187.08 278.41 187.43 277.84 187.88 277.19 188.23 276.69 188.76 275.97 189.02 275.45 189.53 274.85 189.94 274.81 191.02 274.09 191.29 273.21 191.38 273.01 192.27 272.49 192.57 272.92 192.94 273.43 193.45 273.64 194.31 274.22 194.73 275.35 194.5 275.87 194.99 276.13 195.79 276.53 196.43 277.48 196.41 277.86 197.08 278.55 197.38 278.68 198.34 279.75 198.19 280.18 198.8 280.36 199.7 281.03 200.01 281.42 200.67 282.46 200.55 283.03 200.98 283.36 201.7 283.69 202.43 284.15 203 285.01 203.11 285.54 203.59 286.03 204.12 286.81 204.31 287 205.21 287.52 205.71 288.55 205.6 288.79 206.44 289.24 207.03 290.21 206.98 290.45 207.81 291 208.27 291.8 208.42 292.12 209.16 292.82 209.46 293.2 210.13 293.9 210.41 294.32 211.03 295.07 211.26 295.57 211.79 296.06 212.34 296.35 213.12 297.17 213.26 297.91 213.5 298.53 213.89 298.88 214.6 299.67 214.79 299.72 215.87 300.75 215.77 301.04 216.53 300.27 216.82 300.36 217.85 299.31 217.94 299.31 218.89 298.62 219.27 298.46 220.1 298.02 220.69 297.14 220.82 296.78 221.18"/><polygon class="cls-3" points="385.93 221.39 385.05 221.38 384.88 220.56 384.24 220.14 384.29 219.15 383.73 218.66 382.99 218.32 382.56 217.71 381.9 217.3 382.08 216.56 382.19 216.05 382.49 215.28 383.6 215.51 383.58 214.37 384.27 214.07 385.17 214.03 385.77 213.64 386 212.8 386.57 212.36 386.98 211.74 387.69 211.46 388.37 211.16 388.7 210.43 389.13 209.81 389.88 209.59 390.2 208.86 390.83 208.49 391.33 207.96 391.92 207.55 392.76 207.44 393.53 207.24 393.56 206.15 394.1 205.66 394.93 205.54 395.51 205.11 396.02 204.61 396.52 204.07 397.36 203.96 397.54 203.05 398.22 202.74 398.94 202.49 399.23 201.71 399.94 201.45 400.46 200.95 401.06 200.55 401.24 199.64 402.01 199.43 402.92 199.41 403.36 198.8 403.79 198.2 404.52 197.94 404.7 197.03 405.58 196.95 406.21 196.59 406.76 196.11 407.15 195.45 407.54 194.78 408.13 194.36 408.67 193.88 409.24 193.42 409.95 193.13 410.85 192.57 409.66 192.36 409.05 191.98 408.81 191.15 408.29 190.66 407.41 190.6 407.39 189.5 406.44 189.53 406.19 188.71 405.67 188.21 404.79 188.15 404.22 187.7 403.95 186.9 403.06 186.85 402.61 186.26 402.43 185.36 401.49 185.36 400.93 184.91 400.52 184.28 400.15 183.6 399.35 183.45 398.76 183.03 398.05 182.75 397.46 182.34 396.88 181.9 396.57 181.15 396.39 180.24 395.78 179.85 394.93 179.75 394.16 179.55 394 178.62 393.12 178.55 392.92 177.67 392.26 177.34 391.63 176.98 391.34 176.21 390.57 176.01 389.95 175.62 389.53 175 389.06 174.44 388.44 174.05 388.1 173.34 387.37 173.09 386.57 172.91 385.99 172.48 385.27 172.21 384.9 171.52 384.42 170.98 383.59 170.84 383.58 169.72 383.06 169.21 382.14 169.16 382.04 168.56 382.46 168.3 382.26 167.19 383.45 167.22 383.76 166.52 383.76 165.57 384.75 165.44 385.15 164.8 385.43 164.08 385.86 163.11 386.51 163.9 387.14 164.26 387.81 164.58 388.01 165.46 388.4 166.11 389 166.52 389.52 167.02 390.02 167.55 390.6 167.97 391.23 168.33 391.86 168.7 392.64 168.88 393.32 169.18 393.47 170.12 394.11 170.47 394.45 171.18 395.32 171.26 395.87 171.72 396.67 171.88 397.09 172.5 397.79 172.78 397.81 173.88 398.79 173.83 399.23 174.43 399.78 174.9 400.02 175.73 400.73 176 401.14 176.63 402.01 176.71 402.31 177.48 403.14 177.6 403.84 177.89 403.83 179.02 404.37 179.5 405.06 179.81 405.92 179.89 406.31 180.56 406.89 180.98 407.41 181.48 408.31 181.53 408.8 182.07 408.79 183.21 409.56 183.42 410.14 183.84 410.84 184.12 411.41 184.55 411.94 185.04 412.48 185.52 412.96 186.08 413.36 186.72 414.4 186.6 414.33 187.81 415.42 187.65 415.59 188.56 416.15 189.03 416.98 189.16 417.55 189.6 417.98 190.22 418.42 190.82 419.18 191.05 419.33 192.01 420.05 192.29 420.65 192.57 420.24 193.04 419.6 193.39 418.9 193.67 418.78 194.65 417.94 194.76 417.19 195 416.69 195.52 416.37 196.25 415.76 196.64 415.34 197.26 414.72 197.63 414.42 198.4 413.92 198.92 412.88 198.78 412.77 199.78 411.89 199.84 411.15 200.07 410.9 200.88 410.1 201.04 409.92 201.96 408.94 201.9 408.89 202.97 407.99 203.01 407.73 203.82 407.11 204.2 406.75 204.9 405.98 205.1 405.11 205.17 405.05 206.23 403.96 206.05 403.48 206.6 403.06 207.22 402.45 207.6 401.83 207.99 401.67 208.92 400.87 209.09 400.51 209.79 400.05 210.36 399.53 210.86 398.38 210.6 398.05 211.34 397.31 211.58 397.32 212.72 396.65 213.03 396.23 213.64 395.62 214.03 395.13 214.57 394.31 214.71 393.6 215 392.85 215.22 392.5 215.92 391.86 216.29 391.65 217.17 391.13 217.68 390.51 218.07 389.87 218.43 389.15 218.69 388.57 219.13 388.16 219.77 387.43 220.03 386.93 220.57 386.44 221.11 385.93 221.39"/><polygon class="cls-3" points="323.31 252.11 322.49 252.02 322.04 251.09 321.14 251.44 320.47 251.13 319.92 250.5 319.21 250.28 318.56 249.91 317.69 250.15 317.1 249.73 317.24 249.07 317.14 248.27 317.95 247.8 317.56 246.89 318.62 246.51 318.34 245.65 318.76 245.04 318.69 244.25 318.9 243.56 319.71 243.09 319.4 242.21 320.18 241.72 320.68 241.14 320.25 240.22 320.79 239.64 320.6 238.81 320.8 238.11 321.73 237.68 322.13 237.06 322.31 236.36 322.21 235.56 322.23 234.8 322.5 234.13 322.95 233.53 322.84 232.72 322.99 232.01 323.47 231.42 324.26 230.94 324.27 230.18 324.71 229.58 324.74 228.82 325.04 228.17 325.56 227.59 324.95 226.6 325.61 226.08 326.25 225.55 326.26 224.79 326.52 224.12 327.08 223.56 327.22 222.84 327.47 222.17 327.21 221.31 327.81 220.77 327.85 220.01 327.65 219.18 327.94 218.51 328.5 217.95 328.85 217.32 329.33 216.72 329.62 216.07 329.18 215.14 330.06 214.69 330.02 213.91 330.76 213.41 330.48 212.54 330.85 211.91 331.2 211.26 331.33 210.54 331.84 209.96 331.79 209.18 332.07 208.51 332.71 207.97 332.78 207.23 332.46 206.35 332.76 205.69 333.57 205.22 333.25 204.34 333.54 203.68 334.22 203.16 333.85 202.26 334.37 201.68 334.56 200.98 334.89 200.34 335.71 199.87 335.67 199.09 335.5 198.26 336.19 197.74 336.4 197.05 336.54 196.34 337.14 195.79 336.85 194.91 336.9 194.16 337.28 193.53 337.33 192.78 337.66 192.13 337.76 191.4 338.87 191.03 338.56 190.15 338.58 189.39 339.31 188.89 339.6 188.23 339.69 187.49 340.26 186.93 340.35 186.2 340.19 185.38 340.32 184.65 340.5 183.95 341.09 183.4 341.1 182.63 341.92 182.16 342.34 181.54 341.71 180.55 342.86 180.19 342.35 179.25 342.7 178.61 343.23 178.04 343.51 177.38 343.39 176.58 343.59 175.88 344.01 175.27 344.01 174.51 344.73 174 344.57 173.17 345.01 172.57 345.2 171.87 345.62 171.25 346.18 170.68 345.85 169.79 346.24 169.17 346.52 168.5 346.56 167.75 346.91 167.11 347.22 166.46 347.69 165.86 347.79 165.13 347.75 164.35 348.58 163.89 348.1 162.94 348.57 162.35 348.62 161.6 349.27 161.06 349.15 160.25 350.07 159.81 350.23 159.1 350.33 158.37 350.77 157.76 350.63 156.93 350.8 156.23 350.82 155.47 351.76 155.04 351.45 154.16 351.7 153.48 352.24 152.9 352.31 152.15 352.84 151.57 352.84 150.81 353.45 150.26 353.66 149.56 353.46 148.72 353.69 148.03 354.38 147.5 354.7 146.85 354.94 146.17 355.31 145.54 355.07 144.68 355.6 144.11 356.12 143.53 355.71 142.6 356.17 142 356.74 141.43 356.97 140.74 356.58 139.82 356.81 139.13 357.72 138.69 357.51 137.84 357.5 137.06 357.82 136.4 358.64 135.93 358.55 135.12 358.79 134.42 358.87 133.67 359.66 133.53 360 133.76 360.77 133.81 361.58 133.72 362.37 133.71 363.07 133.92 363.45 135.03 364.2 135.13 365.13 134.74 365.66 135.38 365.85 136.19 364.85 136.59 364.8 137.34 364.71 138.07 364.34 138.7 364.02 139.35 364.28 140.21 363.92 140.84 363.55 141.47 363.12 142.08 362.68 142.68 362.64 143.44 362.82 144.27 362.02 144.75 362.1 145.54 362.22 146.35 361.46 146.84 360.84 147.39 361.34 148.34 361.06 149 360.71 149.64 360.65 150.39 360.43 151.07 359.89 151.64 359.59 152.3 358.98 152.84 358.89 153.58 359.19 154.45 358.57 154.99 358.04 155.56 358.19 156.38 357.56 156.92 357.19 157.55 357.22 158.32 357.45 159.17 356.83 159.71 356.75 160.44 356.29 161.04 355.7 161.59 356.07 162.49 356.04 163.24 355.76 163.91 355.55 164.59 354.53 164.99 355.01 165.93 354.71 166.58 354.14 167.14 354.16 167.92 353.48 168.43 353.06 169.04 352.92 169.76 352.49 170.37 353.13 171.37 352.04 171.75 352.43 172.65 352.37 173.4 351.66 173.91 351.57 174.65 351.51 175.39 351.01 175.98 350.78 176.66 350.18 177.21 349.74 177.82 350 178.68 349.82 179.38 349.19 179.92 349.26 180.71 348.66 181.26 348.4 181.93 348.18 182.62 348.18 183.38 348.31 184.2 348.12 184.89 347.11 185.29 346.99 186.02 346.75 186.69 346.31 187.3 346.25 188.05 346.19 188.79 345.83 189.43 345.84 190.2 345.15 190.72 345.19 191.5 344.87 192.15 344.87 192.93 344.68 193.62 344.27 194.24 343.64 194.78 343.53 195.51 343.39 196.23 343.65 197.09 342.79 197.54 342.94 198.37 342.39 198.94 342.37 199.69 341.92 200.3 341.44 200.89 341.49 201.68 341.34 202.39 341 203.04 341.08 203.83 340.87 204.53 340.23 205.06 339.81 205.67 340.06 206.53 339.56 207.1 339.06 207.69 339.02 208.44 339.3 209.3 338.22 209.68 338.76 210.64 337.79 211.05 337.83 211.83 337.7 212.56 337.65 213.31 337.07 213.87 336.7 214.5 337.01 215.38 336.81 216.08 335.9 216.52 335.62 217.18 335.29 217.83 335.29 218.59 334.7 219.14 335.17 220.08 334.95 220.77 334.72 221.45 334.56 222.16 333.84 222.67 333.59 223.34 333.42 224.05 333.64 224.9 332.62 225.3 332.9 226.18 332.26 226.71 332.01 227.39 332.4 228.3 331.43 228.72 331.48 229.51 330.97 230.09 330.67 230.75 330.44 231.44 330.49 232.23 330.02 232.83 329.89 233.56 329.99 234.36 329.32 234.89 328.81 235.47 329.15 236.37 328.55 236.92 328.11 237.54 327.94 238.25 327.62 238.9 327.75 239.71 327.78 240.49 327.69 241.23 327.34 241.87 326.31 242.27 326.37 243.06 326.67 243.94 326.17 244.54 325.52 245.07 325.68 245.91 325.27 246.53 325.29 247.32 324.75 247.89 324.64 248.63 323.86 249.12 324 249.95 323.51 250.55 323.51 251.33 323.31 252.11"/></g></g></svg>