<svg width="256" height="145" viewBox="0 0 256 145" fill="none" xmlns="http://www.w3.org/2000/svg">
<rect y="0.439056" width="256" height="144" fill="#9985FF"/>
<path d="M172 63.8838C172 68.6089 168.156 72.4393 163.414 72.4393C158.673 72.4393 154.829 68.6089 154.829 63.8838C154.829 59.1587 158.673 55.3283 163.414 55.3283C168.156 55.3283 172 59.1587 172 63.8838Z" fill="#BDB0FF"/>
<path opacity="0.64" fill-rule="evenodd" clip-rule="evenodd" d="M148.391 33.9388H84.0003V98.105H148.391V33.9388ZM105.077 52.7993L98.3995 59.216L96.4916 57.3826L101.261 52.7993L96.4916 48.216L98.3995 46.3827L105.077 52.7993Z" fill="white"/>
<path fill-rule="evenodd" clip-rule="evenodd" d="M148.391 74.4239V98.6889H116.782L139.806 59.6064L148.391 74.4239Z" fill="#9985FF"/>
<path fill-rule="evenodd" clip-rule="evenodd" d="M148.391 74.4238V98.6888H116.782L139.806 59.6063L148.391 74.4238Z" fill="white"/>
<path d="M139.805 59.6064L169.854 110.939H109.756L139.805 59.6064Z" fill="white"/>
</svg>
