<svg width="65" height="65" viewBox="0 0 65 65" fill="none" xmlns="http://www.w3.org/2000/svg">
<rect x="0.576431" y="0.439056" width="64" height="64" fill="#9985FF"/>
<path opacity="0.64" d="M12.8595 14.3444H43.1224V44.5018H12.8595V14.3444Z" fill="white"/>
<path d="M39.0873 26.4078L53.21 50.5338H24.9646L39.0873 26.4078Z" fill="white"/>
<path d="M54.2183 28.4182C54.2183 30.6389 52.4117 32.4392 50.1832 32.4392C47.9547 32.4392 46.1481 30.6389 46.1481 28.4182C46.1481 26.1974 47.9547 24.3972 50.1832 24.3972C52.4117 24.3972 54.2183 26.1974 54.2183 28.4182Z" fill="#DAD3FF" fill-opacity="0.55"/>
<path d="M19.627 26.2244L22.7653 23.2086L19.627 20.1929L18.7303 21.0545L20.972 23.2086L18.7303 25.3627L19.627 26.2244Z" fill="#9985FF"/>
<path fill-rule="evenodd" clip-rule="evenodd" d="M43.1226 33.3719V44.7762H28.2664L39.0876 26.4078L43.1226 33.3719Z" fill="#9985FF"/>
<path fill-rule="evenodd" clip-rule="evenodd" d="M43.1226 33.3719V44.7761H28.2664L39.0876 26.4078L43.1226 33.3719Z" fill="white"/>
</svg>
