<svg width="257" height="145" viewBox="0 0 257 145" fill="none" xmlns="http://www.w3.org/2000/svg">
<mask id="mask0" mask-type="alpha" maskUnits="userSpaceOnUse" x="0" y="0" width="257" height="145">
<rect x="0.697876" y="0.0744896" width="256" height="144" fill="#9985FF"/>
</mask>
<g mask="url(#mask0)">
<rect x="0.697876" y="0.0744896" width="256" height="144" fill="#9985FF"/>
<g style="mix-blend-mode:multiply">
<rect x="0.697876" y="0.0744896" width="256" height="144" fill="#9985FF"/>
</g>
<path d="M32.6979 40.0745C32.6979 35.6562 36.2796 32.0745 40.6979 32.0745H216.698C221.116 32.0745 224.698 35.6562 224.698 40.0745V155.716H32.6979V40.0745Z" fill="white"/>
<rect x="57.6979" y="57.0745" width="64" height="70" rx="3" fill="#F0F0F5" stroke="#F0F0F5" stroke-width="2"/>
<path d="M94.7459 96.2425V93.9145H83.6579V96.2425H94.7459Z" fill="#A1A7B3"/>
<rect x="135.698" y="57.0745" width="64" height="70" rx="3" fill="white" stroke="#F0F0F5" stroke-width="2"/>
<path d="M174.186 92.5945H169.242V87.6505H166.746V92.5945H161.802V95.1145H166.746V100.058H169.242V95.1145H174.186V92.5945Z" fill="#A1A7B3"/>
</g>
</svg>
