<svg width="257" height="145" viewBox="0 0 257 145" fill="none" xmlns="http://www.w3.org/2000/svg">
<rect x="0.394897" y="0.368164" width="256" height="144" fill="#9985FF"/>
<path opacity="0.64" d="M172.395 68.6628C172.395 74.4797 171.257 80.2396 169.046 85.6137C166.834 90.9878 163.593 95.8708 159.508 99.9839C155.422 104.097 150.571 107.36 145.233 109.586C139.895 111.812 134.173 112.958 128.395 112.958C122.617 112.958 116.895 111.812 111.557 109.586C106.218 107.36 101.368 104.097 97.2822 99.9839C93.1964 95.8708 89.9554 90.9878 87.7442 85.6137C85.533 80.2396 84.3949 74.4797 84.3949 68.6628L128.395 68.6628H172.395Z" fill="white"/>
<ellipse rx="29.3333" ry="29.5298" transform="matrix(1 0 0 -1 127.728 67.8384)" fill="white"/>
</svg>
