<svg width="65" height="65" viewBox="0 0 65 65" fill="none" xmlns="http://www.w3.org/2000/svg">
<mask id="mask0" mask-type="alpha" maskUnits="userSpaceOnUse" x="0" y="0" width="65" height="65">
<rect x="0.274292" y="0.71051" width="64" height="64" fill="#F0F0F5"/>
</mask>
<g mask="url(#mask0)">
<rect x="0.274292" y="0.71051" width="64" height="64" fill="#9985FF"/>
<rect x="0.274292" y="0.71051" width="64" height="64" fill="#08018A"/>
<path d="M16.3007 13.5712C18.9416 13.5712 18.9416 13.5712 21.5825 13.5712C24.2234 13.5712 24.2234 13.4978 26.8643 13.4978C29.5052 13.4978 29.5052 13.5345 32.1461 13.5345C34.787 13.5345 34.787 13.4978 37.4279 13.4978C40.0688 13.4978 40.0688 13.5345 42.7097 13.5345C45.3506 13.5345 45.3506 13.5345 47.9915 13.5345C50.6324 13.5345 50.6324 13.5345 53.2733 13.5345C55.9142 13.5345 55.9142 13.4978 58.5551 13.4978C61.196 13.4978 61.196 13.4978 63.8369 13.4978C66.4778 13.4978 66.4778 13.4244 69.1187 13.4244C69.9257 13.4244 70.5859 14.158 70.5859 14.965C70.5859 17.6059 70.5492 17.6059 70.5492 20.2468C70.5492 22.8877 70.6593 22.8877 70.6593 25.5286C70.6593 28.1695 70.6593 28.1695 70.6593 30.8104C70.6593 33.4513 70.5492 33.4513 70.5492 36.0922C70.5492 38.7331 70.6226 38.7331 70.6226 41.374C70.6226 44.0149 70.6226 44.0149 70.6226 46.6558C70.6226 49.2967 70.6226 49.2967 70.6226 51.9376C70.6226 54.5785 70.6593 54.5785 70.6593 57.2194C70.6593 59.8603 70.5492 59.8603 70.5492 62.5012C70.5492 65.1421 70.6226 65.1421 70.6226 67.783C70.6226 68.59 69.9257 69.2869 69.1187 69.2869C66.4778 69.2869 66.4778 69.1769 63.8369 69.1769C61.196 69.1769 61.196 69.2135 58.5551 69.2135C55.9142 69.2135 55.9142 69.2502 53.2733 69.2502C50.6324 69.2502 50.6324 69.2135 47.9915 69.2135C45.3506 69.2135 45.3506 69.2135 42.7097 69.2135C40.0688 69.2135 40.0688 69.1769 37.4279 69.1769C34.787 69.1769 34.787 69.2869 32.1461 69.2869C29.5052 69.2869 29.5052 69.1402 26.8643 69.1402C24.2234 69.1402 24.2234 69.2135 21.5825 69.2135C18.9416 69.2135 18.9416 69.2135 16.3007 69.2135C15.4937 69.2135 14.8702 68.5533 14.8702 67.7464C14.8702 65.1055 14.8702 65.1055 14.8702 62.4646C14.8702 59.8237 14.9068 59.8237 14.9068 57.1827C14.9068 54.5418 14.9068 54.5418 14.9068 51.9009C14.9068 49.26 14.8335 49.26 14.8335 46.6191C14.8335 43.9782 14.9068 43.9782 14.9068 41.3373C14.9068 38.6964 14.9068 38.6964 14.9068 36.0555C14.9068 33.4146 14.8702 33.4146 14.8702 30.7737C14.8702 28.1328 14.7968 28.1328 14.7968 25.4919C14.7968 22.851 14.7234 22.851 14.7234 20.2101C14.7234 17.5692 14.7601 17.5692 14.7601 14.9283C14.7968 14.1947 15.4937 13.5712 16.3007 13.5712Z" fill="white"/>
<path d="M51.4306 59.5205C56.1512 59.5205 59.978 55.6937 59.978 50.9731C59.978 46.2525 56.1512 42.4257 51.4306 42.4257C46.71 42.4257 42.8832 46.2525 42.8832 50.9731C42.8832 55.6937 46.71 59.5205 51.4306 59.5205Z" fill="#08018A"/>
<path fill-rule="evenodd" clip-rule="evenodd" d="M50.8963 46.3789L51.6977 46.5926L51.484 47.3939L51.9113 47.5008L52.125 46.6994L52.9263 46.9131L52.7127 47.7679C53.2469 47.9281 53.6742 48.2487 53.8879 48.5692C54.155 48.9431 54.2619 49.4239 54.1016 50.0116C53.9948 50.3855 53.8345 50.6526 53.6208 50.8129C53.4071 51.0266 53.14 51.1334 52.7661 51.1868C53.0866 51.4005 53.3003 51.6676 53.4606 51.9881C53.5674 52.3087 53.6208 52.6826 53.514 53.0566C53.3537 53.6442 53.0332 54.0182 52.5524 54.2318C52.125 54.4455 51.5908 54.4455 50.9498 54.3387L50.7361 55.1934L49.9347 54.9797L50.1484 54.1784L48.065 53.6442L49.8279 47.02L50.6292 47.2336L50.8963 46.3789ZM50.7361 48.3021L52.125 48.676C52.499 48.7829 52.7661 48.9431 52.9263 49.1034C53.0866 49.3171 53.14 49.5308 53.0332 49.8513C52.9798 50.1718 52.8195 50.3321 52.5524 50.4389C52.3387 50.5458 52.0182 50.5458 51.6442 50.4389L50.2553 50.065L50.7361 48.3021ZM51.5908 51.4539C51.9113 51.5608 52.1784 51.721 52.3387 51.9347C52.499 52.1484 52.5524 52.4155 52.4455 52.6826C52.3921 53.0031 52.1784 53.1634 51.9648 53.3237C51.6977 53.4305 51.4305 53.4305 51.0566 53.3237L49.5074 52.8963L49.9882 51.0266L51.5908 51.4539ZM49.7745 54.0182L48.9732 53.8045L48.7595 54.6058L49.5608 54.8195L49.7745 54.0182Z" fill="white"/>
<path fill-rule="evenodd" clip-rule="evenodd" d="M33.2202 44.9605C35.9162 44.7713 38.3283 43.6835 40.2675 42.0281L38.9432 40.7037C38.754 40.5145 38.6594 40.2308 38.6594 39.9943C38.6594 39.7578 38.754 39.5686 38.9432 39.3794C39.3216 39.001 39.8891 39.001 40.2675 39.3794L41.5918 40.7037C43.2472 38.7645 44.2878 36.3524 44.5243 33.6564H42.6797C42.1594 33.6564 41.7337 33.2308 41.7337 32.7105C41.7337 32.1902 42.1594 31.7646 42.6797 31.7646H44.5243C44.3351 29.0686 43.2472 26.6565 41.5918 24.7173L40.2675 26.0416C40.1729 26.1362 40.031 26.2308 39.8891 26.2781C39.8418 26.2781 39.7472 26.3254 39.6999 26.3254C39.6527 26.3254 39.5581 26.3254 39.5108 26.3254C39.4162 26.3254 39.2743 26.2781 39.1797 26.2308L39.1324 26.1835C39.0851 26.1362 38.9905 26.0889 38.9432 26.0416C38.5648 25.6632 38.5648 25.0483 38.9432 24.7173L40.2675 23.3929C38.3283 21.7375 35.9162 20.6497 33.2202 20.4605V22.3051C33.2202 22.8254 32.7946 23.251 32.2743 23.251C31.754 23.251 31.3283 22.8254 31.3283 22.3051V20.4605C28.6324 20.6497 26.2202 21.7375 24.281 23.3929L25.6054 24.7173C25.9837 25.0956 25.9837 25.6632 25.6054 26.0416C25.4635 26.1835 25.227 26.2781 25.0378 26.3254C24.754 26.3727 24.4702 26.2781 24.281 26.0416L22.9567 24.7173C21.3013 26.6565 20.2608 29.0686 20.0243 31.7646H21.8689C22.3892 31.7646 22.8148 32.1902 22.8148 32.7105C22.8148 33.2308 22.3892 33.6564 21.8689 33.6564H20.0243C20.1189 34.8389 20.3554 35.974 20.781 37.0618C21.3013 38.3862 22.0108 39.6159 22.9567 40.7037L24.281 39.3794C24.6594 39.001 25.227 39.001 25.6054 39.3794C25.9837 39.7578 25.9837 40.3727 25.6054 40.7037L24.281 42.0281C26.2202 43.6835 28.6324 44.7713 31.3283 44.9605V43.1159C31.3283 42.5956 31.754 42.1699 32.2743 42.1699C32.5108 42.1699 32.7 42.2645 32.8418 42.3591C32.8891 42.4064 32.9364 42.4537 32.9837 42.501C33.031 42.5483 33.0783 42.5956 33.0783 42.6429C33.1256 42.6902 33.1256 42.7375 33.1729 42.8321C33.2202 42.9267 33.2202 43.0213 33.2202 43.1159V44.9605Z" fill="#5D9DEC"/>
<path d="M33.835 33.7983L36.7675 28.4064C36.9094 28.1699 36.6256 27.9334 36.3891 28.028L30.9972 30.9604C29.7675 31.6226 29.4837 33.3253 30.5242 34.3185C31.5175 35.3118 33.1729 35.0753 33.835 33.7983Z" fill="black"/>
</g>
</svg>
