<svg width="256" height="145" viewBox="0 0 256 145" fill="none" xmlns="http://www.w3.org/2000/svg">
<rect y="0.0744896" width="256" height="144" fill="#9985FF"/>
<mask id="mask0" mask-type="alpha" maskUnits="userSpaceOnUse" x="0" y="0" width="256" height="145">
<rect y="0.0744896" width="256" height="144" fill="#9985FF"/>
</mask>
<g mask="url(#mask0)">
<path d="M32 40.6568C32 35.9169 35.5817 32.0745 40 32.0745H216C220.418 32.0745 224 35.9169 224 40.6568V152.227H32V40.6568Z" fill="white"/>
<path d="M48 60.0745C48 57.8654 49.7909 56.0745 52 56.0745H60C62.2091 56.0745 64 57.8654 64 60.0745V68.0745C64 70.2836 62.2091 72.0745 60 72.0745H52C49.7909 72.0745 48 70.2836 48 68.0745V60.0745Z" fill="#08018A"/>
<path fill-rule="evenodd" clip-rule="evenodd" d="M59.5236 61.5375C59.8202 61.8267 59.8262 62.3015 59.537 62.5981L55.637 66.5981C55.4958 66.7428 55.3022 66.8245 55.1 66.8245C54.8978 66.8245 54.7042 66.7428 54.563 66.5981L52.463 64.4442C52.1738 64.1476 52.1798 63.6728 52.4764 63.3836C52.773 63.0945 53.2478 63.1005 53.537 63.3971L55.1 65.0001L58.463 61.5509C58.7522 61.2543 59.227 61.2483 59.5236 61.5375Z" fill="white"/>
<path opacity="0.32" d="M76 61.0745C76 59.9699 76.8954 59.0745 78 59.0745H162C163.105 59.0745 164 59.9699 164 61.0745V68.0745C164 69.1791 163.105 70.0745 162 70.0745H78C76.8954 70.0745 76 69.1791 76 68.0745V61.0745Z" fill="#08018A"/>
<path opacity="0.2" d="M76 89.0745C76 87.9699 76.8954 87.0745 78 87.0745H146C147.105 87.0745 148 87.9699 148 89.0745V96.0745C148 97.1791 147.105 98.0745 146 98.0745H78C76.8954 98.0745 76 97.1791 76 96.0745V89.0745Z" fill="#08018A"/>
<path opacity="0.12" d="M76 117.074C76 115.97 76.8954 115.074 78 115.074H186C187.105 115.074 188 115.97 188 117.074V124.074C188 125.179 187.105 126.074 186 126.074H78C76.8954 126.074 76 125.179 76 124.074V117.074Z" fill="#08018A"/>
<path d="M48 88.0745C48 85.8654 49.7909 84.0745 52 84.0745H60C62.2091 84.0745 64 85.8654 64 88.0745V96.0745C64 98.2836 62.2091 100.074 60 100.074H52C49.7909 100.074 48 98.2836 48 96.0745V88.0745Z" fill="white"/>
<path fill-rule="evenodd" clip-rule="evenodd" d="M60 86.0745H52C50.8954 86.0745 50 86.9699 50 88.0745V96.0745C50 97.1791 50.8954 98.0745 52 98.0745H60C61.1046 98.0745 62 97.1791 62 96.0745V88.0745C62 86.9699 61.1046 86.0745 60 86.0745ZM52 84.0745C49.7909 84.0745 48 85.8654 48 88.0745V96.0745C48 98.2836 49.7909 100.074 52 100.074H60C62.2091 100.074 64 98.2836 64 96.0745V88.0745C64 85.8654 62.2091 84.0745 60 84.0745H52Z" fill="#08018A" fill-opacity="0.2"/>
<path d="M48 116.074C48 113.865 49.7909 112.074 52 112.074H60C62.2091 112.074 64 113.865 64 116.074V124.074C64 126.284 62.2091 128.074 60 128.074H52C49.7909 128.074 48 126.284 48 124.074V116.074Z" fill="white"/>
<path fill-rule="evenodd" clip-rule="evenodd" d="M60 114.074H52C50.8954 114.074 50 114.97 50 116.074V124.074C50 125.179 50.8954 126.074 52 126.074H60C61.1046 126.074 62 125.179 62 124.074V116.074C62 114.97 61.1046 114.074 60 114.074ZM52 112.074C49.7909 112.074 48 113.865 48 116.074V124.074C48 126.284 49.7909 128.074 52 128.074H60C62.2091 128.074 64 126.284 64 124.074V116.074C64 113.865 62.2091 112.074 60 112.074H52Z" fill="#08018A" fill-opacity="0.12"/>
</g>
</svg>
