<svg width="1440" height="900" viewBox="0 0 1440 900" fill="none" xmlns="http://www.w3.org/2000/svg">
<rect width="1440" height="900" fill="white"/>
<g filter="url(#filter0_d)">
<rect x="392" y="276" width="656" height="92" rx="8" fill="white"/>
<rect x="392.5" y="276.5" width="655" height="91" rx="7.5" stroke="#F0F0F5"/>
</g>
<path d="M478.672 307.493H480.153C480.109 305.862 478.667 304.679 476.599 304.679C474.555 304.679 472.989 305.847 472.989 307.602C472.989 309.019 474.004 309.849 475.639 310.292L476.842 310.62C477.931 310.908 478.771 311.266 478.771 312.171C478.771 313.165 477.822 313.822 476.514 313.822C475.331 313.822 474.347 313.295 474.257 312.186H472.716C472.815 314.031 474.242 315.169 476.524 315.169C478.915 315.169 480.293 313.911 480.293 312.186C480.293 310.352 478.657 309.641 477.364 309.322L476.37 309.064C475.575 308.86 474.516 308.487 474.521 307.513C474.521 306.648 475.311 306.006 476.564 306.006C477.732 306.006 478.562 306.553 478.672 307.493ZM483.356 310.466C483.356 309.248 484.126 308.552 485.185 308.552C486.209 308.552 486.821 309.203 486.821 310.322V315H488.307V310.143C488.307 308.239 487.263 307.264 485.692 307.264C484.504 307.264 483.788 307.781 483.43 308.607H483.336V304.818H481.869V315H483.356V310.466ZM492.373 315.169C493.636 315.169 494.347 314.528 494.63 313.956H494.69V315H496.142V309.929C496.142 307.707 494.392 307.264 493.179 307.264C491.797 307.264 490.524 307.821 490.027 309.213L491.424 309.531C491.642 308.989 492.199 308.467 493.199 308.467C494.158 308.467 494.65 308.969 494.65 309.835V309.869C494.65 310.411 494.093 310.401 492.721 310.56C491.275 310.729 489.793 311.107 489.793 312.842C489.793 314.344 490.922 315.169 492.373 315.169ZM492.696 313.976C491.856 313.976 491.25 313.598 491.25 312.862C491.25 312.067 491.956 311.783 492.816 311.669C493.298 311.604 494.441 311.475 494.655 311.261V312.246C494.655 313.151 493.934 313.976 492.696 313.976ZM497.982 315H499.468V310.337C499.468 309.337 500.239 308.616 501.293 308.616C501.601 308.616 501.949 308.671 502.068 308.706V307.284C501.919 307.264 501.626 307.249 501.437 307.249C500.542 307.249 499.776 307.756 499.498 308.577H499.418V307.364H497.982V315ZM506.232 315.154C507.898 315.154 509.076 314.334 509.414 313.091L508.007 312.837C507.739 313.558 507.093 313.926 506.247 313.926C504.975 313.926 504.12 313.101 504.08 311.629H509.509V311.102C509.509 308.343 507.858 307.264 506.128 307.264C504 307.264 502.598 308.885 502.598 311.232C502.598 313.603 503.98 315.154 506.232 315.154ZM504.085 310.516C504.144 309.432 504.93 308.492 506.138 308.492C507.291 308.492 508.047 309.347 508.052 310.516H504.085ZM515.523 317.844C516.751 317.844 517.531 317.202 517.969 316.019L521.126 307.379L519.52 307.364L517.586 313.29H517.506L515.572 307.364H513.982L516.776 315.099L516.592 315.607C516.214 316.596 515.682 316.685 514.866 316.462L514.509 317.68C514.688 317.764 515.075 317.844 515.523 317.844ZM525.33 315.154C527.482 315.154 528.889 313.578 528.889 311.217C528.889 308.84 527.482 307.264 525.33 307.264C523.177 307.264 521.77 308.84 521.77 311.217C521.77 313.578 523.177 315.154 525.33 315.154ZM525.335 313.906C523.928 313.906 523.271 312.678 523.271 311.212C523.271 309.75 523.928 308.507 525.335 308.507C526.732 308.507 527.388 309.75 527.388 311.212C527.388 312.678 526.732 313.906 525.335 313.906ZM535.246 311.833C535.251 313.131 534.286 313.747 533.451 313.747C532.531 313.747 531.895 313.081 531.895 312.042V307.364H530.409V312.221C530.409 314.115 531.448 315.099 532.914 315.099C534.063 315.099 534.843 314.493 535.196 313.678H535.276V315H536.737V307.364H535.246V311.833ZM538.595 315H540.081V310.337C540.081 309.337 540.852 308.616 541.906 308.616C542.214 308.616 542.562 308.671 542.681 308.706V307.284C542.532 307.264 542.239 307.249 542.05 307.249C541.155 307.249 540.39 307.756 540.111 308.577H540.032V307.364H538.595V315ZM550.958 307.364H549.391V305.534H547.905V307.364H546.786V308.557H547.905V313.066C547.9 314.453 548.959 315.124 550.132 315.099C550.605 315.094 550.923 315.005 551.097 314.94L550.828 313.712C550.729 313.732 550.545 313.777 550.306 313.777C549.824 313.777 549.391 313.618 549.391 312.758V308.557H550.958V307.364ZM555.596 315.154C557.749 315.154 559.156 313.578 559.156 311.217C559.156 308.84 557.749 307.264 555.596 307.264C553.444 307.264 552.037 308.84 552.037 311.217C552.037 313.578 553.444 315.154 555.596 315.154ZM555.601 313.906C554.194 313.906 553.538 312.678 553.538 311.212C553.538 309.75 554.194 308.507 555.601 308.507C556.998 308.507 557.655 309.75 557.655 311.212C557.655 312.678 556.998 313.906 555.601 313.906ZM565.175 310.053H560.66V311.341H565.175V310.053ZM569.875 315.149C571.267 315.149 571.813 314.299 572.082 313.812H572.206V315H573.658V304.818H572.171V308.602H572.082C571.813 308.129 571.306 307.264 569.884 307.264C568.04 307.264 566.683 308.721 566.683 311.197C566.683 313.668 568.02 315.149 569.875 315.149ZM570.203 313.881C568.875 313.881 568.184 312.713 568.184 311.182C568.184 309.665 568.86 308.527 570.203 308.527C571.5 308.527 572.196 309.586 572.196 311.182C572.196 312.788 571.485 313.881 570.203 313.881ZM578.856 315.154C581.009 315.154 582.416 313.578 582.416 311.217C582.416 308.84 581.009 307.264 578.856 307.264C576.703 307.264 575.296 308.84 575.296 311.217C575.296 313.578 576.703 315.154 578.856 315.154ZM578.861 313.906C577.454 313.906 576.798 312.678 576.798 311.212C576.798 309.75 577.454 308.507 578.861 308.507C580.258 308.507 580.914 309.75 580.914 311.212C580.914 312.678 580.258 313.906 578.861 313.906ZM585.213 304.818H583.94V305.788C583.94 306.558 583.602 307.19 583.214 307.761L583.95 308.288C584.716 307.672 585.213 306.618 585.213 305.773V304.818ZM591.637 309.228C591.328 308.04 590.399 307.264 588.748 307.264C587.023 307.264 585.8 308.174 585.8 309.526C585.8 310.61 586.456 311.331 587.888 311.649L589.181 311.933C589.916 312.097 590.259 312.425 590.259 312.902C590.259 313.494 589.628 313.956 588.654 313.956C587.764 313.956 587.192 313.573 587.013 312.822L585.576 313.041C585.825 314.393 586.948 315.154 588.664 315.154C590.508 315.154 591.786 314.175 591.786 312.793C591.786 311.714 591.1 311.048 589.698 310.724L588.485 310.446C587.644 310.247 587.281 309.964 587.286 309.447C587.281 308.86 587.918 308.442 588.763 308.442C589.688 308.442 590.115 308.955 590.289 309.467L591.637 309.228Z" fill="#111215"/>
<path d="M945.119 316.818V327H946.58V319.627H946.675L949.678 326.985H950.891L953.893 319.632H953.988V327H955.45V316.818H953.585L950.344 324.733H950.224L946.983 316.818H945.119ZM959.646 327.169C960.909 327.169 961.62 326.528 961.903 325.956H961.963V327H963.415V321.929C963.415 319.707 961.665 319.264 960.451 319.264C959.069 319.264 957.797 319.821 957.299 321.213L958.696 321.531C958.915 320.989 959.472 320.467 960.471 320.467C961.431 320.467 961.923 320.969 961.923 321.835V321.869C961.923 322.411 961.366 322.401 959.994 322.56C958.547 322.729 957.066 323.107 957.066 324.842C957.066 326.344 958.194 327.169 959.646 327.169ZM959.969 325.976C959.129 325.976 958.522 325.598 958.522 324.862C958.522 324.067 959.228 323.783 960.089 323.669C960.571 323.604 961.714 323.475 961.928 323.261V324.246C961.928 325.151 961.207 325.976 959.969 325.976ZM965.254 327H966.741V324.29L967.482 323.55L970.077 327H971.901L968.6 322.64L971.693 319.364H969.913L966.87 322.595H966.741V316.818H965.254V327ZM975.884 327.154C977.55 327.154 978.728 326.334 979.066 325.091L977.659 324.837C977.391 325.558 976.744 325.926 975.899 325.926C974.626 325.926 973.771 325.101 973.731 323.629H979.16V323.102C979.16 320.343 977.51 319.264 975.78 319.264C973.652 319.264 972.25 320.885 972.25 323.232C972.25 325.603 973.632 327.154 975.884 327.154ZM973.736 322.516C973.796 321.432 974.582 320.492 975.79 320.492C976.943 320.492 977.699 321.347 977.704 322.516H973.736ZM984.235 329.864H985.721V325.812H985.811C986.079 326.299 986.626 327.149 988.018 327.149C989.868 327.149 991.21 325.668 991.21 323.197C991.21 320.721 989.848 319.264 988.003 319.264C986.586 319.264 986.074 320.129 985.811 320.602H985.687V319.364H984.235V329.864ZM985.692 323.182C985.692 321.586 986.388 320.527 987.685 320.527C989.032 320.527 989.709 321.665 989.709 323.182C989.709 324.713 989.013 325.881 987.685 325.881C986.407 325.881 985.692 324.788 985.692 323.182ZM997.573 323.833C997.578 325.131 996.613 325.747 995.778 325.747C994.858 325.747 994.222 325.081 994.222 324.042V319.364H992.735V324.221C992.735 326.115 993.775 327.099 995.241 327.099C996.39 327.099 997.17 326.493 997.523 325.678H997.603V327H999.064V319.364H997.573V323.833ZM1001.04 327H1002.49V325.812H1002.62C1002.89 326.299 1003.43 327.149 1004.82 327.149C1006.67 327.149 1008.02 325.668 1008.02 323.197C1008.02 320.721 1006.65 319.264 1004.81 319.264C1003.39 319.264 1002.88 320.129 1002.62 320.602H1002.53V316.818H1001.04V327ZM1002.5 323.182C1002.5 321.586 1003.19 320.527 1004.49 320.527C1005.84 320.527 1006.51 321.665 1006.51 323.182C1006.51 324.713 1005.82 325.881 1004.49 325.881C1003.21 325.881 1002.5 324.788 1002.5 323.182ZM1011.03 316.818H1009.55V327H1011.03V316.818ZM1012.89 327H1014.38V319.364H1012.89V327ZM1013.64 318.185C1014.15 318.185 1014.58 317.788 1014.58 317.3C1014.58 316.813 1014.15 316.411 1013.64 316.411C1013.13 316.411 1012.7 316.813 1012.7 317.3C1012.7 317.788 1013.13 318.185 1013.64 318.185ZM1019.45 327.154C1021.26 327.154 1022.43 326.07 1022.59 324.584H1021.14C1020.96 325.409 1020.31 325.896 1019.46 325.896C1018.21 325.896 1017.4 324.847 1017.4 323.182C1017.4 321.546 1018.22 320.517 1019.46 320.517C1020.41 320.517 1020.99 321.114 1021.14 321.83H1022.59C1022.43 320.288 1021.17 319.264 1019.44 319.264C1017.29 319.264 1015.89 320.885 1015.89 323.217C1015.89 325.518 1017.24 327.154 1019.45 327.154Z" fill="#3700FF"/>
<path d="M473.233 328.818V339H474.386V331.264H474.486L477.668 339H478.781L481.963 331.264H482.062V339H483.216V328.818H481.744L478.284 337.27H478.165L474.705 328.818H473.233ZM487.636 339.179C488.968 339.179 489.665 338.463 489.903 337.966H489.963V339H491.136V333.969C491.136 331.543 489.287 331.264 488.312 331.264C487.159 331.264 485.846 331.662 485.25 333.054L486.363 333.452C486.622 332.895 487.233 332.298 488.352 332.298C489.431 332.298 489.963 332.87 489.963 333.849V333.889C489.963 334.456 489.386 334.406 487.994 334.585C486.577 334.769 485.031 335.082 485.031 336.832C485.031 338.324 486.184 339.179 487.636 339.179ZM487.815 338.125C486.88 338.125 486.204 337.707 486.204 336.892C486.204 335.997 487.02 335.719 487.934 335.599C488.432 335.54 489.764 335.401 489.963 335.162V336.236C489.963 337.19 489.207 338.125 487.815 338.125ZM493.138 339H494.311V336.141L495.131 335.381L497.99 339H499.481L496.016 334.625L499.243 331.364H497.791L494.45 334.764H494.311V328.818H493.138V339ZM503.5 339.159C505.051 339.159 506.185 338.384 506.543 337.23L505.409 336.912C505.111 337.707 504.42 338.105 503.5 338.105C502.123 338.105 501.173 337.215 501.119 335.58H506.662V335.082C506.662 332.239 504.972 331.264 503.381 331.264C501.313 331.264 499.94 332.895 499.94 335.241C499.94 337.588 501.293 339.159 503.5 339.159ZM501.119 334.565C501.198 333.377 502.038 332.318 503.381 332.318C504.654 332.318 505.469 333.273 505.469 334.565H501.119ZM512.86 341.844C513.919 341.844 514.67 341.282 515.107 340.114L518.359 331.384L517.076 331.364L514.968 337.449H514.888L512.78 331.364H511.508L514.332 339.04L514.113 339.636C513.695 340.78 513.158 340.889 512.303 340.67L512.005 341.705C512.124 341.764 512.462 341.844 512.86 341.844ZM522.6 339.159C524.668 339.159 526.06 337.588 526.06 335.222C526.06 332.835 524.668 331.264 522.6 331.264C520.532 331.264 519.14 332.835 519.14 335.222C519.14 337.588 520.532 339.159 522.6 339.159ZM522.6 338.105C521.029 338.105 520.313 336.753 520.313 335.222C520.313 333.69 521.029 332.318 522.6 332.318C524.171 332.318 524.887 333.69 524.887 335.222C524.887 336.753 524.171 338.105 522.6 338.105ZM532.524 335.878C532.524 337.31 531.43 337.966 530.555 337.966C529.58 337.966 528.884 337.25 528.884 336.136V331.364H527.711V336.216C527.711 338.165 528.745 339.099 530.177 339.099C531.33 339.099 532.086 338.483 532.444 337.707H532.524V339H533.697V331.364H532.524V335.878ZM535.706 339H536.879V334.168C536.879 333.134 537.694 332.378 538.808 332.378C539.121 332.378 539.444 332.438 539.524 332.457V331.264C539.39 331.254 539.082 331.244 538.908 331.244C537.993 331.244 537.197 331.761 536.919 332.517H536.839V331.364H535.706V339ZM545.746 328.818H544.572V339H545.746V328.818ZM547.755 339H548.928V331.364H547.755V339ZM548.351 330.091C548.809 330.091 549.186 329.733 549.186 329.295C549.186 328.858 548.809 328.5 548.351 328.5C547.894 328.5 547.516 328.858 547.516 329.295C547.516 329.733 547.894 330.091 548.351 330.091ZM556.346 333.074C555.978 331.99 555.153 331.264 553.641 331.264C552.031 331.264 550.837 332.179 550.837 333.472C550.837 334.526 551.464 335.232 552.866 335.56L554.139 335.858C554.909 336.037 555.272 336.405 555.272 336.932C555.272 337.588 554.576 338.125 553.482 338.125C552.523 338.125 551.921 337.712 551.712 336.892L550.599 337.17C550.872 338.468 551.941 339.159 553.502 339.159C555.277 339.159 556.485 338.19 556.485 336.872C556.485 335.808 555.819 335.137 554.457 334.804L553.323 334.526C552.418 334.302 552.011 333.999 552.011 333.412C552.011 332.756 552.707 332.278 553.641 332.278C554.666 332.278 555.088 332.845 555.292 333.372L556.346 333.074ZM561.432 331.364H559.802V329.534H558.628V331.364H557.475V332.358H558.628V337.131C558.628 338.463 559.702 339.099 560.697 339.099C561.134 339.099 561.412 339.02 561.572 338.96L561.333 337.906C561.233 337.926 561.074 337.966 560.816 337.966C560.299 337.966 559.802 337.807 559.802 336.812V332.358H561.432V331.364ZM566.855 341.864H568.028V337.827H568.127C568.386 338.244 568.883 339.159 570.355 339.159C572.264 339.159 573.596 337.628 573.596 335.202C573.596 332.795 572.264 331.264 570.335 331.264C568.843 331.264 568.386 332.179 568.127 332.577H567.988V331.364H566.855V341.864ZM568.008 335.182C568.008 333.472 568.764 332.318 570.196 332.318C571.687 332.318 572.423 333.571 572.423 335.182C572.423 336.812 571.667 338.105 570.196 338.105C568.784 338.105 568.008 336.912 568.008 335.182ZM580.058 335.878C580.058 337.31 578.965 337.966 578.09 337.966C577.115 337.966 576.419 337.25 576.419 336.136V331.364H575.246V336.216C575.246 338.165 576.28 339.099 577.712 339.099C578.865 339.099 579.621 338.483 579.979 337.707H580.058V339H581.232V331.364H580.058V335.878ZM583.4 339H584.533V337.827H584.673C584.931 338.244 585.428 339.159 586.9 339.159C588.809 339.159 590.141 337.628 590.141 335.202C590.141 332.795 588.809 331.264 586.88 331.264C585.388 331.264 584.931 332.179 584.673 332.577H584.573V328.818H583.4V339ZM584.553 335.182C584.553 333.472 585.309 332.318 586.741 332.318C588.232 332.318 588.968 333.571 588.968 335.182C588.968 336.812 588.212 338.105 586.741 338.105C585.329 338.105 584.553 336.912 584.553 335.182ZM592.969 328.818H591.796V339H592.969V328.818ZM594.978 339H596.152V331.364H594.978V339ZM595.575 330.091C596.032 330.091 596.41 329.733 596.41 329.295C596.41 328.858 596.032 328.5 595.575 328.5C595.118 328.5 594.74 328.858 594.74 329.295C594.74 329.733 595.118 330.091 595.575 330.091ZM601.263 339.159C602.953 339.159 604.067 338.125 604.266 336.773H603.092C602.874 337.608 602.178 338.105 601.263 338.105C599.871 338.105 598.976 336.952 598.976 335.182C598.976 333.452 599.891 332.318 601.263 332.318C602.297 332.318 602.913 332.955 603.092 333.651H604.266C604.067 332.219 602.854 331.264 601.243 331.264C599.175 331.264 597.803 332.895 597.803 335.222C597.803 337.509 599.115 339.159 601.263 339.159ZM612.959 331.364H611.329V329.534H610.155V331.364H609.002V332.358H610.155V337.131C610.155 338.463 611.229 339.099 612.224 339.099C612.661 339.099 612.94 339.02 613.099 338.96L612.86 337.906C612.761 337.926 612.601 337.966 612.343 337.966C611.826 337.966 611.329 337.807 611.329 336.812V332.358H612.959V331.364ZM617.605 339.159C619.673 339.159 621.065 337.588 621.065 335.222C621.065 332.835 619.673 331.264 617.605 331.264C615.536 331.264 614.144 332.835 614.144 335.222C614.144 337.588 615.536 339.159 617.605 339.159ZM617.605 338.105C616.034 338.105 615.318 336.753 615.318 335.222C615.318 333.69 616.034 332.318 617.605 332.318C619.176 332.318 619.892 333.69 619.892 335.222C619.892 336.753 619.176 338.105 617.605 338.105ZM631.922 333.074C631.555 331.99 630.729 331.264 629.218 331.264C627.607 331.264 626.414 332.179 626.414 333.472C626.414 334.526 627.04 335.232 628.442 335.56L629.715 335.858C630.486 336.037 630.849 336.405 630.849 336.932C630.849 337.588 630.153 338.125 629.059 338.125C628.099 338.125 627.498 337.712 627.289 336.892L626.175 337.17C626.449 338.468 627.518 339.159 629.079 339.159C630.854 339.159 632.062 338.19 632.062 336.872C632.062 335.808 631.395 335.137 630.033 334.804L628.9 334.526C627.995 334.302 627.587 333.999 627.587 333.412C627.587 332.756 628.283 332.278 629.218 332.278C630.242 332.278 630.665 332.845 630.868 333.372L631.922 333.074ZM634.861 334.406C634.861 333.074 635.711 332.318 636.87 332.318C637.973 332.318 638.639 333.014 638.639 334.227V339H639.813V334.148C639.813 332.184 638.769 331.264 637.208 331.264C636.005 331.264 635.318 331.766 634.96 332.557H634.861V328.818H633.688V339H634.861V334.406ZM644.066 339.179C645.399 339.179 646.095 338.463 646.333 337.966H646.393V339H647.566V333.969C647.566 331.543 645.717 331.264 644.743 331.264C643.589 331.264 642.277 331.662 641.68 333.054L642.794 333.452C643.052 332.895 643.664 332.298 644.782 332.298C645.861 332.298 646.393 332.87 646.393 333.849V333.889C646.393 334.456 645.816 334.406 644.424 334.585C643.007 334.769 641.461 335.082 641.461 336.832C641.461 338.324 642.615 339.179 644.066 339.179ZM644.245 338.125C643.311 338.125 642.635 337.707 642.635 336.892C642.635 335.997 643.45 335.719 644.365 335.599C644.862 335.54 646.194 335.401 646.393 335.162V336.236C646.393 337.19 645.637 338.125 644.245 338.125ZM649.568 339H650.741V334.168C650.741 333.134 651.557 332.378 652.67 332.378C652.983 332.378 653.307 332.438 653.386 332.457V331.264C653.252 331.254 652.944 331.244 652.77 331.244C651.855 331.244 651.059 331.761 650.781 332.517H650.701V331.364H649.568V339ZM657.606 339.159C659.157 339.159 660.291 338.384 660.649 337.23L659.515 336.912C659.217 337.707 658.526 338.105 657.606 338.105C656.229 338.105 655.279 337.215 655.225 335.58H660.768V335.082C660.768 332.239 659.078 331.264 657.487 331.264C655.419 331.264 654.047 332.895 654.047 335.241C654.047 337.588 655.399 339.159 657.606 339.159ZM655.225 334.565C655.304 333.377 656.145 332.318 657.487 332.318C658.76 332.318 659.575 333.273 659.575 334.565H655.225ZM666.21 339H667.384V331.364H666.21V339ZM666.807 330.091C667.264 330.091 667.642 329.733 667.642 329.295C667.642 328.858 667.264 328.5 666.807 328.5C666.35 328.5 665.972 328.858 665.972 329.295C665.972 329.733 666.35 330.091 666.807 330.091ZM672.714 331.364H671.083V329.534H669.91V331.364H668.756V332.358H669.91V337.131C669.91 338.463 670.984 339.099 671.978 339.099C672.415 339.099 672.694 339.02 672.853 338.96L672.614 337.906C672.515 337.926 672.356 337.966 672.097 337.966C671.58 337.966 671.083 337.807 671.083 336.812V332.358H672.714V331.364ZM679.866 339H681.02L682.69 333.134H682.809L684.48 339H685.633L687.96 331.364H686.727L685.076 337.19H684.997L683.386 331.364H682.133L680.503 337.21H680.423L678.772 331.364H677.54L679.866 339ZM689.371 339H690.544V331.364H689.371V339ZM689.968 330.091C690.425 330.091 690.803 329.733 690.803 329.295C690.803 328.858 690.425 328.5 689.968 328.5C689.51 328.5 689.132 328.858 689.132 329.295C689.132 329.733 689.51 330.091 689.968 330.091ZM695.874 331.364H694.244V329.534H693.07V331.364H691.917V332.358H693.07V337.131C693.07 338.463 694.144 339.099 695.139 339.099C695.576 339.099 695.855 339.02 696.014 338.96L695.775 337.906C695.676 337.926 695.516 337.966 695.258 337.966C694.741 337.966 694.244 337.807 694.244 336.812V332.358H695.874V331.364ZM698.837 334.406C698.837 333.074 699.687 332.318 700.845 332.318C701.949 332.318 702.615 333.014 702.615 334.227V339H703.788V334.148C703.788 332.184 702.744 331.264 701.183 331.264C699.98 331.264 699.294 331.766 698.936 332.557H698.837V328.818H697.663V339H698.837V334.406ZM712.695 339.159C714.763 339.159 716.155 337.588 716.155 335.222C716.155 332.835 714.763 331.264 712.695 331.264C710.626 331.264 709.234 332.835 709.234 335.222C709.234 337.588 710.626 339.159 712.695 339.159ZM712.695 338.105C711.124 338.105 710.408 336.753 710.408 335.222C710.408 333.69 711.124 332.318 712.695 332.318C714.266 332.318 714.982 333.69 714.982 335.222C714.982 336.753 714.266 338.105 712.695 338.105ZM721.127 331.364H719.496V329.534H718.323V331.364H717.17V332.358H718.323V337.131C718.323 338.463 719.397 339.099 720.391 339.099C720.829 339.099 721.107 339.02 721.266 338.96L721.027 337.906C720.928 337.926 720.769 337.966 720.51 337.966C719.993 337.966 719.496 337.807 719.496 336.812V332.358H721.127V331.364ZM724.089 334.406C724.089 333.074 724.939 332.318 726.098 332.318C727.201 332.318 727.868 333.014 727.868 334.227V339H729.041V334.148C729.041 332.184 727.997 331.264 726.436 331.264C725.233 331.264 724.547 331.766 724.189 332.557H724.089V328.818H722.916V339H724.089V334.406ZM734.249 339.159C735.8 339.159 736.934 338.384 737.292 337.23L736.158 336.912C735.86 337.707 735.169 338.105 734.249 338.105C732.872 338.105 731.922 337.215 731.868 335.58H737.411V335.082C737.411 332.239 735.721 331.264 734.13 331.264C732.062 331.264 730.689 332.895 730.689 335.241C730.689 337.588 732.042 339.159 734.249 339.159ZM731.868 334.565C731.947 333.377 732.787 332.318 734.13 332.318C735.402 332.318 736.218 333.273 736.218 334.565H731.868ZM739.056 339H740.229V334.168C740.229 333.134 741.044 332.378 742.158 332.378C742.471 332.378 742.794 332.438 742.874 332.457V331.264C742.74 331.254 742.432 331.244 742.258 331.244C741.343 331.244 740.547 331.761 740.269 332.517H740.189V331.364H739.056V339ZM749.534 333.074C749.166 331.99 748.341 331.264 746.829 331.264C745.219 331.264 744.025 332.179 744.025 333.472C744.025 334.526 744.652 335.232 746.054 335.56L747.327 335.858C748.097 336.037 748.46 336.405 748.46 336.932C748.46 337.588 747.764 338.125 746.67 338.125C745.711 338.125 745.109 337.712 744.9 336.892L743.787 337.17C744.06 338.468 745.129 339.159 746.69 339.159C748.465 339.159 749.673 338.19 749.673 336.872C749.673 335.808 749.007 335.137 747.645 334.804L746.511 334.526C745.606 334.302 745.199 333.999 745.199 333.412C745.199 332.756 745.895 332.278 746.829 332.278C747.853 332.278 748.276 332.845 748.48 333.372L749.534 333.074Z" fill="#767A85"/>
<circle cx="436" cy="322" r="20" fill="#F2F2FF"/>
<path d="M435.262 325.031L436.561 323.739C435.911 323.664 435.337 323.411 434.975 323.049C433.888 321.955 433.881 320.438 434.968 319.351L437.312 317.013C438.399 315.926 439.917 315.926 441.004 317.013C442.098 318.106 442.098 319.624 441.018 320.704L440.177 321.538C440.45 322.16 440.573 322.974 440.361 323.671L442.234 321.812C443.998 320.068 443.991 317.56 442.221 315.796C440.45 314.025 437.962 314.032 436.205 315.789L433.751 318.243C431.994 320 431.994 322.495 433.758 324.259C434.1 324.601 434.633 324.901 435.262 325.031ZM436.731 319.009L435.433 320.308C436.082 320.383 436.649 320.636 437.012 320.998C438.105 322.092 438.105 323.609 437.025 324.689L434.674 327.034C433.587 328.121 432.069 328.121 430.989 327.034C429.889 325.94 429.889 324.423 430.976 323.336L431.81 322.502C431.543 321.88 431.42 321.073 431.632 320.369L429.759 322.229C427.995 323.979 428.002 326.48 429.766 328.244C431.536 330.015 434.031 330.008 435.781 328.258L438.242 325.797C439.992 324.04 439.999 321.545 438.229 319.781C437.894 319.439 437.36 319.146 436.731 319.009Z" fill="#3700FF"/>
<rect x="392" y="392" width="656" height="48" rx="8" fill="#FAFAFC"/>
<line x1="440.5" y1="406" x2="440.5" y2="426" stroke="#C1C3CC"/>
<path d="M444.523 422H445.977L448.545 412.727H448.636L451.205 422H452.659L455.841 410.364H454.409L451.977 419.841H451.864L449.386 410.364H447.795L445.318 419.841H445.205L442.773 410.364H441.341L444.523 422ZM456.708 422H458.049V416.477C458.049 415.295 458.981 414.432 460.253 414.432C460.611 414.432 460.981 414.5 461.072 414.523V413.159C460.918 413.148 460.566 413.136 460.367 413.136C459.322 413.136 458.412 413.727 458.094 414.591H458.003V413.273H456.708V422ZM462.501 422H463.842V413.273H462.501V422ZM463.183 411.818C463.706 411.818 464.137 411.409 464.137 410.909C464.137 410.409 463.706 410 463.183 410C462.66 410 462.228 410.409 462.228 410.909C462.228 411.409 462.66 411.818 463.183 411.818ZM469.933 413.273H468.07V411.182H466.729V413.273H465.411V414.409H466.729V419.864C466.729 421.386 467.956 422.114 469.092 422.114C469.592 422.114 469.911 422.023 470.092 421.955L469.82 420.75C469.706 420.773 469.524 420.818 469.229 420.818C468.638 420.818 468.07 420.636 468.07 419.5V414.409H469.933V413.273ZM475.356 422.182C477.128 422.182 478.424 421.295 478.833 419.977L477.538 419.614C477.197 420.523 476.407 420.977 475.356 420.977C473.782 420.977 472.697 419.96 472.634 418.091H478.969V417.523C478.969 414.273 477.038 413.159 475.219 413.159C472.856 413.159 471.288 415.023 471.288 417.705C471.288 420.386 472.833 422.182 475.356 422.182ZM472.634 416.932C472.725 415.574 473.685 414.364 475.219 414.364C476.674 414.364 477.606 415.455 477.606 416.932H472.634ZM486.007 425.386C487.235 425.386 488.076 424.75 488.576 423.409L492.326 413.273H490.871L488.462 420.227H488.371L485.962 413.273H484.507L487.735 422.045L487.439 422.864C486.968 424.17 486.348 424.295 485.371 424.045L485.03 425.227C485.166 425.295 485.553 425.386 486.007 425.386ZM497.168 422.182C499.532 422.182 501.123 420.386 501.123 417.682C501.123 414.955 499.532 413.159 497.168 413.159C494.805 413.159 493.214 414.955 493.214 417.682C493.214 420.386 494.805 422.182 497.168 422.182ZM497.168 420.977C495.373 420.977 494.555 419.432 494.555 417.682C494.555 415.932 495.373 414.364 497.168 414.364C498.964 414.364 499.782 415.932 499.782 417.682C499.782 419.432 498.964 420.977 497.168 420.977ZM508.51 418.432C508.51 420.068 507.26 420.818 506.26 420.818C505.146 420.818 504.351 420 504.351 418.727V413.273H503.01V418.818C503.01 421.045 504.192 422.114 505.828 422.114C507.146 422.114 508.01 421.409 508.419 420.523H508.51V422H509.851V413.273H508.51V418.432ZM512.147 422H513.488V416.477C513.488 415.301 514.419 414.432 515.692 414.432C516.027 414.432 516.277 414.494 516.465 414.591L516.919 413.455C516.647 413.261 516.289 413.136 515.806 413.136C514.749 413.136 513.846 413.727 513.533 414.591H513.442V413.273H512.147V422ZM526.354 413.273H524.399V412.386C524.399 411.523 524.763 411.068 525.649 411.068C526.035 411.068 526.263 411.159 526.399 411.205L526.785 410.045C526.581 409.955 526.172 409.818 525.513 409.818C524.263 409.818 523.058 410.568 523.058 412.068V413.273H521.649V414.409H523.058V422H524.399V414.409H526.354V413.273ZM528.073 422H529.414V413.273H528.073V422ZM528.755 411.818C529.277 411.818 529.709 411.409 529.709 410.909C529.709 410.409 529.277 410 528.755 410C528.232 410 527.8 410.409 527.8 410.909C527.8 411.409 528.232 411.818 528.755 411.818ZM531.71 422H533.051V416.477C533.051 415.301 533.982 414.432 535.255 414.432C535.59 414.432 535.84 414.494 536.028 414.591L536.482 413.455C536.21 413.261 535.852 413.136 535.369 413.136C534.312 413.136 533.409 413.727 533.096 414.591H533.005V413.273H531.71V422ZM543.872 415.227C543.452 413.989 542.509 413.159 540.781 413.159C538.94 413.159 537.577 414.205 537.577 415.682C537.577 416.886 538.293 417.693 539.895 418.068L541.349 418.409C542.23 418.614 542.645 419.034 542.645 419.636C542.645 420.386 541.849 421 540.599 421C539.503 421 538.815 420.528 538.577 419.591L537.304 419.909C537.617 421.392 538.838 422.182 540.622 422.182C542.651 422.182 544.031 421.074 544.031 419.568C544.031 418.352 543.27 417.585 541.713 417.205L540.418 416.886C539.384 416.631 538.918 416.284 538.918 415.614C538.918 414.864 539.713 414.318 540.781 414.318C541.952 414.318 542.435 414.966 542.668 415.568L543.872 415.227ZM549.685 413.273H547.822V411.182H546.481V413.273H545.162V414.409H546.481V419.864C546.481 421.386 547.708 422.114 548.844 422.114C549.344 422.114 549.662 422.023 549.844 421.955L549.572 420.75C549.458 420.773 549.276 420.818 548.981 420.818C548.39 420.818 547.822 420.636 547.822 419.5V414.409H549.685V413.273ZM559.678 413.273H557.814V411.182H556.473V413.273H555.155V414.409H556.473V419.864C556.473 421.386 557.7 422.114 558.837 422.114C559.337 422.114 559.655 422.023 559.837 421.955L559.564 420.75C559.45 420.773 559.269 420.818 558.973 420.818C558.382 420.818 557.814 420.636 557.814 419.5V414.409H559.678V413.273ZM564.986 422.182C567.35 422.182 568.941 420.386 568.941 417.682C568.941 414.955 567.35 413.159 564.986 413.159C562.623 413.159 561.032 414.955 561.032 417.682C561.032 420.386 562.623 422.182 564.986 422.182ZM564.986 420.977C563.191 420.977 562.373 419.432 562.373 417.682C562.373 415.932 563.191 414.364 564.986 414.364C566.782 414.364 567.6 415.932 567.6 417.682C567.6 419.432 566.782 420.977 564.986 420.977ZM578.463 422.182C580.145 422.182 580.713 421.136 581.009 420.659H581.168V422H582.463V410.364H581.122V414.659H581.009C580.713 414.205 580.191 413.159 578.486 413.159C576.282 413.159 574.759 414.909 574.759 417.659C574.759 420.432 576.282 422.182 578.463 422.182ZM578.645 420.977C576.963 420.977 576.1 419.5 576.1 417.636C576.1 415.795 576.941 414.364 578.645 414.364C580.282 414.364 581.145 415.682 581.145 417.636C581.145 419.614 580.259 420.977 578.645 420.977ZM588.491 422.182C590.854 422.182 592.445 420.386 592.445 417.682C592.445 414.955 590.854 413.159 588.491 413.159C586.127 413.159 584.536 414.955 584.536 417.682C584.536 420.386 586.127 422.182 588.491 422.182ZM588.491 420.977C586.695 420.977 585.877 419.432 585.877 417.682C585.877 415.932 586.695 414.364 588.491 414.364C590.286 414.364 591.104 415.932 591.104 417.682C591.104 419.432 590.286 420.977 588.491 420.977Z" fill="#C1C3CC"/>
<g filter="url(#filter1_d)">
<rect x="416" y="408" width="16" height="16" rx="4" fill="white"/>
<rect x="416.5" y="408.5" width="15" height="15" rx="3.5" stroke="#C1C3CC"/>
</g>
<path d="M415.724 222.064V241H420.764V215.152H413.528L407.588 233.548L401.612 215.152H394.268V241H399.236V222.064L405.464 241H409.496L415.724 222.064ZM441.44 222.064H436.364L432.188 234.52L427.904 222.064H422.684L429.488 240.244L428.876 241.756C428.624 242.404 428.3 242.836 427.94 243.088C427.544 243.376 427.004 243.484 426.284 243.484C426.14 243.484 425.96 243.484 425.744 243.484C425.492 243.484 425.204 243.448 424.844 243.412V247.48C425.276 247.552 425.6 247.588 425.852 247.588C426.104 247.588 426.428 247.588 426.824 247.588C428.624 247.588 430.064 247.192 431.18 246.364C432.26 245.536 433.196 244.096 433.952 242.08L441.44 222.064ZM456.473 241.216C457.049 241.216 457.625 241.216 458.165 241.144C458.705 241.108 459.209 241.036 459.713 240.928V236.752C459.281 236.824 458.957 236.86 458.741 236.86C458.525 236.86 458.273 236.86 457.985 236.86C457.049 236.86 456.401 236.752 456.077 236.464C455.753 236.176 455.609 235.708 455.609 235.024V226.276H459.461V222.064H455.609V216.664H450.641V222.064H448.121V226.276H450.641V236.068C450.641 237.868 451.073 239.2 452.009 239.992C452.909 240.82 454.385 241.216 456.473 241.216ZM477.198 224.512C476.334 223.612 475.326 222.928 474.174 222.424C473.022 221.956 471.762 221.704 470.394 221.704C469.026 221.704 467.73 221.956 466.578 222.424C465.426 222.928 464.418 223.612 463.59 224.512C462.762 225.412 462.15 226.456 461.718 227.644C461.286 228.868 461.106 230.164 461.106 231.532C461.106 232.936 461.286 234.232 461.718 235.42C462.15 236.644 462.762 237.688 463.59 238.552C464.418 239.488 465.426 240.208 466.578 240.676C467.73 241.18 469.026 241.396 470.394 241.396C471.762 241.396 473.022 241.18 474.174 240.676C475.326 240.208 476.334 239.488 477.198 238.552C477.99 237.688 478.602 236.644 479.034 235.42C479.466 234.232 479.682 232.936 479.682 231.532C479.682 230.164 479.466 228.868 479.034 227.644C478.602 226.456 477.99 225.412 477.198 224.512ZM470.394 225.88C471.69 225.88 472.734 226.384 473.49 227.392C474.246 228.4 474.642 229.768 474.642 231.532C474.642 233.332 474.246 234.7 473.49 235.708C472.734 236.716 471.69 237.22 470.394 237.22C469.026 237.22 467.982 236.716 467.226 235.708C466.47 234.7 466.11 233.332 466.11 231.532C466.11 229.804 466.47 228.4 467.262 227.392C468.018 226.384 469.062 225.88 470.394 225.88ZM492.746 232.72V228.22H482.378V232.72H492.746ZM503.645 241.396C504.725 241.396 505.733 241.216 506.669 240.784C507.569 240.388 508.325 239.812 508.937 239.056V241H513.977V215.152H508.937V224.008C508.325 223.288 507.569 222.712 506.669 222.316C505.733 221.92 504.725 221.704 503.645 221.704C502.349 221.704 501.197 221.992 500.153 222.496C499.073 223 498.173 223.756 497.453 224.764C496.769 225.628 496.265 226.672 495.905 227.824C495.545 228.976 495.401 230.236 495.401 231.532C495.401 232.864 495.545 234.124 495.905 235.276C496.265 236.428 496.769 237.472 497.453 238.336C498.173 239.344 499.073 240.1 500.153 240.604C501.197 241.144 502.349 241.396 503.645 241.396ZM509.045 232.072C509.045 233.62 508.649 234.844 507.893 235.744C507.101 236.644 506.093 237.076 504.833 237.076C503.465 237.076 502.385 236.608 501.629 235.6C500.837 234.628 500.477 233.26 500.477 231.532C500.477 229.84 500.837 228.508 501.629 227.5C502.385 226.528 503.465 226.024 504.833 226.024C506.093 226.024 507.101 226.492 507.893 227.392C508.649 228.292 509.045 229.516 509.045 231.028V232.072ZM532.755 224.512C531.891 223.612 530.883 222.928 529.731 222.424C528.579 221.956 527.319 221.704 525.951 221.704C524.583 221.704 523.287 221.956 522.135 222.424C520.983 222.928 519.975 223.612 519.147 224.512C518.319 225.412 517.707 226.456 517.275 227.644C516.843 228.868 516.663 230.164 516.663 231.532C516.663 232.936 516.843 234.232 517.275 235.42C517.707 236.644 518.319 237.688 519.147 238.552C519.975 239.488 520.983 240.208 522.135 240.676C523.287 241.18 524.583 241.396 525.951 241.396C527.319 241.396 528.579 241.18 529.731 240.676C530.883 240.208 531.891 239.488 532.755 238.552C533.547 237.688 534.159 236.644 534.591 235.42C535.023 234.232 535.239 232.936 535.239 231.532C535.239 230.164 535.023 228.868 534.591 227.644C534.159 226.456 533.547 225.412 532.755 224.512ZM525.951 225.88C527.247 225.88 528.291 226.384 529.047 227.392C529.803 228.4 530.199 229.768 530.199 231.532C530.199 233.332 529.803 234.7 529.047 235.708C528.291 236.716 527.247 237.22 525.951 237.22C524.583 237.22 523.539 236.716 522.783 235.708C522.027 234.7 521.667 233.332 521.667 231.532C521.667 229.804 522.027 228.4 522.819 227.392C523.575 226.384 524.619 225.88 525.951 225.88ZM544.868 215.152V241H549.908V215.152H544.868ZM558.759 219.832V215.152H553.611V219.832H558.759ZM553.683 222.064V241H558.723V222.064H553.683ZM569.375 241.396C571.751 241.396 573.695 240.82 575.243 239.632C576.791 238.444 577.583 236.896 577.583 234.988C577.583 234.052 577.367 233.224 576.971 232.504C576.575 231.82 575.999 231.244 575.207 230.776C574.703 230.524 574.163 230.272 573.515 230.056C572.867 229.84 571.787 229.588 570.347 229.264C569.555 229.12 569.051 229.048 568.799 228.976C568.547 228.904 568.331 228.832 568.151 228.76C567.647 228.616 567.287 228.436 567.071 228.22C566.855 228.004 566.747 227.716 566.747 227.356C566.747 226.852 566.963 226.42 567.467 226.096C567.935 225.808 568.583 225.628 569.375 225.628C570.347 225.628 571.283 225.844 572.183 226.276C573.047 226.708 573.803 227.356 574.451 228.148L577.331 224.98C576.539 224.008 575.459 223.216 574.055 222.604C572.615 222.028 571.103 221.704 569.519 221.704C567.215 221.704 565.379 222.28 563.939 223.432C562.499 224.584 561.779 226.06 561.779 227.86C561.779 228.796 561.923 229.588 562.283 230.236C562.607 230.884 563.111 231.424 563.795 231.856C564.227 232.144 564.767 232.432 565.415 232.648C566.063 232.864 566.999 233.116 568.223 233.332C569.303 233.548 569.987 233.692 570.239 233.728C570.455 233.8 570.671 233.836 570.851 233.872C571.499 234.052 571.967 234.268 572.255 234.52C572.507 234.772 572.651 235.096 572.651 235.528C572.651 236.14 572.363 236.608 571.787 236.968C571.211 237.328 570.455 237.472 569.483 237.472C568.403 237.472 567.323 237.22 566.279 236.68C565.235 236.176 564.407 235.456 563.759 234.592L560.627 237.796C561.419 238.912 562.643 239.776 564.227 240.424C565.811 241.072 567.539 241.396 569.375 241.396ZM586.475 241.216C587.051 241.216 587.627 241.216 588.167 241.144C588.707 241.108 589.211 241.036 589.715 240.928V236.752C589.283 236.824 588.959 236.86 588.743 236.86C588.527 236.86 588.275 236.86 587.987 236.86C587.051 236.86 586.403 236.752 586.079 236.464C585.755 236.176 585.611 235.708 585.611 235.024V226.276H589.463V222.064H585.611V216.664H580.643V222.064H578.123V226.276H580.643V236.068C580.643 237.868 581.075 239.2 582.011 239.992C582.911 240.82 584.387 241.216 586.475 241.216Z" fill="#111215"/>
<circle cx="1230" cy="36" r="12" fill="#48A7FF"/>
<path d="M1230.86 32V37.625C1230.86 38.4687 1230.47 38.918 1229.77 38.918C1229.12 38.918 1228.69 38.5234 1228.68 37.875H1227.24C1227.24 39.3516 1228.32 40.1094 1229.72 40.1094C1231.26 40.1094 1232.3 39.1719 1232.3 37.625V32H1230.86Z" fill="white"/>
<path d="M1250 33.3636V41.4773C1250 42.1882 1249.71 42.576 1249 42.576C1248.92 42.576 1248.85 42.576 1248.76 42.571V43.8537H1249.05C1250.65 43.8736 1251.49 43.0185 1251.49 41.4872V33.3636H1250ZM1250.74 32.1854C1251.25 32.1854 1251.67 31.7876 1251.67 31.3004C1251.67 30.8132 1251.25 30.4105 1250.74 30.4105C1250.22 30.4105 1249.8 30.8132 1249.8 31.3004C1249.8 31.7876 1250.22 32.1854 1250.74 32.1854ZM1256.56 41.1541C1258.71 41.1541 1260.12 39.5781 1260.12 37.2166C1260.12 34.8402 1258.71 33.2642 1256.56 33.2642C1254.41 33.2642 1253 34.8402 1253 37.2166C1253 39.5781 1254.41 41.1541 1256.56 41.1541ZM1256.57 39.9062C1255.16 39.9062 1254.5 38.6783 1254.5 37.2116C1254.5 35.75 1255.16 34.5071 1256.57 34.5071C1257.96 34.5071 1258.62 35.75 1258.62 37.2116C1258.62 38.6783 1257.96 39.9062 1256.57 39.9062ZM1263.13 36.4659C1263.13 35.2479 1263.9 34.5518 1264.96 34.5518C1265.98 34.5518 1266.59 35.2031 1266.59 36.3217V41H1268.08V36.1428C1268.08 34.2386 1267.04 33.2642 1265.46 33.2642C1264.28 33.2642 1263.56 33.7812 1263.2 34.6065H1263.11V30.8182H1261.64V41H1263.13V36.4659ZM1271.41 36.4659C1271.41 35.2479 1272.16 34.5518 1273.19 34.5518C1274.2 34.5518 1274.81 35.2131 1274.81 36.3217V41H1276.3V36.1428C1276.3 34.2536 1275.26 33.2642 1273.7 33.2642C1272.55 33.2642 1271.8 33.7962 1271.44 34.6065H1271.35V33.3636H1269.92V41H1271.41V36.4659ZM1280.37 41.169C1281.64 41.169 1282.35 40.5277 1282.63 39.956H1282.69V41H1284.14V35.929C1284.14 33.7067 1282.39 33.2642 1281.18 33.2642C1279.8 33.2642 1278.52 33.821 1278.03 35.2131L1279.42 35.5312C1279.64 34.9893 1280.2 34.4673 1281.2 34.4673C1282.16 34.4673 1282.65 34.9695 1282.65 35.8345V35.8693C1282.65 36.4112 1282.09 36.4013 1280.72 36.5604C1279.27 36.7294 1277.79 37.1072 1277.79 38.8423C1277.79 40.3438 1278.92 41.169 1280.37 41.169ZM1280.7 39.9759C1279.86 39.9759 1279.25 39.598 1279.25 38.8622C1279.25 38.0668 1279.95 37.7834 1280.82 37.669C1281.3 37.6044 1282.44 37.4751 1282.65 37.2614V38.2457C1282.65 39.1506 1281.93 39.9759 1280.7 39.9759ZM1285.98 43.8636H1287.47V39.8118H1287.56C1287.83 40.299 1288.37 41.1491 1289.76 41.1491C1291.61 41.1491 1292.96 39.6676 1292.96 37.1967C1292.96 34.7209 1291.59 33.2642 1289.75 33.2642C1288.33 33.2642 1287.82 34.1293 1287.56 34.6016H1287.43V33.3636H1285.98V43.8636ZM1287.44 37.1818C1287.44 35.5859 1288.13 34.527 1289.43 34.527C1290.78 34.527 1291.45 35.6655 1291.45 37.1818C1291.45 38.7131 1290.76 39.8814 1289.43 39.8814C1288.15 39.8814 1287.44 38.7876 1287.44 37.1818ZM1294.48 43.8636H1295.97V39.8118H1296.06C1296.33 40.299 1296.87 41.1491 1298.26 41.1491C1300.11 41.1491 1301.46 39.6676 1301.46 37.1967C1301.46 34.7209 1300.09 33.2642 1298.25 33.2642C1296.83 33.2642 1296.32 34.1293 1296.06 34.6016H1295.93V33.3636H1294.48V43.8636ZM1295.94 37.1818C1295.94 35.5859 1296.63 34.527 1297.93 34.527C1299.28 34.527 1299.96 35.6655 1299.96 37.1818C1299.96 38.7131 1299.26 39.8814 1297.93 39.8814C1296.65 39.8814 1295.94 38.7876 1295.94 37.1818ZM1304.47 30.8182H1302.98V41H1304.47V30.8182ZM1309.62 41.1541C1311.29 41.1541 1312.46 40.3338 1312.8 39.0909L1311.39 38.8374C1311.13 39.5582 1310.48 39.9261 1309.63 39.9261C1308.36 39.9261 1307.51 39.1009 1307.47 37.6293H1312.9V37.1023C1312.9 34.343 1311.25 33.2642 1309.52 33.2642C1307.39 33.2642 1305.99 34.8849 1305.99 37.2315C1305.99 39.603 1307.37 41.1541 1309.62 41.1541ZM1307.47 36.5156C1307.53 35.4318 1308.32 34.4922 1309.53 34.4922C1310.68 34.4922 1311.43 35.3473 1311.44 36.5156H1307.47ZM1320.13 35.228C1319.82 34.0398 1318.89 33.2642 1317.24 33.2642C1315.51 33.2642 1314.29 34.174 1314.29 35.5263C1314.29 36.6101 1314.95 37.331 1316.38 37.6491L1317.67 37.9325C1318.41 38.0966 1318.75 38.4247 1318.75 38.902C1318.75 39.4936 1318.12 39.956 1317.14 39.956C1316.25 39.956 1315.68 39.5732 1315.5 38.8224L1314.07 39.0412C1314.32 40.3935 1315.44 41.1541 1317.15 41.1541C1319 41.1541 1320.28 40.1747 1320.28 38.7926C1320.28 37.7138 1319.59 37.0476 1318.19 36.7244L1316.98 36.446C1316.14 36.2472 1315.77 35.9638 1315.78 35.4467C1315.77 34.8601 1316.41 34.4425 1317.25 34.4425C1318.18 34.4425 1318.61 34.9545 1318.78 35.4666L1320.13 35.228ZM1325.06 41.1541C1326.73 41.1541 1327.91 40.3338 1328.24 39.0909L1326.84 38.8374C1326.57 39.5582 1325.92 39.9261 1325.08 39.9261C1323.8 39.9261 1322.95 39.1009 1322.91 37.6293H1328.34V37.1023C1328.34 34.343 1326.69 33.2642 1324.96 33.2642C1322.83 33.2642 1321.43 34.8849 1321.43 37.2315C1321.43 39.603 1322.81 41.1541 1325.06 41.1541ZM1322.91 36.5156C1322.97 35.4318 1323.76 34.4922 1324.97 34.4922C1326.12 34.4922 1326.88 35.3473 1326.88 36.5156H1322.91ZM1333.14 41.1541C1334.8 41.1541 1335.98 40.3338 1336.32 39.0909L1334.91 38.8374C1334.65 39.5582 1334 39.9261 1333.15 39.9261C1331.88 39.9261 1331.03 39.1009 1330.99 37.6293H1336.42V37.1023C1336.42 34.343 1334.76 33.2642 1333.03 33.2642C1330.91 33.2642 1329.5 34.8849 1329.5 37.2315C1329.5 39.603 1330.89 41.1541 1333.14 41.1541ZM1330.99 36.5156C1331.05 35.4318 1331.84 34.4922 1333.04 34.4922C1334.2 34.4922 1334.95 35.3473 1334.96 36.5156H1330.99ZM1340.78 41.1491C1342.18 41.1491 1342.72 40.299 1342.99 39.8118H1343.12V41H1344.57V30.8182H1343.08V34.6016H1342.99C1342.72 34.1293 1342.22 33.2642 1340.79 33.2642C1338.95 33.2642 1337.59 34.7209 1337.59 37.1967C1337.59 39.6676 1338.93 41.1491 1340.78 41.1491ZM1341.11 39.8814C1339.78 39.8814 1339.09 38.7131 1339.09 37.1818C1339.09 35.6655 1339.77 34.527 1341.11 34.527C1342.41 34.527 1343.11 35.5859 1343.11 37.1818C1343.11 38.7876 1342.39 39.8814 1341.11 39.8814Z" fill="#111215"/>
<path d="M1369.3 33.3636H1370.49C1370.44 31.8274 1369.02 30.679 1367.05 30.679C1365.1 30.679 1363.57 31.8125 1363.57 33.5227C1363.57 34.8949 1364.57 35.7102 1366.16 36.1676L1367.41 36.5256C1368.48 36.8239 1369.44 37.2017 1369.44 38.2159C1369.44 39.3295 1368.36 40.0653 1366.95 40.0653C1365.74 40.0653 1364.67 39.5284 1364.57 38.375H1363.29C1363.41 40.0455 1364.76 41.179 1366.95 41.179C1369.3 41.179 1370.63 39.8864 1370.63 38.2358C1370.63 36.3267 1368.82 35.7102 1367.77 35.4318L1366.73 35.1534C1365.98 34.9545 1364.76 34.5568 1364.76 33.4631C1364.76 32.4886 1365.66 31.7727 1367.01 31.7727C1368.24 31.7727 1369.18 32.3594 1369.3 33.3636ZM1372.36 41H1373.53V33.3636H1372.36V41ZM1372.96 32.0909C1373.41 32.0909 1373.79 31.733 1373.79 31.2955C1373.79 30.858 1373.41 30.5 1372.96 30.5C1372.5 30.5 1372.12 30.858 1372.12 31.2955C1372.12 31.733 1372.5 32.0909 1372.96 32.0909ZM1378.62 44.0227C1380.45 44.0227 1381.92 43.1875 1381.92 41.2188V33.3636H1380.79V34.5767H1380.67C1380.41 34.179 1379.94 33.2642 1378.44 33.2642C1376.52 33.2642 1375.18 34.7955 1375.18 37.142C1375.18 39.5284 1376.58 40.8807 1378.42 40.8807C1379.92 40.8807 1380.39 40.0057 1380.65 39.5881H1380.75V41.1392C1380.75 42.4119 1379.86 42.9886 1378.62 42.9886C1377.24 42.9886 1376.75 42.2578 1376.44 41.8352L1375.5 42.4915C1375.98 43.2919 1376.92 44.0227 1378.62 44.0227ZM1378.58 39.8267C1377.11 39.8267 1376.36 38.7131 1376.36 37.1222C1376.36 35.571 1377.09 34.3182 1378.58 34.3182C1380.02 34.3182 1380.77 35.4716 1380.77 37.1222C1380.77 38.8125 1380 39.8267 1378.58 39.8267ZM1385.11 36.4062C1385.11 35.0739 1385.93 34.3182 1387.05 34.3182C1388.14 34.3182 1388.8 35.0291 1388.8 36.2273V41H1389.98V36.1477C1389.98 34.1989 1388.94 33.2642 1387.39 33.2642C1386.24 33.2642 1385.52 33.7812 1385.17 34.5568H1385.07V33.3636H1383.93V41H1385.11V36.4062ZM1398.88 41.1591C1400.95 41.1591 1402.34 39.5881 1402.34 37.2216C1402.34 34.8352 1400.95 33.2642 1398.88 33.2642C1396.81 33.2642 1395.42 34.8352 1395.42 37.2216C1395.42 39.5881 1396.81 41.1591 1398.88 41.1591ZM1398.88 40.1051C1397.31 40.1051 1396.59 38.7528 1396.59 37.2216C1396.59 35.6903 1397.31 34.3182 1398.88 34.3182C1400.45 34.3182 1401.17 35.6903 1401.17 37.2216C1401.17 38.7528 1400.45 40.1051 1398.88 40.1051ZM1408.81 37.8778C1408.81 39.3097 1407.71 39.9659 1406.84 39.9659C1405.86 39.9659 1405.17 39.25 1405.17 38.1364V33.3636H1403.99V38.2159C1403.99 40.1648 1405.03 41.0994 1406.46 41.0994C1407.61 41.0994 1408.37 40.483 1408.73 39.7074H1408.81V41H1409.98V33.3636H1408.81V37.8778ZM1415.31 33.3636H1413.68V31.5341H1412.5V33.3636H1411.35V34.358H1412.5V39.1307C1412.5 40.4631 1413.58 41.0994 1414.57 41.0994C1415.01 41.0994 1415.29 41.0199 1415.45 40.9602L1415.21 39.9062C1415.11 39.9261 1414.95 39.9659 1414.69 39.9659C1414.18 39.9659 1413.68 39.8068 1413.68 38.8125V34.358H1415.31V33.3636Z" fill="#767A85"/>
<path d="M64.47 30.948H56.21V32.516H59.444V41H61.236V32.516H64.47V30.948ZM69.566 34.63C69.23 34.266 68.852 34 68.404 33.804C67.956 33.608 67.48 33.51 66.962 33.51C66.43 33.51 65.954 33.608 65.506 33.804C65.058 34 64.68 34.266 64.358 34.63C64.05 34.966 63.812 35.372 63.658 35.834C63.49 36.296 63.42 36.8 63.42 37.332C63.42 37.878 63.49 38.382 63.658 38.844C63.812 39.306 64.05 39.698 64.358 40.034C64.68 40.398 65.058 40.678 65.506 40.874C65.954 41.07 66.43 41.154 66.962 41.154C67.48 41.154 67.956 41.07 68.404 40.874C68.852 40.678 69.23 40.398 69.566 40.034C69.874 39.698 70.098 39.306 70.266 38.844C70.42 38.382 70.504 37.878 70.504 37.332C70.504 36.8 70.42 36.296 70.266 35.834C70.098 35.372 69.874 34.966 69.566 34.63ZM66.962 34.924C67.522 34.924 67.97 35.148 68.306 35.568C68.642 36.002 68.81 36.59 68.81 37.332C68.81 38.088 68.642 38.676 68.306 39.096C67.97 39.53 67.522 39.74 66.962 39.74C66.388 39.74 65.94 39.53 65.604 39.096C65.268 38.676 65.114 38.088 65.114 37.332C65.114 36.59 65.268 36.002 65.604 35.568C65.94 35.148 66.388 34.924 66.962 34.924ZM75.6831 37.668V36.17H71.7631V37.668H75.6831ZM80.1755 41.154C80.6095 41.154 81.0015 41.084 81.3655 40.916C81.7295 40.762 82.0375 40.538 82.2895 40.23V41H83.9695V30.948H82.2895V34.434C82.0375 34.14 81.7295 33.916 81.3655 33.748C81.0015 33.594 80.6095 33.51 80.1755 33.51C79.6715 33.51 79.2235 33.622 78.8035 33.818C78.3835 34.014 78.0335 34.308 77.7535 34.686C77.4875 35.036 77.2915 35.442 77.1515 35.89C77.0115 36.338 76.9415 36.828 76.9415 37.332C76.9415 37.85 77.0115 38.34 77.1515 38.788C77.2915 39.236 77.4875 39.642 77.7535 39.978C78.0335 40.37 78.3835 40.664 78.8035 40.86C79.2235 41.056 79.6715 41.154 80.1755 41.154ZM82.3315 37.556C82.3315 38.2 82.1635 38.718 81.8275 39.11C81.4915 39.502 81.0435 39.684 80.5115 39.684C79.9235 39.684 79.4615 39.474 79.1255 39.054C78.7895 38.634 78.6355 38.06 78.6355 37.332C78.6355 36.604 78.7895 36.03 79.1255 35.61C79.4615 35.19 79.9235 34.98 80.5115 34.98C81.0575 34.98 81.4915 35.176 81.8275 35.568C82.1635 35.96 82.3315 36.478 82.3315 37.122V37.556ZM91.4137 34.63C91.0777 34.266 90.6997 34 90.2517 33.804C89.8037 33.608 89.3277 33.51 88.8097 33.51C88.2777 33.51 87.8017 33.608 87.3537 33.804C86.9057 34 86.5277 34.266 86.2057 34.63C85.8977 34.966 85.6597 35.372 85.5057 35.834C85.3377 36.296 85.2677 36.8 85.2677 37.332C85.2677 37.878 85.3377 38.382 85.5057 38.844C85.6597 39.306 85.8977 39.698 86.2057 40.034C86.5277 40.398 86.9057 40.678 87.3537 40.874C87.8017 41.07 88.2777 41.154 88.8097 41.154C89.3277 41.154 89.8037 41.07 90.2517 40.874C90.6997 40.678 91.0777 40.398 91.4137 40.034C91.7217 39.698 91.9457 39.306 92.1137 38.844C92.2677 38.382 92.3517 37.878 92.3517 37.332C92.3517 36.8 92.2677 36.296 92.1137 35.834C91.9457 35.372 91.7217 34.966 91.4137 34.63ZM88.8097 34.924C89.3697 34.924 89.8177 35.148 90.1537 35.568C90.4897 36.002 90.6577 36.59 90.6577 37.332C90.6577 38.088 90.4897 38.676 90.1537 39.096C89.8177 39.53 89.3697 39.74 88.8097 39.74C88.2357 39.74 87.7877 39.53 87.4517 39.096C87.1157 38.676 86.9617 38.088 86.9617 37.332C86.9617 36.59 87.1157 36.002 87.4517 35.568C87.7877 35.148 88.2357 34.924 88.8097 34.924Z" fill="black"/>
<mask id="mask0" mask-type="alpha" maskUnits="userSpaceOnUse" x="24" y="24" width="24" height="24">
<path d="M24 33.6C24 30.2397 24 28.5595 24.654 27.2761C25.2292 26.1471 26.1471 25.2292 27.2761 24.654C28.5595 24 30.2397 24 33.6 24H38.4C41.7603 24 43.4405 24 44.7239 24.654C45.8529 25.2292 46.7708 26.1471 47.346 27.2761C48 28.5595 48 30.2397 48 33.6V38.4C48 41.7603 48 43.4405 47.346 44.7239C46.7708 45.8529 45.8529 46.7708 44.7239 47.346C43.4405 48 41.7603 48 38.4 48H33.6C30.2397 48 28.5595 48 27.2761 47.346C26.1471 46.7708 25.2292 45.8529 24.654 44.7239C24 43.4405 24 41.7603 24 38.4V33.6Z" fill="#F0F0F5"/>
</mask>
<g mask="url(#mask0)">
<rect x="24" y="24" width="24" height="24" rx="8" fill="#AAB3FF"/>
<path d="M31.6718 33.7863C32.1197 33.7863 32.4865 33.4174 32.4865 32.967C32.4865 32.5166 32.1197 32.1428 31.6718 32.1428C31.224 32.1428 30.8572 32.5166 30.8572 32.967C30.8572 33.4174 31.224 33.7863 31.6718 33.7863ZM34.1539 33.5611H40.5521C40.8809 33.5611 41.1429 33.2976 41.1429 32.967C41.1429 32.6363 40.8856 32.3728 40.5521 32.3728H34.1539C33.8252 32.3728 33.5632 32.6316 33.5632 32.967C33.5632 33.2976 33.8205 33.5611 34.1539 33.5611ZM31.6718 36.8193C32.1197 36.8193 32.4865 36.4504 32.4865 36C32.4865 35.5496 32.1197 35.1806 31.6718 35.1806C31.224 35.1806 30.8572 35.5496 30.8572 36C30.8572 36.4504 31.224 36.8193 31.6718 36.8193ZM34.1539 36.5941H40.5521C40.8809 36.5941 41.1429 36.3354 41.1429 36C41.1429 35.6694 40.8856 35.4058 40.5521 35.4058H34.1539C33.8252 35.4058 33.5632 35.6646 33.5632 36C33.5632 36.3306 33.8205 36.5941 34.1539 36.5941ZM31.6718 39.8571C32.1197 39.8571 32.4865 39.4882 32.4865 39.0378C32.4865 38.5874 32.1197 38.2136 31.6718 38.2136C31.224 38.2136 30.8572 38.5874 30.8572 39.0378C30.8572 39.4882 31.224 39.8571 31.6718 39.8571ZM34.1539 39.6319H40.5521C40.8809 39.6319 41.1429 39.3684 41.1429 39.0378C41.1429 38.7072 40.8856 38.4436 40.5521 38.4436H34.1539C33.8252 38.4436 33.5632 38.7024 33.5632 39.0378C33.5632 39.3684 33.8205 39.6319 34.1539 39.6319Z" fill="white"/>
</g>
<defs>
<filter id="filter0_d" x="390" y="275" width="660" height="96" filterUnits="userSpaceOnUse" color-interpolation-filters="sRGB">
<feFlood flood-opacity="0" result="BackgroundImageFix"/>
<feColorMatrix in="SourceAlpha" type="matrix" values="0 0 0 0 0 0 0 0 0 0 0 0 0 0 0 0 0 0 127 0"/>
<feOffset dy="1"/>
<feGaussianBlur stdDeviation="1"/>
<feColorMatrix type="matrix" values="0 0 0 0 0 0 0 0 0 0 0 0 0 0 0 0 0 0 0.04 0"/>
<feBlend mode="normal" in2="BackgroundImageFix" result="effect1_dropShadow"/>
<feBlend mode="normal" in="SourceGraphic" in2="effect1_dropShadow" result="shape"/>
</filter>
<filter id="filter1_d" x="414" y="407" width="20" height="20" filterUnits="userSpaceOnUse" color-interpolation-filters="sRGB">
<feFlood flood-opacity="0" result="BackgroundImageFix"/>
<feColorMatrix in="SourceAlpha" type="matrix" values="0 0 0 0 0 0 0 0 0 0 0 0 0 0 0 0 0 0 127 0"/>
<feOffset dy="1"/>
<feGaussianBlur stdDeviation="1"/>
<feColorMatrix type="matrix" values="0 0 0 0 0 0 0 0 0 0 0 0 0 0 0 0 0 0 0.04 0"/>
<feBlend mode="normal" in2="BackgroundImageFix" result="effect1_dropShadow"/>
<feBlend mode="normal" in="SourceGraphic" in2="effect1_dropShadow" result="shape"/>
</filter>
</defs>
</svg>
