<svg width="428" height="520" viewBox="0 0 428 520" fill="none" xmlns="http://www.w3.org/2000/svg">
<g filter="url(#filter0_d)">
<rect x="16" y="8" width="396" height="488" rx="6" fill="white"/>
</g>
<path d="M50.2756 459.273H48.9588V468H50.2756V459.273ZM57.1715 468.145C58.2539 468.145 58.8633 467.595 59.1062 467.105H59.1573V468H60.4016V463.653C60.4016 461.749 58.9016 461.369 57.8619 461.369C56.6772 461.369 55.5863 461.847 55.1602 463.04L56.3576 463.312C56.5451 462.848 57.0224 462.401 57.8789 462.401C58.7013 462.401 59.1232 462.831 59.1232 463.572V463.602C59.1232 464.067 58.646 464.058 57.4698 464.195C56.2298 464.339 54.9599 464.663 54.9599 466.151C54.9599 467.438 55.9272 468.145 57.1715 468.145ZM57.4485 467.122C56.7283 467.122 56.2085 466.798 56.2085 466.168C56.2085 465.486 56.8136 465.243 57.5508 465.145C57.9641 465.089 58.9442 464.979 59.1275 464.795V465.639C59.1275 466.415 58.5096 467.122 57.4485 467.122ZM63.3729 459.273H62.0987V468H63.3729V459.273ZM65.087 468H66.3612V464.003C66.3612 463.151 67.0217 462.533 67.9038 462.533C68.1509 462.533 68.3427 462.584 68.4961 462.661L68.9052 461.595C68.6879 461.45 68.4066 461.357 68.0487 461.357C67.2731 461.357 66.6254 461.791 66.3867 462.494H66.3185V461.455H65.087V468ZM72.4549 468.132C73.8825 468.132 74.8924 467.429 75.1822 466.364L73.9762 466.146C73.7461 466.764 73.1921 467.08 72.4677 467.08C71.3768 467.08 70.6438 466.372 70.6097 465.111H75.2631V464.659C75.2631 462.294 73.8484 461.369 72.3654 461.369C70.5415 461.369 69.3398 462.759 69.3398 464.77C69.3398 466.803 70.5245 468.132 72.4549 468.132ZM70.614 464.156C70.6651 463.227 71.3384 462.422 72.3739 462.422C73.3626 462.422 74.0103 463.155 74.0146 464.156H70.614ZM78.5817 468.145C79.6641 468.145 80.2734 467.595 80.5163 467.105H80.5675V468H81.8118V463.653C81.8118 461.749 80.3118 461.369 79.272 461.369C78.0874 461.369 76.9964 461.847 76.5703 463.04L77.7678 463.312C77.9553 462.848 78.4325 462.401 79.2891 462.401C80.1115 462.401 80.5334 462.831 80.5334 463.572V463.602C80.5334 464.067 80.0561 464.058 78.88 464.195C77.6399 464.339 76.37 464.663 76.37 466.151C76.37 467.438 77.3374 468.145 78.5817 468.145ZM78.8587 467.122C78.1385 467.122 77.6186 466.798 77.6186 466.168C77.6186 465.486 78.2237 465.243 78.9609 465.145C79.3743 465.089 80.3544 464.979 80.5376 464.795V465.639C80.5376 466.415 79.9197 467.122 78.8587 467.122ZM85.9592 468.128C87.1523 468.128 87.6211 467.399 87.8512 466.982H87.9577V468H89.2021V459.273H87.9279V462.516H87.8512C87.6211 462.111 87.1864 461.369 85.9677 461.369C84.3867 461.369 83.2234 462.618 83.2234 464.74C83.2234 466.858 84.3697 468.128 85.9592 468.128ZM86.2404 467.041C85.1026 467.041 84.5103 466.04 84.5103 464.727C84.5103 463.428 85.0898 462.452 86.2404 462.452C87.3526 462.452 87.9492 463.359 87.9492 464.727C87.9492 466.104 87.3398 467.041 86.2404 467.041ZM91.7791 470.544C92.8359 470.544 93.522 469.973 93.8928 468.955L96.62 461.455H95.2521L93.5945 466.534H93.5263L91.8686 461.455H90.505L92.8999 468.085L92.7124 468.601C92.3928 469.453 91.9368 469.526 91.2337 469.338L90.9268 470.395C91.0632 470.459 91.3828 470.544 91.7791 470.544ZM102.267 464.114C102.267 463.07 102.928 462.473 103.836 462.473C104.713 462.473 105.238 463.031 105.238 463.99V468H106.512V463.837C106.512 462.205 105.617 461.369 104.27 461.369C103.252 461.369 102.638 461.812 102.331 462.52H102.25V459.273H100.993V468H102.267V464.114ZM110.117 468.145C111.199 468.145 111.809 467.595 112.051 467.105H112.103V468H113.347V463.653C113.347 461.749 111.847 461.369 110.807 461.369C109.623 461.369 108.532 461.847 108.105 463.04L109.303 463.312C109.49 462.848 109.968 462.401 110.824 462.401C111.647 462.401 112.069 462.831 112.069 463.572V463.602C112.069 464.067 111.591 464.058 110.415 464.195C109.175 464.339 107.905 464.663 107.905 466.151C107.905 467.438 108.873 468.145 110.117 468.145ZM110.394 467.122C109.674 467.122 109.154 466.798 109.154 466.168C109.154 465.486 109.759 465.243 110.496 465.145C110.909 465.089 111.89 464.979 112.073 464.795V465.639C112.073 466.415 111.455 467.122 110.394 467.122ZM120.409 461.455H119.041L117.388 466.491H117.32L115.662 461.455H114.294L116.672 468H118.036L120.409 461.455ZM124.193 468.132C125.621 468.132 126.631 467.429 126.92 466.364L125.714 466.146C125.484 466.764 124.93 467.08 124.206 467.08C123.115 467.08 122.382 466.372 122.348 465.111H127.001V464.659C127.001 462.294 125.587 461.369 124.104 461.369C122.28 461.369 121.078 462.759 121.078 464.77C121.078 466.803 122.263 468.132 124.193 468.132ZM122.352 464.156C122.403 463.227 123.077 462.422 124.112 462.422C125.101 462.422 125.749 463.155 125.753 464.156H122.352ZM136.453 461.565H137.723C137.685 460.168 136.449 459.153 134.676 459.153C132.925 459.153 131.582 460.155 131.582 461.659C131.582 462.874 132.452 463.585 133.854 463.964L134.885 464.246C135.818 464.493 136.538 464.8 136.538 465.575C136.538 466.428 135.724 466.99 134.604 466.99C133.589 466.99 132.746 466.538 132.669 465.588H131.348C131.433 467.169 132.656 468.145 134.612 468.145C136.662 468.145 137.842 467.067 137.842 465.588C137.842 464.016 136.44 463.406 135.332 463.134L134.48 462.912C133.798 462.737 132.891 462.418 132.895 461.582C132.895 460.841 133.572 460.291 134.646 460.291C135.648 460.291 136.359 460.76 136.453 461.565ZM142.135 468.132C143.562 468.132 144.572 467.429 144.862 466.364L143.656 466.146C143.426 466.764 142.872 467.08 142.147 467.08C141.056 467.08 140.324 466.372 140.289 465.111H144.943V464.659C144.943 462.294 143.528 461.369 142.045 461.369C140.221 461.369 139.02 462.759 139.02 464.77C139.02 466.803 140.204 468.132 142.135 468.132ZM140.294 464.156C140.345 463.227 141.018 462.422 142.054 462.422C143.042 462.422 143.69 463.155 143.694 464.156H140.294ZM149.114 468.132C150.661 468.132 151.662 467.203 151.803 465.929H150.562C150.401 466.636 149.851 467.054 149.122 467.054C148.044 467.054 147.349 466.155 147.349 464.727C147.349 463.325 148.057 462.443 149.122 462.443C149.932 462.443 150.426 462.955 150.562 463.568H151.803C151.666 462.247 150.588 461.369 149.101 461.369C147.256 461.369 146.062 462.759 146.062 464.757C146.062 466.73 147.213 468.132 149.114 468.132ZM153.165 468H154.439V464.003C154.439 463.151 155.1 462.533 155.982 462.533C156.229 462.533 156.421 462.584 156.574 462.661L156.983 461.595C156.766 461.45 156.485 461.357 156.127 461.357C155.351 461.357 154.703 461.791 154.465 462.494H154.397V461.455H153.165V468ZM160.533 468.132C161.961 468.132 162.971 467.429 163.26 466.364L162.054 466.146C161.824 466.764 161.27 467.08 160.546 467.08C159.455 467.08 158.722 466.372 158.688 465.111H163.341V464.659C163.341 462.294 161.926 461.369 160.444 461.369C158.62 461.369 157.418 462.759 157.418 464.77C157.418 466.803 158.603 468.132 160.533 468.132ZM158.692 464.156C158.743 463.227 159.417 462.422 160.452 462.422C161.441 462.422 162.088 463.155 162.093 464.156H158.692ZM167.81 461.455H166.468V459.886H165.194V461.455H164.235V462.477H165.194V466.342C165.19 467.531 166.097 468.107 167.103 468.085C167.508 468.081 167.781 468.004 167.93 467.949L167.7 466.896C167.614 466.913 167.457 466.952 167.252 466.952C166.839 466.952 166.468 466.815 166.468 466.078V462.477H167.81V461.455ZM172.498 468H173.815V465.286L174.846 464.101L177.667 468H179.252L175.719 463.202L179.239 459.273H177.582L173.921 463.44H173.815V459.273H172.498V468ZM182.705 468.132C184.132 468.132 185.142 467.429 185.432 466.364L184.226 466.146C183.996 466.764 183.442 467.08 182.718 467.08C181.627 467.08 180.894 466.372 180.86 465.111H185.513V464.659C185.513 462.294 184.098 461.369 182.615 461.369C180.792 461.369 179.59 462.759 179.59 464.77C179.59 466.803 180.775 468.132 182.705 468.132ZM180.864 464.156C180.915 463.227 181.588 462.422 182.624 462.422C183.613 462.422 184.26 463.155 184.265 464.156H180.864ZM187.65 470.544C188.707 470.544 189.393 469.973 189.764 468.955L192.491 461.455H191.123L189.466 466.534H189.397L187.74 461.455H186.376L188.771 468.085L188.583 468.601C188.264 469.453 187.808 469.526 187.105 469.338L186.798 470.395C186.934 470.459 187.254 470.544 187.65 470.544Z" fill="#3700FF"/>
<path d="M209.959 468H211.276V464.195H215.626V468H216.947V459.273H215.626V463.065H211.276V459.273H209.959V468ZM221.52 468.132C223.365 468.132 224.571 466.781 224.571 464.757C224.571 462.72 223.365 461.369 221.52 461.369C219.675 461.369 218.469 462.72 218.469 464.757C218.469 466.781 219.675 468.132 221.52 468.132ZM221.524 467.062C220.318 467.062 219.756 466.01 219.756 464.753C219.756 463.5 220.318 462.435 221.524 462.435C222.722 462.435 223.284 463.5 223.284 464.753C223.284 466.01 222.722 467.062 221.524 467.062ZM227.213 468H228.509L229.838 463.274H229.936L231.266 468H232.565L234.487 461.455H233.17L231.896 466.24H231.832L230.554 461.455H229.237L227.95 466.261H227.886L226.604 461.455H225.287L227.213 468ZM238.872 468H240.146V461.455H238.872V468ZM239.516 460.445C239.955 460.445 240.321 460.104 240.321 459.686C240.321 459.268 239.955 458.923 239.516 458.923C239.072 458.923 238.71 459.268 238.71 459.686C238.71 460.104 239.072 460.445 239.516 460.445ZM244.916 461.455H243.574V459.886H242.299V461.455H241.341V462.477H242.299V466.342C242.295 467.531 243.203 468.107 244.208 468.085C244.613 468.081 244.886 468.004 245.035 467.949L244.805 466.896C244.72 466.913 244.562 466.952 244.358 466.952C243.944 466.952 243.574 466.815 243.574 466.078V462.477H244.916V461.455ZM250.92 468H252.216L253.545 463.274H253.643L254.973 468H256.272L258.194 461.455H256.877L255.603 466.24H255.539L254.261 461.455H252.944L251.657 466.261H251.593L250.311 461.455H248.994L250.92 468ZM261.961 468.132C263.806 468.132 265.012 466.781 265.012 464.757C265.012 462.72 263.806 461.369 261.961 461.369C260.116 461.369 258.91 462.72 258.91 464.757C258.91 466.781 260.116 468.132 261.961 468.132ZM261.966 467.062C260.76 467.062 260.197 466.01 260.197 464.753C260.197 463.5 260.76 462.435 261.966 462.435C263.163 462.435 263.725 463.5 263.725 464.753C263.725 466.01 263.163 467.062 261.966 467.062ZM266.435 468H267.709V464.003C267.709 463.151 268.369 462.533 269.251 462.533C269.499 462.533 269.69 462.584 269.844 462.661L270.253 461.595C270.036 461.45 269.754 461.357 269.396 461.357C268.621 461.357 267.973 461.791 267.734 462.494H267.666V461.455H266.435V468ZM271.216 468H272.49V465.678L273.125 465.043L275.349 468H276.913L274.084 464.263L276.734 461.455H275.209L272.601 464.224H272.49V459.273H271.216V468ZM282.8 463.053C282.536 462.034 281.739 461.369 280.325 461.369C278.846 461.369 277.798 462.149 277.798 463.308C277.798 464.237 278.36 464.855 279.587 465.128L280.695 465.371C281.326 465.511 281.62 465.793 281.62 466.202C281.62 466.709 281.079 467.105 280.244 467.105C279.481 467.105 278.991 466.777 278.837 466.134L277.606 466.321C277.819 467.48 278.782 468.132 280.252 468.132C281.833 468.132 282.928 467.293 282.928 466.108C282.928 465.183 282.34 464.612 281.138 464.335L280.099 464.097C279.379 463.926 279.067 463.683 279.072 463.24C279.067 462.737 279.613 462.379 280.337 462.379C281.13 462.379 281.496 462.818 281.646 463.257L282.8 463.053Z" fill="#3700FF"/>
<path d="M48 405.6C48 402.24 48 400.56 48.654 399.276C49.2292 398.147 50.1471 397.229 51.2761 396.654C52.5595 396 54.2397 396 57.6 396H370.4C373.76 396 375.44 396 376.724 396.654C377.853 397.229 378.771 398.147 379.346 399.276C380 400.56 380 402.24 380 405.6V426.4C380 429.76 380 431.44 379.346 432.724C378.771 433.853 377.853 434.771 376.724 435.346C375.44 436 373.76 436 370.4 436H57.6C54.2397 436 52.5595 436 51.2761 435.346C50.1471 434.771 49.2292 433.853 48.654 432.724C48 431.44 48 429.76 48 426.4V405.6Z" fill="#3700FF"/>
<path d="M184.91 413.701H186.486C186.143 411.718 184.448 410.346 182.25 410.346C179.615 410.346 177.691 412.329 177.691 415.581C177.691 418.802 179.561 420.806 182.32 420.806C184.791 420.806 186.556 419.185 186.556 416.615V415.456H182.554V416.724H185.069C185.034 418.365 183.951 419.404 182.32 419.404C180.525 419.404 179.218 418.047 179.218 415.571C179.218 413.105 180.535 411.748 182.26 411.748C183.613 411.748 184.527 412.493 184.91 413.701ZM191.538 420.821C193.203 420.821 194.381 420 194.719 418.758L193.313 418.504C193.044 419.225 192.398 419.593 191.553 419.593C190.28 419.593 189.425 418.768 189.385 417.296H194.814V416.769C194.814 414.01 193.163 412.931 191.433 412.931C189.305 412.931 187.903 414.552 187.903 416.898C187.903 419.27 189.286 420.821 191.538 420.821ZM189.39 416.182C189.45 415.098 190.235 414.159 191.443 414.159C192.597 414.159 193.352 415.014 193.357 416.182H189.39ZM199.888 413.03H198.322V411.201H196.835V413.03H195.717V414.223H196.835V418.733C196.83 420.12 197.889 420.791 199.063 420.766C199.535 420.761 199.853 420.672 200.027 420.607L199.759 419.379C199.659 419.399 199.475 419.444 199.237 419.444C198.754 419.444 198.322 419.285 198.322 418.424V414.223H199.888V413.03ZM210.68 414.895C210.371 413.706 209.442 412.931 207.791 412.931C206.066 412.931 204.843 413.841 204.843 415.193C204.843 416.277 205.499 416.998 206.931 417.316L208.224 417.599C208.959 417.763 209.303 418.091 209.303 418.569C209.303 419.16 208.671 419.623 207.697 419.623C206.807 419.623 206.235 419.24 206.056 418.489L204.619 418.708C204.868 420.06 205.991 420.821 207.707 420.821C209.551 420.821 210.829 419.841 210.829 418.459C210.829 417.38 210.143 416.714 208.741 416.391L207.528 416.113C206.687 415.914 206.325 415.63 206.329 415.113C206.325 414.527 206.961 414.109 207.806 414.109C208.731 414.109 209.158 414.621 209.332 415.133L210.68 414.895ZM215.888 413.03H214.322V411.201H212.835V413.03H211.717V414.223H212.835V418.733C212.83 420.12 213.889 420.791 215.063 420.766C215.535 420.761 215.853 420.672 216.027 420.607L215.759 419.379C215.659 419.399 215.475 419.444 215.237 419.444C214.754 419.444 214.322 419.285 214.322 418.424V414.223H215.888V413.03ZM219.614 420.836C220.877 420.836 221.588 420.194 221.872 419.623H221.931V420.667H223.383V415.596C223.383 413.373 221.633 412.931 220.42 412.931C219.038 412.931 217.765 413.488 217.268 414.88L218.665 415.198C218.884 414.656 219.44 414.134 220.44 414.134C221.399 414.134 221.891 414.636 221.891 415.501V415.536C221.891 416.078 221.335 416.068 219.962 416.227C218.516 416.396 217.034 416.774 217.034 418.509C217.034 420.01 218.163 420.836 219.614 420.836ZM219.938 419.643C219.097 419.643 218.491 419.265 218.491 418.529C218.491 417.733 219.197 417.45 220.057 417.336C220.539 417.271 221.683 417.142 221.896 416.928V417.912C221.896 418.817 221.176 419.643 219.938 419.643ZM225.223 420.667H226.709V416.003C226.709 415.004 227.48 414.283 228.534 414.283C228.842 414.283 229.19 414.338 229.31 414.373V412.951C229.16 412.931 228.867 412.916 228.678 412.916C227.783 412.916 227.018 413.423 226.739 414.243H226.66V413.03H225.223V420.667ZM234.499 413.03H232.933V411.201H231.447V413.03H230.328V414.223H231.447V418.733C231.442 420.12 232.5 420.791 233.674 420.766C234.146 420.761 234.464 420.672 234.638 420.607L234.37 419.379C234.27 419.399 234.086 419.444 233.848 419.444C233.366 419.444 232.933 419.285 232.933 418.424V414.223H234.499V413.03ZM239.213 420.821C240.878 420.821 242.056 420 242.394 418.758L240.987 418.504C240.719 419.225 240.073 419.593 239.228 419.593C237.955 419.593 237.1 418.768 237.06 417.296H242.489V416.769C242.489 414.01 240.838 412.931 239.108 412.931C236.98 412.931 235.578 414.552 235.578 416.898C235.578 419.27 236.96 420.821 239.213 420.821ZM237.065 416.182C237.125 415.098 237.91 414.159 239.118 414.159C240.272 414.159 241.027 415.014 241.032 416.182H237.065ZM246.857 420.816C248.249 420.816 248.796 419.966 249.064 419.478H249.189V420.667H250.64V410.485H249.154V414.268H249.064C248.796 413.796 248.289 412.931 246.867 412.931C245.022 412.931 243.665 414.388 243.665 416.863C243.665 419.334 245.002 420.816 246.857 420.816ZM247.185 419.548C245.858 419.548 245.167 418.38 245.167 416.848C245.167 415.332 245.843 414.194 247.185 414.194C248.483 414.194 249.179 415.253 249.179 416.848C249.179 418.454 248.468 419.548 247.185 419.548Z" fill="white"/>
<g filter="url(#filter1_i)">
<rect x="16" y="308" width="396" height="80" fill="white"/>
</g>
<path d="M89.233 332.818V343H90.3864V335.264H90.4858L93.6676 343H94.7812L97.9631 335.264H98.0625V343H99.2159V332.818H97.7443L94.2841 341.27H94.1648L90.7045 332.818H89.233ZM104.905 343.159C106.456 343.159 107.59 342.384 107.948 341.23L106.814 340.912C106.516 341.707 105.825 342.105 104.905 342.105C103.528 342.105 102.578 341.215 102.524 339.58H108.067V339.082C108.067 336.239 106.377 335.264 104.786 335.264C102.718 335.264 101.345 336.895 101.345 339.241C101.345 341.588 102.698 343.159 104.905 343.159ZM102.524 338.565C102.603 337.377 103.443 336.318 104.786 336.318C106.059 336.318 106.874 337.273 106.874 338.565H102.524ZM115.121 337.074C114.753 335.99 113.928 335.264 112.416 335.264C110.806 335.264 109.612 336.179 109.612 337.472C109.612 338.526 110.239 339.232 111.641 339.56L112.914 339.858C113.684 340.037 114.047 340.405 114.047 340.932C114.047 341.588 113.351 342.125 112.257 342.125C111.298 342.125 110.696 341.712 110.487 340.892L109.374 341.17C109.647 342.468 110.716 343.159 112.277 343.159C114.052 343.159 115.26 342.19 115.26 340.872C115.26 339.808 114.594 339.137 113.232 338.804L112.098 338.526C111.193 338.302 110.786 337.999 110.786 337.412C110.786 336.756 111.482 336.278 112.416 336.278C113.441 336.278 113.863 336.845 114.067 337.372L115.121 337.074ZM122.295 337.074C121.927 335.99 121.102 335.264 119.591 335.264C117.98 335.264 116.787 336.179 116.787 337.472C116.787 338.526 117.413 339.232 118.815 339.56L120.088 339.858C120.859 340.037 121.222 340.405 121.222 340.932C121.222 341.588 120.525 342.125 119.432 342.125C118.472 342.125 117.871 341.712 117.662 340.892L116.548 341.17C116.822 342.468 117.891 343.159 119.452 343.159C121.226 343.159 122.435 342.19 122.435 340.872C122.435 339.808 121.768 339.137 120.406 338.804L119.273 338.526C118.368 338.302 117.96 337.999 117.96 337.412C117.96 336.756 118.656 336.278 119.591 336.278C120.615 336.278 121.038 336.845 121.241 337.372L122.295 337.074ZM127.262 343.159C128.814 343.159 129.947 342.384 130.305 341.23L129.172 340.912C128.873 341.707 128.182 342.105 127.262 342.105C125.885 342.105 124.936 341.215 124.881 339.58H130.424V339.082C130.424 336.239 128.734 335.264 127.143 335.264C125.075 335.264 123.703 336.895 123.703 339.241C123.703 341.588 125.055 343.159 127.262 343.159ZM124.881 338.565C124.961 337.377 125.801 336.318 127.143 336.318C128.416 336.318 129.231 337.273 129.231 338.565H124.881ZM133.242 338.406C133.242 337.074 134.068 336.318 135.191 336.318C136.28 336.318 136.941 337.029 136.941 338.227V343H138.115V338.148C138.115 336.199 137.076 335.264 135.529 335.264C134.376 335.264 133.66 335.781 133.302 336.557H133.203V335.364H132.069V343H133.242V338.406ZM143.201 346.023C145.031 346.023 146.502 345.188 146.502 343.219V335.364H145.369V336.577H145.249C144.991 336.179 144.514 335.264 143.022 335.264C141.093 335.264 139.761 336.795 139.761 339.142C139.761 341.528 141.153 342.881 143.002 342.881C144.494 342.881 144.971 342.006 145.229 341.588H145.329V343.139C145.329 344.412 144.434 344.989 143.201 344.989C141.814 344.989 141.327 344.258 141.014 343.835L140.079 344.491C140.556 345.292 141.496 346.023 143.201 346.023ZM143.161 341.827C141.69 341.827 140.934 340.713 140.934 339.122C140.934 337.571 141.67 336.318 143.161 336.318C144.593 336.318 145.349 337.472 145.349 339.122C145.349 340.812 144.573 341.827 143.161 341.827ZM151.712 343.159C153.263 343.159 154.396 342.384 154.754 341.23L153.621 340.912C153.322 341.707 152.631 342.105 151.712 342.105C150.334 342.105 149.385 341.215 149.33 339.58H154.874V339.082C154.874 336.239 153.183 335.264 151.592 335.264C149.524 335.264 148.152 336.895 148.152 339.241C148.152 341.588 149.504 343.159 151.712 343.159ZM149.33 338.565C149.41 337.377 150.25 336.318 151.592 336.318C152.865 336.318 153.68 337.273 153.68 338.565H149.33ZM156.518 343H157.692V338.168C157.692 337.138 158.507 336.378 159.621 336.378C159.914 336.378 160.133 336.433 160.297 336.517L160.694 335.523C160.456 335.354 160.143 335.244 159.72 335.244C158.795 335.244 158.005 335.761 157.731 336.517H157.652V335.364H156.518V343ZM167.279 343H168.432L170.103 337.134H170.222L171.893 343H173.046L175.373 335.364H174.14L172.489 341.19H172.41L170.799 335.364H169.546L167.915 341.21H167.836L166.185 335.364H164.952L167.279 343ZM179.626 343.159C181.695 343.159 183.087 341.588 183.087 339.222C183.087 336.835 181.695 335.264 179.626 335.264C177.558 335.264 176.166 336.835 176.166 339.222C176.166 341.588 177.558 343.159 179.626 343.159ZM179.626 342.105C178.055 342.105 177.339 340.753 177.339 339.222C177.339 337.69 178.055 336.318 179.626 336.318C181.197 336.318 181.913 337.69 181.913 339.222C181.913 340.753 181.197 342.105 179.626 342.105ZM185.911 338.406C185.911 337.074 186.736 336.318 187.86 336.318C188.949 336.318 189.61 337.029 189.61 338.227V343H190.783V338.148C190.783 336.199 189.744 335.264 188.198 335.264C187.044 335.264 186.329 335.781 185.971 336.557H185.871V335.364H184.738V343H185.911V338.406ZM193.821 332.818H192.708V333.733C192.708 334.469 192.35 335.105 191.932 335.702L192.568 336.219C193.364 335.582 193.821 334.528 193.821 333.713V332.818ZM198.757 335.364H197.126V333.534H195.953V335.364H194.8V336.358H195.953V341.131C195.953 342.463 197.027 343.099 198.021 343.099C198.459 343.099 198.737 343.02 198.896 342.96L198.658 341.906C198.558 341.926 198.399 341.966 198.141 341.966C197.624 341.966 197.126 341.807 197.126 340.812V336.358H198.757V335.364ZM204.339 343H205.472V341.827H205.611C205.87 342.244 206.367 343.159 207.839 343.159C209.748 343.159 211.08 341.628 211.08 339.202C211.08 336.795 209.748 335.264 207.819 335.264C206.327 335.264 205.87 336.179 205.611 336.577H205.512V332.818H204.339V343ZM205.492 339.182C205.492 337.472 206.248 336.318 207.68 336.318C209.171 336.318 209.907 337.571 209.907 339.182C209.907 340.812 209.151 342.105 207.68 342.105C206.268 342.105 205.492 340.912 205.492 339.182ZM215.937 343.159C217.488 343.159 218.621 342.384 218.979 341.23L217.846 340.912C217.547 341.707 216.856 342.105 215.937 342.105C214.559 342.105 213.61 341.215 213.555 339.58H219.099V339.082C219.099 336.239 217.408 335.264 215.817 335.264C213.749 335.264 212.377 336.895 212.377 339.241C212.377 341.588 213.729 343.159 215.937 343.159ZM213.555 338.565C213.635 337.377 214.475 336.318 215.817 336.318C217.09 336.318 217.905 337.273 217.905 338.565H213.555ZM226.788 343.179C228.12 343.179 228.816 342.463 229.055 341.966H229.115V343H230.288V337.969C230.288 335.543 228.439 335.264 227.464 335.264C226.311 335.264 224.998 335.662 224.402 337.054L225.515 337.452C225.774 336.895 226.385 336.298 227.504 336.298C228.583 336.298 229.115 336.87 229.115 337.849V337.889C229.115 338.456 228.538 338.406 227.146 338.585C225.729 338.769 224.183 339.082 224.183 340.832C224.183 342.324 225.336 343.179 226.788 343.179ZM226.967 342.125C226.032 342.125 225.356 341.707 225.356 340.892C225.356 339.997 226.171 339.719 227.086 339.599C227.583 339.54 228.916 339.401 229.115 339.162V340.236C229.115 341.19 228.359 342.125 226.967 342.125ZM232.449 343H233.582V341.827H233.721C233.98 342.244 234.477 343.159 235.949 343.159C237.858 343.159 239.19 341.628 239.19 339.202C239.19 336.795 237.858 335.264 235.929 335.264C234.437 335.264 233.98 336.179 233.721 336.577H233.622V332.818H232.449V343ZM233.602 339.182C233.602 337.472 234.358 336.318 235.789 336.318C237.281 336.318 238.017 337.571 238.017 339.182C238.017 340.812 237.261 342.105 235.789 342.105C234.378 342.105 233.602 340.912 233.602 339.182ZM242.018 332.818H240.845V343H242.018V332.818ZM247.229 343.159C248.78 343.159 249.913 342.384 250.271 341.23L249.138 340.912C248.84 341.707 248.149 342.105 247.229 342.105C245.852 342.105 244.902 341.215 244.847 339.58H250.391V339.082C250.391 336.239 248.7 335.264 247.109 335.264C245.041 335.264 243.669 336.895 243.669 339.241C243.669 341.588 245.021 343.159 247.229 343.159ZM244.847 338.565C244.927 337.377 245.767 336.318 247.109 336.318C248.382 336.318 249.198 337.273 249.198 338.565H244.847ZM259.154 335.364H257.523V333.534H256.35V335.364H255.197V336.358H256.35V341.131C256.35 342.463 257.424 343.099 258.418 343.099C258.856 343.099 259.134 343.02 259.293 342.96L259.055 341.906C258.955 341.926 258.796 341.966 258.538 341.966C258.021 341.966 257.523 341.807 257.523 340.812V336.358H259.154V335.364ZM263.799 343.159C265.867 343.159 267.259 341.588 267.259 339.222C267.259 336.835 265.867 335.264 263.799 335.264C261.731 335.264 260.339 336.835 260.339 339.222C260.339 341.588 261.731 343.159 263.799 343.159ZM263.799 342.105C262.228 342.105 261.512 340.753 261.512 339.222C261.512 337.69 262.228 336.318 263.799 336.318C265.37 336.318 266.086 337.69 266.086 339.222C266.086 340.753 265.37 342.105 263.799 342.105ZM278.117 337.074C277.749 335.99 276.924 335.264 275.412 335.264C273.802 335.264 272.608 336.179 272.608 337.472C272.608 338.526 273.235 339.232 274.637 339.56L275.91 339.858C276.68 340.037 277.043 340.405 277.043 340.932C277.043 341.588 276.347 342.125 275.253 342.125C274.294 342.125 273.692 341.712 273.483 340.892L272.37 341.17C272.643 342.468 273.712 343.159 275.273 343.159C277.048 343.159 278.256 342.19 278.256 340.872C278.256 339.808 277.59 339.137 276.228 338.804L275.094 338.526C274.189 338.302 273.782 337.999 273.782 337.412C273.782 336.756 274.478 336.278 275.412 336.278C276.437 336.278 276.859 336.845 277.063 337.372L278.117 337.074ZM283.084 343.159C284.635 343.159 285.769 342.384 286.127 341.23L284.993 340.912C284.695 341.707 284.004 342.105 283.084 342.105C281.707 342.105 280.757 341.215 280.703 339.58H286.246V339.082C286.246 336.239 284.556 335.264 282.965 335.264C280.897 335.264 279.524 336.895 279.524 339.241C279.524 341.588 280.877 343.159 283.084 343.159ZM280.703 338.565C280.782 337.377 281.622 336.318 282.965 336.318C284.237 336.318 285.053 337.273 285.053 338.565H280.703ZM291.093 343.159C292.644 343.159 293.777 342.384 294.135 341.23L293.002 340.912C292.703 341.707 292.012 342.105 291.093 342.105C289.715 342.105 288.766 341.215 288.711 339.58H294.254V339.082C294.254 336.239 292.564 335.264 290.973 335.264C288.905 335.264 287.533 336.895 287.533 339.241C287.533 341.588 288.885 343.159 291.093 343.159ZM288.711 338.565C288.791 337.377 289.631 336.318 290.973 336.318C292.246 336.318 293.061 337.273 293.061 338.565H288.711ZM297.649 341.608H296.377L296.317 342.165C296.173 343.512 295.889 344.854 295.76 345.486H296.655C296.894 344.81 297.401 343.278 297.57 342.145L297.649 341.608ZM305.728 343.179C307.06 343.179 307.756 342.463 307.995 341.966H308.054V343H309.228V337.969C309.228 335.543 307.378 335.264 306.404 335.264C305.25 335.264 303.938 335.662 303.341 337.054L304.455 337.452C304.714 336.895 305.325 336.298 306.444 336.298C307.522 336.298 308.054 336.87 308.054 337.849V337.889C308.054 338.456 307.478 338.406 306.086 338.585C304.669 338.769 303.123 339.082 303.123 340.832C303.123 342.324 304.276 343.179 305.728 343.179ZM305.907 342.125C304.972 342.125 304.296 341.707 304.296 340.892C304.296 339.997 305.111 339.719 306.026 339.599C306.523 339.54 307.856 339.401 308.054 339.162V340.236C308.054 341.19 307.299 342.125 305.907 342.125ZM314.332 343.159C316.022 343.159 317.136 342.125 317.334 340.773H316.161C315.942 341.608 315.246 342.105 314.332 342.105C312.939 342.105 312.045 340.952 312.045 339.182C312.045 337.452 312.959 336.318 314.332 336.318C315.366 336.318 315.982 336.955 316.161 337.651H317.334C317.136 336.219 315.922 335.264 314.312 335.264C312.243 335.264 310.871 336.895 310.871 339.222C310.871 341.509 312.184 343.159 314.332 343.159ZM322.012 343.159C323.702 343.159 324.816 342.125 325.015 340.773H323.841C323.623 341.608 322.927 342.105 322.012 342.105C320.62 342.105 319.725 340.952 319.725 339.182C319.725 337.452 320.64 336.318 322.012 336.318C323.046 336.318 323.662 336.955 323.841 337.651H325.015C324.816 336.219 323.603 335.264 321.992 335.264C319.924 335.264 318.552 336.895 318.552 339.222C318.552 341.509 319.864 343.159 322.012 343.159ZM329.792 343.159C331.343 343.159 332.476 342.384 332.834 341.23L331.701 340.912C331.402 341.707 330.711 342.105 329.792 342.105C328.414 342.105 327.465 341.215 327.41 339.58H332.954V339.082C332.954 336.239 331.263 335.264 329.672 335.264C327.604 335.264 326.232 336.895 326.232 339.241C326.232 341.588 327.584 343.159 329.792 343.159ZM327.41 338.565C327.49 337.377 328.33 336.318 329.672 336.318C330.945 336.318 331.76 337.273 331.76 338.565H327.41ZM340.007 337.074C339.64 335.99 338.814 335.264 337.303 335.264C335.692 335.264 334.499 336.179 334.499 337.472C334.499 338.526 335.125 339.232 336.527 339.56L337.8 339.858C338.571 340.037 338.934 340.405 338.934 340.932C338.934 341.588 338.238 342.125 337.144 342.125C336.184 342.125 335.583 341.712 335.374 340.892L334.26 341.17C334.534 342.468 335.603 343.159 337.164 343.159C338.939 343.159 340.147 342.19 340.147 340.872C340.147 339.808 339.48 339.137 338.118 338.804L336.985 338.526C336.08 338.302 335.672 337.999 335.672 337.412C335.672 336.756 336.368 336.278 337.303 336.278C338.327 336.278 338.75 336.845 338.953 337.372L340.007 337.074ZM347.182 337.074C346.814 335.99 345.989 335.264 344.477 335.264C342.867 335.264 341.673 336.179 341.673 337.472C341.673 338.526 342.3 339.232 343.702 339.56L344.974 339.858C345.745 340.037 346.108 340.405 346.108 340.932C346.108 341.588 345.412 342.125 344.318 342.125C343.359 342.125 342.757 341.712 342.548 340.892L341.435 341.17C341.708 342.468 342.777 343.159 344.338 343.159C346.113 343.159 347.321 342.19 347.321 340.872C347.321 339.808 346.655 339.137 345.293 338.804L344.159 338.526C343.254 338.302 342.847 337.999 342.847 337.412C342.847 336.756 343.543 336.278 344.477 336.278C345.501 336.278 345.924 336.845 346.128 337.372L347.182 337.074ZM350.697 341.608H349.424L349.365 342.165C349.221 343.512 348.937 344.854 348.808 345.486H349.703C349.942 344.81 350.449 343.278 350.618 342.145L350.697 341.608ZM359.631 343.159C361.699 343.159 363.091 341.588 363.091 339.222C363.091 336.835 361.699 335.264 359.631 335.264C357.563 335.264 356.171 336.835 356.171 339.222C356.171 341.588 357.563 343.159 359.631 343.159ZM359.631 342.105C358.06 342.105 357.344 340.753 357.344 339.222C357.344 337.69 358.06 336.318 359.631 336.318C361.202 336.318 361.918 337.69 361.918 339.222C361.918 340.753 361.202 342.105 359.631 342.105ZM364.742 343H365.915V338.168C365.915 337.138 366.731 336.378 367.844 336.378C368.138 336.378 368.356 336.433 368.52 336.517L368.918 335.523C368.68 335.354 368.366 335.244 367.944 335.244C367.019 335.244 366.229 335.761 365.955 336.517H365.876V335.364H364.742V343ZM92.3949 355.364H90.7642V353.534H89.5909V355.364H88.4375V356.358H89.5909V361.131C89.5909 362.463 90.6648 363.099 91.6591 363.099C92.0966 363.099 92.375 363.02 92.5341 362.96L92.2955 361.906C92.196 361.926 92.0369 361.966 91.7784 361.966C91.2614 361.966 90.7642 361.807 90.7642 360.812V356.358H92.3949V355.364ZM94.0198 363H95.1931V358.168C95.1931 357.138 96.0084 356.378 97.1221 356.378C97.4154 356.378 97.6341 356.433 97.7982 356.517L98.1959 355.523C97.9573 355.354 97.6441 355.244 97.2215 355.244C96.2968 355.244 95.5063 355.761 95.2329 356.517H95.1533V355.364H94.0198V363ZM101.5 363.179C102.832 363.179 103.528 362.463 103.767 361.966H103.827V363H105V357.969C105 355.543 103.151 355.264 102.176 355.264C101.023 355.264 99.7102 355.662 99.1136 357.054L100.227 357.452C100.486 356.895 101.097 356.298 102.216 356.298C103.295 356.298 103.827 356.87 103.827 357.849V357.889C103.827 358.456 103.25 358.406 101.858 358.585C100.441 358.769 98.8949 359.082 98.8949 360.832C98.8949 362.324 100.048 363.179 101.5 363.179ZM101.679 362.125C100.744 362.125 100.068 361.707 100.068 360.892C100.068 359.997 100.884 359.719 101.798 359.599C102.295 359.54 103.628 359.401 103.827 359.162V360.236C103.827 361.19 103.071 362.125 101.679 362.125ZM110.104 363.159C111.794 363.159 112.908 362.125 113.107 360.773H111.933C111.715 361.608 111.019 362.105 110.104 362.105C108.712 362.105 107.817 360.952 107.817 359.182C107.817 357.452 108.732 356.318 110.104 356.318C111.138 356.318 111.754 356.955 111.933 357.651H113.107C112.908 356.219 111.695 355.264 110.084 355.264C108.016 355.264 106.644 356.895 106.644 359.222C106.644 361.509 107.956 363.159 110.104 363.159ZM114.682 363H115.855V360.141L116.675 359.381L119.534 363H121.026L117.56 358.625L120.787 355.364H119.335L115.994 358.764H115.855V352.818H114.682V363ZM126.67 365.963C127.744 365.963 128.48 365.406 128.918 364.233L132.199 355.364H130.926L128.818 361.449H128.739L126.631 355.364H125.358L128.182 363.04L127.923 363.756C127.511 364.899 126.969 365.009 126.114 364.79L125.815 365.824C125.935 365.884 126.273 365.963 126.67 365.963ZM136.436 363.159C138.505 363.159 139.897 361.588 139.897 359.222C139.897 356.835 138.505 355.264 136.436 355.264C134.368 355.264 132.976 356.835 132.976 359.222C132.976 361.588 134.368 363.159 136.436 363.159ZM136.436 362.105C134.865 362.105 134.149 360.753 134.149 359.222C134.149 357.69 134.865 356.318 136.436 356.318C138.007 356.318 138.723 357.69 138.723 359.222C138.723 360.753 138.007 362.105 136.436 362.105ZM146.36 359.878C146.36 361.31 145.266 361.966 144.391 361.966C143.417 361.966 142.721 361.25 142.721 360.136V355.364H141.548V360.216C141.548 362.165 142.582 363.099 144.014 363.099C145.167 363.099 145.923 362.483 146.281 361.707H146.36V363H147.533V355.364H146.36V359.878ZM149.542 363H150.716V358.168C150.716 357.138 151.531 356.378 152.645 356.378C152.938 356.378 153.157 356.433 153.321 356.517L153.719 355.523C153.48 355.354 153.167 355.244 152.744 355.244C151.819 355.244 151.029 355.761 150.755 356.517H150.676V355.364H149.542V363ZM160.82 363.179C162.152 363.179 162.848 362.463 163.087 361.966H163.147V363H164.32V357.969C164.32 355.543 162.471 355.264 161.496 355.264C160.343 355.264 159.03 355.662 158.434 357.054L159.547 357.452C159.806 356.895 160.417 356.298 161.536 356.298C162.615 356.298 163.147 356.87 163.147 357.849V357.889C163.147 358.456 162.57 358.406 161.178 358.585C159.761 358.769 158.215 359.082 158.215 360.832C158.215 362.324 159.368 363.179 160.82 363.179ZM160.999 362.125C160.064 362.125 159.388 361.707 159.388 360.892C159.388 359.997 160.204 359.719 161.118 359.599C161.616 359.54 162.948 359.401 163.147 359.162V360.236C163.147 361.19 162.391 362.125 160.999 362.125ZM169.424 363.159C171.114 363.159 172.228 362.125 172.427 360.773H171.253C171.035 361.608 170.339 362.105 169.424 362.105C168.032 362.105 167.137 360.952 167.137 359.182C167.137 357.452 168.052 356.318 169.424 356.318C170.458 356.318 171.074 356.955 171.253 357.651H172.427C172.228 356.219 171.015 355.264 169.404 355.264C167.336 355.264 165.964 356.895 165.964 359.222C165.964 361.509 167.276 363.159 169.424 363.159ZM177.323 355.364H175.692V353.534H174.519V355.364H173.366V356.358H174.519V361.131C174.519 362.463 175.593 363.099 176.587 363.099C177.025 363.099 177.303 363.02 177.462 362.96L177.224 361.906C177.124 361.926 176.965 361.966 176.706 361.966C176.189 361.966 175.692 361.807 175.692 360.812V356.358H177.323V355.364ZM178.948 363H180.121V355.364H178.948V363ZM179.544 354.091C180.002 354.091 180.38 353.733 180.38 353.295C180.38 352.858 180.002 352.5 179.544 352.5C179.087 352.5 178.709 352.858 178.709 353.295C178.709 353.733 179.087 354.091 179.544 354.091ZM188.374 355.364H187.102L184.994 361.449H184.914L182.806 355.364H181.534L184.357 363H185.551L188.374 355.364ZM190.262 363H191.435V355.364H190.262V363ZM190.858 354.091C191.316 354.091 191.693 353.733 191.693 353.295C191.693 352.858 191.316 352.5 190.858 352.5C190.401 352.5 190.023 352.858 190.023 353.295C190.023 353.733 190.401 354.091 190.858 354.091ZM196.765 355.364H195.134V353.534H193.961V355.364H192.808V356.358H193.961V361.131C193.961 362.463 195.035 363.099 196.029 363.099C196.467 363.099 196.745 363.02 196.904 362.96L196.665 361.906C196.566 361.926 196.407 361.966 196.148 361.966C195.631 361.966 195.134 361.807 195.134 360.812V356.358H196.765V355.364ZM199.106 365.963C200.18 365.963 200.915 365.406 201.353 364.233L204.634 355.364H203.361L201.253 361.449H201.174L199.066 355.364H197.793L200.617 363.04L200.359 363.756C199.946 364.899 199.404 365.009 198.549 364.79L198.251 365.824C198.37 365.884 198.708 365.963 199.106 365.963Z" fill="#222933"/>
<path fill-rule="evenodd" clip-rule="evenodd" d="M67.695 334.351C67.9032 334.135 68.1868 334.009 68.4855 334.001C68.7171 333.994 68.9454 334.057 69.1405 334.184C69.3356 334.31 69.4883 334.492 69.5786 334.707C69.669 334.923 69.6927 335.16 69.6468 335.389C69.6008 335.618 69.4873 335.828 69.3212 335.991L52.3048 353.147C52.1987 353.257 52.0718 353.346 51.9315 353.406C51.7913 353.467 51.6404 353.499 51.4878 353.5C51.3352 353.501 51.1839 353.472 51.0427 353.414C50.9015 353.355 50.7732 353.269 50.6653 353.16C50.5574 353.052 50.472 352.922 50.4142 352.78C50.3564 352.637 50.3273 352.485 50.3285 352.331C50.3298 352.177 50.3614 352.025 50.4216 351.884C50.4817 351.742 50.5692 351.614 50.6788 351.507L67.695 334.351ZM48.1937 342.954C50.4794 338.512 55.0352 335.716 59.9982 335.716C61.5143 335.716 62.9919 335.977 64.3789 336.465L62.7583 338.099C61.9263 337.685 60.9904 337.452 60 337.452C56.5504 337.452 53.754 340.271 53.754 343.749C53.754 344.748 53.9856 345.691 54.3959 346.53L51.9217 349.025C50.3951 347.849 49.1126 346.336 48.1948 344.557C47.9354 344.055 47.9351 343.457 48.1937 342.954ZM65.6041 340.968L68.0781 338.474C69.6047 339.649 70.8874 341.162 71.8052 342.942C72.0646 343.444 72.0649 344.042 71.8064 344.545C69.5205 348.986 64.9647 351.782 60.0018 351.782C58.4857 351.782 57.0081 351.521 55.6212 351.033L57.2415 349.399C58.0735 349.813 59.0096 350.046 60 350.046C63.4496 350.046 66.246 347.227 66.246 343.749C66.246 342.751 66.0145 341.807 65.6041 340.968ZM57.2428 340.969C58.0042 340.202 59.0022 339.818 60 339.818C60.3155 339.818 60.6308 339.857 60.9387 339.933L56.2154 344.696C55.8986 343.403 56.2408 341.979 57.2428 340.969ZM59.0613 347.565L63.7846 342.802C64.1013 344.095 63.7589 345.518 62.7569 346.529C61.755 347.539 60.3434 347.884 59.0613 347.565Z" fill="#5548FF"/>
<path d="M67.6951 334.351C67.9034 334.135 68.1869 334.009 68.4856 334.001C68.7173 333.994 68.9456 334.057 69.1406 334.184C69.3357 334.31 69.4884 334.492 69.5787 334.707C69.6691 334.923 69.6928 335.16 69.6469 335.389C69.6009 335.618 69.4874 335.828 69.3213 335.991L52.3049 353.147C52.1988 353.257 52.0719 353.346 51.9316 353.406C51.7914 353.467 51.6405 353.499 51.4879 353.5C51.3353 353.501 51.184 353.472 51.0428 353.414C50.9016 353.355 50.7733 353.269 50.6654 353.16C50.5575 353.052 50.4721 352.922 50.4143 352.78C50.3565 352.637 50.3274 352.485 50.3287 352.331C50.3299 352.177 50.3615 352.025 50.4217 351.884C50.4818 351.742 50.5693 351.614 50.679 351.507L67.6951 334.351Z" fill="#5548FF"/>
<g filter="url(#filter2_i)">
<rect x="16" y="228" width="396" height="80" fill="white"/>
</g>
<path d="M88.358 252.818L92.0369 258.804V263H93.2699V258.804L96.9489 252.818H95.5369L92.7131 257.571H92.5938L89.7699 252.818H88.358ZM100.267 263.159C102.335 263.159 103.727 261.588 103.727 259.222C103.727 256.835 102.335 255.264 100.267 255.264C98.1984 255.264 96.8064 256.835 96.8064 259.222C96.8064 261.588 98.1984 263.159 100.267 263.159ZM100.267 262.105C98.6956 262.105 97.9797 260.753 97.9797 259.222C97.9797 257.69 98.6956 256.318 100.267 256.318C101.838 256.318 102.554 257.69 102.554 259.222C102.554 260.753 101.838 262.105 100.267 262.105ZM110.19 259.878C110.19 261.31 109.097 261.966 108.222 261.966C107.247 261.966 106.551 261.25 106.551 260.136V255.364H105.378V260.216C105.378 262.165 106.412 263.099 107.844 263.099C108.997 263.099 109.753 262.483 110.111 261.707H110.19V263H111.364V255.364H110.19V259.878ZM114.407 252.818H113.293V253.733C113.293 254.469 112.935 255.105 112.517 255.702L113.154 256.219C113.949 255.582 114.407 254.528 114.407 253.713V252.818ZM117.195 252.818H116.022V263H117.195V252.818ZM120.377 252.818H119.204V263H120.377V252.818ZM129.266 266.023C131.096 266.023 132.567 265.188 132.567 263.219V255.364H131.434V256.577H131.314C131.056 256.179 130.579 255.264 129.087 255.264C127.158 255.264 125.826 256.795 125.826 259.142C125.826 261.528 127.218 262.881 129.067 262.881C130.559 262.881 131.036 262.006 131.295 261.588H131.394V263.139C131.394 264.412 130.499 264.989 129.266 264.989C127.879 264.989 127.392 264.258 127.079 263.835L126.144 264.491C126.621 265.292 127.561 266.023 129.266 266.023ZM129.226 261.827C127.755 261.827 126.999 260.713 126.999 259.122C126.999 257.571 127.735 256.318 129.226 256.318C130.658 256.318 131.414 257.472 131.414 259.122C131.414 260.812 130.638 261.827 129.226 261.827ZM137.777 263.159C139.328 263.159 140.461 262.384 140.819 261.23L139.686 260.912C139.387 261.707 138.696 262.105 137.777 262.105C136.4 262.105 135.45 261.215 135.395 259.58H140.939V259.082C140.939 256.239 139.248 255.264 137.657 255.264C135.589 255.264 134.217 256.895 134.217 259.241C134.217 261.588 135.569 263.159 137.777 263.159ZM135.395 258.565C135.475 257.377 136.315 256.318 137.657 256.318C138.93 256.318 139.745 257.273 139.745 258.565H135.395ZM145.904 255.364H144.274V253.534H143.1V255.364H141.947V256.358H143.1V261.131C143.1 262.463 144.174 263.099 145.169 263.099C145.606 263.099 145.885 263.02 146.044 262.96L145.805 261.906C145.706 261.926 145.546 261.966 145.288 261.966C144.771 261.966 144.274 261.807 144.274 260.812V256.358H145.904V255.364ZM153.574 263.179C154.906 263.179 155.602 262.463 155.841 261.966H155.901V263H157.074V257.969C157.074 255.543 155.225 255.264 154.25 255.264C153.097 255.264 151.784 255.662 151.188 257.054L152.301 257.452C152.56 256.895 153.171 256.298 154.29 256.298C155.369 256.298 155.901 256.87 155.901 257.849V257.889C155.901 258.456 155.324 258.406 153.932 258.585C152.515 258.769 150.969 259.082 150.969 260.832C150.969 262.324 152.122 263.179 153.574 263.179ZM153.753 262.125C152.818 262.125 152.142 261.707 152.142 260.892C152.142 259.997 152.958 259.719 153.872 259.599C154.369 259.54 155.702 259.401 155.901 259.162V260.236C155.901 261.19 155.145 262.125 153.753 262.125ZM168.6 255.364H169.793C169.739 253.827 168.322 252.679 166.353 252.679C164.404 252.679 162.873 253.812 162.873 255.523C162.873 256.895 163.867 257.71 165.458 258.168L166.711 258.526C167.785 258.824 168.739 259.202 168.739 260.216C168.739 261.33 167.666 262.065 166.254 262.065C165.041 262.065 163.967 261.528 163.867 260.375H162.595C162.714 262.045 164.066 263.179 166.254 263.179C168.6 263.179 169.933 261.886 169.933 260.236C169.933 258.327 168.123 257.71 167.069 257.432L166.035 257.153C165.279 256.955 164.066 256.557 164.066 255.463C164.066 254.489 164.961 253.773 166.313 253.773C167.546 253.773 168.481 254.359 168.6 255.364ZM174.862 263.159C176.414 263.159 177.547 262.384 177.905 261.23L176.772 260.912C176.473 261.707 175.782 262.105 174.862 262.105C173.485 262.105 172.536 261.215 172.481 259.58H178.024V259.082C178.024 256.239 176.334 255.264 174.743 255.264C172.675 255.264 171.303 256.895 171.303 259.241C171.303 261.588 172.655 263.159 174.862 263.159ZM172.481 258.565C172.561 257.377 173.401 256.318 174.743 256.318C176.016 256.318 176.831 257.273 176.831 258.565H172.481ZM182.771 263.159C184.462 263.159 185.575 262.125 185.774 260.773H184.601C184.382 261.608 183.686 262.105 182.771 262.105C181.379 262.105 180.485 260.952 180.485 259.182C180.485 257.452 181.399 256.318 182.771 256.318C183.806 256.318 184.422 256.955 184.601 257.651H185.774C185.575 256.219 184.362 255.264 182.752 255.264C180.683 255.264 179.311 256.895 179.311 259.222C179.311 261.509 180.624 263.159 182.771 263.159ZM187.349 263H188.523V258.168C188.523 257.138 189.338 256.378 190.452 256.378C190.745 256.378 190.964 256.433 191.128 256.517L191.526 255.523C191.287 255.354 190.974 255.244 190.551 255.244C189.626 255.244 188.836 255.761 188.563 256.517H188.483V255.364H187.349V263ZM195.552 263.159C197.103 263.159 198.236 262.384 198.594 261.23L197.461 260.912C197.163 261.707 196.472 262.105 195.552 262.105C194.175 262.105 193.225 261.215 193.17 259.58H198.714V259.082C198.714 256.239 197.023 255.264 195.433 255.264C193.364 255.264 191.992 256.895 191.992 259.241C191.992 261.588 193.344 263.159 195.552 263.159ZM193.17 258.565C193.25 257.377 194.09 256.318 195.433 256.318C196.705 256.318 197.521 257.273 197.521 258.565H193.17ZM203.68 255.364H202.049V253.534H200.876V255.364H199.722V256.358H200.876V261.131C200.876 262.463 201.949 263.099 202.944 263.099C203.381 263.099 203.66 263.02 203.819 262.96L203.58 261.906C203.481 261.926 203.322 261.966 203.063 261.966C202.546 261.966 202.049 261.807 202.049 260.812V256.358H203.68V255.364ZM209.261 263H210.494V259.699L211.767 258.267L215.307 263H216.798L212.522 257.412L216.798 252.818H215.187L210.613 257.869H210.494V252.818H209.261V263ZM220.736 263.159C222.287 263.159 223.421 262.384 223.779 261.23L222.645 260.912C222.347 261.707 221.656 262.105 220.736 262.105C219.359 262.105 218.409 261.215 218.355 259.58H223.898V259.082C223.898 256.239 222.208 255.264 220.617 255.264C218.548 255.264 217.176 256.895 217.176 259.241C217.176 261.588 218.529 263.159 220.736 263.159ZM218.355 258.565C218.434 257.377 219.274 256.318 220.617 256.318C221.889 256.318 222.705 257.273 222.705 258.565H218.355ZM226.259 265.963C227.332 265.963 228.068 265.406 228.506 264.233L231.787 255.364H230.514L228.406 261.449H228.327L226.219 255.364H224.946L227.77 263.04L227.511 263.756C227.099 264.899 226.557 265.009 225.702 264.79L225.403 265.824C225.523 265.884 225.861 265.963 226.259 265.963ZM240.314 255.364H238.684V253.534H237.51V255.364H236.357V256.358H237.51V261.131C237.51 262.463 238.584 263.099 239.578 263.099C240.016 263.099 240.294 263.02 240.453 262.96L240.215 261.906C240.115 261.926 239.956 261.966 239.698 261.966C239.181 261.966 238.684 261.807 238.684 260.812V256.358H240.314V255.364ZM243.276 258.406C243.276 257.074 244.127 256.318 245.285 256.318C246.389 256.318 247.055 257.014 247.055 258.227V263H248.228V258.148C248.228 256.184 247.184 255.264 245.623 255.264C244.42 255.264 243.734 255.766 243.376 256.557H243.276V252.818H242.103V263H243.276V258.406ZM252.482 263.179C253.814 263.179 254.51 262.463 254.749 261.966H254.809V263H255.982V257.969C255.982 255.543 254.132 255.264 253.158 255.264C252.005 255.264 250.692 255.662 250.095 257.054L251.209 257.452C251.468 256.895 252.079 256.298 253.198 256.298C254.277 256.298 254.809 256.87 254.809 257.849V257.889C254.809 258.456 254.232 258.406 252.84 258.585C251.423 258.769 249.877 259.082 249.877 260.832C249.877 262.324 251.03 263.179 252.482 263.179ZM252.661 262.125C251.726 262.125 251.05 261.707 251.05 260.892C251.05 259.997 251.865 259.719 252.78 259.599C253.277 259.54 254.61 259.401 254.809 259.162V260.236C254.809 261.19 254.053 262.125 252.661 262.125ZM261.304 255.364H259.674V253.534H258.5V255.364H257.347V256.358H258.5V261.131C258.5 262.463 259.574 263.099 260.569 263.099C261.006 263.099 261.284 263.02 261.444 262.96L261.205 261.906C261.105 261.926 260.946 261.966 260.688 261.966C260.171 261.966 259.674 261.807 259.674 260.812V256.358H261.304V255.364ZM268.974 263.179C270.306 263.179 271.002 262.463 271.241 261.966H271.301V263H272.474V257.969C272.474 255.543 270.624 255.264 269.65 255.264C268.497 255.264 267.184 255.662 266.588 257.054L267.701 257.452C267.96 256.895 268.571 256.298 269.69 256.298C270.769 256.298 271.301 256.87 271.301 257.849V257.889C271.301 258.456 270.724 258.406 269.332 258.585C267.915 258.769 266.369 259.082 266.369 260.832C266.369 262.324 267.522 263.179 268.974 263.179ZM269.153 262.125C268.218 262.125 267.542 261.707 267.542 260.892C267.542 259.997 268.357 259.719 269.272 259.599C269.769 259.54 271.102 259.401 271.301 259.162V260.236C271.301 261.19 270.545 262.125 269.153 262.125ZM279.288 259.878C279.288 261.31 278.194 261.966 277.319 261.966C276.345 261.966 275.649 261.25 275.649 260.136V255.364H274.475V260.216C274.475 262.165 275.51 263.099 276.941 263.099C278.095 263.099 278.85 262.483 279.208 261.707H279.288V263H280.461V255.364H279.288V259.878ZM285.791 255.364H284.161V253.534H282.987V255.364H281.834V256.358H282.987V261.131C282.987 262.463 284.061 263.099 285.055 263.099C285.493 263.099 285.771 263.02 285.93 262.96L285.692 261.906C285.592 261.926 285.433 261.966 285.175 261.966C284.658 261.966 284.161 261.807 284.161 260.812V256.358H285.791V255.364ZM290.436 263.159C292.505 263.159 293.897 261.588 293.897 259.222C293.897 256.835 292.505 255.264 290.436 255.264C288.368 255.264 286.976 256.835 286.976 259.222C286.976 261.588 288.368 263.159 290.436 263.159ZM290.436 262.105C288.865 262.105 288.149 260.753 288.149 259.222C288.149 257.69 288.865 256.318 290.436 256.318C292.007 256.318 292.723 257.69 292.723 259.222C292.723 260.753 292.007 262.105 290.436 262.105ZM295.548 263H296.721V258.227C296.721 257.109 297.536 256.318 298.451 256.318C299.341 256.318 299.962 256.9 299.962 257.77V263H301.156V258.028C301.156 257.044 301.772 256.318 302.846 256.318C303.681 256.318 304.397 256.761 304.397 257.889V263H305.57V257.889C305.57 256.094 304.606 255.264 303.244 255.264C302.15 255.264 301.349 255.766 300.957 256.557H300.877C300.499 255.741 299.833 255.264 298.829 255.264C297.835 255.264 297.099 255.741 296.781 256.557H296.681V255.364H295.548V263ZM309.823 263.179C311.155 263.179 311.851 262.463 312.09 261.966H312.149V263H313.323V257.969C313.323 255.543 311.473 255.264 310.499 255.264C309.345 255.264 308.033 255.662 307.436 257.054L308.55 257.452C308.809 256.895 309.42 256.298 310.539 256.298C311.617 256.298 312.149 256.87 312.149 257.849V257.889C312.149 258.456 311.573 258.406 310.181 258.585C308.764 258.769 307.218 259.082 307.218 260.832C307.218 262.324 308.371 263.179 309.823 263.179ZM310.002 262.125C309.067 262.125 308.391 261.707 308.391 260.892C308.391 259.997 309.206 259.719 310.121 259.599C310.618 259.54 311.951 259.401 312.149 259.162V260.236C312.149 261.19 311.394 262.125 310.002 262.125ZM318.645 255.364H317.015V253.534H315.841V255.364H314.688V256.358H315.841V261.131C315.841 262.463 316.915 263.099 317.909 263.099C318.347 263.099 318.625 263.02 318.784 262.96L318.546 261.906C318.446 261.926 318.287 261.966 318.029 261.966C317.512 261.966 317.015 261.807 317.015 260.812V256.358H318.645V255.364ZM320.27 263H321.443V255.364H320.27V263ZM320.867 254.091C321.324 254.091 321.702 253.733 321.702 253.295C321.702 252.858 321.324 252.5 320.867 252.5C320.409 252.5 320.032 252.858 320.032 253.295C320.032 253.733 320.409 254.091 320.867 254.091ZM326.555 263.159C328.245 263.159 329.359 262.125 329.558 260.773H328.384C328.166 261.608 327.47 262.105 326.555 262.105C325.163 262.105 324.268 260.952 324.268 259.182C324.268 257.452 325.183 256.318 326.555 256.318C327.589 256.318 328.205 256.955 328.384 257.651H329.558C329.359 256.219 328.146 255.264 326.535 255.264C324.467 255.264 323.095 256.895 323.095 259.222C323.095 261.509 324.407 263.159 326.555 263.159ZM333.38 263.179C334.712 263.179 335.408 262.463 335.647 261.966H335.707V263H336.88V257.969C336.88 255.543 335.03 255.264 334.056 255.264C332.903 255.264 331.59 255.662 330.994 257.054L332.107 257.452C332.366 256.895 332.977 256.298 334.096 256.298C335.175 256.298 335.707 256.87 335.707 257.849V257.889C335.707 258.456 335.13 258.406 333.738 258.585C332.321 258.769 330.775 259.082 330.775 260.832C330.775 262.324 331.928 263.179 333.38 263.179ZM333.559 262.125C332.624 262.125 331.948 261.707 331.948 260.892C331.948 259.997 332.763 259.719 333.678 259.599C334.175 259.54 335.508 259.401 335.707 259.162V260.236C335.707 261.19 334.951 262.125 333.559 262.125ZM340.055 252.818H338.881V263H340.055V252.818ZM343.237 252.818H342.064V263H343.237V252.818ZM345.962 265.963C347.036 265.963 347.772 265.406 348.209 264.233L351.49 255.364H350.218L348.11 261.449H348.03L345.922 255.364H344.649L347.473 263.04L347.215 263.756C346.802 264.899 346.26 265.009 345.405 264.79L345.107 265.824C345.226 265.884 345.564 265.963 345.962 265.963ZM92.2756 283.159C93.8267 283.159 94.9602 282.384 95.3182 281.23L94.1847 280.912C93.8864 281.707 93.1953 282.105 92.2756 282.105C90.8984 282.105 89.9489 281.215 89.8942 279.58H95.4375V279.082C95.4375 276.239 93.7472 275.264 92.1562 275.264C90.0881 275.264 88.7159 276.895 88.7159 279.241C88.7159 281.588 90.0682 283.159 92.2756 283.159ZM89.8942 278.565C89.9737 277.377 90.8139 276.318 92.1562 276.318C93.429 276.318 94.2443 277.273 94.2443 278.565H89.8942ZM98.2556 278.406C98.2556 277.074 99.0809 276.318 100.204 276.318C101.293 276.318 101.954 277.029 101.954 278.227V283H103.128V278.148C103.128 276.199 102.089 275.264 100.543 275.264C99.3891 275.264 98.6732 275.781 98.3153 276.557H98.2158V275.364H97.0823V283H98.2556V278.406ZM108.234 283.159C109.924 283.159 111.038 282.125 111.237 280.773H110.064C109.845 281.608 109.149 282.105 108.234 282.105C106.842 282.105 105.947 280.952 105.947 279.182C105.947 277.452 106.862 276.318 108.234 276.318C109.268 276.318 109.885 276.955 110.064 277.651H111.237C111.038 276.219 109.825 275.264 108.214 275.264C106.146 275.264 104.774 276.895 104.774 279.222C104.774 281.509 106.086 283.159 108.234 283.159ZM112.812 283H113.985V278.168C113.985 277.134 114.801 276.378 115.914 276.378C116.228 276.378 116.551 276.438 116.63 276.457V275.264C116.496 275.254 116.188 275.244 116.014 275.244C115.099 275.244 114.304 275.761 114.025 276.517H113.946V275.364H112.812V283ZM118.829 285.963C119.903 285.963 120.639 285.406 121.077 284.233L124.358 275.364H123.085L120.977 281.449H120.898L118.79 275.364H117.517L120.341 283.04L120.082 283.756C119.67 284.899 119.128 285.009 118.273 284.79L117.974 285.824C118.094 285.884 118.432 285.963 118.829 285.963ZM125.766 285.864H126.94V281.827H127.039C127.298 282.244 127.795 283.159 129.266 283.159C131.176 283.159 132.508 281.628 132.508 279.202C132.508 276.795 131.176 275.264 129.247 275.264C127.755 275.264 127.298 276.179 127.039 276.577H126.9V275.364H125.766V285.864ZM126.92 279.182C126.92 277.472 127.676 276.318 129.107 276.318C130.599 276.318 131.335 277.571 131.335 279.182C131.335 280.812 130.579 282.105 129.107 282.105C127.695 282.105 126.92 280.912 126.92 279.182ZM137.479 275.364H135.848V273.534H134.675V275.364H133.521V276.358H134.675V281.131C134.675 282.463 135.749 283.099 136.743 283.099C137.18 283.099 137.459 283.02 137.618 282.96L137.379 281.906C137.28 281.926 137.121 281.966 136.862 281.966C136.345 281.966 135.848 281.807 135.848 280.812V276.358H137.479V275.364ZM144.376 277.074C144.008 275.99 143.183 275.264 141.671 275.264C140.061 275.264 138.867 276.179 138.867 277.472C138.867 278.526 139.494 279.232 140.896 279.56L142.169 279.858C142.939 280.037 143.302 280.405 143.302 280.932C143.302 281.588 142.606 282.125 141.512 282.125C140.553 282.125 139.951 281.712 139.742 280.892L138.629 281.17C138.902 282.468 139.971 283.159 141.532 283.159C143.307 283.159 144.515 282.19 144.515 280.872C144.515 279.808 143.849 279.137 142.487 278.804L141.353 278.526C140.448 278.302 140.041 277.999 140.041 277.412C140.041 276.756 140.737 276.278 141.671 276.278C142.696 276.278 143.118 276.845 143.322 277.372L144.376 277.074ZM153.141 283.159C154.692 283.159 155.825 282.384 156.183 281.23L155.05 280.912C154.751 281.707 154.06 282.105 153.141 282.105C151.763 282.105 150.814 281.215 150.759 279.58H156.303V279.082C156.303 276.239 154.612 275.264 153.021 275.264C150.953 275.264 149.581 276.895 149.581 279.241C149.581 281.588 150.933 283.159 153.141 283.159ZM150.759 278.565C150.839 277.377 151.679 276.318 153.021 276.318C154.294 276.318 155.109 277.273 155.109 278.565H150.759ZM164.192 275.364H162.919L160.811 281.449H160.731L158.623 275.364H157.351L160.175 283H161.368L164.192 275.364ZM168.529 283.159C170.08 283.159 171.213 282.384 171.571 281.23L170.438 280.912C170.139 281.707 169.448 282.105 168.529 282.105C167.151 282.105 166.202 281.215 166.147 279.58H171.69V279.082C171.69 276.239 170 275.264 168.409 275.264C166.341 275.264 164.969 276.895 164.969 279.241C164.969 281.588 166.321 283.159 168.529 283.159ZM166.147 278.565C166.227 277.377 167.067 276.318 168.409 276.318C169.682 276.318 170.497 277.273 170.497 278.565H166.147ZM173.335 283H174.509V278.168C174.509 277.134 175.324 276.378 176.438 276.378C176.751 276.378 177.074 276.438 177.153 276.457V275.264C177.019 275.254 176.711 275.244 176.537 275.244C175.622 275.244 174.827 275.761 174.548 276.517H174.469V275.364H173.335V283ZM179.353 285.963C180.426 285.963 181.162 285.406 181.6 284.233L184.881 275.364H183.608L181.5 281.449H181.421L179.313 275.364H178.04L180.864 283.04L180.605 283.756C180.193 284.899 179.651 285.009 178.796 284.79L178.497 285.824C178.617 285.884 178.955 285.963 179.353 285.963ZM189.611 275.364H187.98V273.534H186.807V275.364H185.653V276.358H186.807V281.131C186.807 282.463 187.881 283.099 188.875 283.099C189.312 283.099 189.591 283.02 189.75 282.96L189.511 281.906C189.412 281.926 189.253 281.966 188.994 281.966C188.477 281.966 187.98 281.807 187.98 280.812V276.358H189.611V275.364ZM192.573 278.406C192.573 277.074 193.423 276.318 194.581 276.318C195.685 276.318 196.351 277.014 196.351 278.227V283H197.525V278.148C197.525 276.184 196.481 275.264 194.92 275.264C193.716 275.264 193.03 275.766 192.672 276.557H192.573V272.818H191.4V283H192.573V278.406ZM199.531 283H200.704V275.364H199.531V283ZM200.128 274.091C200.585 274.091 200.963 273.733 200.963 273.295C200.963 272.858 200.585 272.5 200.128 272.5C199.67 272.5 199.292 272.858 199.292 273.295C199.292 273.733 199.67 274.091 200.128 274.091ZM203.887 278.406C203.887 277.074 204.712 276.318 205.836 276.318C206.924 276.318 207.586 277.029 207.586 278.227V283H208.759V278.148C208.759 276.199 207.72 275.264 206.174 275.264C205.02 275.264 204.304 275.781 203.946 276.557H203.847V275.364H202.713V283H203.887V278.406ZM213.845 286.023C215.675 286.023 217.146 285.188 217.146 283.219V275.364H216.013V276.577H215.894C215.635 276.179 215.158 275.264 213.666 275.264C211.737 275.264 210.405 276.795 210.405 279.142C210.405 281.528 211.797 282.881 213.646 282.881C215.138 282.881 215.615 282.006 215.874 281.588H215.973V283.139C215.973 284.412 215.078 284.989 213.845 284.989C212.458 284.989 211.971 284.258 211.658 283.835L210.723 284.491C211.2 285.292 212.14 286.023 213.845 286.023ZM213.805 281.827C212.334 281.827 211.578 280.713 211.578 279.122C211.578 277.571 212.314 276.318 213.805 276.318C215.237 276.318 215.993 277.472 215.993 279.122C215.993 280.812 215.217 281.827 213.805 281.827ZM223.668 285.963C224.741 285.963 225.477 285.406 225.915 284.233L229.196 275.364H227.923L225.815 281.449H225.736L223.628 275.364H222.355L225.179 283.04L224.92 283.756C224.508 284.899 223.966 285.009 223.111 284.79L222.812 285.824C222.932 285.884 223.27 285.963 223.668 285.963ZM233.433 283.159C235.502 283.159 236.894 281.588 236.894 279.222C236.894 276.835 235.502 275.264 233.433 275.264C231.365 275.264 229.973 276.835 229.973 279.222C229.973 281.588 231.365 283.159 233.433 283.159ZM233.433 282.105C231.862 282.105 231.146 280.753 231.146 279.222C231.146 277.69 231.862 276.318 233.433 276.318C235.004 276.318 235.72 277.69 235.72 279.222C235.72 280.753 235.004 282.105 233.433 282.105ZM243.357 279.878C243.357 281.31 242.263 281.966 241.388 281.966C240.414 281.966 239.718 281.25 239.718 280.136V275.364H238.545V280.216C238.545 282.165 239.579 283.099 241.011 283.099C242.164 283.099 242.92 282.483 243.278 281.707H243.357V283H244.53V275.364H243.357V279.878ZM253.22 283.159C254.692 283.159 255.189 282.244 255.448 281.827H255.587V283H256.72V272.818H255.547V276.577H255.448C255.189 276.179 254.732 275.264 253.24 275.264C251.311 275.264 249.979 276.795 249.979 279.202C249.979 281.628 251.311 283.159 253.22 283.159ZM253.38 282.105C251.908 282.105 251.152 280.812 251.152 279.182C251.152 277.571 251.888 276.318 253.38 276.318C254.811 276.318 255.567 277.472 255.567 279.182C255.567 280.912 254.791 282.105 253.38 282.105ZM261.994 283.159C264.063 283.159 265.455 281.588 265.455 279.222C265.455 276.835 264.063 275.264 261.994 275.264C259.926 275.264 258.534 276.835 258.534 279.222C258.534 281.588 259.926 283.159 261.994 283.159ZM261.994 282.105C260.423 282.105 259.708 280.753 259.708 279.222C259.708 277.69 260.423 276.318 261.994 276.318C263.566 276.318 264.281 277.69 264.281 279.222C264.281 280.753 263.566 282.105 261.994 282.105Z" fill="#222933"/>
<path d="M66.5455 260.571H65.7273V258C65.7273 256.409 65.1239 254.883 64.0498 253.757C62.9757 252.632 61.519 252 60 252C58.481 252 57.0243 252.632 55.9502 253.757C54.8761 254.883 54.2727 256.409 54.2727 258V260.571H53.4545C52.8038 260.572 52.1799 260.843 51.7197 261.325C51.2595 261.807 51.0007 262.461 51 263.143V273.429C51.0007 274.11 51.2595 274.764 51.7197 275.246C52.1799 275.728 52.8038 275.999 53.4545 276H66.5455C67.1962 275.999 67.8201 275.728 68.2803 275.246C68.7405 274.764 68.9993 274.11 69 273.429V263.143C68.9993 262.461 68.7405 261.807 68.2803 261.325C67.8201 260.843 67.1962 260.572 66.5455 260.571ZM55.9091 258C55.9091 256.863 56.3401 255.773 57.1073 254.97C57.8745 254.166 58.915 253.714 60 253.714C61.085 253.714 62.1255 254.166 62.8927 254.97C63.6599 255.773 64.0909 256.863 64.0909 258V260.571H55.9091V258Z" fill="#5548FF"/>
<path d="M52.255 178H54.495V168.38L58.515 178H60.335L64.335 168.38V178H66.575V164H63.875L59.415 174.64L54.955 164H52.255V178ZM78.5653 172.58C78.5653 170.12 76.8453 167.76 73.6053 167.76C70.4053 167.76 68.6853 170.24 68.6853 172.96C68.6853 175.68 70.5053 178.16 73.7053 178.16C76.0653 178.16 77.7853 177.04 78.3253 175.1L76.2653 174.58C76.0053 175.68 75.0653 176.3 73.7453 176.3C72.1453 176.3 71.0253 175.22 70.8253 173.48H78.5253C78.5453 173.3 78.5653 172.88 78.5653 172.58ZM70.9253 171.82C71.2453 170.32 72.2253 169.48 73.6053 169.48C75.2053 169.48 76.1053 170.46 76.2453 171.82H70.9253ZM83.9748 178.16C86.2548 178.16 87.7748 176.82 87.7748 175.08C87.7748 170.94 82.1148 172.42 82.1148 170.48C82.1148 169.82 82.7148 169.44 83.6748 169.44C84.5948 169.44 85.5348 170 85.7948 171L87.5948 170.24C87.1548 168.76 85.5548 167.76 83.6548 167.76C81.4748 167.76 80.0948 168.94 80.0948 170.52C80.0948 174.34 85.7148 172.92 85.7148 175.1C85.7148 175.82 85.0148 176.42 83.9748 176.42C82.5748 176.42 81.7948 175.52 81.4548 174.44L79.6548 175.2C80.1148 176.64 81.5148 178.16 83.9748 178.16ZM93.2131 178.16C95.4931 178.16 97.0131 176.82 97.0131 175.08C97.0131 170.94 91.3531 172.42 91.3531 170.48C91.3531 169.82 91.9531 169.44 92.9131 169.44C93.8331 169.44 94.7731 170 95.0331 171L96.8331 170.24C96.3931 168.76 94.7931 167.76 92.8931 167.76C90.7131 167.76 89.3331 168.94 89.3331 170.52C89.3331 174.34 94.9531 172.92 94.9531 175.1C94.9531 175.82 94.2531 176.42 93.2131 176.42C91.8131 176.42 91.0331 175.52 90.6931 174.44L88.8931 175.2C89.3531 176.64 90.7531 178.16 93.2131 178.16ZM108.253 172.58C108.253 170.12 106.533 167.76 103.293 167.76C100.093 167.76 98.3728 170.24 98.3728 172.96C98.3728 175.68 100.193 178.16 103.393 178.16C105.753 178.16 107.473 177.04 108.013 175.1L105.953 174.58C105.693 175.68 104.753 176.3 103.433 176.3C101.833 176.3 100.713 175.22 100.513 173.48H108.213C108.233 173.3 108.253 172.88 108.253 172.58ZM100.613 171.82C100.933 170.32 101.913 169.48 103.293 169.48C104.893 169.48 105.793 170.46 105.933 171.82H100.613ZM110.28 178H112.46V173.58C112.46 171.16 113.48 169.72 115.18 169.72C116.46 169.72 117.24 170.6 117.24 171.86V178H119.42V171.36C119.42 169.18 117.92 167.76 115.78 167.76C114.3 167.76 113.14 168.52 112.46 169.6V167.92H110.28V178ZM129.139 167.92V169.08C128.559 168.3 127.399 167.76 126.119 167.76C123.159 167.76 121.439 169.82 121.439 172.74C121.439 175.66 123.159 177.72 126.159 177.72C127.479 177.72 128.659 177.2 129.159 176.44V177.66C129.159 179.06 128.039 180.02 126.419 180.02C125.099 180.02 124.039 179.36 123.919 178.36L121.879 178.7C122.199 180.54 124.059 181.8 126.419 181.8C129.319 181.8 131.299 180.04 131.299 177.44V167.92H129.139ZM126.459 175.82C124.739 175.82 123.619 174.6 123.619 172.74C123.619 170.88 124.739 169.66 126.459 169.66C128.159 169.66 129.279 170.88 129.279 172.74C129.279 174.6 128.159 175.82 126.459 175.82ZM143.194 172.58C143.194 170.12 141.474 167.76 138.234 167.76C135.034 167.76 133.314 170.24 133.314 172.96C133.314 175.68 135.134 178.16 138.334 178.16C140.694 178.16 142.414 177.04 142.954 175.1L140.894 174.58C140.634 175.68 139.694 176.3 138.374 176.3C136.774 176.3 135.654 175.22 135.454 173.48H143.154C143.174 173.3 143.194 172.88 143.194 172.58ZM135.554 171.82C135.874 170.32 136.854 169.48 138.234 169.48C139.834 169.48 140.734 170.46 140.874 171.82H135.554ZM151.481 170.04L151.601 167.94C151.301 167.82 150.861 167.76 150.481 167.76C149.261 167.76 147.941 168.64 147.401 169.84V167.92H145.221V178H147.401V174.24C147.401 171.12 148.701 169.8 150.181 169.8C150.641 169.8 151.121 169.88 151.481 170.04ZM165.116 167.92V169.08C164.536 168.3 163.376 167.76 162.096 167.76C159.136 167.76 157.416 169.82 157.416 172.74C157.416 175.66 159.136 177.72 162.136 177.72C163.456 177.72 164.636 177.2 165.136 176.44V177.66C165.136 179.06 164.016 180.02 162.396 180.02C161.076 180.02 160.016 179.36 159.896 178.36L157.856 178.7C158.176 180.54 160.036 181.8 162.396 181.8C165.296 181.8 167.276 180.04 167.276 177.44V167.92H165.116ZM162.436 175.82C160.716 175.82 159.596 174.6 159.596 172.74C159.596 170.88 160.716 169.66 162.436 169.66C164.136 169.66 165.256 170.88 165.256 172.74C165.256 174.6 164.136 175.82 162.436 175.82ZM178.971 167.92H176.791V172.34C176.791 174.76 175.771 176.2 174.091 176.2C172.811 176.2 172.011 175.32 172.011 174.06V167.92H169.831V174.56C169.831 176.74 171.331 178.16 173.491 178.16C174.951 178.16 176.131 177.4 176.791 176.32V178H178.971V167.92ZM185.39 167.76C183.25 167.76 181.53 169.06 181.21 171.04L183.17 171.4C183.31 170.2 184.17 169.48 185.39 169.48C186.71 169.48 187.57 170.24 187.57 171.48V171.62L185.67 171.82C182.57 172.14 181.03 173.2 181.03 175.18C181.03 176.9 182.41 178.16 184.41 178.16C185.75 178.16 186.99 177.48 187.57 176.46V178H189.71V171.72C189.71 169.2 187.95 167.76 185.39 167.76ZM184.85 176.48C183.83 176.48 183.17 175.92 183.17 175.12C183.17 174.24 184.01 173.64 185.65 173.46L187.57 173.24V173.66C187.55 175.3 186.55 176.48 184.85 176.48ZM198.532 170.04L198.652 167.94C198.352 167.82 197.912 167.76 197.532 167.76C196.312 167.76 194.992 168.64 194.452 169.84V167.92H192.272V178H194.452V174.24C194.452 171.12 195.752 169.8 197.232 169.8C197.692 169.8 198.172 169.88 198.532 170.04ZM203.729 167.76C201.589 167.76 199.869 169.06 199.549 171.04L201.509 171.4C201.649 170.2 202.509 169.48 203.729 169.48C205.049 169.48 205.909 170.24 205.909 171.48V171.62L204.009 171.82C200.909 172.14 199.369 173.2 199.369 175.18C199.369 176.9 200.749 178.16 202.749 178.16C204.089 178.16 205.329 177.48 205.909 176.46V178H208.049V171.72C208.049 169.2 206.289 167.76 203.729 167.76ZM203.189 176.48C202.169 176.48 201.509 175.92 201.509 175.12C201.509 174.24 202.349 173.64 203.989 173.46L205.909 173.24V173.66C205.889 175.3 204.889 176.48 203.189 176.48ZM210.612 178H212.792V173.58C212.792 171.16 213.812 169.72 215.512 169.72C216.792 169.72 217.572 170.6 217.572 171.86V178H219.752V171.36C219.752 169.18 218.252 167.76 216.112 167.76C214.632 167.76 213.472 168.52 212.792 169.6V167.92H210.612V178ZM227.68 177.92L227.54 175.98C227.16 176.16 226.7 176.22 226.32 176.22C225.5 176.22 224.94 175.7 224.94 174.7V169.78H227.54V167.92H224.94V164.92H222.76V167.92H221V169.78H222.76V174.82C222.76 177.12 224.18 178.16 226.08 178.16C226.64 178.16 227.2 178.08 227.68 177.92ZM238.643 172.58C238.643 170.12 236.923 167.76 233.683 167.76C230.483 167.76 228.763 170.24 228.763 172.96C228.763 175.68 230.583 178.16 233.783 178.16C236.143 178.16 237.863 177.04 238.403 175.1L236.343 174.58C236.083 175.68 235.143 176.3 233.823 176.3C232.223 176.3 231.103 175.22 230.903 173.48H238.603C238.623 173.3 238.643 172.88 238.643 172.58ZM231.003 171.82C231.323 170.32 232.303 169.48 233.683 169.48C235.283 169.48 236.183 170.46 236.323 171.82H231.003ZM250.011 172.58C250.011 170.12 248.291 167.76 245.051 167.76C241.851 167.76 240.131 170.24 240.131 172.96C240.131 175.68 241.951 178.16 245.151 178.16C247.511 178.16 249.231 177.04 249.771 175.1L247.711 174.58C247.451 175.68 246.511 176.3 245.191 176.3C243.591 176.3 242.471 175.22 242.271 173.48H249.971C249.991 173.3 250.011 172.88 250.011 172.58ZM242.371 171.82C242.691 170.32 243.671 169.48 245.051 169.48C246.651 169.48 247.551 170.46 247.691 171.82H242.371ZM255.42 178.16C257.7 178.16 259.22 176.82 259.22 175.08C259.22 170.94 253.56 172.42 253.56 170.48C253.56 169.82 254.16 169.44 255.12 169.44C256.04 169.44 256.98 170 257.24 171L259.04 170.24C258.6 168.76 257 167.76 255.1 167.76C252.92 167.76 251.54 168.94 251.54 170.52C251.54 174.34 257.16 172.92 257.16 175.1C257.16 175.82 256.46 176.42 255.42 176.42C254.02 176.42 253.24 175.52 252.9 174.44L251.1 175.2C251.56 176.64 252.96 178.16 255.42 178.16ZM272.603 167.92L269.903 174.9L267.263 167.92H264.903L268.823 177.7L267.303 181.64H269.543L274.843 167.92H272.603ZM280.585 178.16C283.605 178.16 285.785 175.98 285.785 172.96C285.785 169.94 283.605 167.76 280.585 167.76C277.545 167.76 275.385 169.94 275.385 172.96C275.385 175.98 277.545 178.16 280.585 178.16ZM280.585 176.26C278.785 176.26 277.585 174.9 277.585 172.96C277.585 171.02 278.785 169.66 280.585 169.66C282.365 169.66 283.585 171.02 283.585 172.96C283.585 174.9 282.365 176.26 280.585 176.26ZM296.94 167.92H294.76V172.34C294.76 174.76 293.74 176.2 292.06 176.2C290.78 176.2 289.98 175.32 289.98 174.06V167.92H287.8V174.56C287.8 176.74 289.3 178.16 291.46 178.16C292.92 178.16 294.1 177.4 294.76 176.32V178H296.94V167.92ZM305.778 170.04L305.898 167.94C305.598 167.82 305.158 167.76 304.778 167.76C303.558 167.76 302.238 168.64 301.698 169.84V167.92H299.518V178H301.698V174.24C301.698 171.12 302.998 169.8 304.478 169.8C304.938 169.8 305.418 169.88 305.778 170.04ZM312.253 181.64H314.433V176.84C315.053 177.64 316.233 178.16 317.453 178.16C320.473 178.16 322.313 176 322.313 172.96C322.313 169.92 320.553 167.76 317.573 167.76C316.173 167.76 314.993 168.38 314.433 169.2V167.92H312.253V181.64ZM317.213 176.26C315.453 176.26 314.293 174.94 314.293 172.96C314.293 170.96 315.453 169.66 317.213 169.66C318.973 169.66 320.133 170.96 320.133 172.96C320.133 174.94 318.973 176.26 317.213 176.26ZM330.583 170.04L330.703 167.94C330.403 167.82 329.963 167.76 329.583 167.76C328.363 167.76 327.043 168.64 326.503 169.84V167.92H324.323V178H326.503V174.24C326.503 171.12 327.803 169.8 329.283 169.8C329.743 169.8 330.223 169.88 330.583 170.04ZM333.333 166.24C334.153 166.24 334.773 165.62 334.773 164.84C334.773 164.04 334.153 163.42 333.333 163.42C332.533 163.42 331.933 164.04 331.933 164.84C331.933 165.62 332.533 166.24 333.333 166.24ZM332.253 178H334.433V167.92H332.253V178ZM339.618 178H341.718L345.398 167.92H343.158L340.658 175.46L338.158 167.92H335.938L339.618 178ZM350.409 167.76C348.269 167.76 346.549 169.06 346.229 171.04L348.189 171.4C348.329 170.2 349.189 169.48 350.409 169.48C351.729 169.48 352.589 170.24 352.589 171.48V171.62L350.689 171.82C347.589 172.14 346.049 173.2 346.049 175.18C346.049 176.9 347.429 178.16 349.429 178.16C350.769 178.16 352.009 177.48 352.589 176.46V178H354.729V171.72C354.729 169.2 352.969 167.76 350.409 167.76ZM349.869 176.48C348.849 176.48 348.189 175.92 348.189 175.12C348.189 174.24 349.029 173.64 350.669 173.46L352.589 173.24V173.66C352.569 175.3 351.569 176.48 349.869 176.48ZM361.812 178.16C364.272 178.16 366.012 176.9 366.432 174.8L364.292 174.38C364.052 175.56 363.152 176.26 361.872 176.26C360.152 176.26 359.012 174.96 359.012 172.96C359.012 170.96 360.132 169.66 361.872 169.66C363.152 169.66 364.092 170.44 364.292 171.58L366.412 171.16C366.072 169.08 364.292 167.76 361.812 167.76C358.792 167.76 356.752 169.86 356.752 172.96C356.752 176.06 358.792 178.16 361.812 178.16ZM374.693 167.92L371.993 174.9L369.353 167.92H366.993L370.913 177.7L369.393 181.64H371.633L376.933 167.92H374.693ZM105.51 206.16C108.59 206.16 110.33 204 110.33 200.96C110.33 197.92 108.59 195.76 105.55 195.76C104.25 195.76 103.07 196.34 102.47 197.18V191.84H100.29V206H102.47V204.72C102.95 205.56 104.17 206.16 105.51 206.16ZM105.23 204.26C103.47 204.26 102.31 202.94 102.31 200.96C102.31 198.96 103.47 197.66 105.23 197.66C106.99 197.66 108.15 198.96 108.15 200.96C108.15 202.94 106.99 204.26 105.23 204.26ZM118.57 195.92L115.87 202.9L113.23 195.92H110.87L114.79 205.7L113.27 209.64H115.51L120.81 195.92H118.57ZM136.427 200.58C136.427 198.12 134.707 195.76 131.467 195.76C128.267 195.76 126.547 198.24 126.547 200.96C126.547 203.68 128.367 206.16 131.567 206.16C133.927 206.16 135.647 205.04 136.187 203.1L134.127 202.58C133.867 203.68 132.927 204.3 131.607 204.3C130.007 204.3 128.887 203.22 128.687 201.48H136.387C136.407 201.3 136.427 200.88 136.427 200.58ZM128.787 199.82C129.107 198.32 130.087 197.48 131.467 197.48C133.067 197.48 133.967 198.46 134.107 199.82H128.787ZM138.454 206H140.634V201.58C140.634 199.16 141.654 197.72 143.354 197.72C144.634 197.72 145.414 198.6 145.414 199.86V206H147.594V199.36C147.594 197.18 146.094 195.76 143.954 195.76C142.474 195.76 141.314 196.52 140.634 197.6V195.92H138.454V206ZM154.673 206.16C157.133 206.16 158.873 204.9 159.293 202.8L157.153 202.38C156.913 203.56 156.013 204.26 154.733 204.26C153.013 204.26 151.873 202.96 151.873 200.96C151.873 198.96 152.993 197.66 154.733 197.66C156.013 197.66 156.953 198.44 157.153 199.58L159.273 199.16C158.933 197.08 157.153 195.76 154.673 195.76C151.653 195.76 149.613 197.86 149.613 200.96C149.613 204.06 151.653 206.16 154.673 206.16ZM167.526 198.04L167.646 195.94C167.346 195.82 166.906 195.76 166.526 195.76C165.306 195.76 163.986 196.64 163.446 197.84V195.92H161.266V206H163.446V202.24C163.446 199.12 164.746 197.8 166.226 197.8C166.686 197.8 167.166 197.88 167.526 198.04ZM175.816 195.92L173.116 202.9L170.476 195.92H168.116L172.036 205.7L170.516 209.64H172.756L178.056 195.92H175.816ZM179.528 209.64H181.708V204.84C182.328 205.64 183.508 206.16 184.728 206.16C187.748 206.16 189.588 204 189.588 200.96C189.588 197.92 187.828 195.76 184.848 195.76C183.448 195.76 182.268 196.38 181.708 197.2V195.92H179.528V209.64ZM184.488 204.26C182.728 204.26 181.568 202.94 181.568 200.96C181.568 198.96 182.728 197.66 184.488 197.66C186.248 197.66 187.408 198.96 187.408 200.96C187.408 202.94 186.248 204.26 184.488 204.26ZM197.162 205.92L197.022 203.98C196.642 204.16 196.182 204.22 195.802 204.22C194.982 204.22 194.422 203.7 194.422 202.7V197.78H197.022V195.92H194.422V192.92H192.242V195.92H190.482V197.78H192.242V202.82C192.242 205.12 193.662 206.16 195.562 206.16C196.122 206.16 196.682 206.08 197.162 205.92ZM200.081 194.24C200.901 194.24 201.521 193.62 201.521 192.84C201.521 192.04 200.901 191.42 200.081 191.42C199.281 191.42 198.681 192.04 198.681 192.84C198.681 193.62 199.281 194.24 200.081 194.24ZM199.001 206H201.181V195.92H199.001V206ZM203.766 206H205.946V201.58C205.946 199.16 206.966 197.72 208.666 197.72C209.946 197.72 210.726 198.6 210.726 199.86V206H212.906V199.36C212.906 197.18 211.406 195.76 209.266 195.76C207.786 195.76 206.626 196.52 205.946 197.6V195.92H203.766V206ZM222.626 195.92V197.08C222.046 196.3 220.886 195.76 219.606 195.76C216.646 195.76 214.926 197.82 214.926 200.74C214.926 203.66 216.646 205.72 219.646 205.72C220.966 205.72 222.146 205.2 222.646 204.44V205.66C222.646 207.06 221.526 208.02 219.906 208.02C218.586 208.02 217.526 207.36 217.406 206.36L215.366 206.7C215.686 208.54 217.546 209.8 219.906 209.8C222.806 209.8 224.786 208.04 224.786 205.44V195.92H222.626ZM219.946 203.82C218.226 203.82 217.106 202.6 217.106 200.74C217.106 198.88 218.226 197.66 219.946 197.66C221.646 197.66 222.766 198.88 222.766 200.74C222.766 202.6 221.646 203.82 219.946 203.82ZM241.485 200.58C241.485 198.12 239.765 195.76 236.525 195.76C233.325 195.76 231.605 198.24 231.605 200.96C231.605 203.68 233.425 206.16 236.625 206.16C238.985 206.16 240.705 205.04 241.245 203.1L239.185 202.58C238.925 203.68 237.985 204.3 236.665 204.3C235.065 204.3 233.945 203.22 233.745 201.48H241.445C241.465 201.3 241.485 200.88 241.485 200.58ZM233.845 199.82C234.165 198.32 235.145 197.48 236.525 197.48C238.125 197.48 239.025 198.46 239.165 199.82H233.845ZM245.722 206H247.822L251.502 195.92H249.262L246.762 203.46L244.262 195.92H242.042L245.722 206ZM261.934 200.58C261.934 198.12 260.214 195.76 256.974 195.76C253.774 195.76 252.054 198.24 252.054 200.96C252.054 203.68 253.874 206.16 257.074 206.16C259.434 206.16 261.154 205.04 261.694 203.1L259.634 202.58C259.374 203.68 258.434 204.3 257.114 204.3C255.514 204.3 254.394 203.22 254.194 201.48H261.894C261.914 201.3 261.934 200.88 261.934 200.58ZM254.294 199.82C254.614 198.32 255.594 197.48 256.974 197.48C258.574 197.48 259.474 198.46 259.614 199.82H254.294ZM270.222 198.04L270.342 195.94C270.042 195.82 269.602 195.76 269.222 195.76C268.002 195.76 266.682 196.64 266.142 197.84V195.92H263.962V206H266.142V202.24C266.142 199.12 267.442 197.8 268.922 197.8C269.382 197.8 269.862 197.88 270.222 198.04ZM278.511 195.92L275.811 202.9L273.171 195.92H270.811L274.731 205.7L273.211 209.64H275.451L280.751 195.92H278.511ZM287.943 205.92L287.803 203.98C287.423 204.16 286.963 204.22 286.583 204.22C285.763 204.22 285.203 203.7 285.203 202.7V197.78H287.803V195.92H285.203V192.92H283.023V195.92H281.263V197.78H283.023V202.82C283.023 205.12 284.443 206.16 286.343 206.16C286.903 206.16 287.463 206.08 287.943 205.92ZM290.134 206H292.314V201.64C292.314 199.18 293.334 197.72 295.014 197.72C296.374 197.72 297.214 198.54 297.214 199.88V206H299.394V199.38C299.394 197.18 297.894 195.76 295.614 195.76C294.194 195.76 293.014 196.4 292.314 197.66V191.84H290.134V206ZM303.03 194.24C303.85 194.24 304.47 193.62 304.47 192.84C304.47 192.04 303.85 191.42 303.03 191.42C302.23 191.42 301.63 192.04 301.63 192.84C301.63 193.62 302.23 194.24 303.03 194.24ZM301.95 206H304.13V195.92H301.95V206ZM306.716 206H308.896V201.58C308.896 199.16 309.916 197.72 311.616 197.72C312.896 197.72 313.676 198.6 313.676 199.86V206H315.856V199.36C315.856 197.18 314.356 195.76 312.216 195.76C310.736 195.76 309.576 196.52 308.896 197.6V195.92H306.716V206ZM325.575 195.92V197.08C324.995 196.3 323.835 195.76 322.555 195.76C319.595 195.76 317.875 197.82 317.875 200.74C317.875 203.66 319.595 205.72 322.595 205.72C323.915 205.72 325.095 205.2 325.595 204.44V205.66C325.595 207.06 324.475 208.02 322.855 208.02C321.535 208.02 320.475 207.36 320.355 206.36L318.315 206.7C318.635 208.54 320.495 209.8 322.855 209.8C325.755 209.8 327.735 208.04 327.735 205.44V195.92H325.575ZM322.895 203.82C321.175 203.82 320.055 202.6 320.055 200.74C320.055 198.88 321.175 197.66 322.895 197.66C324.595 197.66 325.715 198.88 325.715 200.74C325.715 202.6 324.595 203.82 322.895 203.82Z" fill="#0F1117"/>
<path fill-rule="evenodd" clip-rule="evenodd" d="M384.817 31.403C384.628 31.2208 384.376 31.1201 384.114 31.1223C383.851 31.1246 383.601 31.2298 383.415 31.4152C383.23 31.6006 383.125 31.8514 383.122 32.1136C383.12 32.3758 383.221 32.6284 383.403 32.817L386.586 36L383.403 39.183C383.215 39.3705 383.11 39.6249 383.11 39.8902C383.11 40.0215 383.136 40.1516 383.186 40.2729C383.236 40.3943 383.31 40.5046 383.403 40.5975C383.495 40.6904 383.606 40.7641 383.727 40.8144C383.848 40.8647 383.978 40.8907 384.11 40.8907C384.375 40.8908 384.629 40.7855 384.817 40.598L388 37.415L391.183 40.598C391.371 40.7856 391.625 40.8911 391.891 40.8911C392.156 40.8911 392.41 40.7856 392.598 40.598C392.786 40.4104 392.891 40.1559 392.891 39.8905C392.891 39.6251 392.786 39.3706 392.598 39.183L389.415 36L392.598 32.817C392.691 32.7241 392.765 32.6138 392.815 32.4924C392.865 32.3711 392.891 32.241 392.891 32.1097C392.891 31.9783 392.865 31.8482 392.814 31.7269C392.764 31.6056 392.69 31.4953 392.598 31.4025C392.505 31.3097 392.394 31.236 392.273 31.1858C392.152 31.1356 392.022 31.1098 391.89 31.1098C391.759 31.1098 391.629 31.1358 391.507 31.1861C391.386 31.2364 391.276 31.3101 391.183 31.403L388 34.586L384.817 31.403Z" fill="#C1C3CC"/>
<path d="M226 101.6C226 92.6392 226 88.1587 227.744 84.7362C229.278 81.7256 231.726 79.2779 234.736 77.7439C238.159 76 242.639 76 251.6 76H264.4C273.361 76 277.841 76 281.264 77.7439C284.274 79.2779 286.722 81.7256 288.256 84.7362C290 88.1587 290 92.6392 290 101.6V114.4C290 123.361 290 127.841 288.256 131.264C286.722 134.274 284.274 136.722 281.264 138.256C277.841 140 273.361 140 264.4 140H251.6C242.639 140 238.159 140 234.736 138.256C231.726 136.722 229.278 134.274 227.744 131.264C226 127.841 226 123.361 226 114.4V101.6Z" fill="#E3E5FF"/>
<path d="M266.727 102.714H265.636V99.5C265.636 97.5109 264.832 95.6032 263.4 94.1967C261.968 92.7902 260.025 92 258 92C255.975 92 254.032 92.7902 252.6 94.1967C251.168 95.6032 250.364 97.5109 250.364 99.5V102.714H249.273C248.405 102.715 247.573 103.054 246.96 103.657C246.346 104.259 246.001 105.076 246 105.929V118.786C246.001 119.638 246.346 120.455 246.96 121.058C247.573 121.66 248.405 121.999 249.273 122H266.727C267.595 121.999 268.427 121.66 269.04 121.058C269.654 120.455 269.999 119.638 270 118.786V105.929C269.999 105.076 269.654 104.259 269.04 103.657C268.427 103.054 267.595 102.715 266.727 102.714ZM252.545 99.5C252.545 98.0792 253.12 96.7166 254.143 95.7119C255.166 94.7073 256.553 94.1429 258 94.1429C259.447 94.1429 260.834 94.7073 261.857 95.7119C262.88 96.7166 263.455 98.0792 263.455 99.5V102.714H252.545V99.5Z" fill="#3700FF"/>
<path d="M138 101.6C138 92.6392 138 88.1587 139.744 84.7362C141.278 81.7256 143.726 79.2779 146.736 77.7439C150.159 76 154.639 76 163.6 76H176.4C185.361 76 189.841 76 193.264 77.7439C196.274 79.2779 198.722 81.7256 200.256 84.7362C202 88.1587 202 92.6392 202 101.6V114.4C202 123.361 202 127.841 200.256 131.264C198.722 134.274 196.274 136.722 193.264 138.256C189.841 140 185.361 140 176.4 140H163.6C154.639 140 150.159 140 146.736 138.256C143.726 136.722 141.278 134.274 139.744 131.264C138 127.841 138 123.361 138 114.4V101.6Z" fill="url(#paint0_linear)"/>
<mask id="mask0" mask-type="alpha" maskUnits="userSpaceOnUse" x="138" y="76" width="64" height="64">
<path d="M138 101.6C138 92.6392 138 88.1587 139.744 84.7362C141.278 81.7256 143.726 79.2779 146.736 77.7439C150.159 76 154.639 76 163.6 76H176.4C185.361 76 189.841 76 193.264 77.7439C196.274 79.2779 198.722 81.7256 200.256 84.7362C202 88.1587 202 92.6392 202 101.6V114.4C202 123.361 202 127.841 200.256 131.264C198.722 134.274 196.274 136.722 193.264 138.256C189.841 140 185.361 140 176.4 140H163.6C154.639 140 150.159 140 146.736 138.256C143.726 136.722 141.278 134.274 139.744 131.264C138 127.841 138 123.361 138 114.4V101.6Z" fill="#BAE5FF"/>
</mask>
<g mask="url(#mask0)">
</g>
<path fill-rule="evenodd" clip-rule="evenodd" d="M170 120.589C178.837 120.589 186 114.189 186 106.294C186 98.3998 178.837 92 170 92C161.163 92 154 98.3998 154 106.294C154 110.808 156.342 114.834 160 117.453V124.004C160 124.278 160.314 124.433 160.531 124.266L165.94 120.124C167.236 120.427 168.597 120.589 170 120.589Z" fill="white"/>
<mask id="path-20-outside-1" maskUnits="userSpaceOnUse" x="198" y="104" width="32" height="7" fill="black">
<rect fill="white" x="198" y="104" width="32" height="7"/>
<path fill-rule="evenodd" clip-rule="evenodd" d="M201.5 109C202.153 109 202.709 108.583 202.915 108H225.085C225.291 108.583 225.847 109 226.5 109C227.328 109 228 108.328 228 107.5C228 106.672 227.328 106 226.5 106C225.847 106 225.291 106.417 225.085 107H202.915C202.709 106.417 202.153 106 201.5 106C200.672 106 200 106.672 200 107.5C200 108.328 200.672 109 201.5 109Z"/>
</mask>
<path fill-rule="evenodd" clip-rule="evenodd" d="M201.5 109C202.153 109 202.709 108.583 202.915 108H225.085C225.291 108.583 225.847 109 226.5 109C227.328 109 228 108.328 228 107.5C228 106.672 227.328 106 226.5 106C225.847 106 225.291 106.417 225.085 107H202.915C202.709 106.417 202.153 106 201.5 106C200.672 106 200 106.672 200 107.5C200 108.328 200.672 109 201.5 109Z" fill="#677282"/>
<path d="M202.915 108V106H201.5L201.029 107.334L202.915 108ZM225.085 108L226.971 107.334L226.5 106H225.085V108ZM225.085 107V109H226.5L226.971 107.666L225.085 107ZM202.915 107L201.029 107.666L201.5 109H202.915V107ZM201.029 107.334C201.097 107.142 201.279 107 201.5 107V111C203.027 111 204.321 110.023 204.8 108.666L201.029 107.334ZM225.085 106H202.915V110H225.085V106ZM226.5 107C226.721 107 226.903 107.142 226.971 107.334L223.2 108.666C223.679 110.023 224.973 111 226.5 111V107ZM226 107.5C226 107.224 226.224 107 226.5 107V111C228.433 111 230 109.433 230 107.5H226ZM226.5 108C226.224 108 226 107.776 226 107.5H230C230 105.567 228.433 104 226.5 104V108ZM226.971 107.666C226.903 107.858 226.721 108 226.5 108V104C224.973 104 223.679 104.977 223.2 106.334L226.971 107.666ZM202.915 109H225.085V105H202.915V109ZM201.5 108C201.279 108 201.097 107.858 201.029 107.666L204.8 106.334C204.321 104.977 203.027 104 201.5 104V108ZM202 107.5C202 107.776 201.776 108 201.5 108V104C199.567 104 198 105.567 198 107.5H202ZM201.5 107C201.776 107 202 107.224 202 107.5H198C198 109.433 199.567 111 201.5 111V107Z" fill="white" mask="url(#path-20-outside-1)"/>
<defs>
<filter id="filter0_d" x="0" y="0" width="428" height="520" filterUnits="userSpaceOnUse" color-interpolation-filters="sRGB">
<feFlood flood-opacity="0" result="BackgroundImageFix"/>
<feColorMatrix in="SourceAlpha" type="matrix" values="0 0 0 0 0 0 0 0 0 0 0 0 0 0 0 0 0 0 127 0"/>
<feOffset dy="8"/>
<feGaussianBlur stdDeviation="8"/>
<feColorMatrix type="matrix" values="0 0 0 0 0.105882 0 0 0 0 0.152941 0 0 0 0 0.2 0 0 0 0.08 0"/>
<feBlend mode="normal" in2="BackgroundImageFix" result="effect1_dropShadow"/>
<feBlend mode="normal" in="SourceGraphic" in2="effect1_dropShadow" result="shape"/>
</filter>
<filter id="filter1_i" x="16" y="308" width="396" height="80" filterUnits="userSpaceOnUse" color-interpolation-filters="sRGB">
<feFlood flood-opacity="0" result="BackgroundImageFix"/>
<feBlend mode="normal" in="SourceGraphic" in2="BackgroundImageFix" result="shape"/>
<feColorMatrix in="SourceAlpha" type="matrix" values="0 0 0 0 0 0 0 0 0 0 0 0 0 0 0 0 0 0 127 0" result="hardAlpha"/>
<feOffset dy="1"/>
<feComposite in2="hardAlpha" operator="arithmetic" k2="-1" k3="1"/>
<feColorMatrix type="matrix" values="0 0 0 0 0.941176 0 0 0 0 0.941176 0 0 0 0 0.960784 0 0 0 1 0"/>
<feBlend mode="normal" in2="shape" result="effect1_innerShadow"/>
</filter>
<filter id="filter2_i" x="16" y="228" width="396" height="80" filterUnits="userSpaceOnUse" color-interpolation-filters="sRGB">
<feFlood flood-opacity="0" result="BackgroundImageFix"/>
<feBlend mode="normal" in="SourceGraphic" in2="BackgroundImageFix" result="shape"/>
<feColorMatrix in="SourceAlpha" type="matrix" values="0 0 0 0 0 0 0 0 0 0 0 0 0 0 0 0 0 0 127 0" result="hardAlpha"/>
<feOffset dy="1"/>
<feComposite in2="hardAlpha" operator="arithmetic" k2="-1" k3="1"/>
<feColorMatrix type="matrix" values="0 0 0 0 0.941176 0 0 0 0 0.941176 0 0 0 0 0.960784 0 0 0 1 0"/>
<feBlend mode="normal" in2="shape" result="effect1_innerShadow"/>
</filter>
<linearGradient id="paint0_linear" x1="170" y1="76" x2="170" y2="140" gradientUnits="userSpaceOnUse">
<stop stop-color="#5768FF"/>
<stop offset="1" stop-color="#2B1BFB"/>
</linearGradient>
</defs>
</svg>
