<svg width="344" height="268" viewBox="0 0 344 268" fill="none" xmlns="http://www.w3.org/2000/svg">
<mask id="mask0" mask-type="alpha" maskUnits="userSpaceOnUse" x="0" y="0" width="344" height="268">
<path d="M344 0H0V268H344V0Z" fill="white" />
</mask>
<g mask="url(#mask0)">
<path d="M344 0H0V268H344V0Z"/>
<path d="M63.9998 56.5993C81.9998 56.5993 81.9998 55.9993 99.9998 55.9993C118 55.9993 118 56.3993 136 56.3993C154 56.3993 154 56.4993 172 56.4993C190 56.4993 190 56.3993 208 56.3993C226 56.3993 226 56.4993 244 56.4993C262 56.4993 262 56.1993 280 56.1993C284.4 56.1993 288 59.6993 288 64.0993C288 81.5993 287.7 81.5993 287.7 99.0993C287.7 116.599 287.9 116.599 287.9 134.099C287.9 151.599 287.8 151.599 287.8 169.099C287.8 186.599 287.7 186.599 287.7 204.099C287.7 208.499 284.4 212.299 279.9 212.299C261.9 212.299 261.9 211.699 243.9 211.699C225.9 211.699 225.9 212.099 207.9 212.099C189.9 212.099 189.9 211.899 171.9 211.899C153.9 211.899 153.9 211.499 135.9 211.499C117.9 211.499 117.9 211.899 99.8998 211.899C81.8998 211.899 81.8998 212.299 63.8998 212.299C59.4998 212.299 55.9998 208.399 55.9998 203.899C55.9998 186.399 56.2998 186.399 56.2998 168.899C56.2998 151.399 56.0998 151.399 56.0998 133.899C56.0998 116.399 56.1998 116.399 56.1998 98.8993C56.1998 81.3993 55.7998 81.3993 55.7998 63.8993C55.8998 59.7993 59.5998 56.5993 63.9998 56.5993Z" fill="white"/>
<path d="M72 68C74.2 68 76 69.8 76 72C76 74.2 74.2 76 72 76C69.8 76 68 74.2 68 72C68 69.8 69.8 68 72 68Z" fill="#9AC5EC"/>
<path d="M84 68C86.2 68 88 69.8 88 72C88 74.2 86.2 76 84 76C81.8 76 80 74.2 80 72C80 69.8 81.8 68 84 68Z" fill="#9AC5EC"/>
<path d="M96 68C98.2 68 100 69.8 100 72C100 74.2 98.2 76 96 76C93.8 76 92 74.2 92 72C92 69.8 93.8 68 96 68Z" fill="#9AC5EC"/>
<path d="M163 122H117V128H163V122Z" fill="#42444E"/>
<path d="M93.0004 96L109 112L93.0004 128L88.4004 123.4L99.8004 112L88.4004 100.6L93.0004 96Z" fill="#42444E"/>
</g>
</svg>
