<svg width="344" height="268" viewBox="0 0 344 268" fill="none" xmlns="http://www.w3.org/2000/svg">
<mask id="mask0" mask-type="alpha" maskUnits="userSpaceOnUse" x="0" y="0" width="344" height="268">
<path d="M344 0H0V268H344V0Z" fill="#B7A9FF"/>
</mask>
<g mask="url(#mask0)">
<path d="M344 0H0V268H344V0Z"/>
<path d="M86.0996 38.0008C86.0996 35.8008 87.7996 34.3008 89.9996 34.3008C97.4996 34.3008 97.4996 34.2008 104.9 34.2008C112.4 34.2008 112.4 34.2008 119.8 34.2008C127.3 34.2008 127.3 33.9008 134.7 33.9008C142.2 33.9008 142.2 34.1008 149.6 34.1008C157.1 34.1008 157.1 34.1008 164.5 34.1008C172 34.1008 172 34.3008 179.4 34.3008C186.9 34.3008 186.9 34.3008 194.3 34.3008C201.8 34.3008 201.8 33.9008 209.2 33.9008C216.7 33.9008 216.7 33.8008 224.1 33.8008C231.6 33.8008 231.6 33.8008 239 33.8008C246.5 33.8008 246.5 34.1008 253.9 34.1008C256.1 34.1008 257.9 35.8008 257.9 38.0008C257.9 45.4008 258.1 45.4008 258.1 52.8008C258.1 60.2008 257.9 60.2008 257.9 67.6008C257.9 75.0008 257.8 75.0008 257.8 82.4008C257.8 89.8008 257.7 89.8008 257.7 97.2008C257.7 104.601 257.8 104.601 257.8 112.001C257.8 119.401 258 119.401 258 126.801C258 134.201 257.8 134.201 257.8 141.601C257.8 149.001 257.6 149.001 257.6 156.401C257.6 163.801 257.5 163.801 257.5 171.201C257.5 178.601 257.7 178.601 257.7 186.001C257.7 193.401 257.6 193.401 257.6 200.801C257.6 208.201 258 208.201 258 215.601C258 223.001 258.2 223.001 258.2 230.401C258.2 232.601 256.1 234.701 253.9 234.701C246.4 234.701 246.4 234.101 239 234.101C231.5 234.101 231.5 234.301 224.1 234.301C216.6 234.301 216.6 234.501 209.2 234.501C201.7 234.501 201.7 234.701 194.3 234.701C186.8 234.701 186.8 234.601 179.4 234.601C171.9 234.601 171.9 234.601 164.5 234.601C157 234.601 157 234.201 149.6 234.201C142.1 234.201 142.1 234.301 134.7 234.301C127.2 234.301 127.2 234.701 119.8 234.701C112.3 234.701 112.3 234.701 104.9 234.701C97.4996 234.701 97.3996 234.701 89.9996 234.701C87.7996 234.701 86.3996 232.601 86.3996 230.401C86.3996 223.001 86.1996 223.001 86.1996 215.601C86.1996 208.201 85.5996 208.201 85.5996 200.801C85.5996 193.401 86.0996 193.401 86.0996 186.001C86.0996 178.601 85.8996 178.601 85.8996 171.201C85.8996 163.801 86.2996 163.801 86.2996 156.401C86.2996 149.001 85.6996 149.001 85.6996 141.601C85.6996 134.201 85.7996 134.201 85.7996 126.801C85.7996 119.401 86.1996 119.401 86.1996 112.001C86.1996 104.601 86.1996 104.601 86.1996 97.2008C86.1996 89.8008 85.7996 89.8008 85.7996 82.4008C85.7996 75.0008 86.2996 75.0008 86.2996 67.6008C86.2996 60.2008 86.2996 60.2008 86.2996 52.8008C86.3996 45.4008 86.0996 45.4008 86.0996 38.0008Z" fill="white"/>
<path d="M125.9 141.5C126 141.1 126.4 140.7 126.6 140.2C126.8 139.8 126.9 139.3 127.1 138.8C127.3 138.4 127.4 137.9 127.6 137.4C127.8 137 128 136.5 128.2 136.1C128.4 135.7 128.7 135.2 128.9 134.8C129.1 134.4 129.6 134.1 129.9 133.7C130.2 133.3 130.3 132.8 130.6 132.4C130.9 132 131.2 131.7 131.6 131.3C131.9 130.9 132.2 130.5 132.5 130.1C132.8 129.7 133.3 129.5 133.6 129.2C134 128.9 134.5 128.7 134.9 128.4C135.3 128.1 135.7 127.9 136.1 127.7C136.6 127.5 137 127.3 137.5 127.2C138 127.1 138.5 127 138.9 127C139.4 127 139.9 127 140.3 127.2C140.7 127.4 141.1 127.7 141.4 128.1C141.7 128.4 141.9 128.8 142.2 129.3C142.5 129.7 142.6 130.1 142.8 130.6C143 131 143.5 131.3 143.7 131.7C143.9 132.1 143.9 132.6 144.1 133.1C144.3 133.5 144.5 133.9 144.7 134.4C144.9 134.8 145.2 135.2 145.4 135.7C145.6 136.1 145.4 136.7 145.6 137.2C145.8 137.6 145.9 138.1 146.1 138.5C146.3 138.9 146.5 139.4 146.6 139.8C146.8 140.2 147 140.7 147.2 141.1C147.4 141.5 147.7 141.9 147.9 142.4C148.1 142.8 148.5 143.2 148.7 143.6C148.9 144 149.2 144.4 149.4 144.8C149.7 145.2 149.8 145.7 150.1 146C150.4 146.4 150.7 146.8 151 147.1C151.3 147.4 151.9 147.6 152.2 147.8C152.6 148.1 153 148.3 153.4 148.5C153.8 148.7 154.2 149 154.7 149.1C155.1 149.2 155.6 149.3 156.1 149.3C156.6 149.3 157 149.1 157.5 149.1C157.9 149 158.4 148.9 158.9 148.8C159.3 148.7 159.8 148.6 160.3 148.4C160.8 148.2 161.2 148.1 161.7 147.9C162.2 147.7 162.6 147.5 163 147.2C163.4 147 163.9 146.8 164.3 146.6C164.7 146.3 165.1 146 165.5 145.7C165.9 145.4 166.4 145.3 166.8 145C167.2 144.7 167.5 144.3 167.8 144C168.1 143.7 168.4 143.3 168.8 142.9C169.1 142.5 169.4 142.1 169.7 141.7C170 141.3 170.2 140.9 170.5 140.5C170.8 140.1 171.2 139.8 171.4 139.3C171.6 138.9 171.8 138.4 172 138C172.2 137.6 172.5 137.2 172.7 136.7C172.9 136.3 173 135.8 173.2 135.3C173.4 134.8 173.5 134.4 173.7 133.9C173.8 133.4 174 133 174.1 132.5C174.2 132 174.3 131.5 174.4 131.1C174.5 130.6 174.5 130.1 174.5 129.7C174.6 129.2 174.8 128.8 174.8 128.3C174.9 127.8 174.8 127.3 174.9 126.9C174.9 126.4 175 125.9 175 125.5C175 125 175.2 124.5 175.2 124.1C175.1 123.7 174.8 123.3 174.7 122.8C174.6 122.4 174.6 121.9 174.4 121.5C174.2 121.1 174 120.7 173.8 120.3C173.5 119.9 173.2 119.6 172.8 119.4C172.4 119.2 172 119 171.5 119C171.1 119 170.7 119.1 170.2 119.4C169.8 119.6 169.5 119.9 169.1 120.2C168.8 120.5 168.4 120.8 168.2 121.2C168 121.6 167.8 122 167.6 122.5C167.4 122.9 167.1 123.3 167 123.8C166.9 124.2 166.9 124.7 166.8 125.2C166.7 125.6 166.6 126.1 166.6 126.6C166.5 127.1 166.3 127.5 166.2 128C166.2 128.5 166.3 128.9 166.3 129.4C166.3 129.9 166.3 130.3 166.3 130.8C166.3 131.3 166.2 131.7 166.2 132.2C166.2 132.7 166.1 133.1 166.1 133.6C166.1 134.1 166.2 134.5 166.2 135C166.2 135.5 166.2 136 166.3 136.4C166.4 136.9 166.5 137.3 166.6 137.8C166.7 138.3 167 138.7 167.1 139.1C167.2 139.6 167.3 140 167.5 140.5C167.7 141 167.8 141.4 168 141.8C168.2 142.2 168.3 142.7 168.5 143.1C168.7 143.5 168.9 144 169.2 144.3C169.5 144.7 169.9 144.9 170.3 145.2C170.7 145.5 171.1 145.8 171.5 145.9C171.9 146.1 172.4 146.4 172.8 146.4C173.2 146.5 173.7 146.2 174.2 146.2C174.6 146.2 175.1 146.1 175.6 146C176 145.9 176.5 145.8 177 145.6C177.4 145.4 177.8 145 178.2 144.8C178.6 144.6 179.1 144.5 179.5 144.3C179.9 144.1 180.3 143.8 180.7 143.6C181.1 143.4 181.6 143.2 182 143C182.4 142.8 182.9 142.7 183.3 142.4C183.7 142.2 184.1 141.9 184.5 141.7C184.9 141.5 185.3 141.2 185.7 140.9C186.1 140.6 186.5 140.4 186.9 140.1C187.3 139.8 187.8 139.6 188.1 139.4C188.5 139.1 188.7 138.6 189 138.3C189.4 137.9 189.9 137.8 190.1 137.4C190.4 137 190.6 136.5 190.8 136.1C191 135.6 191.1 135.2 191.1 134.7C191.1 134.3 190.8 133.8 190.7 133.3C190.6 132.9 190.4 132.4 190.2 132C190 131.5 189.6 131.2 189.4 130.8C189.1 130.4 188.7 130.1 188.3 129.8C187.8 129.5 187.4 129.4 186.9 129.4C186.4 129.3 186 129.4 185.5 129.6C185 129.8 184.7 130 184.3 130.4C184 130.7 183.8 131.1 183.6 131.6C183.4 132 183.2 132.5 183.1 133C183.1 133.5 183 134 183.1 134.5C183.2 134.9 183.4 135.4 183.7 135.9C183.9 136.3 184.1 136.8 184.4 137.2C184.7 137.6 185 138 185.3 138.4C185.6 138.8 186.1 139 186.4 139.3C186.7 139.6 187.1 139.9 187.5 140.2C187.9 140.5 188.2 140.9 188.6 141.2C189 141.5 189.3 141.9 189.7 142.2C190.1 142.4 190.6 142.6 191 142.8C191.4 143 192 143 192.4 143.1C192.9 143.3 193.2 143.7 193.7 143.8C194.2 143.9 194.7 143.9 195.2 144C195.7 144.1 196.2 143.9 196.7 143.9C197.2 143.9 197.7 143.9 198.1 143.9C198.6 143.8 199.1 144 199.6 143.8C200.1 143.7 200.4 143.2 200.9 143C201.3 142.8 201.9 142.8 202.3 142.5C202.7 142.2 203 141.8 203.4 141.5C203.8 141.2 204.2 141 204.5 140.7C204.9 140.4 205.2 140 205.5 139.7C205.9 139.4 206.3 139.2 206.7 139C207.1 138.8 207.6 138.6 208 138.4C208.4 138.2 208.9 138.1 209.3 138C209.8 137.9 210.2 137.7 210.6 137.6C211.1 137.5 211.6 137.5 212 137.5C212.5 137.5 213 137.4 213.4 137.4C213.9 137.4 214.3 137.7 214.8 137.8C215.3 137.9 215.8 137.7 216.2 137.8C216.7 137.9 217.1 138.2 217.5 138.4C218 138.6 218.4 138.8 218.8 139" stroke="#222933" stroke-width="4" stroke-linecap="round"/>
<path d="M109.899 57.9C110.399 57.4 110.699 57.9 111.399 57.9C112.099 57.9 112.099 57.9 112.799 57.9C113.499 57.9 113.499 58.1 114.199 58.1C114.899 58.1 114.899 58 115.599 58C116.299 58 116.299 58.1 116.999 58.1C117.699 58.1 117.699 57.9 118.399 57.9C119.099 57.9 119.099 58 119.799 58C120.499 58 120.499 57.9 121.199 57.9C121.899 57.9 121.899 57.9 122.599 57.9C123.299 57.9 123.299 57.9 123.999 57.9C124.699 57.9 124.699 57.9 125.399 57.9C126.099 57.9 126.099 57.8 126.799 57.8C127.499 57.8 127.499 58 128.199 58C128.899 58 128.899 57.8 129.599 57.8C130.299 57.8 130.299 57.8 130.999 57.8C131.699 57.8 131.699 57.7 132.399 57.7C133.099 57.7 133.099 57.9 133.799 57.9C134.499 57.9 134.499 57.8 135.199 57.8C135.899 57.8 135.899 57.8 136.599 57.8C137.299 57.8 137.299 57.8 137.999 57.8C138.699 57.8 138.699 57.9 139.399 57.9C140.099 57.9 140.099 57.8 140.799 57.8C141.499 57.8 141.499 57.8 142.199 57.8C142.899 57.8 142.899 57.7 143.599 57.7C144.299 57.7 144.299 57.9 144.999 57.9C145.699 57.9 145.699 57.8 146.399 57.8C147.099 57.8 147.099 58 147.799 58C148.499 58 148.499 58 149.199 58C149.899 58 149.899 57.9 150.599 57.9C151.299 57.9 151.299 57.7 151.999 57.7C152.699 57.7 152.699 58 153.399 58C154.099 58 154.099 58 154.799 58C155.499 58 155.499 58.1 156.199 58.1C156.899 58.1 156.899 57.9 157.599 57.9C158.299 57.9 158.299 57.8 158.999 57.8C159.699 57.8 159.699 57.8 160.399 57.8C161.099 57.8 161.099 57.8 161.799 57.8C162.499 57.8 162.499 57.9 163.199 57.9C163.899 57.9 163.899 57.7 164.599 57.7C165.299 57.7 165.299 57.9 165.999 57.9C166.699 57.9 166.699 57.8 167.399 57.8C168.099 57.8 168.099 57.9 168.799 57.9C169.499 57.9 169.499 58 170.199 58C170.899 58 170.899 57.7 171.599 57.7C172.299 57.7 172.299 58 172.999 58C173.699 58 173.699 57.9 174.399 57.9C175.099 57.9 175.099 57.8 175.799 57.8C176.499 57.8 176.499 57.8 177.199 57.8C177.899 57.8 177.899 57.8 178.599 57.8C179.299 57.8 179.299 57.9 179.999 57.9C180.699 57.9 180.699 57.7 181.399 57.7C182.099 57.7 182.099 57.7 182.799 57.7C183.499 57.7 183.499 57.9 184.199 57.9C184.899 57.9 184.899 58 185.599 58C186.299 58 186.299 58 186.999 58C187.699 58 187.699 58.1 188.399 58.1C189.099 58.1 189.099 57.9 189.799 57.9C190.499 57.9 190.499 58 191.199 58C191.899 58 191.899 58.1 192.599 58.1C193.299 58.1 193.299 57.9 193.999 57.9C194.699 57.9 194.699 57.9 195.399 57.9C196.099 57.9 196.099 58 196.799 58C197.499 58 197.599 57.6 198.099 58.1C198.599 58.6 198.199 58.7 198.199 59.5C198.199 60.2 198.199 60.2 198.199 61C198.199 61.8 198.199 61.8 198.199 62.5C198.199 63.3 198.599 63.4 198.099 63.9C197.599 64.4 197.499 64.1 196.799 64.1C196.099 64.1 196.099 64.1 195.399 64.1C194.699 64.1 194.699 63.9 193.999 63.9C193.299 63.9 193.299 64 192.599 64C191.899 64 191.899 63.8 191.199 63.8C190.499 63.8 190.499 64 189.799 64C189.099 64 189.099 64 188.399 64C187.699 64 187.699 64 186.999 64C186.299 64 186.299 64.1 185.599 64.1C184.899 64.1 184.899 64 184.199 64C183.499 64 183.499 64 182.799 64C182.099 64 182.099 63.8 181.399 63.8C180.699 63.8 180.699 64.1 179.999 64.1C179.299 64.1 179.299 64.1 178.599 64.1C177.899 64.1 177.899 63.8 177.199 63.8C176.499 63.8 176.499 64 175.799 64C175.099 64 175.099 64.1 174.399 64.1C173.699 64.1 173.699 63.9 172.999 63.9C172.299 63.9 172.299 64.1 171.599 64.1C170.899 64.1 170.899 63.9 170.199 63.9C169.499 63.9 169.499 63.9 168.799 63.9C168.099 63.9 168.099 63.8 167.399 63.8C166.699 63.8 166.699 63.8 165.999 63.8C165.299 63.8 165.299 64.1 164.599 64.1C163.899 64.1 163.899 63.8 163.199 63.8C162.499 63.8 162.499 63.9 161.799 63.9C161.099 63.9 161.099 63.9 160.399 63.9C159.699 63.9 159.699 64 158.999 64C158.299 64 158.299 64.1 157.599 64.1C156.899 64.1 156.899 63.9 156.199 63.9C155.499 63.9 155.499 63.8 154.799 63.8C154.099 63.8 154.099 64 153.399 64C152.699 64 152.699 63.9 151.999 63.9C151.299 63.9 151.299 64.1 150.599 64.1C149.899 64.1 149.899 64.2 149.199 64.2C148.499 64.2 148.499 64.1 147.799 64.1C147.099 64.1 147.099 63.9 146.399 63.9C145.699 63.9 145.699 64.1 144.999 64.1C144.299 64.1 144.299 64.1 143.599 64.1C142.899 64.1 142.899 63.9 142.199 63.9C141.499 63.9 141.499 64.1 140.799 64.1C140.099 64.1 140.099 64 139.399 64C138.699 64 138.699 63.9 137.999 63.9C137.299 63.9 137.299 64 136.599 64C135.899 64 135.899 63.8 135.199 63.8C134.499 63.8 134.499 64 133.799 64C133.099 64 133.099 63.8 132.399 63.8C131.699 63.8 131.699 63.8 130.999 63.8C130.299 63.8 130.299 63.7 129.599 63.7C128.899 63.7 128.899 64 128.199 64C127.499 64 127.499 63.8 126.799 63.8C126.099 63.8 126.099 63.7 125.399 63.7C124.699 63.7 124.699 63.9 123.999 63.9C123.299 63.9 123.299 63.7 122.599 63.7C121.899 63.7 121.899 63.9 121.199 63.9C120.499 63.9 120.499 63.9 119.799 63.9C119.099 63.9 119.099 63.9 118.399 63.9C117.699 63.9 117.699 63.7 116.999 63.7C116.299 63.7 116.299 64 115.599 64C114.899 64 114.899 63.8 114.199 63.8C113.499 63.8 113.499 63.7 112.799 63.7C112.099 63.7 112.099 63.8 111.399 63.8C110.699 63.8 110.399 64.4 109.999 63.9C109.499 63.4 110.199 63.1 110.199 62.4C110.199 61.7 109.899 61.7 109.899 60.9C109.899 60.1 110.299 60.1 110.099 59.4C109.899 58.7 109.399 58.4 109.899 57.9Z" fill="#CBCCD0"/>
<path d="M110.1 90.0998C110.6 89.5998 110.7 89.8998 111.4 89.8998C112.1 89.8998 112.1 89.8998 112.8 89.8998C113.5 89.8998 113.5 90.0998 114.2 90.0998C114.9 90.0998 114.9 90.0998 115.6 90.0998C116.3 90.0998 116.3 89.9998 117 89.9998C117.7 89.9998 117.7 90.0998 118.4 90.0998C119.1 90.0998 119.1 90.0998 119.8 90.0998C120.5 90.0998 120.5 89.9998 121.2 89.9998C121.9 89.9998 121.9 89.8998 122.6 89.8998C123.3 89.8998 123.3 89.8998 124 89.8998C124.7 89.8998 124.7 89.9998 125.4 89.9998C126.1 89.9998 126.1 90.0998 126.8 90.0998C127.5 90.0998 127.5 89.9998 128.2 89.9998C128.9 89.9998 128.9 89.9998 129.6 89.9998C130.3 89.9998 130.3 89.8998 131 89.8998C131.7 89.8998 131.7 89.8998 132.4 89.8998C133.1 89.8998 133.1 90.0998 133.8 90.0998C134.5 90.0998 134.5 89.9998 135.2 89.9998C135.9 89.9998 135.9 90.0998 136.6 90.0998C137.3 90.0998 137.3 90.0998 138 90.0998C138.7 90.0998 138.7 89.9998 139.4 89.9998C140.1 89.9998 140.1 89.9998 140.8 89.9998C141.5 89.9998 141.5 89.9998 142.2 89.9998C142.9 89.9998 142.9 90.0998 143.6 90.0998C144.3 90.0998 144.3 89.9998 145 89.9998C145.7 89.9998 145.7 89.9998 146.4 89.9998C147.1 89.9998 147.1 90.0998 147.8 90.0998C148.5 90.0998 148.5 90.0998 149.2 90.0998C149.9 90.0998 149.9 89.8998 150.6 89.8998C151.3 89.8998 151.3 90.1998 152 90.1998C152.7 90.1998 152.7 89.9998 153.4 89.9998C154.1 89.9998 154.1 90.0998 154.8 90.0998C155.5 90.0998 155.5 90.0998 156.2 90.0998C156.9 90.0998 156.9 89.9998 157.6 89.9998C158.3 89.9998 158.3 90.0998 159 90.0998C159.7 90.0998 159.7 90.0998 160.4 90.0998C161.1 90.0998 161.1 90.0998 161.8 90.0998C162.5 90.0998 162.5 90.1998 163.2 90.1998C163.9 90.1998 163.9 90.1998 164.6 90.1998C165.3 90.1998 165.3 90.1998 166 90.1998C166.7 90.1998 166.7 90.0998 167.4 90.0998C168.1 90.0998 168.1 90.1998 168.8 90.1998C169.5 90.1998 169.5 90.2998 170.2 90.2998C170.9 90.2998 170.9 90.0998 171.6 90.0998C172.3 90.0998 172.3 90.1998 173 90.1998C173.7 90.1998 174 89.6998 174.5 90.1998C175 90.6998 174.4 90.9998 174.4 91.6998C174.4 92.3998 174.5 92.3998 174.5 93.1998C174.5 93.9998 174.6 93.9998 174.6 94.6998C174.6 95.4998 174.9 95.5998 174.4 96.0998C173.9 96.5998 173.8 96.0998 173.1 96.0998C172.4 96.0998 172.4 96.2998 171.7 96.2998C171 96.2998 171 96.2998 170.3 96.2998C169.6 96.2998 169.6 96.2998 168.9 96.2998C168.2 96.2998 168.2 96.1998 167.5 96.1998C166.8 96.1998 166.8 96.2998 166.1 96.2998C165.4 96.2998 165.4 96.1998 164.7 96.1998C164 96.1998 164 96.2998 163.3 96.2998C162.6 96.2998 162.6 96.0998 161.9 96.0998C161.2 96.0998 161.2 96.1998 160.5 96.1998C159.8 96.1998 159.8 96.1998 159.1 96.1998C158.4 96.1998 158.4 96.0998 157.7 96.0998C157 96.0998 157 96.2998 156.3 96.2998C155.6 96.2998 155.6 96.0998 154.9 96.0998C154.2 96.0998 154.2 96.0998 153.5 96.0998C152.8 96.0998 152.8 96.0998 152.1 96.0998C151.4 96.0998 151.4 96.1998 150.7 96.1998C150 96.1998 150 96.2998 149.3 96.2998C148.6 96.2998 148.6 96.0998 147.9 96.0998C147.2 96.0998 147.2 96.0998 146.5 96.0998C145.8 96.0998 145.8 96.1998 145.1 96.1998C144.4 96.1998 144.4 96.1998 143.7 96.1998C143 96.1998 143 96.1998 142.3 96.1998C141.6 96.1998 141.6 96.3998 140.9 96.3998C140.2 96.3998 140.2 96.2998 139.5 96.2998C138.8 96.2998 138.8 96.0998 138.1 96.0998C137.4 96.0998 137.4 96.1998 136.7 96.1998C136 96.1998 136 96.2998 135.3 96.2998C134.6 96.2998 134.6 96.1998 133.9 96.1998C133.2 96.1998 133.2 96.3998 132.5 96.3998C131.8 96.3998 131.8 96.1998 131.1 96.1998C130.4 96.1998 130.4 96.2998 129.7 96.2998C129 96.2998 129 96.3998 128.3 96.3998C127.6 96.3998 127.6 96.2998 126.9 96.2998C126.2 96.2998 126.2 96.3998 125.5 96.3998C124.8 96.3998 124.8 96.2998 124.1 96.2998C123.4 96.2998 123.4 96.2998 122.7 96.2998C122 96.2998 122 96.1998 121.3 96.1998C120.6 96.1998 120.6 96.2998 119.9 96.2998C119.2 96.2998 119.2 96.1998 118.5 96.1998C117.8 96.1998 117.8 96.1998 117.1 96.1998C116.4 96.1998 116.4 96.0998 115.7 96.0998C115 96.0998 115 95.9998 114.3 95.9998C113.6 95.9998 113.6 95.8998 112.9 95.8998C112.2 95.8998 112.2 96.0998 111.5 96.0998C110.8 96.0998 110.6 96.4998 110.1 95.9998C109.6 95.4998 110.1 95.2998 110.1 94.4998C110.1 93.7998 110 93.7998 110 92.9998C110 92.1998 110.3 92.1998 110.1 91.4998C109.9 90.7998 109.6 90.5998 110.1 90.0998Z" fill="#CBCCD0"/>
<path d="M234 177H110V211H234V177Z" fill="#3700FF"/>
<path d="M139.274 191.289C139.774 190.789 139.874 191.089 140.574 191.089C141.274 191.089 141.274 191.089 141.974 191.089C142.674 191.089 142.674 191.289 143.374 191.289C144.074 191.289 144.074 191.289 144.774 191.289C145.474 191.289 145.474 191.189 146.174 191.189C146.874 191.189 146.874 191.289 147.574 191.289C148.274 191.289 148.274 191.289 148.974 191.289C149.674 191.289 149.674 191.189 150.374 191.189C151.074 191.189 151.074 191.089 151.774 191.089C152.474 191.089 152.474 191.089 153.174 191.089C153.874 191.089 153.874 191.189 154.574 191.189C155.274 191.189 155.274 191.289 155.974 191.289C156.674 191.289 156.674 191.189 157.374 191.189C158.074 191.189 158.074 191.189 158.774 191.189C159.474 191.189 159.474 191.089 160.174 191.089C160.874 191.089 160.874 191.089 161.574 191.089C162.274 191.089 162.274 191.289 162.974 191.289C163.674 191.289 163.674 191.189 164.374 191.189C165.074 191.189 165.074 191.289 165.774 191.289C166.474 191.289 166.474 191.289 167.174 191.289C167.874 191.289 167.874 191.189 168.574 191.189C169.274 191.189 169.274 191.189 169.974 191.189C170.674 191.189 170.674 191.189 171.374 191.189C172.074 191.189 172.074 191.289 172.774 191.289C173.474 191.289 173.474 191.189 174.174 191.189C174.874 191.189 174.874 191.189 175.574 191.189C176.274 191.189 176.274 191.289 176.974 191.289C177.674 191.289 177.674 191.289 178.374 191.289C179.074 191.289 179.074 191.089 179.774 191.089C180.474 191.089 180.474 191.389 181.174 191.389C181.874 191.389 181.874 191.189 182.574 191.189C183.274 191.189 183.274 191.289 183.974 191.289C184.674 191.289 184.674 191.289 185.374 191.289C186.074 191.289 186.074 191.189 186.774 191.189C187.474 191.189 187.474 191.289 188.174 191.289C188.874 191.289 188.874 191.289 189.574 191.289C190.274 191.289 190.274 191.289 190.974 191.289C191.674 191.289 191.674 191.389 192.374 191.389C193.074 191.389 193.074 191.389 193.774 191.389C194.474 191.389 194.474 191.389 195.174 191.389C195.874 191.389 195.874 191.289 196.574 191.289C197.274 191.289 197.274 191.389 197.974 191.389C198.674 191.389 198.674 191.489 199.374 191.489C200.074 191.489 200.074 191.289 200.774 191.289C201.474 191.289 201.474 191.389 202.174 191.389C202.874 191.389 203.174 190.889 203.674 191.389C204.174 191.889 203.574 192.189 203.574 192.889C203.574 193.589 203.674 193.589 203.674 194.389C203.674 195.189 203.774 195.189 203.774 195.889C203.774 196.689 204.074 196.789 203.574 197.289C203.074 197.789 202.974 197.289 202.274 197.289C201.574 197.289 201.574 197.489 200.874 197.489C200.174 197.489 200.174 197.489 199.474 197.489C198.774 197.489 198.774 197.489 198.074 197.489C197.374 197.489 197.374 197.389 196.674 197.389C195.974 197.389 195.974 197.489 195.274 197.489C194.574 197.489 194.574 197.389 193.874 197.389C193.174 197.389 193.174 197.489 192.474 197.489C191.774 197.489 191.774 197.289 191.074 197.289C190.374 197.289 190.374 197.389 189.674 197.389C188.974 197.389 188.974 197.389 188.274 197.389C187.574 197.389 187.574 197.289 186.874 197.289C186.174 197.289 186.174 197.489 185.474 197.489C184.774 197.489 184.774 197.289 184.074 197.289C183.374 197.289 183.374 197.289 182.674 197.289C181.974 197.289 181.974 197.289 181.274 197.289C180.574 197.289 180.574 197.389 179.874 197.389C179.174 197.389 179.174 197.489 178.474 197.489C177.774 197.489 177.774 197.289 177.074 197.289C176.374 197.289 176.374 197.289 175.674 197.289C174.974 197.289 174.974 197.389 174.274 197.389C173.574 197.389 173.574 197.389 172.874 197.389C172.174 197.389 172.174 197.389 171.474 197.389C170.774 197.389 170.774 197.589 170.074 197.589C169.374 197.589 169.374 197.489 168.674 197.489C167.974 197.489 167.974 197.289 167.274 197.289C166.574 197.289 166.574 197.389 165.874 197.389C165.174 197.389 165.174 197.489 164.474 197.489C163.774 197.489 163.774 197.389 163.074 197.389C162.374 197.389 162.374 197.589 161.674 197.589C160.974 197.589 160.974 197.389 160.274 197.389C159.574 197.389 159.574 197.489 158.874 197.489C158.174 197.489 158.174 197.589 157.474 197.589C156.774 197.589 156.774 197.489 156.074 197.489C155.374 197.489 155.374 197.589 154.674 197.589C153.974 197.589 153.974 197.489 153.274 197.489C152.574 197.489 152.574 197.489 151.874 197.489C151.174 197.489 151.174 197.389 150.474 197.389C149.774 197.389 149.774 197.489 149.074 197.489C148.374 197.489 148.374 197.389 147.674 197.389C146.974 197.389 146.974 197.389 146.274 197.389C145.574 197.389 145.574 197.289 144.874 197.289C144.174 197.289 144.174 197.189 143.474 197.189C142.774 197.189 142.774 197.089 142.074 197.089C141.374 197.089 141.374 197.289 140.674 197.289C139.974 197.289 139.774 197.689 139.274 197.189C138.774 196.689 139.274 196.489 139.274 195.689C139.274 194.989 139.174 194.989 139.174 194.189C139.174 193.389 139.474 193.389 139.274 192.689C139.074 191.989 138.774 191.789 139.274 191.289Z" fill="white"/>
<path d="M187 192V208.015L190.225 204.884L192.479 210.224L196.084 208.689L193.984 203.619H198.591L187 192Z" fill="#111215"/>
<path d="M188 205.594V194.406L196.165 202.589H192.471L194.751 208.008L192.907 208.782L190.537 203.145L188 205.594Z" fill="black"/>
<path d="M110 73.9996C110.5 73.4996 110.7 73.9996 111.4 73.9996C112.1 73.9996 112.1 73.9996 112.8 73.9996C113.5 73.9996 113.5 73.9996 114.2 73.9996C114.9 73.9996 114.9 73.9996 115.6 73.9996C116.3 73.9996 116.3 73.9996 117 73.9996C117.7 73.9996 117.7 73.9996 118.4 73.9996C119.1 73.9996 119.1 73.8996 119.8 73.8996C120.5 73.8996 120.5 73.8996 121.2 73.8996C121.9 73.8996 121.9 73.8996 122.6 73.8996C123.3 73.8996 123.3 73.8996 124 73.8996C124.7 73.8996 124.7 73.8996 125.4 73.8996C126.1 73.8996 126.1 73.9996 126.8 73.9996C127.5 73.9996 127.5 73.9996 128.2 73.9996C128.9 73.9996 128.9 74.0996 129.6 74.0996C130.3 74.0996 130.3 73.9996 131 73.9996C131.7 73.9996 131.7 74.0996 132.4 74.0996C133.1 74.0996 133.1 74.0996 133.8 74.0996C134.5 74.0996 134.5 73.9996 135.2 73.9996C135.9 73.9996 135.9 73.9996 136.6 73.9996C137.3 73.9996 137.3 73.9996 138 73.9996C138.7 73.9996 138.7 73.9996 139.4 73.9996C140.1 73.9996 140.1 74.0996 140.8 74.0996C141.5 74.0996 141.5 74.0996 142.2 74.0996C142.9 74.0996 143.1 73.4996 143.6 73.9996C144.1 74.4996 143.5 74.7996 143.5 75.4996C143.5 76.1996 143.5 76.1996 143.5 76.9996C143.5 77.7996 143.6 77.7996 143.6 78.4996C143.6 79.2996 144.1 79.4996 143.5 79.9996C143 80.4996 142.8 79.9996 142.1 79.9996C141.4 79.9996 141.4 79.9996 140.7 79.9996C140 79.9996 140 80.0996 139.3 80.0996C138.6 80.0996 138.6 79.9996 137.9 79.9996C137.2 79.9996 137.2 79.9996 136.5 79.9996C135.8 79.9996 135.8 80.0996 135.1 80.0996C134.4 80.0996 134.4 79.9996 133.7 79.9996C133 79.9996 133 79.9996 132.3 79.9996C131.6 79.9996 131.6 80.0996 130.9 80.0996C130.2 80.0996 130.2 79.9996 129.5 79.9996C128.8 79.9996 128.8 79.9996 128.1 79.9996C127.4 79.9996 127.4 80.0996 126.7 80.0996C126 80.0996 126 80.0996 125.3 80.0996C124.6 80.0996 124.6 79.9996 123.9 79.9996C123.2 79.9996 123.2 79.9996 122.5 79.9996C121.8 79.9996 121.8 80.0996 121.1 80.0996C120.4 80.0996 120.4 79.9996 119.7 79.9996C119 79.9996 119 80.0996 118.3 80.0996C117.6 80.0996 117.6 80.0996 116.9 80.0996C116.2 80.0996 116.2 80.0996 115.5 80.0996C114.8 80.0996 114.8 80.0996 114.1 80.0996C113.4 80.0996 113.4 80.1996 112.7 80.1996C112 80.1996 112 80.0996 111.3 80.0996C110.6 80.0996 110.4 80.6996 109.9 80.1996C109.4 79.6996 109.9 79.3996 109.9 78.6996C109.9 77.9996 109.9 77.9996 109.9 77.1996C109.9 76.3996 110.1 76.3996 110 75.6996C109.9 74.6996 109.5 74.4996 110 73.9996Z" fill="#CBCCD0"/>
<path d="M151.999 74.0001C152.499 73.5001 152.699 74.0001 153.399 74.0001C154.099 74.0001 154.099 74.1001 154.899 74.1001C155.599 74.1001 155.599 74.1001 156.399 74.1001C157.099 74.1001 157.099 74.2001 157.899 74.2001C158.599 74.2001 158.599 74.1001 159.399 74.1001C160.099 74.1001 160.099 74.1001 160.899 74.1001C161.599 74.1001 161.599 74.1001 162.399 74.1001C163.099 74.1001 163.099 74.1001 163.899 74.1001C164.599 74.1001 164.599 74.0001 165.399 74.0001C166.099 74.0001 166.099 74.0001 166.899 74.0001C167.599 74.0001 167.599 74.0001 168.399 74.0001C169.099 74.0001 169.099 74.1001 169.899 74.1001C170.599 74.1001 170.599 74.0001 171.399 74.0001C172.099 74.0001 172.099 74.0001 172.899 74.0001C173.599 74.0001 173.599 74.0001 174.399 74.0001C175.099 74.0001 175.099 73.9001 175.899 73.9001C176.599 73.9001 176.599 73.9001 177.399 73.9001C178.099 73.9001 178.099 74.0001 178.899 74.0001C179.599 74.0001 179.599 74.0001 180.399 74.0001C181.099 74.0001 181.099 73.9001 181.899 73.9001C182.599 73.9001 182.599 73.9001 183.399 73.9001C184.099 73.9001 184.099 74.0001 184.899 74.0001C185.599 74.0001 185.599 73.9001 186.399 73.9001C187.099 73.9001 187.099 73.9001 187.899 73.9001C188.599 73.9001 188.599 74.0001 189.399 74.0001C190.199 74.0001 190.399 73.4001 190.899 73.9001C191.399 74.4001 190.999 74.7001 190.999 75.4001C190.999 76.1001 190.999 76.1001 190.999 76.9001C190.999 77.7001 190.899 77.7001 190.899 78.4001C190.899 79.2001 191.399 79.4001 190.899 79.9001C190.399 80.4001 190.199 80.0001 189.499 80.0001C188.799 80.0001 188.799 80.0001 187.999 80.0001C187.299 80.0001 187.299 80.1001 186.499 80.1001C185.799 80.1001 185.799 80.0001 184.999 80.0001C184.299 80.0001 184.299 80.1001 183.499 80.1001C182.799 80.1001 182.799 80.0001 181.999 80.0001C181.299 80.0001 181.299 80.1001 180.499 80.1001C179.799 80.1001 179.799 80.0001 178.999 80.0001C178.299 80.0001 178.299 80.1001 177.499 80.1001C176.799 80.1001 176.799 80.0001 175.999 80.0001C175.299 80.0001 175.299 80.0001 174.499 80.0001C173.799 80.0001 173.799 80.0001 172.999 80.0001C172.299 80.0001 172.299 80.0001 171.499 80.0001C170.799 80.0001 170.799 80.1001 169.999 80.1001C169.299 80.1001 169.299 80.1001 168.499 80.1001C167.799 80.1001 167.799 80.0001 166.999 80.0001C166.299 80.0001 166.299 80.1001 165.499 80.1001C164.799 80.1001 164.799 80.1001 163.999 80.1001C163.299 80.1001 163.299 80.0001 162.499 80.0001C161.799 80.0001 161.799 80.0001 160.999 80.0001C160.299 80.0001 160.299 80.0001 159.499 80.0001C158.799 80.0001 158.799 80.1001 157.999 80.1001C157.299 80.1001 157.299 80.2001 156.499 80.2001C155.799 80.2001 155.799 80.1001 154.999 80.1001C154.299 80.1001 154.299 80.2001 153.499 80.2001C152.699 80.2001 152.599 80.7001 151.999 80.2001C151.499 79.7001 151.999 79.5001 151.999 78.7001C151.999 78.0001 152.099 78.0001 152.099 77.2001C152.099 76.4001 152.199 76.4001 152.099 75.7001C151.899 74.7001 151.499 74.6001 151.999 74.0001Z" fill="#CBCCD0"/>
<path d="M200.001 73.9997C200.501 73.4997 200.801 74.0997 201.501 74.0997C202.201 74.0997 202.201 73.9997 202.901 73.9997C203.601 73.9997 203.601 74.0997 204.301 74.0997C205.001 74.0997 205.001 73.9997 205.701 73.9997C206.401 73.9997 206.401 73.9997 207.101 73.9997C207.801 73.9997 207.801 74.0997 208.501 74.0997C209.201 74.0997 209.201 74.0997 209.901 74.0997C210.601 74.0997 210.601 74.1997 211.301 74.1997C212.001 74.1997 212.001 74.0997 212.701 74.0997C213.401 74.0997 213.401 74.1997 214.101 74.1997C214.801 74.1997 214.801 74.1997 215.501 74.1997C216.201 74.1997 216.201 74.1997 216.901 74.1997C217.601 74.1997 217.601 74.1997 218.301 74.1997C219.001 74.1997 219.001 74.0997 219.701 74.0997C220.401 74.0997 220.401 74.0997 221.101 74.0997C221.801 74.0997 221.801 74.0997 222.501 74.0997C223.201 74.0997 223.201 74.0997 223.901 74.0997C224.601 74.0997 224.601 74.1997 225.301 74.1997C226.001 74.1997 226.001 74.1997 226.701 74.1997C227.401 74.1997 227.401 74.1997 228.101 74.1997C228.801 74.1997 228.801 74.1997 229.501 74.1997C230.201 74.1997 230.201 74.1997 230.901 74.1997C231.601 74.1997 231.601 74.1997 232.301 74.1997C233.001 74.1997 233.201 73.6997 233.701 74.2997C234.201 74.7997 233.701 74.9997 233.701 75.7997C233.701 76.4997 233.701 76.4997 233.701 77.2997C233.701 78.0997 233.801 78.0997 233.801 78.7997C233.801 79.5997 234.201 79.6997 233.701 80.2997C233.201 80.7997 233.001 80.2997 232.301 80.2997C231.601 80.2997 231.601 80.3997 230.901 80.3997C230.201 80.3997 230.201 80.4997 229.501 80.4997C228.801 80.4997 228.801 80.4997 228.101 80.4997C227.401 80.4997 227.401 80.3997 226.701 80.3997C226.001 80.3997 226.001 80.3997 225.301 80.3997C224.601 80.3997 224.601 80.4997 223.901 80.4997C223.201 80.4997 223.201 80.3997 222.501 80.3997C221.801 80.3997 221.801 80.2997 221.101 80.2997C220.401 80.2997 220.401 80.3997 219.701 80.3997C219.001 80.3997 219.001 80.2997 218.301 80.2997C217.601 80.2997 217.601 80.3997 216.901 80.3997C216.201 80.3997 216.201 80.3997 215.501 80.3997C214.801 80.3997 214.801 80.3997 214.101 80.3997C213.401 80.3997 213.401 80.3997 212.701 80.3997C212.001 80.3997 212.001 80.3997 211.301 80.3997C210.601 80.3997 210.601 80.2997 209.901 80.2997C209.201 80.2997 209.201 80.2997 208.501 80.2997C207.801 80.2997 207.801 80.3997 207.101 80.3997C206.401 80.3997 206.401 80.3997 205.701 80.3997C205.001 80.3997 205.001 80.2997 204.301 80.2997C203.601 80.2997 203.601 80.2997 202.901 80.2997C202.201 80.2997 202.201 80.2997 201.501 80.2997C200.801 80.2997 200.601 80.7997 200.101 80.2997C199.601 79.7997 200.101 79.5997 200.101 78.7997C200.101 78.0997 200.101 78.0997 200.101 77.2997C200.101 76.4997 200.201 76.4997 200.101 75.7997C199.801 74.6997 199.401 74.4997 200.001 73.9997Z" fill="#CBCCD0"/>
<path d="M208 57.9995C208.5 57.4995 208.7 57.8995 209.4 57.8995C210.1 57.8995 210.1 57.8995 210.8 57.8995C211.5 57.8995 211.5 57.8995 212.2 57.8995C212.9 57.8995 212.9 57.8995 213.6 57.8995C214.3 57.8995 214.3 57.9995 215 57.9995C215.7 57.9995 215.7 57.8995 216.4 57.8995C217.1 57.8995 217.1 57.8995 217.8 57.8995C218.5 57.8995 218.5 57.8995 219.2 57.8995C219.9 57.8995 219.9 57.8995 220.6 57.8995C221.3 57.8995 221.3 57.9995 222 57.9995C222.7 57.9995 222.7 57.9995 223.4 57.9995C224.1 57.9995 224.1 58.0995 224.8 58.0995C225.5 58.0995 225.5 58.0995 226.2 58.0995C226.9 58.0995 226.9 57.9995 227.6 57.9995C228.3 57.9995 228.3 58.0995 229 58.0995C229.7 58.0995 229.7 58.0995 230.4 58.0995C231.1 58.0995 231.1 57.9995 231.9 57.9995C232.7 57.9995 232.8 57.4995 233.4 58.0995C233.9 58.5995 233.4 58.7995 233.4 59.5995C233.4 60.2995 233.4 60.2995 233.4 61.0995C233.4 61.8995 233.4 61.8995 233.4 62.5995C233.4 63.3995 233.9 63.5995 233.4 64.0995C232.9 64.5995 232.7 64.0995 231.9 64.0995C231.2 64.0995 231.2 64.0995 230.5 64.0995C229.8 64.0995 229.8 64.0995 229.1 64.0995C228.4 64.0995 228.4 64.1995 227.7 64.1995C227 64.1995 227 64.1995 226.3 64.1995C225.6 64.1995 225.6 64.1995 224.9 64.1995C224.2 64.1995 224.2 64.1995 223.5 64.1995C222.8 64.1995 222.8 64.2995 222.1 64.2995C221.4 64.2995 221.4 64.2995 220.7 64.2995C220 64.2995 220 64.2995 219.3 64.2995C218.6 64.2995 218.6 64.2995 217.9 64.2995C217.2 64.2995 217.2 64.2995 216.5 64.2995C215.8 64.2995 215.8 64.3995 215.1 64.3995C214.4 64.3995 214.4 64.3995 213.7 64.3995C213 64.3995 213 64.3995 212.3 64.3995C211.6 64.3995 211.6 64.3995 210.9 64.3995C210.2 64.3995 210.2 64.3995 209.4 64.3995C208.7 64.3995 208.4 64.8995 207.9 64.3995C207.4 63.8995 207.9 63.5995 207.9 62.8995C207.9 62.1995 207.9 62.1995 207.9 61.3995C207.9 60.5995 208.1 60.5995 207.9 59.8995C207.9 58.6995 207.5 58.5995 208 57.9995Z" fill="#CBCCD0"/>
</g>
</svg>
