<svg width="344" height="268" viewBox="0 0 344 268" fill="none" xmlns="http://www.w3.org/2000/svg">
<mask id="mask0" mask-type="alpha" maskUnits="userSpaceOnUse" x="0" y="0" width="344" height="268">
<path d="M344 0H0V268H344V0Z" fill="#B7A9FF"/>
</mask>
<g mask="url(#mask0)">
<path d="M344 0H0V268H344V0Z" fill="#9985FF"/>
<path d="M86.0996 38.0008C86.0996 35.8008 87.7996 34.3008 89.9996 34.3008C97.4996 34.3008 97.4996 34.2008 104.9 34.2008C112.4 34.2008 112.4 34.2008 119.8 34.2008C127.3 34.2008 127.3 33.9008 134.7 33.9008C142.2 33.9008 142.2 34.1008 149.6 34.1008C157.1 34.1008 157.1 34.1008 164.5 34.1008C172 34.1008 172 34.3008 179.4 34.3008C186.9 34.3008 186.9 34.3008 194.3 34.3008C201.8 34.3008 201.8 33.9008 209.2 33.9008C216.7 33.9008 216.7 33.8008 224.1 33.8008C231.6 33.8008 231.6 33.8008 239 33.8008C246.5 33.8008 246.5 34.1008 253.9 34.1008C256.1 34.1008 257.9 35.8008 257.9 38.0008C257.9 45.4008 258.1 45.4008 258.1 52.8008C258.1 60.2008 257.9 60.2008 257.9 67.6008C257.9 75.0008 257.8 75.0008 257.8 82.4008C257.8 89.8008 257.7 89.8008 257.7 97.2008C257.7 104.601 257.8 104.601 257.8 112.001C257.8 119.401 258 119.401 258 126.801C258 134.201 257.8 134.201 257.8 141.601C257.8 149.001 257.6 149.001 257.6 156.401C257.6 163.801 257.5 163.801 257.5 171.201C257.5 178.601 257.7 178.601 257.7 186.001C257.7 193.401 257.6 193.401 257.6 200.801C257.6 208.201 258 208.201 258 215.601C258 223.001 258.2 223.001 258.2 230.401C258.2 232.601 256.1 234.701 253.9 234.701C246.4 234.701 246.4 234.101 239 234.101C231.5 234.101 231.5 234.301 224.1 234.301C216.6 234.301 216.6 234.501 209.2 234.501C201.7 234.501 201.7 234.701 194.3 234.701C186.8 234.701 186.8 234.601 179.4 234.601C171.9 234.601 171.9 234.601 164.5 234.601C157 234.601 157 234.201 149.6 234.201C142.1 234.201 142.1 234.301 134.7 234.301C127.2 234.301 127.2 234.701 119.8 234.701C112.3 234.701 112.3 234.701 104.9 234.701C97.4996 234.701 97.3996 234.701 89.9996 234.701C87.7996 234.701 86.3996 232.601 86.3996 230.401C86.3996 223.001 86.1996 223.001 86.1996 215.601C86.1996 208.201 85.5996 208.201 85.5996 200.801C85.5996 193.401 86.0996 193.401 86.0996 186.001C86.0996 178.601 85.8996 178.601 85.8996 171.201C85.8996 163.801 86.2996 163.801 86.2996 156.401C86.2996 149.001 85.6996 149.001 85.6996 141.601C85.6996 134.201 85.7996 134.201 85.7996 126.801C85.7996 119.401 86.1996 119.401 86.1996 112.001C86.1996 104.601 86.1996 104.601 86.1996 97.2008C86.1996 89.8008 85.7996 89.8008 85.7996 82.4008C85.7996 75.0008 86.2996 75.0008 86.2996 67.6008C86.2996 60.2008 86.2996 60.2008 86.2996 52.8008C86.3996 45.4008 86.0996 45.4008 86.0996 38.0008Z" fill="white"/>
<path d="M125.9 201C126 200.6 126.4 200.2 126.6 199.7C126.8 199.3 126.9 198.8 127.1 198.3C127.3 197.9 127.4 197.4 127.6 196.9C127.8 196.5 128 196 128.2 195.6C128.4 195.2 128.7 194.7 128.9 194.3C129.1 193.9 129.6 193.6 129.9 193.2C130.2 192.8 130.3 192.3 130.6 191.9C130.9 191.5 131.2 191.2 131.6 190.8C131.9 190.4 132.2 190 132.5 189.6C132.8 189.2 133.3 189 133.6 188.7C134 188.4 134.5 188.2 134.9 187.9C135.3 187.6 135.7 187.4 136.1 187.2C136.6 187 137 186.8 137.5 186.7C138 186.6 138.5 186.5 138.9 186.5C139.4 186.5 139.9 186.5 140.3 186.7C140.7 186.9 141.1 187.2 141.4 187.6C141.7 187.9 141.9 188.3 142.2 188.8C142.5 189.2 142.6 189.6 142.8 190.1C143 190.5 143.5 190.8 143.7 191.2C143.9 191.6 143.9 192.1 144.1 192.6C144.3 193 144.5 193.4 144.7 193.9C144.9 194.3 145.2 194.7 145.4 195.2C145.6 195.6 145.4 196.2 145.6 196.7C145.8 197.1 145.9 197.6 146.1 198C146.3 198.4 146.5 198.9 146.6 199.3C146.8 199.7 147 200.2 147.2 200.6C147.4 201 147.7 201.4 147.9 201.9C148.1 202.3 148.5 202.7 148.7 203.1C148.9 203.5 149.2 203.9 149.4 204.3C149.7 204.7 149.8 205.2 150.1 205.5C150.4 205.9 150.7 206.3 151 206.6C151.3 206.9 151.9 207.1 152.2 207.3C152.6 207.6 153 207.8 153.4 208C153.8 208.2 154.2 208.5 154.7 208.6C155.1 208.7 155.6 208.8 156.1 208.8C156.6 208.8 157 208.6 157.5 208.6C157.9 208.5 158.4 208.4 158.9 208.3C159.3 208.2 159.8 208.1 160.3 207.9C160.8 207.7 161.2 207.6 161.7 207.4C162.2 207.2 162.6 207 163 206.7C163.4 206.5 163.9 206.3 164.3 206.1C164.7 205.8 165.1 205.5 165.5 205.2C165.9 204.9 166.4 204.8 166.8 204.5C167.2 204.2 167.5 203.8 167.8 203.5C168.1 203.2 168.4 202.8 168.8 202.4C169.1 202 169.4 201.6 169.7 201.2C170 200.8 170.2 200.4 170.5 200C170.8 199.6 171.2 199.3 171.4 198.8C171.6 198.4 171.8 197.9 172 197.5C172.2 197.1 172.5 196.7 172.7 196.2C172.9 195.8 173 195.3 173.2 194.8C173.4 194.3 173.5 193.9 173.7 193.4C173.8 192.9 174 192.5 174.1 192C174.2 191.5 174.3 191 174.4 190.6C174.5 190.1 174.5 189.6 174.5 189.2C174.6 188.7 174.8 188.3 174.8 187.8C174.9 187.3 174.8 186.8 174.9 186.4C174.9 185.9 175 185.4 175 185C175 184.5 175.2 184 175.2 183.6C175.1 183.2 174.8 182.8 174.7 182.3C174.6 181.9 174.6 181.4 174.4 181C174.2 180.6 174 180.2 173.8 179.8C173.5 179.4 173.2 179.1 172.8 178.9C172.4 178.7 172 178.5 171.5 178.5C171.1 178.5 170.7 178.6 170.2 178.9C169.8 179.1 169.5 179.4 169.1 179.7C168.8 180 168.4 180.3 168.2 180.7C168 181.1 167.8 181.5 167.6 182C167.4 182.4 167.1 182.8 167 183.3C166.9 183.7 166.9 184.2 166.8 184.7C166.7 185.1 166.6 185.6 166.6 186.1C166.5 186.6 166.3 187 166.2 187.5C166.2 188 166.3 188.4 166.3 188.9C166.3 189.4 166.3 189.8 166.3 190.3C166.3 190.8 166.2 191.2 166.2 191.7C166.2 192.2 166.1 192.6 166.1 193.1C166.1 193.6 166.2 194 166.2 194.5C166.2 195 166.2 195.5 166.3 195.9C166.4 196.4 166.5 196.8 166.6 197.3C166.7 197.8 167 198.2 167.1 198.6C167.2 199.1 167.3 199.5 167.5 200C167.7 200.5 167.8 200.9 168 201.3C168.2 201.7 168.3 202.2 168.5 202.6C168.7 203 168.9 203.5 169.2 203.8C169.5 204.2 169.9 204.4 170.3 204.7C170.7 205 171.1 205.3 171.5 205.4C171.9 205.6 172.4 205.9 172.8 205.9C173.2 206 173.7 205.7 174.2 205.7C174.6 205.7 175.1 205.6 175.6 205.5C176 205.4 176.5 205.3 177 205.1C177.4 204.9 177.8 204.5 178.2 204.3C178.6 204.1 179.1 204 179.5 203.8C179.9 203.6 180.3 203.3 180.7 203.1C181.1 202.9 181.6 202.7 182 202.5C182.4 202.3 182.9 202.2 183.3 201.9C183.7 201.7 184.1 201.4 184.5 201.2C184.9 201 185.3 200.7 185.7 200.4C186.1 200.1 186.5 199.9 186.9 199.6C187.3 199.3 187.8 199.1 188.1 198.9C188.5 198.6 188.7 198.1 189 197.8C189.4 197.4 189.9 197.3 190.1 196.9C190.4 196.5 190.6 196 190.8 195.6C191 195.1 191.1 194.7 191.1 194.2C191.1 193.8 190.8 193.3 190.7 192.8C190.6 192.4 190.4 191.9 190.2 191.5C190 191 189.6 190.7 189.4 190.3C189.1 189.9 188.7 189.6 188.3 189.3C187.8 189 187.4 188.9 186.9 188.9C186.4 188.8 186 188.9 185.5 189.1C185 189.3 184.7 189.5 184.3 189.9C184 190.2 183.8 190.6 183.6 191.1C183.4 191.5 183.2 192 183.1 192.5C183.1 193 183 193.5 183.1 194C183.2 194.4 183.4 194.9 183.7 195.4C183.9 195.8 184.1 196.3 184.4 196.7C184.7 197.1 185 197.5 185.3 197.9C185.6 198.3 186.1 198.5 186.4 198.8C186.7 199.1 187.1 199.4 187.5 199.7C187.9 200 188.2 200.4 188.6 200.7C189 201 189.3 201.4 189.7 201.7C190.1 201.9 190.6 202.1 191 202.3C191.4 202.5 192 202.5 192.4 202.6C192.9 202.8 193.2 203.2 193.7 203.3C194.2 203.4 194.7 203.4 195.2 203.5C195.7 203.6 196.2 203.4 196.7 203.4C197.2 203.4 197.7 203.4 198.1 203.4C198.6 203.3 199.1 203.5 199.6 203.3C200.1 203.2 200.4 202.7 200.9 202.5C201.3 202.3 201.9 202.3 202.3 202C202.7 201.7 203 201.3 203.4 201C203.8 200.7 204.2 200.5 204.5 200.2C204.9 199.9 205.2 199.5 205.5 199.2C205.9 198.9 206.3 198.7 206.7 198.5C207.1 198.3 207.6 198.1 208 197.9C208.4 197.7 208.9 197.6 209.3 197.5C209.8 197.4 210.2 197.2 210.6 197.1C211.1 197 211.6 197 212 197C212.5 197 213 196.9 213.4 196.9C213.9 196.9 214.3 197.2 214.8 197.3C215.3 197.4 215.8 197.2 216.2 197.3C216.7 197.4 217.1 197.7 217.5 197.9C218 198.1 218.4 198.3 218.8 198.5" stroke="#222933" stroke-width="4" stroke-linecap="round"/>
<path d="M109.899 57.9C110.399 57.4 110.699 57.9 111.399 57.9C112.099 57.9 112.099 57.9 112.799 57.9C113.499 57.9 113.499 58.1 114.199 58.1C114.899 58.1 114.899 58 115.599 58C116.299 58 116.299 58.1 116.999 58.1C117.699 58.1 117.699 57.9 118.399 57.9C119.099 57.9 119.099 58 119.799 58C120.499 58 120.499 57.9 121.199 57.9C121.899 57.9 121.899 57.9 122.599 57.9C123.299 57.9 123.299 57.9 123.999 57.9C124.699 57.9 124.699 57.9 125.399 57.9C126.099 57.9 126.099 57.8 126.799 57.8C127.499 57.8 127.499 58 128.199 58C128.899 58 128.899 57.8 129.599 57.8C130.299 57.8 130.299 57.8 130.999 57.8C131.699 57.8 131.699 57.7 132.399 57.7C133.099 57.7 133.099 57.9 133.799 57.9C134.499 57.9 134.499 57.8 135.199 57.8C135.899 57.8 135.899 57.8 136.599 57.8C137.299 57.8 137.299 57.8 137.999 57.8C138.699 57.8 138.699 57.9 139.399 57.9C140.099 57.9 140.099 57.8 140.799 57.8C141.499 57.8 141.499 57.8 142.199 57.8C142.899 57.8 142.899 57.7 143.599 57.7C144.299 57.7 144.299 57.9 144.999 57.9C145.699 57.9 145.699 57.8 146.399 57.8C147.099 57.8 147.099 58 147.799 58C148.499 58 148.499 58 149.199 58C149.899 58 149.899 57.9 150.599 57.9C151.299 57.9 151.299 57.7 151.999 57.7C152.699 57.7 152.699 58 153.399 58C154.099 58 154.099 58 154.799 58C155.499 58 155.499 58.1 156.199 58.1C156.899 58.1 156.899 57.9 157.599 57.9C158.299 57.9 158.299 57.8 158.999 57.8C159.699 57.8 159.699 57.8 160.399 57.8C161.099 57.8 161.099 57.8 161.799 57.8C162.499 57.8 162.499 57.9 163.199 57.9C163.899 57.9 163.899 57.7 164.599 57.7C165.299 57.7 165.299 57.9 165.999 57.9C166.699 57.9 166.699 57.8 167.399 57.8C168.099 57.8 168.099 57.9 168.799 57.9C169.499 57.9 169.499 58 170.199 58C170.899 58 170.899 57.7 171.599 57.7C172.299 57.7 172.299 58 172.999 58C173.699 58 173.699 57.9 174.399 57.9C175.099 57.9 175.099 57.8 175.799 57.8C176.499 57.8 176.499 57.8 177.199 57.8C177.899 57.8 177.899 57.8 178.599 57.8C179.299 57.8 179.299 57.9 179.999 57.9C180.699 57.9 180.699 57.7 181.399 57.7C182.099 57.7 182.099 57.7 182.799 57.7C183.499 57.7 183.499 57.9 184.199 57.9C184.899 57.9 184.899 58 185.599 58C186.299 58 186.299 58 186.999 58C187.699 58 187.699 58.1 188.399 58.1C189.099 58.1 189.099 57.9 189.799 57.9C190.499 57.9 190.499 58 191.199 58C191.899 58 191.899 58.1 192.599 58.1C193.299 58.1 193.299 57.9 193.999 57.9C194.699 57.9 194.699 57.9 195.399 57.9C196.099 57.9 196.099 58 196.799 58C197.499 58 197.599 57.6 198.099 58.1C198.599 58.6 198.199 58.7 198.199 59.5C198.199 60.2 198.199 60.2 198.199 61C198.199 61.8 198.199 61.8 198.199 62.5C198.199 63.3 198.599 63.4 198.099 63.9C197.599 64.4 197.499 64.1 196.799 64.1C196.099 64.1 196.099 64.1 195.399 64.1C194.699 64.1 194.699 63.9 193.999 63.9C193.299 63.9 193.299 64 192.599 64C191.899 64 191.899 63.8 191.199 63.8C190.499 63.8 190.499 64 189.799 64C189.099 64 189.099 64 188.399 64C187.699 64 187.699 64 186.999 64C186.299 64 186.299 64.1 185.599 64.1C184.899 64.1 184.899 64 184.199 64C183.499 64 183.499 64 182.799 64C182.099 64 182.099 63.8 181.399 63.8C180.699 63.8 180.699 64.1 179.999 64.1C179.299 64.1 179.299 64.1 178.599 64.1C177.899 64.1 177.899 63.8 177.199 63.8C176.499 63.8 176.499 64 175.799 64C175.099 64 175.099 64.1 174.399 64.1C173.699 64.1 173.699 63.9 172.999 63.9C172.299 63.9 172.299 64.1 171.599 64.1C170.899 64.1 170.899 63.9 170.199 63.9C169.499 63.9 169.499 63.9 168.799 63.9C168.099 63.9 168.099 63.8 167.399 63.8C166.699 63.8 166.699 63.8 165.999 63.8C165.299 63.8 165.299 64.1 164.599 64.1C163.899 64.1 163.899 63.8 163.199 63.8C162.499 63.8 162.499 63.9 161.799 63.9C161.099 63.9 161.099 63.9 160.399 63.9C159.699 63.9 159.699 64 158.999 64C158.299 64 158.299 64.1 157.599 64.1C156.899 64.1 156.899 63.9 156.199 63.9C155.499 63.9 155.499 63.8 154.799 63.8C154.099 63.8 154.099 64 153.399 64C152.699 64 152.699 63.9 151.999 63.9C151.299 63.9 151.299 64.1 150.599 64.1C149.899 64.1 149.899 64.2 149.199 64.2C148.499 64.2 148.499 64.1 147.799 64.1C147.099 64.1 147.099 63.9 146.399 63.9C145.699 63.9 145.699 64.1 144.999 64.1C144.299 64.1 144.299 64.1 143.599 64.1C142.899 64.1 142.899 63.9 142.199 63.9C141.499 63.9 141.499 64.1 140.799 64.1C140.099 64.1 140.099 64 139.399 64C138.699 64 138.699 63.9 137.999 63.9C137.299 63.9 137.299 64 136.599 64C135.899 64 135.899 63.8 135.199 63.8C134.499 63.8 134.499 64 133.799 64C133.099 64 133.099 63.8 132.399 63.8C131.699 63.8 131.699 63.8 130.999 63.8C130.299 63.8 130.299 63.7 129.599 63.7C128.899 63.7 128.899 64 128.199 64C127.499 64 127.499 63.8 126.799 63.8C126.099 63.8 126.099 63.7 125.399 63.7C124.699 63.7 124.699 63.9 123.999 63.9C123.299 63.9 123.299 63.7 122.599 63.7C121.899 63.7 121.899 63.9 121.199 63.9C120.499 63.9 120.499 63.9 119.799 63.9C119.099 63.9 119.099 63.9 118.399 63.9C117.699 63.9 117.699 63.7 116.999 63.7C116.299 63.7 116.299 64 115.599 64C114.899 64 114.899 63.8 114.199 63.8C113.499 63.8 113.499 63.7 112.799 63.7C112.099 63.7 112.099 63.8 111.399 63.8C110.699 63.8 110.399 64.4 109.999 63.9C109.499 63.4 110.199 63.1 110.199 62.4C110.199 61.7 109.899 61.7 109.899 60.9C109.899 60.1 110.299 60.1 110.099 59.4C109.899 58.7 109.399 58.4 109.899 57.9Z" fill="#CBCCD0"/>
<path d="M110.1 90.0998C110.6 89.5998 110.7 89.8998 111.4 89.8998C112.1 89.8998 112.1 89.8998 112.8 89.8998C113.5 89.8998 113.5 90.0998 114.2 90.0998C114.9 90.0998 114.9 90.0998 115.6 90.0998C116.3 90.0998 116.3 89.9998 117 89.9998C117.7 89.9998 117.7 90.0998 118.4 90.0998C119.1 90.0998 119.1 90.0998 119.8 90.0998C120.5 90.0998 120.5 89.9998 121.2 89.9998C121.9 89.9998 121.9 89.8998 122.6 89.8998C123.3 89.8998 123.3 89.8998 124 89.8998C124.7 89.8998 124.7 89.9998 125.4 89.9998C126.1 89.9998 126.1 90.0998 126.8 90.0998C127.5 90.0998 127.5 89.9998 128.2 89.9998C128.9 89.9998 128.9 89.9998 129.6 89.9998C130.3 89.9998 130.3 89.8998 131 89.8998C131.7 89.8998 131.7 89.8998 132.4 89.8998C133.1 89.8998 133.1 90.0998 133.8 90.0998C134.5 90.0998 134.5 89.9998 135.2 89.9998C135.9 89.9998 135.9 90.0998 136.6 90.0998C137.3 90.0998 137.3 90.0998 138 90.0998C138.7 90.0998 138.7 89.9998 139.4 89.9998C140.1 89.9998 140.1 89.9998 140.8 89.9998C141.5 89.9998 141.5 89.9998 142.2 89.9998C142.9 89.9998 142.9 90.0998 143.6 90.0998C144.3 90.0998 144.3 89.9998 145 89.9998C145.7 89.9998 145.7 89.9998 146.4 89.9998C147.1 89.9998 147.1 90.0998 147.8 90.0998C148.5 90.0998 148.5 90.0998 149.2 90.0998C149.9 90.0998 149.9 89.8998 150.6 89.8998C151.3 89.8998 151.3 90.1998 152 90.1998C152.7 90.1998 152.7 89.9998 153.4 89.9998C154.1 89.9998 154.1 90.0998 154.8 90.0998C155.5 90.0998 155.5 90.0998 156.2 90.0998C156.9 90.0998 156.9 89.9998 157.6 89.9998C158.3 89.9998 158.3 90.0998 159 90.0998C159.7 90.0998 159.7 90.0998 160.4 90.0998C161.1 90.0998 161.1 90.0998 161.8 90.0998C162.5 90.0998 162.5 90.1998 163.2 90.1998C163.9 90.1998 163.9 90.1998 164.6 90.1998C165.3 90.1998 165.3 90.1998 166 90.1998C166.7 90.1998 166.7 90.0998 167.4 90.0998C168.1 90.0998 168.1 90.1998 168.8 90.1998C169.5 90.1998 169.5 90.2998 170.2 90.2998C170.9 90.2998 170.9 90.0998 171.6 90.0998C172.3 90.0998 172.3 90.1998 173 90.1998C173.7 90.1998 174 89.6998 174.5 90.1998C175 90.6998 174.4 90.9998 174.4 91.6998C174.4 92.3998 174.5 92.3998 174.5 93.1998C174.5 93.9998 174.6 93.9998 174.6 94.6998C174.6 95.4998 174.9 95.5998 174.4 96.0998C173.9 96.5998 173.8 96.0998 173.1 96.0998C172.4 96.0998 172.4 96.2998 171.7 96.2998C171 96.2998 171 96.2998 170.3 96.2998C169.6 96.2998 169.6 96.2998 168.9 96.2998C168.2 96.2998 168.2 96.1998 167.5 96.1998C166.8 96.1998 166.8 96.2998 166.1 96.2998C165.4 96.2998 165.4 96.1998 164.7 96.1998C164 96.1998 164 96.2998 163.3 96.2998C162.6 96.2998 162.6 96.0998 161.9 96.0998C161.2 96.0998 161.2 96.1998 160.5 96.1998C159.8 96.1998 159.8 96.1998 159.1 96.1998C158.4 96.1998 158.4 96.0998 157.7 96.0998C157 96.0998 157 96.2998 156.3 96.2998C155.6 96.2998 155.6 96.0998 154.9 96.0998C154.2 96.0998 154.2 96.0998 153.5 96.0998C152.8 96.0998 152.8 96.0998 152.1 96.0998C151.4 96.0998 151.4 96.1998 150.7 96.1998C150 96.1998 150 96.2998 149.3 96.2998C148.6 96.2998 148.6 96.0998 147.9 96.0998C147.2 96.0998 147.2 96.0998 146.5 96.0998C145.8 96.0998 145.8 96.1998 145.1 96.1998C144.4 96.1998 144.4 96.1998 143.7 96.1998C143 96.1998 143 96.1998 142.3 96.1998C141.6 96.1998 141.6 96.3998 140.9 96.3998C140.2 96.3998 140.2 96.2998 139.5 96.2998C138.8 96.2998 138.8 96.0998 138.1 96.0998C137.4 96.0998 137.4 96.1998 136.7 96.1998C136 96.1998 136 96.2998 135.3 96.2998C134.6 96.2998 134.6 96.1998 133.9 96.1998C133.2 96.1998 133.2 96.3998 132.5 96.3998C131.8 96.3998 131.8 96.1998 131.1 96.1998C130.4 96.1998 130.4 96.2998 129.7 96.2998C129 96.2998 129 96.3998 128.3 96.3998C127.6 96.3998 127.6 96.2998 126.9 96.2998C126.2 96.2998 126.2 96.3998 125.5 96.3998C124.8 96.3998 124.8 96.2998 124.1 96.2998C123.4 96.2998 123.4 96.2998 122.7 96.2998C122 96.2998 122 96.1998 121.3 96.1998C120.6 96.1998 120.6 96.2998 119.9 96.2998C119.2 96.2998 119.2 96.1998 118.5 96.1998C117.8 96.1998 117.8 96.1998 117.1 96.1998C116.4 96.1998 116.4 96.0998 115.7 96.0998C115 96.0998 115 95.9998 114.3 95.9998C113.6 95.9998 113.6 95.8998 112.9 95.8998C112.2 95.8998 112.2 96.0998 111.5 96.0998C110.8 96.0998 110.6 96.4998 110.1 95.9998C109.6 95.4998 110.1 95.2998 110.1 94.4998C110.1 93.7998 110 93.7998 110 92.9998C110 92.1998 110.3 92.1998 110.1 91.4998C109.9 90.7998 109.6 90.5998 110.1 90.0998Z" fill="#CBCCD0"/>
<path d="M109.9 137.9C110.4 137.4 110.7 138 111.4 138C112.1 138 112.1 137.9 112.8 137.9C113.5 137.9 113.5 138 114.2 138C114.9 138 114.9 138.1 115.7 138.1C116.4 138.1 116.4 137.9 117.2 137.9C117.9 137.9 117.9 138.1 118.6 138.1C119.3 138.1 119.3 138.2 120 138.2C120.7 138.2 120.7 138.1 121.4 138.1C122.1 138.1 122.1 138 122.8 138C123.5 138 123.5 138.1 124.2 138.1C124.9 138.1 124.9 138.1 125.7 138.1C126.4 138.1 126.4 138.1 127.2 138.1C127.9 138.1 127.9 137.9 128.6 137.9C129.3 137.9 129.3 138 130 138C130.7 138 130.7 138 131.4 138C132.1 138 132.1 137.8 132.9 137.8C133.6 137.8 133.6 137.8 134.3 137.8C135 137.8 135 137.9 135.7 137.9C136.4 137.9 136.4 138.1 137.1 138.1C137.8 138.1 137.8 138.1 138.5 138.1C139.2 138.1 139.2 138 139.9 138C140.6 138 140.6 138 141.4 138C142.1 138 142.1 138 142.8 138C143.5 138 143.5 137.9 144.2 137.9C144.9 137.9 144.9 138.1 145.6 138.1C146.3 138.1 146.3 137.9 147 137.9C147.7 137.9 147.7 138 148.4 138C149.1 138 149.1 138.1 149.9 138.1C150.6 138.1 150.6 138 151.4 138C152.1 138 152.1 138 152.9 138C153.6 138 153.6 138.1 154.3 138.1C155 138.1 155 138 155.8 138C156.5 138 156.5 138.1 157.3 138.1C158 138.1 158 138 158.8 138C159.5 138 159.5 138 160.3 138C161 138 161 138 161.8 138C162.5 138 162.5 138.2 163.3 138.2C164 138.2 164 138 164.8 138C165.5 138 165.5 138.2 166.3 138.2C167 138.2 167 138.1 167.8 138.1C168.5 138.1 168.5 138.1 169.3 138.1C170 138.1 170 138 170.8 138C171.5 138 171.5 138 172.3 138C173 138 173 137.9 173.8 137.9C174.5 137.9 174.5 138.1 175.3 138.1C176 138.1 176 138.1 176.8 138.1C177.5 138.1 177.5 137.9 178.3 137.9C179 137.9 179 138.1 179.8 138.1C180.5 138.1 180.5 138.1 181.3 138.1C182 138.1 182 137.9 182.8 137.9C183.6 137.9 183.8 137.4 184.3 137.9C184.8 138.4 184.1 138.7 184.1 139.5C184.1 140.2 184.3 140.2 184.3 141C184.3 141.8 184.2 141.8 184.2 142.5C184.2 143.3 184.7 143.5 184.2 144C183.7 144.5 183.5 143.9 182.7 143.9C182 143.9 182 144 181.3 144C180.6 144 180.6 144 179.9 144C179.2 144 179.2 144.2 178.4 144.2C177.7 144.2 177.7 144 176.9 144C176.2 144 176.2 144 175.5 144C174.8 144 174.8 144 174.1 144C173.4 144 173.4 144.2 172.7 144.2C172 144.2 172 144.1 171.3 144.1C170.6 144.1 170.6 144 169.9 144C169.2 144 169.2 144.1 168.4 144.1C167.7 144.1 167.7 144.1 166.9 144.1C166.2 144.1 166.2 144 165.5 144C164.8 144 164.8 144.1 164.1 144.1C163.4 144.1 163.4 143.9 162.7 143.9C162 143.9 162 144 161.2 144C160.5 144 160.5 144.1 159.8 144.1C159.1 144.1 159.1 144 158.4 144C157.7 144 157.7 144.1 157 144.1C156.3 144.1 156.3 143.9 155.6 143.9C154.9 143.9 154.9 143.9 154.2 143.9C153.5 143.9 153.5 144 152.7 144C152 144 152 143.9 151.3 143.9C150.6 143.9 150.6 144 149.9 144C149.2 144 149.2 143.8 148.5 143.8C147.8 143.8 147.8 143.8 147.1 143.8C146.4 143.8 146.4 144 145.7 144C145 144 145 143.9 144.2 143.9C143.5 143.9 143.5 144 142.7 144C142 144 142 143.9 141.2 143.9C140.5 143.9 140.5 144 139.8 144C139.1 144 139.1 144 138.3 144C137.6 144 137.6 143.9 136.8 143.9C136.1 143.9 136.1 143.9 135.3 143.9C134.6 143.9 134.6 144.1 133.8 144.1C133.1 144.1 133.1 144.1 132.3 144.1C131.6 144.1 131.6 144.1 130.8 144.1C130.1 144.1 130.1 143.9 129.3 143.9C128.6 143.9 128.6 144 127.8 144C127.1 144 127.1 143.9 126.3 143.9C125.6 143.9 125.6 144 124.8 144C124.1 144 124.1 144 123.3 144C122.6 144 122.6 144.2 121.8 144.2C121.1 144.2 121.1 144.1 120.3 144.1C119.6 144.1 119.6 144.2 118.8 144.2C118.1 144.2 118.1 144.1 117.3 144.1C116.6 144.1 116.6 144 115.8 144C115.1 144 115.1 144.1 114.3 144.1C113.6 144.1 113.6 144.2 112.8 144.2C112.1 144.2 112.1 144.1 111.3 144.1C110.6 144.1 110.3 144.7 109.8 144.1C109.3 143.6 109.8 143.3 109.8 142.5C109.8 141.8 109.9 141.8 109.9 141C109.9 140.2 110 140.2 109.8 139.5C109.8 138.7 109.4 138.5 109.9 137.9Z" fill="#CBCCD0"/>
<path d="M110.101 154.099C110.601 153.599 110.801 154.199 111.501 154.199C112.201 154.199 112.201 154.099 112.901 154.099C113.601 154.099 113.601 154.299 114.301 154.299C115.001 154.299 115.001 154.099 115.701 154.099C116.401 154.099 116.401 154.199 117.101 154.199C117.801 154.199 117.801 154.099 118.501 154.099C119.201 154.099 119.201 154.099 119.901 154.099C120.601 154.099 120.601 154.099 121.301 154.099C122.001 154.099 122.001 153.999 122.701 153.999C123.401 153.999 123.401 154.299 124.101 154.299C124.801 154.299 124.801 154.399 125.501 154.399C126.201 154.399 126.201 154.099 126.901 154.099C127.601 154.099 127.601 154.199 128.301 154.199C129.001 154.199 129.001 154.099 129.701 154.099C130.401 154.099 130.401 154.199 131.101 154.199C131.801 154.199 131.801 154.499 132.501 154.499C133.201 154.499 133.201 154.399 133.901 154.399C134.601 154.399 134.601 154.399 135.301 154.399C136.001 154.399 136.001 154.299 136.701 154.299C137.401 154.299 137.401 154.599 138.101 154.599C138.801 154.599 138.801 154.499 139.501 154.499C140.201 154.499 140.201 154.499 140.901 154.499C141.601 154.499 141.601 154.399 142.301 154.399C143.001 154.399 143.001 154.499 143.701 154.499C144.401 154.499 144.401 154.499 145.101 154.499C145.801 154.499 145.801 154.299 146.501 154.299C147.201 154.299 147.201 154.599 147.901 154.599C148.601 154.599 148.601 154.399 149.301 154.399C150.001 154.399 150.001 154.699 150.701 154.699C151.401 154.699 151.401 154.399 152.101 154.399C152.801 154.399 152.801 154.499 153.501 154.499C154.201 154.499 154.201 154.699 154.901 154.699C155.601 154.699 155.601 154.599 156.301 154.599C157.001 154.599 157.001 154.699 157.701 154.699C158.401 154.699 158.401 154.699 159.101 154.699C159.801 154.699 159.801 154.599 160.501 154.599C161.201 154.599 161.201 154.699 161.901 154.699C162.601 154.699 162.601 154.499 163.301 154.499C164.001 154.499 164.001 154.599 164.701 154.599C165.401 154.599 165.401 154.399 166.101 154.399C166.801 154.399 166.801 154.399 167.501 154.399C168.201 154.399 168.201 154.599 168.901 154.599C169.601 154.599 169.601 154.599 170.301 154.599C171.001 154.599 171.001 154.399 171.701 154.399C172.401 154.399 172.401 154.699 173.101 154.699C173.801 154.699 173.801 154.699 174.501 154.699C175.201 154.699 175.201 154.499 175.901 154.499C176.601 154.499 176.601 154.499 177.301 154.499C178.001 154.499 178.001 154.499 178.701 154.499C179.401 154.499 179.401 154.599 180.101 154.599C180.801 154.599 180.801 154.599 181.501 154.599C182.201 154.599 182.201 154.599 182.901 154.599C183.601 154.599 183.601 154.399 184.301 154.399C185.001 154.399 185.001 154.499 185.701 154.499C186.401 154.499 186.401 154.599 187.101 154.599C187.801 154.599 187.801 154.499 188.501 154.499C189.201 154.499 189.201 154.399 189.901 154.399C190.601 154.399 190.601 154.599 191.301 154.599C192.001 154.599 192.001 154.599 192.701 154.599C193.401 154.599 193.401 154.399 194.101 154.399C194.801 154.399 194.801 154.399 195.501 154.399C196.201 154.399 196.201 154.399 196.901 154.399C197.601 154.399 197.601 154.399 198.301 154.399C199.001 154.399 199.001 154.299 199.701 154.299C200.401 154.299 200.401 154.499 201.101 154.499C201.801 154.499 201.801 154.599 202.501 154.599C203.201 154.599 203.201 154.499 204.001 154.499C204.701 154.499 205.001 153.899 205.501 154.499C206.001 154.999 205.701 155.299 205.701 155.999C205.701 156.699 205.401 156.699 205.401 157.499C205.401 158.299 205.501 158.299 205.501 158.999C205.501 159.799 206.001 159.899 205.401 160.499C204.901 160.999 204.701 160.699 204.001 160.699C203.301 160.699 203.301 160.299 202.601 160.299C201.901 160.299 201.901 160.399 201.201 160.399C200.501 160.399 200.501 160.299 199.801 160.299C199.101 160.299 199.101 160.299 198.401 160.299C197.701 160.299 197.701 160.199 197.001 160.199C196.301 160.199 196.301 160.299 195.601 160.299C194.901 160.299 194.901 160.199 194.201 160.199C193.501 160.199 193.501 160.399 192.801 160.399C192.101 160.399 192.101 160.399 191.401 160.399C190.701 160.399 190.701 160.499 190.001 160.499C189.301 160.499 189.301 160.299 188.601 160.299C187.901 160.299 187.901 160.499 187.201 160.499C186.501 160.499 186.501 160.499 185.801 160.499C185.101 160.499 185.101 160.399 184.401 160.399C183.701 160.399 183.701 160.499 183.001 160.499C182.301 160.499 182.301 160.499 181.601 160.499C180.901 160.499 180.901 160.499 180.201 160.499C179.501 160.499 179.501 160.199 178.801 160.199C178.101 160.199 178.101 160.499 177.401 160.499C176.701 160.499 176.701 160.299 176.001 160.299C175.301 160.299 175.301 160.299 174.601 160.299C173.901 160.299 173.901 160.399 173.201 160.399C172.501 160.399 172.501 160.399 171.801 160.399C171.101 160.399 171.101 160.399 170.401 160.399C169.701 160.399 169.701 160.299 169.001 160.299C168.301 160.299 168.301 160.299 167.601 160.299C166.901 160.299 166.901 160.299 166.201 160.299C165.501 160.299 165.501 160.399 164.801 160.399C164.101 160.399 164.101 160.399 163.401 160.399C162.701 160.399 162.701 160.299 162.001 160.299C161.301 160.299 161.301 160.399 160.601 160.399C159.901 160.399 159.901 160.499 159.201 160.499C158.501 160.499 158.501 160.699 157.801 160.699C157.101 160.699 157.101 160.599 156.401 160.599C155.701 160.599 155.701 160.699 155.001 160.699C154.301 160.699 154.301 160.699 153.601 160.699C152.901 160.699 152.901 160.599 152.201 160.599C151.501 160.599 151.501 160.699 150.801 160.699C150.101 160.699 150.101 160.699 149.401 160.699C148.701 160.699 148.701 160.599 148.001 160.599C147.301 160.599 147.301 160.699 146.601 160.699C145.901 160.699 145.901 160.699 145.201 160.699C144.501 160.699 144.501 160.399 143.801 160.399C143.101 160.399 143.101 160.599 142.401 160.599C141.701 160.599 141.701 160.699 141.001 160.699C140.301 160.699 140.301 160.699 139.601 160.699C138.901 160.699 138.901 160.499 138.201 160.499C137.501 160.499 137.501 160.599 136.801 160.599C136.101 160.599 136.101 160.499 135.401 160.499C134.701 160.499 134.701 160.599 134.001 160.599C133.301 160.599 133.301 160.799 132.601 160.799C131.901 160.799 131.901 160.699 131.201 160.699C130.501 160.699 130.501 160.599 129.801 160.599C129.101 160.599 129.101 160.499 128.401 160.499C127.701 160.499 127.701 160.599 127.001 160.599C126.301 160.599 126.301 160.499 125.601 160.499C124.901 160.499 124.901 160.699 124.201 160.699C123.501 160.699 123.501 160.599 122.801 160.599C122.101 160.599 122.101 160.799 121.401 160.799C120.701 160.799 120.701 160.699 120.001 160.699C119.301 160.699 119.301 160.699 118.601 160.699C117.901 160.699 117.901 160.599 117.201 160.599C116.501 160.599 116.501 160.699 115.801 160.699C115.101 160.699 115.101 160.799 114.401 160.799C113.701 160.799 113.701 160.699 113.001 160.699C112.301 160.699 112.301 160.699 111.501 160.699C110.801 160.699 110.601 161.199 110.101 160.699C109.601 160.199 110.201 159.999 110.201 159.199C110.201 158.499 109.901 158.499 109.901 157.699C109.901 156.899 110.201 156.899 110.001 156.199C109.901 154.699 109.501 154.599 110.101 154.099Z" fill="#CBCCD0"/>
<path d="M109.899 105.901C110.399 105.401 110.699 106.201 111.399 106.201C112.099 106.201 112.099 106.201 112.799 106.201C113.499 106.201 113.499 105.901 114.199 105.901C114.899 105.901 114.899 106.201 115.599 106.201C116.299 106.201 116.299 105.901 116.999 105.901C117.699 105.901 117.699 106.101 118.399 106.101C119.099 106.101 119.099 106.201 119.799 106.201C120.499 106.201 120.499 106.001 121.199 106.001C121.899 106.001 121.899 106.201 122.599 106.201C123.299 106.201 123.299 106.301 123.999 106.301C124.699 106.301 124.699 106.201 125.399 106.201C126.099 106.201 126.099 106.201 126.799 106.201C127.499 106.201 127.499 106.301 128.199 106.301C128.899 106.301 128.899 106.101 129.599 106.101C130.299 106.101 130.299 106.201 130.999 106.201C131.699 106.201 131.699 106.201 132.399 106.201C133.099 106.201 133.099 106.201 133.799 106.201C134.499 106.201 134.499 106.401 135.199 106.401C135.899 106.401 135.899 106.101 136.599 106.101C137.299 106.101 137.299 106.201 137.999 106.201C138.699 106.201 138.699 106.101 139.399 106.101C140.099 106.101 140.099 106.301 140.799 106.301C141.499 106.301 141.499 106.201 142.199 106.201C142.899 106.201 142.899 106.201 143.599 106.201C144.299 106.201 144.299 106.001 144.999 106.001C145.699 106.001 145.699 106.301 146.399 106.301C147.099 106.301 147.099 106.001 147.799 106.001C148.499 106.001 148.499 106.401 149.199 106.401C149.899 106.401 149.899 106.401 150.599 106.401C151.299 106.401 151.299 106.401 151.999 106.401C152.699 106.401 152.699 106.101 153.399 106.101C154.099 106.101 154.099 106.301 154.799 106.301C155.499 106.301 155.499 106.101 156.199 106.101C156.899 106.101 156.899 106.301 157.599 106.301C158.299 106.301 158.299 106.401 158.999 106.401C159.699 106.401 159.699 106.101 160.399 106.101C161.099 106.101 161.099 106.101 161.799 106.101C162.499 106.101 162.499 106.101 163.199 106.101C163.899 106.101 163.899 106.101 164.599 106.101C165.299 106.101 165.299 106.301 165.999 106.301C166.699 106.301 166.699 106.301 167.399 106.301C168.099 106.301 168.099 106.301 168.799 106.301C169.499 106.301 169.499 106.101 170.199 106.101C170.899 106.101 170.899 106.301 171.599 106.301C172.299 106.301 172.299 106.301 172.999 106.301C173.699 106.301 173.699 106.301 174.399 106.301C175.099 106.301 175.099 106.101 175.799 106.101C176.499 106.101 176.499 106.401 177.199 106.401C177.899 106.401 177.899 106.001 178.599 106.001C179.299 106.001 179.299 106.101 179.999 106.101C180.699 106.101 180.699 106.301 181.399 106.301C182.099 106.301 182.099 106.101 182.799 106.101C183.499 106.101 183.499 106.301 184.199 106.301C184.899 106.301 184.899 106.001 185.599 106.001C186.299 106.001 186.299 106.101 186.999 106.101C187.699 106.101 187.699 106.101 188.399 106.101C189.099 106.101 189.099 106.301 189.799 106.301C190.499 106.301 190.499 106.001 191.199 106.001C191.899 106.001 191.899 106.201 192.599 106.201C193.299 106.201 193.299 106.101 193.999 106.101C194.699 106.101 194.699 106.401 195.399 106.401C196.099 106.401 196.099 106.001 196.799 106.001C197.499 106.001 197.499 106.301 198.199 106.301C198.899 106.301 198.899 106.401 199.599 106.401C200.299 106.401 200.299 106.401 200.999 106.401C201.699 106.401 201.699 106.401 202.399 106.401C203.099 106.401 203.099 106.301 203.799 106.301C204.499 106.301 204.499 106.101 205.199 106.101C205.899 106.101 205.899 106.001 206.599 106.001C207.299 106.001 207.299 106.201 207.999 106.201C208.699 106.201 208.699 106.301 209.399 106.301C210.099 106.301 210.099 106.201 210.799 106.201C211.499 106.201 211.499 106.201 212.199 106.201C212.899 106.201 213.099 105.601 213.599 106.101C214.099 106.601 213.499 106.801 213.499 107.601C213.499 108.301 213.499 108.301 213.499 109.101C213.499 109.901 213.399 109.901 213.399 110.601C213.399 111.401 214.099 111.601 213.599 112.101C213.099 112.601 212.899 112.201 212.199 112.201C211.499 112.201 211.499 111.901 210.799 111.901C210.099 111.901 210.099 111.901 209.399 111.901C208.699 111.901 208.699 112.301 207.999 112.301C207.299 112.301 207.299 111.901 206.599 111.901C205.899 111.901 205.899 111.901 205.199 111.901C204.499 111.901 204.499 112.001 203.799 112.001C203.099 112.001 203.099 111.901 202.399 111.901C201.699 111.901 201.699 111.901 200.999 111.901C200.299 111.901 200.299 112.201 199.599 112.201C198.899 112.201 198.899 112.101 198.199 112.101C197.499 112.101 197.499 111.901 196.799 111.901C196.099 111.901 196.099 111.901 195.399 111.901C194.699 111.901 194.699 112.201 193.999 112.201C193.299 112.201 193.299 112.001 192.599 112.001C191.899 112.001 191.899 112.001 191.199 112.001C190.499 112.001 190.499 112.101 189.799 112.101C189.099 112.101 189.099 112.101 188.399 112.101C187.699 112.101 187.699 112.301 186.999 112.301C186.299 112.301 186.299 112.201 185.599 112.201C184.899 112.201 184.899 112.201 184.199 112.201C183.499 112.201 183.499 112.101 182.799 112.101C182.099 112.101 182.099 112.101 181.399 112.101C180.699 112.101 180.699 112.101 179.999 112.101C179.299 112.101 179.299 112.301 178.599 112.301C177.899 112.301 177.899 112.401 177.199 112.401C176.499 112.401 176.499 112.001 175.799 112.001C175.099 112.001 175.099 112.301 174.399 112.301C173.699 112.301 173.699 112.301 172.999 112.301C172.299 112.301 172.299 112.201 171.599 112.201C170.899 112.201 170.899 112.001 170.199 112.001C169.499 112.001 169.499 112.201 168.799 112.201C168.099 112.201 168.099 112.201 167.399 112.201C166.699 112.201 166.699 112.201 165.999 112.201C165.299 112.201 165.299 112.301 164.599 112.301C163.899 112.301 163.899 112.101 163.199 112.101C162.499 112.101 162.499 112.001 161.799 112.001C161.099 112.001 161.099 112.201 160.399 112.201C159.699 112.201 159.699 112.401 158.999 112.401C158.299 112.401 158.299 112.101 157.599 112.101C156.899 112.101 156.899 112.201 156.199 112.201C155.499 112.201 155.499 112.101 154.799 112.101C154.099 112.101 154.099 112.101 153.399 112.101C152.699 112.101 152.699 112.201 151.999 112.201C151.299 112.201 151.299 112.001 150.599 112.001C149.899 112.001 149.899 112.301 149.199 112.301C148.499 112.301 148.499 112.401 147.799 112.401C147.099 112.401 147.099 112.101 146.399 112.101C145.699 112.101 145.699 112.101 144.999 112.101C144.299 112.101 144.299 112.201 143.599 112.201C142.899 112.201 142.899 112.001 142.199 112.001C141.499 112.001 141.499 112.301 140.799 112.301C140.099 112.301 140.099 112.301 139.399 112.301C138.699 112.301 138.699 112.301 137.999 112.301C137.299 112.301 137.299 112.101 136.599 112.101C135.899 112.101 135.899 112.001 135.199 112.001C134.499 112.001 134.499 112.301 133.799 112.301C133.099 112.301 133.099 112.101 132.399 112.101C131.699 112.101 131.699 111.901 130.999 111.901C130.299 111.901 130.299 112.101 129.599 112.101C128.899 112.101 128.899 112.001 128.199 112.001C127.499 112.001 127.499 111.901 126.799 111.901C126.099 111.901 126.099 112.101 125.399 112.101C124.699 112.101 124.699 112.001 123.999 112.001C123.299 112.001 123.299 111.801 122.599 111.801C121.899 111.801 121.899 111.901 121.199 111.901C120.499 111.901 120.499 112.101 119.799 112.101C119.099 112.101 119.099 112.101 118.399 112.101C117.699 112.101 117.699 111.901 116.999 111.901C116.299 111.901 116.299 111.901 115.599 111.901C114.899 111.901 114.899 111.901 114.199 111.901C113.499 111.901 113.499 112.301 112.799 112.301C112.099 112.301 112.099 112.201 111.399 112.201C110.699 112.201 110.399 112.601 109.899 112.101C109.399 111.601 109.699 111.301 109.699 110.601C109.699 109.901 109.999 109.901 109.999 109.101C109.999 108.301 109.899 108.401 109.699 107.601C109.599 106.701 109.399 106.401 109.899 105.901Z" fill="#CBCCD0"/>
<path d="M109.999 122C110.499 121.5 110.699 121.9 111.399 121.9C112.099 121.9 112.099 121.9 112.799 121.9C113.499 121.9 113.499 122.1 114.199 122.1C114.899 122.1 114.899 122.1 115.699 122.1C116.399 122.1 116.399 122 117.199 122C117.899 122 117.899 122.1 118.599 122.1C119.299 122.1 119.299 122.1 119.999 122.1C120.699 122.1 120.699 122.2 121.399 122.2C122.099 122.2 122.099 122 122.799 122C123.499 122 123.499 122 124.199 122C124.899 122 124.899 122.2 125.699 122.2C126.399 122.2 126.399 122.2 127.199 122.2C127.899 122.2 127.899 122.2 128.599 122.2C129.299 122.2 129.299 122.2 129.999 122.2C130.699 122.2 130.699 122.2 131.399 122.2C132.099 122.2 132.099 122 132.899 122C133.599 122 133.599 122 134.299 122C134.999 122 134.999 122 135.699 122C136.399 122 136.399 122.1 137.099 122.1C137.799 122.1 137.799 122.1 138.499 122.1C139.199 122.1 139.199 122.1 139.899 122.1C140.599 122.1 140.599 122.3 141.399 122.3C142.099 122.3 142.099 122.1 142.799 122.1C143.499 122.1 143.499 122.2 144.199 122.2C144.899 122.2 144.899 122.3 145.599 122.3C146.299 122.3 146.299 122.1 146.999 122.1C147.699 122.1 147.699 122 148.399 122C149.099 122 149.099 122.1 149.899 122.1C150.599 122.1 150.599 122.2 151.399 122.2C152.099 122.2 152.099 122.2 152.899 122.2C153.599 122.2 153.599 122.2 154.299 122.2C154.999 122.2 154.999 122.1 155.799 122.1C156.499 122.1 156.499 122.2 157.299 122.2C157.999 122.2 157.999 122.1 158.799 122.1C159.499 122.1 159.499 122.1 160.299 122.1C160.999 122.1 160.999 122.3 161.799 122.3C162.499 122.3 162.499 122.1 163.299 122.1C163.999 122.1 163.999 122.3 164.799 122.3C165.499 122.3 165.499 122.2 166.299 122.2C166.999 122.2 166.999 122.3 167.799 122.3C168.499 122.3 168.499 122.1 169.299 122.1C169.999 122.1 169.999 122.2 170.799 122.2C171.499 122.2 171.499 122.4 172.299 122.4C172.999 122.4 172.999 122.3 173.799 122.3C174.499 122.3 174.499 122.2 175.299 122.2C175.999 122.2 175.999 122.3 176.799 122.3C177.499 122.3 177.499 122.1 178.299 122.1C178.999 122.1 178.999 122.3 179.799 122.3C180.499 122.3 180.499 122.1 181.299 122.1C181.999 122.1 181.999 122.1 182.799 122.1C183.599 122.1 183.799 121.6 184.299 122.1C184.799 122.6 184.199 122.9 184.199 123.6C184.199 124.3 184.299 124.3 184.299 125.1C184.299 125.9 184.399 125.9 184.399 126.6C184.399 127.4 184.899 127.6 184.399 128.1C183.899 128.6 183.599 128.2 182.899 128.2C182.199 128.2 182.199 128 181.499 128C180.799 128 180.799 128.2 180.099 128.2C179.399 128.2 179.399 128.1 178.599 128.1C177.899 128.1 177.899 128.1 177.099 128.1C176.399 128.1 176.399 128.1 175.699 128.1C174.999 128.1 174.999 128.2 174.299 128.2C173.599 128.2 173.599 128.3 172.899 128.3C172.199 128.3 172.199 128 171.499 128C170.799 128 170.799 128.2 170.099 128.2C169.399 128.2 169.399 127.9 168.599 127.9C167.899 127.9 167.899 128 167.099 128C166.399 128 166.399 128.1 165.699 128.1C164.999 128.1 164.999 128.1 164.299 128.1C163.599 128.1 163.599 128 162.899 128C162.199 128 162.199 128 161.399 128C160.699 128 160.699 127.9 159.999 127.9C159.299 127.9 159.299 128 158.599 128C157.899 128 157.899 128 157.199 128C156.499 128 156.499 128 155.799 128C155.099 128 155.099 128 154.399 128C153.699 128 153.699 128.1 152.899 128.1C152.199 128.1 152.199 128.2 151.499 128.2C150.799 128.2 150.799 128 150.099 128C149.399 128 149.399 128.2 148.699 128.2C147.999 128.2 147.999 128.1 147.299 128.1C146.599 128.1 146.599 128.1 145.899 128.1C145.199 128.1 145.199 128.1 144.399 128.1C143.699 128.1 143.699 128 142.899 128C142.199 128 142.199 128.2 141.399 128.2C140.699 128.2 140.699 128.2 139.999 128.2C139.299 128.2 139.299 128.1 138.499 128.1C137.799 128.1 137.799 128 136.999 128C136.299 128 136.299 128.2 135.499 128.2C134.799 128.2 134.799 128 133.999 128C133.299 128 133.299 128.1 132.499 128.1C131.799 128.1 131.799 128 130.999 128C130.299 128 130.299 128 129.499 128C128.799 128 128.799 128.2 127.999 128.2C127.299 128.2 127.299 128.3 126.499 128.3C125.799 128.3 125.799 128.1 124.999 128.1C124.299 128.1 124.299 128.2 123.499 128.2C122.799 128.2 122.799 128.3 121.999 128.3C121.299 128.3 121.299 128.3 120.499 128.3C119.799 128.3 119.799 128.2 118.999 128.2C118.299 128.2 118.299 128.2 117.499 128.2C116.799 128.2 116.799 128.1 115.999 128.1C115.299 128.1 115.299 128.1 114.499 128.1C113.799 128.1 113.799 128.2 112.999 128.2C112.299 128.2 112.299 128.2 111.499 128.2C110.799 128.2 110.499 128.7 109.999 128.2C109.499 127.7 110.099 127.4 110.099 126.6C110.099 125.9 110.099 125.9 110.099 125.1C110.099 124.3 110.299 124.3 110.099 123.6C109.899 122.7 109.499 122.5 109.999 122Z" fill="#CBCCD0"/>
<path d="M192 122C192.5 121.5 192.7 121.9 193.4 121.9C194.1 121.9 194.1 122 194.8 122C195.5 122 195.5 121.9 196.2 121.9C196.9 121.9 196.9 121.9 197.6 121.9C198.3 121.9 198.3 122.1 199 122.1C199.7 122.1 199.7 122.1 200.4 122.1C201.1 122.1 201.1 122 201.8 122C202.5 122 202.5 122 203.2 122C203.9 122 203.9 121.9 204.6 121.9C205.3 121.9 205.3 121.9 206 121.9C206.7 121.9 206.7 121.9 207.4 121.9C208.1 121.9 208.1 122 208.8 122C209.5 122 209.5 121.9 210.2 121.9C210.9 121.9 210.9 122 211.6 122C212.3 122 212.3 121.9 213 121.9C213.7 121.9 213.7 121.9 214.4 121.9C215.1 121.9 215.1 121.9 215.8 121.9C216.5 121.9 216.5 121.9 217.2 121.9C217.9 121.9 217.9 121.9 218.7 121.9C219.4 121.9 219.4 121.9 220.1 121.9C220.8 121.9 220.8 122 221.5 122C222.2 122 222.2 121.9 223 121.9C223.7 121.9 223.7 122 224.4 122C225.1 122 225.1 122 225.9 122C226.6 122 226.6 121.9 227.4 121.9C228.1 121.9 228.1 122 228.8 122C229.5 122 229.5 122.1 230.3 122.1C231 122.1 231 122.1 231.8 122.1C232.5 122.1 232.7 121.6 233.2 122.1C233.7 122.6 233.2 122.8 233.2 123.5C233.2 124.2 233.2 124.2 233.2 125C233.2 125.8 233.2 125.8 233.2 126.5C233.2 127.3 233.8 127.5 233.3 128.1C232.8 128.6 232.5 128 231.8 128C231.1 128 231.1 128 230.4 128C229.7 128 229.7 128.1 229 128.1C228.3 128.1 228.3 128 227.6 128C226.9 128 226.9 128 226.2 128C225.5 128 225.5 128.1 224.8 128.1C224.1 128.1 224.1 128.1 223.4 128.1C222.7 128.1 222.7 128 222 128C221.3 128 221.3 128.1 220.6 128.1C219.9 128.1 219.9 128.1 219.2 128.1C218.5 128.1 218.5 128.1 217.8 128.1C217.1 128.1 217.1 128 216.4 128C215.7 128 215.7 128 215 128C214.3 128 214.3 127.9 213.6 127.9C212.9 127.9 212.9 127.9 212.2 127.9C211.5 127.9 211.5 128 210.8 128C210.1 128 210.1 128 209.4 128C208.7 128 208.7 128 208 128C207.3 128 207.3 127.8 206.5 127.8C205.8 127.8 205.8 127.9 205.1 127.9C204.4 127.9 204.4 127.9 203.7 127.9C203 127.9 203 127.9 202.2 127.9C201.5 127.9 201.5 127.8 200.8 127.8C200.1 127.8 200.1 127.8 199.3 127.8C198.6 127.8 198.6 127.8 197.8 127.8C197.1 127.8 197.1 127.8 196.4 127.8C195.7 127.8 195.7 127.9 194.9 127.9C194.2 127.9 194.2 127.8 193.4 127.8C192.7 127.8 192.4 128.4 191.9 127.9C191.4 127.4 192 127.1 192 126.4C192 125.7 191.9 125.7 191.9 124.9C191.9 124.1 192.1 124.1 192 123.4C191.9 122.7 191.5 122.6 192 122Z" fill="#CBCCD0"/>
<path d="M110 73.9996C110.5 73.4996 110.7 73.9996 111.4 73.9996C112.1 73.9996 112.1 73.9996 112.8 73.9996C113.5 73.9996 113.5 73.9996 114.2 73.9996C114.9 73.9996 114.9 73.9996 115.6 73.9996C116.3 73.9996 116.3 73.9996 117 73.9996C117.7 73.9996 117.7 73.9996 118.4 73.9996C119.1 73.9996 119.1 73.8996 119.8 73.8996C120.5 73.8996 120.5 73.8996 121.2 73.8996C121.9 73.8996 121.9 73.8996 122.6 73.8996C123.3 73.8996 123.3 73.8996 124 73.8996C124.7 73.8996 124.7 73.8996 125.4 73.8996C126.1 73.8996 126.1 73.9996 126.8 73.9996C127.5 73.9996 127.5 73.9996 128.2 73.9996C128.9 73.9996 128.9 74.0996 129.6 74.0996C130.3 74.0996 130.3 73.9996 131 73.9996C131.7 73.9996 131.7 74.0996 132.4 74.0996C133.1 74.0996 133.1 74.0996 133.8 74.0996C134.5 74.0996 134.5 73.9996 135.2 73.9996C135.9 73.9996 135.9 73.9996 136.6 73.9996C137.3 73.9996 137.3 73.9996 138 73.9996C138.7 73.9996 138.7 73.9996 139.4 73.9996C140.1 73.9996 140.1 74.0996 140.8 74.0996C141.5 74.0996 141.5 74.0996 142.2 74.0996C142.9 74.0996 143.1 73.4996 143.6 73.9996C144.1 74.4996 143.5 74.7996 143.5 75.4996C143.5 76.1996 143.5 76.1996 143.5 76.9996C143.5 77.7996 143.6 77.7996 143.6 78.4996C143.6 79.2996 144.1 79.4996 143.5 79.9996C143 80.4996 142.8 79.9996 142.1 79.9996C141.4 79.9996 141.4 79.9996 140.7 79.9996C140 79.9996 140 80.0996 139.3 80.0996C138.6 80.0996 138.6 79.9996 137.9 79.9996C137.2 79.9996 137.2 79.9996 136.5 79.9996C135.8 79.9996 135.8 80.0996 135.1 80.0996C134.4 80.0996 134.4 79.9996 133.7 79.9996C133 79.9996 133 79.9996 132.3 79.9996C131.6 79.9996 131.6 80.0996 130.9 80.0996C130.2 80.0996 130.2 79.9996 129.5 79.9996C128.8 79.9996 128.8 79.9996 128.1 79.9996C127.4 79.9996 127.4 80.0996 126.7 80.0996C126 80.0996 126 80.0996 125.3 80.0996C124.6 80.0996 124.6 79.9996 123.9 79.9996C123.2 79.9996 123.2 79.9996 122.5 79.9996C121.8 79.9996 121.8 80.0996 121.1 80.0996C120.4 80.0996 120.4 79.9996 119.7 79.9996C119 79.9996 119 80.0996 118.3 80.0996C117.6 80.0996 117.6 80.0996 116.9 80.0996C116.2 80.0996 116.2 80.0996 115.5 80.0996C114.8 80.0996 114.8 80.0996 114.1 80.0996C113.4 80.0996 113.4 80.1996 112.7 80.1996C112 80.1996 112 80.0996 111.3 80.0996C110.6 80.0996 110.4 80.6996 109.9 80.1996C109.4 79.6996 109.9 79.3996 109.9 78.6996C109.9 77.9996 109.9 77.9996 109.9 77.1996C109.9 76.3996 110.1 76.3996 110 75.6996C109.9 74.6996 109.5 74.4996 110 73.9996Z" fill="#CBCCD0"/>
<path d="M151.999 74.0001C152.499 73.5001 152.699 74.0001 153.399 74.0001C154.099 74.0001 154.099 74.1001 154.899 74.1001C155.599 74.1001 155.599 74.1001 156.399 74.1001C157.099 74.1001 157.099 74.2001 157.899 74.2001C158.599 74.2001 158.599 74.1001 159.399 74.1001C160.099 74.1001 160.099 74.1001 160.899 74.1001C161.599 74.1001 161.599 74.1001 162.399 74.1001C163.099 74.1001 163.099 74.1001 163.899 74.1001C164.599 74.1001 164.599 74.0001 165.399 74.0001C166.099 74.0001 166.099 74.0001 166.899 74.0001C167.599 74.0001 167.599 74.0001 168.399 74.0001C169.099 74.0001 169.099 74.1001 169.899 74.1001C170.599 74.1001 170.599 74.0001 171.399 74.0001C172.099 74.0001 172.099 74.0001 172.899 74.0001C173.599 74.0001 173.599 74.0001 174.399 74.0001C175.099 74.0001 175.099 73.9001 175.899 73.9001C176.599 73.9001 176.599 73.9001 177.399 73.9001C178.099 73.9001 178.099 74.0001 178.899 74.0001C179.599 74.0001 179.599 74.0001 180.399 74.0001C181.099 74.0001 181.099 73.9001 181.899 73.9001C182.599 73.9001 182.599 73.9001 183.399 73.9001C184.099 73.9001 184.099 74.0001 184.899 74.0001C185.599 74.0001 185.599 73.9001 186.399 73.9001C187.099 73.9001 187.099 73.9001 187.899 73.9001C188.599 73.9001 188.599 74.0001 189.399 74.0001C190.199 74.0001 190.399 73.4001 190.899 73.9001C191.399 74.4001 190.999 74.7001 190.999 75.4001C190.999 76.1001 190.999 76.1001 190.999 76.9001C190.999 77.7001 190.899 77.7001 190.899 78.4001C190.899 79.2001 191.399 79.4001 190.899 79.9001C190.399 80.4001 190.199 80.0001 189.499 80.0001C188.799 80.0001 188.799 80.0001 187.999 80.0001C187.299 80.0001 187.299 80.1001 186.499 80.1001C185.799 80.1001 185.799 80.0001 184.999 80.0001C184.299 80.0001 184.299 80.1001 183.499 80.1001C182.799 80.1001 182.799 80.0001 181.999 80.0001C181.299 80.0001 181.299 80.1001 180.499 80.1001C179.799 80.1001 179.799 80.0001 178.999 80.0001C178.299 80.0001 178.299 80.1001 177.499 80.1001C176.799 80.1001 176.799 80.0001 175.999 80.0001C175.299 80.0001 175.299 80.0001 174.499 80.0001C173.799 80.0001 173.799 80.0001 172.999 80.0001C172.299 80.0001 172.299 80.0001 171.499 80.0001C170.799 80.0001 170.799 80.1001 169.999 80.1001C169.299 80.1001 169.299 80.1001 168.499 80.1001C167.799 80.1001 167.799 80.0001 166.999 80.0001C166.299 80.0001 166.299 80.1001 165.499 80.1001C164.799 80.1001 164.799 80.1001 163.999 80.1001C163.299 80.1001 163.299 80.0001 162.499 80.0001C161.799 80.0001 161.799 80.0001 160.999 80.0001C160.299 80.0001 160.299 80.0001 159.499 80.0001C158.799 80.0001 158.799 80.1001 157.999 80.1001C157.299 80.1001 157.299 80.2001 156.499 80.2001C155.799 80.2001 155.799 80.1001 154.999 80.1001C154.299 80.1001 154.299 80.2001 153.499 80.2001C152.699 80.2001 152.599 80.7001 151.999 80.2001C151.499 79.7001 151.999 79.5001 151.999 78.7001C151.999 78.0001 152.099 78.0001 152.099 77.2001C152.099 76.4001 152.199 76.4001 152.099 75.7001C151.899 74.7001 151.499 74.6001 151.999 74.0001Z" fill="#CBCCD0"/>
<path d="M200.001 73.9997C200.501 73.4997 200.801 74.0997 201.501 74.0997C202.201 74.0997 202.201 73.9997 202.901 73.9997C203.601 73.9997 203.601 74.0997 204.301 74.0997C205.001 74.0997 205.001 73.9997 205.701 73.9997C206.401 73.9997 206.401 73.9997 207.101 73.9997C207.801 73.9997 207.801 74.0997 208.501 74.0997C209.201 74.0997 209.201 74.0997 209.901 74.0997C210.601 74.0997 210.601 74.1997 211.301 74.1997C212.001 74.1997 212.001 74.0997 212.701 74.0997C213.401 74.0997 213.401 74.1997 214.101 74.1997C214.801 74.1997 214.801 74.1997 215.501 74.1997C216.201 74.1997 216.201 74.1997 216.901 74.1997C217.601 74.1997 217.601 74.1997 218.301 74.1997C219.001 74.1997 219.001 74.0997 219.701 74.0997C220.401 74.0997 220.401 74.0997 221.101 74.0997C221.801 74.0997 221.801 74.0997 222.501 74.0997C223.201 74.0997 223.201 74.0997 223.901 74.0997C224.601 74.0997 224.601 74.1997 225.301 74.1997C226.001 74.1997 226.001 74.1997 226.701 74.1997C227.401 74.1997 227.401 74.1997 228.101 74.1997C228.801 74.1997 228.801 74.1997 229.501 74.1997C230.201 74.1997 230.201 74.1997 230.901 74.1997C231.601 74.1997 231.601 74.1997 232.301 74.1997C233.001 74.1997 233.201 73.6997 233.701 74.2997C234.201 74.7997 233.701 74.9997 233.701 75.7997C233.701 76.4997 233.701 76.4997 233.701 77.2997C233.701 78.0997 233.801 78.0997 233.801 78.7997C233.801 79.5997 234.201 79.6997 233.701 80.2997C233.201 80.7997 233.001 80.2997 232.301 80.2997C231.601 80.2997 231.601 80.3997 230.901 80.3997C230.201 80.3997 230.201 80.4997 229.501 80.4997C228.801 80.4997 228.801 80.4997 228.101 80.4997C227.401 80.4997 227.401 80.3997 226.701 80.3997C226.001 80.3997 226.001 80.3997 225.301 80.3997C224.601 80.3997 224.601 80.4997 223.901 80.4997C223.201 80.4997 223.201 80.3997 222.501 80.3997C221.801 80.3997 221.801 80.2997 221.101 80.2997C220.401 80.2997 220.401 80.3997 219.701 80.3997C219.001 80.3997 219.001 80.2997 218.301 80.2997C217.601 80.2997 217.601 80.3997 216.901 80.3997C216.201 80.3997 216.201 80.3997 215.501 80.3997C214.801 80.3997 214.801 80.3997 214.101 80.3997C213.401 80.3997 213.401 80.3997 212.701 80.3997C212.001 80.3997 212.001 80.3997 211.301 80.3997C210.601 80.3997 210.601 80.2997 209.901 80.2997C209.201 80.2997 209.201 80.2997 208.501 80.2997C207.801 80.2997 207.801 80.3997 207.101 80.3997C206.401 80.3997 206.401 80.3997 205.701 80.3997C205.001 80.3997 205.001 80.2997 204.301 80.2997C203.601 80.2997 203.601 80.2997 202.901 80.2997C202.201 80.2997 202.201 80.2997 201.501 80.2997C200.801 80.2997 200.601 80.7997 200.101 80.2997C199.601 79.7997 200.101 79.5997 200.101 78.7997C200.101 78.0997 200.101 78.0997 200.101 77.2997C200.101 76.4997 200.201 76.4997 200.101 75.7997C199.801 74.6997 199.401 74.4997 200.001 73.9997Z" fill="#CBCCD0"/>
<path d="M208 57.9995C208.5 57.4995 208.7 57.8995 209.4 57.8995C210.1 57.8995 210.1 57.8995 210.8 57.8995C211.5 57.8995 211.5 57.8995 212.2 57.8995C212.9 57.8995 212.9 57.8995 213.6 57.8995C214.3 57.8995 214.3 57.9995 215 57.9995C215.7 57.9995 215.7 57.8995 216.4 57.8995C217.1 57.8995 217.1 57.8995 217.8 57.8995C218.5 57.8995 218.5 57.8995 219.2 57.8995C219.9 57.8995 219.9 57.8995 220.6 57.8995C221.3 57.8995 221.3 57.9995 222 57.9995C222.7 57.9995 222.7 57.9995 223.4 57.9995C224.1 57.9995 224.1 58.0995 224.8 58.0995C225.5 58.0995 225.5 58.0995 226.2 58.0995C226.9 58.0995 226.9 57.9995 227.6 57.9995C228.3 57.9995 228.3 58.0995 229 58.0995C229.7 58.0995 229.7 58.0995 230.4 58.0995C231.1 58.0995 231.1 57.9995 231.9 57.9995C232.7 57.9995 232.8 57.4995 233.4 58.0995C233.9 58.5995 233.4 58.7995 233.4 59.5995C233.4 60.2995 233.4 60.2995 233.4 61.0995C233.4 61.8995 233.4 61.8995 233.4 62.5995C233.4 63.3995 233.9 63.5995 233.4 64.0995C232.9 64.5995 232.7 64.0995 231.9 64.0995C231.2 64.0995 231.2 64.0995 230.5 64.0995C229.8 64.0995 229.8 64.0995 229.1 64.0995C228.4 64.0995 228.4 64.1995 227.7 64.1995C227 64.1995 227 64.1995 226.3 64.1995C225.6 64.1995 225.6 64.1995 224.9 64.1995C224.2 64.1995 224.2 64.1995 223.5 64.1995C222.8 64.1995 222.8 64.2995 222.1 64.2995C221.4 64.2995 221.4 64.2995 220.7 64.2995C220 64.2995 220 64.2995 219.3 64.2995C218.6 64.2995 218.6 64.2995 217.9 64.2995C217.2 64.2995 217.2 64.2995 216.5 64.2995C215.8 64.2995 215.8 64.3995 215.1 64.3995C214.4 64.3995 214.4 64.3995 213.7 64.3995C213 64.3995 213 64.3995 212.3 64.3995C211.6 64.3995 211.6 64.3995 210.9 64.3995C210.2 64.3995 210.2 64.3995 209.4 64.3995C208.7 64.3995 208.4 64.8995 207.9 64.3995C207.4 63.8995 207.9 63.5995 207.9 62.8995C207.9 62.1995 207.9 62.1995 207.9 61.3995C207.9 60.5995 208.1 60.5995 207.9 59.8995C207.9 58.6995 207.5 58.5995 208 57.9995Z" fill="#CBCCD0"/>
<path d="M215 154C215.5 153.5 215.7 154 216.5 154C217.2 154 217.2 154.1 218 154.1C218.7 154.1 218.7 154 219.5 154C220.2 154 220.2 154.1 221 154.1C221.7 154.1 221.7 154.1 222.5 154.1C223.2 154.1 223.2 154.1 224 154.1C224.7 154.1 224.7 154.1 225.5 154.1C226.2 154.1 226.2 154.1 227 154.1C227.7 154.1 227.7 154.1 228.5 154.1C229.2 154.1 229.2 154.1 230 154.1C230.7 154.1 230.7 154.2 231.5 154.2C232.2 154.2 232.2 154.2 233 154.2C233.7 154.2 234 153.6 234.5 154.2C235 154.7 234.5 154.9 234.5 155.7C234.5 156.4 234.5 156.4 234.5 157.2C234.5 158 234.5 158 234.5 158.7C234.5 159.5 235 159.7 234.5 160.2C234 160.7 233.8 160.2 233 160.2C232.3 160.2 232.3 160.2 231.5 160.2C230.8 160.2 230.8 160.2 230 160.2C229.3 160.2 229.3 160.2 228.5 160.2C227.8 160.2 227.8 160.2 227 160.2C226.3 160.2 226.3 160.2 225.5 160.2C224.8 160.2 224.8 160.2 224 160.2C223.3 160.2 223.3 160.2 222.5 160.2C221.8 160.2 221.8 160.2 221 160.2C220.3 160.2 220.3 160.2 219.5 160.2C218.8 160.2 218.8 160.2 218 160.2C217.3 160.2 217.3 160.2 216.5 160.2C215.8 160.2 215.6 160.7 215 160.2C214.5 159.7 215 159.5 215 158.7C215 158 215 158 215 157.2C215 156.4 215.1 156.4 215 155.7C214.8 154.7 214.5 154.5 215 154Z" fill="#CBCCD0"/>
</g>
</svg>
