<svg width="80" height="80" viewBox="0 0 80 80" fill="none" xmlns="http://www.w3.org/2000/svg">
<path fill-rule="evenodd" clip-rule="evenodd" d="M0.986947 7.23422C-3.72529e-07 9.51492 -2.53999e-07 12.4233 2.57986e-10 18.24L9.51418e-07 40L1.90258e-06 61.76C2.15683e-06 67.5767 0 70.4851 0.986947 72.7658C2.19911 75.5669 4.43309 77.8009 7.23423 79.0131C9.51492 80 12.4233 80 18.24 80H40H61.76C67.5767 80 70.4851 80 72.7658 79.0131C75.5669 77.8009 77.8009 75.5669 79.0131 72.7658C80 70.4851 80 67.5767 80 61.76V40V18.24C80 12.4233 80 9.51492 79.0131 7.23422C77.8009 4.43309 75.5669 2.1991 72.7658 0.986942C70.4851 -4.47035e-07 67.5767 -2.53999e-07 61.76 2.58033e-10L40 9.51418e-07L18.24 1.90258e-06C12.4233 2.15684e-06 9.375 1.93715e-06 7.23423 0.986945C4.43309 2.19911 2.19911 4.43309 0.986947 7.23422ZM52.7711 34.4643C48.7788 34.4643 45.5416 31.2272 45.5416 27.2341C45.5416 23.2429 48.7788 20.0059 52.7711 20.0059C56.7633 20.0059 60.0005 23.2429 60.0005 27.2341C60.0005 31.2272 56.7633 34.4643 52.7711 34.4643ZM34.4525 27.2334C34.4525 31.2239 31.2169 34.4596 27.2255 34.4596C23.2361 34.4596 20.0005 31.2239 20.0005 27.2334C20.0005 23.2429 23.2361 20.0072 27.2255 20.0072C31.2169 20.0072 34.4525 23.2429 34.4525 27.2334ZM52.7718 45.5639C48.7786 45.5639 45.5415 48.8011 45.5415 52.7934C45.5415 56.7856 48.7786 60.0228 52.7718 60.0228C56.7629 60.0228 60 56.7856 60 52.7934C60 48.8011 56.7629 45.5639 52.7718 45.5639ZM27.2261 45.571C31.2166 45.571 34.4522 48.8066 34.4522 52.7979C34.4522 56.7872 31.2166 60.0228 27.2261 60.0228C23.2357 60.0228 20 56.7872 20 52.7979C20 48.8066 23.2357 45.571 27.2261 45.571Z" fill="#211F6D"/>
</svg>
