<svg width="344" height="268" viewBox="0 0 344 268" fill="none" xmlns="http://www.w3.org/2000/svg">
<mask id="mask0" mask-type="alpha" maskUnits="userSpaceOnUse" x="0" y="0" width="344" height="268">
<path d="M344 0H0V268H344V0Z" fill="#0C6DFF"/>
</mask>
<g mask="url(#mask0)">
<path d="M344 0H0V268H344V0Z" fill="#9985FF"/>
<path d="M344 206.099C343.1 206.099 343.1 206.099 342.2 206.099C341.3 206.099 341.3 205.699 340.4 205.699C339.5 205.699 339.5 206.199 338.6 206.199C337.7 206.199 337.7 205.599 336.8 205.599C335.9 205.599 335.9 205.999 335 205.999C334.1 205.999 334.1 206.499 333.2 206.499C332.3 206.499 332.3 206.199 331.4 206.199C330.5 206.199 330.5 206.399 329.6 206.399C328.7 206.399 328.7 206.399 327.8 206.399C326.9 206.399 326.9 206.299 326 206.299C325.1 206.299 325.1 206.399 324.2 206.399C323.3 206.399 323.3 205.999 322.4 205.999C321.5 205.999 321.5 205.599 320.6 205.599C319.7 205.599 319.7 206.399 318.8 206.399C317.9 206.399 317.9 205.699 317 205.699C316.1 205.699 316.1 206.399 315.2 206.399C314.3 206.399 314.3 206.499 313.4 206.499C312.5 206.499 312.5 205.499 311.6 205.499C310.7 205.499 310.7 205.999 309.8 205.999C308.9 205.999 308.9 206.099 308 206.099C307.1 206.099 307.1 206.099 306.2 206.099C305.3 206.099 305.3 206.199 304.4 206.199C303.5 206.199 303.5 206.399 302.6 206.399C301.7 206.399 301.7 205.699 300.8 205.699C299.9 205.699 299.9 205.999 299 205.999C298.1 205.999 298.1 205.899 297.2 205.899C296.3 205.899 296.3 205.699 295.4 205.699C294.5 205.699 294.5 206.199 293.6 206.199C292.7 206.199 292.7 205.899 291.8 205.899C290.9 205.899 290.9 206.599 290 206.599C289.1 206.599 289.1 205.899 288.2 205.899C287.3 205.899 287.3 205.799 286.4 205.799C285.5 205.799 285.5 205.699 284.6 205.699C283.7 205.699 283.7 205.799 282.8 205.799C281.9 205.799 281.9 206.099 281 206.099C280.1 206.099 280.1 206.499 279.2 206.499C278.3 206.499 278.3 206.199 277.4 206.199" stroke="white" stroke-width="6" stroke-linejoin="round"/>
<path d="M33.9988 118.701C33.0988 118.701 33.0988 118.501 32.1988 118.501C31.2988 118.501 31.2988 119.001 30.3988 119.001C29.4988 119.001 29.4988 118.701 28.5988 118.701C27.6988 118.701 27.6988 119.201 26.7988 119.201C25.8988 119.201 25.8988 118.501 24.9988 118.501C24.0988 118.501 24.0988 119.001 23.1988 119.001C22.2988 119.001 22.2988 119.201 21.3988 119.201C20.4988 119.201 20.4988 119.301 19.5988 119.301C18.6988 119.301 18.6988 119.201 17.7988 119.201C16.8988 119.201 16.8988 118.801 15.9988 118.801C15.0988 118.801 15.0988 119.101 14.1988 119.101C13.2988 119.101 13.2988 119.301 12.3988 119.301C11.4988 119.301 11.4988 119.301 10.5988 119.301C9.69883 119.301 9.69883 119.301 8.79883 119.301C7.89883 119.301 7.89883 118.801 6.99883 118.801C6.09883 118.801 6.09883 119.101 5.19883 119.101C4.29883 119.101 4.29883 118.501 3.39883 118.501C2.49883 118.501 2.49883 118.401 1.59883 118.401C0.698828 118.401 0.698828 118.701 -0.201172 118.701" stroke="white" stroke-width="6" stroke-linejoin="round"/>
<path d="M277.999 200.6C280.999 200.6 283.099 203 283.099 206C283.099 209 280.999 211.3 277.999 211.3C274.999 211.3 272.299 209 272.299 206C272.299 203 274.999 200.6 277.999 200.6Z" fill="white"/>
<path d="M277.999 200.6C280.999 200.6 283.099 203 283.099 206C283.099 209 280.999 211.3 277.999 211.3C274.999 211.3 272.299 209 272.299 206C272.299 203 274.999 200.6 277.999 200.6Z" stroke="#8F00FF" stroke-width="5"/>
<path d="M34.0004 113.1C37.0004 113.1 39.2004 116 39.2004 119C39.2004 122 37.1004 124.3 34.0004 124.3C30.9004 124.3 28.4004 122 28.4004 119C28.4004 116 31.0004 113.1 34.0004 113.1Z" fill="white"/>
<path d="M34.0004 113.1C37.0004 113.1 39.2004 116 39.2004 119C39.2004 122 37.1004 124.3 34.0004 124.3C30.9004 124.3 28.4004 122 28.4004 119C28.4004 116 31.0004 113.1 34.0004 113.1Z" stroke="#8F00FF" stroke-width="5"/>
<path d="M212.3 272.001C212.3 271.101 212 271.101 212 270.201C212 269.301 211.8 269.301 211.8 268.401C211.8 267.501 212.4 267.501 212.4 266.601C212.4 265.701 212.3 265.701 212.3 264.801C212.3 263.901 212.2 263.901 212.2 263.001C212.2 262.101 211.6 262.101 211.6 261.201C211.6 260.301 211.8 260.301 211.8 259.401C211.8 258.501 212.1 258.501 212.1 257.601C212.1 256.701 211.9 256.701 211.9 255.801C211.9 254.901 211.5 254.901 211.5 254.001C211.5 253.101 212 253.101 212 252.201C212 251.301 211.5 251.301 211.5 250.401C211.5 249.501 212.4 249.501 212.4 248.601C212.4 247.701 212.2 247.701 212.2 246.801C212.2 245.901 212.2 245.901 212.2 245.001C212.2 244.101 212.3 244.101 212.3 243.201C212.3 242.301 212.2 242.301 212.2 241.401C212.2 240.501 212.2 240.501 212.2 239.601C212.2 238.701 211.8 238.701 211.8 237.801C211.8 236.901 212 236.901 212 236.001C212 235.101 211.9 235.101 211.9 234.201C211.9 233.301 211.9 233.301 211.9 232.401C211.9 231.501 211.9 231.501 211.9 230.601C211.9 229.701 212 229.701 212 228.801C212 227.901 211.5 227.901 211.5 227.001C211.5 226.101 211.8 226.101 211.8 225.201C211.8 224.301 212.2 224.301 212.2 223.401C212.2 222.501 212.3 222.501 212.3 221.601C212.3 220.701 211.7 220.701 211.7 219.801C211.7 218.901 211.3 218.901 211.3 218.001C211.3 217.101 212 217.101 212 216.201C212 215.301 211.9 215.301 211.9 214.401C211.9 213.501 211.5 213.501 211.5 212.601C211.5 211.701 211.7 211.701 211.7 210.801C211.7 209.901 211.7 209.901 211.7 209.001C211.7 208.101 211.9 208.101 211.9 207.201C211.9 206.301 211.5 206.301 211.5 205.401C211.5 204.501 212.1 204.501 212.1 203.601C212.1 202.701 211.8 202.701 211.8 201.801C211.8 200.901 212.1 200.901 212.1 200.001C212.1 199.101 212.2 199.101 212.2 198.201C212.2 197.301 211.8 197.301 211.8 196.401C211.8 195.501 211.7 195.501 211.7 194.601C211.7 193.701 211.5 193.701 211.5 192.801C211.5 191.901 212.2 191.901 212.2 191.001C212.2 190.101 211.7 190.101 211.7 189.201C211.7 188.301 212.3 188.301 212.3 187.401C212.3 186.501 212.3 186.501 212.3 185.601C212.3 184.701 211.6 184.701 211.6 183.801C211.6 182.901 212.3 182.901 212.3 182.001C212.3 181.101 211.5 181.101 211.5 180.201C211.5 179.301 211.5 179.301 211.5 178.401C211.5 177.501 212.3 177.501 212.3 176.601C212.3 175.701 211.4 175.701 211.4 174.801C211.4 173.901 211.5 173.901 211.5 173.001C211.5 172.101 211.8 172.101 211.8 171.201C211.8 170.301 212.1 170.301 212.1 169.401C212.1 168.501 212.3 168.501 212.3 167.601C212.3 166.701 211.8 166.701 211.8 165.801C211.8 164.901 211.6 164.901 211.6 164.001C211.6 163.101 212 163.101 212 162.201C212 161.301 212 161.301 212 160.401C212 159.501 211.9 159.501 211.9 158.601C211.9 157.701 212.1 157.701 212.1 156.801C212.1 155.901 212.1 155.901 212.1 155.001C212.1 154.101 211.3 154.101 211.3 153.201C211.3 152.301 211.9 152.301 211.9 151.401C211.9 150.501 211.8 150.501 211.8 149.601C211.8 148.701 211.7 148.701 211.7 147.801C211.7 146.901 211.4 146.901 211.4 146.001C211.4 145.101 211.7 145.101 211.7 144.201C211.7 143.301 211.7 143.301 211.7 142.401C211.7 141.501 210.8 141.001 211.4 140.401C212 139.801 212.5 140.901 213.4 140.901C214.3 140.901 214.3 140.701 215.2 140.701C216.1 140.701 216.1 140.601 217 140.601C217.9 140.601 217.9 140.901 218.8 140.901C219.7 140.901 219.7 140.901 220.6 140.901C221.5 140.901 221.5 140.201 222.4 140.201C223.3 140.201 223.3 140.101 224.2 140.101C225.1 140.101 225.1 140.101 226 140.101C226.9 140.101 226.9 140.901 227.8 140.901C228.7 140.901 228.7 140.501 229.6 140.501C230.5 140.501 230.5 140.901 231.4 140.901C232.3 140.901 232.3 140.601 233.2 140.601C234.1 140.601 234.1 140.901 235 140.901C235.9 140.901 235.9 140.301 236.8 140.301C237.7 140.301 237.7 140.801 238.6 140.801C239.5 140.801 239.5 140.901 240.4 140.901C241.3 140.901 241.3 140.401 242.2 140.401C243.1 140.401 243.1 141.001 244 141.001C244.9 141.001 244.9 140.901 245.8 140.901C246.7 140.901 246.7 140.701 247.6 140.701C248.5 140.701 248.5 141.001 249.4 141.001C250.3 141.001 250.3 140.601 251.2 140.601C252.1 140.601 252.1 140.301 253 140.301C253.9 140.301 253.9 140.201 254.8 140.201C255.7 140.201 255.7 140.801 256.6 140.801C257.5 140.801 257.5 140.801 258.4 140.801C259.3 140.801 259.3 140.801 260.2 140.801C261.1 140.801 261.1 140.301 262 140.301C262.9 140.301 262.9 141.101 263.8 141.101C264.7 141.101 264.7 140.601 265.6 140.601C266.5 140.601 266.5 140.801 267.4 140.801C268.3 140.801 268.3 141.001 269.2 141.001C270.1 141.001 270.1 140.701 271 140.701C271.9 140.701 271.9 140.501 272.8 140.501C273.7 140.501 273.7 140.101 274.6 140.101C275.5 140.101 275.5 141.001 276.4 141.001C277.3 141.001 277.3 140.401 278.2 140.401C279.1 140.401 279.1 140.301 280 140.301C280.9 140.301 280.9 140.501 281.8 140.501C282.7 140.501 282.7 140.201 283.6 140.201C284.5 140.201 284.5 140.601 285.4 140.601C286.3 140.601 286.3 140.801 287.2 140.801C288.1 140.801 288.1 140.201 289 140.201C289.9 140.201 289.9 140.301 290.8 140.301C291.7 140.301 291.7 140.201 292.6 140.201C293.5 140.201 293.5 140.901 294.4 140.901C295.3 140.901 295.3 140.601 296.2 140.601C297.1 140.601 297.1 140.901 298 140.901C298.9 140.901 298.9 141.101 299.8 141.101C300.7 141.101 300.7 140.601 301.6 140.601C302.5 140.601 302.5 140.101 303.4 140.101C304.3 140.101 304.3 140.501 305.2 140.501C306.1 140.501 306.1 140.801 307 140.801C307.9 140.801 307.9 140.601 308.8 140.601C309.7 140.601 309.7 140.401 310.6 140.401C311.5 140.401 311.5 140.001 312.4 140.001C313.3 140.001 313.3 140.001 314.2 140.001C315.1 140.001 315.1 140.001 316 140.001C316.9 140.001 316.9 140.501 317.8 140.501C318.7 140.501 318.7 140.201 319.6 140.201C320.5 140.201 320.5 140.801 321.4 140.801C322.3 140.801 322.3 140.001 323.2 140.001C324.1 140.001 324.1 139.901 325 139.901C325.9 139.901 325.9 140.001 326.8 140.001C327.7 140.001 327.7 140.701 328.6 140.701C329.5 140.701 329.5 140.701 330.4 140.701C331.3 140.701 331.3 140.701 332.2 140.701C333.1 140.701 333.1 140.801 334 140.801C334.9 140.801 334.9 140.701 335.8 140.701C336.7 140.701 336.7 140.801 337.6 140.801C338.5 140.801 338.5 140.101 339.4 140.101C340.3 140.101 340.3 140.601 341.2 140.601C342.1 140.601 342.1 140.501 343 140.501" stroke="white" stroke-width="6" stroke-linejoin="round"/>
<path d="M84.3996 59.9985C84.3996 60.8985 84.2996 60.8985 84.2996 61.7985C84.2996 62.6985 84.1996 62.6985 84.1996 63.5985C84.1996 64.4985 83.6996 64.4985 83.6996 65.3985C83.6996 66.2985 83.5996 66.2985 83.5996 67.1985C83.5996 68.0985 83.6996 68.0985 83.6996 68.9985C83.6996 69.8985 83.4996 69.8985 83.4996 70.7985C83.4996 71.6985 84.1996 71.6985 84.1996 72.5985C84.1996 73.4985 83.5996 73.4985 83.5996 74.3985C83.5996 75.2985 83.8996 75.2985 83.8996 76.1985C83.8996 77.0985 83.9996 77.0985 83.9996 77.9985C83.9996 78.8985 84.1996 78.8985 84.1996 79.7985C84.1996 80.6985 83.5996 80.6985 83.5996 81.5985C83.5996 82.4985 83.4996 82.4985 83.4996 83.3985C83.4996 84.2985 84.1996 84.2985 84.1996 85.1985C84.1996 86.0985 83.7996 86.0985 83.7996 86.9985C83.7996 87.8985 83.4996 87.8985 83.4996 88.7985C83.4996 89.6985 83.8996 89.6985 83.8996 90.5985C83.8996 91.4985 83.4996 91.4985 83.4996 92.3985C83.4996 93.2985 84.0996 93.2985 84.0996 94.1985C84.0996 95.0985 84.2996 95.0985 84.2996 95.9985C84.2996 96.8985 84.1996 96.8985 84.1996 97.7985C84.1996 98.6985 83.7996 98.6985 83.7996 99.5985C83.7996 100.499 83.6996 100.499 83.6996 101.399C83.6996 102.299 83.6996 102.299 83.6996 103.199C83.6996 104.099 84.1996 104.099 84.1996 104.999C84.1996 105.899 84.0996 105.899 84.0996 106.799C84.0996 107.699 83.9996 107.699 83.9996 108.599C83.9996 109.499 84.0996 109.499 84.0996 110.399C84.0996 111.299 83.2996 111.299 83.2996 112.199C83.2996 113.099 83.7996 113.099 83.7996 113.999C83.7996 114.899 84.1996 114.899 84.1996 115.799C84.1996 116.699 83.8996 116.699 83.8996 117.599C83.8996 118.499 83.9996 118.499 83.9996 119.399C83.9996 120.299 83.6996 120.299 83.6996 121.199C83.6996 122.099 83.8996 122.099 83.8996 122.999C83.8996 123.899 83.4996 123.899 83.4996 124.799C83.4996 125.699 83.2996 125.699 83.2996 126.599C83.2996 127.499 83.7996 127.499 83.7996 128.399C83.7996 129.299 83.6996 129.299 83.6996 130.199C83.6996 131.099 83.6996 131.099 83.6996 131.999C83.6996 132.899 83.9996 132.899 83.9996 133.799C83.9996 134.699 83.6996 134.699 83.6996 135.599C83.6996 136.499 83.9996 136.499 83.9996 137.399C83.9996 138.299 83.5996 138.299 83.5996 139.199C83.5996 140.099 83.4996 140.099 83.4996 140.999C83.4996 141.899 83.8996 141.899 83.8996 142.799C83.8996 143.699 83.2996 143.699 83.2996 144.599C83.2996 145.499 83.3996 145.499 83.3996 146.399C83.3996 147.299 83.7996 147.299 83.7996 148.199C83.7996 149.099 83.6996 149.099 83.6996 149.999C83.6996 150.899 83.3996 150.899 83.3996 151.799C83.3996 152.699 83.8996 152.699 83.8996 153.599C83.8996 154.499 83.7996 154.499 83.7996 155.399C83.7996 156.299 83.1996 156.299 83.1996 157.199C83.1996 158.099 83.5996 158.099 83.5996 158.999C83.5996 159.899 83.2996 159.899 83.2996 160.799C83.2996 161.699 83.9996 161.699 83.9996 162.599C83.9996 163.499 83.9996 163.499 83.9996 164.399C83.9996 165.299 83.6996 165.299 83.6996 166.199C83.6996 167.099 83.4996 167.099 83.4996 167.999C83.4996 168.899 83.8996 168.899 83.8996 169.799C83.8996 170.699 83.8996 170.699 83.8996 171.599C83.8996 172.499 83.8996 172.499 83.8996 173.399C83.8996 174.299 83.8996 174.299 83.8996 175.199C83.8996 176.099 83.8996 176.099 83.8996 176.999C83.8996 177.899 83.6996 177.899 83.6996 178.799C83.6996 179.699 83.1996 179.699 83.1996 180.599C83.1996 181.499 83.9996 181.499 83.9996 182.399C83.9996 183.299 84.0996 183.299 84.0996 184.199C84.0996 185.099 83.4996 185.099 83.4996 185.999C83.4996 186.899 83.6996 186.899 83.6996 187.799C83.6996 188.699 83.3996 188.699 83.3996 189.599C83.3996 190.499 83.9996 190.499 83.3996 191.199C82.7996 191.799 82.7996 191.799 81.8996 191.799C80.9996 191.799 80.9996 191.599 80.0996 191.599C79.1996 191.599 79.1996 191.199 78.2996 191.199C77.3996 191.199 77.3996 191.399 76.4996 191.399C75.5996 191.399 75.5996 191.599 74.6996 191.599C73.7996 191.599 73.7996 191.899 72.8996 191.899C71.9996 191.899 71.9996 190.999 71.0996 190.999C70.1996 190.999 70.1996 190.999 69.2996 190.999C68.3996 190.999 68.3996 191.099 67.4996 191.099C66.5996 191.099 66.5996 191.299 65.6996 191.299C64.7996 191.299 64.7996 191.299 63.8996 191.299C62.9996 191.299 62.9996 191.099 62.0996 191.099C61.1996 191.099 61.1996 191.199 60.2996 191.199C59.3996 191.199 59.3996 190.999 58.4996 190.999C57.5996 190.999 57.5996 191.099 56.6996 191.099C55.7996 191.099 55.7996 191.199 54.8996 191.199C53.9996 191.199 53.9996 190.999 53.0996 190.999C52.1996 190.999 52.1996 191.699 51.2996 191.699C50.3996 191.699 50.3996 191.199 49.4996 191.199C48.5996 191.199 48.5996 191.799 47.6996 191.799C46.7996 191.799 46.7996 191.599 45.8996 191.599C44.9996 191.599 44.9996 191.699 44.0996 191.699C43.1996 191.699 43.1996 191.799 42.2996 191.799C41.3996 191.799 41.3996 191.699 40.4996 191.699C39.5996 191.699 39.5996 190.999 38.6996 190.999C37.7996 190.999 37.7996 191.399 36.8996 191.399C35.9996 191.399 35.9996 190.999 35.0996 190.999C34.1996 190.999 34.1996 191.599 33.2996 191.599C32.3996 191.599 32.3996 190.999 31.4996 190.999C30.5996 190.999 30.5996 191.099 29.6996 191.099C28.7996 191.099 28.7996 191.399 27.8996 191.399C26.9996 191.399 26.9996 191.999 26.0996 191.999C25.1996 191.999 25.1996 191.699 24.2996 191.699C23.3996 191.699 23.3996 191.299 22.4996 191.299C21.5996 191.299 21.5996 191.099 20.6996 191.099C19.7996 191.099 19.7996 190.999 18.8996 190.999C17.9996 190.999 17.9996 190.999 17.0996 190.999C16.1996 190.999 16.1996 190.999 15.2996 190.999C14.3996 190.999 14.3996 191.499 13.4996 191.499C12.5996 191.499 12.5996 191.199 11.6996 191.199C10.7996 191.199 10.7996 191.499 9.89961 191.499C8.99961 191.499 8.99961 191.199 8.09961 191.199C7.19961 191.199 7.19961 191.299 6.29961 191.299C5.39961 191.299 5.39961 191.499 4.49961 191.499C3.59961 191.499 3.59961 191.299 2.69961 191.299C1.79961 191.299 1.79961 191.499 0.899609 191.499C-0.000390649 191.499 -0.000390649 191.199 -0.900391 191.199" stroke="white" stroke-width="6" stroke-linejoin="round"/>
<path d="M212 151.401C214.2 151.401 216.1 151.901 217.6 153.401C219 154.801 220.4 156.801 220.4 159.001C220.4 161.201 219.1 163.301 217.7 164.701C216.3 166.101 214.2 167.301 212 167.301C209.8 167.301 208.1 165.701 206.7 164.301C205.3 162.901 203.9 161.201 203.9 159.001C203.9 156.801 204.7 154.701 206.2 153.201C207.7 151.801 209.8 151.401 212 151.401Z" fill="#0F1117"/>
<path d="M83.9996 54.7017C86.1996 54.7017 87.8996 56.1017 89.3996 57.6017C90.8996 59.1017 92.3996 60.8017 92.3996 63.0017C92.3996 65.2017 91.1996 67.2017 89.6996 68.7017C88.1996 70.2017 86.1996 71.0017 83.9996 71.0017C81.7996 71.0017 79.6996 70.2017 78.1996 68.7017C76.6996 67.2017 76.0996 65.1017 76.0996 62.9017C76.0996 60.7017 76.9996 58.8017 78.3996 57.4017C79.8996 56.0017 81.7996 54.7017 83.9996 54.7017Z" fill="#0F1117"/>
<path d="M319 131.901C321.2 131.901 322.9 133.201 324.4 134.601C325.8 136.001 326.6 137.801 326.6 140.001C326.6 142.201 326.1 144.201 324.7 145.701C323.3 147.101 321.2 148.301 319 148.301C316.8 148.301 314.9 147.101 313.4 145.601C312 144.201 311.1 142.201 311.1 140.001C311.1 137.801 311.8 135.701 313.2 134.301C314.7 132.801 316.8 131.901 319 131.901Z" fill="#0F1117"/>
<path d="M283.698 137.5C283.698 136.6 283.698 136.6 283.698 135.7C283.698 134.8 283.398 134.8 283.398 133.9C283.398 133 283.098 133 283.098 132.1C283.098 131.2 283.398 131.2 283.398 130.3C283.398 129.4 283.198 129.4 283.198 128.5C283.198 127.6 283.198 127.6 283.198 126.7C283.198 125.8 282.898 125.8 282.898 124.9C282.898 124 283.598 124 283.598 123.1C283.598 122.2 282.898 122.2 282.898 121.3C282.898 120.4 282.998 120.4 282.998 119.5C282.998 118.6 282.898 118.6 282.898 117.7C282.898 116.8 283.198 116.8 283.198 115.9C283.198 115 283.298 115 283.298 114.1C283.298 113.2 283.298 113.2 283.298 112.3C283.298 111.4 283.698 111.4 283.698 110.5C283.698 109.6 282.898 109.6 282.898 108.7C282.898 107.8 283.198 107.8 283.198 106.9C283.198 106 283.798 106 283.798 105.1C283.798 104.2 283.098 104.2 283.098 103.3C283.098 102.4 283.098 102.4 283.098 101.5C283.098 100.6 283.598 100.6 283.598 99.7001C283.598 98.8001 283.498 98.8001 283.498 97.9001C283.498 97.0001 283.298 97.0001 283.298 96.1001C283.298 95.2001 283.598 95.2001 283.598 94.3001C283.598 93.4001 283.298 93.4001 283.298 92.5001C283.298 91.6001 283.698 91.6001 283.698 90.7001C283.698 89.8001 282.798 89.8001 282.798 88.9001C282.798 88.0001 283.398 88.0001 283.398 87.1001C283.398 86.2001 283.398 86.2001 283.398 85.3001C283.398 84.4001 282.898 84.4001 282.898 83.5001C282.898 82.6001 283.598 82.6001 283.598 81.7001C283.598 80.8001 282.698 80.8001 282.698 79.9001C282.698 79.0001 282.798 79.0001 282.798 78.1001C282.798 77.2001 283.398 77.2001 283.398 76.3001C283.398 75.4001 282.998 75.4001 282.998 74.5001C282.998 73.6001 283.398 73.6001 283.398 72.7001C283.398 71.8001 282.798 71.8001 282.798 70.9001C282.798 70.0001 282.998 70.0001 282.998 69.1001C282.998 68.2001 282.798 68.2001 282.798 67.3001C282.798 66.4001 283.298 66.4001 283.298 65.5001C283.298 64.6001 282.598 64.6001 282.598 63.7001C282.598 62.8001 282.898 62.8001 282.898 61.9001C282.898 61.0001 283.598 60.8001 282.898 60.2001C282.298 59.6001 282.098 60.1001 281.198 60.1001C280.298 60.1001 280.298 60.6001 279.398 60.6001C278.498 60.6001 278.498 59.8001 277.598 59.8001C276.698 59.8001 276.698 60.2001 275.798 60.2001C274.898 60.2001 274.898 60.0001 273.998 60.0001C273.098 60.0001 273.098 60.1001 272.198 60.1001C271.298 60.1001 271.298 59.8001 270.398 59.8001C269.498 59.8001 269.498 60.2001 268.598 60.2001C267.698 60.2001 267.698 60.6001 266.798 60.6001C265.898 60.6001 265.898 59.8001 264.998 59.8001C264.098 59.8001 264.098 60.1001 263.198 60.1001C262.298 60.1001 262.298 60.4001 261.398 60.4001C260.498 60.4001 260.498 60.6001 259.598 60.6001C258.698 60.6001 258.698 60.5001 257.798 60.5001C256.898 60.5001 256.898 60.6001 255.998 60.6001C255.098 60.6001 255.098 60.3001 254.198 60.3001C253.298 60.3001 253.298 60.1001 252.398 60.1001C251.498 60.1001 251.498 60.7001 250.598 60.7001C249.698 60.7001 249.698 60.0001 248.798 60.0001C247.898 60.0001 247.898 59.9001 246.998 59.9001C246.098 59.9001 246.098 60.6001 245.198 60.6001C244.298 60.6001 244.298 60.6001 243.398 60.6001C242.498 60.6001 242.498 60.7001 241.598 60.7001C240.698 60.7001 240.698 60.1001 239.798 60.1001C238.898 60.1001 238.898 60.1001 237.998 60.1001C237.098 60.1001 237.098 60.4001 236.198 60.4001C235.298 60.4001 235.298 59.8001 234.398 59.8001C233.498 59.8001 233.498 60.5001 232.598 60.5001C231.698 60.5001 231.698 59.9001 230.798 59.9001C229.898 59.9001 229.898 60.5001 228.998 60.5001C228.098 60.5001 228.098 60.2001 227.198 60.2001C226.298 60.2001 226.298 60.6001 225.398 60.6001C224.498 60.6001 224.498 60.8001 223.598 60.8001C222.698 60.8001 222.698 60.2001 221.798 60.2001C220.898 60.2001 220.898 60.3001 219.998 60.3001C219.098 60.3001 219.098 60.5001 218.198 60.5001C217.298 60.5001 217.298 60.0001 216.398 60.0001C215.498 60.0001 215.498 60.6001 214.598 60.6001C213.698 60.6001 213.698 60.4001 212.798 60.4001C211.898 60.4001 211.398 61.1001 210.798 60.5001C210.198 59.9001 211.098 59.4001 211.098 58.5001C211.098 57.6001 210.498 57.6001 210.498 56.7001C210.498 55.8001 210.598 55.8001 210.598 54.9001C210.598 54.0001 210.898 54.0001 210.898 53.1001C210.898 52.2001 210.598 52.2001 210.598 51.3001C210.598 50.4001 210.998 50.4001 210.998 49.5001C210.998 48.6001 210.698 48.6001 210.698 47.7001C210.698 46.8001 211.498 46.8001 211.498 45.9001C211.498 45.0001 210.998 45.0001 210.998 44.1001C210.998 43.2001 211.098 43.2001 211.098 42.3001C211.098 41.4001 210.698 41.4001 210.698 40.5001C210.698 39.6001 210.698 39.6001 210.698 38.7001C210.698 37.8001 211.198 37.8001 211.198 36.9001C211.198 36.0001 210.998 36.0001 210.998 35.1001C210.998 34.2001 210.698 34.2001 210.698 33.3001C210.698 32.4001 211.098 32.4001 211.098 31.5001C211.098 30.6001 211.398 30.6001 211.398 29.7001C211.398 28.8001 210.998 28.8001 210.998 27.9001C210.998 27.0001 211.198 27.0001 211.198 26.1001C211.198 25.2001 210.798 25.2001 210.798 24.3001C210.798 23.4001 210.598 23.4001 210.598 22.5001C210.598 21.6001 210.898 21.6001 210.898 20.7001C210.898 19.8001 210.598 19.8001 210.598 18.9001C210.598 18.0001 210.998 18.0001 210.998 17.1001C210.998 16.2001 211.098 16.2001 211.098 15.3001C211.098 14.4001 210.998 14.4001 210.998 13.5001C210.998 12.6001 211.498 12.6001 211.498 11.7001C211.498 10.8001 210.998 10.8001 210.998 9.9001C210.998 9.0001 211.098 9.0001 211.098 8.1001C211.098 7.2001 210.598 7.2001 210.598 6.3001C210.598 5.4001 211.398 5.4001 211.398 4.5001C211.398 3.6001 210.598 3.6001 210.598 2.7001C210.598 1.8001 211.198 1.8001 211.198 0.900098C211.198 9.76324e-05 211.198 9.76324e-05 211.198 -0.899902" stroke="white" stroke-width="6" stroke-linejoin="round"/>
</g>
</svg>
