<svg width="344" height="268" viewBox="0 0 344 268" fill="none" xmlns="http://www.w3.org/2000/svg">
<mask id="mask0" mask-type="alpha" maskUnits="userSpaceOnUse" x="0" y="0" width="344" height="268">
<path d="M344 0H0V268H344V0Z" fill="#B7A9FF"/>
</mask>
<g mask="url(#mask0)">
<path d="M344 0H0V268H344V0Z" fill="#9985FF"/>
<path d="M197.199 107.501C197.299 108.101 196.999 108.101 197.099 108.701C197.199 109.301 197.199 109.301 197.299 109.801C197.399 110.401 197.599 110.301 197.699 110.901C197.799 111.501 197.799 111.501 197.899 112.001C197.999 112.601 197.799 112.601 197.899 113.201C197.999 113.801 197.999 113.801 198.099 114.301C198.199 114.901 197.999 114.901 198.099 115.501C198.199 116.101 198.499 116.001 198.599 116.601C198.699 117.201 198.499 117.201 198.499 117.801C198.599 118.401 198.599 118.401 198.599 118.901C198.699 119.501 198.599 119.501 198.699 120.001C198.799 120.601 198.999 120.501 199.099 121.101C199.199 121.701 198.999 121.701 199.099 122.301C199.199 122.901 199.499 122.801 199.599 123.401C199.699 124.001 199.699 124.001 199.799 124.501C199.899 125.101 199.499 125.101 199.599 125.701C199.699 126.301 199.899 126.201 199.999 126.801C200.099 127.401 199.999 127.401 200.099 127.901C200.199 128.501 200.199 128.501 200.299 129.001C200.399 129.601 200.299 129.601 200.299 130.101C200.399 130.701 200.299 130.701 200.399 131.201C200.499 131.801 200.899 131.701 200.999 132.301C201.099 132.901 200.999 132.901 201.099 133.401C201.199 134.001 200.899 134.001 200.999 134.601C201.099 135.201 201.399 135.101 201.499 135.701C201.599 136.301 201.599 136.301 201.699 136.801C201.799 137.401 201.599 137.401 201.699 138.001C201.799 138.601 201.999 138.501 202.099 139.101C202.199 139.701 201.999 139.701 202.099 140.301C202.199 140.901 202.199 140.901 202.299 141.401C202.399 142.001 202.299 142.001 202.399 142.501C202.499 143.101 202.599 143.101 202.699 143.601C202.799 144.201 202.799 144.201 202.899 144.701C202.999 145.301 202.799 145.301 202.799 145.901C202.899 146.501 203.099 146.401 203.099 147.001C203.199 147.601 202.999 147.601 203.099 148.201C203.199 148.801 203.599 148.701 203.699 149.301C203.799 149.901 203.799 149.901 203.899 150.401C203.999 151.001 203.999 151.001 204.099 151.501C204.199 152.101 203.999 152.101 204.099 152.701C204.199 153.301 203.899 153.301 203.999 153.901C204.099 154.501 204.499 154.401 204.599 155.001C204.699 155.601 204.599 155.601 204.699 156.101C204.799 156.701 204.499 156.701 204.599 157.301C204.699 157.901 205.099 157.801 205.199 158.401C205.299 159.001 204.799 159.001 204.899 159.601C204.999 160.201 205.299 160.101 205.399 160.701C205.499 161.301 205.499 161.301 205.599 161.801C205.699 162.401 205.299 162.401 205.399 163.001C205.499 163.601 205.799 163.501 205.899 164.101C205.999 164.701 205.599 164.701 205.699 165.301C205.799 165.901 205.799 165.901 205.899 166.401C205.999 167.001 206.099 166.901 206.199 167.501C206.299 168.101 206.599 168.001 206.599 168.601C206.699 169.201 206.599 169.201 206.599 169.801C206.699 170.401 206.699 170.401 206.799 170.901C206.899 171.501 206.799 171.501 206.799 172.001C206.899 172.601 206.799 172.601 206.899 173.101C206.999 173.701 207.299 173.601 207.399 174.201C207.499 174.801 206.999 174.801 207.099 175.401C207.199 176.001 207.599 175.901 207.699 176.501C207.799 177.101 207.799 177.101 207.899 177.601C207.999 178.201 207.799 178.201 207.899 178.801C207.999 179.401 207.699 179.401 207.799 180.001C207.899 180.601 207.999 180.501 208.099 181.101C208.199 181.701 208.199 181.701 208.299 182.201C208.399 182.801 208.499 182.701 208.599 183.301C208.699 183.901 208.699 183.901 208.799 184.401C208.899 185.001 209.099 184.901 209.199 185.501C209.299 186.101 208.799 186.101 208.899 186.701C208.999 187.301 209.199 187.201 209.299 187.801C209.399 188.401 209.599 188.301 209.699 188.901C209.799 189.501 209.399 189.501 209.399 190.101C209.499 190.701 209.599 190.701 209.699 191.201C209.799 191.801 209.999 191.701 210.099 192.301C210.199 192.901 210.299 192.901 210.299 193.401C210.399 194.001 210.099 194.001 210.199 194.601C210.299 195.201 210.199 195.201 210.299 195.701C210.399 196.301 210.399 196.301 210.499 196.801C210.599 197.401 210.999 197.301 210.999 197.901C211.099 198.501 211.099 198.501 211.199 199.001C211.299 199.601 211.099 199.601 211.099 200.201C211.199 200.801 211.499 200.701 211.599 201.301C211.699 201.901 211.399 201.901 211.399 202.501C211.499 203.101 211.499 203.101 211.599 203.601C211.699 204.201 211.599 204.201 211.699 204.701C211.799 205.301 211.699 205.301 211.799 205.801C211.899 206.401 211.999 206.401 212.099 206.901C212.199 207.501 212.199 207.501 212.299 208.001C212.399 208.601 212.699 208.501 212.799 209.101C212.899 209.701 212.599 209.701 212.699 210.301C212.799 210.901 212.799 210.901 212.899 211.401C212.999 212.001 213.199 211.901 213.299 212.501C213.399 213.101 213.299 213.101 213.399 213.701C213.499 214.301 213.699 214.201 213.699 214.801C213.799 215.401 213.899 215.301 213.999 215.901C214.099 216.501 213.699 216.501 213.799 217.101C213.899 217.701 214.199 217.601 214.199 218.201C214.299 218.801 213.899 218.801 213.999 219.401" stroke="#0F1117" stroke-width="6"/>
<path d="M197.1 106.798C197.3 106.298 197.5 106.298 197.7 105.798C197.9 105.298 198 105.298 198.3 104.798C198.5 104.298 198.2 104.098 198.4 103.598C198.6 103.098 198.7 103.098 198.9 102.598C199.1 102.098 199.2 102.098 199.4 101.598C199.6 101.098 199.8 101.098 200 100.598C200.2 100.098 200.2 100.098 200.4 99.4984C200.6 98.9984 200.6 98.9984 200.8 98.3984C201 97.8984 201.2 97.9984 201.5 97.3984C201.7 96.8984 201.4 96.7984 201.7 96.1984C201.9 95.6984 201.8 95.5984 202.1 95.0984C202.3 94.5984 202.3 94.5984 202.5 93.9984C202.7 93.4984 202.9 93.5984 203.2 92.9984C203.4 92.4984 203.5 92.4984 203.7 91.9984C203.9 91.4984 204 91.4984 204.2 90.9984C204.4 90.4984 204.3 90.3984 204.6 89.8984C204.8 89.3984 204.7 89.2984 204.9 88.7984C205.1 88.2984 205.3 88.3984 205.6 87.8984C205.8 87.3984 205.8 87.3984 206 86.8984C206.2 86.3984 205.9 86.1984 206.1 85.6984C206.3 85.1984 206.3 85.1984 206.6 84.6984C206.8 84.1984 207 84.2984 207.3 83.6984C207.5 83.1984 207.6 83.1984 207.8 82.6984C208 82.1984 207.9 82.0984 208.1 81.5984C208.3 81.0984 208.3 80.9984 208.5 80.4984C208.7 79.9984 208.8 79.9984 209 79.4984C209.2 78.9984 209.2 78.9984 209.4 78.3984C209.6 77.8984 209.7 77.8984 209.9 77.3984C210.1 76.8984 210.1 76.8984 210.3 76.2984C210.5 75.7984 210.7 75.7984 210.9 75.2984C211.1 74.7984 210.8 74.6984 211.1 74.0984C211.3 73.5984 211.3 73.5984 211.5 72.9984C211.7 72.4984 212 72.5984 212.2 71.9984C212.4 71.4984 212.2 71.3984 212.5 70.8984C212.7 70.3984 212.6 70.2984 212.9 69.7984C213.1 69.2984 213.5 69.4984 213.8 68.8984C214 68.3984 214.1 68.3984 214.3 67.8984C214.5 67.3984 214.1 67.1984 214.3 66.6984C214.5 66.1984 214.8 66.2984 215 65.7984C215.2 65.2984 215.3 65.2984 215.5 64.7984C215.7 64.2984 215.6 64.1984 215.9 63.6984C216.1 63.1984 216.1 63.1984 216.3 62.5984C216.5 62.0984 216.5 62.0984 216.7 61.4984C216.9 60.9984 217.1 60.9984 217.3 60.4984C217.5 59.9984 217.5 59.9984 217.7 59.3984C217.9 58.8984 217.8 58.7984 218 58.2984C218.2 57.7984 218 57.6984 218.2 57.1984C218.4 56.6984 218.8 56.7984 219 56.2984C219.2 55.7984 219.3 55.7984 219.5 55.2984C219.7 54.7984 219.7 54.7984 220 54.2984C220.2 53.7984 219.8 53.5984 220.1 53.0984C220.3 52.5984 220.3 52.5984 220.5 51.9984C220.7 51.4984 221 51.5984 221.3 51.0984C221.5 50.5984 221.4 50.4984 221.6 49.9984C221.8 49.4984 222 49.5984 222.3 48.9984C222.5 48.4984 222.4 48.3984 222.6 47.8984C222.8 47.3984 223 47.4984 223.2 46.8984C223.4 46.3984 223 46.1984 223.2 45.6984C223.4 45.1984 223.5 45.1984 223.7 44.6984C223.9 44.1984 223.9 44.1984 224.1 43.5984C224.3 43.0984 224.6 43.1984 224.8 42.5984C225 42.0984 225.1 42.0984 225.3 41.5984" stroke="#0F1117" stroke-width="6"/>
<path d="M195.999 108.802C195.499 109.002 195.399 108.802 194.899 109.002C194.399 109.202 194.399 109.202 193.799 109.402C193.299 109.602 193.299 109.702 192.799 109.902C192.299 110.102 192.399 110.402 191.799 110.602C191.299 110.802 191.199 110.602 190.599 110.802C190.099 111.002 190.099 111.102 189.599 111.302C189.099 111.502 188.999 111.402 188.499 111.602C187.999 111.802 187.999 112.002 187.499 112.202C186.999 112.402 186.999 112.402 186.499 112.602C185.999 112.802 185.899 112.502 185.299 112.702C184.799 112.902 184.699 112.902 184.199 113.102C183.699 113.302 183.699 113.502 183.199 113.702C182.699 113.902 182.699 113.902 182.099 114.102C181.599 114.302 181.599 114.402 181.099 114.602C180.599 114.802 180.399 114.502 179.899 114.702C179.399 114.902 179.499 115.202 178.999 115.402C178.499 115.602 178.399 115.402 177.899 115.602C177.399 115.802 177.399 115.902 176.899 116.102C176.399 116.302 176.399 116.502 175.899 116.702C175.399 116.902 175.299 116.602 174.699 116.802C174.199 117.002 174.199 117.002 173.599 117.202C173.099 117.402 173.099 117.602 172.599 117.802C172.099 118.002 171.999 117.802 171.399 118.002C170.899 118.202 170.999 118.502 170.399 118.702C169.899 118.902 169.699 118.602 169.199 118.802C168.699 119.002 168.699 119.002 168.099 119.202C167.599 119.402 167.699 119.602 167.099 119.802C166.599 120.002 166.599 120.002 165.999 120.202C165.499 120.402 165.499 120.602 164.999 120.802C164.499 121.002 164.399 120.702 163.799 120.902C163.299 121.102 163.299 121.202 162.799 121.402C162.299 121.602 162.299 121.702 161.799 121.902C161.299 122.102 161.199 122.002 160.699 122.202C160.199 122.402 160.199 122.502 159.699 122.702C159.199 122.902 158.999 122.602 158.499 122.802C157.999 123.002 157.999 123.102 157.499 123.302C156.999 123.502 157.099 123.802 156.499 124.002C155.999 124.202 155.799 123.902 155.299 124.102C154.799 124.302 154.799 124.502 154.299 124.702C153.799 124.902 153.799 125.102 153.299 125.302C152.799 125.502 152.799 125.602 152.299 125.802C151.799 126.002 151.699 125.702 151.099 125.902C150.599 126.102 150.599 126.302 150.099 126.502C149.599 126.702 149.599 126.802 149.099 127.002C148.599 127.202 148.499 127.102 147.999 127.302C147.499 127.502 147.399 127.302 146.899 127.502C146.399 127.702 146.499 128.002 145.899 128.202C145.399 128.402 145.299 128.102 144.699 128.302C144.199 128.502 144.299 128.802 143.699 129.002C143.199 129.202 143.199 129.202 142.599 129.402C142.099 129.602 141.999 129.402 141.499 129.602C140.999 129.802 140.999 129.802 140.399 130.002C139.899 130.202 139.899 130.202 139.299 130.402C138.799 130.602 138.699 130.502 138.199 130.702C137.699 130.902 137.699 130.902 137.099 131.102C136.599 131.302 136.499 131.102 135.999 131.302C135.499 131.502 135.499 131.602 134.999 131.802C134.499 132.002 134.499 132.002 133.899 132.202C133.399 132.402 133.399 132.602 132.899 132.802C132.399 133.002 132.299 133.002 131.799 133.202" stroke="#0F1117" stroke-width="6"/>
<path d="M197.6 108.299C198.2 108.399 198.3 107.999 198.8 108.099C199.4 108.199 199.3 108.699 199.8 108.799C200.4 108.899 200.4 108.899 200.9 108.999C201.5 109.099 201.5 108.999 202 109.199C202.6 109.299 202.6 109.099 203.2 109.199C203.8 109.299 203.8 109.199 204.3 109.399C204.9 109.499 204.9 109.499 205.4 109.599C206 109.699 205.9 109.999 206.5 110.199C207.1 110.299 207.1 110.099 207.7 110.199C208.3 110.299 208.2 110.499 208.8 110.599C209.4 110.699 209.4 110.699 209.9 110.799C210.5 110.899 210.4 110.999 211 111.099C211.6 111.199 211.6 110.899 212.2 110.999C212.8 111.099 212.8 111.099 213.3 111.299C213.9 111.399 213.8 111.799 214.3 111.899C214.9 111.999 214.9 111.799 215.5 111.899C216.1 111.999 216.1 111.999 216.6 112.099C217.2 112.199 217.2 112.099 217.8 112.199C218.4 112.299 218.3 112.499 218.9 112.599C219.5 112.699 219.4 112.899 220 112.999C220.6 113.099 220.6 112.899 221.2 112.999C221.8 113.099 221.7 113.199 222.3 113.399C222.9 113.499 222.9 113.299 223.5 113.499C224.1 113.599 224 113.699 224.6 113.799C225.2 113.899 225.2 113.999 225.7 114.099C226.3 114.199 226.3 114.099 226.8 114.199C227.4 114.299 227.4 114.199 227.9 114.399C228.5 114.499 228.4 114.699 229 114.799C229.6 114.899 229.5 115.199 230.1 115.299C230.7 115.399 230.7 115.199 231.3 115.299C231.9 115.399 231.9 115.399 232.4 115.499C233 115.599 233 115.599 233.5 115.699C234.1 115.799 234 115.999 234.6 116.099C235.2 116.199 235.2 115.999 235.8 116.099C236.4 116.199 236.3 116.499 236.9 116.599C237.5 116.699 237.5 116.299 238.1 116.399C238.7 116.499 238.6 116.799 239.2 116.899C239.8 116.999 239.8 116.999 240.3 117.099C240.9 117.199 240.9 117.099 241.5 117.199C242.1 117.299 242 117.499 242.6 117.599C243.2 117.699 243.1 117.899 243.7 117.999C244.3 118.099 244.4 117.699 244.9 117.799C245.5 117.899 245.4 117.999 246 118.099C246.6 118.199 246.5 118.499 247.1 118.599C247.7 118.699 247.7 118.799 248.2 118.899C248.8 118.999 248.8 118.799 249.4 118.899C250 118.999 249.9 119.299 250.5 119.399C251.1 119.499 251.1 119.399 251.7 119.499C252.3 119.599 252.3 119.399 252.9 119.499C253.5 119.599 253.5 119.699 254 119.799C254.6 119.899 254.5 120.099 255.1 120.199C255.7 120.299 255.6 120.399 256.2 120.499C256.8 120.599 256.8 120.299 257.4 120.499C258 120.599 258 120.499 258.5 120.699C259.1 120.799 259 121.099 259.6 121.199C260.2 121.299 260.2 121.099 260.8 121.199C261.4 121.299 261.3 121.399 261.9 121.499C262.5 121.599 262.5 121.399 263.1 121.599C263.7 121.699 263.7 121.799 264.2 121.899C264.8 121.999 264.7 122.099 265.3 122.199C265.9 122.299 265.9 122.099 266.5 122.199C267.1 122.299 267 122.399 267.6 122.499C268.2 122.599 268.2 122.699 268.7 122.799C269.2 122.899 269.2 122.999 269.8 123.099" stroke="#0F1117" stroke-width="6"/>
<path d="M130.999 137.9C130.399 138 130.599 137.6 130.099 137.3C129.599 137 129.499 137.1 128.999 136.9C128.499 136.6 128.399 136.8 127.899 136.5C127.399 136.2 126.899 136.6 126.699 136C126.499 135.4 127.099 135.4 127.399 134.8C127.699 134.2 127.799 134.2 127.999 133.6C128.299 133 127.799 132.4 128.499 132.2C128.999 132 128.999 132.8 129.599 133C130.099 133.3 130.299 132.9 130.799 133.2C131.299 133.5 131.199 133.7 131.699 134C132.199 134.3 132.299 134 132.599 134.6C132.799 135.1 132.699 135 132.499 135.4C132.299 135.8 131.999 135.7 131.799 136.2C131.599 136.7 131.799 136.7 131.699 137.2C131.499 137.6 131.499 137.8 130.999 137.9ZM121.299 133.2C120.699 133.4 120.899 132.9 120.399 132.6C119.899 132.3 119.799 132.4 119.299 132.1C118.799 131.8 118.699 132 118.199 131.7C117.699 131.4 117.599 131.5 117.099 131.3C116.599 131 116.599 130.9 116.099 130.6C115.599 130.3 115.599 130.3 115.099 130C114.599 129.7 114.399 130 113.899 129.7C113.399 129.4 113.499 129.1 112.999 128.9C112.499 128.6 112.299 129 111.699 128.7C111.099 128.4 110.899 128.5 110.799 127.9C110.599 127.3 111.299 127.4 111.599 126.8C111.899 126.2 111.599 126.1 111.899 125.5C112.199 124.9 111.999 124.8 112.599 124.5C113.199 124.3 113.099 124.5 113.699 124.7C114.199 125 114.099 125.3 114.599 125.6C115.099 125.9 115.299 125.4 115.899 125.7C116.399 126 116.199 126.4 116.799 126.6C117.299 126.9 117.299 126.8 117.899 127.1C118.399 127.4 118.499 127.3 118.999 127.5C119.499 127.8 119.699 127.5 120.199 127.8C120.699 128.1 120.799 128 121.299 128.3C121.799 128.6 121.799 128.6 122.399 128.8C122.999 129 123.099 129 123.299 129.6C123.499 130.2 123.299 130.3 122.999 130.9C122.699 131.5 122.399 131.4 122.199 132C121.699 132.7 121.899 132.9 121.299 133.2ZM105.199 125.3C104.599 125.5 104.799 125 104.299 124.7C103.799 124.4 103.699 124.5 103.199 124.2C102.699 123.9 102.599 124.1 102.099 123.8C101.599 123.5 101.499 123.6 100.999 123.4C100.499 123.1 100.499 123 99.9994 122.7C99.4994 122.4 99.4994 122.4 98.9994 122.1C98.4994 121.8 98.2994 122.1 97.7994 121.8C97.2994 121.5 97.3994 121.2 96.8994 121C96.3994 120.7 96.1994 121.1 95.5994 120.8C94.9994 120.5 94.7994 120.6 94.6994 120C94.4994 119.4 95.1994 119.5 95.4994 118.9C95.7994 118.3 95.4994 118.2 95.7994 117.6C96.0994 117 95.8994 116.9 96.4994 116.6C97.0994 116.4 96.9994 116.6 97.5994 116.8C98.0994 117.1 97.9994 117.4 98.4994 117.7C98.9994 118 99.1994 117.5 99.7994 117.8C100.299 118.1 100.099 118.5 100.699 118.7C101.199 119 101.199 118.9 101.799 119.2C102.299 119.5 102.399 119.4 102.899 119.6C103.399 119.9 103.599 119.6 104.099 119.9C104.599 120.2 104.699 120.1 105.199 120.4C105.699 120.7 105.699 120.7 106.299 120.9C106.899 121.1 106.999 121.1 107.199 121.7C107.399 122.3 107.199 122.4 106.899 123C106.599 123.6 106.299 123.5 106.099 124.1C105.599 124.8 105.799 125 105.199 125.3ZM88.9994 117.4C88.4994 117.6 88.5994 117.1 88.1994 116.9C87.6994 116.7 87.6994 116.7 87.1994 116.5C86.6994 116.3 86.5994 116.4 86.1994 116.2C85.6994 116 85.6994 116.1 85.1994 115.8C84.6994 115.6 84.7994 115.4 84.2994 115.2C83.7994 115 83.7994 114.9 83.3994 114.7C82.8994 114.5 82.7994 114.7 82.2994 114.5C81.7994 114.3 81.9994 113.9 81.4994 113.7C80.9994 113.5 80.7994 113.8 80.2994 113.6C79.7994 113.4 79.8994 113.1 79.3994 112.9C78.8994 112.7 78.7994 112.9 78.5994 112.4C78.3994 111.8 78.5994 111.8 78.8994 111.2C79.1994 110.6 79.3994 110.7 79.6994 110.1C79.9994 109.5 79.4994 109 80.0994 108.7C80.5994 108.5 80.4994 109.3 80.9994 109.5C81.4994 109.7 81.6994 109.3 82.1994 109.6C82.6994 109.8 82.4994 110.2 82.9994 110.5C83.4994 110.7 83.4994 110.7 83.9994 111C84.4994 111.2 84.4994 111.2 84.9994 111.4C85.4994 111.6 85.5994 111.4 86.0994 111.6C86.5994 111.8 86.5994 111.8 87.0994 112C87.5994 112.2 87.5994 112.2 88.0994 112.5C88.5994 112.7 88.3994 113 88.8994 113.3C89.3994 113.5 89.4994 113.3 89.9994 113.5C90.4994 113.7 90.6994 113.6 90.8994 114.2C91.0994 114.8 90.6994 114.8 90.3994 115.4C90.0994 116 89.8994 115.9 89.6994 116.6C89.2994 116.9 89.5994 117.1 88.9994 117.4ZM72.7994 109.5C72.1994 109.7 72.3994 109.2 71.8994 108.9C71.3994 108.6 71.2994 108.7 70.7994 108.4C70.2994 108.1 70.1994 108.3 69.6994 108C69.1994 107.7 69.0994 107.8 68.5994 107.6C68.0994 107.3 68.0994 107.2 67.5994 106.9C67.0994 106.6 67.0994 106.6 66.5994 106.3C66.0994 106 65.8994 106.3 65.3994 106C64.8994 105.7 64.9994 105.4 64.4994 105.2C63.9994 104.9 63.7994 105.3 63.1994 105C62.6994 104.7 62.3994 104.8 62.2994 104.2C62.0994 103.6 62.7994 103.7 63.0994 103.1C63.3994 102.5 63.0994 102.4 63.3994 101.8C63.6994 101.2 63.4994 101.1 64.0994 100.8C64.6994 100.6 64.5994 100.8 65.1994 101C65.6994 101.3 65.5994 101.6 66.0994 101.9C66.5994 102.2 66.7994 101.7 67.3994 102C67.8994 102.3 67.6994 102.7 68.2994 102.9C68.7994 103.2 68.7994 103.1 69.3994 103.4C69.8994 103.7 69.9994 103.6 70.4994 103.8C70.9994 104.1 71.1994 103.8 71.6994 104.1C72.1994 104.4 72.2994 104.3 72.7994 104.6C73.2994 104.9 73.2994 104.9 73.8994 105.1C74.3994 105.4 74.5994 105.3 74.7994 105.9C74.9994 106.5 74.7994 106.6 74.4994 107.2C74.1994 107.8 73.8994 107.7 73.6994 108.3C73.1994 109.1 73.3994 109.3 72.7994 109.5ZM56.5994 101.6C56.0994 101.8 56.1994 101.3 55.7994 101.1C55.2994 100.9 55.2994 100.9 54.7994 100.7C54.2994 100.5 54.1994 100.6 53.7994 100.4C53.2994 100.2 53.2994 100.3 52.7994 100C52.2994 99.8 52.3994 99.6 51.8994 99.4C51.3994 99.2 51.3994 99.1 50.9994 98.9C50.4994 98.7 50.3994 98.9 49.8994 98.7C49.3994 98.5 49.5994 98.1 49.0994 97.9C48.5994 97.7 48.3994 98 47.8994 97.8C47.3994 97.6 47.4994 97.3 46.9994 97.1C46.4994 96.9 46.3994 97.1 46.1994 96.6C45.9994 96 46.1994 96 46.4994 95.4C46.7994 94.8 46.9994 94.9 47.2994 94.3C47.5994 93.7 47.0994 93.2 47.6994 92.9C48.1994 92.7 48.0994 93.5 48.5994 93.7C49.0994 93.9 49.2994 93.5 49.7994 93.8C50.2994 94 50.0994 94.4 50.5994 94.7C51.0994 94.9 51.0994 94.9 51.5994 95.2C52.0994 95.4 52.0994 95.4 52.5994 95.6C53.0994 95.8 53.1994 95.6 53.6994 95.8C54.1994 96 54.1994 96 54.6994 96.2C55.1994 96.4 55.1994 96.4 55.6994 96.7C56.1994 96.9 55.9994 97.2 56.4994 97.5C56.9994 97.7 57.0994 97.5 57.5994 97.7C58.0994 97.9 58.2994 97.8 58.4994 98.4C58.6994 99 58.2994 99 57.9994 99.6C57.6994 100.2 57.4994 100.1 57.2994 100.8C56.9994 101.1 57.1994 101.3 56.5994 101.6ZM40.3994 93.7C39.8994 93.9 39.9994 93.4 39.5994 93.2C39.0994 93 39.0994 93 38.5994 92.8C38.0994 92.6 37.9994 92.7 37.5994 92.5C37.0994 92.3 37.0994 92.4 36.5994 92.1C36.0994 91.9 36.1994 91.7 35.6994 91.5C35.1994 91.3 35.1994 91.2 34.7994 91C34.2994 90.8 34.1994 91 33.6994 90.8C33.1994 90.6 33.3994 90.2 32.8994 90C32.3994 89.8 32.1994 90.1 31.6994 89.9C31.1994 89.7 31.2994 89.4 30.7994 89.2C30.2994 89 30.1994 89.2 29.9994 88.7C29.7994 88.1 29.9994 88.1 30.2994 87.5C30.5994 86.9 30.7994 87 31.0994 86.4C31.3994 85.8 30.8994 85.3 31.4994 85C31.9994 84.8 31.8994 85.6 32.3994 85.8C32.8994 86 33.0994 85.6 33.5994 85.9C34.0994 86.1 33.8994 86.5 34.3994 86.8C34.8994 87 34.8994 87 35.3994 87.3C35.8994 87.5 35.8994 87.5 36.3994 87.7C36.8994 87.9 36.9994 87.7 37.4994 87.9C37.9994 88.1 37.9994 88.1 38.4994 88.3C38.9994 88.5 38.9994 88.5 39.4994 88.8C39.9994 89 39.7994 89.3 40.2994 89.6C40.7994 89.8 40.8994 89.6 41.3994 89.8C41.8994 90 42.0994 89.9 42.2994 90.5C42.4994 91.1 42.0994 91.1 41.7994 91.7C41.3994 92 41.1994 92 40.9994 92.6C40.7994 93.2 40.9994 93.4 40.3994 93.7ZM24.2994 85.8C23.7994 86 23.8994 85.5 23.4994 85.3C22.9994 85.1 22.9994 85.1 22.4994 84.9C21.9994 84.7 21.8994 84.8 21.4994 84.6C20.9994 84.4 20.9994 84.5 20.4994 84.2C19.9994 84 20.0994 83.8 19.5994 83.6C19.0994 83.4 19.0994 83.3 18.6994 83.1C18.1994 82.9 18.0994 83.1 17.5994 82.9C17.0994 82.7 17.2994 82.3 16.7994 82.1C16.2994 81.9 16.0994 82.2 15.5994 82C15.0994 81.8 15.1994 81.5 14.6994 81.3C14.1994 81.1 14.0994 81.3 13.8994 80.8C13.6994 80.2 13.8994 80.2 14.1994 79.6C14.4994 79 14.6994 79.1 14.9994 78.5C15.2994 77.9 14.7994 77.4 15.3994 77.1C15.8994 76.9 15.7994 77.7 16.2994 77.9C16.7994 78.1 16.9994 77.7 17.4994 78C17.9994 78.2 17.7994 78.6 18.2994 78.9C18.7994 79.1 18.7994 79.1 19.2994 79.4C19.7994 79.6 19.7994 79.6 20.2994 79.8C20.7994 80 20.8994 79.8 21.3994 80C21.8994 80.2 21.8994 80.2 22.3994 80.4C22.8994 80.6 22.8994 80.6 23.3994 80.9C23.8994 81.1 23.6994 81.4 24.1994 81.7C24.6994 81.9 24.7994 81.7 25.2994 81.9C25.7994 82.1 25.9994 82 26.1994 82.6C26.3994 83.2 25.9994 83.2 25.6994 83.8C25.3994 84.4 25.1994 84.3 24.9994 85C24.5994 85.4 24.8994 85.6 24.2994 85.8ZM8.09944 77.9C7.49944 78.1 7.69944 77.6 7.19944 77.3C6.69944 77 6.59943 77.1 6.09943 76.8C5.59943 76.5 5.49944 76.7 4.99944 76.4C4.49944 76.1 4.39944 76.2 3.89944 76C3.39944 75.7 3.39944 75.6 2.89944 75.3C2.39944 75 2.39944 75 1.89944 74.7C1.39944 74.4 1.19944 74.7 0.699436 74.4C-0.000564575 74.3 0.0994339 74 -0.400566 73.7C-0.900566 73.4 -1.10057 73.8 -1.70057 73.5C-2.30056 73.2 -2.50056 73.3 -2.60056 72.7C-2.80056 72.1 -2.10056 72.2 -1.80056 71.6C-1.50056 71 -1.80056 70.9 -1.50056 70.3C-1.20057 69.7 -1.40056 69.6 -0.800564 69.3C-0.200565 69.1 -0.300564 69.3 0.299435 69.5C0.799435 69.8 0.699436 70.1 1.19944 70.4C1.69944 70.7 1.89944 70.2 2.49944 70.5C2.99944 70.8 2.79944 71.2 3.39944 71.4C3.89944 71.7 3.89944 71.6 4.49944 71.9C4.99944 72.2 5.09943 72.1 5.59943 72.3C6.09943 72.6 6.29943 72.3 6.79943 72.6C7.29943 72.9 7.39944 72.8 7.89944 73.1C8.39944 73.4 8.39944 73.4 8.99944 73.6C9.49944 73.9 9.69944 73.8 9.89944 74.4C10.0994 75 9.89944 75.1 9.59944 75.7C9.29944 76.3 8.99944 76.2 8.79943 76.8C8.49944 77.5 8.69944 77.7 8.09944 77.9ZM-8.10056 70C-8.70057 70.2 -8.50056 69.7 -9.00056 69.4C-9.50056 69.1 -9.60056 69.2 -10.1006 68.9C-10.6006 68.6 -10.7006 68.8 -11.2006 68.5C-11.7006 68.2 -11.8006 68.3 -12.3006 68.1C-12.8006 67.8 -12.8006 67.7 -13.3006 67.4C-13.8006 67.1 -13.8006 67.1 -14.3006 66.8C-14.8006 66.5 -15.0006 66.8 -15.5006 66.5C-16.0006 66.2 -15.9006 65.9 -16.4006 65.7C-16.9006 65.4 -17.1006 65.8 -17.7006 65.5C-18.3006 65.2 -18.5006 65.3 -18.6006 64.7C-18.8006 64.1 -18.1006 64.2 -17.8006 63.6C-17.5006 63 -17.8006 62.9 -17.5006 62.3C-17.2006 61.7 -17.4006 61.6 -16.8006 61.3C-16.2006 61.1 -16.3006 61.3 -15.7006 61.5C-15.2006 61.8 -15.3006 62.1 -14.8006 62.4C-14.3006 62.7 -14.1006 62.2 -13.5006 62.5C-13.0006 62.8 -13.2006 63.2 -12.6006 63.4C-12.1006 63.7 -12.1006 63.6 -11.5006 63.9C-11.0006 64.2 -10.9006 64.1 -10.4006 64.3C-9.90056 64.6 -9.70056 64.3 -9.20056 64.6C-8.70056 64.9 -8.60056 64.8 -8.10056 65.1C-7.60056 65.4 -7.60056 65.4 -7.00056 65.6C-6.40056 65.8 -6.30057 65.8 -6.10056 66.4C-5.90056 67 -6.10056 67.1 -6.40056 67.7C-6.70056 68.3 -7.00056 68.2 -7.20056 68.8C-7.70056 69.6 -7.50056 69.8 -8.10056 70ZM-24.3006 62.1C-24.9006 62.3 -24.7006 61.8 -25.2006 61.5C-25.7006 61.2 -25.8006 61.3 -26.3006 61C-26.8006 60.7 -26.9006 60.9 -27.4006 60.6C-27.9006 60.3 -28.0006 60.4 -28.5006 60.2C-29.0006 59.9 -29.0006 59.8 -29.5006 59.5C-30.0006 59.2 -30.0006 59.2 -30.5006 58.9C-31.0006 58.6 -31.2006 58.9 -31.7006 58.6C-32.2006 58.3 -32.1006 58 -32.6006 57.8C-33.1006 57.5 -33.3006 57.9 -33.9006 57.6C-34.4006 57.3 -34.7006 57.4 -34.8006 56.8C-35.0006 56.2 -34.3006 56.3 -34.0006 55.7C-33.7006 55.1 -34.0006 55 -33.7006 54.4C-33.4006 53.8 -33.6006 53.7 -33.0006 53.4C-32.4006 53.2 -32.5006 53.4 -31.9006 53.6C-31.4006 53.9 -31.5006 54.2 -31.0006 54.5C-30.5006 54.8 -30.3006 54.3 -29.7006 54.6C-29.2006 54.9 -29.4006 55.3 -28.8006 55.5C-28.3006 55.8 -28.3006 55.7 -27.7006 56C-27.2006 56.3 -27.1006 56.2 -26.6006 56.4C-26.1006 56.7 -25.9006 56.4 -25.4006 56.7C-24.9006 57 -24.8006 56.9 -24.3006 57.2C-23.8006 57.5 -23.8006 57.5 -23.2006 57.7C-22.7006 58 -22.5006 57.9 -22.3006 58.5C-22.1006 59.1 -22.3006 59.2 -22.6006 59.8C-22.9006 60.4 -23.2006 60.3 -23.4006 60.9C-23.9006 61.7 -23.6006 61.9 -24.3006 62.1Z" fill="white"/>
<path d="M357.4 251.698C356.8 251.598 356.8 251.698 356.3 251.598C355.7 251.498 355.7 251.498 355.2 251.398C354.6 251.298 354.6 251.298 354.1 251.098C353.5 250.998 353.5 251.098 353 250.898C352.4 250.798 352.4 250.798 351.9 250.698C351.3 250.598 351.4 250.398 350.8 250.198C350.2 250.098 350.2 250.298 349.7 250.098C349.1 249.998 349.2 249.898 348.6 249.798C348 249.698 348 249.898 347.5 249.698C346.9 249.598 347 249.198 346.5 249.098C345.9 248.998 345.9 248.998 345.4 248.898C344.8 248.798 344.8 248.898 344.3 248.798C343.7 248.698 343.7 248.698 343.2 248.598C342.6 248.498 342.6 248.598 342.1 248.498C341.5 248.398 341.6 248.198 341 247.998C340.4 247.898 340.5 247.698 339.9 247.598C339.3 247.498 339.3 247.698 338.7 247.598C338.1 247.498 338.2 247.298 337.6 247.098C337 246.998 337 247.198 336.4 246.998C335.8 246.898 335.8 247.198 335.2 246.998C334.6 246.898 334.7 246.698 334.1 246.598C333.5 246.498 333.6 246.298 333 246.098C332.4 245.998 332.4 245.998 331.9 245.898C331.3 245.798 331.3 245.798 330.8 245.698C330.2 245.598 330.2 245.798 329.6 245.698C329 245.598 329.1 245.498 328.5 245.398C327.9 245.298 328 245.198 327.4 245.098C326.8 244.998 326.9 244.798 326.3 244.698C325.7 244.598 325.7 244.598 325.2 244.398C324.6 244.298 324.6 244.598 324 244.398C323.4 244.298 323.5 244.198 322.9 244.098C322.3 243.998 322.4 243.798 321.8 243.698C321.2 243.598 321.2 243.998 320.6 243.898C320 243.798 320 243.798 319.5 243.698C318.9 243.598 319 243.398 318.4 243.298C317.8 243.198 317.9 242.898 317.3 242.798C316.7 242.698 316.7 242.798 316.2 242.698C315.6 242.598 315.6 242.798 315 242.598C314.4 242.498 314.5 242.098 314 241.998C313.4 241.898 313.4 241.898 312.9 241.798C312.3 241.698 312.3 241.998 311.7 241.898C311.1 241.798 311.1 241.798 310.6 241.698C310 241.598 310.1 241.398 309.5 241.298C308.9 241.198 308.9 241.298 308.4 241.098C307.8 240.998 307.8 241.198 307.2 240.998C306.6 240.898 306.7 240.498 306.2 240.298C305.6 240.198 305.6 240.398 305 240.198C304.4 240.098 304.4 240.298 303.8 240.098C303.2 239.998 303.3 239.898 302.7 239.798C302.1 239.698 302.1 239.698 301.6 239.598C301 239.498 301.1 239.198 300.6 238.998C300 238.898 300 239.098 299.4 238.998C298.8 238.898 298.9 238.598 298.3 238.498C297.7 238.398 297.7 238.498 297.2 238.398C296.6 238.298 296.6 238.498 296 238.398C295.4 238.298 295.5 238.098 294.9 237.898C294.3 237.798 294.4 237.698 293.8 237.598C293.2 237.498 293.2 237.798 292.6 237.598C292 237.498 292.1 237.198 291.5 237.098C290.9 236.998 290.9 237.098 290.4 236.898C289.8 236.798 289.9 236.698 289.3 236.598C288.7 236.498 288.7 236.598 288.2 236.498C287.6 236.398 287.6 236.498 287.1 236.298C286.5 236.198 286.6 235.898 286 235.798C285.4 235.698 285.4 235.698 284.9 235.598C284.3 235.498 284.3 235.698 283.7 235.498C283.1 235.398 283.2 235.198 282.6 235.098C282 234.998 282 235.198 281.4 235.098C280.8 234.998 280.9 234.598 280.4 234.498C279.8 234.398 279.8 234.598 279.2 234.498C278.6 234.398 278.7 234.198 278.1 234.098C277.5 233.998 277.5 234.098 277 233.998C276.4 233.898 276.4 233.898 275.9 233.798C275.3 233.698 275.4 233.498 274.8 233.398C274.2 233.298 274.3 233.198 273.7 233.098C273.1 232.998 273.1 233.298 272.5 233.198C271.9 233.098 272 232.998 271.4 232.898C270.8 232.798 270.9 232.598 270.3 232.498C269.7 232.398 269.8 232.298 269.2 232.198C268.6 232.098 268.6 232.298 268 232.198C267.4 232.098 267.5 231.998 266.9 231.898C266.3 231.798 266.4 231.598 265.8 231.498C265.2 231.398 265.3 231.298 264.7 231.198C264.1 231.098 264.1 231.398 263.5 231.198C262.9 231.098 263 230.798 262.4 230.698C261.8 230.598 261.8 230.598 261.3 230.398C260.7 230.298 260.7 230.498 260.1 230.398C259.5 230.298 259.5 230.398 259 230.298C258.4 230.198 258.5 229.998 257.9 229.898C257.3 229.798 257.4 229.698 256.8 229.498C256.2 229.398 256.2 229.498 255.7 229.398C255.1 229.298 255.1 229.298 254.6 229.098C254 228.998 254.1 228.798 253.5 228.698C252.9 228.598 252.9 228.698 252.4 228.498C251.8 228.398 251.8 228.498 251.3 228.398C250.7 228.298 250.8 228.198 250.2 227.998C249.6 227.898 249.6 228.098 249 227.998C248.4 227.898 248.5 227.698 247.9 227.598C247.3 227.498 247.3 227.698 246.7 227.598C246.1 227.498 246.2 227.098 245.7 226.898C245.1 226.798 245.1 227.198 244.5 227.098C243.9 226.998 244 226.898 243.4 226.798C242.8 226.698 242.9 226.398 242.4 226.198C241.8 226.098 241.8 226.298 241.2 226.198C240.6 226.098 240.7 225.998 240.1 225.898C239.5 225.798 239.6 225.698 239 225.498C238.4 225.398 238.3 225.798 237.8 225.698C237.2 225.598 237.3 225.198 236.8 225.098C236.2 224.998 236.2 225.298 235.6 225.098C235 224.998 235.1 224.898 234.5 224.698C233.9 224.598 234 224.498 233.4 224.398C232.8 224.298 232.9 224.198 232.3 224.098C231.7 223.998 231.7 224.298 231.1 224.198C230.5 224.098 230.6 223.898 230 223.798C229.4 223.698 229.4 223.898 228.8 223.698C228.2 223.598 228.2 223.598 227.7 223.498C227.1 223.398 227.2 223.098 226.7 222.898C226.1 222.798 226.1 222.998 225.5 222.898C224.9 222.798 224.9 222.798 224.4 222.598C223.8 222.498 223.9 222.098 223.4 221.998C222.8 221.898 222.8 222.298 222.2 222.098C221.6 221.998 221.7 221.898 221.1 221.798C220.5 221.698 220.6 221.298 220.1 221.198C219.5 221.098 219.5 221.098 219 220.998C218.4 220.898 218.4 220.898 217.9 220.798C217.3 220.698 217.3 221.098 216.7 220.898C216.1 220.798 216.2 220.398 215.7 220.198C215.1 220.098 215.1 220.098 214.6 219.998C214 219.898 214 220.198 213.4 220.098C212.8 219.998 212.9 219.698 212.3 219.598C211.7 219.498 211.7 219.798 211.1 219.698C210.5 219.598 210.6 219.198 210.1 219.098" stroke="white" stroke-width="6"/>
<path d="M345.099 91.5984C344.599 91.7984 344.599 91.8984 344.099 92.1984C343.599 92.3984 343.699 92.5984 343.099 92.8984C342.599 93.0984 342.599 93.1984 342.099 93.3984C341.599 93.5984 341.599 93.5984 340.999 93.7984C340.499 93.9984 340.399 93.7984 339.899 93.9984C339.399 94.1984 339.299 94.0984 338.799 94.2984C338.299 94.4984 338.299 94.6984 337.799 94.8984C337.299 95.0984 337.399 95.2984 336.799 95.4984C336.299 95.6984 336.199 95.4984 335.699 95.7984C335.199 95.9984 335.199 95.9984 334.599 96.1984C334.099 96.3984 334.199 96.5984 333.599 96.7984C333.099 96.9984 333.099 96.9984 332.499 97.1984C331.999 97.3984 331.899 97.1984 331.399 97.3984C330.899 97.5984 330.899 97.6984 330.399 97.8984C329.899 98.0984 329.899 98.1984 329.399 98.3984C328.899 98.5984 328.899 98.6984 328.399 98.8984C327.899 99.0984 327.999 99.3984 327.499 99.5984C326.999 99.7984 326.799 99.3984 326.299 99.5984C325.799 99.7984 325.899 99.9984 325.399 100.298C324.899 100.498 324.899 100.698 324.399 100.898C323.899 101.098 323.799 100.898 323.299 101.198C322.799 101.398 322.699 101.398 322.199 101.598C321.699 101.798 321.599 101.698 321.099 101.998C320.599 102.198 320.699 102.498 320.199 102.798C319.699 102.998 319.599 102.898 319.099 103.198C318.599 103.398 318.499 103.298 317.999 103.498C317.499 103.698 317.599 103.998 317.099 104.198C316.599 104.398 316.599 104.498 316.099 104.698C315.599 104.898 315.499 104.798 314.999 105.098C314.499 105.298 314.299 104.998 313.799 105.198C313.299 105.398 313.299 105.598 312.799 105.798C312.299 105.998 312.299 105.998 311.799 106.198C311.299 106.398 311.399 106.698 310.899 106.898C310.399 107.098 310.299 106.998 309.799 107.198C309.299 107.398 309.299 107.398 308.699 107.598C308.199 107.798 308.199 107.898 307.699 108.198C307.199 108.398 306.999 107.998 306.499 108.298C305.999 108.498 306.099 108.898 305.599 109.098C305.099 109.298 304.999 109.098 304.499 109.298C303.999 109.498 304.099 109.698 303.599 109.998C303.099 110.198 302.999 109.998 302.499 110.298C301.999 110.498 302.099 110.798 301.599 110.998C301.099 111.198 300.999 111.098 300.499 111.398C299.999 111.598 299.999 111.598 299.399 111.798C298.899 111.998 298.799 111.798 298.299 112.098C297.799 112.298 297.799 112.398 297.299 112.598C296.799 112.798 296.899 113.098 296.399 113.298C295.899 113.498 295.799 113.298 295.299 113.598C294.799 113.798 294.699 113.698 294.199 113.998C293.699 114.198 293.699 114.398 293.199 114.598C292.699 114.798 292.599 114.698 292.099 114.898C291.599 115.098 291.599 115.198 291.099 115.398C290.599 115.598 290.599 115.598 290.099 115.798C289.599 115.998 289.599 116.098 289.099 116.298C288.599 116.498 288.699 116.798 288.199 116.998C287.699 117.198 287.699 117.198 287.199 117.498C286.699 117.698 286.699 117.698 286.099 117.898C285.599 118.098 285.599 118.198 285.099 118.398C284.599 118.598 284.399 118.298 283.899 118.498C283.399 118.698 283.299 118.698 282.799 118.898C282.299 119.098 282.299 119.198 281.799 119.398C281.299 119.598 281.299 119.598 280.699 119.798C280.199 119.998 280.199 120.198 279.699 120.398C279.199 120.598 279.299 120.898 278.799 121.098C278.299 121.298 278.099 120.998 277.599 121.198C277.099 121.398 277.099 121.498 276.599 121.698C276.099 121.898 275.999 121.898 275.499 122.098C274.999 122.298 274.999 122.298 274.399 122.498C273.899 122.698 273.899 122.798 273.399 122.998C272.899 123.198 272.899 123.398 272.399 123.598C271.899 123.798 271.899 123.898 271.399 124.198C270.899 124.398 270.799 124.298 270.299 124.498" stroke="white" stroke-width="6"/>
<path d="M196.799 -18.3C196.999 -17.8 196.999 -17.8 197.299 -17.3C197.499 -16.8 197.599 -16.8 197.799 -16.3C197.999 -15.8 198.099 -15.8 198.399 -15.3C198.599 -14.8 198.299 -14.6 198.499 -14.1C198.699 -13.6 198.699 -13.6 198.999 -13.1C199.199 -12.6 199.299 -12.6 199.599 -12.1C199.799 -11.6 199.799 -11.6 199.999 -11.1C200.199 -10.6 200.499 -10.7 200.699 -10.2C200.899 -9.70005 200.899 -9.70005 201.099 -9.20005C201.299 -8.70005 201.399 -8.70005 201.699 -8.20005C201.899 -7.70005 201.899 -7.70005 202.099 -7.10005C202.299 -6.60005 202.099 -6.50005 202.399 -6.00005C202.599 -5.50005 202.699 -5.50005 202.999 -5.00005C203.199 -4.50005 203.399 -4.60005 203.599 -4.00005C203.799 -3.50005 203.899 -3.50005 204.099 -3.00005C204.299 -2.50005 203.999 -2.30005 204.199 -1.80005C204.399 -1.30005 204.799 -1.50005 204.999 -0.900049C205.199 -0.400049 204.899 -0.20005 205.199 0.29995C205.399 0.79995 205.699 0.699951 205.999 1.19995C206.199 1.69995 205.999 1.79995 206.199 2.39995C206.399 2.89995 206.499 2.89995 206.699 3.39995C206.899 3.89995 206.999 3.89995 207.199 4.39995C207.399 4.89995 207.399 4.89995 207.699 5.39995C207.899 5.89995 207.899 5.89995 208.199 6.39995C208.399 6.89995 208.699 6.79995 208.899 7.29995C209.099 7.79995 208.999 7.89995 209.299 8.39995C209.499 8.89995 209.499 8.89995 209.799 9.39995C209.999 9.89995 209.799 9.99995 209.999 10.5C210.199 11 210.699 10.7999 210.899 11.2999C211.099 11.7999 210.999 11.9 211.199 12.4C211.399 12.9 211.199 13 211.399 13.5C211.599 14 211.899 13.8999 212.099 14.3999C212.299 14.8999 212.499 14.7999 212.699 15.3999C212.899 15.8999 212.699 16 212.999 16.5C213.199 17 213.199 17 213.499 17.5C213.699 18 213.499 18.1 213.799 18.6C213.999 19.1 214.199 19 214.399 19.6C214.599 20.1 214.599 20.1 214.799 20.7C214.999 21.2 214.999 21.2999 215.199 21.7999C215.399 22.2999 215.699 22.2 215.999 22.7C216.199 23.2 215.999 23.2999 216.299 23.7999C216.499 24.2999 216.799 24.2 217.099 24.7C217.299 25.2 216.999 25.3999 217.199 25.8999C217.399 26.3999 217.399 26.3999 217.699 26.8999C217.899 27.3999 218.199 27.2999 218.399 27.7999C218.599 28.2999 218.499 28.3999 218.699 28.8999C218.899 29.3999 218.999 29.3999 219.199 29.8999C219.399 30.3999 219.499 30.3999 219.699 30.8999C219.899 31.3999 220.099 31.2999 220.299 31.8999C220.499 32.3999 220.599 32.4 220.799 32.9C220.999 33.4 220.999 33.4 221.299 33.9C221.499 34.4 221.499 34.5 221.699 35C221.899 35.5 221.999 35.5 222.299 36C222.499 36.5 222.299 36.5999 222.599 37.0999C222.799 37.5999 222.799 37.7 222.999 38.2C223.199 38.7 223.499 38.5999 223.799 39.0999C223.999 39.5999 223.899 39.7 224.099 40.2C224.299 40.7 224.399 40.7 224.599 41.2" stroke="white" stroke-width="6"/>
<path d="M87.7988 -17.3C87.9988 -16.8 88.0988 -16.8 88.3988 -16.3C88.5988 -15.8 88.3988 -15.7 88.5988 -15.1C88.7988 -14.6 88.9988 -14.7 89.2988 -14.1C89.4988 -13.6 89.4988 -13.6 89.6988 -13C89.8988 -12.5 89.7988 -12.4 89.9988 -11.9C90.1988 -11.4 90.1988 -11.4 90.3988 -10.8C90.5988 -10.3 90.5988 -10.3 90.8988 -9.80005C91.0988 -9.30005 91.1988 -9.30005 91.3988 -8.80005C91.5988 -8.30005 91.5988 -8.30005 91.8988 -7.80005C92.0988 -7.30005 92.0988 -7.30005 92.3988 -6.80005C92.5988 -6.30005 92.7988 -6.40005 92.9988 -5.80005C93.1988 -5.30005 93.0988 -5.20005 93.2988 -4.70005C93.4988 -4.20005 93.5988 -4.20005 93.7988 -3.70005C93.9988 -3.20005 94.2988 -3.30005 94.5988 -2.80005C94.7988 -2.30005 94.7988 -2.30005 95.0988 -1.80005C95.2988 -1.30005 95.2988 -1.30005 95.5988 -0.800049C95.7988 -0.300049 95.8988 -0.300049 96.1988 0.199951C96.3988 0.699951 96.3988 0.699951 96.6988 1.19995C96.8988 1.69995 96.7988 1.79995 96.9988 2.29995C97.1988 2.79995 97.3988 2.79995 97.5988 3.29995C97.7988 3.79995 97.4988 3.99995 97.7988 4.49995C97.9988 4.99995 98.2988 4.89995 98.5988 5.39995C98.7988 5.89995 98.5988 5.99995 98.7988 6.49995C98.9988 6.99995 99.2988 6.89995 99.5988 7.39995C99.7988 7.89995 99.5988 7.99995 99.8988 8.49995C100.099 8.99995 99.9988 9.09995 100.199 9.59995C100.399 10.1 100.699 9.99995 100.899 10.5C101.099 11 101.099 11.1 101.299 11.6C101.499 12.1 101.299 12.2 101.599 12.7C101.799 13.2 101.999 13.2 102.199 13.7C102.399 14.2 102.699 14.1 102.899 14.6C103.099 15.1 103.199 15.1 103.499 15.6C103.699 16.1 103.299 16.2999 103.599 16.7999C103.799 17.2999 104.199 17.2 104.399 17.7C104.599 18.2 104.499 18.2999 104.699 18.7999C104.899 19.2999 105.099 19.2999 105.299 19.7999C105.499 20.2999 105.599 20.2999 105.899 20.7999C106.099 21.2999 105.799 21.5 105.999 22C106.199 22.5 106.599 22.3999 106.799 22.8999C106.999 23.3999 106.899 23.5 107.199 24C107.399 24.5 107.499 24.5 107.799 25C107.999 25.5 107.699 25.7 107.899 26.2C108.099 26.7 108.499 26.6 108.699 27.1C108.899 27.6 108.899 27.6 109.099 28.2C109.299 28.7 109.399 28.7 109.599 29.2C109.799 29.7 109.699 29.7999 109.899 30.2999C110.099 30.7999 109.999 30.8999 110.299 31.3999C110.499 31.8999 110.699 31.9 110.899 32.4C111.099 32.9 111.199 32.9 111.399 33.4C111.599 33.9 111.699 33.9 111.899 34.4C112.099 34.9 111.999 35 112.199 35.5C112.399 36 112.699 35.9 112.899 36.4C113.099 36.9 113.099 37 113.299 37.5C113.499 38 113.599 38 113.899 38.5C114.099 39 113.799 39.2 113.999 39.7C114.199 40.2 114.299 40.2 114.599 40.7C114.799 41.2 114.899 41.2 115.199 41.7C115.499 42.2 115.299 42.2999 115.499 42.7999" stroke="white" stroke-width="6"/>
<path d="M131.1 133.5C131 132.9 131.1 132.9 131 132.4C130.9 131.8 130.7 131.9 130.6 131.3C130.5 130.7 130.7 130.7 130.6 130.1C130.5 129.5 130.3 129.6 130.2 129C130.1 128.4 130 128.5 129.9 127.9C129.8 127.3 130 127.3 129.9 126.7C129.8 126.1 129.6 126.2 129.5 125.6C129.4 125 129.3 125.1 129.2 124.5C129.1 123.9 129.3 123.9 129.2 123.3C129.1 122.7 128.9 122.8 128.8 122.2C128.7 121.6 128.9 121.6 128.8 121C128.7 120.4 128.5 120.5 128.4 119.9C128.3 119.3 128.4 119.3 128.3 118.8C128.2 118.2 128.2 118.2 128.1 117.7C128 117.1 128 117.1 127.9 116.6C127.8 116 127.8 116 127.7 115.5C127.6 114.9 127.4 115 127.3 114.4C127.2 113.8 127.5 113.8 127.4 113.2C127.3 112.6 127.4 112.6 127.3 112.1C127.2 111.5 127.1 111.6 127 111C126.9 110.4 126.6 110.5 126.5 109.9C126.4 109.3 126.7 109.3 126.6 108.7C126.5 108.1 126.5 108.1 126.4 107.6C126.3 107 126.2 107 126.1 106.5C126 105.9 126.2 105.9 126.1 105.3C126 104.7 125.8 104.8 125.7 104.2C125.6 103.6 125.7 103.6 125.6 103.1C125.5 102.5 125.8 102.5 125.7 101.9C125.6 101.3 125.5 101.4 125.4 100.8C125.3 100.2 125.1 100.3 125 99.6999C124.9 99.0999 124.9 99.0999 124.8 98.5999C124.7 97.9999 124.7 98 124.6 97.5C124.5 96.9 124.7 96.9 124.6 96.3C124.5 95.7 124.3 95.7999 124.2 95.1999C124.1 94.5999 124.1 94.5999 124 94.0999C123.9 93.4999 123.7 93.6 123.6 93C123.5 92.4 123.8 92.4 123.7 91.8C123.6 91.2 123.4 91.2999 123.3 90.6999C123.2 90.0999 123.5 90.1 123.4 89.5C123.3 88.9 123.1 89 123 88.4C122.9 87.8 123.1 87.7999 123 87.1999C122.9 86.5999 122.8 86.6999 122.7 86.0999C122.6 85.4999 122.6 85.5 122.5 85C122.4 84.4 122.3 84.5 122.2 83.9C122.1 83.3 121.9 83.4 121.8 82.8C121.7 82.2 122.1 82.1999 122 81.5999C121.9 80.9999 121.9 81 121.8 80.5C121.7 79.9 121.5 80 121.4 79.4C121.3 78.8 121.3 78.8 121.2 78.3C121.1 77.7 121 77.7999 120.9 77.1999C120.8 76.5999 120.7 76.6999 120.6 76.0999C120.5 75.4999 120.5 75.5 120.4 75C120.3 74.4 120.5 74.4 120.4 73.8C120.3 73.2 120.1 73.2999 120 72.6999C119.9 72.0999 120.1 72.1 120 71.5C119.9 70.9 119.7 71 119.6 70.4C119.5 69.8 119.6 69.8 119.5 69.3C119.4 68.7 119.3 68.7999 119.2 68.1999C119.1 67.5999 119.5 67.6 119.4 67C119.3 66.4 119.1 66.5 119 65.9C118.9 65.3 119.1 65.2999 119 64.6999C118.9 64.0999 118.5 64.1999 118.4 63.5999C118.3 62.9999 118.6 63 118.5 62.4C118.4 61.8 118.4 61.7999 118.3 61.2999C118.2 60.6999 117.9 60.8 117.8 60.2C117.7 59.6 118.1 59.6 118 59C117.9 58.4 117.5 58.5 117.4 57.9C117.3 57.3 117.5 57.3 117.4 56.7C117.3 56.1 117.4 56.0999 117.3 55.5999C117.2 54.9999 117.1 55.1 117 54.5C116.9 53.9 116.9 53.9 116.8 53.4C116.7 52.8 116.7 52.7999 116.6 52.2999C116.5 51.6999 116.5 51.7 116.4 51.2C116.3 50.6 116.1 50.6999 116 50.0999C115.9 49.4999 116.3 49.5 116.2 48.9C116.1 48.3 115.7 48.3999 115.6 47.7999C115.5 47.1999 115.7 47.1999 115.6 46.5999C115.5 45.9999 115.3 46.1 115.2 45.5C115.1 44.9 115.2 44.9 115.1 44.4C115 43.8 115.1 43.8 115 43.2" stroke="white" stroke-width="6"/>
<path d="M50.9996 202.7C50.4996 202.9 50.4996 202.9 49.8996 203.1C49.3996 203.3 49.2996 203.1 48.7996 203.3C48.2996 203.5 48.2996 203.7 47.7996 203.9C47.2996 204.1 47.1996 204 46.6996 204.2C46.1996 204.4 46.1996 204.4 45.5996 204.6C45.0996 204.8 45.1996 205.1 44.5996 205.2C44.0996 205.4 43.9996 205.1 43.3996 205.3C42.8996 205.5 42.9996 205.7 42.3996 205.9C41.8996 206.1 41.8996 206.2 41.3996 206.4C40.8996 206.6 40.6996 206.3 40.1996 206.4C39.6996 206.6 39.7996 206.8 39.1996 207C38.6996 207.2 38.5996 206.9 37.9996 207.1C37.4996 207.3 37.4996 207.5 36.9996 207.6C36.4996 207.8 36.4996 207.8 35.8996 208C35.3996 208.2 35.2996 208.1 34.7996 208.3C34.2996 208.5 34.2996 208.6 33.7996 208.8C33.2996 209 33.2996 209 32.6996 209.1C32.1996 209.3 32.1996 209.3 31.5996 209.5C31.0996 209.7 30.8996 209.3 30.3996 209.5C29.8996 209.7 29.8996 209.7 29.2996 209.9C28.7996 210.1 28.7996 210.1 28.1996 210.3C27.6996 210.5 27.6996 210.6 27.1996 210.8C26.6996 211 26.6996 211 26.0996 211.2C25.5996 211.4 25.4996 211.3 24.9996 211.5C24.4996 211.7 24.4996 211.7 23.8996 211.9C23.3996 212.1 23.3996 212.2 22.8996 212.4C22.3996 212.6 22.2996 212.3 21.6996 212.5C21.1996 212.7 21.2996 213 20.7996 213.2C20.2996 213.4 20.1996 213.4 19.6996 213.5C19.1996 213.7 19.1996 213.8 18.5996 214C18.0996 214.2 17.8996 213.8 17.3996 214C16.8996 214.2 16.9996 214.5 16.4996 214.7C15.9996 214.9 15.9996 215 15.3996 215.2C14.8996 215.4 14.7996 215.1 14.1996 215.3C13.6996 215.5 13.6996 215.5 13.0996 215.7C12.5996 215.9 12.5996 215.9 11.9996 216.1C11.4996 216.3 11.4996 216.5 10.9996 216.7C10.4996 216.9 10.3996 216.6 9.79961 216.8C9.29961 217 9.29961 217 8.69961 217.2C8.19961 217.4 8.19961 217.6 7.69961 217.8C7.19961 218 7.09961 217.7 6.49961 217.9C5.99961 218.1 5.99961 218.1 5.39961 218.3C4.89961 218.5 4.89961 218.6 4.39961 218.8C3.89961 219 3.79961 218.8 3.29961 219C2.79961 219.2 2.79961 219.3 2.19961 219.5C1.69961 219.7 1.59961 219.7 1.09961 219.8C0.599609 220 0.599609 220 -0.00039053 220.2C-0.500391 220.4 -0.400391 220.7 -1.00039 220.9C-1.50039 221.1 -1.60039 220.9 -2.20039 221.1C-2.70039 221.3 -2.80039 221.2 -3.30039 221.4C-3.80039 221.6 -3.80039 221.7 -4.40039 221.9C-4.90039 222.1 -4.90039 222.2 -5.40039 222.4" stroke="white" stroke-width="6"/>
<path d="M58 197.701C58.4 197.301 58.4 197.301 58.8 196.901C59.2 196.501 59.4 196.701 59.8 196.301C60.2 195.901 60.1 195.801 60.5 195.401C60.9 195.001 60.9 195.001 61.3 194.601C61.7 194.201 61.7 194.101 62.1 193.801C62.5 193.401 62.6 193.501 63.1 193.201C63.5 192.801 63.4 192.701 63.8 192.301C64.2 191.901 64.4 192.101 64.8 191.701C65.2 191.301 65.4 191.501 65.8 191.101C66.2 190.701 65.9 190.401 66.4 190.001C66.8 189.601 67.1 189.901 67.5 189.601C67.9 189.201 67.9 189.201 68.3 188.801C68.7 188.401 68.7 188.401 69.1 188.001C69.5 187.601 69.4 187.401 69.8 187.101C70.2 186.701 70.3 186.801 70.7 186.401C71.1 186.001 71 185.901 71.4 185.501C71.8 185.101 72 185.301 72.4 184.901C72.8 184.501 72.9 184.601 73.4 184.301C73.8 183.901 73.8 183.901 74.2 183.501C74.6 183.101 74.6 183.101 75 182.701C75.4 182.301 75.3 182.201 75.8 181.801C76.2 181.401 76.5 181.701 76.9 181.301C77.3 180.901 77.3 180.901 77.7 180.501C78.1 180.101 78 180.001 78.4 179.601C78.8 179.201 78.9 179.301 79.3 178.901C79.7 178.501 79.5 178.301 80 177.901C80.4 177.501 80.6 177.801 81.1 177.401C81.5 177.001 81.3 176.801 81.7 176.401C82.1 176.001 82.2 176.101 82.6 175.701C83 175.301 83.2 175.501 83.6 175.101C84 174.701 84 174.701 84.4 174.301C84.8 173.901 84.8 173.901 85.3 173.501C85.7 173.101 85.5 172.901 86 172.501C86.4 172.101 86.5 172.201 87 171.901C87.4 171.501 87.5 171.601 87.9 171.201C88.3 170.801 88.3 170.801 88.7 170.401C89.1 170.001 89.2 170.101 89.6 169.701C90 169.301 89.9 169.101 90.3 168.801C90.7 168.401 91 168.701 91.4 168.301C91.8 167.901 91.8 167.901 92.3 167.601C92.7 167.201 92.7 167.201 93.1 166.801C93.5 166.401 93.5 166.401 93.9 166.001C94.3 165.601 94.3 165.601 94.8 165.301C95.2 164.901 95.2 164.901 95.6 164.501C96 164.101 95.9 163.901 96.3 163.601C96.7 163.201 96.9 163.401 97.4 163.101C97.8 162.701 97.7 162.601 98.1 162.201C98.5 161.801 98.7 162.001 99.1 161.601C99.5 161.201 99.5 161.201 100 160.901C100.4 160.501 100.3 160.401 100.8 160.001C101.2 159.601 101.3 159.701 101.7 159.301C102.1 158.901 102 158.801 102.4 158.401C102.8 158.001 102.9 158.101 103.3 157.701C103.7 157.301 103.7 157.301 104.1 156.901C104.5 156.501 104.5 156.501 104.9 156.101C105.3 155.701 105.3 155.701 105.8 155.401C106.2 155.001 106.4 155.201 106.8 154.801C107.2 154.401 107.2 154.401 107.6 154.001C108 153.601 108.1 153.701 108.5 153.301C108.9 152.901 108.9 152.901 109.4 152.501C109.8 152.101 109.6 151.901 110.1 151.501C110.5 151.101 110.7 151.301 111.1 150.901C111.5 150.501 111.4 150.401 111.8 150.001C112.2 149.601 112.2 149.601 112.7 149.201C113.1 148.801 113.3 149.001 113.7 148.601C114.1 148.201 114 148.101 114.5 147.701C114.9 147.301 115.1 147.501 115.5 147.101C115.9 146.701 115.9 146.701 116.3 146.301C116.7 145.901 116.6 145.801 117 145.401C117.4 145.001 117.4 145.001 117.8 144.601C118.2 144.201 118.5 144.501 118.9 144.101C119.3 143.701 119.3 143.601 119.7 143.301C120.1 142.901 120 142.701 120.4 142.401C120.8 142.001 120.9 142.101 121.3 141.701C121.7 141.301 121.9 141.501 122.3 141.101C122.7 140.701 122.5 140.401 122.9 140.001C123.3 139.601 123.6 139.901 124 139.501C124.4 139.101 124.5 139.101 124.9 138.801C125.3 138.401 125.1 138.101 125.5 137.701C125.9 137.301 126.1 137.501 126.5 137.101C126.9 136.701 126.8 136.501 127.2 136.201C127.6 135.801 127.7 135.901 128.1 135.501C128.5 135.101 128.7 135.301 129.2 135.001C129.6 134.601 129.3 134.301 129.8 133.901C130.2 133.501 130.3 133.601 130.8 133.201C131.2 132.801 131.4 133.001 131.9 132.601C132.3 132.201 132.1 131.901 132.5 131.501" stroke="white" stroke-width="6"/>
<path d="M57.0996 199.302C57.1996 199.902 57.0996 199.902 57.2996 200.402C57.3996 201.002 57.1996 201.002 57.2996 201.602C57.3996 202.202 57.7996 202.102 57.8996 202.602C57.9996 203.202 58.0996 203.102 58.1996 203.702C58.2996 204.302 57.9996 204.302 58.0996 204.902C58.1996 205.502 58.4996 205.402 58.5996 206.002C58.6996 206.602 58.6996 206.602 58.7996 207.102C58.8996 207.702 58.7996 207.702 58.8996 208.202C58.9996 208.802 59.0996 208.702 59.1996 209.302C59.2996 209.902 59.0996 209.902 59.1996 210.502C59.2996 211.102 59.4996 211.002 59.5996 211.602C59.6996 212.202 59.8996 212.102 59.9996 212.702C60.0996 213.302 59.8996 213.302 59.9996 213.902C60.0996 214.502 60.3996 214.402 60.5996 214.902C60.6996 215.502 60.6996 215.502 60.8996 216.002C60.9996 216.602 60.7996 216.602 60.8996 217.202C60.9996 217.802 61.1996 217.702 61.3996 218.302C61.4996 218.902 61.2996 218.902 61.3996 219.502C61.4996 220.102 61.5996 220.002 61.7996 220.602C61.8996 221.202 61.8996 221.202 61.9996 221.702C62.0996 222.302 62.1996 222.202 62.2996 222.802C62.3996 223.402 62.1996 223.402 62.2996 224.002C62.3996 224.602 62.5996 224.502 62.6996 225.102C62.7996 225.702 62.6996 225.702 62.8996 226.202C62.9996 226.802 62.9996 226.802 63.0996 227.302C63.1996 227.902 63.3996 227.802 63.4996 228.402C63.5996 229.002 63.6996 228.902 63.8996 229.502C63.9996 230.102 63.8996 230.102 63.9996 230.602C64.0996 231.202 64.1996 231.102 64.3996 231.702C64.4996 232.302 64.3996 232.302 64.4996 232.802C64.5996 233.402 64.9996 233.302 65.0996 233.802C65.1996 234.402 64.9996 234.402 65.0996 235.002C65.1996 235.602 65.1996 235.602 65.2996 236.102C65.3996 236.702 65.3996 236.702 65.4996 237.202C65.5996 237.802 65.7996 237.702 65.8996 238.302C65.9996 238.902 65.8996 238.902 65.9996 239.402C66.0996 240.002 66.3996 239.902 66.5996 240.402C66.6996 241.002 66.4996 241.002 66.5996 241.602C66.6996 242.202 66.9996 242.102 67.0996 242.602C67.1996 243.202 67.1996 243.202 67.2996 243.702C67.3996 244.302 67.0996 244.302 67.1996 244.902C67.2996 245.502 67.5996 245.402 67.7996 245.902C67.8996 246.502 67.5996 246.502 67.6996 247.102C67.7996 247.702 67.8996 247.602 67.9996 248.202C68.0996 248.802 68.2996 248.702 68.3996 249.302C68.4996 249.902 68.5996 249.802 68.7996 250.402C68.8996 251.002 68.8996 251.002 68.9996 251.502C69.0996 252.102 69.0996 252.102 69.1996 252.602C69.2996 253.202 69.1996 253.202 69.2996 253.702C69.3996 254.302 69.6996 254.202 69.7996 254.802C69.8996 255.402 69.6996 255.402 69.7996 256.002C69.8996 256.602 69.8996 256.602 70.0996 257.102C70.1996 257.702 70.5996 257.602 70.6996 258.102C70.7996 258.702 70.4996 258.701 70.5996 259.301C70.6996 259.901 70.6996 259.902 70.8996 260.402C70.9996 261.002 71.1996 260.902 71.3996 261.502C71.4996 262.102 71.3996 262.102 71.5996 262.602C71.6996 263.202 71.6996 263.202 71.7996 263.702C71.8996 264.302 71.8996 264.301 72.0996 264.801C72.1996 265.401 72.0996 265.402 72.2996 265.902C72.3996 266.502 72.4996 266.402 72.6996 267.002C72.7996 267.602 72.6996 267.602 72.7996 268.102C72.8996 268.702 72.8996 268.702 73.0996 269.202C73.1996 269.802 73.2996 269.701 73.3996 270.301C73.4996 270.901 73.6996 270.802 73.8996 271.402C73.9996 272.002 73.9996 272.002 74.0996 272.502C74.1996 273.102 74.1996 273.102 74.3996 273.602C74.4996 274.202 74.2996 274.201 74.3996 274.801C74.4996 275.401 74.6996 275.302 74.8996 275.902C74.9996 276.502 74.9996 276.502 75.0996 277.002C75.1996 277.602 75.0996 277.602 75.1996 278.202C75.2996 278.802 75.2996 278.801 75.4996 279.301C75.6996 279.801 75.6996 279.802 75.8996 280.402" stroke="white" stroke-width="6"/>
<path d="M191.599 279.7C191.199 279.9 191.199 279.9 190.699 279.7C190.199 279.5 190.399 279.2 189.899 279C189.399 278.8 189.299 279.2 188.799 279C188.299 278.8 188.299 278.9 188.099 278.4C187.899 277.9 188.299 278.1 188.499 277.5C188.699 277 188.299 276.8 188.499 276.3C188.699 275.8 188.699 275.8 188.899 275.3C189.099 274.8 189.199 274.8 189.399 274.3C189.599 273.8 189.799 273.9 189.999 273.4C190.199 272.9 190.099 272.9 190.299 272.3C190.499 271.8 190.599 271.8 190.799 271.3C190.999 270.8 190.699 270.7 190.899 270.2C191.099 269.7 191.199 269.7 191.399 269.2C191.599 268.7 191.799 268.8 191.999 268.3C192.199 267.8 191.799 267.6 192.199 267.3C192.599 267.1 192.699 267.2 193.099 267.4C193.599 267.6 193.399 267.9 193.899 268.1C194.399 268.3 194.399 268.1 194.899 268.3C195.399 268.5 195.499 268.2 195.699 268.7C195.899 269.2 195.499 269.1 195.299 269.6C195.099 270.1 195.099 270.1 194.899 270.6C194.699 271.1 194.999 271.2 194.799 271.7C194.599 272.2 194.399 272.1 194.199 272.6C193.999 273.1 193.999 273.1 193.799 273.6C193.599 274.1 193.499 274.1 193.299 274.6C193.099 275.1 193.399 275.2 193.199 275.7C192.999 276.2 192.999 276.2 192.799 276.7C192.599 277.2 192.299 277.1 192.099 277.6C191.899 278.1 191.799 278.1 191.699 278.6C191.799 279.4 192.099 279.5 191.599 279.7ZM198.199 263C197.799 263.2 197.799 263.2 197.299 263C196.799 262.8 196.999 262.5 196.499 262.3C195.999 262.1 195.899 262.5 195.399 262.3C194.899 262.1 194.899 262.2 194.699 261.7C194.499 261.2 194.899 261.4 195.099 260.8C195.299 260.3 194.899 260.1 195.099 259.6C195.299 259.1 195.299 259.1 195.499 258.6C195.699 258.1 195.799 258.1 195.999 257.6C196.199 257.1 196.399 257.2 196.599 256.7C196.799 256.2 196.699 256.2 196.899 255.6C197.099 255.1 197.199 255.1 197.399 254.6C197.599 254.1 197.299 254 197.499 253.5C197.699 253 197.799 253 197.999 252.5C198.199 252 198.399 252.1 198.599 251.6C198.799 251.1 198.399 250.9 198.799 250.6C199.199 250.4 199.299 250.5 199.699 250.7C200.199 250.9 199.999 251.2 200.499 251.4C200.999 251.6 200.999 251.4 201.499 251.6C201.999 251.8 202.099 251.5 202.299 252C202.499 252.5 202.099 252.4 201.899 252.9C201.699 253.4 201.699 253.4 201.499 253.9C201.299 254.4 201.599 254.5 201.399 255C201.199 255.5 200.999 255.4 200.799 255.9C200.599 256.4 200.599 256.4 200.399 256.9C200.199 257.4 200.099 257.4 199.899 257.9C199.699 258.4 199.999 258.5 199.799 259C199.599 259.5 199.599 259.5 199.399 260C199.199 260.5 198.899 260.4 198.699 260.9C198.499 261.4 198.399 261.4 198.299 261.9C198.399 262.6 198.699 262.7 198.199 263ZM204.699 246.2C204.299 246.4 204.299 246.4 203.799 246.2C203.299 246 203.499 245.7 202.999 245.5C202.499 245.3 202.399 245.7 201.899 245.5C201.399 245.3 201.399 245.4 201.199 244.9C200.999 244.3 201.399 244.5 201.599 243.9C201.799 243.3 201.399 243.2 201.599 242.6C201.799 242 201.799 242 201.999 241.5C202.199 240.9 202.299 241 202.499 240.4C202.699 239.8 202.999 239.9 203.199 239.4C203.399 238.8 203.299 238.8 203.499 238.2C203.699 237.6 203.799 237.7 203.999 237.1C204.199 236.5 203.999 236.4 204.199 235.9C204.399 235.3 204.599 235.4 204.799 234.8C204.999 234.2 204.899 234.2 205.399 233.9C205.799 233.7 205.699 234 206.199 234.2C206.699 234.4 206.799 234.1 207.199 234.3C207.699 234.5 207.499 234.8 207.999 235C208.499 235.2 208.799 234.7 208.999 235.2C209.199 235.8 208.699 235.7 208.399 236.3C208.199 236.9 208.199 236.9 207.999 237.4C207.799 238 207.799 238 207.599 238.5C207.399 239.1 207.699 239.2 207.499 239.7C207.299 240.3 206.999 240.2 206.799 240.7C206.599 241.3 206.599 241.3 206.399 241.8C206.199 242.4 206.099 242.3 205.899 242.9C205.699 243.5 205.999 243.6 205.799 244.1C205.599 244.7 205.499 244.6 205.299 245.2C205.299 245.9 205.199 245.9 204.699 246.2ZM211.299 229.4C210.899 229.6 210.899 229.6 210.399 229.4C209.899 229.2 210.099 228.9 209.599 228.7C209.099 228.5 208.999 228.9 208.499 228.7C207.999 228.5 207.999 228.6 207.799 228.1C207.599 227.6 207.999 227.8 208.199 227.2C208.399 226.7 207.999 226.5 208.199 226C208.399 225.5 208.399 225.5 208.599 225C208.799 224.5 208.899 224.5 209.099 224C209.299 223.5 209.499 223.6 209.699 223.1C209.899 222.6 209.799 222.6 209.999 222C210.199 221.5 210.299 221.5 210.499 221C210.699 220.5 210.399 220.4 210.599 219.9C210.799 219.4 210.899 219.4 211.099 218.9C211.299 218.4 211.499 218.5 211.699 218C211.899 217.5 211.499 217.3 211.899 217C212.299 216.8 212.399 216.9 212.799 217.1C213.299 217.3 213.099 217.6 213.599 217.8C214.099 218 214.099 217.8 214.599 218C215.099 218.2 215.199 217.9 215.399 218.4C215.599 218.9 215.199 218.8 214.999 219.3C214.799 219.8 214.799 219.8 214.599 220.3C214.399 220.8 214.699 220.9 214.499 221.4C214.299 221.9 214.099 221.8 213.899 222.3C213.699 222.8 213.699 222.8 213.499 223.3C213.299 223.8 213.199 223.8 212.999 224.3C212.799 224.8 213.099 224.9 212.899 225.4C212.699 225.9 212.699 225.9 212.499 226.4C212.299 226.9 211.999 226.8 211.799 227.3C211.599 227.8 211.499 227.8 211.399 228.3C211.499 229.1 211.799 229.2 211.299 229.4Z" fill="white"/>
<path d="M223.698 45.6002C223.198 45.5002 223.498 45.1002 223.298 44.7002C223.098 44.2002 223.098 44.2002 222.898 43.8002C222.698 43.3002 222.598 43.4002 222.298 43.0002C222.098 42.5002 221.898 42.6002 222.098 42.1002C222.398 41.5002 222.398 41.6002 222.998 41.3002C223.598 41.0002 223.598 41.2002 224.198 40.9002C224.798 40.6002 224.798 40.8002 225.398 40.5002C225.998 40.2002 225.898 40.0002 226.398 39.8002C226.998 39.5002 226.998 39.7002 227.598 39.4002C228.198 39.1002 228.098 38.6002 228.698 38.8002C229.198 38.9002 228.998 39.3002 229.198 39.7002C229.398 40.2002 229.398 40.2002 229.598 40.6002C229.798 41.1002 229.898 41.0002 230.098 41.5002C230.298 42.0002 230.598 42.0002 230.398 42.5002C230.098 43.1002 229.798 42.8002 229.298 43.1002C228.698 43.4002 228.798 43.4002 228.198 43.7002C227.598 44.0002 227.498 43.8002 226.998 44.0002C226.398 44.3002 226.398 44.2002 225.898 44.5002C225.298 44.8002 225.498 45.0002 224.998 45.3002C224.498 45.7002 224.298 45.8002 223.698 45.6002ZM235.798 39.8002C235.298 39.7002 235.598 39.3002 235.398 38.9002C235.198 38.4002 235.198 38.4002 234.998 38.0002C234.798 37.5002 234.698 37.6002 234.398 37.2002C234.198 36.7002 233.998 36.8002 234.198 36.3002C234.398 35.8002 234.398 35.8002 234.898 35.6002C235.398 35.4002 235.498 35.5002 235.998 35.3002C236.498 35.1002 236.598 35.2002 236.998 35.0002C237.498 34.8002 237.398 34.6002 237.898 34.3002C238.398 34.1002 238.498 34.2002 238.998 34.0002C239.498 33.8002 239.398 33.7002 239.898 33.4002C240.398 33.2002 240.398 33.1002 240.898 32.9002C241.398 32.7002 241.398 32.7002 241.898 32.4002C242.398 32.2002 242.398 32.1002 242.898 31.9002C243.398 31.7002 243.398 31.8002 243.898 31.5002C244.398 31.3002 244.398 30.8002 244.898 31.0002C245.398 31.1002 245.198 31.5002 245.398 31.9002C245.598 32.4002 245.398 32.4002 245.598 32.9002C245.798 33.4002 245.798 33.4002 245.998 33.8002C246.198 34.3002 246.998 34.3002 246.798 34.7002C246.598 35.2002 245.998 34.6002 245.498 34.9002C244.998 35.1002 245.198 35.5002 244.698 35.7002C244.198 35.9002 243.998 35.6002 243.498 35.8002C242.998 36.0002 243.198 36.4002 242.698 36.7002C242.198 36.9002 241.998 36.6002 241.498 36.8002C240.998 37.0002 240.998 37.0002 240.498 37.3002C239.998 37.5002 240.198 38.0002 239.698 38.2002C239.198 38.4002 239.198 38.4002 238.698 38.7002C238.198 38.9002 238.198 38.8002 237.698 39.1002C237.198 39.3002 236.998 39.0002 236.598 39.4002C236.198 39.6002 236.298 40.0002 235.798 39.8002ZM251.998 32.0002C251.398 31.7002 251.698 31.4002 251.398 30.8002C251.098 30.2002 251.198 30.2002 250.898 29.6002C250.598 29.0002 249.998 29.0002 250.198 28.4002C250.398 27.8002 250.898 28.3002 251.398 28.1002C251.898 27.8002 251.798 27.5002 252.298 27.2002C252.798 26.9002 252.898 27.1002 253.498 26.9002C253.998 26.6002 254.098 26.8002 254.598 26.5002C255.098 26.2002 254.998 26.0002 255.598 25.8002C256.098 25.5002 256.198 25.7002 256.698 25.4002C257.198 25.1002 257.198 25.0002 257.698 24.8002C258.198 24.5002 258.198 24.5002 258.798 24.2002C259.298 23.9002 259.298 23.9002 259.898 23.7002C260.498 23.5002 260.498 22.9002 261.098 23.1002C261.698 23.4002 261.398 23.8002 261.698 24.4002C261.998 25.0002 261.998 25.0002 262.298 25.6002C262.598 26.2002 263.098 26.2002 262.898 26.9002C262.698 27.5002 262.198 27.1002 261.598 27.3002C261.098 27.6002 260.998 27.5002 260.498 27.8002C259.998 28.1002 260.098 28.4002 259.598 28.6002C259.098 28.9002 258.898 28.4002 258.298 28.7002C257.798 29.0002 257.898 29.3002 257.398 29.6002C256.898 29.9002 256.698 29.5002 256.198 29.8002C255.698 30.1002 255.798 30.4002 255.298 30.7002C254.798 31.0002 254.598 30.6002 253.998 30.9002C253.498 31.2002 253.298 31.1002 252.898 31.4002C252.498 31.7002 252.598 32.3002 251.998 32.0002ZM268.198 24.2002C267.598 23.9002 267.898 23.6002 267.598 23.0002C267.298 22.4002 267.398 22.4002 267.098 21.8002C266.798 21.2002 266.198 21.2002 266.398 20.6002C266.598 20.0002 267.098 20.5002 267.598 20.3002C268.098 20.0002 267.998 19.7002 268.498 19.4002C268.998 19.1002 269.098 19.3002 269.698 19.1002C270.198 18.8002 270.298 19.0002 270.798 18.7002C271.298 18.4002 271.198 18.2002 271.798 18.0002C272.298 17.7002 272.398 17.9002 272.898 17.6002C273.398 17.3002 273.398 17.2002 273.898 17.0002C274.398 16.7002 274.398 16.7002 274.998 16.4002C275.498 16.1002 275.498 16.1002 276.098 15.9002C276.598 15.6002 276.698 15.1002 277.298 15.3002C277.898 15.6002 277.598 16.0002 277.898 16.6002C278.198 17.2002 278.198 17.2002 278.498 17.8002C278.798 18.4002 279.298 18.4002 279.098 19.1002C278.898 19.7002 278.398 19.3002 277.798 19.5002C277.298 19.8002 277.198 19.7002 276.698 20.0002C276.198 20.3002 276.298 20.6002 275.798 20.8002C275.298 21.1002 275.098 20.6002 274.498 20.9002C273.998 21.2002 274.098 21.5002 273.598 21.8002C273.098 22.1002 272.898 21.7002 272.398 22.0002C271.898 22.3002 271.998 22.6002 271.498 22.9002C270.998 23.2002 270.798 22.8002 270.198 23.1002C269.698 23.4002 269.498 23.3002 269.098 23.6002C268.698 23.9002 268.798 24.5002 268.198 24.2002ZM284.498 16.4002C283.898 16.1002 284.198 15.8002 283.898 15.2002C283.598 14.6002 283.698 14.6002 283.398 14.0002C283.098 13.4002 282.498 13.4002 282.698 12.8002C282.898 12.2002 283.398 12.7002 283.898 12.5002C284.398 12.2002 284.298 11.9002 284.798 11.6002C285.298 11.3002 285.398 11.5002 285.998 11.3002C286.498 11.0002 286.598 11.2002 287.098 10.9002C287.598 10.6002 287.498 10.4002 288.098 10.2002C288.598 9.9002 288.698 10.1002 289.198 9.8002C289.698 9.5002 289.698 9.4002 290.198 9.2002C290.698 8.9002 290.698 8.9002 291.298 8.6002C291.798 8.3002 291.798 8.3002 292.398 8.1002C292.898 7.8002 292.998 7.3002 293.598 7.5002C294.198 7.8002 293.898 8.2002 294.198 8.8002C294.498 9.4002 294.498 9.4002 294.798 10.0002C295.098 10.6002 295.598 10.6002 295.398 11.3002C295.198 11.9002 294.698 11.5002 294.098 11.7002C293.598 12.0002 293.498 11.9002 292.998 12.2002C292.498 12.5002 292.598 12.8002 292.098 13.0002C291.598 13.3002 291.398 12.8002 290.798 13.1002C290.298 13.4002 290.398 13.7002 289.898 14.0002C289.398 14.3002 289.198 13.9002 288.698 14.2002C288.198 14.5002 288.298 14.8002 287.798 15.1002C287.298 15.4002 287.098 15.0002 286.498 15.3002C285.998 15.6002 285.798 15.5002 285.398 15.8002C284.898 16.1002 284.998 16.7002 284.498 16.4002ZM300.698 8.6002C300.098 8.3002 300.398 8.0002 300.098 7.4002C299.798 6.8002 299.898 6.8002 299.598 6.2002C299.298 5.6002 298.698 5.6002 298.898 5.0002C299.098 4.4002 299.598 4.9002 300.098 4.7002C300.598 4.4002 300.498 4.1002 300.998 3.8002C301.498 3.5002 301.598 3.7002 302.198 3.5002C302.698 3.2002 302.798 3.4002 303.298 3.1002C303.798 2.8002 303.698 2.6002 304.298 2.4002C304.798 2.1002 304.898 2.3002 305.398 2.0002C305.898 1.7002 305.898 1.6002 306.398 1.4002C306.898 1.1002 306.898 1.1002 307.498 0.800197C307.998 0.500196 307.998 0.500196 308.598 0.300197C309.198 0.100197 309.198 -0.499803 309.798 -0.299803C310.398 0.000196457 310.098 0.400197 310.398 1.0002C310.698 1.6002 310.698 1.6002 310.998 2.2002C311.298 2.8002 311.798 2.8002 311.598 3.5002C311.398 4.1002 310.898 3.7002 310.298 3.9002C309.798 4.2002 309.698 4.1002 309.198 4.4002C308.698 4.7002 308.798 5.0002 308.298 5.2002C307.798 5.5002 307.598 5.0002 306.998 5.3002C306.498 5.6002 306.598 5.9002 306.098 6.2002C305.598 6.5002 305.398 6.1002 304.898 6.4002C304.398 6.7002 304.498 7.0002 303.998 7.3002C303.498 7.6002 303.298 7.2002 302.698 7.5002C302.198 7.8002 301.998 7.7002 301.598 8.0002C301.098 8.3002 301.198 8.9002 300.698 8.6002ZM316.898 0.800197C316.398 0.700196 316.698 0.300197 316.498 -0.099803C316.298 -0.599803 316.298 -0.599803 316.098 -0.999803C315.898 -1.4998 315.798 -1.3998 315.498 -1.7998C315.198 -2.1998 315.098 -2.1998 315.298 -2.6998C315.498 -3.1998 315.498 -3.1998 315.998 -3.3998C316.498 -3.5998 316.598 -3.4998 317.098 -3.6998C317.598 -3.8998 317.698 -3.7998 318.098 -3.9998C318.598 -4.1998 318.498 -4.3998 318.998 -4.6998C319.498 -4.8998 319.598 -4.7998 320.098 -4.9998C320.598 -5.1998 320.498 -5.2998 320.998 -5.5998C321.498 -5.7998 321.498 -5.8998 321.998 -6.0998C322.498 -6.2998 322.498 -6.2998 322.998 -6.5998C323.498 -6.7998 323.498 -6.8998 323.998 -7.0998C324.498 -7.2998 324.498 -7.1998 324.998 -7.4998C325.498 -7.6998 325.498 -8.1998 325.998 -7.9998C326.498 -7.8998 326.298 -7.4998 326.498 -7.0998C326.698 -6.5998 326.498 -6.5998 326.698 -6.0998C326.898 -5.5998 326.898 -5.5998 327.098 -5.1998C327.298 -4.6998 328.098 -4.6998 327.898 -4.2998C327.698 -3.7998 327.098 -4.3998 326.598 -4.0998C326.098 -3.8998 326.298 -3.4998 325.798 -3.2998C325.298 -3.0998 325.098 -3.3998 324.598 -3.1998C324.098 -2.9998 324.298 -2.5998 323.798 -2.2998C323.298 -2.0998 323.098 -2.3998 322.598 -2.1998C322.098 -1.9998 322.098 -1.9998 321.598 -1.6998C321.098 -1.4998 321.298 -0.999803 320.798 -0.799803C320.298 -0.599803 320.298 -0.599803 319.798 -0.299803C319.298 -0.0998034 319.298 -0.199803 318.798 0.100197C318.298 0.300197 318.098 0.000197411 317.698 0.400197C317.298 0.600197 317.398 1.0002 316.898 0.800197Z" fill="white"/>
<path d="M196.999 102.6C197.399 102.6 197.799 102.3 198.099 102.4C198.499 102.5 198.699 102.9 198.999 103.1C199.299 103.2 199.599 103.4 199.899 103.6C200.199 103.8 200.399 104 200.699 104.3C200.999 104.6 201.099 104.8 201.299 105.1C201.499 105.4 201.699 105.7 201.799 106C201.899 106.3 202.099 106.6 202.199 107C202.299 107.3 202.599 107.7 202.599 108.1C202.599 108.5 202.599 108.9 202.499 109.2C202.399 109.6 201.999 109.8 201.899 110.1C201.799 110.4 201.499 110.7 201.299 111C201.099 111.3 201.099 111.8 200.899 112C200.599 112.3 200.299 112.4 199.999 112.6C199.699 112.8 199.399 113 198.999 113.1C198.699 113.2 198.399 113.5 197.999 113.6C197.699 113.7 197.299 113.6 196.899 113.6C196.499 113.6 196.199 113.4 195.799 113.4C195.399 113.3 195.099 113.3 194.699 113.2C194.399 113.1 194.099 112.8 193.799 112.6C193.499 112.4 193.099 112.2 192.899 112C192.599 111.7 192.699 111.2 192.499 110.9C192.299 110.6 191.699 110.5 191.599 110.2C191.499 109.9 191.699 109.4 191.599 109.1C191.499 108.8 191.299 108.4 191.299 108.1C191.299 107.7 191.299 107.3 191.399 107C191.499 106.6 191.799 106.3 191.899 106C191.999 105.7 192.099 105.3 192.299 105C192.499 104.7 192.599 104.3 192.899 104C193.199 103.7 193.599 103.7 193.899 103.5C194.199 103.3 194.499 103 194.799 102.9C195.099 102.8 195.499 102.6 195.899 102.6C196.199 102.4 196.599 102.6 196.999 102.6Z" fill="#B7A9FF"/>
<path d="M196.999 102.6C197.399 102.6 197.799 102.3 198.099 102.4C198.499 102.5 198.699 102.9 198.999 103.1C199.299 103.2 199.599 103.4 199.899 103.6C200.199 103.8 200.399 104 200.699 104.3C200.999 104.6 201.099 104.8 201.299 105.1C201.499 105.4 201.699 105.7 201.799 106C201.899 106.3 202.099 106.6 202.199 107C202.299 107.3 202.599 107.7 202.599 108.1C202.599 108.5 202.599 108.9 202.499 109.2C202.399 109.6 201.999 109.8 201.899 110.1C201.799 110.4 201.499 110.7 201.299 111C201.099 111.3 201.099 111.8 200.899 112C200.599 112.3 200.299 112.4 199.999 112.6C199.699 112.8 199.399 113 198.999 113.1C198.699 113.2 198.399 113.5 197.999 113.6C197.699 113.7 197.299 113.6 196.899 113.6C196.499 113.6 196.199 113.4 195.799 113.4C195.399 113.3 195.099 113.3 194.699 113.2C194.399 113.1 194.099 112.8 193.799 112.6C193.499 112.4 193.099 112.2 192.899 112C192.599 111.7 192.699 111.2 192.499 110.9C192.299 110.6 191.699 110.5 191.599 110.2C191.499 109.9 191.699 109.4 191.599 109.1C191.499 108.8 191.299 108.4 191.299 108.1C191.299 107.7 191.299 107.3 191.399 107C191.499 106.6 191.799 106.3 191.899 106C191.999 105.7 192.099 105.3 192.299 105C192.499 104.7 192.599 104.3 192.899 104C193.199 103.7 193.599 103.7 193.899 103.5C194.199 103.3 194.499 103 194.799 102.9C195.099 102.8 195.499 102.6 195.899 102.6C196.199 102.4 196.599 102.6 196.999 102.6Z" stroke="#0F1117" stroke-width="5"/>
<path d="M214 214.601C214.4 214.601 214.7 214.501 215.1 214.501C215.5 214.601 215.8 214.801 216.1 214.901C216.4 215.001 216.8 215.201 217.1 215.401C217.4 215.601 217.8 215.701 218 216.001C218.3 216.301 218.4 216.601 218.6 216.901C218.8 217.201 218.8 217.601 219 217.901C219.1 218.201 219.3 218.501 219.3 218.901C219.4 219.201 219.4 219.601 219.4 219.901C219.4 220.301 219.6 220.601 219.5 221.001C219.4 221.401 219.4 221.701 219.2 222.101C219.1 222.401 218.8 222.801 218.6 223.101C218.4 223.401 218 223.501 217.7 223.801C217.4 224.101 217.2 224.301 216.9 224.501C216.6 224.701 216.3 224.801 216 225.001C215.7 225.101 215.4 225.301 215 225.401C214.7 225.501 214.3 225.401 213.9 225.401C213.5 225.401 213.1 225.701 212.8 225.701C212.4 225.601 212.1 225.501 211.7 225.401C211.4 225.301 211.2 224.801 210.9 224.601C210.6 224.401 210.3 224.201 210.1 224.001C209.8 223.701 209.7 223.401 209.5 223.101C209.3 222.801 209 222.601 208.8 222.301C208.7 222.001 208.7 221.601 208.6 221.201C208.5 220.901 208.3 220.501 208.3 220.201C208.3 219.801 208.2 219.401 208.3 219.101C208.4 218.701 208.8 218.501 209 218.201C209.1 217.901 209 217.401 209.2 217.101C209.4 216.801 209.7 216.501 209.9 216.301C210.2 216.001 210.6 216.101 210.9 215.901C211.2 215.701 211.4 215.401 211.8 215.301C212.1 215.201 212.4 214.801 212.8 214.701C213.2 214.301 213.6 214.601 214 214.601Z" fill="#B7A9FF"/>
<path d="M214 214.601C214.4 214.601 214.7 214.501 215.1 214.501C215.5 214.601 215.8 214.801 216.1 214.901C216.4 215.001 216.8 215.201 217.1 215.401C217.4 215.601 217.8 215.701 218 216.001C218.3 216.301 218.4 216.601 218.6 216.901C218.8 217.201 218.8 217.601 219 217.901C219.1 218.201 219.3 218.501 219.3 218.901C219.4 219.201 219.4 219.601 219.4 219.901C219.4 220.301 219.6 220.601 219.5 221.001C219.4 221.401 219.4 221.701 219.2 222.101C219.1 222.401 218.8 222.801 218.6 223.101C218.4 223.401 218 223.501 217.7 223.801C217.4 224.101 217.2 224.301 216.9 224.501C216.6 224.701 216.3 224.801 216 225.001C215.7 225.101 215.4 225.301 215 225.401C214.7 225.501 214.3 225.401 213.9 225.401C213.5 225.401 213.1 225.701 212.8 225.701C212.4 225.601 212.1 225.501 211.7 225.401C211.4 225.301 211.2 224.801 210.9 224.601C210.6 224.401 210.3 224.201 210.1 224.001C209.8 223.701 209.7 223.401 209.5 223.101C209.3 222.801 209 222.601 208.8 222.301C208.7 222.001 208.7 221.601 208.6 221.201C208.5 220.901 208.3 220.501 208.3 220.201C208.3 219.801 208.2 219.401 208.3 219.101C208.4 218.701 208.8 218.501 209 218.201C209.1 217.901 209 217.401 209.2 217.101C209.4 216.801 209.7 216.501 209.9 216.301C210.2 216.001 210.6 216.101 210.9 215.901C211.2 215.701 211.4 215.401 211.8 215.301C212.1 215.201 212.4 214.801 212.8 214.701C213.2 214.301 213.6 214.601 214 214.601Z" stroke="#0F1117" stroke-width="5"/>
<path d="M268.999 118.7C269.399 118.7 269.799 118.3 270.099 118.4C270.499 118.5 270.699 118.8 271.099 119C271.399 119.1 271.699 119.4 271.999 119.6C272.299 119.8 272.599 120 272.899 120.2C273.199 120.5 273.299 120.8 273.499 121.1C273.699 121.4 273.799 121.7 273.899 122.1C273.999 122.4 274.199 122.7 274.299 123.1C274.399 123.4 274.599 123.8 274.599 124.2C274.599 124.6 274.299 124.9 274.299 125.2C274.199 125.6 274.099 125.9 273.999 126.2C273.899 126.5 273.799 126.9 273.599 127.2C273.399 127.5 273.099 127.7 272.799 127.9C272.499 128.2 272.499 128.7 272.199 128.9C271.899 129.1 271.499 129.1 271.099 129.3C270.799 129.4 270.399 129.5 270.099 129.6C269.799 129.7 269.399 129.5 268.999 129.5C268.599 129.5 268.299 129.4 267.999 129.3C267.599 129.2 267.199 129.5 266.899 129.3C266.599 129.2 266.199 129 265.899 128.8C265.599 128.6 265.299 128.4 264.999 128.1C264.699 127.8 264.599 127.5 264.399 127.2C264.199 126.9 263.899 126.6 263.799 126.3C263.699 126 263.499 125.6 263.499 125.2C263.399 124.9 263.599 124.5 263.599 124.1C263.599 123.7 263.399 123.3 263.499 123C263.599 122.6 263.899 122.4 263.999 122C264.099 121.7 264.299 121.4 264.499 121.1C264.699 120.8 264.899 120.5 265.099 120.2C265.399 119.9 265.699 119.9 265.999 119.7C266.299 119.5 266.499 119 266.799 118.9C267.099 118.8 267.499 118.8 267.899 118.7C268.299 118.5 268.599 118.7 268.999 118.7Z" fill="#0F1117"/>
<path d="M268.999 118.7C269.399 118.7 269.799 118.3 270.099 118.4C270.499 118.5 270.699 118.8 271.099 119C271.399 119.1 271.699 119.4 271.999 119.6C272.299 119.8 272.599 120 272.899 120.2C273.199 120.5 273.299 120.8 273.499 121.1C273.699 121.4 273.799 121.7 273.899 122.1C273.999 122.4 274.199 122.7 274.299 123.1C274.399 123.4 274.599 123.8 274.599 124.2C274.599 124.6 274.299 124.9 274.299 125.2C274.199 125.6 274.099 125.9 273.999 126.2C273.899 126.5 273.799 126.9 273.599 127.2C273.399 127.5 273.099 127.7 272.799 127.9C272.499 128.2 272.499 128.7 272.199 128.9C271.899 129.1 271.499 129.1 271.099 129.3C270.799 129.4 270.399 129.5 270.099 129.6C269.799 129.7 269.399 129.5 268.999 129.5C268.599 129.5 268.299 129.4 267.999 129.3C267.599 129.2 267.199 129.5 266.899 129.3C266.599 129.2 266.199 129 265.899 128.8C265.599 128.6 265.299 128.4 264.999 128.1C264.699 127.8 264.599 127.5 264.399 127.2C264.199 126.9 263.899 126.6 263.799 126.3C263.699 126 263.499 125.6 263.499 125.2C263.399 124.9 263.599 124.5 263.599 124.1C263.599 123.7 263.399 123.3 263.499 123C263.599 122.6 263.899 122.4 263.999 122C264.099 121.7 264.299 121.4 264.499 121.1C264.699 120.8 264.899 120.5 265.099 120.2C265.399 119.9 265.699 119.9 265.999 119.7C266.299 119.5 266.499 119 266.799 118.9C267.099 118.8 267.499 118.8 267.899 118.7C268.299 118.5 268.599 118.7 268.999 118.7Z" stroke="white" stroke-width="5"/>
<path d="M225 37.6014C225.4 37.6014 225.8 37.4014 226.1 37.5014C226.5 37.6014 226.9 37.6014 227.2 37.7014C227.5 37.8014 227.9 38.0014 228.2 38.2014C228.5 38.4014 228.7 38.8014 228.9 39.1014C229.2 39.4014 229.5 39.6014 229.7 39.9014C229.9 40.2014 230.1 40.5014 230.2 40.9014C230.3 41.2014 230.1 41.7014 230.2 42.0014C230.3 42.3014 230.6 42.7014 230.6 43.0014C230.6 43.4014 230.2 43.7014 230.2 44.0014C230.1 44.4014 230.4 44.8014 230.3 45.1014C230.2 45.4014 229.8 45.7014 229.6 46.0014C229.4 46.3014 229 46.5014 228.8 46.7014C228.5 47.0014 228.4 47.3014 228.1 47.5014C227.8 47.7014 227.5 48.0014 227.2 48.1014C226.9 48.2014 226.5 48.3014 226.1 48.4014C225.8 48.5014 225.4 48.2014 225 48.2014C224.6 48.2014 224.3 48.2014 224 48.1014C223.6 48.0014 223.3 48.1014 222.9 48.0014C222.6 47.9014 222.3 47.7014 222 47.5014C221.7 47.3014 221.4 47.1014 221.1 46.8014C220.8 46.5014 220.5 46.4014 220.3 46.1014C220.1 45.8014 220.2 45.3014 220 45.0014C219.9 44.7014 219.8 44.3014 219.7 44.0014C219.6 43.7014 219.6 43.3014 219.6 42.9014C219.6 42.5014 219.5 42.1014 219.5 41.8014C219.6 41.4014 219.8 41.1014 220 40.8014C220.1 40.5014 220.5 40.3014 220.7 40.0014C220.9 39.7014 221 39.3014 221.2 39.1014C221.5 38.8014 221.7 38.6014 222 38.4014C222.3 38.2014 222.6 38.0014 223 37.9014C223.3 37.8014 223.7 37.6014 224 37.5014C224.3 37.5014 224.6 37.6014 225 37.6014Z" fill="white"/>
<path d="M225 37.6014C225.4 37.6014 225.8 37.4014 226.1 37.5014C226.5 37.6014 226.9 37.6014 227.2 37.7014C227.5 37.8014 227.9 38.0014 228.2 38.2014C228.5 38.4014 228.7 38.8014 228.9 39.1014C229.2 39.4014 229.5 39.6014 229.7 39.9014C229.9 40.2014 230.1 40.5014 230.2 40.9014C230.3 41.2014 230.1 41.7014 230.2 42.0014C230.3 42.3014 230.6 42.7014 230.6 43.0014C230.6 43.4014 230.2 43.7014 230.2 44.0014C230.1 44.4014 230.4 44.8014 230.3 45.1014C230.2 45.4014 229.8 45.7014 229.6 46.0014C229.4 46.3014 229 46.5014 228.8 46.7014C228.5 47.0014 228.4 47.3014 228.1 47.5014C227.8 47.7014 227.5 48.0014 227.2 48.1014C226.9 48.2014 226.5 48.3014 226.1 48.4014C225.8 48.5014 225.4 48.2014 225 48.2014C224.6 48.2014 224.3 48.2014 224 48.1014C223.6 48.0014 223.3 48.1014 222.9 48.0014C222.6 47.9014 222.3 47.7014 222 47.5014C221.7 47.3014 221.4 47.1014 221.1 46.8014C220.8 46.5014 220.5 46.4014 220.3 46.1014C220.1 45.8014 220.2 45.3014 220 45.0014C219.9 44.7014 219.8 44.3014 219.7 44.0014C219.6 43.7014 219.6 43.3014 219.6 42.9014C219.6 42.5014 219.5 42.1014 219.5 41.8014C219.6 41.4014 219.8 41.1014 220 40.8014C220.1 40.5014 220.5 40.3014 220.7 40.0014C220.9 39.7014 221 39.3014 221.2 39.1014C221.5 38.8014 221.7 38.6014 222 38.4014C222.3 38.2014 222.6 38.0014 223 37.9014C223.3 37.8014 223.7 37.6014 224 37.5014C224.3 37.5014 224.6 37.6014 225 37.6014Z" stroke="#8F00FF" stroke-width="5"/>
<path d="M114.999 37.3015C115.399 37.3015 115.699 37.6015 116.099 37.6015C116.499 37.7015 116.799 37.7015 117.099 37.9015C117.399 38.0015 117.799 38.1015 118.099 38.3015C118.399 38.5015 118.699 38.8015 118.899 39.0015C119.199 39.3015 119.199 39.7015 119.399 40.0015C119.599 40.3015 119.899 40.5015 119.999 40.9015C120.099 41.2015 120.299 41.5015 120.299 41.9015C120.399 42.2015 120.599 42.6015 120.599 43.0015C120.599 43.4015 120.599 43.8015 120.499 44.1015C120.399 44.5015 120.199 44.8015 120.099 45.1015C119.999 45.4015 119.699 45.7015 119.499 46.0015C119.299 46.3015 119.099 46.6015 118.899 46.9015C118.599 47.2015 118.199 47.1015 117.899 47.3015C117.599 47.5015 117.399 47.9015 117.099 48.1015C116.799 48.2015 116.399 48.5015 116.099 48.5015C115.799 48.6015 115.399 48.3015 114.999 48.3015C114.599 48.3015 114.299 48.4015 113.899 48.3015C113.499 48.2015 113.099 48.4015 112.799 48.2015C112.499 48.1015 112.099 47.8015 111.799 47.6015C111.499 47.4015 111.499 46.9015 111.199 46.6015C110.899 46.3015 110.799 46.1015 110.599 45.8015C110.399 45.5015 110.099 45.3015 109.999 45.0015C109.899 44.7015 109.599 44.4015 109.599 44.0015C109.499 43.7015 109.599 43.3015 109.599 42.9015C109.599 42.5015 109.699 42.2015 109.799 41.8015C109.899 41.4015 109.899 41.1015 109.999 40.7015C110.099 40.4015 110.499 40.2015 110.699 39.9015C110.899 39.6015 110.999 39.3015 111.299 39.0015C111.599 38.7015 111.899 38.6015 112.199 38.4015C112.499 38.2015 112.799 38.0015 113.099 37.8015C113.399 37.7015 113.799 37.7015 114.099 37.6015C114.299 37.7015 114.599 37.3015 114.999 37.3015Z" fill="#0F1117"/>
<path d="M114.999 37.3015C115.399 37.3015 115.699 37.6015 116.099 37.6015C116.499 37.7015 116.799 37.7015 117.099 37.9015C117.399 38.0015 117.799 38.1015 118.099 38.3015C118.399 38.5015 118.699 38.8015 118.899 39.0015C119.199 39.3015 119.199 39.7015 119.399 40.0015C119.599 40.3015 119.899 40.5015 119.999 40.9015C120.099 41.2015 120.299 41.5015 120.299 41.9015C120.399 42.2015 120.599 42.6015 120.599 43.0015C120.599 43.4015 120.599 43.8015 120.499 44.1015C120.399 44.5015 120.199 44.8015 120.099 45.1015C119.999 45.4015 119.699 45.7015 119.499 46.0015C119.299 46.3015 119.099 46.6015 118.899 46.9015C118.599 47.2015 118.199 47.1015 117.899 47.3015C117.599 47.5015 117.399 47.9015 117.099 48.1015C116.799 48.2015 116.399 48.5015 116.099 48.5015C115.799 48.6015 115.399 48.3015 114.999 48.3015C114.599 48.3015 114.299 48.4015 113.899 48.3015C113.499 48.2015 113.099 48.4015 112.799 48.2015C112.499 48.1015 112.099 47.8015 111.799 47.6015C111.499 47.4015 111.499 46.9015 111.199 46.6015C110.899 46.3015 110.799 46.1015 110.599 45.8015C110.399 45.5015 110.099 45.3015 109.999 45.0015C109.899 44.7015 109.599 44.4015 109.599 44.0015C109.499 43.7015 109.599 43.3015 109.599 42.9015C109.599 42.5015 109.699 42.2015 109.799 41.8015C109.899 41.4015 109.899 41.1015 109.999 40.7015C110.099 40.4015 110.499 40.2015 110.699 39.9015C110.899 39.6015 110.999 39.3015 111.299 39.0015C111.599 38.7015 111.899 38.6015 112.199 38.4015C112.499 38.2015 112.799 38.0015 113.099 37.8015C113.399 37.7015 113.799 37.7015 114.099 37.6015C114.299 37.7015 114.599 37.3015 114.999 37.3015Z" stroke="white" stroke-width="5"/>
<path d="M55.9992 194.599C56.3992 194.599 56.7992 194.399 57.0992 194.499C57.4992 194.599 57.6992 194.899 58.0992 195.099C58.3992 195.199 58.6992 195.399 58.9992 195.599C59.2992 195.799 59.4992 195.999 59.7992 196.299C60.0992 196.599 60.2992 196.799 60.4992 197.099C60.6992 197.399 60.8992 197.699 60.9992 197.999C61.0992 198.299 61.0992 198.699 61.1992 198.999C61.2992 199.299 61.4992 199.699 61.4992 199.999C61.4992 200.399 61.2992 200.699 61.1992 200.999C61.0992 201.399 61.2992 201.799 61.1992 202.099C61.0992 202.399 60.6992 202.699 60.4992 202.999C60.2992 203.299 60.1992 203.699 59.9992 203.999C59.6992 204.299 59.3992 204.399 59.0992 204.599C58.7992 204.799 58.3992 204.799 58.0992 204.899C57.7992 204.999 57.3992 205.099 57.0992 205.099C56.7992 205.199 56.3992 205.399 56.0992 205.399C55.6992 205.399 55.3992 205.399 54.9992 205.399C54.5992 205.299 54.2992 205.099 53.9992 204.999C53.6992 204.899 53.1992 204.899 52.8992 204.699C52.5992 204.499 52.5992 203.999 52.2992 203.699C51.9992 203.399 51.6992 203.299 51.4992 202.999C51.2992 202.699 51.2992 202.299 51.1992 201.999C51.0992 201.699 50.7992 201.399 50.7992 200.999C50.6992 200.699 50.7992 200.299 50.7992 199.899C50.7992 199.499 50.6992 199.199 50.6992 198.799C50.7992 198.399 50.7992 198.099 50.9992 197.699C51.0992 197.399 51.1992 196.999 51.3992 196.699C51.5992 196.399 51.9992 196.199 52.1992 195.899C52.4992 195.599 52.8992 195.599 53.1992 195.399C53.4992 195.199 53.6992 194.799 53.9992 194.599C54.2992 194.499 54.6992 194.499 55.0992 194.399C55.2992 194.499 55.5992 194.599 55.9992 194.599Z" fill="white"/>
<path d="M55.9992 194.599C56.3992 194.599 56.7992 194.399 57.0992 194.499C57.4992 194.599 57.6992 194.899 58.0992 195.099C58.3992 195.199 58.6992 195.399 58.9992 195.599C59.2992 195.799 59.4992 195.999 59.7992 196.299C60.0992 196.599 60.2992 196.799 60.4992 197.099C60.6992 197.399 60.8992 197.699 60.9992 197.999C61.0992 198.299 61.0992 198.699 61.1992 198.999C61.2992 199.299 61.4992 199.699 61.4992 199.999C61.4992 200.399 61.2992 200.699 61.1992 200.999C61.0992 201.399 61.2992 201.799 61.1992 202.099C61.0992 202.399 60.6992 202.699 60.4992 202.999C60.2992 203.299 60.1992 203.699 59.9992 203.999C59.6992 204.299 59.3992 204.399 59.0992 204.599C58.7992 204.799 58.3992 204.799 58.0992 204.899C57.7992 204.999 57.3992 205.099 57.0992 205.099C56.7992 205.199 56.3992 205.399 56.0992 205.399C55.6992 205.399 55.3992 205.399 54.9992 205.399C54.5992 205.299 54.2992 205.099 53.9992 204.999C53.6992 204.899 53.1992 204.899 52.8992 204.699C52.5992 204.499 52.5992 203.999 52.2992 203.699C51.9992 203.399 51.6992 203.299 51.4992 202.999C51.2992 202.699 51.2992 202.299 51.1992 201.999C51.0992 201.699 50.7992 201.399 50.7992 200.999C50.6992 200.699 50.7992 200.299 50.7992 199.899C50.7992 199.499 50.6992 199.199 50.6992 198.799C50.7992 198.399 50.7992 198.099 50.9992 197.699C51.0992 197.399 51.1992 196.999 51.3992 196.699C51.5992 196.399 51.9992 196.199 52.1992 195.899C52.4992 195.599 52.8992 195.599 53.1992 195.399C53.4992 195.199 53.6992 194.799 53.9992 194.599C54.2992 194.499 54.6992 194.499 55.0992 194.399C55.2992 194.499 55.5992 194.599 55.9992 194.599Z" stroke="#8F00FF" stroke-width="5"/>
<path d="M131 128.599C131.4 128.599 131.7 128.599 132.1 128.599C132.5 128.699 132.8 128.599 133.2 128.799C133.5 128.899 133.8 129.199 134.1 129.399C134.4 129.599 134.6 129.899 134.9 130.099C135.2 130.399 135.4 130.599 135.6 130.899C135.8 131.199 136.1 131.499 136.2 131.799C136.3 132.099 136.4 132.499 136.5 132.899C136.6 133.199 136.7 133.599 136.7 133.999C136.7 134.399 136.7 134.799 136.6 135.099C136.5 135.499 136.1 135.699 136 135.999C135.9 136.299 135.8 136.699 135.6 136.999C135.4 137.299 135.2 137.499 134.9 137.799C134.6 138.099 134.4 138.299 134.1 138.499C133.8 138.699 133.5 138.799 133.1 138.899C132.8 138.999 132.5 139.499 132.2 139.499C131.9 139.599 131.5 139.399 131.1 139.399C130.7 139.399 130.3 139.599 130 139.499C129.6 139.399 129.4 138.999 129.1 138.799C128.8 138.699 128.4 138.599 128.1 138.399C127.8 138.199 127.6 137.899 127.3 137.699C127 137.399 126.5 137.399 126.3 137.099C126.1 136.799 126.2 136.299 126 135.999C125.9 135.699 125.5 135.399 125.4 134.999C125.3 134.699 125.4 134.199 125.4 133.899C125.4 133.499 125.8 133.199 125.8 132.899C125.9 132.499 125.7 132.099 125.8 131.799C125.9 131.499 126.4 131.299 126.6 130.999C126.8 130.699 127 130.399 127.2 130.099C127.5 129.799 127.6 129.499 127.9 129.299C128.2 129.099 128.5 128.899 128.9 128.699C129.2 128.599 129.6 128.499 130 128.399C130.2 128.399 130.6 128.599 131 128.599Z" fill="#0F1117"/>
<path d="M131 128.599C131.4 128.599 131.7 128.599 132.1 128.599C132.5 128.699 132.8 128.599 133.2 128.799C133.5 128.899 133.8 129.199 134.1 129.399C134.4 129.599 134.6 129.899 134.9 130.099C135.2 130.399 135.4 130.599 135.6 130.899C135.8 131.199 136.1 131.499 136.2 131.799C136.3 132.099 136.4 132.499 136.5 132.899C136.6 133.199 136.7 133.599 136.7 133.999C136.7 134.399 136.7 134.799 136.6 135.099C136.5 135.499 136.1 135.699 136 135.999C135.9 136.299 135.8 136.699 135.6 136.999C135.4 137.299 135.2 137.499 134.9 137.799C134.6 138.099 134.4 138.299 134.1 138.499C133.8 138.699 133.5 138.799 133.1 138.899C132.8 138.999 132.5 139.499 132.2 139.499C131.9 139.599 131.5 139.399 131.1 139.399C130.7 139.399 130.3 139.599 130 139.499C129.6 139.399 129.4 138.999 129.1 138.799C128.8 138.699 128.4 138.599 128.1 138.399C127.8 138.199 127.6 137.899 127.3 137.699C127 137.399 126.5 137.399 126.3 137.099C126.1 136.799 126.2 136.299 126 135.999C125.9 135.699 125.5 135.399 125.4 134.999C125.3 134.699 125.4 134.199 125.4 133.899C125.4 133.499 125.8 133.199 125.8 132.899C125.9 132.499 125.7 132.099 125.8 131.799C125.9 131.499 126.4 131.299 126.6 130.999C126.8 130.699 127 130.399 127.2 130.099C127.5 129.799 127.6 129.499 127.9 129.299C128.2 129.099 128.5 128.899 128.9 128.699C129.2 128.599 129.6 128.499 130 128.399C130.2 128.399 130.6 128.599 131 128.599Z" stroke="white" stroke-width="5"/>
</g>
</svg>
