<svg width="344" height="268" viewBox="0 0 344 268" fill="none" xmlns="http://www.w3.org/2000/svg">
<path d="M344 0H0V268H344V0Z" />
<path d="M171.816 163.999C172.316 163.999 172.716 164.399 173.216 164.399C173.716 164.399 174.216 164.099 174.616 164.199C175.116 164.199 175.516 164.399 176.016 164.499C176.516 164.599 176.916 164.999 177.316 165.099C177.816 165.199 178.316 164.999 178.716 165.099C179.216 165.199 179.616 165.499 180.016 165.599C180.516 165.699 180.916 165.999 181.316 166.099C181.716 166.299 182.316 166.099 182.816 166.299C183.216 166.499 183.616 166.799 184.116 166.999C184.516 167.199 184.916 167.499 185.316 167.699C185.716 167.899 186.016 168.299 186.416 168.499C186.816 168.799 187.216 168.999 187.616 169.299C188.016 169.599 188.316 169.999 188.616 170.299C189.016 170.599 189.416 170.799 189.816 171.099C190.216 171.399 190.516 171.699 190.916 171.999C191.216 172.299 191.616 172.599 192.016 172.899C192.316 173.199 192.616 173.599 192.916 173.999C193.216 174.399 193.716 174.599 194.016 174.899C194.316 175.299 194.316 175.799 194.616 176.199C194.916 176.599 195.216 176.899 195.516 177.299C195.816 177.699 195.916 178.099 196.216 178.499C196.416 178.899 196.816 179.299 197.016 179.699C197.216 180.099 197.216 180.599 197.416 181.099C197.616 181.499 197.716 181.999 197.916 182.399C198.116 182.799 198.516 183.199 198.616 183.599C198.716 183.999 198.616 184.599 198.716 184.999C198.816 185.499 199.116 185.899 199.216 186.299C199.316 186.799 199.416 187.199 199.516 187.699C199.616 188.199 199.716 188.599 199.716 189.099C199.716 189.599 199.616 189.999 199.616 190.499C199.616 190.999 199.716 191.399 199.716 191.899C199.716 192.399 199.516 192.799 199.516 193.299C199.516 193.799 199.816 194.299 199.716 194.699C199.716 195.199 199.416 195.599 199.316 196.099C199.216 196.599 199.116 196.999 199.016 197.499C198.916 197.999 199.216 198.499 199.116 198.999C199.016 199.499 198.516 199.799 198.416 200.299C198.316 200.799 198.416 201.299 198.216 201.699C198.016 202.099 197.616 202.499 197.516 202.899C197.316 203.299 197.316 203.899 197.116 204.299C196.916 204.699 196.516 205.099 196.316 205.499C196.116 205.899 195.816 206.299 195.616 206.699C195.316 207.099 195.316 207.599 195.016 207.999C194.716 208.399 194.116 208.499 193.816 208.899C193.516 209.299 193.616 209.999 193.316 210.299C193.016 210.699 192.316 210.699 192.016 210.999C191.716 211.299 191.616 211.999 191.316 212.299C191.016 212.599 190.516 212.899 190.216 213.199C189.816 213.499 189.416 213.799 189.116 214.099C188.716 214.399 188.216 214.499 187.816 214.799C187.416 215.099 187.116 215.399 186.716 215.699C186.316 215.999 185.916 216.099 185.516 216.399C185.116 216.599 184.716 216.899 184.316 217.099C183.916 217.299 183.616 217.799 183.116 217.999C182.716 218.199 182.216 218.399 181.816 218.599C181.416 218.799 180.916 218.799 180.416 218.999C180.016 219.099 179.516 219.399 179.116 219.499C178.616 219.599 178.116 219.399 177.616 219.499C177.116 219.599 176.716 219.899 176.216 219.999C175.716 220.099 175.316 220.199 174.816 220.299C174.316 220.299 173.816 220.299 173.416 220.299C172.916 220.299 172.516 220.299 172.016 220.299C171.516 220.299 171.116 220.199 170.616 220.199C170.116 220.199 169.616 220.399 169.216 220.299C168.716 220.299 168.316 219.999 167.816 219.899C167.316 219.799 166.816 219.799 166.416 219.699C165.916 219.599 165.416 219.699 165.016 219.499C164.516 219.399 164.116 219.099 163.716 218.899C163.216 218.799 162.916 218.399 162.416 218.199C162.016 217.999 161.516 217.899 161.116 217.699C160.716 217.499 160.216 217.499 159.716 217.299C159.316 217.099 158.816 216.999 158.416 216.799C158.016 216.599 157.616 216.299 157.216 216.099C156.816 215.799 156.416 215.499 156.016 215.299C155.616 214.999 155.116 214.899 154.716 214.599C154.316 214.299 154.216 213.699 153.916 213.399C153.516 213.099 152.916 213.099 152.616 212.699C152.316 212.399 152.016 211.999 151.716 211.599C151.416 211.299 151.316 210.699 151.016 210.399C150.716 209.999 150.116 209.899 149.816 209.599C149.516 209.199 149.616 208.599 149.416 208.199C149.116 207.799 148.816 207.499 148.516 207.099C148.216 206.699 147.816 206.399 147.616 205.999C147.416 205.599 147.016 205.199 146.816 204.799C146.616 204.399 146.616 203.799 146.416 203.399C146.216 202.999 146.016 202.499 145.816 202.099C145.616 201.699 145.316 201.299 145.216 200.799C145.116 200.399 145.216 199.799 145.116 199.399C145.016 198.899 144.616 198.499 144.516 198.099C144.416 197.599 144.416 197.199 144.316 196.699C144.216 196.199 144.316 195.699 144.316 195.299C144.316 194.799 144.016 194.399 144.016 193.899C144.016 193.399 144.216 192.899 144.216 192.499C144.216 191.999 144.316 191.599 144.316 191.099C144.316 190.599 143.916 190.099 144.016 189.699C144.016 189.199 144.516 188.799 144.616 188.299C144.716 187.799 144.616 187.299 144.716 186.899C144.816 186.399 144.716 185.899 144.816 185.499C144.916 184.999 145.416 184.699 145.616 184.199C145.716 183.699 145.816 183.299 146.016 182.799C146.216 182.399 146.016 181.799 146.216 181.399C146.416 180.999 146.616 180.499 146.816 180.099C147.016 179.699 147.316 179.299 147.516 178.899C147.716 178.499 148.016 178.099 148.316 177.699C148.616 177.299 148.816 176.899 149.116 176.499C149.416 176.099 149.916 175.899 150.216 175.599C150.516 175.199 150.416 174.499 150.716 174.199C151.016 173.799 151.416 173.499 151.716 173.199C152.016 172.899 152.516 172.599 152.816 172.299C153.116 171.999 153.516 171.599 153.816 171.299C154.216 170.999 154.616 170.699 154.916 170.399C155.316 170.099 155.716 169.899 156.116 169.599C156.516 169.299 156.816 168.899 157.216 168.599C157.616 168.299 158.116 168.199 158.516 167.999C158.916 167.799 159.316 167.599 159.816 167.399C160.216 167.199 160.616 166.999 161.116 166.799C161.516 166.599 161.916 166.399 162.416 166.199C162.816 165.999 163.316 165.999 163.816 165.899C164.216 165.799 164.716 165.699 165.216 165.599C165.716 165.499 166.116 165.499 166.616 165.399C167.116 165.299 167.416 164.799 167.916 164.699C168.416 164.599 168.816 164.499 169.316 164.399C169.816 164.399 170.316 164.799 170.816 164.799C170.916 164.399 171.316 163.999 171.816 163.999Z" fill="white"/>
<path d="M200 191.9C200 192.4 199.9 192.9 199.9 193.4C199.9 193.9 199.7 194.3 199.6 194.8C199.6 195.3 199.9 195.8 199.8 196.2C199.7 196.7 199.5 197.1 199.4 197.5C199.3 197.9 199.2 198.4 199.1 198.8C199 199.2 198.8 199.7 198.7 200.1C198.6 200.5 198.7 201.1 198.5 201.5C198.3 201.9 197.9 202.2 197.7 202.7C197.5 203.1 197.6 203.7 197.4 204.1C197.2 204.5 196.7 204.8 196.5 205.2C196.3 205.6 196.1 206 195.9 206.4C195.7 206.8 195.3 207.1 195.1 207.5C194.9 207.9 194.6 208.2 194.3 208.6C194 209 193.8 209.3 193.5 209.7C193.2 210.1 193.1 210.5 192.8 210.9C192.5 211.2 192.1 211.5 191.8 211.8C191.5 212.1 191.1 212.4 190.8 212.7C190.5 213 190.3 213.5 189.9 213.8C189.5 214.1 189 214.1 188.6 214.4C188.2 214.7 188.1 215.2 187.7 215.5C187.3 215.8 186.8 215.7 186.4 216C186 216.2 185.6 216.5 185.2 216.7C184.8 216.9 184.3 216.9 183.9 217.1C183.5 217.3 183.3 217.9 182.8 218.1C182.4 218.3 181.9 218.4 181.5 218.5C181.1 218.7 180.6 218.7 180.1 218.8C179.7 218.9 179.2 218.8 178.7 218.9C178.3 219 177.8 219.1 177.4 219.2C177 219.3 176.5 219.4 176.1 219.4C175.6 219.5 175.2 219.9 174.8 219.9C174.3 219.9 173.9 220.1 173.4 220.1C172.9 220.1 172.5 220 172 220C171.5 220 171.1 219.9 170.6 219.9C170.1 219.9 169.7 220 169.2 220C168.7 220 168.3 219.5 167.9 219.4C167.4 219.3 167 219.4 166.5 219.3C166.1 219.2 165.6 219 165.2 218.9C164.8 218.8 164.3 218.8 163.9 218.6C163.5 218.5 163.1 218.2 162.6 218.1C162.2 217.9 161.6 218.1 161.2 217.9C160.8 217.7 160.3 217.6 159.9 217.4C159.5 217.2 159.1 216.9 158.7 216.6C158.3 216.4 157.8 216.3 157.4 216.1C157 215.9 156.7 215.4 156.4 215.1C156.1 214.8 155.7 214.5 155.4 214.2C155 213.9 154.5 213.9 154.1 213.6C153.7 213.3 153.3 213.1 153 212.8C152.7 212.5 152.3 212.2 152 211.9C151.7 211.6 151.4 211.2 151.1 210.8C150.8 210.5 150.8 209.8 150.5 209.5C150.2 209.1 149.9 208.8 149.7 208.4C149.4 208 149.1 207.7 148.8 207.3C148.5 206.9 148 206.7 147.8 206.3C147.6 205.9 147.7 205.3 147.5 204.9C147.3 204.5 147.1 204.1 146.9 203.7C146.7 203.3 146.1 203.1 145.9 202.6C145.7 202.2 145.9 201.6 145.7 201.2C145.5 200.8 145.3 200.4 145.1 199.9C145 199.5 144.8 199 144.7 198.6C144.6 198.2 144.5 197.7 144.4 197.3C144.3 196.9 144.2 196.4 144.1 195.9C144 195.4 144 195 144 194.5C144 194 144.2 193.6 144.2 193.1C144.2 192.6 144 192.2 144 191.7C144.7 191.5 144.7 191.7 145.5 191.7C146.2 191.7 146.2 191.9 147 191.9C147.7 191.9 147.7 191.9 148.5 191.9C149.2 191.9 149.2 191.7 150 191.7C150.7 191.7 150.7 191.9 151.5 191.9C152.2 191.9 152.2 191.9 153 191.9C153.7 191.9 153.7 191.8 154.5 191.8C155.2 191.8 155.2 191.9 156 191.9C156.7 191.9 156.7 191.8 157.5 191.8C158.2 191.8 158.2 191.7 159 191.7C159.8 191.7 159.7 191.5 160.5 191.5C161.2 191.5 161.2 191.9 162 191.9C162.7 191.9 162.7 191.9 163.5 191.9C164.2 191.9 164.2 191.5 165 191.5C165.7 191.5 165.7 191.5 166.5 191.5C167.2 191.5 167.2 191.5 168 191.5C168.7 191.5 168.7 191.9 169.5 191.9C170.2 191.9 170.2 191.9 171 191.9C171.7 191.9 171.7 191.9 172.5 191.9C173.2 191.9 173.2 191.7 174 191.7C174.7 191.7 174.7 191.5 175.5 191.5C176.2 191.5 176.2 191.5 177 191.5C177.7 191.5 177.7 191.7 178.5 191.7C179.2 191.7 179.2 191.5 180 191.5C180.7 191.5 180.7 191.6 181.5 191.6C182.2 191.6 182.2 191.9 183 191.9C183.7 191.9 183.7 191.9 184.5 191.9C185.2 191.9 185.2 192 186 192C186.7 192 186.7 191.7 187.5 191.7C188.3 191.7 188.2 191.9 189 191.9C189.7 191.9 189.7 191.8 190.5 191.8C191.2 191.8 191.2 192 192 192C192.7 192 192.7 191.9 193.5 191.9C194.2 191.9 194.2 191.7 195 191.7C195.7 191.7 195.7 191.7 196.5 191.7C197.2 191.7 197.2 191.6 198 191.6C198.7 191.6 198.7 191.7 199.5 191.6C199.3 191.7 199.3 191.7 200 191.9Z" fill="#0F1117"/>
<path d="M116 163.8C116.5 163.8 117 164 117.4 164C117.9 164 118.3 164.3 118.8 164.4C119.3 164.4 119.8 164.3 120.2 164.3C120.7 164.4 121.2 164.4 121.6 164.5C122.1 164.6 122.5 164.7 123 164.9C123.5 165 123.8 165.4 124.3 165.5C124.8 165.6 125.2 165.8 125.6 166C126 166.2 126.5 166.3 126.9 166.5C127.3 166.7 128 166.5 128.4 166.7C128.8 166.9 129.2 167.2 129.6 167.4C130 167.6 130.2 168.2 130.6 168.5C131 168.8 131.7 168.6 132.1 168.9C132.5 169.2 132.8 169.5 133.2 169.8C133.6 170.1 134 170.4 134.3 170.7C134.7 171 134.9 171.5 135.2 171.8C135.5 172.1 135.9 172.4 136.3 172.8C136.6 173.1 137.1 173.4 137.4 173.7C137.7 174.1 138 174.4 138.3 174.8C138.6 175.2 138.5 175.8 138.8 176.2C139.1 176.6 139.5 176.9 139.7 177.3C140 177.7 140 178.2 140.2 178.6C140.4 179 140.9 179.3 141.1 179.7C141.3 180.1 141.3 180.7 141.5 181.1C141.7 181.5 142.1 181.9 142.3 182.3C142.5 182.7 142.8 183.1 143 183.6C143.1 184 143.1 184.6 143.2 185C143.3 185.5 143.3 186 143.4 186.4C143.5 186.9 143.6 187.3 143.6 187.8C143.7 188.3 143.7 188.7 143.8 189.2C143.8 189.7 144.1 190.1 144.2 190.6C144.2 191.1 144.2 191.6 144.2 192C144.2 192.5 143.8 192.9 143.8 193.4C143.8 193.9 144.1 194.4 144 194.8C144 195.3 143.6 195.7 143.5 196.2C143.4 196.7 143.6 197.2 143.5 197.6C143.4 198.1 143 198.4 142.9 198.9C142.8 199.4 143 199.9 142.8 200.4C142.7 200.9 142.7 201.4 142.5 201.8C142.3 202.2 141.9 202.6 141.7 203C141.5 203.4 141.3 203.9 141.1 204.3C140.9 204.7 140.5 205.1 140.3 205.5C140.1 205.9 139.9 206.4 139.7 206.8C139.4 207.2 139.2 207.6 138.9 208C138.6 208.4 138.6 208.9 138.3 209.3C138 209.7 137.7 210 137.4 210.4C137.1 210.8 136.8 211.1 136.5 211.5C136.2 211.8 135.6 212 135.3 212.3C135 212.6 134.5 212.9 134.2 213.2C133.8 213.5 133.6 213.9 133.2 214.2C132.8 214.5 132.6 214.9 132.2 215.2C131.8 215.5 131.4 215.7 131 215.9C130.6 216.2 130.2 216.5 129.8 216.7C129.4 216.9 128.8 216.9 128.4 217.1C128 217.3 127.6 217.7 127.2 217.9C126.8 218.1 126.2 217.9 125.7 218.1C125.3 218.3 124.9 218.8 124.5 218.9C124.1 219 123.5 218.8 123 218.9C122.5 219 122.2 219.5 121.7 219.6C121.2 219.7 120.7 219.5 120.3 219.6C119.8 219.7 119.4 219.9 118.9 220C118.4 220 118 220.3 117.5 220.3C117 220.3 116.5 220.3 116.1 220.3C115.6 220.3 115.2 220 114.7 220C114.2 220 113.7 220.3 113.3 220.2C112.8 220.2 112.4 220 111.9 219.9C111.4 219.8 111 219.8 110.5 219.7C110 219.6 109.6 219.4 109.1 219.3C108.6 219.2 108.2 219 107.8 218.8C107.3 218.7 106.9 218.6 106.4 218.4C106 218.2 105.6 217.9 105.2 217.7C104.8 217.5 104.3 217.5 103.9 217.3C103.5 217.1 103.1 216.7 102.7 216.5C102.3 216.3 101.9 216 101.5 215.8C101.1 215.5 100.6 215.4 100.2 215.2C99.7999 214.9 99.2999 214.8 98.8999 214.6C98.4999 214.3 98.2999 213.9 97.8999 213.6C97.4999 213.3 96.9999 213.1 96.6999 212.8C96.3999 212.5 96.1999 211.9 95.8999 211.6C95.5999 211.3 95.0999 211.1 94.7999 210.7C94.4999 210.3 94.1999 209.9 93.8999 209.6C93.5999 209.2 93.3999 208.8 93.0999 208.4C92.7999 208 92.5999 207.6 92.3999 207.2C92.0999 206.8 92.0999 206.3 91.7999 205.9C91.5999 205.5 91.1999 205.1 90.9999 204.7C90.7999 204.3 90.6999 203.8 90.4999 203.4C90.2999 203 90.1999 202.5 89.9999 202.1C89.7999 201.7 89.4999 201.3 89.2999 200.8C89.1999 200.4 88.9999 199.9 88.8999 199.4C88.7999 198.9 88.4999 198.5 88.3999 198.1C88.2999 197.6 88.4999 197.1 88.3999 196.7C88.2999 196.2 87.9999 195.8 87.9999 195.3C87.9999 194.8 88.3999 194.3 88.2999 193.9C88.2999 193.4 87.8999 193 87.8999 192.5C87.8999 192 87.7999 191.5 87.8999 191.1C87.8999 190.6 88.1999 190.2 88.2999 189.7C88.2999 189.2 88.0999 188.7 88.1999 188.3C88.2999 187.8 88.4999 187.4 88.5999 186.9C88.6999 186.4 88.6999 186 88.7999 185.5C88.8999 185 89.1999 184.6 89.3999 184.2C89.4999 183.7 89.7999 183.3 89.9999 182.9C90.1999 182.5 90.0999 181.9 90.1999 181.5C90.3999 181.1 90.6999 180.7 90.8999 180.3C91.0999 179.9 91.1999 179.4 91.3999 179C91.5999 178.6 91.8999 178.2 92.0999 177.8C92.3999 177.4 92.6999 177.1 92.9999 176.7C93.2999 176.3 93.3999 175.8 93.6999 175.5C93.9999 175.1 94.2999 174.8 94.5999 174.4C94.8999 174 95.2999 173.8 95.5999 173.4C95.8999 173.1 96.0999 172.6 96.3999 172.2C96.6999 171.9 97.2999 171.8 97.6999 171.5C98.0999 171.2 98.3999 170.9 98.7999 170.6C99.1999 170.3 99.5999 170.1 99.9999 169.8C100.4 169.5 100.6 169 101 168.8C101.4 168.5 101.8 168.3 102.2 168C102.6 167.8 103.1 167.7 103.5 167.5C103.9 167.3 104.4 167.2 104.8 167C105.2 166.8 105.6 166.5 106.1 166.3C106.5 166.1 107 166.1 107.5 166C107.9 165.9 108.3 165.5 108.8 165.4C109.3 165.3 109.8 165.4 110.2 165.3C110.7 165.2 111.1 165.1 111.6 165C112.1 164.9 112.5 164.8 113 164.8C113.5 164.8 113.9 164.4 114.4 164.4C115 163.8 115.5 163.8 116 163.8Z" fill="white"/>
<path d="M140.3 178.2C140.5 178.6 140.8 178.8 141 179.2C141.2 179.6 141.2 180.1 141.4 180.5C141.6 180.9 141.9 181.3 142.1 181.7C142.3 182.1 142.5 182.5 142.6 183C142.7 183.4 142.8 183.9 143 184.3C143.1 184.7 143.1 185.2 143.2 185.7C143.3 186.1 143.7 186.5 143.8 187C143.9 187.5 143.5 188 143.6 188.4C143.7 188.9 143.7 189.3 143.7 189.8C143.7 190.3 144 190.7 144 191.2C144 191.7 143.9 192.1 143.9 192.6C143.9 193.1 143.9 193.5 143.9 194C143.9 194.5 143.8 194.9 143.7 195.4C143.6 195.9 143.6 196.3 143.5 196.7C143.4 197.2 143.6 197.6 143.5 198.1C143.4 198.5 143.2 199 143.1 199.4C143 199.8 142.9 200.3 142.8 200.7C142.7 201.1 142.5 201.6 142.4 202C142.2 202.4 142.1 202.9 141.9 203.3C141.7 203.7 141.3 204 141.1 204.5C140.9 204.9 140.6 205.3 140.4 205.7C140.2 206.1 139.9 206.5 139.7 206.9C139.5 207.3 139.5 207.9 139.3 208.3C139 208.7 138.8 209.1 138.6 209.5C138.3 209.9 137.8 210.1 137.5 210.4C137.2 210.7 136.9 211.1 136.6 211.5C136.3 211.8 136 212.2 135.7 212.5C135.4 212.8 135 213.1 134.7 213.4C134.4 213.7 134.1 214.1 133.7 214.4C133.3 214.7 132.8 214.8 132.5 215C132.1 215.3 131.7 215.5 131.3 215.7C130.9 215.9 130.5 216.1 130.1 216.3C129.7 216.5 129.3 216.8 128.9 217C128.5 217.2 128.1 217.5 127.7 217.7C127.3 217.9 126.8 217.9 126.4 218.1C126 218.3 125.6 218.7 125.2 218.8C124.8 218.9 124.2 218.7 123.8 218.8C123.4 218.9 122.9 218.9 122.5 219C122.1 219.1 121.7 219.4 121.2 219.5C120.7 219.6 120.3 219.5 119.8 219.5C119.3 219.6 118.9 219.7 118.4 219.7C117.9 219.7 117.5 219.7 117 219.7C116.5 219.7 116.1 219.7 115.6 219.7C115.1 219.7 114.7 219.9 114.2 219.9C113.7 219.9 113.3 219.6 112.9 219.6C112.4 219.5 112 219.6 111.5 219.6C111 219.5 110.6 219.4 110.2 219.3C109.8 219.2 109.4 218.9 108.9 218.8C108.5 218.7 108 218.6 107.6 218.5C107.2 218.4 106.7 218.4 106.2 218.2C105.8 218 105.3 218 104.9 217.8C104.5 217.6 104.3 217 103.9 216.8C103.5 216.6 103.1 216.4 102.7 216.2C102.3 216 101.8 216 101.4 215.7C101 215.5 100.6 215.2 100.3 214.9C99.9004 214.6 99.6004 214.2 99.3004 214C98.9004 213.7 98.5004 213.5 98.2004 213.2C97.9004 212.9 97.5004 212.6 97.2004 212.2C96.9004 211.9 96.4004 211.7 96.1004 211.4C95.8004 211.1 95.8004 210.5 95.5004 210.1C95.2004 209.8 94.8004 209.5 94.5004 209.1C94.2004 208.7 93.9004 208.4 93.6004 208.1C93.3004 207.7 93.0004 207.4 92.7004 207C92.5004 206.6 92.1004 206 91.9004 205.6C92.4004 205.1 92.6004 205.2 93.2004 204.8C93.8004 204.4 94.1004 204.8 94.7004 204.5C95.3004 204.1 95.3004 204 95.9004 203.6C96.5004 203.2 96.5004 203.2 97.2004 202.9C97.8004 202.5 97.9004 202.6 98.5004 202.3C99.1004 201.9 98.9004 201.6 99.6004 201.2C100.2 200.8 100.4 201.1 101 200.7C101.6 200.3 101.6 200.3 102.3 200C102.9 199.6 102.8 199.4 103.4 199C104 198.6 104.2 198.9 104.8 198.5C105.4 198.1 105.5 198.3 106.1 197.9C106.7 197.5 106.7 197.5 107.3 197.1C107.9 196.7 107.9 196.7 108.6 196.4C109.2 196 109.1 195.8 109.7 195.4C110.3 195 110.5 195.3 111.1 194.9C111.7 194.5 111.8 194.6 112.4 194.2C113 193.8 112.9 193.6 113.5 193.2C114.1 192.8 114 192.7 114.7 192.3C115.3 191.9 115.4 192 116 191.6C116.6 191.2 116.8 191.5 117.4 191.1C118 190.7 118 190.7 118.7 190.4C119.3 190 119.3 189.9 119.9 189.5C120.5 189.1 120.5 189.1 121.1 188.7C121.7 188.3 121.9 188.6 122.5 188.2C123.1 187.8 123.1 187.8 123.7 187.4C124.3 187 124.3 187 125 186.6C125.6 186.2 125.5 186.1 126.2 185.7C126.8 185.3 126.7 185.2 127.4 184.8C128 184.4 128.1 184.5 128.7 184.1C129.3 183.7 129.5 184 130.1 183.7C130.7 183.3 130.6 183.1 131.2 182.7C131.8 182.3 131.9 182.4 132.5 182.1C133.1 181.7 133.2 181.9 133.9 181.5C134.5 181.1 134.3 180.8 135 180.4C135.6 180 135.8 180.4 136.5 180C137.1 179.6 137 179.5 137.7 179.1C138.3 178.7 138.3 178.7 139 178.3C139.6 178.3 139.6 178.3 140.3 178.2Z" fill="#0F1117"/>
<circle cx="115" cy="135" r="26.5" stroke="white" stroke-dasharray="5 5"/>
<circle cx="172" cy="79" r="26.5" stroke="white" stroke-dasharray="5 5"/>
<circle cx="115" cy="79" r="26.5" stroke="white" stroke-dasharray="5 5"/>
<path d="M228.001 164C228.501 164 229.001 163.8 229.401 163.9C229.901 163.9 230.401 163.9 230.801 163.9C231.301 163.9 231.801 164 232.201 164.1C232.701 164.2 233.101 164.5 233.601 164.6C234.101 164.7 234.501 164.9 234.901 165C235.401 165.1 235.801 165.2 236.301 165.3C236.801 165.4 237.301 165.2 237.801 165.4C238.201 165.6 238.601 166 239.001 166.1C239.401 166.3 239.901 166.4 240.401 166.6C240.801 166.8 241.201 167 241.701 167.3C242.101 167.5 242.401 167.9 242.801 168.2C243.201 168.5 243.601 168.7 244.001 169C244.401 169.3 244.601 169.8 245.001 170.1C245.401 170.4 245.901 170.5 246.301 170.8C246.701 171.1 247.001 171.5 247.301 171.8C247.601 172.1 248.001 172.5 248.301 172.8C248.601 173.1 249.201 173.3 249.501 173.7C249.801 174.1 250.001 174.5 250.301 174.9C250.601 175.3 250.701 175.8 251.001 176.1C251.301 176.5 251.601 176.9 251.801 177.3C252.101 177.7 252.301 178.1 252.601 178.5C252.801 178.9 253.101 179.3 253.301 179.7C253.501 180.1 253.701 180.6 253.901 181C254.101 181.4 254.301 181.8 254.501 182.3C254.701 182.7 254.801 183.2 255.001 183.6C255.101 184 255.401 184.5 255.501 184.9C255.601 185.4 255.501 185.9 255.501 186.4C255.601 186.9 255.601 187.3 255.701 187.8C255.801 188.3 255.901 188.7 255.901 189.2C255.901 189.7 256.001 190.1 256.001 190.6C256.001 191.1 255.901 191.5 255.901 192C255.901 192.5 256.301 193 256.301 193.4C256.301 193.9 256.201 194.4 256.101 194.8C256.101 195.3 256.001 195.7 255.901 196.2C255.801 196.7 255.401 197.1 255.301 197.5C255.201 198 255.301 198.5 255.201 198.9C255.101 199.4 255.101 199.9 255.001 200.3C254.901 200.8 254.701 201.2 254.501 201.6C254.301 202 254.101 202.5 253.901 202.9C253.701 203.3 253.201 203.6 253.001 204C252.801 204.4 252.601 204.8 252.301 205.2C252.101 205.6 251.901 206 251.601 206.4C251.301 206.8 251.401 207.4 251.101 207.8C250.801 208.2 250.501 208.5 250.201 208.9C249.901 209.3 249.401 209.5 249.101 209.9C248.801 210.3 248.601 210.8 248.301 211.1C248.001 211.4 247.701 211.8 247.301 212.1C247.001 212.4 246.401 212.5 246.101 212.8C245.701 213.1 245.601 213.7 245.201 214C244.801 214.3 244.201 214.2 243.801 214.5C243.401 214.8 243.201 215.4 242.801 215.6C242.401 215.9 241.901 216 241.501 216.2C241.101 216.4 240.601 216.5 240.101 216.7C239.701 216.9 239.301 217.2 238.801 217.3C238.401 217.5 238.001 217.9 237.601 218.1C237.201 218.3 236.701 218.4 236.201 218.5C235.801 218.6 235.201 218.4 234.701 218.5C234.201 218.6 233.801 218.9 233.401 219C232.901 219.1 232.501 219.1 232.001 219.2C231.501 219.3 231.101 219.4 230.601 219.5C230.101 219.5 229.601 219.4 229.201 219.4C228.701 219.4 228.301 219.5 227.801 219.5C227.301 219.5 226.801 219.9 226.401 219.9C225.901 219.9 225.401 219.8 225.001 219.7C224.501 219.7 224.101 219.4 223.601 219.3C223.101 219.2 222.601 219.3 222.201 219.2C221.701 219.1 221.301 218.9 220.801 218.8C220.301 218.7 219.801 218.7 219.401 218.6C218.901 218.5 218.601 218 218.201 217.8C217.801 217.6 217.301 217.5 216.901 217.3C216.501 217.1 216.001 217 215.601 216.8C215.201 216.6 214.901 216.2 214.401 216C214.001 215.8 213.501 215.7 213.101 215.4C212.701 215.1 212.301 214.8 212.001 214.6C211.601 214.3 211.101 214.3 210.701 214C210.301 213.7 210.101 213.2 209.801 212.9C209.401 212.6 209.101 212.2 208.801 211.9C208.501 211.6 208.201 211.2 207.901 210.8C207.601 210.5 207.301 210.1 206.901 209.8C206.601 209.4 206.301 209.1 206.001 208.7C205.701 208.3 205.101 208.2 204.801 207.8C204.501 207.4 204.601 206.8 204.401 206.4C204.101 206 203.901 205.6 203.701 205.2C203.501 204.8 202.901 204.6 202.601 204.2C202.401 203.8 202.601 203.2 202.401 202.7C202.201 202.3 201.601 202 201.401 201.6C201.201 201.2 201.401 200.6 201.201 200.1C201.101 199.7 200.701 199.3 200.601 198.8C200.501 198.3 200.701 197.8 200.601 197.3C200.501 196.8 200.301 196.4 200.301 195.9C200.201 195.4 200.001 195 200.001 194.5C200.001 194 199.901 193.6 199.901 193.1C199.901 192.6 199.801 192.2 199.801 191.7C199.801 191.2 200.201 190.8 200.301 190.3C200.301 189.8 199.901 189.3 199.901 188.9C199.901 188.4 200.301 188 200.401 187.5C200.501 187 200.401 186.5 200.501 186.1C200.601 185.6 200.701 185.2 200.801 184.7C200.901 184.2 201.301 183.8 201.401 183.4C201.501 182.9 201.801 182.5 202.001 182.1C202.201 181.7 202.301 181.2 202.501 180.8C202.701 180.4 202.701 179.8 202.901 179.4C203.101 179 203.301 178.6 203.601 178.1C203.801 177.7 204.201 177.4 204.501 177C204.801 176.6 204.601 176 204.901 175.6C205.201 175.2 205.501 174.9 205.801 174.5C206.101 174.1 206.501 173.8 206.801 173.5C207.101 173.1 207.701 173 208.001 172.7C208.301 172.4 208.301 171.7 208.701 171.3C209.001 171 209.601 170.9 210.001 170.6C210.401 170.3 210.601 169.9 211.001 169.6C211.401 169.3 211.701 168.9 212.101 168.7C212.501 168.4 212.901 168.2 213.301 167.9C213.701 167.6 214.201 167.6 214.601 167.3C215.001 167.1 215.501 167 215.901 166.8C216.301 166.6 216.801 166.5 217.201 166.3C217.601 166.1 217.901 165.5 218.401 165.4C218.801 165.2 219.301 165.2 219.801 165.1C220.201 165 220.801 165.1 221.201 164.9C221.701 164.8 222.001 164.3 222.501 164.2C223.001 164.1 223.501 164.4 224.001 164.4C224.501 164.3 224.901 164.1 225.401 164.1C225.901 164.1 226.301 164.2 226.801 164.1C227.101 164.3 227.501 164 228.001 164Z" fill="white"/>
<path d="M255.101 199.2C255.001 199.6 254.601 200.1 254.501 200.5C254.401 200.9 254.601 201.5 254.401 201.9C254.201 202.3 254.101 202.8 253.901 203.2C253.701 203.6 253.601 204.1 253.401 204.5C253.201 204.9 252.901 205.3 252.601 205.7C252.401 206.1 252.201 206.5 252.001 206.9C251.801 207.3 251.201 207.4 250.901 207.8C250.601 208.2 250.501 208.6 250.201 209C249.901 209.4 249.801 209.9 249.501 210.2C249.201 210.5 248.701 210.7 248.401 211C248.101 211.3 247.901 211.8 247.601 212.1C247.301 212.4 247.001 212.8 246.601 213.1C246.301 213.4 245.901 213.7 245.501 214C245.101 214.3 244.801 214.5 244.401 214.8C244.001 215.1 243.501 215.2 243.201 215.4C242.801 215.6 242.501 216 242.101 216.2C241.701 216.4 241.201 216.5 240.801 216.7C240.401 216.9 240.101 217.5 239.701 217.6C239.301 217.8 238.701 217.7 238.301 217.8C237.901 218 237.501 218.3 237.101 218.5C236.701 218.6 236.201 218.8 235.801 219C235.401 219.1 234.901 219 234.401 219.1C234.001 219.2 233.601 219.6 233.101 219.7C232.601 219.8 232.101 219.4 231.701 219.5C231.201 219.6 230.801 219.6 230.301 219.6C229.801 219.6 229.401 220.1 229.001 220.1C228.501 220.1 228.101 219.6 227.601 219.6C227.101 219.6 226.701 219.6 226.201 219.6C225.701 219.6 225.301 219.8 224.801 219.7C224.301 219.6 223.801 219.9 223.401 219.8C222.901 219.7 222.601 219.2 222.101 219.1C221.701 219 221.101 219.2 220.701 219.1C220.301 219 219.901 218.5 219.501 218.4C219.101 218.3 218.601 218.2 218.201 218C217.801 217.8 217.301 217.8 216.901 217.6C216.501 217.4 216.101 217.2 215.601 217C215.201 216.8 214.701 216.7 214.301 216.4C213.901 216.2 213.501 216 213.101 215.8C212.701 215.6 212.301 215.4 211.901 215.1C211.501 214.8 211.401 214.2 211.001 214C210.601 213.7 210.401 213.3 210.001 213C209.701 212.7 209.201 212.5 208.901 212.2C208.601 211.9 208.201 211.6 207.901 211.2C207.601 210.9 207.201 210.6 206.901 210.3C206.601 210 206.201 209.7 205.901 209.3C205.601 208.9 205.501 208.5 205.201 208.1C204.901 207.7 204.801 207.2 204.601 206.9C204.401 206.5 203.901 206.3 203.701 205.9C203.501 205.5 203.501 205 203.301 204.6C203.101 204.2 202.901 203.8 202.701 203.4C202.501 203 202.101 202.7 201.901 202.2C201.701 201.8 201.801 201.3 201.701 200.8C201.601 200.4 201.401 199.9 201.301 199.5C201.201 199.1 200.801 198.7 200.701 198.2C200.601 197.8 200.301 197.3 200.201 196.9C200.101 196.4 200.501 195.9 200.401 195.5C200.301 195 200.201 194.6 200.201 194.1C200.201 193.6 200.301 193.2 200.301 192.7C200.301 192.2 199.801 191.8 199.801 191.3C199.801 190.8 199.801 190.4 199.801 189.9C199.801 189.4 200.001 189 200.101 188.5C200.201 188 200.401 187.6 200.501 187.2C200.601 186.7 200.801 186.3 200.901 185.9C201.001 185.5 200.901 185.1 201.001 184.6C201.701 184.6 201.801 184.4 202.501 184.6C203.201 184.8 203.101 185.2 203.801 185.4C204.501 185.6 204.501 185.5 205.201 185.7C205.901 185.9 205.901 186 206.601 186.1C207.301 186.3 207.401 186.1 208.101 186.3C208.801 186.5 208.801 186.6 209.501 186.8C210.201 187 210.201 187.1 210.901 187.3C211.601 187.5 211.601 187.4 212.401 187.6C213.101 187.8 213.201 187.6 213.901 187.8C214.601 188 214.601 188 215.301 188.1C216.001 188.3 216.001 188.4 216.701 188.6C217.401 188.8 217.401 188.8 218.101 189C218.801 189.2 218.901 189 219.601 189.2C220.301 189.4 220.301 189.6 221.001 189.8C221.701 190 221.701 190 222.401 190.1C223.101 190.3 223.101 190.5 223.801 190.6C224.501 190.8 224.501 190.7 225.301 190.9C226.001 191.1 226.001 191.1 226.701 191.3C227.401 191.5 227.501 191.3 228.201 191.5C228.901 191.7 228.801 192.1 229.501 192.3C230.201 192.5 230.201 192.4 230.901 192.6C231.601 192.8 231.701 192.5 232.401 192.7C233.101 192.9 233.001 193.3 233.701 193.5C234.401 193.7 234.501 193.5 235.201 193.7C235.901 193.9 235.901 193.9 236.601 194.1C237.301 194.3 237.401 194.1 238.101 194.3C238.801 194.5 238.701 194.9 239.401 195.1C240.101 195.3 240.201 195 240.901 195.2C241.601 195.4 241.601 195.5 242.301 195.7C243.001 195.9 243.001 195.8 243.701 196C244.401 196.2 244.401 196.4 245.101 196.6C245.801 196.8 245.801 196.7 246.501 196.9C247.201 197.1 247.201 197.2 247.901 197.4C248.601 197.6 248.601 197.5 249.301 197.7C250.001 197.9 250.101 197.5 250.801 197.7C251.501 197.9 251.501 198 252.201 198.2C252.901 198.4 252.901 198.6 253.601 198.7C254.401 198.9 254.501 198.8 255.101 199.2Z" fill="#0F1117"/>
<path d="M228 107.8C228.5 107.8 228.9 108.2 229.4 108.2C229.9 108.2 230.4 107.9 230.8 108C231.3 108 231.7 108.3 232.2 108.4C232.7 108.5 233.1 108.7 233.6 108.8C234.1 108.9 234.5 108.9 235 109C235.5 109.1 235.9 109.3 236.3 109.5C236.8 109.6 237.3 109.5 237.8 109.6C238.2 109.8 238.6 110.1 239.1 110.2C239.5 110.4 239.9 110.8 240.3 111C240.7 111.2 241.2 111.3 241.6 111.5C242 111.7 242.4 112 242.8 112.3C243.2 112.6 243.7 112.7 244.1 112.9C244.5 113.2 244.9 113.4 245.3 113.7C245.7 114 245.9 114.5 246.2 114.8C246.6 115.1 247 115.3 247.3 115.7C247.6 116 248.1 116.2 248.4 116.6C248.7 116.9 249.1 117.3 249.4 117.6C249.7 118 250 118.4 250.3 118.7C250.6 119.1 250.8 119.5 251.1 119.9C251.4 120.3 251.6 120.7 251.9 121.1C252.2 121.5 252.2 122 252.4 122.4C252.6 122.8 252.9 123.2 253.1 123.6C253.3 124 253.9 124.3 254.1 124.7C254.3 125.1 254.4 125.6 254.6 126.1C254.8 126.5 255 127 255.2 127.4C255.3 127.8 255.4 128.3 255.6 128.8C255.7 129.3 255.7 129.8 255.8 130.2C255.9 130.7 256 131.1 256.1 131.6C256.2 132.1 256 132.6 256.1 133C256.1 133.5 256.1 133.9 256.1 134.4C256.1 134.9 256.3 135.3 256.3 135.8C256.3 136.3 256.2 136.7 256.1 137.2C256.1 137.7 256.3 138.2 256.3 138.6C256.3 139.1 255.9 139.5 255.8 140C255.7 140.5 255.7 140.9 255.6 141.4C255.5 141.9 255.3 142.3 255.2 142.7C255.1 143.2 255.2 143.7 255 144.1C254.9 144.6 254.9 145.1 254.8 145.5C254.6 145.9 254.4 146.4 254.3 146.8C254.1 147.2 253.5 147.5 253.3 147.9C253.1 148.3 253.3 149 253.1 149.4C252.9 149.8 252.6 150.2 252.3 150.6C252 151 251.4 151.2 251.2 151.6C250.9 152 251 152.7 250.7 153C250.4 153.4 249.8 153.5 249.5 153.9C249.2 154.3 249.2 154.9 248.8 155.2C248.5 155.5 248 155.7 247.6 156C247.3 156.3 246.8 156.5 246.4 156.8C246 157.1 245.8 157.6 245.5 157.9C245.1 158.2 244.8 158.6 244.4 158.9C244 159.2 243.5 159.3 243.1 159.5C242.7 159.8 242.3 160.1 241.9 160.3C241.5 160.5 241 160.7 240.6 160.9C240.2 161.1 239.7 161.2 239.3 161.4C238.9 161.6 238.3 161.5 237.9 161.7C237.5 161.9 237.1 162.1 236.6 162.3C236.2 162.4 235.8 163 235.4 163.1C234.9 163.2 234.4 162.9 233.9 163C233.4 163.1 233 163.4 232.6 163.5C232.1 163.6 231.7 163.8 231.2 163.9C230.7 163.9 230.2 163.7 229.8 163.7C229.3 163.7 228.9 164 228.4 164C227.9 164 227.5 163.6 227 163.6C226.5 163.6 226.1 163.5 225.6 163.5C225.1 163.5 224.6 163.6 224.2 163.5C223.7 163.4 223.2 163.5 222.8 163.4C222.3 163.3 221.9 163.1 221.4 162.9C220.9 162.8 220.4 162.8 220 162.7C219.5 162.6 219.1 162.3 218.7 162.1C218.3 161.9 217.8 161.8 217.3 161.7C216.9 161.5 216.4 161.3 216 161.1C215.6 160.9 215.3 160.4 214.9 160.2C214.5 160 214 159.8 213.6 159.6C213.2 159.3 212.7 159.2 212.3 158.9C211.9 158.6 211.7 158.1 211.4 157.8C211 157.5 210.6 157.3 210.2 157C209.8 156.7 209.4 156.5 209 156.2C208.7 155.9 208.3 155.5 208 155.2C207.7 154.9 207.4 154.5 207.1 154.1C206.8 153.7 206.5 153.3 206.2 153C205.9 152.6 205.7 152.2 205.4 151.8C205.1 151.4 204.7 151.1 204.5 150.7C204.2 150.3 204.2 149.8 204 149.4C203.8 149 203.3 148.7 203.1 148.3C202.9 147.9 202.7 147.4 202.5 147C202.3 146.6 202.2 146.1 202 145.7C201.8 145.3 201.8 144.8 201.6 144.3C201.5 143.9 201.1 143.5 201 143C200.9 142.5 201 142 200.9 141.6C200.8 141.1 200.5 140.7 200.4 140.2C200.3 139.7 200.7 139.2 200.6 138.7C200.6 138.2 200 137.8 200 137.3C200 136.8 199.9 136.3 199.9 135.9C199.9 135.4 200.1 134.9 200.2 134.5C200.2 134 200 133.5 200.1 133.1C200.1 132.6 200.2 132.1 200.3 131.7C200.4 131.2 200.8 130.8 200.9 130.4C201 129.9 201 129.5 201.1 129C201.2 128.5 201.5 128.1 201.7 127.7C201.8 127.2 202 126.8 202.1 126.4C202.3 126 202.5 125.5 202.7 125.1C202.9 124.7 202.9 124.1 203.1 123.7C203.3 123.3 203.5 122.8 203.7 122.4C203.9 122 204.3 121.6 204.5 121.2C204.8 120.8 204.8 120.2 205.1 119.9C205.4 119.5 205.9 119.3 206.2 118.9C206.5 118.5 206.7 118.1 207 117.8C207.3 117.4 207.7 117.1 208 116.8C208.3 116.5 208.7 116.1 209 115.8C209.3 115.5 209.6 115 209.9 114.7C210.3 114.4 210.6 114 211 113.8C211.4 113.5 211.9 113.4 212.2 113.1C212.6 112.8 212.9 112.4 213.3 112.2C213.7 111.9 214.2 111.9 214.6 111.7C215 111.5 215.4 111.2 215.8 111C216.2 110.8 216.6 110.4 217 110.2C217.4 110 217.9 110 218.4 109.8C218.8 109.6 219.3 109.5 219.7 109.4C220.1 109.3 220.6 109.2 221.1 109.1C221.6 109 221.9 108.5 222.4 108.4C222.9 108.3 223.4 108.4 223.8 108.4C224.3 108.3 224.7 108.1 225.2 108.1C225.7 108.1 226.2 108.3 226.6 108.3C227.1 108.1 227.5 107.8 228 107.8Z" fill="white"/>
<path d="M255.999 135.9C255.999 136.4 255.899 137 255.899 137.5C255.899 138 255.799 138.5 255.799 139C255.699 139.5 255.799 140 255.699 140.5C255.599 141 255.499 141.5 255.399 141.9C255.299 142.4 255.199 142.8 254.999 143.3C254.899 143.8 254.899 144.3 254.799 144.8C254.599 145.3 254.499 145.8 254.399 146.2C254.199 146.7 253.799 147 253.599 147.5C253.399 147.9 253.199 148.4 252.999 148.8C252.799 149.2 252.299 149.5 251.999 149.9C251.799 150.3 251.699 150.8 251.399 151.2C251.099 151.6 251.099 152.2 250.799 152.6C250.499 153 250.199 153.4 249.899 153.7C249.599 154.1 249.099 154.3 248.799 154.7C248.499 155.1 247.899 155.2 247.599 155.6C247.299 155.9 247.099 156.5 246.799 156.9C246.399 157.2 246.099 157.6 245.699 157.9C245.299 158.2 244.899 158.4 244.499 158.7C244.099 159 243.599 159.1 243.199 159.4C242.799 159.7 242.499 160.1 242.099 160.4C241.699 160.6 241.099 160.6 240.699 160.8C240.299 161 239.999 161.5 239.499 161.7C239.099 161.9 238.499 161.8 237.999 161.9C237.499 162.1 237.099 162.4 236.699 162.5C236.199 162.7 235.799 162.9 235.299 163C234.799 163.1 234.299 163.2 233.899 163.3C233.399 163.4 232.899 163.4 232.399 163.5C231.899 163.6 231.399 163.7 230.999 163.7C230.499 163.8 229.999 164.1 229.599 164.1C229.099 164.1 228.599 164.1 228.099 164.1C227.599 164.1 227.099 163.7 226.599 163.6C226.099 163.6 225.599 164 225.099 164C224.599 163.9 224.199 163.5 223.699 163.5C223.199 163.4 222.699 163.4 222.199 163.3C221.699 163.2 221.299 163.1 220.799 162.9C220.299 162.8 219.899 162.5 219.399 162.4C218.899 162.2 218.499 162.1 217.999 162C217.499 161.8 217.099 161.6 216.699 161.4C216.299 161.2 215.699 161.3 215.199 161.1C214.799 160.9 214.299 160.7 213.899 160.4C213.499 160.2 213.299 159.6 212.899 159.3C212.499 159 211.999 158.9 211.599 158.6C211.199 158.3 210.899 157.9 210.499 157.6C210.099 157.3 209.499 157.3 209.099 156.9C208.699 156.6 208.499 156.1 208.199 155.7C207.899 155.4 207.499 155 207.199 154.6C206.899 154.2 206.399 154 206.099 153.6C205.799 153.2 205.799 152.6 205.499 152.2C205.199 151.8 204.799 151.5 204.499 151.1C204.199 150.7 203.799 150.4 203.599 149.9C203.399 149.5 203.199 149 202.999 148.5C202.799 148.1 202.899 147.5 202.699 147C202.499 146.6 201.999 146.2 201.799 145.8C201.599 145.3 201.799 144.8 201.599 144.3C201.399 143.8 201.299 143.4 201.199 142.9C201.099 142.4 200.799 142 200.699 141.5C200.599 141 200.299 140.6 200.199 140.1C200.099 139.6 199.999 139.1 199.899 138.6C199.799 138.1 200.199 137.6 200.099 137.1C200.099 136.6 199.899 136 199.899 135.5C200.599 135.3 200.699 135.6 201.399 135.6C202.099 135.6 202.099 135.5 202.899 135.5C203.599 135.5 203.599 135.6 204.399 135.6C205.099 135.6 205.099 135.4 205.899 135.4C206.599 135.4 206.599 135.7 207.399 135.7C208.099 135.7 208.099 135.3 208.899 135.3C209.599 135.3 209.599 135.8 210.399 135.8C211.099 135.8 211.099 135.5 211.899 135.5C212.599 135.5 212.599 135.7 213.399 135.7C214.099 135.7 214.099 135.8 214.899 135.8C215.699 135.8 215.599 135.7 216.399 135.7C217.099 135.7 217.099 135.7 217.899 135.7C218.599 135.7 218.599 135.3 219.399 135.3C220.099 135.3 220.099 135.3 220.899 135.3C221.599 135.3 221.599 135.3 222.399 135.3C223.099 135.3 223.099 135.5 223.899 135.5C224.599 135.5 224.599 135.7 225.399 135.7C226.099 135.7 226.099 135.2 226.899 135.2C227.599 135.2 227.599 135.3 228.399 135.3C229.099 135.3 229.099 135.2 229.899 135.2C230.599 135.2 230.599 135.7 231.399 135.7C232.099 135.7 232.099 135.6 232.899 135.6C233.599 135.6 233.599 135.4 234.399 135.4C235.099 135.4 235.099 135.6 235.899 135.6C236.599 135.6 236.599 135.1 237.399 135.1C238.099 135.1 238.099 135.5 238.899 135.5C239.599 135.5 239.599 135.5 240.399 135.5C241.099 135.5 241.099 135.2 241.899 135.2C242.599 135.2 242.599 135.5 243.399 135.5C244.199 135.5 244.099 135.3 244.899 135.3C245.599 135.3 245.599 135.2 246.399 135.2C247.099 135.2 247.099 135.4 247.899 135.4C248.599 135.4 248.599 135.5 249.399 135.5C250.099 135.5 250.099 135.2 250.899 135.2C251.599 135.2 251.599 135.4 252.399 135.4C253.099 135.4 253.099 135.4 253.899 135.4C254.599 135.4 254.699 135.6 255.399 135.5C255.299 136 255.299 135.6 255.999 135.9Z" fill="#0F1117"/>
<path d="M228 51.7002C228.5 51.7002 229 51.9002 229.4 51.9002C229.9 51.9002 230.3 52.1002 230.8 52.2002C231.3 52.2002 231.7 52.2002 232.2 52.3002C232.7 52.4002 233.1 52.5002 233.6 52.6002C234.1 52.7002 234.5 52.7002 235 52.9002C235.5 53.0002 235.8 53.4002 236.3 53.5002C236.8 53.6002 237.2 53.8002 237.6 54.0002C238 54.2002 238.6 54.1002 239 54.3002C239.4 54.5002 239.7 55.0002 240.2 55.2002C240.6 55.4002 241.2 55.4002 241.6 55.6002C242 55.8002 242.5 55.9002 242.9 56.2002C243.3 56.5002 243.7 56.8002 244 57.1002C244.4 57.4002 244.7 57.8002 245 58.1002C245.4 58.4002 245.9 58.5002 246.3 58.8002C246.7 59.1002 247 59.5002 247.3 59.8002C247.6 60.1002 248 60.4002 248.3 60.8002C248.6 61.1002 248.7 61.7002 249 62.0002C249.3 62.4002 249.7 62.6002 250 63.0002C250.3 63.4002 250.6 63.7002 250.9 64.1002C251.2 64.5002 251.4 64.9002 251.6 65.3002C251.9 65.7002 251.8 66.2002 252.1 66.7002C252.3 67.1002 253 67.3002 253.2 67.7002C253.4 68.1002 253.3 68.7002 253.5 69.1002C253.7 69.5002 254 69.9002 254.1 70.4002C254.3 70.8002 254.1 71.4002 254.3 71.8002C254.4 72.2002 255 72.6002 255.1 73.0002C255.2 73.5002 255.4 73.9002 255.5 74.4002C255.6 74.9002 255.3 75.4002 255.4 75.9002C255.5 76.4002 255.6 76.8002 255.6 77.3002C255.6 77.8002 255.7 78.2002 255.7 78.7002C255.7 79.2002 255.5 79.6002 255.5 80.1002C255.5 80.6002 255.8 81.0002 255.7 81.5002C255.7 82.0002 255.4 82.4002 255.4 82.9002C255.4 83.4002 255.6 83.9002 255.5 84.3002C255.4 84.8002 255.2 85.2002 255.2 85.7002C255.1 86.2002 255 86.6002 254.9 87.1002C254.8 87.6002 254.4 87.9002 254.3 88.4002C254.2 88.9002 254.1 89.3002 253.9 89.8002C253.7 90.2002 253.8 90.8002 253.6 91.2002C253.4 91.6002 253.2 92.1002 253 92.5002C252.8 92.9002 252.3 93.2002 252.1 93.6002C251.9 94.0002 251.9 94.6002 251.7 95.0002C251.4 95.4002 251 95.6002 250.7 96.0002C250.4 96.4002 250.3 96.9002 250 97.3002C249.7 97.7002 249.2 97.9002 248.9 98.2002C248.6 98.6002 248.2 98.8002 247.9 99.2002C247.6 99.5002 247.3 99.9002 247 100.3C246.7 100.6 246.3 100.9 245.9 101.2C245.5 101.5 245.2 101.9 244.9 102.2C244.5 102.5 244.1 102.7 243.7 103C243.3 103.3 243 103.7 242.6 104C242.2 104.3 241.8 104.4 241.3 104.7C240.9 104.9 240.4 105 240 105.2C239.6 105.4 239.2 105.6 238.7 105.8C238.3 106 237.9 106.4 237.5 106.6C237.1 106.8 236.7 107.1 236.2 107.3C235.8 107.4 235.2 107.2 234.7 107.3C234.2 107.4 233.8 107.7 233.4 107.8C232.9 107.9 232.4 107.6 231.9 107.7C231.4 107.8 231 108.1 230.5 108.2C230 108.2 229.5 108.1 229.1 108.1C228.6 108.1 228.2 108.5 227.7 108.5C227.2 108.5 226.8 108.1 226.3 108.1C225.8 108.1 225.4 108.1 224.9 108C224.4 108 223.9 108 223.5 107.9C223 107.8 222.6 107.7 222.1 107.6C221.6 107.5 221.2 107.5 220.7 107.3C220.2 107.2 219.8 107.1 219.3 107C218.8 106.9 218.4 106.8 217.9 106.7C217.5 106.5 217 106.4 216.5 106.3C216.1 106.1 215.7 105.7 215.3 105.5C214.9 105.3 214.4 105.2 214 104.9C213.6 104.7 213.3 104.3 212.9 104C212.5 103.7 212.2 103.3 211.8 103.1C211.4 102.8 210.8 102.8 210.5 102.5C210.1 102.2 209.8 101.9 209.4 101.6C209 101.3 208.9 100.8 208.6 100.4C208.3 100.1 207.8 99.9002 207.5 99.5002C207.2 99.2002 206.8 98.9002 206.5 98.5002C206.2 98.1002 205.9 97.8002 205.6 97.4002C205.3 97.0002 204.8 96.8002 204.6 96.4002C204.3 96.0002 204.1 95.6002 203.8 95.2002C203.5 94.8002 203.5 94.3002 203.2 93.9002C203 93.5002 202.8 93.1002 202.5 92.6002C202.3 92.2002 202.1 91.7002 201.9 91.3002C201.7 90.9002 201.5 90.5002 201.3 90.0002C201.1 89.6002 201 89.1002 200.9 88.6002C200.8 88.2002 200.9 87.6002 200.8 87.2002C200.7 86.7002 200.2 86.4002 200.1 85.9002C200 85.4002 200.1 84.9002 200 84.5002C199.9 84.0002 199.8 83.6002 199.7 83.1002C199.7 82.6002 199.5 82.2002 199.5 81.7002C199.5 81.2002 199.7 80.7002 199.7 80.3002C199.7 79.8002 199.8 79.4002 199.8 78.9002C199.8 78.4002 199.5 77.9002 199.5 77.5002C199.5 77.0002 200 76.6002 200.1 76.1002C200.2 75.6002 199.9 75.1002 200 74.6002C200.1 74.1002 200.2 73.7002 200.3 73.2002C200.4 72.7002 200.7 72.3002 200.8 71.9002C200.9 71.4002 201.3 71.1002 201.5 70.6002C201.7 70.2002 201.9 69.7002 202 69.3002C202.2 68.9002 202.1 68.3002 202.3 67.9002C202.5 67.5002 203.1 67.2002 203.3 66.8002C203.5 66.4002 203.6 65.9002 203.8 65.5002C204.1 65.1002 204.2 64.6002 204.5 64.2002C204.8 63.8002 205.1 63.5002 205.4 63.1002C205.7 62.7002 206 62.3002 206.3 62.0002C206.6 61.6002 207.2 61.5002 207.5 61.2002C207.8 60.9002 207.9 60.2002 208.2 59.9002C208.5 59.6002 209.1 59.4002 209.4 59.1002C209.8 58.8002 210 58.3002 210.3 58.0002C210.7 57.7002 211.2 57.6002 211.6 57.3002C212 57.0002 212.6 57.1002 213 56.8002C213.4 56.5002 213.6 55.9002 214 55.7002C214.4 55.5002 214.9 55.3002 215.3 55.1002C215.7 54.9002 216.2 54.7002 216.6 54.5002C217 54.3002 217.4 54.1002 217.9 53.9002C218.3 53.7002 218.8 53.5002 219.2 53.3002C219.6 53.2002 220.2 53.5002 220.7 53.4002C221.2 53.3002 221.6 53.1002 222.1 53.0002C222.6 52.9002 223 52.5002 223.4 52.4002C223.9 52.3002 224.4 52.7002 224.9 52.7002C225.4 52.7002 225.8 52.5002 226.3 52.5002C227.1 52.1002 227.5 51.7002 228 51.7002Z" fill="white"/>
<path d="M255.001 87.2002C254.901 87.7002 254.601 88.1002 254.501 88.6002C254.301 89.1002 254.501 89.7002 254.301 90.1002C254.101 90.6002 253.901 91.0002 253.701 91.5002C253.501 92.0002 253.301 92.4002 253.101 92.9002C252.901 93.3002 252.201 93.5002 251.901 94.0002C251.601 94.4002 251.801 95.1002 251.601 95.6002C251.301 96.0002 250.901 96.3002 250.601 96.7002C250.301 97.1002 249.901 97.4002 249.601 97.8002C249.301 98.2002 248.901 98.5002 248.601 98.9002C248.301 99.3002 248.101 99.8002 247.701 100.2C247.301 100.5 247.101 101 246.701 101.3C246.301 101.6 245.701 101.7 245.301 102C244.901 102.3 244.701 102.9 244.301 103.1C243.901 103.4 243.201 103.3 242.801 103.5C242.401 103.8 242.101 104.3 241.701 104.6C241.301 104.8 240.701 104.9 240.301 105.1C239.901 105.3 239.501 105.7 239.001 105.9C238.501 106.1 238.101 106.3 237.601 106.4C237.101 106.6 236.701 106.9 236.201 107.1C235.701 107.2 235.201 107.1 234.701 107.2C234.201 107.3 233.801 107.7 233.301 107.8C232.801 107.9 232.301 107.9 231.801 108C231.301 108.1 230.801 107.8 230.301 107.8C229.801 107.8 229.301 108.1 228.801 108.1C228.301 108.1 227.801 108.4 227.301 108.4C226.801 108.4 226.301 107.9 225.801 107.8C225.301 107.8 224.801 107.9 224.301 107.8C223.801 107.7 223.301 107.6 222.801 107.5C222.301 107.4 221.701 107.7 221.201 107.6C220.701 107.5 220.301 107 219.801 106.9C219.301 106.8 218.801 106.7 218.401 106.5C217.901 106.3 217.501 106.1 217.001 105.9C216.501 105.7 216.101 105.4 215.701 105.2C215.301 105 214.901 104.6 214.401 104.4C214.001 104.2 213.301 104.3 212.901 104C212.501 103.7 212.201 103.2 211.801 102.9C211.401 102.6 210.801 102.6 210.401 102.3C210.001 102 209.901 101.4 209.501 101C209.101 100.7 208.801 100.3 208.501 99.9002C208.101 99.5002 207.501 99.4002 207.201 99.1002C206.901 98.7002 206.401 98.4002 206.101 98.1002C205.801 97.7002 205.501 97.3002 205.201 96.9002C204.901 96.5002 205.001 95.8002 204.701 95.4002C204.401 95.0002 204.101 94.6002 203.901 94.2002C203.601 93.8002 203.201 93.4002 203.001 93.0002C202.801 92.6002 202.601 92.1002 202.401 91.6002C202.201 91.1002 202.001 90.7002 201.801 90.2002C201.601 89.7002 201.201 89.3002 201.101 88.9002C200.901 88.4002 201.101 87.9002 201.001 87.4002C200.901 86.9002 200.501 86.5002 200.401 86.0002C200.301 85.5002 200.501 85.0002 200.401 84.5002C200.301 84.0002 200.401 83.5002 200.401 83.0002C200.401 82.5002 200.201 82.0002 200.201 81.5002C200.201 81.0002 200.101 80.5002 200.101 80.0002C200.101 79.5002 199.901 79.0002 200.001 78.5002C200.001 78.0002 200.501 77.5002 200.601 77.1002C200.701 76.6002 200.701 76.1002 200.701 75.6002C200.801 75.1002 200.801 74.6002 200.901 74.1002C201.001 73.6002 201.201 73.1002 201.301 72.7002C201.401 72.2002 201.301 71.7002 201.501 71.2002C201.701 70.7002 202.201 70.4002 202.401 69.9002C202.601 69.4002 202.401 68.8002 202.601 68.3002C202.801 67.8002 203.101 67.4002 203.301 67.0002C203.501 66.6002 203.801 66.1002 204.001 65.7002C204.301 65.3002 204.501 64.8002 204.801 64.4002C205.101 64.0002 205.401 63.6002 205.701 63.2002C206.001 62.8002 206.501 62.5002 206.801 62.1002C207.101 61.7002 207.401 61.3002 207.801 61.0002C208.101 60.6002 208.401 60.1002 208.701 59.8002C209.101 59.5002 209.701 59.5002 210.101 59.1002C210.501 58.8002 210.901 58.5002 211.301 58.2002C211.701 57.9002 211.901 57.3002 212.301 57.0002C212.701 56.7002 213.201 56.6002 213.701 56.4002C214.101 56.1002 214.401 55.7002 214.901 55.5002C215.301 55.3002 215.801 55.1002 216.301 54.9002C216.801 54.7002 217.201 54.5002 217.701 54.3002C218.201 54.1002 218.601 53.7002 219.001 53.6002C219.501 53.4002 220.001 53.4002 220.501 53.3002C221.001 53.2002 221.501 53.2002 222.001 53.1002C222.501 53.0002 223.001 52.8002 223.501 52.7002C224.001 52.6002 224.501 52.4002 225.001 52.4002C225.501 52.3002 226.001 52.2002 226.501 52.2002C227.001 52.2002 227.501 52.6002 228.001 52.6002C228.501 52.6002 229.001 52.6002 229.501 52.7002C230.001 52.7002 230.501 52.7002 231.001 52.7002C231.501 52.8002 232.001 52.5002 232.501 52.5002C233.001 52.6002 233.501 52.7002 234.001 52.8002C234.501 52.9002 234.801 53.2002 235.201 53.4002C235.201 54.1002 235.401 54.1002 235.201 54.9002C235.001 55.6002 234.901 55.6002 234.801 56.3002C234.601 57.0002 234.501 57.0002 234.301 57.7002C234.101 58.4002 233.901 58.4002 233.701 59.1002C233.501 59.8002 233.601 59.8002 233.501 60.6002C233.301 61.3002 233.301 61.3002 233.101 62.0002C232.901 62.7002 233.101 62.8002 232.901 63.5002C232.701 64.2002 232.601 64.2002 232.401 64.9002C232.201 65.6002 232.001 65.5002 231.801 66.3002C231.601 67.0002 232.001 67.1002 231.901 67.8002C231.701 68.5002 231.301 68.4002 231.101 69.1002C230.901 69.8002 231.101 69.9002 230.901 70.6002C230.701 71.3002 230.801 71.3002 230.601 72.0002C230.401 72.7002 230.601 72.8002 230.401 73.5002C230.201 74.2002 230.101 74.2002 229.901 74.9002C229.701 75.6002 229.501 75.6002 229.301 76.3002C229.101 77.0002 229.001 77.0002 228.801 77.7002C228.601 78.4002 228.801 78.5002 228.601 79.2002C228.401 79.9002 227.801 80.1002 228.201 80.7002C228.601 81.3002 228.901 81.1002 229.701 81.2002C230.401 81.4002 230.501 81.1002 231.201 81.3002C231.901 81.5002 231.901 81.5002 232.601 81.7002C233.301 81.9002 233.301 82.0002 234.001 82.2002C234.701 82.4002 234.801 82.1002 235.501 82.3002C236.201 82.5002 236.201 82.4002 236.901 82.6002C237.601 82.8002 237.501 83.1002 238.201 83.3002C238.901 83.5002 239.001 83.3002 239.701 83.5002C240.401 83.7002 240.301 83.9002 241.101 84.1002C241.801 84.3002 241.901 84.0002 242.601 84.2002C243.301 84.4002 243.401 84.2002 244.101 84.4002C244.801 84.6002 244.801 84.7002 245.501 84.9002C246.201 85.1002 246.201 85.3002 246.901 85.5002C247.601 85.7002 247.601 85.6002 248.301 85.8002C249.001 86.0002 249.001 86.0002 249.701 86.2002C250.401 86.4002 250.401 86.3002 251.201 86.5002C251.901 86.7002 251.901 86.6002 252.701 86.8002C253.401 87.0002 253.301 87.3002 254.101 87.4002C254.401 87.0002 254.401 86.8002 255.001 87.2002Z" fill="#0F1117"/>
<path d="M172 107.9C172.5 107.9 173 107.9 173.4 108C173.9 108 174.3 108.1 174.8 108.2C175.3 108.2 175.7 108.6 176.2 108.7C176.7 108.8 177.1 108.7 177.6 108.8C178.1 108.9 178.6 108.6 179.1 108.7C179.6 108.8 179.9 109.2 180.4 109.4C180.9 109.5 181.4 109.4 181.9 109.6C182.3 109.8 182.8 110 183.2 110.2C183.6 110.4 184.1 110.6 184.5 110.8C184.9 111 185.3 111.3 185.7 111.5C186.1 111.7 186.4 112.1 186.8 112.4C187.2 112.7 187.6 112.9 188 113.1C188.4 113.4 188.9 113.5 189.3 113.8C189.7 114.1 189.8 114.6 190.2 115C190.6 115.3 191.1 115.4 191.5 115.7C191.8 116 191.9 116.6 192.2 117C192.5 117.3 193.1 117.5 193.4 117.8C193.7 118.2 194 118.5 194.3 118.9C194.6 119.3 194.8 119.7 195.1 120.1C195.4 120.5 195.7 120.8 196 121.2C196.3 121.6 196.3 122.1 196.5 122.5C196.7 122.9 197 123.3 197.2 123.7C197.4 124.1 197.5 124.6 197.7 125C197.9 125.4 197.9 125.9 198.1 126.4C198.3 126.8 198.6 127.2 198.8 127.7C198.9 128.1 198.9 128.6 199 129.1C199.1 129.6 199.5 130 199.6 130.4C199.7 130.9 199.9 131.3 200 131.8C200.1 132.3 199.6 132.8 199.7 133.3C199.7 133.8 200.2 134.2 200.2 134.7C200.2 135.2 200 135.6 200 136.1C200 136.6 199.9 137 199.9 137.5C199.9 138 200 138.5 200 138.9C200 139.4 200.2 139.9 200.1 140.3C200 140.8 199.7 141.2 199.6 141.7C199.5 142.2 199.2 142.6 199.1 143C199 143.5 199.3 144.1 199.2 144.5C199.1 145 198.5 145.3 198.3 145.7C198.1 146.1 198.1 146.6 197.9 147C197.7 147.4 197.4 147.8 197.2 148.2C197 148.6 197.1 149.2 196.9 149.6C196.7 150 196.1 150.2 195.9 150.6C195.6 151 195.5 151.5 195.2 151.9C194.9 152.3 194.9 152.9 194.6 153.2C194.3 153.6 193.8 153.8 193.5 154.1C193.2 154.5 193 154.9 192.6 155.2C192.3 155.5 191.9 155.8 191.5 156.1C191.2 156.4 190.8 156.7 190.4 157C190 157.3 189.6 157.5 189.2 157.8C188.8 158.1 188.5 158.4 188.1 158.6C187.7 158.9 187.3 159.1 186.9 159.3C186.5 159.6 186.1 159.8 185.7 160.1C185.3 160.3 185 160.7 184.5 160.9C184.1 161.1 183.7 161.5 183.3 161.7C182.9 161.9 182.4 162.1 182 162.3C181.6 162.5 181 162.4 180.6 162.6C180.2 162.7 179.7 163.1 179.3 163.2C178.8 163.3 178.4 163.3 177.9 163.4C177.4 163.5 176.9 163.4 176.5 163.5C176 163.6 175.5 163.5 175.1 163.5C174.6 163.5 174.2 163.7 173.7 163.8C173.2 163.8 172.8 163.6 172.3 163.6C171.8 163.6 171.3 164.1 170.9 164C170.4 164 170 163.4 169.5 163.4C169 163.4 168.5 163.7 168 163.7C167.5 163.6 167.1 163.3 166.6 163.2C166.1 163.1 165.6 163.2 165.2 163.1C164.7 163 164.4 162.5 163.9 162.4C163.4 162.3 163 162.2 162.5 162C162.1 161.8 161.7 161.6 161.2 161.4C160.8 161.2 160.3 161 159.9 160.8C159.5 160.6 158.9 160.6 158.5 160.4C158.1 160.2 157.6 160 157.2 159.7C156.8 159.4 156.7 158.8 156.3 158.5C155.9 158.2 155.4 158.1 155 157.8C154.6 157.5 154.2 157.3 153.8 157C153.4 156.7 153.1 156.3 152.8 156C152.5 155.7 152 155.5 151.7 155.1C151.4 154.8 151.2 154.3 150.9 153.9C150.6 153.5 150.2 153.3 149.9 152.9C149.6 152.5 149.7 151.9 149.4 151.5C149.1 151.1 148.8 150.8 148.5 150.4C148.2 150 148.2 149.5 148 149.1C147.8 148.7 147.6 148.3 147.4 147.8C147.2 147.4 146.9 147 146.7 146.6C146.5 146.2 146.1 145.8 146 145.4C145.8 145 146 144.4 145.9 144C145.8 143.6 145.5 143.1 145.4 142.7C145.3 142.2 145 141.8 144.9 141.4C144.8 140.9 144.6 140.5 144.6 140C144.5 139.5 144.8 139 144.8 138.6C144.8 138.1 144.6 137.7 144.5 137.2C144.5 136.7 144.6 136.3 144.6 135.8C144.6 135.3 144.3 134.8 144.3 134.4C144.3 133.9 144.2 133.4 144.3 133C144.3 132.5 144.8 132.1 144.9 131.6C145 131.1 144.8 130.6 144.9 130.2C145 129.7 145.4 129.4 145.6 128.9C145.7 128.4 145.7 128 145.9 127.5C146 127 146.2 126.6 146.3 126.1C146.5 125.7 146.7 125.2 146.9 124.8C147.1 124.4 147.1 123.9 147.3 123.4C147.5 123 148 122.7 148.2 122.3C148.4 121.9 148.4 121.3 148.7 120.9C149 120.5 149.4 120.3 149.7 119.9C150 119.5 149.9 118.9 150.2 118.5C150.5 118.1 150.8 117.8 151.1 117.4C151.4 117 151.9 116.9 152.2 116.5C152.5 116.2 153 115.9 153.3 115.6C153.6 115.3 153.8 114.8 154.2 114.5C154.6 114.2 155 113.9 155.3 113.6C155.7 113.3 155.9 112.8 156.3 112.5C156.7 112.2 157.2 112.2 157.6 111.9C158 111.6 158.3 111.2 158.7 111C159.1 110.8 159.5 110.5 160 110.3C160.4 110.1 160.9 109.9 161.3 109.7C161.7 109.5 162.2 109.4 162.6 109.2C163 109 163.6 109.1 164 109C164.4 108.9 164.8 108.4 165.3 108.2C165.8 108.1 166.2 108 166.7 107.9C167.2 107.8 167.7 107.8 168.1 107.8C168.6 107.7 169.1 108 169.5 107.9C170 107.9 170.4 107.7 170.9 107.7C171.1 108.2 171.5 107.9 172 107.9Z" fill="white"/>
<path d="M191.8 116.2C192.1 116.5 192.4 117 192.8 117.4C193.1 117.8 193.2 118.3 193.5 118.7C193.8 119.1 194.3 119.3 194.6 119.7C194.9 120.1 195.1 120.5 195.4 120.9C195.7 121.3 196 121.7 196.2 122.1C196.4 122.5 196.8 122.9 197 123.3C197.2 123.7 197.2 124.3 197.4 124.7C197.6 125.1 198.2 125.4 198.4 125.9C198.6 126.4 198.5 126.9 198.6 127.4C198.8 127.9 199.2 128.2 199.4 128.7C199.5 129.2 199.1 129.8 199.2 130.2C199.3 130.7 199.8 131.1 199.9 131.6C200 132.1 200 132.6 200 133.1C200.1 133.6 199.9 134.1 200 134.6C200 135.1 200.2 135.6 200.2 136.1C200.2 136.6 200.1 137.1 200.1 137.6C200.1 138.1 200.2 138.6 200.2 139.1C200.1 139.6 199.8 140 199.7 140.5C199.6 141 200.1 141.6 200 142C199.9 142.5 199.6 142.9 199.4 143.4C199.3 143.9 199.1 144.3 198.9 144.8C198.7 145.3 198.5 145.7 198.4 146.2C198.2 146.7 198.1 147.1 197.9 147.6C197.7 148 197.3 148.4 197.1 148.8C196.9 149.2 196.6 149.6 196.3 150C196.1 150.4 196.1 151 195.8 151.4C195.5 151.8 194.8 151.9 194.5 152.3C194.2 152.7 194.3 153.4 194 153.8C193.7 154.2 193.3 154.5 193 154.8C192.7 155.2 192.3 155.5 192 155.8C191.7 156.1 191.3 156.5 191 156.8C190.6 157.1 190.4 157.6 190 157.9C189.6 158.2 189.3 158.7 188.9 158.9C188.5 159.2 188 159.3 187.6 159.6C187.2 159.9 186.7 160 186.3 160.3C185.9 160.5 185.4 160.7 185 160.9C184.6 161.1 184.1 161.2 183.6 161.4C183.2 161.6 182.9 162.3 182.4 162.5C181.9 162.7 181.4 162.6 180.9 162.8C180.4 163 179.9 162.8 179.4 163C178.9 163.1 178.5 163.6 178.1 163.7C177.6 163.8 177.1 163.6 176.6 163.7C176.1 163.8 175.6 163.8 175.1 163.9C174.6 164 174.2 164.5 173.7 164.5C173.2 164.5 172.7 164.1 172.2 164.1C171.7 164.1 171.2 164 170.7 164C170.2 164 169.7 164 169.2 163.9C168.7 163.8 168.2 163.9 167.7 163.8C167.2 163.7 166.8 163.5 166.3 163.4C165.8 163.3 165.3 163.3 164.9 163.2C164.4 163.1 163.9 163.1 163.4 163C162.9 162.8 162.5 162.7 162 162.5C161.5 162.3 161.2 162 160.7 161.8C160.3 161.6 159.9 161.3 159.4 161C159 160.8 158.5 160.6 158.1 160.3C157.7 160.1 157.2 159.9 156.8 159.6C156.4 159.3 155.9 159.2 155.5 158.9C155.1 158.6 154.6 158.4 154.2 158.1C153.8 157.8 153.8 157.1 153.4 156.8C153 156.5 152.3 156.2 151.9 155.9C152.2 155.2 152.8 155.6 153.3 155.1C153.8 154.6 153.6 154.4 154.2 153.9C154.7 153.4 154.7 153.3 155.2 152.8C155.7 152.3 156 152.5 156.5 152C157 151.5 156.7 151.1 157.2 150.6C157.7 150.1 157.8 150.1 158.3 149.6C158.8 149.1 158.9 149.1 159.4 148.6C159.9 148.1 160.3 148.4 160.8 147.9C161.3 147.4 161.2 147.3 161.7 146.8C162.2 146.3 162.2 146.2 162.7 145.7C163.2 145.2 163.2 145.2 163.7 144.7C164.2 144.2 164.3 144.2 164.8 143.7C165.3 143.2 165.2 143.1 165.7 142.5C166.2 142 166.1 141.9 166.6 141.3C167.1 140.8 167 140.7 167.5 140.2C168 139.7 168.1 139.8 168.7 139.3C169.2 138.8 169.2 138.8 169.7 138.2C170.2 137.7 170 137.5 170.6 137C171.2 136.5 171.3 136.7 171.9 136.2C172.4 135.7 172.2 135.5 172.7 135C173.2 134.5 173.4 134.7 174 134.2C174.5 133.7 174.5 133.7 175 133.1C175.5 132.6 175.6 132.6 176.1 132.1C176.6 131.6 176.4 131.4 177 130.9C177.5 130.4 177.5 130.3 178 129.8C178.5 129.3 178.7 129.5 179.2 129C179.7 128.5 179.8 128.6 180.3 128.1C180.8 127.6 180.8 127.6 181.4 127.1C181.9 126.6 181.7 126.3 182.2 125.8C182.7 125.3 182.9 125.5 183.4 125C183.9 124.5 183.7 124.2 184.2 123.7C184.7 123.2 184.9 123.4 185.4 122.9C185.9 122.4 185.9 122.3 186.4 121.8C186.9 121.3 186.9 121.3 187.4 120.8C187.9 120.3 188 120.3 188.5 119.8C189 119.3 188.7 118.9 189.2 118.4C189.7 117.9 190.1 118.2 190.6 117.6C191.3 116.7 191.1 116.5 191.8 116.2Z" fill="#0F1117"/>
</svg>
