<svg width="1440" height="900" viewBox="0 0 1440 900" fill="none" xmlns="http://www.w3.org/2000/svg"><rect width="1440" height="900" fill="#fff"/><rect x="400" y="452" width="640" height="48" rx="8" fill="#fff"/><path d="M446 482C449.545 482 451.545 479.795 451.545 476.159C451.545 472.545 449.545 470.364 446.159 470.364H442.409V482H446ZM443.818 480.75V471.614H446.068C448.795 471.614 450.182 473.341 450.182 476.159C450.182 479 448.795 480.75 445.909 480.75H443.818ZM457.226 482.182C458.999 482.182 460.295 481.295 460.704 479.977L459.408 479.614C459.067 480.523 458.278 480.977 457.226 480.977C455.653 480.977 454.567 479.96 454.505 478.091H460.84V477.523C460.84 474.273 458.908 473.159 457.09 473.159C454.726 473.159 453.158 475.023 453.158 477.705C453.158 480.386 454.704 482.182 457.226 482.182ZM454.505 476.932C454.596 475.574 455.556 474.364 457.09 474.364C458.545 474.364 459.476 475.455 459.476 476.932H454.505ZM468.902 475.227C468.481 473.989 467.538 473.159 465.811 473.159C463.97 473.159 462.606 474.205 462.606 475.682C462.606 476.886 463.322 477.693 464.924 478.068L466.379 478.409C467.26 478.614 467.674 479.034 467.674 479.636C467.674 480.386 466.879 481 465.629 481C464.532 481 463.845 480.528 463.606 479.591L462.333 479.909C462.646 481.392 463.868 482.182 465.652 482.182C467.68 482.182 469.061 481.074 469.061 479.568C469.061 478.352 468.299 477.585 466.743 477.205L465.447 476.886C464.413 476.631 463.947 476.284 463.947 475.614C463.947 474.864 464.743 474.318 465.811 474.318C466.981 474.318 467.464 474.966 467.697 475.568L468.902 475.227ZM470.919 482H472.26V473.273H470.919V482ZM471.601 471.818C472.124 471.818 472.556 471.409 472.556 470.909C472.556 470.409 472.124 470 471.601 470C471.078 470 470.646 470.409 470.646 470.909C470.646 471.409 471.078 471.818 471.601 471.818ZM478.079 485.455C480.17 485.455 481.851 484.5 481.851 482.25V473.273H480.556V474.659H480.42C480.124 474.205 479.579 473.159 477.874 473.159C475.67 473.159 474.147 474.909 474.147 477.591C474.147 480.318 475.738 481.864 477.851 481.864C479.556 481.864 480.101 480.864 480.397 480.386H480.511V482.159C480.511 483.614 479.488 484.273 478.079 484.273C476.494 484.273 475.937 483.438 475.579 482.955L474.511 483.705C475.056 484.619 476.13 485.455 478.079 485.455ZM478.033 480.659C476.351 480.659 475.488 479.386 475.488 477.568C475.488 475.795 476.329 474.364 478.033 474.364C479.67 474.364 480.533 475.682 480.533 477.568C480.533 479.5 479.647 480.659 478.033 480.659ZM485.487 476.75C485.487 475.227 486.43 474.364 487.714 474.364C488.959 474.364 489.714 475.176 489.714 476.545V482H491.055V476.455C491.055 474.227 489.868 473.159 488.101 473.159C486.782 473.159 485.964 473.75 485.555 474.636H485.441V473.273H484.146V482H485.487V476.75ZM501.481 473.273H499.617V471.182H498.276V473.273H496.958V474.409H498.276V479.864C498.276 481.386 499.504 482.114 500.64 482.114C501.14 482.114 501.458 482.023 501.64 481.955L501.367 480.75C501.254 480.773 501.072 480.818 500.776 480.818C500.185 480.818 499.617 480.636 499.617 479.5V474.409H501.481V473.273ZM504.866 476.75C504.866 475.227 505.838 474.364 507.162 474.364C508.423 474.364 509.184 475.159 509.184 476.545V482H510.525V476.455C510.525 474.21 509.332 473.159 507.548 473.159C506.173 473.159 505.389 473.733 504.98 474.636H504.866V470.364H503.525V482H504.866V476.75ZM516.478 482.182C518.25 482.182 519.546 481.295 519.955 479.977L518.659 479.614C518.319 480.523 517.529 480.977 516.478 480.977C514.904 480.977 513.819 479.96 513.756 478.091H520.091V477.523C520.091 474.273 518.159 473.159 516.341 473.159C513.978 473.159 512.409 475.023 512.409 477.705C512.409 480.386 513.955 482.182 516.478 482.182ZM513.756 476.932C513.847 475.574 514.807 474.364 516.341 474.364C517.796 474.364 518.728 475.455 518.728 476.932H513.756ZM529.856 482.182C531.788 482.182 533.061 481 533.288 479.455H531.947C531.697 480.409 530.902 480.977 529.856 480.977C528.266 480.977 527.243 479.659 527.243 477.636C527.243 475.659 528.288 474.364 529.856 474.364C531.038 474.364 531.743 475.091 531.947 475.886H533.288C533.061 474.25 531.675 473.159 529.834 473.159C527.47 473.159 525.902 475.023 525.902 477.682C525.902 480.295 527.402 482.182 529.856 482.182ZM536.429 476.75C536.429 475.227 537.401 474.364 538.725 474.364C539.986 474.364 540.748 475.159 540.748 476.545V482H542.089V476.455C542.089 474.21 540.895 473.159 539.111 473.159C537.736 473.159 536.952 473.733 536.543 474.636H536.429V470.364H535.089V482H536.429V476.75ZM548.041 482.182C549.813 482.182 551.109 481.295 551.518 479.977L550.223 479.614C549.882 480.523 549.092 480.977 548.041 480.977C546.467 480.977 545.382 479.96 545.319 478.091H551.654V477.523C551.654 474.273 549.723 473.159 547.904 473.159C545.541 473.159 543.973 475.023 543.973 477.705C543.973 480.386 545.518 482.182 548.041 482.182ZM545.319 476.932C545.41 475.574 546.37 474.364 547.904 474.364C549.359 474.364 550.291 475.455 550.291 476.932H545.319ZM557.08 482.182C559.011 482.182 560.284 481 560.511 479.455H559.171C558.921 480.409 558.125 480.977 557.08 480.977C555.489 480.977 554.466 479.659 554.466 477.636C554.466 475.659 555.511 474.364 557.08 474.364C558.261 474.364 558.966 475.091 559.171 475.886H560.511C560.284 474.25 558.898 473.159 557.057 473.159C554.693 473.159 553.125 475.023 553.125 477.682C553.125 480.295 554.625 482.182 557.08 482.182ZM562.312 482H563.653V478.733L564.59 477.864L567.857 482H569.562L565.601 477L569.289 473.273H567.63L563.812 477.159H563.653V470.364H562.312V482ZM574.154 482.182C575.927 482.182 577.223 481.295 577.632 479.977L576.336 479.614C575.995 480.523 575.206 480.977 574.154 480.977C572.581 480.977 571.495 479.96 571.433 478.091H577.768V477.523C577.768 474.273 575.836 473.159 574.018 473.159C571.654 473.159 570.086 475.023 570.086 477.705C570.086 480.386 571.632 482.182 574.154 482.182ZM571.433 476.932C571.524 475.574 572.484 474.364 574.018 474.364C575.473 474.364 576.404 475.455 576.404 476.932H571.433ZM582.943 482.182C584.625 482.182 585.193 481.136 585.489 480.659H585.648V482H586.943V470.364H585.602V474.659H585.489C585.193 474.205 584.671 473.159 582.966 473.159C580.762 473.159 579.239 474.909 579.239 477.659C579.239 480.432 580.762 482.182 582.943 482.182ZM583.125 480.977C581.443 480.977 580.58 479.5 580.58 477.636C580.58 475.795 581.421 474.364 583.125 474.364C584.762 474.364 585.625 475.682 585.625 477.636C585.625 479.614 584.739 480.977 583.125 480.977ZM594.425 476.386H589.334V477.636H594.425V476.386ZM600.17 482.182C602.534 482.182 604.125 480.386 604.125 477.682C604.125 474.955 602.534 473.159 600.17 473.159C597.807 473.159 596.216 474.955 596.216 477.682C596.216 480.386 597.807 482.182 600.17 482.182ZM600.17 480.977C598.375 480.977 597.557 479.432 597.557 477.682C597.557 475.932 598.375 474.364 600.17 474.364C601.966 474.364 602.784 475.932 602.784 477.682C602.784 479.432 601.966 480.977 600.17 480.977ZM609.898 473.273H607.943V472.386C607.943 471.523 608.307 471.068 609.193 471.068C609.58 471.068 609.807 471.159 609.943 471.205L610.33 470.045C610.125 469.955 609.716 469.818 609.057 469.818C607.807 469.818 606.603 470.568 606.603 472.068V473.273H605.193V474.409H606.603V482H607.943V474.409H609.898V473.273ZM615.504 473.273H613.549V472.386C613.549 471.523 613.913 471.068 614.799 471.068C615.185 471.068 615.413 471.159 615.549 471.205L615.935 470.045C615.731 469.955 615.322 469.818 614.663 469.818C613.413 469.818 612.208 470.568 612.208 472.068V473.273H610.799V474.409H612.208V482H613.549V474.409H615.504V473.273ZM627.745 475.227C627.324 473.989 626.381 473.159 624.654 473.159C622.813 473.159 621.449 474.205 621.449 475.682C621.449 476.886 622.165 477.693 623.767 478.068L625.222 478.409C626.103 478.614 626.517 479.034 626.517 479.636C626.517 480.386 625.722 481 624.472 481C623.375 481 622.688 480.528 622.449 479.591L621.177 479.909C621.489 481.392 622.711 482.182 624.495 482.182C626.523 482.182 627.904 481.074 627.904 479.568C627.904 478.352 627.142 477.585 625.586 477.205L624.29 476.886C623.256 476.631 622.79 476.284 622.79 475.614C622.79 474.864 623.586 474.318 624.654 474.318C625.824 474.318 626.307 474.966 626.54 475.568L627.745 475.227ZM633.558 473.273H631.694V471.182H630.353V473.273H629.035V474.409H630.353V479.864C630.353 481.386 631.58 482.114 632.717 482.114C633.217 482.114 633.535 482.023 633.717 481.955L633.444 480.75C633.33 480.773 633.149 480.818 632.853 480.818C632.262 480.818 631.694 480.636 631.694 479.5V474.409H633.558V473.273ZM637.983 482.205C639.506 482.205 640.301 481.386 640.574 480.818H640.642V482H641.983V476.25C641.983 473.477 639.869 473.159 638.756 473.159C637.438 473.159 635.938 473.614 635.256 475.205L636.528 475.659C636.824 475.023 637.523 474.341 638.801 474.341C640.034 474.341 640.642 474.994 640.642 476.114V476.159C640.642 476.807 639.983 476.75 638.392 476.955C636.773 477.165 635.006 477.523 635.006 479.523C635.006 481.227 636.324 482.205 637.983 482.205ZM638.188 481C637.119 481 636.347 480.523 636.347 479.591C636.347 478.568 637.278 478.25 638.324 478.114C638.892 478.045 640.415 477.886 640.642 477.614V478.841C640.642 479.932 639.778 481 638.188 481ZM648.066 473.273H646.202V471.182H644.861V473.273H643.543V474.409H644.861V479.864C644.861 481.386 646.089 482.114 647.225 482.114C647.725 482.114 648.043 482.023 648.225 481.955L647.952 480.75C647.839 480.773 647.657 480.818 647.361 480.818C646.77 480.818 646.202 480.636 646.202 479.5V474.409H648.066V473.273ZM653.488 482.182C655.261 482.182 656.556 481.295 656.966 479.977L655.67 479.614C655.329 480.523 654.539 480.977 653.488 480.977C651.914 480.977 650.829 479.96 650.767 478.091H657.102V477.523C657.102 474.273 655.17 473.159 653.352 473.159C650.988 473.159 649.42 475.023 649.42 477.705C649.42 480.386 650.966 482.182 653.488 482.182ZM650.767 476.932C650.858 475.574 651.818 474.364 653.352 474.364C654.806 474.364 655.738 475.455 655.738 476.932H650.767Z" fill="#42444E"/><rect opacity=".64" x="441" y="476" width="217" height="2" fill="#A1A7B3"/><rect x="416" y="468" width="16" height="16" rx="4" fill="#3700FF"/><path d="M421.25 476L423.5 478L427 474" stroke="#fff" stroke-width="1.5" stroke-linecap="round" stroke-linejoin="round"/><rect x="400" y="500" width="640" height="48" rx="8" fill="#fff"/><path d="M446 530C449.545 530 451.545 527.795 451.545 524.159C451.545 520.545 449.545 518.364 446.159 518.364H442.409V530H446ZM443.818 528.75V519.614H446.068C448.795 519.614 450.182 521.341 450.182 524.159C450.182 527 448.795 528.75 445.909 528.75H443.818ZM457.226 530.182C458.999 530.182 460.295 529.295 460.704 527.977L459.408 527.614C459.067 528.523 458.278 528.977 457.226 528.977C455.653 528.977 454.567 527.96 454.505 526.091H460.84V525.523C460.84 522.273 458.908 521.159 457.09 521.159C454.726 521.159 453.158 523.023 453.158 525.705C453.158 528.386 454.704 530.182 457.226 530.182ZM454.505 524.932C454.596 523.574 455.556 522.364 457.09 522.364C458.545 522.364 459.476 523.455 459.476 524.932H454.505ZM468.902 523.227C468.481 521.989 467.538 521.159 465.811 521.159C463.97 521.159 462.606 522.205 462.606 523.682C462.606 524.886 463.322 525.693 464.924 526.068L466.379 526.409C467.26 526.614 467.674 527.034 467.674 527.636C467.674 528.386 466.879 529 465.629 529C464.532 529 463.845 528.528 463.606 527.591L462.333 527.909C462.646 529.392 463.868 530.182 465.652 530.182C467.68 530.182 469.061 529.074 469.061 527.568C469.061 526.352 468.299 525.585 466.743 525.205L465.447 524.886C464.413 524.631 463.947 524.284 463.947 523.614C463.947 522.864 464.743 522.318 465.811 522.318C466.981 522.318 467.464 522.966 467.697 523.568L468.902 523.227ZM470.919 530H472.26V521.273H470.919V530ZM471.601 519.818C472.124 519.818 472.556 519.409 472.556 518.909C472.556 518.409 472.124 518 471.601 518C471.078 518 470.646 518.409 470.646 518.909C470.646 519.409 471.078 519.818 471.601 519.818ZM478.079 533.455C480.17 533.455 481.851 532.5 481.851 530.25V521.273H480.556V522.659H480.42C480.124 522.205 479.579 521.159 477.874 521.159C475.67 521.159 474.147 522.909 474.147 525.591C474.147 528.318 475.738 529.864 477.851 529.864C479.556 529.864 480.101 528.864 480.397 528.386H480.511V530.159C480.511 531.614 479.488 532.273 478.079 532.273C476.494 532.273 475.937 531.438 475.579 530.955L474.511 531.705C475.056 532.619 476.13 533.455 478.079 533.455ZM478.033 528.659C476.351 528.659 475.488 527.386 475.488 525.568C475.488 523.795 476.329 522.364 478.033 522.364C479.67 522.364 480.533 523.682 480.533 525.568C480.533 527.5 479.647 528.659 478.033 528.659ZM485.487 524.75C485.487 523.227 486.43 522.364 487.714 522.364C488.959 522.364 489.714 523.176 489.714 524.545V530H491.055V524.455C491.055 522.227 489.868 521.159 488.101 521.159C486.782 521.159 485.964 521.75 485.555 522.636H485.441V521.273H484.146V530H485.487V524.75ZM501.481 521.273H499.617V519.182H498.276V521.273H496.958V522.409H498.276V527.864C498.276 529.386 499.504 530.114 500.64 530.114C501.14 530.114 501.458 530.023 501.64 529.955L501.367 528.75C501.254 528.773 501.072 528.818 500.776 528.818C500.185 528.818 499.617 528.636 499.617 527.5V522.409H501.481V521.273ZM504.866 524.75C504.866 523.227 505.838 522.364 507.162 522.364C508.423 522.364 509.184 523.159 509.184 524.545V530H510.525V524.455C510.525 522.21 509.332 521.159 507.548 521.159C506.173 521.159 505.389 521.733 504.98 522.636H504.866V518.364H503.525V530H504.866V524.75ZM516.478 530.182C518.25 530.182 519.546 529.295 519.955 527.977L518.659 527.614C518.319 528.523 517.529 528.977 516.478 528.977C514.904 528.977 513.819 527.96 513.756 526.091H520.091V525.523C520.091 522.273 518.159 521.159 516.341 521.159C513.978 521.159 512.409 523.023 512.409 525.705C512.409 528.386 513.955 530.182 516.478 530.182ZM513.756 524.932C513.847 523.574 514.807 522.364 516.341 522.364C517.796 522.364 518.728 523.455 518.728 524.932H513.756ZM529.856 530.182C531.788 530.182 533.061 529 533.288 527.455H531.947C531.697 528.409 530.902 528.977 529.856 528.977C528.266 528.977 527.243 527.659 527.243 525.636C527.243 523.659 528.288 522.364 529.856 522.364C531.038 522.364 531.743 523.091 531.947 523.886H533.288C533.061 522.25 531.675 521.159 529.834 521.159C527.47 521.159 525.902 523.023 525.902 525.682C525.902 528.295 527.402 530.182 529.856 530.182ZM536.429 524.75C536.429 523.227 537.401 522.364 538.725 522.364C539.986 522.364 540.748 523.159 540.748 524.545V530H542.089V524.455C542.089 522.21 540.895 521.159 539.111 521.159C537.736 521.159 536.952 521.733 536.543 522.636H536.429V518.364H535.089V530H536.429V524.75ZM548.041 530.182C549.813 530.182 551.109 529.295 551.518 527.977L550.223 527.614C549.882 528.523 549.092 528.977 548.041 528.977C546.467 528.977 545.382 527.96 545.319 526.091H551.654V525.523C551.654 522.273 549.723 521.159 547.904 521.159C545.541 521.159 543.973 523.023 543.973 525.705C543.973 528.386 545.518 530.182 548.041 530.182ZM545.319 524.932C545.41 523.574 546.37 522.364 547.904 522.364C549.359 522.364 550.291 523.455 550.291 524.932H545.319ZM557.08 530.182C559.011 530.182 560.284 529 560.511 527.455H559.171C558.921 528.409 558.125 528.977 557.08 528.977C555.489 528.977 554.466 527.659 554.466 525.636C554.466 523.659 555.511 522.364 557.08 522.364C558.261 522.364 558.966 523.091 559.171 523.886H560.511C560.284 522.25 558.898 521.159 557.057 521.159C554.693 521.159 553.125 523.023 553.125 525.682C553.125 528.295 554.625 530.182 557.08 530.182ZM562.312 530H563.653V526.733L564.59 525.864L567.857 530H569.562L565.601 525L569.289 521.273H567.63L563.812 525.159H563.653V518.364H562.312V530ZM574.154 530.182C575.927 530.182 577.223 529.295 577.632 527.977L576.336 527.614C575.995 528.523 575.206 528.977 574.154 528.977C572.581 528.977 571.495 527.96 571.433 526.091H577.768V525.523C577.768 522.273 575.836 521.159 574.018 521.159C571.654 521.159 570.086 523.023 570.086 525.705C570.086 528.386 571.632 530.182 574.154 530.182ZM571.433 524.932C571.524 523.574 572.484 522.364 574.018 522.364C575.473 522.364 576.404 523.455 576.404 524.932H571.433ZM582.943 530.182C584.625 530.182 585.193 529.136 585.489 528.659H585.648V530H586.943V518.364H585.602V522.659H585.489C585.193 522.205 584.671 521.159 582.966 521.159C580.762 521.159 579.239 522.909 579.239 525.659C579.239 528.432 580.762 530.182 582.943 530.182ZM583.125 528.977C581.443 528.977 580.58 527.5 580.58 525.636C580.58 523.795 581.421 522.364 583.125 522.364C584.762 522.364 585.625 523.682 585.625 525.636C585.625 527.614 584.739 528.977 583.125 528.977ZM594.425 524.386H589.334V525.636H594.425V524.386ZM600.17 530.182C602.534 530.182 604.125 528.386 604.125 525.682C604.125 522.955 602.534 521.159 600.17 521.159C597.807 521.159 596.216 522.955 596.216 525.682C596.216 528.386 597.807 530.182 600.17 530.182ZM600.17 528.977C598.375 528.977 597.557 527.432 597.557 525.682C597.557 523.932 598.375 522.364 600.17 522.364C601.966 522.364 602.784 523.932 602.784 525.682C602.784 527.432 601.966 528.977 600.17 528.977ZM609.898 521.273H607.943V520.386C607.943 519.523 608.307 519.068 609.193 519.068C609.58 519.068 609.807 519.159 609.943 519.205L610.33 518.045C610.125 517.955 609.716 517.818 609.057 517.818C607.807 517.818 606.603 518.568 606.603 520.068V521.273H605.193V522.409H606.603V530H607.943V522.409H609.898V521.273ZM615.504 521.273H613.549V520.386C613.549 519.523 613.913 519.068 614.799 519.068C615.185 519.068 615.413 519.159 615.549 519.205L615.935 518.045C615.731 517.955 615.322 517.818 614.663 517.818C613.413 517.818 612.208 518.568 612.208 520.068V521.273H610.799V522.409H612.208V530H613.549V522.409H615.504V521.273ZM627.745 523.227C627.324 521.989 626.381 521.159 624.654 521.159C622.813 521.159 621.449 522.205 621.449 523.682C621.449 524.886 622.165 525.693 623.767 526.068L625.222 526.409C626.103 526.614 626.517 527.034 626.517 527.636C626.517 528.386 625.722 529 624.472 529C623.375 529 622.688 528.528 622.449 527.591L621.177 527.909C621.489 529.392 622.711 530.182 624.495 530.182C626.523 530.182 627.904 529.074 627.904 527.568C627.904 526.352 627.142 525.585 625.586 525.205L624.29 524.886C623.256 524.631 622.79 524.284 622.79 523.614C622.79 522.864 623.586 522.318 624.654 522.318C625.824 522.318 626.307 522.966 626.54 523.568L627.745 523.227ZM633.558 521.273H631.694V519.182H630.353V521.273H629.035V522.409H630.353V527.864C630.353 529.386 631.58 530.114 632.717 530.114C633.217 530.114 633.535 530.023 633.717 529.955L633.444 528.75C633.33 528.773 633.149 528.818 632.853 528.818C632.262 528.818 631.694 528.636 631.694 527.5V522.409H633.558V521.273ZM637.983 530.205C639.506 530.205 640.301 529.386 640.574 528.818H640.642V530H641.983V524.25C641.983 521.477 639.869 521.159 638.756 521.159C637.438 521.159 635.938 521.614 635.256 523.205L636.528 523.659C636.824 523.023 637.523 522.341 638.801 522.341C640.034 522.341 640.642 522.994 640.642 524.114V524.159C640.642 524.807 639.983 524.75 638.392 524.955C636.773 525.165 635.006 525.523 635.006 527.523C635.006 529.227 636.324 530.205 637.983 530.205ZM638.188 529C637.119 529 636.347 528.523 636.347 527.591C636.347 526.568 637.278 526.25 638.324 526.114C638.892 526.045 640.415 525.886 640.642 525.614V526.841C640.642 527.932 639.778 529 638.188 529ZM648.066 521.273H646.202V519.182H644.861V521.273H643.543V522.409H644.861V527.864C644.861 529.386 646.089 530.114 647.225 530.114C647.725 530.114 648.043 530.023 648.225 529.955L647.952 528.75C647.839 528.773 647.657 528.818 647.361 528.818C646.77 528.818 646.202 528.636 646.202 527.5V522.409H648.066V521.273ZM653.488 530.182C655.261 530.182 656.556 529.295 656.966 527.977L655.67 527.614C655.329 528.523 654.539 528.977 653.488 528.977C651.914 528.977 650.829 527.96 650.767 526.091H657.102V525.523C657.102 522.273 655.17 521.159 653.352 521.159C650.988 521.159 649.42 523.023 649.42 525.705C649.42 528.386 650.966 530.182 653.488 530.182ZM650.767 524.932C650.858 523.574 651.818 522.364 653.352 522.364C654.806 522.364 655.738 523.455 655.738 524.932H650.767Z" fill="#42444E"/><rect opacity=".64" x="441" y="524" width="217" height="2" fill="#A1A7B3"/><rect x="416" y="516" width="16" height="16" rx="4" fill="#3700FF"/><path d="M421.25 524L423.5 526L427 522" stroke="#fff" stroke-width="1.5" stroke-linecap="round" stroke-linejoin="round"/><rect x="400" y="548" width="640" height="48" rx="8" fill="#fff"/><path d="M446 578C449.545 578 451.545 575.795 451.545 572.159C451.545 568.545 449.545 566.364 446.159 566.364H442.409V578H446ZM443.818 576.75V567.614H446.068C448.795 567.614 450.182 569.341 450.182 572.159C450.182 575 448.795 576.75 445.909 576.75H443.818ZM457.226 578.182C458.999 578.182 460.295 577.295 460.704 575.977L459.408 575.614C459.067 576.523 458.278 576.977 457.226 576.977C455.653 576.977 454.567 575.96 454.505 574.091H460.84V573.523C460.84 570.273 458.908 569.159 457.09 569.159C454.726 569.159 453.158 571.023 453.158 573.705C453.158 576.386 454.704 578.182 457.226 578.182ZM454.505 572.932C454.596 571.574 455.556 570.364 457.09 570.364C458.545 570.364 459.476 571.455 459.476 572.932H454.505ZM468.902 571.227C468.481 569.989 467.538 569.159 465.811 569.159C463.97 569.159 462.606 570.205 462.606 571.682C462.606 572.886 463.322 573.693 464.924 574.068L466.379 574.409C467.26 574.614 467.674 575.034 467.674 575.636C467.674 576.386 466.879 577 465.629 577C464.532 577 463.845 576.528 463.606 575.591L462.333 575.909C462.646 577.392 463.868 578.182 465.652 578.182C467.68 578.182 469.061 577.074 469.061 575.568C469.061 574.352 468.299 573.585 466.743 573.205L465.447 572.886C464.413 572.631 463.947 572.284 463.947 571.614C463.947 570.864 464.743 570.318 465.811 570.318C466.981 570.318 467.464 570.966 467.697 571.568L468.902 571.227ZM470.919 578H472.26V569.273H470.919V578ZM471.601 567.818C472.124 567.818 472.556 567.409 472.556 566.909C472.556 566.409 472.124 566 471.601 566C471.078 566 470.646 566.409 470.646 566.909C470.646 567.409 471.078 567.818 471.601 567.818ZM478.079 581.455C480.17 581.455 481.851 580.5 481.851 578.25V569.273H480.556V570.659H480.42C480.124 570.205 479.579 569.159 477.874 569.159C475.67 569.159 474.147 570.909 474.147 573.591C474.147 576.318 475.738 577.864 477.851 577.864C479.556 577.864 480.101 576.864 480.397 576.386H480.511V578.159C480.511 579.614 479.488 580.273 478.079 580.273C476.494 580.273 475.937 579.438 475.579 578.955L474.511 579.705C475.056 580.619 476.13 581.455 478.079 581.455ZM478.033 576.659C476.351 576.659 475.488 575.386 475.488 573.568C475.488 571.795 476.329 570.364 478.033 570.364C479.67 570.364 480.533 571.682 480.533 573.568C480.533 575.5 479.647 576.659 478.033 576.659ZM485.487 572.75C485.487 571.227 486.43 570.364 487.714 570.364C488.959 570.364 489.714 571.176 489.714 572.545V578H491.055V572.455C491.055 570.227 489.868 569.159 488.101 569.159C486.782 569.159 485.964 569.75 485.555 570.636H485.441V569.273H484.146V578H485.487V572.75ZM501.481 569.273H499.617V567.182H498.276V569.273H496.958V570.409H498.276V575.864C498.276 577.386 499.504 578.114 500.64 578.114C501.14 578.114 501.458 578.023 501.64 577.955L501.367 576.75C501.254 576.773 501.072 576.818 500.776 576.818C500.185 576.818 499.617 576.636 499.617 575.5V570.409H501.481V569.273ZM504.866 572.75C504.866 571.227 505.838 570.364 507.162 570.364C508.423 570.364 509.184 571.159 509.184 572.545V578H510.525V572.455C510.525 570.21 509.332 569.159 507.548 569.159C506.173 569.159 505.389 569.733 504.98 570.636H504.866V566.364H503.525V578H504.866V572.75ZM516.478 578.182C518.25 578.182 519.546 577.295 519.955 575.977L518.659 575.614C518.319 576.523 517.529 576.977 516.478 576.977C514.904 576.977 513.819 575.96 513.756 574.091H520.091V573.523C520.091 570.273 518.159 569.159 516.341 569.159C513.978 569.159 512.409 571.023 512.409 573.705C512.409 576.386 513.955 578.182 516.478 578.182ZM513.756 572.932C513.847 571.574 514.807 570.364 516.341 570.364C517.796 570.364 518.728 571.455 518.728 572.932H513.756ZM529.606 578.182C531.288 578.182 531.856 577.136 532.152 576.659H532.311V578H533.606V566.364H532.266V570.659H532.152C531.856 570.205 531.334 569.159 529.629 569.159C527.425 569.159 525.902 570.909 525.902 573.659C525.902 576.432 527.425 578.182 529.606 578.182ZM529.788 576.977C528.106 576.977 527.243 575.5 527.243 573.636C527.243 571.795 528.084 570.364 529.788 570.364C531.425 570.364 532.288 571.682 532.288 573.636C532.288 575.614 531.402 576.977 529.788 576.977ZM539.748 578.182C541.52 578.182 542.816 577.295 543.225 575.977L541.929 575.614C541.589 576.523 540.799 576.977 539.748 576.977C538.174 576.977 537.089 575.96 537.026 574.091H543.361V573.523C543.361 570.273 541.429 569.159 539.611 569.159C537.248 569.159 535.679 571.023 535.679 573.705C535.679 576.386 537.225 578.182 539.748 578.182ZM537.026 572.932C537.117 571.574 538.077 570.364 539.611 570.364C541.066 570.364 541.998 571.455 541.998 572.932H537.026ZM549.127 569.273H547.173V568.386C547.173 567.523 547.536 567.068 548.423 567.068C548.809 567.068 549.036 567.159 549.173 567.205L549.559 566.045C549.355 565.955 548.946 565.818 548.286 565.818C547.036 565.818 545.832 566.568 545.832 568.068V569.273H544.423V570.409H545.832V578H547.173V570.409H549.127V569.273ZM553.165 578.205C554.688 578.205 555.483 577.386 555.756 576.818H555.824V578H557.165V572.25C557.165 569.477 555.051 569.159 553.938 569.159C552.619 569.159 551.119 569.614 550.438 571.205L551.71 571.659C552.006 571.023 552.705 570.341 553.983 570.341C555.216 570.341 555.824 570.994 555.824 572.114V572.159C555.824 572.807 555.165 572.75 553.574 572.955C551.955 573.165 550.188 573.523 550.188 575.523C550.188 577.227 551.506 578.205 553.165 578.205ZM553.369 577C552.301 577 551.528 576.523 551.528 575.591C551.528 574.568 552.46 574.25 553.506 574.114C554.074 574.045 555.597 573.886 555.824 573.614V574.841C555.824 575.932 554.96 577 553.369 577ZM564.952 574.432C564.952 576.068 563.702 576.818 562.702 576.818C561.589 576.818 560.793 576 560.793 574.727V569.273H559.452V574.818C559.452 577.045 560.634 578.114 562.27 578.114C563.589 578.114 564.452 577.409 564.861 576.523H564.952V578H566.293V569.273H564.952V574.432ZM569.93 566.364H568.589V578H569.93V566.364ZM576.021 569.273H574.158V567.182H572.817V569.273H571.499V570.409H572.817V575.864C572.817 577.386 574.044 578.114 575.181 578.114C575.681 578.114 575.999 578.023 576.181 577.955L575.908 576.75C575.794 576.773 575.612 576.818 575.317 576.818C574.726 576.818 574.158 576.636 574.158 575.5V570.409H576.021V569.273ZM588.4 571.227C587.98 569.989 587.037 569.159 585.309 569.159C583.469 569.159 582.105 570.205 582.105 571.682C582.105 572.886 582.821 573.693 584.423 574.068L585.878 574.409C586.758 574.614 587.173 575.034 587.173 575.636C587.173 576.386 586.378 577 585.128 577C584.031 577 583.344 576.528 583.105 575.591L581.832 575.909C582.145 577.392 583.366 578.182 585.15 578.182C587.179 578.182 588.559 577.074 588.559 575.568C588.559 574.352 587.798 573.585 586.241 573.205L584.946 572.886C583.912 572.631 583.446 572.284 583.446 571.614C583.446 570.864 584.241 570.318 585.309 570.318C586.48 570.318 586.963 570.966 587.196 571.568L588.4 571.227ZM594.213 569.273H592.35V567.182H591.009V569.273H589.691V570.409H591.009V575.864C591.009 577.386 592.236 578.114 593.372 578.114C593.872 578.114 594.191 578.023 594.372 577.955L594.1 576.75C593.986 576.773 593.804 576.818 593.509 576.818C592.918 576.818 592.35 576.636 592.35 575.5V570.409H594.213V569.273ZM598.639 578.205C600.161 578.205 600.957 577.386 601.229 576.818H601.298V578H602.639V572.25C602.639 569.477 600.525 569.159 599.411 569.159C598.093 569.159 596.593 569.614 595.911 571.205L597.184 571.659C597.479 571.023 598.178 570.341 599.457 570.341C600.69 570.341 601.298 570.994 601.298 572.114V572.159C601.298 572.807 600.639 572.75 599.048 572.955C597.428 573.165 595.661 573.523 595.661 575.523C595.661 577.227 596.979 578.205 598.639 578.205ZM598.843 577C597.775 577 597.002 576.523 597.002 575.591C597.002 574.568 597.934 574.25 598.979 574.114C599.548 574.045 601.07 573.886 601.298 573.614V574.841C601.298 575.932 600.434 577 598.843 577ZM608.721 569.273H606.858V567.182H605.517V569.273H604.199V570.409H605.517V575.864C605.517 577.386 606.744 578.114 607.881 578.114C608.381 578.114 608.699 578.023 608.881 577.955L608.608 576.75C608.494 576.773 608.312 576.818 608.017 576.818C607.426 576.818 606.858 576.636 606.858 575.5V570.409H608.721V569.273ZM614.144 578.182C615.917 578.182 617.212 577.295 617.621 575.977L616.326 575.614C615.985 576.523 615.195 576.977 614.144 576.977C612.57 576.977 611.485 575.96 611.422 574.091H617.758V573.523C617.758 570.273 615.826 569.159 614.008 569.159C611.644 569.159 610.076 571.023 610.076 573.705C610.076 576.386 611.621 578.182 614.144 578.182ZM611.422 572.932C611.513 571.574 612.473 570.364 614.008 570.364C615.462 570.364 616.394 571.455 616.394 572.932H611.422Z" fill="#42444E"/><g filter="url(#filter0_d)"><rect x="416" y="564" width="16" height="16" rx="4" fill="#fff"/><rect x="416.5" y="564.5" width="15" height="15" rx="3.5" stroke="#C1C3CC"/></g><rect x="392" y="596" width="656" height="48" rx="8" fill="#FAFAFC"/><line x1="440.5" y1="610" x2="440.5" y2="630" stroke="#C1C3CC"/><path d="M444.523 626H445.977L448.545 616.727H448.636L451.205 626H452.659L455.841 614.364H454.409L451.977 623.841H451.864L449.386 614.364H447.795L445.318 623.841H445.205L442.773 614.364H441.341L444.523 626ZM456.708 626H458.049V620.477C458.049 619.295 458.981 618.432 460.253 618.432C460.611 618.432 460.981 618.5 461.072 618.523V617.159C460.918 617.148 460.566 617.136 460.367 617.136C459.322 617.136 458.412 617.727 458.094 618.591H458.003V617.273H456.708V626ZM462.501 626H463.842V617.273H462.501V626ZM463.183 615.818C463.706 615.818 464.137 615.409 464.137 614.909C464.137 614.409 463.706 614 463.183 614C462.66 614 462.228 614.409 462.228 614.909C462.228 615.409 462.66 615.818 463.183 615.818ZM469.933 617.273H468.07V615.182H466.729V617.273H465.411V618.409H466.729V623.864C466.729 625.386 467.956 626.114 469.092 626.114C469.592 626.114 469.911 626.023 470.092 625.955L469.82 624.75C469.706 624.773 469.524 624.818 469.229 624.818C468.638 624.818 468.07 624.636 468.07 623.5V618.409H469.933V617.273ZM475.356 626.182C477.128 626.182 478.424 625.295 478.833 623.977L477.538 623.614C477.197 624.523 476.407 624.977 475.356 624.977C473.782 624.977 472.697 623.96 472.634 622.091H478.969V621.523C478.969 618.273 477.038 617.159 475.219 617.159C472.856 617.159 471.288 619.023 471.288 621.705C471.288 624.386 472.833 626.182 475.356 626.182ZM472.634 620.932C472.725 619.574 473.685 618.364 475.219 618.364C476.674 618.364 477.606 619.455 477.606 620.932H472.634ZM486.053 629.25C487.263 629.25 488.121 628.608 488.621 627.273L492.337 617.295L490.871 617.273L488.462 624.227H488.371L485.962 617.273H484.507L487.735 626.045L487.485 626.727C487.007 628.034 486.394 628.159 485.416 627.909L485.076 629.091C485.212 629.159 485.598 629.25 486.053 629.25ZM497.184 626.182C499.548 626.182 501.139 624.386 501.139 621.682C501.139 618.955 499.548 617.159 497.184 617.159C494.82 617.159 493.229 618.955 493.229 621.682C493.229 624.386 494.82 626.182 497.184 626.182ZM497.184 624.977C495.389 624.977 494.57 623.432 494.57 621.682C494.57 619.932 495.389 618.364 497.184 618.364C498.979 618.364 499.798 619.932 499.798 621.682C499.798 623.432 498.979 624.977 497.184 624.977ZM508.525 622.432C508.525 624.068 507.275 624.818 506.275 624.818C505.162 624.818 504.366 624 504.366 622.727V617.273H503.025V622.818C503.025 625.045 504.207 626.114 505.844 626.114C507.162 626.114 508.025 625.409 508.434 624.523H508.525V626H509.866V617.273H508.525V622.432ZM512.162 626H513.503V620.477C513.503 619.295 514.435 618.432 515.708 618.432C516.066 618.432 516.435 618.5 516.526 618.523V617.159C516.372 617.148 516.02 617.136 515.821 617.136C514.776 617.136 513.867 617.727 513.549 618.591H513.458V617.273H512.162V626ZM526.091 617.273H524.227V615.182H522.886V617.273H521.568V618.409H522.886V623.864C522.886 625.386 524.114 626.114 525.25 626.114C525.75 626.114 526.068 626.023 526.25 625.955L525.977 624.75C525.864 624.773 525.682 624.818 525.386 624.818C524.795 624.818 524.227 624.636 524.227 623.5V618.409H526.091V617.273ZM531.4 626.182C533.763 626.182 535.354 624.386 535.354 621.682C535.354 618.955 533.763 617.159 531.4 617.159C529.036 617.159 527.445 618.955 527.445 621.682C527.445 624.386 529.036 626.182 531.4 626.182ZM531.4 624.977C529.604 624.977 528.786 623.432 528.786 621.682C528.786 619.932 529.604 618.364 531.4 618.364C533.195 618.364 534.013 619.932 534.013 621.682C534.013 623.432 533.195 624.977 531.4 624.977ZM544.876 626.182C546.558 626.182 547.126 625.136 547.422 624.659H547.581V626H548.876V614.364H547.536V618.659H547.422C547.126 618.205 546.604 617.159 544.899 617.159C542.695 617.159 541.172 618.909 541.172 621.659C541.172 624.432 542.695 626.182 544.876 626.182ZM545.058 624.977C543.376 624.977 542.513 623.5 542.513 621.636C542.513 619.795 543.354 618.364 545.058 618.364C546.695 618.364 547.558 619.682 547.558 621.636C547.558 623.614 546.672 624.977 545.058 624.977ZM554.904 626.182C557.268 626.182 558.859 624.386 558.859 621.682C558.859 618.955 557.268 617.159 554.904 617.159C552.54 617.159 550.949 618.955 550.949 621.682C550.949 624.386 552.54 626.182 554.904 626.182ZM554.904 624.977C553.109 624.977 552.29 623.432 552.29 621.682C552.29 619.932 553.109 618.364 554.904 618.364C556.699 618.364 557.518 619.932 557.518 621.682C557.518 623.432 556.699 624.977 554.904 624.977Z" fill="#C1C3CC"/><g filter="url(#filter1_d)"><rect x="416" y="612" width="16" height="16" rx="4" fill="#fff"/><rect x="416.5" y="612.5" width="15" height="15" rx="3.5" stroke="#C1C3CC"/></g><path d="M415.724 190.064V209H420.764V183.152H413.528L407.588 201.548L401.612 183.152H394.268V209H399.236V190.064L405.464 209H409.496L415.724 190.064ZM441.44 190.064H436.364L432.188 202.52L427.904 190.064H422.684L429.488 208.244L428.876 209.756C428.624 210.404 428.3 210.836 427.94 211.088C427.544 211.376 427.004 211.484 426.284 211.484C426.14 211.484 425.96 211.484 425.744 211.484C425.492 211.484 425.204 211.448 424.844 211.412V215.48C425.276 215.552 425.6 215.588 425.852 215.588C426.104 215.588 426.428 215.588 426.824 215.588C428.624 215.588 430.064 215.192 431.18 214.364C432.26 213.536 433.196 212.096 433.952 210.08L441.44 190.064ZM456.473 209.216C457.049 209.216 457.625 209.216 458.165 209.144C458.705 209.108 459.209 209.036 459.713 208.928V204.752C459.281 204.824 458.957 204.86 458.741 204.86C458.525 204.86 458.273 204.86 457.985 204.86C457.049 204.86 456.401 204.752 456.077 204.464C455.753 204.176 455.609 203.708 455.609 203.024V194.276H459.461V190.064H455.609V184.664H450.641V190.064H448.121V194.276H450.641V204.068C450.641 205.868 451.073 207.2 452.009 207.992C452.909 208.82 454.385 209.216 456.473 209.216ZM477.198 192.512C476.334 191.612 475.326 190.928 474.174 190.424C473.022 189.956 471.762 189.704 470.394 189.704C469.026 189.704 467.73 189.956 466.578 190.424C465.426 190.928 464.418 191.612 463.59 192.512C462.762 193.412 462.15 194.456 461.718 195.644C461.286 196.868 461.106 198.164 461.106 199.532C461.106 200.936 461.286 202.232 461.718 203.42C462.15 204.644 462.762 205.688 463.59 206.552C464.418 207.488 465.426 208.208 466.578 208.676C467.73 209.18 469.026 209.396 470.394 209.396C471.762 209.396 473.022 209.18 474.174 208.676C475.326 208.208 476.334 207.488 477.198 206.552C477.99 205.688 478.602 204.644 479.034 203.42C479.466 202.232 479.682 200.936 479.682 199.532C479.682 198.164 479.466 196.868 479.034 195.644C478.602 194.456 477.99 193.412 477.198 192.512ZM470.394 193.88C471.69 193.88 472.734 194.384 473.49 195.392C474.246 196.4 474.642 197.768 474.642 199.532C474.642 201.332 474.246 202.7 473.49 203.708C472.734 204.716 471.69 205.22 470.394 205.22C469.026 205.22 467.982 204.716 467.226 203.708C466.47 202.7 466.11 201.332 466.11 199.532C466.11 197.804 466.47 196.4 467.262 195.392C468.018 194.384 469.062 193.88 470.394 193.88ZM492.746 200.72V196.22H482.378V200.72H492.746ZM503.645 209.396C504.725 209.396 505.733 209.216 506.669 208.784C507.569 208.388 508.325 207.812 508.937 207.056V209H513.977V183.152H508.937V192.008C508.325 191.288 507.569 190.712 506.669 190.316C505.733 189.92 504.725 189.704 503.645 189.704C502.349 189.704 501.197 189.992 500.153 190.496C499.073 191 498.173 191.756 497.453 192.764C496.769 193.628 496.265 194.672 495.905 195.824C495.545 196.976 495.401 198.236 495.401 199.532C495.401 200.864 495.545 202.124 495.905 203.276C496.265 204.428 496.769 205.472 497.453 206.336C498.173 207.344 499.073 208.1 500.153 208.604C501.197 209.144 502.349 209.396 503.645 209.396ZM509.045 200.072C509.045 201.62 508.649 202.844 507.893 203.744C507.101 204.644 506.093 205.076 504.833 205.076C503.465 205.076 502.385 204.608 501.629 203.6C500.837 202.628 500.477 201.26 500.477 199.532C500.477 197.84 500.837 196.508 501.629 195.5C502.385 194.528 503.465 194.024 504.833 194.024C506.093 194.024 507.101 194.492 507.893 195.392C508.649 196.292 509.045 197.516 509.045 199.028V200.072ZM532.755 192.512C531.891 191.612 530.883 190.928 529.731 190.424C528.579 189.956 527.319 189.704 525.951 189.704C524.583 189.704 523.287 189.956 522.135 190.424C520.983 190.928 519.975 191.612 519.147 192.512C518.319 193.412 517.707 194.456 517.275 195.644C516.843 196.868 516.663 198.164 516.663 199.532C516.663 200.936 516.843 202.232 517.275 203.42C517.707 204.644 518.319 205.688 519.147 206.552C519.975 207.488 520.983 208.208 522.135 208.676C523.287 209.18 524.583 209.396 525.951 209.396C527.319 209.396 528.579 209.18 529.731 208.676C530.883 208.208 531.891 207.488 532.755 206.552C533.547 205.688 534.159 204.644 534.591 203.42C535.023 202.232 535.239 200.936 535.239 199.532C535.239 198.164 535.023 196.868 534.591 195.644C534.159 194.456 533.547 193.412 532.755 192.512ZM525.951 193.88C527.247 193.88 528.291 194.384 529.047 195.392C529.803 196.4 530.199 197.768 530.199 199.532C530.199 201.332 529.803 202.7 529.047 203.708C528.291 204.716 527.247 205.22 525.951 205.22C524.583 205.22 523.539 204.716 522.783 203.708C522.027 202.7 521.667 201.332 521.667 199.532C521.667 197.804 522.027 196.4 522.819 195.392C523.575 194.384 524.619 193.88 525.951 193.88ZM544.868 183.152V209H549.908V183.152H544.868ZM558.759 187.832V183.152H553.611V187.832H558.759ZM553.683 190.064V209H558.723V190.064H553.683ZM569.375 209.396C571.751 209.396 573.695 208.82 575.243 207.632C576.791 206.444 577.583 204.896 577.583 202.988C577.583 202.052 577.367 201.224 576.971 200.504C576.575 199.82 575.999 199.244 575.207 198.776C574.703 198.524 574.163 198.272 573.515 198.056C572.867 197.84 571.787 197.588 570.347 197.264C569.555 197.12 569.051 197.048 568.799 196.976C568.547 196.904 568.331 196.832 568.151 196.76C567.647 196.616 567.287 196.436 567.071 196.22C566.855 196.004 566.747 195.716 566.747 195.356C566.747 194.852 566.963 194.42 567.467 194.096C567.935 193.808 568.583 193.628 569.375 193.628C570.347 193.628 571.283 193.844 572.183 194.276C573.047 194.708 573.803 195.356 574.451 196.148L577.331 192.98C576.539 192.008 575.459 191.216 574.055 190.604C572.615 190.028 571.103 189.704 569.519 189.704C567.215 189.704 565.379 190.28 563.939 191.432C562.499 192.584 561.779 194.06 561.779 195.86C561.779 196.796 561.923 197.588 562.283 198.236C562.607 198.884 563.111 199.424 563.795 199.856C564.227 200.144 564.767 200.432 565.415 200.648C566.063 200.864 566.999 201.116 568.223 201.332C569.303 201.548 569.987 201.692 570.239 201.728C570.455 201.8 570.671 201.836 570.851 201.872C571.499 202.052 571.967 202.268 572.255 202.52C572.507 202.772 572.651 203.096 572.651 203.528C572.651 204.14 572.363 204.608 571.787 204.968C571.211 205.328 570.455 205.472 569.483 205.472C568.403 205.472 567.323 205.22 566.279 204.68C565.235 204.176 564.407 203.456 563.759 202.592L560.627 205.796C561.419 206.912 562.643 207.776 564.227 208.424C565.811 209.072 567.539 209.396 569.375 209.396ZM586.475 209.216C587.051 209.216 587.627 209.216 588.167 209.144C588.707 209.108 589.211 209.036 589.715 208.928V204.752C589.283 204.824 588.959 204.86 588.743 204.86C588.527 204.86 588.275 204.86 587.987 204.86C587.051 204.86 586.403 204.752 586.079 204.464C585.755 204.176 585.611 203.708 585.611 203.024V194.276H589.463V190.064H585.611V184.664H580.643V190.064H578.123V194.276H580.643V204.068C580.643 205.868 581.075 207.2 582.011 207.992C582.911 208.82 584.387 209.216 586.475 209.216Z" fill="#111215"/><g filter="url(#filter2_d)"><rect x="392" y="244" width="656" height="184" rx="8" fill="#fff"/><rect x="392.5" y="244.5" width="655" height="183" rx="7.5" stroke="#F0F0F5"/></g><path d="M422.672 275.493H424.153C424.109 273.862 422.667 272.679 420.599 272.679C418.555 272.679 416.989 273.847 416.989 275.602C416.989 277.019 418.004 277.849 419.639 278.292L420.842 278.62C421.931 278.908 422.771 279.266 422.771 280.171C422.771 281.165 421.822 281.822 420.514 281.822C419.331 281.822 418.347 281.295 418.257 280.186H416.716C416.815 282.031 418.242 283.169 420.524 283.169C422.915 283.169 424.293 281.911 424.293 280.186C424.293 278.352 422.657 277.641 421.364 277.322L420.37 277.064C419.575 276.86 418.516 276.487 418.521 275.513C418.521 274.648 419.311 274.006 420.564 274.006C421.732 274.006 422.562 274.553 422.672 275.493ZM427.356 278.466C427.356 277.248 428.126 276.552 429.185 276.552C430.209 276.552 430.821 277.203 430.821 278.322V283H432.307V278.143C432.307 276.239 431.263 275.264 429.692 275.264C428.504 275.264 427.788 275.781 427.43 276.607H427.336V272.818H425.869V283H427.356V278.466ZM436.373 283.169C437.636 283.169 438.347 282.528 438.63 281.956H438.69V283H440.142V277.929C440.142 275.707 438.392 275.264 437.179 275.264C435.797 275.264 434.524 275.821 434.027 277.213L435.424 277.531C435.642 276.989 436.199 276.467 437.199 276.467C438.158 276.467 438.65 276.969 438.65 277.835V277.869C438.65 278.411 438.093 278.401 436.721 278.56C435.275 278.729 433.793 279.107 433.793 280.842C433.793 282.344 434.922 283.169 436.373 283.169ZM436.696 281.976C435.856 281.976 435.25 281.598 435.25 280.862C435.25 280.067 435.956 279.783 436.816 279.669C437.298 279.604 438.441 279.475 438.655 279.261V280.246C438.655 281.151 437.934 281.976 436.696 281.976ZM441.982 283H443.468V278.337C443.468 277.337 444.239 276.616 445.293 276.616C445.601 276.616 445.949 276.671 446.068 276.706V275.284C445.919 275.264 445.626 275.249 445.437 275.249C444.542 275.249 443.776 275.756 443.498 276.577H443.418V275.364H441.982V283ZM450.232 283.154C451.898 283.154 453.076 282.334 453.414 281.091L452.007 280.837C451.739 281.558 451.093 281.926 450.247 281.926C448.975 281.926 448.12 281.101 448.08 279.629H453.509V279.102C453.509 276.343 451.858 275.264 450.128 275.264C448 275.264 446.598 276.885 446.598 279.232C446.598 281.603 447.98 283.154 450.232 283.154ZM448.085 278.516C448.144 277.432 448.93 276.492 450.138 276.492C451.291 276.492 452.047 277.347 452.052 278.516H448.085ZM459.523 285.844C460.751 285.844 461.531 285.202 461.969 284.019L465.126 275.379L463.52 275.364L461.586 281.29H461.506L459.572 275.364H457.982L460.776 283.099L460.592 283.607C460.214 284.596 459.682 284.685 458.866 284.462L458.509 285.68C458.688 285.764 459.075 285.844 459.523 285.844ZM469.33 283.154C471.482 283.154 472.889 281.578 472.889 279.217C472.889 276.84 471.482 275.264 469.33 275.264C467.177 275.264 465.77 276.84 465.77 279.217C465.77 281.578 467.177 283.154 469.33 283.154ZM469.335 281.906C467.928 281.906 467.271 280.678 467.271 279.212C467.271 277.75 467.928 276.507 469.335 276.507C470.732 276.507 471.388 277.75 471.388 279.212C471.388 280.678 470.732 281.906 469.335 281.906ZM479.246 279.833C479.251 281.131 478.286 281.747 477.451 281.747C476.531 281.747 475.895 281.081 475.895 280.042V275.364H474.409V280.221C474.409 282.115 475.448 283.099 476.914 283.099C478.063 283.099 478.843 282.493 479.196 281.678H479.276V283H480.737V275.364H479.246V279.833ZM482.595 283H484.081V278.337C484.081 277.337 484.852 276.616 485.906 276.616C486.214 276.616 486.562 276.671 486.681 276.706V275.284C486.532 275.264 486.239 275.249 486.05 275.249C485.155 275.249 484.39 275.756 484.111 276.577H484.032V275.364H482.595V283ZM494.958 275.364H493.391V273.534H491.905V275.364H490.786V276.557H491.905V281.066C491.9 282.453 492.959 283.124 494.132 283.099C494.605 283.094 494.923 283.005 495.097 282.94L494.828 281.712C494.729 281.732 494.545 281.777 494.306 281.777C493.824 281.777 493.391 281.618 493.391 280.758V276.557H494.958V275.364ZM499.596 283.154C501.749 283.154 503.156 281.578 503.156 279.217C503.156 276.84 501.749 275.264 499.596 275.264C497.444 275.264 496.037 276.84 496.037 279.217C496.037 281.578 497.444 283.154 499.596 283.154ZM499.601 281.906C498.194 281.906 497.538 280.678 497.538 279.212C497.538 277.75 498.194 276.507 499.601 276.507C500.998 276.507 501.655 277.75 501.655 279.212C501.655 280.678 500.998 281.906 499.601 281.906ZM509.175 278.053H504.66V279.341H509.175V278.053ZM513.875 283.149C515.267 283.149 515.813 282.299 516.082 281.812H516.206V283H517.658V272.818H516.171V276.602H516.082C515.813 276.129 515.306 275.264 513.884 275.264C512.04 275.264 510.683 276.721 510.683 279.197C510.683 281.668 512.02 283.149 513.875 283.149ZM514.203 281.881C512.875 281.881 512.184 280.713 512.184 279.182C512.184 277.665 512.86 276.527 514.203 276.527C515.5 276.527 516.196 277.586 516.196 279.182C516.196 280.788 515.485 281.881 514.203 281.881ZM522.856 283.154C525.009 283.154 526.416 281.578 526.416 279.217C526.416 276.84 525.009 275.264 522.856 275.264C520.703 275.264 519.296 276.84 519.296 279.217C519.296 281.578 520.703 283.154 522.856 283.154ZM522.861 281.906C521.454 281.906 520.798 280.678 520.798 279.212C520.798 277.75 521.454 276.507 522.861 276.507C524.258 276.507 524.914 277.75 524.914 279.212C524.914 280.678 524.258 281.906 522.861 281.906ZM529.213 272.818H527.94V273.788C527.94 274.558 527.602 275.19 527.214 275.761L527.95 276.288C528.716 275.672 529.213 274.618 529.213 273.773V272.818ZM535.637 277.228C535.328 276.04 534.399 275.264 532.748 275.264C531.023 275.264 529.8 276.174 529.8 277.526C529.8 278.61 530.456 279.331 531.888 279.649L533.181 279.933C533.916 280.097 534.259 280.425 534.259 280.902C534.259 281.494 533.628 281.956 532.654 281.956C531.764 281.956 531.192 281.573 531.013 280.822L529.576 281.041C529.825 282.393 530.948 283.154 532.664 283.154C534.508 283.154 535.786 282.175 535.786 280.793C535.786 279.714 535.1 279.048 533.698 278.724L532.485 278.446C531.644 278.247 531.281 277.964 531.286 277.447C531.281 276.86 531.918 276.442 532.763 276.442C533.688 276.442 534.115 276.955 534.289 277.467L535.637 277.228Z" fill="#111215"/><path d="M972.575 318.129C972.227 315.952 970.522 314.679 968.369 314.679C965.734 314.679 963.79 316.653 963.79 319.909C963.79 323.165 965.724 325.139 968.369 325.139C970.607 325.139 972.242 323.737 972.575 321.724L971.024 321.719C970.761 323.021 969.667 323.737 968.379 323.737C966.634 323.737 965.317 322.4 965.317 319.909C965.317 317.438 966.629 316.081 968.384 316.081C969.682 316.081 970.771 316.812 971.024 318.129H972.575ZM977.371 325.154C979.524 325.154 980.93 323.578 980.93 321.217C980.93 318.84 979.524 317.264 977.371 317.264C975.218 317.264 973.811 318.84 973.811 321.217C973.811 323.578 975.218 325.154 977.371 325.154ZM977.376 323.906C975.969 323.906 975.313 322.678 975.313 321.212C975.313 319.75 975.969 318.507 977.376 318.507C978.773 318.507 979.429 319.75 979.429 321.212C979.429 322.678 978.773 323.906 977.376 323.906ZM982.45 327.864H983.936V323.812H984.026C984.294 324.299 984.841 325.149 986.233 325.149C988.083 325.149 989.425 323.668 989.425 321.197C989.425 318.721 988.063 317.264 986.218 317.264C984.801 317.264 984.289 318.129 984.026 318.602H983.901V317.364H982.45V327.864ZM983.906 321.182C983.906 319.586 984.602 318.527 985.9 318.527C987.247 318.527 987.923 319.665 987.923 321.182C987.923 322.713 987.227 323.881 985.9 323.881C984.622 323.881 983.906 322.788 983.906 321.182ZM991.617 327.844C992.845 327.844 993.625 327.202 994.063 326.019L997.22 317.379L995.614 317.364L993.68 323.29H993.6L991.666 317.364H990.075L992.869 325.099L992.685 325.607C992.308 326.596 991.776 326.685 990.96 326.462L990.602 327.68C990.781 327.764 991.169 327.844 991.617 327.844ZM1003.53 314.818H1002.05V325H1003.53V314.818ZM1005.39 325H1006.88V317.364H1005.39V325ZM1006.14 316.185C1006.65 316.185 1007.08 315.788 1007.08 315.3C1007.08 314.813 1006.65 314.411 1006.14 314.411C1005.63 314.411 1005.2 314.813 1005.2 315.3C1005.2 315.788 1005.63 316.185 1006.14 316.185ZM1010.22 320.466C1010.22 319.248 1010.97 318.552 1012 318.552C1013.01 318.552 1013.63 319.213 1013.63 320.322V325H1015.11V320.143C1015.11 318.254 1014.07 317.264 1012.51 317.264C1011.36 317.264 1010.61 317.796 1010.26 318.607H1010.16V317.364H1008.74V325H1010.22V320.466ZM1016.97 325H1018.45V322.29L1019.19 321.55L1021.79 325H1023.61L1020.31 320.64L1023.4 317.364H1021.62L1018.58 320.595H1018.45V314.818H1016.97V325Z" fill="#3700FF"/><circle cx="436" cy="384" r="20" fill="#F2F2FF"/><path d="M435.262 387.031L436.561 385.739C435.911 385.664 435.337 385.411 434.975 385.049C433.888 383.955 433.881 382.438 434.968 381.351L437.312 379.013C438.399 377.926 439.917 377.926 441.004 379.013C442.098 380.106 442.098 381.624 441.018 382.704L440.177 383.538C440.45 384.16 440.573 384.974 440.361 385.671L442.234 383.812C443.998 382.068 443.991 379.56 442.221 377.796C440.45 376.025 437.962 376.032 436.205 377.789L433.751 380.243C431.994 382 431.994 384.495 433.758 386.259C434.1 386.601 434.633 386.901 435.262 387.031ZM436.731 381.009L435.433 382.308C436.082 382.383 436.649 382.636 437.012 382.998C438.105 384.092 438.105 385.609 437.025 386.689L434.674 389.034C433.587 390.121 432.069 390.121 430.989 389.034C429.889 387.94 429.889 386.423 430.976 385.336L431.81 384.502C431.543 383.88 431.42 383.073 431.632 382.369L429.759 384.229C427.995 385.979 428.002 388.48 429.766 390.244C431.536 392.015 434.031 392.008 435.781 390.258L438.242 387.797C439.992 386.04 439.999 383.545 438.229 381.781C437.894 381.439 437.36 381.146 436.731 381.009Z" fill="#3700FF"/><path d="M469.119 380H470.655V376.42H472.743C475.104 376.42 476.273 374.994 476.273 373.114C476.273 371.24 475.114 369.818 472.748 369.818H469.119V380ZM470.655 375.118V371.136H472.584C474.105 371.136 474.727 371.961 474.727 373.114C474.727 374.268 474.105 375.118 472.604 375.118H470.655ZM482.652 376.833C482.657 378.131 481.692 378.747 480.857 378.747C479.937 378.747 479.301 378.081 479.301 377.042V372.364H477.814V377.221C477.814 379.115 478.853 380.099 480.32 380.099C481.468 380.099 482.249 379.493 482.602 378.678H482.682V380H484.143V372.364H482.652V376.833ZM486.12 380H487.572V378.812H487.696C487.964 379.299 488.511 380.149 489.903 380.149C491.753 380.149 493.095 378.668 493.095 376.197C493.095 373.721 491.733 372.264 489.888 372.264C488.471 372.264 487.959 373.129 487.696 373.602H487.606V369.818H486.12V380ZM487.577 376.182C487.577 374.586 488.273 373.527 489.57 373.527C490.917 373.527 491.594 374.665 491.594 376.182C491.594 377.713 490.898 378.881 489.57 378.881C488.292 378.881 487.577 377.788 487.577 376.182ZM496.111 369.818H494.624V380H496.111V369.818ZM497.971 380H499.457V372.364H497.971V380ZM498.721 371.185C499.233 371.185 499.661 370.788 499.661 370.3C499.661 369.813 499.233 369.411 498.721 369.411C498.204 369.411 497.782 369.813 497.782 370.3C497.782 370.788 498.204 371.185 498.721 371.185ZM504.533 380.154C506.338 380.154 507.506 379.07 507.671 377.584H506.224C506.035 378.409 505.394 378.896 504.543 378.896C503.286 378.896 502.475 377.847 502.475 376.182C502.475 374.546 503.301 373.517 504.543 373.517C505.488 373.517 506.065 374.114 506.224 374.83H507.671C507.511 373.288 506.254 372.264 504.519 372.264C502.366 372.264 500.974 373.885 500.974 376.217C500.974 378.518 502.316 380.154 504.533 380.154Z" fill="#111215"/><path d="M469.415 399L470.293 396.528H473.821L474.699 399H475.807L472.602 390.273H471.511L468.307 399H469.415ZM470.625 395.591L472.023 391.653H472.091L473.489 395.591H470.625ZM478.036 395.062C478.036 393.92 478.743 393.273 479.706 393.273C480.639 393.273 481.206 393.882 481.206 394.909V399H482.212V394.841C482.212 393.17 481.321 392.369 479.996 392.369C479.007 392.369 478.393 392.812 478.087 393.477H478.001V392.455H477.03V399H478.036V395.062ZM484.463 401.438C485.37 401.438 486.014 400.956 486.389 399.955L489.176 392.472L488.076 392.455L486.27 397.67H486.201L484.395 392.455H483.304L485.724 399.034L485.537 399.545C485.179 400.526 484.718 400.619 483.985 400.432L483.73 401.318C483.832 401.369 484.122 401.438 484.463 401.438ZM492.931 399.136C494.704 399.136 495.897 397.79 495.897 395.761C495.897 393.716 494.704 392.369 492.931 392.369C491.158 392.369 489.965 393.716 489.965 395.761C489.965 397.79 491.158 399.136 492.931 399.136ZM492.931 398.233C491.585 398.233 490.971 397.074 490.971 395.761C490.971 394.449 491.585 393.273 492.931 393.273C494.278 393.273 494.891 394.449 494.891 395.761C494.891 397.074 494.278 398.233 492.931 398.233ZM498.438 395.062C498.438 393.92 499.145 393.273 500.108 393.273C501.042 393.273 501.608 393.882 501.608 394.909V399H502.614V394.841C502.614 393.17 501.723 392.369 500.398 392.369C499.409 392.369 498.796 392.812 498.489 393.477H498.404V392.455H497.432V399H498.438V395.062ZM507.196 399.136C508.526 399.136 509.497 398.472 509.804 397.483L508.832 397.21C508.577 397.892 507.984 398.233 507.196 398.233C506.016 398.233 505.202 397.47 505.155 396.068H509.906V395.642C509.906 393.205 508.457 392.369 507.094 392.369C505.321 392.369 504.145 393.767 504.145 395.778C504.145 397.79 505.304 399.136 507.196 399.136ZM505.155 395.199C505.223 394.18 505.943 393.273 507.094 393.273C508.185 393.273 508.884 394.091 508.884 395.199H505.155ZM516.294 399H517.283L518.714 393.972H518.817L520.249 399H521.237L523.232 392.455H522.175L520.76 397.449H520.692L519.311 392.455H518.237L516.839 397.466H516.771L515.357 392.455H514.3L516.294 399ZM524.561 399H525.567V392.455H524.561V399ZM525.072 391.364C525.464 391.364 525.788 391.057 525.788 390.682C525.788 390.307 525.464 390 525.072 390C524.68 390 524.357 390.307 524.357 390.682C524.357 391.057 524.68 391.364 525.072 391.364ZM530.255 392.455H528.858V390.886H527.852V392.455H526.863V393.307H527.852V397.398C527.852 398.54 528.772 399.085 529.625 399.085C530 399.085 530.238 399.017 530.375 398.966L530.17 398.062C530.085 398.08 529.949 398.114 529.727 398.114C529.284 398.114 528.858 397.977 528.858 397.125V393.307H530.255V392.455ZM532.914 395.062C532.914 393.92 533.643 393.273 534.636 393.273C535.582 393.273 536.153 393.869 536.153 394.909V399H537.159V394.841C537.159 393.158 536.264 392.369 534.926 392.369C533.895 392.369 533.306 392.8 533 393.477H532.914V390.273H531.909V399H532.914V395.062ZM545.22 392.455H543.822V390.886H542.817V392.455H541.828V393.307H542.817V397.398C542.817 398.54 543.737 399.085 544.589 399.085C544.964 399.085 545.203 399.017 545.339 398.966L545.135 398.062C545.05 398.08 544.913 398.114 544.692 398.114C544.249 398.114 543.822 397.977 543.822 397.125V393.307H545.22V392.455ZM547.879 395.062C547.879 393.92 548.608 393.273 549.601 393.273C550.547 393.273 551.118 393.869 551.118 394.909V399H552.124V394.841C552.124 393.158 551.229 392.369 549.891 392.369C548.859 392.369 548.271 392.8 547.964 393.477H547.879V390.273H546.874V399H547.879V395.062ZM556.708 399.136C558.037 399.136 559.009 398.472 559.316 397.483L558.344 397.21C558.088 397.892 557.496 398.233 556.708 398.233C555.527 398.233 554.713 397.47 554.667 396.068H559.418V395.642C559.418 393.205 557.969 392.369 556.605 392.369C554.833 392.369 553.657 393.767 553.657 395.778C553.657 397.79 554.816 399.136 556.708 399.136ZM554.667 395.199C554.735 394.18 555.455 393.273 556.605 393.273C557.696 393.273 558.395 394.091 558.395 395.199H554.667ZM565.328 390.273H564.323V399H565.328V390.273ZM567.17 399H568.176V392.455H567.17V399ZM567.682 391.364C568.074 391.364 568.398 391.057 568.398 390.682C568.398 390.307 568.074 390 567.682 390C567.29 390 566.966 390.307 566.966 390.682C566.966 391.057 567.29 391.364 567.682 391.364ZM571.024 395.062C571.024 393.92 571.731 393.273 572.694 393.273C573.627 393.273 574.194 393.882 574.194 394.909V399H575.2V394.841C575.2 393.17 574.309 392.369 572.984 392.369C571.995 392.369 571.382 392.812 571.075 393.477H570.99V392.455H570.018V399H571.024V395.062ZM577.038 399H578.043V396.55L578.746 395.898L581.197 399H582.475L579.505 395.25L582.271 392.455H581.026L578.163 395.369H578.043V390.273H577.038V399ZM589.599 399.136C591.048 399.136 592.002 398.25 592.173 397.091H591.167C590.98 397.807 590.383 398.233 589.599 398.233C588.406 398.233 587.639 397.244 587.639 395.727C587.639 394.244 588.423 393.273 589.599 393.273C590.485 393.273 591.014 393.818 591.167 394.415H592.173C592.002 393.188 590.963 392.369 589.582 392.369C587.809 392.369 586.633 393.767 586.633 395.761C586.633 397.722 587.758 399.136 589.599 399.136ZM595.569 399.153C596.711 399.153 597.308 398.54 597.512 398.114H597.564V399H598.569V394.688C598.569 392.608 596.984 392.369 596.149 392.369C595.16 392.369 594.035 392.71 593.524 393.903L594.478 394.244C594.7 393.767 595.224 393.256 596.183 393.256C597.108 393.256 597.564 393.746 597.564 394.585V394.619C597.564 395.105 597.069 395.062 595.876 395.216C594.662 395.374 593.336 395.642 593.336 397.142C593.336 398.42 594.325 399.153 595.569 399.153ZM595.723 398.25C594.922 398.25 594.342 397.892 594.342 397.193C594.342 396.426 595.041 396.188 595.825 396.085C596.251 396.034 597.393 395.915 597.564 395.71V396.631C597.564 397.449 596.916 398.25 595.723 398.25ZM601.411 395.062C601.411 393.92 602.118 393.273 603.081 393.273C604.014 393.273 604.581 393.882 604.581 394.909V399H605.587V394.841C605.587 393.17 604.696 392.369 603.371 392.369C602.382 392.369 601.768 392.812 601.462 393.477H601.376V392.455H600.405V399H601.411V395.062ZM612.725 399.153C613.868 399.153 614.464 398.54 614.669 398.114H614.72V399H615.725V394.688C615.725 392.608 614.14 392.369 613.305 392.369C612.316 392.369 611.191 392.71 610.68 393.903L611.635 394.244C611.856 393.767 612.38 393.256 613.339 393.256C614.264 393.256 614.72 393.746 614.72 394.585V394.619C614.72 395.105 614.225 395.062 613.032 395.216C611.818 395.374 610.493 395.642 610.493 397.142C610.493 398.42 611.481 399.153 612.725 399.153ZM612.879 398.25C612.078 398.25 611.498 397.892 611.498 397.193C611.498 396.426 612.197 396.188 612.981 396.085C613.407 396.034 614.549 395.915 614.72 395.71V396.631C614.72 397.449 614.072 398.25 612.879 398.25ZM620.22 399.136C621.669 399.136 622.624 398.25 622.794 397.091H621.788C621.601 397.807 621.004 398.233 620.22 398.233C619.027 398.233 618.26 397.244 618.26 395.727C618.26 394.244 619.044 393.273 620.22 393.273C621.107 393.273 621.635 393.818 621.788 394.415H622.794C622.624 393.188 621.584 392.369 620.203 392.369C618.43 392.369 617.254 393.767 617.254 395.761C617.254 397.722 618.379 399.136 620.22 399.136ZM626.923 399.136C628.372 399.136 629.327 398.25 629.497 397.091H628.491C628.304 397.807 627.707 398.233 626.923 398.233C625.73 398.233 624.963 397.244 624.963 395.727C624.963 394.244 625.747 393.273 626.923 393.273C627.81 393.273 628.338 393.818 628.491 394.415H629.497C629.327 393.188 628.287 392.369 626.906 392.369C625.134 392.369 623.957 393.767 623.957 395.761C623.957 397.722 625.082 399.136 626.923 399.136ZM633.712 399.136C635.041 399.136 636.013 398.472 636.32 397.483L635.348 397.21C635.092 397.892 634.5 398.233 633.712 398.233C632.531 398.233 631.717 397.47 631.67 396.068H636.422V395.642C636.422 393.205 634.973 392.369 633.609 392.369C631.837 392.369 630.661 393.767 630.661 395.778C630.661 397.79 631.82 399.136 633.712 399.136ZM631.67 395.199C631.739 394.18 632.459 393.273 633.609 393.273C634.7 393.273 635.399 394.091 635.399 395.199H631.67ZM642.588 393.92C642.273 392.991 641.565 392.369 640.27 392.369C638.889 392.369 637.866 393.153 637.866 394.261C637.866 395.165 638.403 395.77 639.605 396.051L640.696 396.307C641.357 396.46 641.668 396.776 641.668 397.227C641.668 397.79 641.071 398.25 640.134 398.25C639.311 398.25 638.795 397.896 638.616 397.193L637.662 397.432C637.896 398.544 638.812 399.136 640.151 399.136C641.672 399.136 642.707 398.305 642.707 397.176C642.707 396.264 642.136 395.689 640.969 395.403L639.997 395.165C639.222 394.973 638.872 394.713 638.872 394.21C638.872 393.648 639.469 393.239 640.27 393.239C641.148 393.239 641.51 393.724 641.685 394.176L642.588 393.92ZM648.858 393.92C648.542 392.991 647.835 392.369 646.539 392.369C645.159 392.369 644.136 393.153 644.136 394.261C644.136 395.165 644.673 395.77 645.875 396.051L646.966 396.307C647.626 396.46 647.937 396.776 647.937 397.227C647.937 397.79 647.341 398.25 646.403 398.25C645.581 398.25 645.065 397.896 644.886 397.193L643.931 397.432C644.166 398.544 645.082 399.136 646.42 399.136C647.941 399.136 648.977 398.305 648.977 397.176C648.977 396.264 648.406 395.689 647.238 395.403L646.267 395.165C645.491 394.973 645.142 394.713 645.142 394.21C645.142 393.648 645.738 393.239 646.539 393.239C647.417 393.239 647.779 393.724 647.954 394.176L648.858 393.92Z" fill="#767A85"/><path d="M663.057 390.273V399H664.045V392.369H664.131L666.858 399H667.812L670.54 392.369H670.625V399H671.614V390.273H670.352L667.386 397.517H667.284L664.318 390.273H663.057ZM675.522 399.153C676.664 399.153 677.261 398.54 677.466 398.114H677.517V399H678.522V394.688C678.522 392.608 676.937 392.369 676.102 392.369C675.113 392.369 673.988 392.71 673.477 393.903L674.431 394.244C674.653 393.767 675.177 393.256 676.136 393.256C677.061 393.256 677.517 393.746 677.517 394.585V394.619C677.517 395.105 677.022 395.062 675.829 395.216C674.615 395.374 673.289 395.642 673.289 397.142C673.289 398.42 674.278 399.153 675.522 399.153ZM675.676 398.25C674.875 398.25 674.295 397.892 674.295 397.193C674.295 396.426 674.994 396.188 675.778 396.085C676.204 396.034 677.346 395.915 677.517 395.71V396.631C677.517 397.449 676.869 398.25 675.676 398.25ZM680.358 399H681.364V396.55L682.067 395.898L684.517 399H685.795L682.825 395.25L685.591 392.455H684.347L681.483 395.369H681.364V390.273H680.358V399ZM689.36 399.136C690.69 399.136 691.661 398.472 691.968 397.483L690.996 397.21C690.741 397.892 690.148 398.233 689.36 398.233C688.18 398.233 687.366 397.47 687.319 396.068H692.07V395.642C692.07 393.205 690.621 392.369 689.258 392.369C687.485 392.369 686.309 393.767 686.309 395.778C686.309 397.79 687.468 399.136 689.36 399.136ZM687.319 395.199C687.387 394.18 688.107 393.273 689.258 393.273C690.349 393.273 691.048 394.091 691.048 395.199H687.319ZM696.975 401.455H697.981V397.994H698.066C698.288 398.352 698.714 399.136 699.975 399.136C701.612 399.136 702.754 397.824 702.754 395.744C702.754 393.682 701.612 392.369 699.958 392.369C698.68 392.369 698.288 393.153 698.066 393.494H697.947V392.455H696.975V401.455ZM697.964 395.727C697.964 394.261 698.612 393.273 699.839 393.273C701.117 393.273 701.748 394.347 701.748 395.727C701.748 397.125 701.1 398.233 699.839 398.233C698.629 398.233 697.964 397.21 697.964 395.727ZM704.288 399H705.293V394.858C705.293 393.972 705.992 393.324 706.947 393.324C707.215 393.324 707.492 393.375 707.56 393.392V392.369C707.445 392.361 707.181 392.352 707.032 392.352C706.248 392.352 705.566 392.795 705.327 393.443H705.259V392.455H704.288V399ZM708.752 399H709.758V392.455H708.752V399ZM709.264 391.364C709.656 391.364 709.98 391.057 709.98 390.682C709.98 390.307 709.656 390 709.264 390C708.872 390 708.548 390.307 708.548 390.682C708.548 391.057 708.872 391.364 709.264 391.364ZM716.952 392.455H715.862L714.055 397.67H713.987L712.18 392.455H711.089L713.509 399H714.532L716.952 392.455ZM720.007 399.153C721.149 399.153 721.745 398.54 721.95 398.114H722.001V399H723.007V394.688C723.007 392.608 721.422 392.369 720.586 392.369C719.598 392.369 718.473 392.71 717.961 393.903L718.916 394.244C719.137 393.767 719.662 393.256 720.62 393.256C721.545 393.256 722.001 393.746 722.001 394.585V394.619C722.001 395.105 721.507 395.062 720.314 395.216C719.099 395.374 717.774 395.642 717.774 397.142C717.774 398.42 718.762 399.153 720.007 399.153ZM720.16 398.25C719.359 398.25 718.779 397.892 718.779 397.193C718.779 396.426 719.478 396.188 720.262 396.085C720.689 396.034 721.831 395.915 722.001 395.71V396.631C722.001 397.449 721.353 398.25 720.16 398.25ZM727.689 392.455H726.291V390.886H725.286V392.455H724.297V393.307H725.286V397.398C725.286 398.54 726.206 399.085 727.058 399.085C727.433 399.085 727.672 399.017 727.808 398.966L727.604 398.062C727.518 398.08 727.382 398.114 727.161 398.114C726.717 398.114 726.291 397.977 726.291 397.125V393.307H727.689V392.455ZM731.876 399.136C733.205 399.136 734.177 398.472 734.484 397.483L733.512 397.21C733.256 397.892 732.664 398.233 731.876 398.233C730.695 398.233 729.881 397.47 729.835 396.068H734.586V395.642C734.586 393.205 733.137 392.369 731.773 392.369C730.001 392.369 728.825 393.767 728.825 395.778C728.825 397.79 729.984 399.136 731.876 399.136ZM729.835 395.199C729.903 394.18 730.623 393.273 731.773 393.273C732.864 393.273 733.563 394.091 733.563 395.199H729.835Z" fill="#3700FF"/><rect x="416" y="300" width="515" height="40" rx="6" fill="#F0F0F5"/><path d="M434.247 320.406C434.247 319.074 435.097 318.318 436.256 318.318C437.359 318.318 438.026 319.014 438.026 320.227V325H439.199V320.148C439.199 318.184 438.155 317.264 436.594 317.264C435.391 317.264 434.705 317.766 434.347 318.557H434.247V314.818H433.074V325H434.247V320.406ZM444.526 317.364H442.896V315.534H441.722V317.364H440.569V318.358H441.722V323.131C441.722 324.463 442.796 325.099 443.791 325.099C444.228 325.099 444.506 325.02 444.666 324.96L444.427 323.906C444.328 323.926 444.168 323.966 443.91 323.966C443.393 323.966 442.896 323.807 442.896 322.812V318.358H444.526V317.364ZM449.472 317.364H447.842V315.534H446.668V317.364H445.515V318.358H446.668V323.131C446.668 324.463 447.742 325.099 448.737 325.099C449.174 325.099 449.452 325.02 449.612 324.96L449.373 323.906C449.273 323.926 449.114 323.966 448.856 323.966C448.339 323.966 447.842 323.807 447.842 322.812V318.358H449.472V317.364ZM451.097 327.864H452.271V323.827H452.37C452.628 324.244 453.126 325.159 454.597 325.159C456.506 325.159 457.839 323.628 457.839 321.202C457.839 318.795 456.506 317.264 454.577 317.264C453.086 317.264 452.628 318.179 452.37 318.577H452.231V317.364H451.097V327.864ZM452.251 321.182C452.251 319.472 453.006 318.318 454.438 318.318C455.93 318.318 456.665 319.571 456.665 321.182C456.665 322.812 455.91 324.105 454.438 324.105C453.026 324.105 452.251 322.912 452.251 321.182ZM460.344 325.08C460.836 325.08 461.238 324.677 461.238 324.185C461.238 323.692 460.836 323.29 460.344 323.29C459.851 323.29 459.449 323.692 459.449 324.185C459.449 324.677 459.851 325.08 460.344 325.08ZM460.344 319.412C460.836 319.412 461.238 319.009 461.238 318.517C461.238 318.025 460.836 317.622 460.344 317.622C459.851 317.622 459.449 318.025 459.449 318.517C459.449 319.009 459.851 319.412 460.344 319.412ZM466.803 314.341H465.73L462.448 326.531H463.522L466.803 314.341ZM471.654 314.341H470.58L467.298 326.531H468.372L471.654 314.341ZM473.064 325H474.197V323.827H474.336C474.595 324.244 475.092 325.159 476.564 325.159C478.473 325.159 479.805 323.628 479.805 321.202C479.805 318.795 478.473 317.264 476.544 317.264C475.052 317.264 474.595 318.179 474.336 318.577H474.237V314.818H473.064V325ZM474.217 321.182C474.217 319.472 474.973 318.318 476.404 318.318C477.896 318.318 478.632 319.571 478.632 321.182C478.632 322.812 477.876 324.105 476.404 324.105C474.992 324.105 474.217 322.912 474.217 321.182ZM482.633 314.818H481.46V325H482.633V314.818ZM487.744 325.159C489.812 325.159 491.204 323.588 491.204 321.222C491.204 318.835 489.812 317.264 487.744 317.264C485.676 317.264 484.284 318.835 484.284 321.222C484.284 323.588 485.676 325.159 487.744 325.159ZM487.744 324.105C486.173 324.105 485.457 322.753 485.457 321.222C485.457 319.69 486.173 318.318 487.744 318.318C489.315 318.318 490.031 319.69 490.031 321.222C490.031 322.753 489.315 324.105 487.744 324.105ZM495.958 325.159C497.648 325.159 498.762 324.125 498.961 322.773H497.787C497.569 323.608 496.873 324.105 495.958 324.105C494.566 324.105 493.671 322.952 493.671 321.182C493.671 319.452 494.586 318.318 495.958 318.318C496.992 318.318 497.608 318.955 497.787 319.651H498.961C498.762 318.219 497.549 317.264 495.938 317.264C493.87 317.264 492.498 318.895 492.498 321.222C492.498 323.509 493.81 325.159 495.958 325.159ZM500.536 325H501.709V322.141L502.529 321.381L505.388 325H506.88L503.414 320.625L506.641 317.364H505.189L501.848 320.764H501.709V314.818H500.536V325ZM513.42 319.074C513.052 317.99 512.227 317.264 510.716 317.264C509.105 317.264 507.912 318.179 507.912 319.472C507.912 320.526 508.538 321.232 509.94 321.56L511.213 321.858C511.983 322.037 512.346 322.405 512.346 322.932C512.346 323.588 511.65 324.125 510.557 324.125C509.597 324.125 508.995 323.712 508.787 322.892L507.673 323.17C507.946 324.468 509.015 325.159 510.576 325.159C512.351 325.159 513.559 324.19 513.559 322.872C513.559 321.808 512.893 321.137 511.531 320.804L510.397 320.526C509.493 320.302 509.085 319.999 509.085 319.412C509.085 318.756 509.781 318.278 510.716 318.278C511.74 318.278 512.162 318.845 512.366 319.372L513.42 319.074ZM518.507 317.364H516.876V315.534H515.703V317.364H514.549V318.358H515.703V323.131C515.703 324.463 516.776 325.099 517.771 325.099C518.208 325.099 518.487 325.02 518.646 324.96L518.407 323.906C518.308 323.926 518.149 323.966 517.89 323.966C517.373 323.966 516.876 323.807 516.876 322.812V318.358H518.507V317.364ZM522.379 325.179C523.711 325.179 524.407 324.463 524.646 323.966H524.705V325H525.879V319.969C525.879 317.543 524.029 317.264 523.055 317.264C521.901 317.264 520.589 317.662 519.992 319.054L521.106 319.452C521.364 318.895 521.976 318.298 523.095 318.298C524.173 318.298 524.705 318.87 524.705 319.849V319.889C524.705 320.456 524.129 320.406 522.737 320.585C521.32 320.769 519.773 321.082 519.773 322.832C519.773 324.324 520.927 325.179 522.379 325.179ZM522.558 324.125C521.623 324.125 520.947 323.707 520.947 322.892C520.947 321.997 521.762 321.719 522.677 321.599C523.174 321.54 524.506 321.401 524.705 321.162V322.236C524.705 323.19 523.95 324.125 522.558 324.125ZM530.982 325.159C532.673 325.159 533.786 324.125 533.985 322.773H532.812C532.593 323.608 531.897 324.105 530.982 324.105C529.59 324.105 528.695 322.952 528.695 321.182C528.695 319.452 529.61 318.318 530.982 318.318C532.016 318.318 532.633 318.955 532.812 319.651H533.985C533.786 318.219 532.573 317.264 530.963 317.264C528.894 317.264 527.522 318.895 527.522 321.222C527.522 323.509 528.835 325.159 530.982 325.159ZM535.56 325H536.734V322.141L537.554 321.381L540.413 325H541.904L538.439 320.625L541.666 317.364H540.214L536.873 320.764H536.734V314.818H535.56V325ZM546.357 317.364H544.726V315.534H543.553V317.364H542.399V318.358H543.553V323.131C543.553 324.463 544.627 325.099 545.621 325.099C546.058 325.099 546.337 325.02 546.496 324.96L546.257 323.906C546.158 323.926 545.999 323.966 545.74 323.966C545.223 323.966 544.726 323.807 544.726 322.812V318.358H546.357V317.364ZM551.002 325.159C553.07 325.159 554.462 323.588 554.462 321.222C554.462 318.835 553.07 317.264 551.002 317.264C548.934 317.264 547.542 318.835 547.542 321.222C547.542 323.588 548.934 325.159 551.002 325.159ZM551.002 324.105C549.431 324.105 548.715 322.753 548.715 321.222C548.715 319.69 549.431 318.318 551.002 318.318C552.573 318.318 553.289 319.69 553.289 321.222C553.289 322.753 552.573 324.105 551.002 324.105ZM558.997 325.159C560.468 325.159 560.965 324.244 561.224 323.827H561.363V325H562.497V314.818H561.323V318.577H561.224C560.965 318.179 560.508 317.264 559.016 317.264C557.088 317.264 555.755 318.795 555.755 321.202C555.755 323.628 557.088 325.159 558.997 325.159ZM559.156 324.105C557.684 324.105 556.928 322.812 556.928 321.182C556.928 319.571 557.664 318.318 559.156 318.318C560.588 318.318 561.343 319.472 561.343 321.182C561.343 322.912 560.568 324.105 559.156 324.105ZM567.771 325.159C569.839 325.159 571.231 323.588 571.231 321.222C571.231 318.835 569.839 317.264 567.771 317.264C565.702 317.264 564.31 318.835 564.31 321.222C564.31 323.588 565.702 325.159 567.771 325.159ZM567.771 324.105C566.2 324.105 565.484 322.753 565.484 321.222C565.484 319.69 566.2 318.318 567.771 318.318C569.342 318.318 570.058 319.69 570.058 321.222C570.058 322.753 569.342 324.105 567.771 324.105ZM578.291 319.074C577.923 317.99 577.098 317.264 575.586 317.264C573.976 317.264 572.782 318.179 572.782 319.472C572.782 320.526 573.409 321.232 574.811 321.56L576.084 321.858C576.854 322.037 577.217 322.405 577.217 322.932C577.217 323.588 576.521 324.125 575.427 324.125C574.468 324.125 573.866 323.712 573.657 322.892L572.544 323.17C572.817 324.468 573.886 325.159 575.447 325.159C577.222 325.159 578.43 324.19 578.43 322.872C578.43 321.808 577.764 321.137 576.402 320.804L575.268 320.526C574.363 320.302 573.956 319.999 573.956 319.412C573.956 318.756 574.652 318.278 575.586 318.278C576.611 318.278 577.033 318.845 577.237 319.372L578.291 319.074ZM580.911 325.08C581.404 325.08 581.806 324.677 581.806 324.185C581.806 323.692 581.404 323.29 580.911 323.29C580.419 323.29 580.017 323.692 580.017 324.185C580.017 324.677 580.419 325.08 580.911 325.08ZM586.874 325.159C588.564 325.159 589.678 324.125 589.877 322.773H588.704C588.485 323.608 587.789 324.105 586.874 324.105C585.482 324.105 584.587 322.952 584.587 321.182C584.587 319.452 585.502 318.318 586.874 318.318C587.908 318.318 588.525 318.955 588.704 319.651H589.877C589.678 318.219 588.465 317.264 586.854 317.264C584.786 317.264 583.414 318.895 583.414 321.222C583.414 323.509 584.726 325.159 586.874 325.159ZM594.554 325.159C596.623 325.159 598.015 323.588 598.015 321.222C598.015 318.835 596.623 317.264 594.554 317.264C592.486 317.264 591.094 318.835 591.094 321.222C591.094 323.588 592.486 325.159 594.554 325.159ZM594.554 324.105C592.983 324.105 592.267 322.753 592.267 321.222C592.267 319.69 592.983 318.318 594.554 318.318C596.125 318.318 596.841 319.69 596.841 321.222C596.841 322.753 596.125 324.105 594.554 324.105ZM599.666 325H600.839V320.227C600.839 319.109 601.654 318.318 602.569 318.318C603.459 318.318 604.08 318.9 604.08 319.77V325H605.274V320.028C605.274 319.044 605.89 318.318 606.964 318.318C607.799 318.318 608.515 318.761 608.515 319.889V325H609.688V319.889C609.688 318.094 608.724 317.264 607.362 317.264C606.268 317.264 605.468 317.766 605.075 318.557H604.995C604.617 317.741 603.951 317.264 602.947 317.264C601.953 317.264 601.217 317.741 600.899 318.557H600.799V317.364H599.666V325ZM615.293 314.341H614.219L610.938 326.531H612.012L615.293 314.341ZM616.544 325H617.717V320.227C617.717 319.109 618.533 318.318 619.447 318.318C620.337 318.318 620.959 318.9 620.959 319.77V325H622.152V320.028C622.152 319.044 622.768 318.318 623.842 318.318C624.677 318.318 625.393 318.761 625.393 319.889V325H626.567V319.889C626.567 318.094 625.602 317.264 624.24 317.264C623.146 317.264 622.346 317.766 621.953 318.557H621.873C621.496 317.741 620.829 317.264 619.825 317.264C618.831 317.264 618.095 317.741 617.777 318.557H617.677V317.364H616.544V325ZM630.819 325.179C632.151 325.179 632.847 324.463 633.086 323.966H633.146V325H634.319V319.969C634.319 317.543 632.47 317.264 631.495 317.264C630.342 317.264 629.029 317.662 628.433 319.054L629.546 319.452C629.805 318.895 630.416 318.298 631.535 318.298C632.614 318.298 633.146 318.87 633.146 319.849V319.889C633.146 320.456 632.569 320.406 631.177 320.585C629.76 320.769 628.214 321.082 628.214 322.832C628.214 324.324 629.367 325.179 630.819 325.179ZM630.998 324.125C630.063 324.125 629.387 323.707 629.387 322.892C629.387 321.997 630.203 321.719 631.117 321.599C631.614 321.54 632.947 321.401 633.146 321.162V322.236C633.146 323.19 632.39 324.125 630.998 324.125ZM636.321 325H637.494V320.168C637.494 319.134 638.309 318.378 639.423 318.378C639.736 318.378 640.059 318.438 640.139 318.457V317.264C640.004 317.254 639.696 317.244 639.522 317.244C638.607 317.244 637.812 317.761 637.534 318.517H637.454V317.364H636.321V325ZM641.389 325H642.563V322.141L643.383 321.381L646.242 325H647.733L644.268 320.625L647.495 317.364H646.043L642.702 320.764H642.563V314.818H641.389V325ZM648.865 325H650.038V320.227C650.038 319.109 650.853 318.318 651.768 318.318C652.658 318.318 653.279 318.9 653.279 319.77V325H654.473V320.028C654.473 319.044 655.089 318.318 656.163 318.318C656.998 318.318 657.714 318.761 657.714 319.889V325H658.887V319.889C658.887 318.094 657.923 317.264 656.561 317.264C655.467 317.264 654.667 317.766 654.274 318.557H654.194C653.816 317.741 653.15 317.264 652.146 317.264C651.152 317.264 650.416 317.741 650.098 318.557H649.998V317.364H648.865V325ZM662.066 320.406C662.066 319.074 662.916 318.318 664.075 318.318C665.178 318.318 665.844 319.014 665.844 320.227V325H667.018V320.148C667.018 318.184 665.974 317.264 664.413 317.264C663.209 317.264 662.523 317.766 662.165 318.557H662.066V314.818H660.893V325H662.066V320.406ZM672.226 325.159C673.777 325.159 674.911 324.384 675.268 323.23L674.135 322.912C673.837 323.707 673.146 324.105 672.226 324.105C670.849 324.105 669.899 323.215 669.844 321.58H675.388V321.082C675.388 318.239 673.697 317.264 672.107 317.264C670.038 317.264 668.666 318.895 668.666 321.241C668.666 323.588 670.018 325.159 672.226 325.159ZM669.844 320.565C669.924 319.377 670.764 318.318 672.107 318.318C673.379 318.318 674.195 319.273 674.195 320.565H669.844ZM678.206 320.406C678.206 319.074 679.031 318.318 680.155 318.318C681.244 318.318 681.905 319.029 681.905 320.227V325H683.078V320.148C683.078 318.199 682.039 317.264 680.493 317.264C679.339 317.264 678.624 317.781 678.266 318.557H678.166V317.364H677.033V325H678.206V320.406ZM687.966 325.159C689.437 325.159 689.934 324.244 690.193 323.827H690.332V325H691.466V314.818H690.292V318.577H690.193C689.934 318.179 689.477 317.264 687.985 317.264C686.057 317.264 684.724 318.795 684.724 321.202C684.724 323.628 686.057 325.159 687.966 325.159ZM688.125 324.105C686.653 324.105 685.897 322.812 685.897 321.182C685.897 319.571 686.633 318.318 688.125 318.318C689.557 318.318 690.312 319.472 690.312 321.182C690.312 322.912 689.537 324.105 688.125 324.105ZM693.637 325H694.811V320.168C694.811 319.134 695.626 318.378 696.74 318.378C697.053 318.378 697.376 318.438 697.456 318.457V317.264C697.321 317.254 697.013 317.244 696.839 317.244C695.924 317.244 695.129 317.761 694.85 318.517H694.771V317.364H693.637V325ZM698.706 325H699.88V317.364H698.706V325ZM699.303 316.091C699.76 316.091 700.138 315.733 700.138 315.295C700.138 314.858 699.76 314.5 699.303 314.5C698.846 314.5 698.468 314.858 698.468 315.295C698.468 315.733 698.846 316.091 699.303 316.091ZM704.991 325.159C706.681 325.159 707.795 324.125 707.994 322.773H706.82C706.602 323.608 705.906 324.105 704.991 324.105C703.599 324.105 702.704 322.952 702.704 321.182C702.704 319.452 703.619 318.318 704.991 318.318C706.025 318.318 706.641 318.955 706.82 319.651H707.994C707.795 318.219 706.582 317.264 704.971 317.264C702.903 317.264 701.531 318.895 701.531 321.222C701.531 323.509 702.843 325.159 704.991 325.159ZM709.569 325H710.742V322.141L711.563 321.381L714.421 325H715.913L712.448 320.625L715.674 317.364H714.222L710.881 320.764H710.742V314.818H709.569V325ZM722.453 319.074C722.085 317.99 721.26 317.264 719.749 317.264C718.138 317.264 716.945 318.179 716.945 319.472C716.945 320.526 717.571 321.232 718.973 321.56L720.246 321.858C721.016 322.037 721.379 322.405 721.379 322.932C721.379 323.588 720.683 324.125 719.59 324.125C718.63 324.125 718.029 323.712 717.82 322.892L716.706 323.17C716.98 324.468 718.048 325.159 719.61 325.159C721.384 325.159 722.592 324.19 722.592 322.872C722.592 321.808 721.926 321.137 720.564 320.804L719.431 320.526C718.526 320.302 718.118 319.999 718.118 319.412C718.118 318.756 718.814 318.278 719.749 318.278C720.773 318.278 721.195 318.845 721.399 319.372L722.453 319.074ZM727.321 325.159C729.389 325.159 730.781 323.588 730.781 321.222C730.781 318.835 729.389 317.264 727.321 317.264C725.253 317.264 723.861 318.835 723.861 321.222C723.861 323.588 725.253 325.159 727.321 325.159ZM727.321 324.105C725.75 324.105 725.034 322.753 725.034 321.222C725.034 319.69 725.75 318.318 727.321 318.318C728.892 318.318 729.608 319.69 729.608 321.222C729.608 322.753 728.892 324.105 727.321 324.105ZM733.605 320.406C733.605 319.074 734.431 318.318 735.554 318.318C736.643 318.318 737.304 319.029 737.304 320.227V325H738.478V320.148C738.478 318.199 737.439 317.264 735.892 317.264C734.739 317.264 734.023 317.781 733.665 318.557H733.566V317.364H732.432V325H733.605V320.406ZM741.337 325.08C741.829 325.08 742.232 324.677 742.232 324.185C742.232 323.692 741.829 323.29 741.337 323.29C740.845 323.29 740.442 323.692 740.442 324.185C740.442 324.677 740.845 325.08 741.337 325.08ZM744.197 325H745.37V317.364H744.197V325ZM744.794 316.091C745.251 316.091 745.629 315.733 745.629 315.295C745.629 314.858 745.251 314.5 744.794 314.5C744.336 314.5 743.958 314.858 743.958 315.295C743.958 315.733 744.336 316.091 744.794 316.091ZM750.263 325.159C751.734 325.159 752.232 324.244 752.49 323.827H752.629V325H753.763V314.818H752.59V318.577H752.49C752.232 318.179 751.774 317.264 750.283 317.264C748.354 317.264 747.021 318.795 747.021 321.202C747.021 323.628 748.354 325.159 750.263 325.159ZM750.422 324.105C748.95 324.105 748.195 322.812 748.195 321.182C748.195 319.571 748.93 318.318 750.422 318.318C751.854 318.318 752.609 319.472 752.609 321.182C752.609 322.912 751.834 324.105 750.422 324.105Z" fill="#42444E"/><path d="M64.47 30.948H56.21V32.516H59.444V41H61.236V32.516H64.47V30.948ZM69.566 34.63C69.23 34.266 68.852 34 68.404 33.804C67.956 33.608 67.48 33.51 66.962 33.51C66.43 33.51 65.954 33.608 65.506 33.804C65.058 34 64.68 34.266 64.358 34.63C64.05 34.966 63.812 35.372 63.658 35.834C63.49 36.296 63.42 36.8 63.42 37.332C63.42 37.878 63.49 38.382 63.658 38.844C63.812 39.306 64.05 39.698 64.358 40.034C64.68 40.398 65.058 40.678 65.506 40.874C65.954 41.07 66.43 41.154 66.962 41.154C67.48 41.154 67.956 41.07 68.404 40.874C68.852 40.678 69.23 40.398 69.566 40.034C69.874 39.698 70.098 39.306 70.266 38.844C70.42 38.382 70.504 37.878 70.504 37.332C70.504 36.8 70.42 36.296 70.266 35.834C70.098 35.372 69.874 34.966 69.566 34.63ZM66.962 34.924C67.522 34.924 67.97 35.148 68.306 35.568C68.642 36.002 68.81 36.59 68.81 37.332C68.81 38.088 68.642 38.676 68.306 39.096C67.97 39.53 67.522 39.74 66.962 39.74C66.388 39.74 65.94 39.53 65.604 39.096C65.268 38.676 65.114 38.088 65.114 37.332C65.114 36.59 65.268 36.002 65.604 35.568C65.94 35.148 66.388 34.924 66.962 34.924ZM75.6831 37.668V36.17H71.7631V37.668H75.6831ZM80.1755 41.154C80.6095 41.154 81.0015 41.084 81.3655 40.916C81.7295 40.762 82.0375 40.538 82.2895 40.23V41H83.9695V30.948H82.2895V34.434C82.0375 34.14 81.7295 33.916 81.3655 33.748C81.0015 33.594 80.6095 33.51 80.1755 33.51C79.6715 33.51 79.2235 33.622 78.8035 33.818C78.3835 34.014 78.0335 34.308 77.7535 34.686C77.4875 35.036 77.2915 35.442 77.1515 35.89C77.0115 36.338 76.9415 36.828 76.9415 37.332C76.9415 37.85 77.0115 38.34 77.1515 38.788C77.2915 39.236 77.4875 39.642 77.7535 39.978C78.0335 40.37 78.3835 40.664 78.8035 40.86C79.2235 41.056 79.6715 41.154 80.1755 41.154ZM82.3315 37.556C82.3315 38.2 82.1635 38.718 81.8275 39.11C81.4915 39.502 81.0435 39.684 80.5115 39.684C79.9235 39.684 79.4615 39.474 79.1255 39.054C78.7895 38.634 78.6355 38.06 78.6355 37.332C78.6355 36.604 78.7895 36.03 79.1255 35.61C79.4615 35.19 79.9235 34.98 80.5115 34.98C81.0575 34.98 81.4915 35.176 81.8275 35.568C82.1635 35.96 82.3315 36.478 82.3315 37.122V37.556ZM91.4137 34.63C91.0777 34.266 90.6997 34 90.2517 33.804C89.8037 33.608 89.3277 33.51 88.8097 33.51C88.2777 33.51 87.8017 33.608 87.3537 33.804C86.9057 34 86.5277 34.266 86.2057 34.63C85.8977 34.966 85.6597 35.372 85.5057 35.834C85.3377 36.296 85.2677 36.8 85.2677 37.332C85.2677 37.878 85.3377 38.382 85.5057 38.844C85.6597 39.306 85.8977 39.698 86.2057 40.034C86.5277 40.398 86.9057 40.678 87.3537 40.874C87.8017 41.07 88.2777 41.154 88.8097 41.154C89.3277 41.154 89.8037 41.07 90.2517 40.874C90.6997 40.678 91.0777 40.398 91.4137 40.034C91.7217 39.698 91.9457 39.306 92.1137 38.844C92.2677 38.382 92.3517 37.878 92.3517 37.332C92.3517 36.8 92.2677 36.296 92.1137 35.834C91.9457 35.372 91.7217 34.966 91.4137 34.63ZM88.8097 34.924C89.3697 34.924 89.8177 35.148 90.1537 35.568C90.4897 36.002 90.6577 36.59 90.6577 37.332C90.6577 38.088 90.4897 38.676 90.1537 39.096C89.8177 39.53 89.3697 39.74 88.8097 39.74C88.2357 39.74 87.7877 39.53 87.4517 39.096C87.1157 38.676 86.9617 38.088 86.9617 37.332C86.9617 36.59 87.1157 36.002 87.4517 35.568C87.7877 35.148 88.2357 34.924 88.8097 34.924Z" fill="#000"/><mask id="mask0" mask-type="alpha" maskUnits="userSpaceOnUse" x="24" y="24" width="24" height="24"><path d="M24 33.6C24 30.2397 24 28.5595 24.654 27.2761C25.2292 26.1471 26.1471 25.2292 27.2761 24.654C28.5595 24 30.2397 24 33.6 24H38.4C41.7603 24 43.4405 24 44.7239 24.654C45.8529 25.2292 46.7708 26.1471 47.346 27.2761C48 28.5595 48 30.2397 48 33.6V38.4C48 41.7603 48 43.4405 47.346 44.7239C46.7708 45.8529 45.8529 46.7708 44.7239 47.346C43.4405 48 41.7603 48 38.4 48H33.6C30.2397 48 28.5595 48 27.2761 47.346C26.1471 46.7708 25.2292 45.8529 24.654 44.7239C24 43.4405 24 41.7603 24 38.4V33.6Z" fill="#F0F0F5"/></mask><g mask="url(#mask0)"><rect x="24" y="24" width="24" height="24" rx="8" fill="#AAB3FF"/><path d="M31.6721 33.7863C32.1199 33.7863 32.4867 33.4174 32.4867 32.967C32.4867 32.5166 32.1199 32.1428 31.6721 32.1428C31.2243 32.1428 30.8574 32.5166 30.8574 32.967C30.8574 33.4174 31.2243 33.7863 31.6721 33.7863ZM34.1542 33.5611H40.5524C40.8811 33.5611 41.1431 33.2976 41.1431 32.967C41.1431 32.6363 40.8859 32.3728 40.5524 32.3728H34.1542C33.8255 32.3728 33.5634 32.6316 33.5634 32.967C33.5634 33.2976 33.8207 33.5611 34.1542 33.5611ZM31.6721 36.8193C32.1199 36.8193 32.4867 36.4504 32.4867 36C32.4867 35.5496 32.1199 35.1806 31.6721 35.1806C31.2243 35.1806 30.8574 35.5496 30.8574 36C30.8574 36.4504 31.2243 36.8193 31.6721 36.8193ZM34.1542 36.5941H40.5524C40.8811 36.5941 41.1431 36.3354 41.1431 36C41.1431 35.6694 40.8859 35.4058 40.5524 35.4058H34.1542C33.8255 35.4058 33.5634 35.6646 33.5634 36C33.5634 36.3306 33.8207 36.5941 34.1542 36.5941ZM31.6721 39.8571C32.1199 39.8571 32.4867 39.4882 32.4867 39.0378C32.4867 38.5874 32.1199 38.2136 31.6721 38.2136C31.2243 38.2136 30.8574 38.5874 30.8574 39.0378C30.8574 39.4882 31.2243 39.8571 31.6721 39.8571ZM34.1542 39.6319H40.5524C40.8811 39.6319 41.1431 39.3684 41.1431 39.0378C41.1431 38.7072 40.8859 38.4436 40.5524 38.4436H34.1542C33.8255 38.4436 33.5634 38.7024 33.5634 39.0378C33.5634 39.3684 33.8207 39.6319 34.1542 39.6319Z" fill="#fff"/></g><path d="M1369.3 33.3636H1370.49C1370.44 31.8274 1369.02 30.679 1367.05 30.679C1365.1 30.679 1363.57 31.8125 1363.57 33.5227C1363.57 34.8949 1364.57 35.7102 1366.16 36.1676L1367.41 36.5256C1368.48 36.8239 1369.44 37.2017 1369.44 38.2159C1369.44 39.3295 1368.36 40.0653 1366.95 40.0653C1365.74 40.0653 1364.67 39.5284 1364.57 38.375H1363.29C1363.41 40.0455 1364.76 41.179 1366.95 41.179C1369.3 41.179 1370.63 39.8864 1370.63 38.2358C1370.63 36.3267 1368.82 35.7102 1367.77 35.4318L1366.73 35.1534C1365.98 34.9545 1364.76 34.5568 1364.76 33.4631C1364.76 32.4886 1365.66 31.7727 1367.01 31.7727C1368.24 31.7727 1369.18 32.3594 1369.3 33.3636ZM1372.36 41H1373.53V33.3636H1372.36V41ZM1372.96 32.0909C1373.41 32.0909 1373.79 31.733 1373.79 31.2955C1373.79 30.858 1373.41 30.5 1372.96 30.5C1372.5 30.5 1372.12 30.858 1372.12 31.2955C1372.12 31.733 1372.5 32.0909 1372.96 32.0909ZM1378.62 44.0227C1380.45 44.0227 1381.92 43.1875 1381.92 41.2188V33.3636H1380.79V34.5767H1380.67C1380.41 34.179 1379.94 33.2642 1378.44 33.2642C1376.52 33.2642 1375.18 34.7955 1375.18 37.142C1375.18 39.5284 1376.58 40.8807 1378.42 40.8807C1379.92 40.8807 1380.39 40.0057 1380.65 39.5881H1380.75V41.1392C1380.75 42.4119 1379.86 42.9886 1378.62 42.9886C1377.24 42.9886 1376.75 42.2578 1376.44 41.8352L1375.5 42.4915C1375.98 43.2919 1376.92 44.0227 1378.62 44.0227ZM1378.58 39.8267C1377.11 39.8267 1376.36 38.7131 1376.36 37.1222C1376.36 35.571 1377.09 34.3182 1378.58 34.3182C1380.02 34.3182 1380.77 35.4716 1380.77 37.1222C1380.77 38.8125 1380 39.8267 1378.58 39.8267ZM1385.11 36.4062C1385.11 35.0739 1385.93 34.3182 1387.05 34.3182C1388.14 34.3182 1388.8 35.0291 1388.8 36.2273V41H1389.98V36.1477C1389.98 34.1989 1388.94 33.2642 1387.39 33.2642C1386.24 33.2642 1385.52 33.7812 1385.17 34.5568H1385.07V33.3636H1383.93V41H1385.11V36.4062ZM1398.88 41.1591C1400.95 41.1591 1402.34 39.5881 1402.34 37.2216C1402.34 34.8352 1400.95 33.2642 1398.88 33.2642C1396.81 33.2642 1395.42 34.8352 1395.42 37.2216C1395.42 39.5881 1396.81 41.1591 1398.88 41.1591ZM1398.88 40.1051C1397.31 40.1051 1396.59 38.7528 1396.59 37.2216C1396.59 35.6903 1397.31 34.3182 1398.88 34.3182C1400.45 34.3182 1401.17 35.6903 1401.17 37.2216C1401.17 38.7528 1400.45 40.1051 1398.88 40.1051ZM1408.81 37.8778C1408.81 39.3097 1407.71 39.9659 1406.84 39.9659C1405.86 39.9659 1405.17 39.25 1405.17 38.1364V33.3636H1403.99V38.2159C1403.99 40.1648 1405.03 41.0994 1406.46 41.0994C1407.61 41.0994 1408.37 40.483 1408.73 39.7074H1408.81V41H1409.98V33.3636H1408.81V37.8778ZM1415.31 33.3636H1413.68V31.5341H1412.5V33.3636H1411.35V34.358H1412.5V39.1307C1412.5 40.4631 1413.58 41.0994 1414.57 41.0994C1415.01 41.0994 1415.29 41.0199 1415.45 40.9602L1415.21 39.9062C1415.11 39.9261 1414.95 39.9659 1414.69 39.9659C1414.18 39.9659 1413.68 39.8068 1413.68 38.8125V34.358H1415.31V33.3636Z" fill="#767A85"/><circle cx="1230" cy="36" r="12" fill="#48A7FF"/><path d="M1230.86 32V37.625C1230.86 38.4687 1230.47 38.918 1229.77 38.918C1229.12 38.918 1228.69 38.5234 1228.68 37.875H1227.24C1227.24 39.3516 1228.32 40.1094 1229.72 40.1094C1231.26 40.1094 1232.3 39.1719 1232.3 37.625V32H1230.86Z" fill="#fff"/><path d="M1250 33.3636V41.4773C1250 42.1882 1249.71 42.576 1249 42.576C1248.92 42.576 1248.85 42.576 1248.76 42.571V43.8537H1249.05C1250.65 43.8736 1251.49 43.0185 1251.49 41.4872V33.3636H1250ZM1250.74 32.1854C1251.25 32.1854 1251.67 31.7876 1251.67 31.3004C1251.67 30.8132 1251.25 30.4105 1250.74 30.4105C1250.22 30.4105 1249.8 30.8132 1249.8 31.3004C1249.8 31.7876 1250.22 32.1854 1250.74 32.1854ZM1256.56 41.1541C1258.71 41.1541 1260.12 39.5781 1260.12 37.2166C1260.12 34.8402 1258.71 33.2642 1256.56 33.2642C1254.41 33.2642 1253 34.8402 1253 37.2166C1253 39.5781 1254.41 41.1541 1256.56 41.1541ZM1256.57 39.9062C1255.16 39.9062 1254.5 38.6783 1254.5 37.2116C1254.5 35.75 1255.16 34.5071 1256.57 34.5071C1257.96 34.5071 1258.62 35.75 1258.62 37.2116C1258.62 38.6783 1257.96 39.9062 1256.57 39.9062ZM1263.13 36.4659C1263.13 35.2479 1263.9 34.5518 1264.96 34.5518C1265.98 34.5518 1266.59 35.2031 1266.59 36.3217V41H1268.08V36.1428C1268.08 34.2386 1267.04 33.2642 1265.46 33.2642C1264.28 33.2642 1263.56 33.7812 1263.2 34.6065H1263.11V30.8182H1261.64V41H1263.13V36.4659ZM1271.41 36.4659C1271.41 35.2479 1272.16 34.5518 1273.19 34.5518C1274.2 34.5518 1274.81 35.2131 1274.81 36.3217V41H1276.3V36.1428C1276.3 34.2536 1275.26 33.2642 1273.7 33.2642C1272.55 33.2642 1271.8 33.7962 1271.44 34.6065H1271.35V33.3636H1269.92V41H1271.41V36.4659ZM1280.37 41.169C1281.64 41.169 1282.35 40.5277 1282.63 39.956H1282.69V41H1284.14V35.929C1284.14 33.7067 1282.39 33.2642 1281.18 33.2642C1279.8 33.2642 1278.52 33.821 1278.03 35.2131L1279.42 35.5312C1279.64 34.9893 1280.2 34.4673 1281.2 34.4673C1282.16 34.4673 1282.65 34.9695 1282.65 35.8345V35.8693C1282.65 36.4112 1282.09 36.4013 1280.72 36.5604C1279.27 36.7294 1277.79 37.1072 1277.79 38.8423C1277.79 40.3438 1278.92 41.169 1280.37 41.169ZM1280.7 39.9759C1279.86 39.9759 1279.25 39.598 1279.25 38.8622C1279.25 38.0668 1279.95 37.7834 1280.82 37.669C1281.3 37.6044 1282.44 37.4751 1282.65 37.2614V38.2457C1282.65 39.1506 1281.93 39.9759 1280.7 39.9759ZM1285.98 43.8636H1287.47V39.8118H1287.56C1287.83 40.299 1288.37 41.1491 1289.76 41.1491C1291.61 41.1491 1292.96 39.6676 1292.96 37.1967C1292.96 34.7209 1291.59 33.2642 1289.75 33.2642C1288.33 33.2642 1287.82 34.1293 1287.56 34.6016H1287.43V33.3636H1285.98V43.8636ZM1287.44 37.1818C1287.44 35.5859 1288.13 34.527 1289.43 34.527C1290.78 34.527 1291.45 35.6655 1291.45 37.1818C1291.45 38.7131 1290.76 39.8814 1289.43 39.8814C1288.15 39.8814 1287.44 38.7876 1287.44 37.1818ZM1294.48 43.8636H1295.97V39.8118H1296.06C1296.33 40.299 1296.87 41.1491 1298.26 41.1491C1300.11 41.1491 1301.46 39.6676 1301.46 37.1967C1301.46 34.7209 1300.09 33.2642 1298.25 33.2642C1296.83 33.2642 1296.32 34.1293 1296.06 34.6016H1295.93V33.3636H1294.48V43.8636ZM1295.94 37.1818C1295.94 35.5859 1296.63 34.527 1297.93 34.527C1299.28 34.527 1299.96 35.6655 1299.96 37.1818C1299.96 38.7131 1299.26 39.8814 1297.93 39.8814C1296.65 39.8814 1295.94 38.7876 1295.94 37.1818ZM1304.47 30.8182H1302.98V41H1304.47V30.8182ZM1309.62 41.1541C1311.29 41.1541 1312.46 40.3338 1312.8 39.0909L1311.39 38.8374C1311.13 39.5582 1310.48 39.9261 1309.63 39.9261C1308.36 39.9261 1307.51 39.1009 1307.47 37.6293H1312.9V37.1023C1312.9 34.343 1311.25 33.2642 1309.52 33.2642C1307.39 33.2642 1305.99 34.8849 1305.99 37.2315C1305.99 39.603 1307.37 41.1541 1309.62 41.1541ZM1307.47 36.5156C1307.53 35.4318 1308.32 34.4922 1309.53 34.4922C1310.68 34.4922 1311.43 35.3473 1311.44 36.5156H1307.47ZM1320.13 35.228C1319.82 34.0398 1318.89 33.2642 1317.24 33.2642C1315.51 33.2642 1314.29 34.174 1314.29 35.5263C1314.29 36.6101 1314.95 37.331 1316.38 37.6491L1317.67 37.9325C1318.41 38.0966 1318.75 38.4247 1318.75 38.902C1318.75 39.4936 1318.12 39.956 1317.14 39.956C1316.25 39.956 1315.68 39.5732 1315.5 38.8224L1314.07 39.0412C1314.32 40.3935 1315.44 41.1541 1317.15 41.1541C1319 41.1541 1320.28 40.1747 1320.28 38.7926C1320.28 37.7138 1319.59 37.0476 1318.19 36.7244L1316.98 36.446C1316.14 36.2472 1315.77 35.9638 1315.78 35.4467C1315.77 34.8601 1316.41 34.4425 1317.25 34.4425C1318.18 34.4425 1318.61 34.9545 1318.78 35.4666L1320.13 35.228ZM1325.06 41.1541C1326.73 41.1541 1327.91 40.3338 1328.24 39.0909L1326.84 38.8374C1326.57 39.5582 1325.92 39.9261 1325.08 39.9261C1323.8 39.9261 1322.95 39.1009 1322.91 37.6293H1328.34V37.1023C1328.34 34.343 1326.69 33.2642 1324.96 33.2642C1322.83 33.2642 1321.43 34.8849 1321.43 37.2315C1321.43 39.603 1322.81 41.1541 1325.06 41.1541ZM1322.91 36.5156C1322.97 35.4318 1323.76 34.4922 1324.97 34.4922C1326.12 34.4922 1326.88 35.3473 1326.88 36.5156H1322.91ZM1333.14 41.1541C1334.8 41.1541 1335.98 40.3338 1336.32 39.0909L1334.91 38.8374C1334.65 39.5582 1334 39.9261 1333.15 39.9261C1331.88 39.9261 1331.03 39.1009 1330.99 37.6293H1336.42V37.1023C1336.42 34.343 1334.76 33.2642 1333.03 33.2642C1330.91 33.2642 1329.5 34.8849 1329.5 37.2315C1329.5 39.603 1330.89 41.1541 1333.14 41.1541ZM1330.99 36.5156C1331.05 35.4318 1331.84 34.4922 1333.04 34.4922C1334.2 34.4922 1334.95 35.3473 1334.96 36.5156H1330.99ZM1340.78 41.1491C1342.18 41.1491 1342.72 40.299 1342.99 39.8118H1343.12V41H1344.57V30.8182H1343.08V34.6016H1342.99C1342.72 34.1293 1342.22 33.2642 1340.79 33.2642C1338.95 33.2642 1337.59 34.7209 1337.59 37.1967C1337.59 39.6676 1338.93 41.1491 1340.78 41.1491ZM1341.11 39.8814C1339.78 39.8814 1339.09 38.7131 1339.09 37.1818C1339.09 35.6655 1339.77 34.527 1341.11 34.527C1342.41 34.527 1343.11 35.5859 1343.11 37.1818C1343.11 38.7876 1342.39 39.8814 1341.11 39.8814Z" fill="#111215"/><defs><filter id="filter0_d" x="414" y="563" width="20" height="20" filterUnits="userSpaceOnUse" color-interpolation-filters="sRGB"><feFlood flood-opacity="0" result="BackgroundImageFix"/><feColorMatrix in="SourceAlpha" type="matrix" values="0 0 0 0 0 0 0 0 0 0 0 0 0 0 0 0 0 0 127 0"/><feOffset dy="1"/><feGaussianBlur stdDeviation="1"/><feColorMatrix type="matrix" values="0 0 0 0 0 0 0 0 0 0 0 0 0 0 0 0 0 0 0.04 0"/><feBlend mode="normal" in2="BackgroundImageFix" result="effect1_dropShadow"/><feBlend mode="normal" in="SourceGraphic" in2="effect1_dropShadow" result="shape"/></filter><filter id="filter1_d" x="414" y="611" width="20" height="20" filterUnits="userSpaceOnUse" color-interpolation-filters="sRGB"><feFlood flood-opacity="0" result="BackgroundImageFix"/><feColorMatrix in="SourceAlpha" type="matrix" values="0 0 0 0 0 0 0 0 0 0 0 0 0 0 0 0 0 0 127 0"/><feOffset dy="1"/><feGaussianBlur stdDeviation="1"/><feColorMatrix type="matrix" values="0 0 0 0 0 0 0 0 0 0 0 0 0 0 0 0 0 0 0.04 0"/><feBlend mode="normal" in2="BackgroundImageFix" result="effect1_dropShadow"/><feBlend mode="normal" in="SourceGraphic" in2="effect1_dropShadow" result="shape"/></filter><filter id="filter2_d" x="390" y="243" width="660" height="188" filterUnits="userSpaceOnUse" color-interpolation-filters="sRGB"><feFlood flood-opacity="0" result="BackgroundImageFix"/><feColorMatrix in="SourceAlpha" type="matrix" values="0 0 0 0 0 0 0 0 0 0 0 0 0 0 0 0 0 0 127 0"/><feOffset dy="1"/><feGaussianBlur stdDeviation="1"/><feColorMatrix type="matrix" values="0 0 0 0 0 0 0 0 0 0 0 0 0 0 0 0 0 0 0.04 0"/><feBlend mode="normal" in2="BackgroundImageFix" result="effect1_dropShadow"/><feBlend mode="normal" in="SourceGraphic" in2="effect1_dropShadow" result="shape"/></filter></defs></svg>