<svg width="1440" height="900" viewBox="0 0 1440 900" fill="none" xmlns="http://www.w3.org/2000/svg"><rect width="1440" height="900" fill="#fff"/><g filter="url(#filter0_d)"><rect x="392" y="276" width="656" height="92" rx="8" fill="#fff"/><rect x="392.5" y="276.5" width="655" height="91" rx="7.5" stroke="#F0F0F5"/></g><path d="M478.672 307.493H480.153C480.109 305.862 478.667 304.679 476.599 304.679C474.555 304.679 472.989 305.847 472.989 307.602C472.989 309.019 474.004 309.849 475.639 310.292L476.842 310.62C477.931 310.908 478.771 311.266 478.771 312.171C478.771 313.165 477.822 313.822 476.514 313.822C475.331 313.822 474.347 313.295 474.257 312.186H472.716C472.815 314.031 474.242 315.169 476.524 315.169C478.915 315.169 480.293 313.911 480.293 312.186C480.293 310.352 478.657 309.641 477.364 309.322L476.37 309.064C475.575 308.86 474.516 308.487 474.521 307.513C474.521 306.648 475.311 306.006 476.564 306.006C477.732 306.006 478.562 306.553 478.672 307.493ZM483.356 310.466C483.356 309.248 484.126 308.552 485.185 308.552C486.209 308.552 486.821 309.203 486.821 310.322V315H488.307V310.143C488.307 308.239 487.263 307.264 485.692 307.264C484.504 307.264 483.788 307.781 483.43 308.607H483.336V304.818H481.869V315H483.356V310.466ZM492.373 315.169C493.636 315.169 494.347 314.528 494.63 313.956H494.69V315H496.142V309.929C496.142 307.707 494.392 307.264 493.179 307.264C491.797 307.264 490.524 307.821 490.027 309.213L491.424 309.531C491.642 308.989 492.199 308.467 493.199 308.467C494.158 308.467 494.65 308.969 494.65 309.835V309.869C494.65 310.411 494.093 310.401 492.721 310.56C491.275 310.729 489.793 311.107 489.793 312.842C489.793 314.344 490.922 315.169 492.373 315.169ZM492.696 313.976C491.856 313.976 491.25 313.598 491.25 312.862C491.25 312.067 491.956 311.783 492.816 311.669C493.298 311.604 494.441 311.475 494.655 311.261V312.246C494.655 313.151 493.934 313.976 492.696 313.976ZM497.982 315H499.468V310.337C499.468 309.337 500.239 308.616 501.293 308.616C501.601 308.616 501.949 308.671 502.068 308.706V307.284C501.919 307.264 501.626 307.249 501.437 307.249C500.542 307.249 499.776 307.756 499.498 308.577H499.418V307.364H497.982V315ZM506.232 315.154C507.898 315.154 509.076 314.334 509.414 313.091L508.007 312.837C507.739 313.558 507.093 313.926 506.247 313.926C504.975 313.926 504.12 313.101 504.08 311.629H509.509V311.102C509.509 308.343 507.858 307.264 506.128 307.264C504 307.264 502.598 308.885 502.598 311.232C502.598 313.603 503.98 315.154 506.232 315.154ZM504.085 310.516C504.144 309.432 504.93 308.492 506.138 308.492C507.291 308.492 508.047 309.347 508.052 310.516H504.085ZM515.523 317.844C516.751 317.844 517.531 317.202 517.969 316.019L521.126 307.379L519.52 307.364L517.586 313.29H517.506L515.572 307.364H513.982L516.776 315.099L516.592 315.607C516.214 316.596 515.682 316.685 514.866 316.462L514.509 317.68C514.688 317.764 515.075 317.844 515.523 317.844ZM525.33 315.154C527.482 315.154 528.889 313.578 528.889 311.217C528.889 308.84 527.482 307.264 525.33 307.264C523.177 307.264 521.77 308.84 521.77 311.217C521.77 313.578 523.177 315.154 525.33 315.154ZM525.335 313.906C523.928 313.906 523.271 312.678 523.271 311.212C523.271 309.75 523.928 308.507 525.335 308.507C526.732 308.507 527.388 309.75 527.388 311.212C527.388 312.678 526.732 313.906 525.335 313.906ZM535.246 311.833C535.251 313.131 534.286 313.747 533.451 313.747C532.531 313.747 531.895 313.081 531.895 312.042V307.364H530.409V312.221C530.409 314.115 531.448 315.099 532.914 315.099C534.063 315.099 534.843 314.493 535.196 313.678H535.276V315H536.737V307.364H535.246V311.833ZM538.595 315H540.081V310.337C540.081 309.337 540.852 308.616 541.906 308.616C542.214 308.616 542.562 308.671 542.681 308.706V307.284C542.532 307.264 542.239 307.249 542.05 307.249C541.155 307.249 540.39 307.756 540.111 308.577H540.032V307.364H538.595V315ZM550.958 307.364H549.391V305.534H547.905V307.364H546.786V308.557H547.905V313.066C547.9 314.453 548.959 315.124 550.132 315.099C550.605 315.094 550.923 315.005 551.097 314.94L550.828 313.712C550.729 313.732 550.545 313.777 550.306 313.777C549.824 313.777 549.391 313.618 549.391 312.758V308.557H550.958V307.364ZM555.596 315.154C557.749 315.154 559.156 313.578 559.156 311.217C559.156 308.84 557.749 307.264 555.596 307.264C553.444 307.264 552.037 308.84 552.037 311.217C552.037 313.578 553.444 315.154 555.596 315.154ZM555.601 313.906C554.194 313.906 553.538 312.678 553.538 311.212C553.538 309.75 554.194 308.507 555.601 308.507C556.998 308.507 557.655 309.75 557.655 311.212C557.655 312.678 556.998 313.906 555.601 313.906ZM565.175 310.053H560.66V311.341H565.175V310.053ZM569.875 315.149C571.267 315.149 571.813 314.299 572.082 313.812H572.206V315H573.658V304.818H572.171V308.602H572.082C571.813 308.129 571.306 307.264 569.884 307.264C568.04 307.264 566.683 308.721 566.683 311.197C566.683 313.668 568.02 315.149 569.875 315.149ZM570.203 313.881C568.875 313.881 568.184 312.713 568.184 311.182C568.184 309.665 568.86 308.527 570.203 308.527C571.5 308.527 572.196 309.586 572.196 311.182C572.196 312.788 571.485 313.881 570.203 313.881ZM578.856 315.154C581.009 315.154 582.416 313.578 582.416 311.217C582.416 308.84 581.009 307.264 578.856 307.264C576.703 307.264 575.296 308.84 575.296 311.217C575.296 313.578 576.703 315.154 578.856 315.154ZM578.861 313.906C577.454 313.906 576.798 312.678 576.798 311.212C576.798 309.75 577.454 308.507 578.861 308.507C580.258 308.507 580.914 309.75 580.914 311.212C580.914 312.678 580.258 313.906 578.861 313.906ZM585.213 304.818H583.94V305.788C583.94 306.558 583.602 307.19 583.214 307.761L583.95 308.288C584.716 307.672 585.213 306.618 585.213 305.773V304.818ZM591.637 309.228C591.328 308.04 590.399 307.264 588.748 307.264C587.023 307.264 585.8 308.174 585.8 309.526C585.8 310.61 586.456 311.331 587.888 311.649L589.181 311.933C589.916 312.097 590.259 312.425 590.259 312.902C590.259 313.494 589.628 313.956 588.654 313.956C587.764 313.956 587.192 313.573 587.013 312.822L585.576 313.041C585.825 314.393 586.948 315.154 588.664 315.154C590.508 315.154 591.786 314.175 591.786 312.793C591.786 311.714 591.1 311.048 589.698 310.724L588.485 310.446C587.644 310.247 587.281 309.964 587.286 309.447C587.281 308.86 587.918 308.442 588.763 308.442C589.688 308.442 590.115 308.955 590.289 309.467L591.637 309.228Z" fill="#111215"/><path d="M945.119 316.818V327H946.58V319.627H946.675L949.678 326.985H950.891L953.893 319.632H953.988V327H955.45V316.818H953.585L950.344 324.733H950.224L946.983 316.818H945.119ZM959.646 327.169C960.909 327.169 961.62 326.528 961.903 325.956H961.963V327H963.415V321.929C963.415 319.707 961.665 319.264 960.451 319.264C959.069 319.264 957.797 319.821 957.299 321.213L958.696 321.531C958.915 320.989 959.472 320.467 960.471 320.467C961.431 320.467 961.923 320.969 961.923 321.835V321.869C961.923 322.411 961.366 322.401 959.994 322.56C958.547 322.729 957.066 323.107 957.066 324.842C957.066 326.344 958.194 327.169 959.646 327.169ZM959.969 325.976C959.129 325.976 958.522 325.598 958.522 324.862C958.522 324.067 959.228 323.783 960.089 323.669C960.571 323.604 961.714 323.475 961.928 323.261V324.246C961.928 325.151 961.207 325.976 959.969 325.976ZM965.254 327H966.741V324.29L967.482 323.55L970.077 327H971.901L968.6 322.64L971.693 319.364H969.913L966.87 322.595H966.741V316.818H965.254V327ZM975.884 327.154C977.55 327.154 978.728 326.334 979.066 325.091L977.659 324.837C977.391 325.558 976.744 325.926 975.899 325.926C974.626 325.926 973.771 325.101 973.731 323.629H979.16V323.102C979.16 320.343 977.51 319.264 975.78 319.264C973.652 319.264 972.25 320.885 972.25 323.232C972.25 325.603 973.632 327.154 975.884 327.154ZM973.736 322.516C973.796 321.432 974.582 320.492 975.79 320.492C976.943 320.492 977.699 321.347 977.704 322.516H973.736ZM984.235 329.864H985.721V325.812H985.811C986.079 326.299 986.626 327.149 988.018 327.149C989.868 327.149 991.21 325.668 991.21 323.197C991.21 320.721 989.848 319.264 988.003 319.264C986.586 319.264 986.074 320.129 985.811 320.602H985.687V319.364H984.235V329.864ZM985.692 323.182C985.692 321.586 986.388 320.527 987.685 320.527C989.032 320.527 989.709 321.665 989.709 323.182C989.709 324.713 989.013 325.881 987.685 325.881C986.407 325.881 985.692 324.788 985.692 323.182ZM997.573 323.833C997.578 325.131 996.613 325.747 995.778 325.747C994.858 325.747 994.222 325.081 994.222 324.042V319.364H992.735V324.221C992.735 326.115 993.775 327.099 995.241 327.099C996.39 327.099 997.17 326.493 997.523 325.678H997.603V327H999.064V319.364H997.573V323.833ZM1001.04 327H1002.49V325.812H1002.62C1002.89 326.299 1003.43 327.149 1004.82 327.149C1006.67 327.149 1008.02 325.668 1008.02 323.197C1008.02 320.721 1006.65 319.264 1004.81 319.264C1003.39 319.264 1002.88 320.129 1002.62 320.602H1002.53V316.818H1001.04V327ZM1002.5 323.182C1002.5 321.586 1003.19 320.527 1004.49 320.527C1005.84 320.527 1006.51 321.665 1006.51 323.182C1006.51 324.713 1005.82 325.881 1004.49 325.881C1003.21 325.881 1002.5 324.788 1002.5 323.182ZM1011.03 316.818H1009.55V327H1011.03V316.818ZM1012.89 327H1014.38V319.364H1012.89V327ZM1013.64 318.185C1014.15 318.185 1014.58 317.788 1014.58 317.3C1014.58 316.813 1014.15 316.411 1013.64 316.411C1013.13 316.411 1012.7 316.813 1012.7 317.3C1012.7 317.788 1013.13 318.185 1013.64 318.185ZM1019.45 327.154C1021.26 327.154 1022.43 326.07 1022.59 324.584H1021.14C1020.96 325.409 1020.31 325.896 1019.46 325.896C1018.21 325.896 1017.4 324.847 1017.4 323.182C1017.4 321.546 1018.22 320.517 1019.46 320.517C1020.41 320.517 1020.99 321.114 1021.14 321.83H1022.59C1022.43 320.288 1021.17 319.264 1019.44 319.264C1017.29 319.264 1015.89 320.885 1015.89 323.217C1015.89 325.518 1017.24 327.154 1019.45 327.154Z" fill="#3700FF"/><path d="M473.233 328.818V339H474.386V331.264H474.486L477.668 339H478.781L481.963 331.264H482.062V339H483.216V328.818H481.744L478.284 337.27H478.165L474.705 328.818H473.233ZM487.636 339.179C488.968 339.179 489.665 338.463 489.903 337.966H489.963V339H491.136V333.969C491.136 331.543 489.287 331.264 488.312 331.264C487.159 331.264 485.846 331.662 485.25 333.054L486.363 333.452C486.622 332.895 487.233 332.298 488.352 332.298C489.431 332.298 489.963 332.87 489.963 333.849V333.889C489.963 334.456 489.386 334.406 487.994 334.585C486.577 334.769 485.031 335.082 485.031 336.832C485.031 338.324 486.184 339.179 487.636 339.179ZM487.815 338.125C486.88 338.125 486.204 337.707 486.204 336.892C486.204 335.997 487.02 335.719 487.934 335.599C488.432 335.54 489.764 335.401 489.963 335.162V336.236C489.963 337.19 489.207 338.125 487.815 338.125ZM493.138 339H494.311V336.141L495.131 335.381L497.99 339H499.481L496.016 334.625L499.243 331.364H497.791L494.45 334.764H494.311V328.818H493.138V339ZM503.5 339.159C505.051 339.159 506.185 338.384 506.543 337.23L505.409 336.912C505.111 337.707 504.42 338.105 503.5 338.105C502.123 338.105 501.173 337.215 501.119 335.58H506.662V335.082C506.662 332.239 504.972 331.264 503.381 331.264C501.313 331.264 499.94 332.895 499.94 335.241C499.94 337.588 501.293 339.159 503.5 339.159ZM501.119 334.565C501.198 333.377 502.038 332.318 503.381 332.318C504.654 332.318 505.469 333.273 505.469 334.565H501.119ZM512.86 341.844C513.919 341.844 514.67 341.282 515.107 340.114L518.359 331.384L517.076 331.364L514.968 337.449H514.888L512.78 331.364H511.508L514.332 339.04L514.113 339.636C513.695 340.78 513.158 340.889 512.303 340.67L512.005 341.705C512.124 341.764 512.462 341.844 512.86 341.844ZM522.6 339.159C524.668 339.159 526.06 337.588 526.06 335.222C526.06 332.835 524.668 331.264 522.6 331.264C520.532 331.264 519.14 332.835 519.14 335.222C519.14 337.588 520.532 339.159 522.6 339.159ZM522.6 338.105C521.029 338.105 520.313 336.753 520.313 335.222C520.313 333.69 521.029 332.318 522.6 332.318C524.171 332.318 524.887 333.69 524.887 335.222C524.887 336.753 524.171 338.105 522.6 338.105ZM532.524 335.878C532.524 337.31 531.43 337.966 530.555 337.966C529.58 337.966 528.884 337.25 528.884 336.136V331.364H527.711V336.216C527.711 338.165 528.745 339.099 530.177 339.099C531.33 339.099 532.086 338.483 532.444 337.707H532.524V339H533.697V331.364H532.524V335.878ZM535.706 339H536.879V334.168C536.879 333.134 537.694 332.378 538.808 332.378C539.121 332.378 539.444 332.438 539.524 332.457V331.264C539.39 331.254 539.082 331.244 538.908 331.244C537.993 331.244 537.197 331.761 536.919 332.517H536.839V331.364H535.706V339ZM545.746 328.818H544.572V339H545.746V328.818ZM547.755 339H548.928V331.364H547.755V339ZM548.351 330.091C548.809 330.091 549.186 329.733 549.186 329.295C549.186 328.858 548.809 328.5 548.351 328.5C547.894 328.5 547.516 328.858 547.516 329.295C547.516 329.733 547.894 330.091 548.351 330.091ZM556.346 333.074C555.978 331.99 555.153 331.264 553.641 331.264C552.031 331.264 550.837 332.179 550.837 333.472C550.837 334.526 551.464 335.232 552.866 335.56L554.139 335.858C554.909 336.037 555.272 336.405 555.272 336.932C555.272 337.588 554.576 338.125 553.482 338.125C552.523 338.125 551.921 337.712 551.712 336.892L550.599 337.17C550.872 338.468 551.941 339.159 553.502 339.159C555.277 339.159 556.485 338.19 556.485 336.872C556.485 335.808 555.819 335.137 554.457 334.804L553.323 334.526C552.418 334.302 552.011 333.999 552.011 333.412C552.011 332.756 552.707 332.278 553.641 332.278C554.666 332.278 555.088 332.845 555.292 333.372L556.346 333.074ZM561.432 331.364H559.802V329.534H558.628V331.364H557.475V332.358H558.628V337.131C558.628 338.463 559.702 339.099 560.697 339.099C561.134 339.099 561.412 339.02 561.572 338.96L561.333 337.906C561.233 337.926 561.074 337.966 560.816 337.966C560.299 337.966 559.802 337.807 559.802 336.812V332.358H561.432V331.364ZM566.855 341.864H568.028V337.827H568.127C568.386 338.244 568.883 339.159 570.355 339.159C572.264 339.159 573.596 337.628 573.596 335.202C573.596 332.795 572.264 331.264 570.335 331.264C568.843 331.264 568.386 332.179 568.127 332.577H567.988V331.364H566.855V341.864ZM568.008 335.182C568.008 333.472 568.764 332.318 570.196 332.318C571.687 332.318 572.423 333.571 572.423 335.182C572.423 336.812 571.667 338.105 570.196 338.105C568.784 338.105 568.008 336.912 568.008 335.182ZM580.058 335.878C580.058 337.31 578.965 337.966 578.09 337.966C577.115 337.966 576.419 337.25 576.419 336.136V331.364H575.246V336.216C575.246 338.165 576.28 339.099 577.712 339.099C578.865 339.099 579.621 338.483 579.979 337.707H580.058V339H581.232V331.364H580.058V335.878ZM583.4 339H584.533V337.827H584.673C584.931 338.244 585.428 339.159 586.9 339.159C588.809 339.159 590.141 337.628 590.141 335.202C590.141 332.795 588.809 331.264 586.88 331.264C585.388 331.264 584.931 332.179 584.673 332.577H584.573V328.818H583.4V339ZM584.553 335.182C584.553 333.472 585.309 332.318 586.741 332.318C588.232 332.318 588.968 333.571 588.968 335.182C588.968 336.812 588.212 338.105 586.741 338.105C585.329 338.105 584.553 336.912 584.553 335.182ZM592.969 328.818H591.796V339H592.969V328.818ZM594.978 339H596.152V331.364H594.978V339ZM595.575 330.091C596.032 330.091 596.41 329.733 596.41 329.295C596.41 328.858 596.032 328.5 595.575 328.5C595.118 328.5 594.74 328.858 594.74 329.295C594.74 329.733 595.118 330.091 595.575 330.091ZM601.263 339.159C602.953 339.159 604.067 338.125 604.266 336.773H603.092C602.874 337.608 602.178 338.105 601.263 338.105C599.871 338.105 598.976 336.952 598.976 335.182C598.976 333.452 599.891 332.318 601.263 332.318C602.297 332.318 602.913 332.955 603.092 333.651H604.266C604.067 332.219 602.854 331.264 601.243 331.264C599.175 331.264 597.803 332.895 597.803 335.222C597.803 337.509 599.115 339.159 601.263 339.159ZM612.959 331.364H611.329V329.534H610.155V331.364H609.002V332.358H610.155V337.131C610.155 338.463 611.229 339.099 612.224 339.099C612.661 339.099 612.94 339.02 613.099 338.96L612.86 337.906C612.761 337.926 612.601 337.966 612.343 337.966C611.826 337.966 611.329 337.807 611.329 336.812V332.358H612.959V331.364ZM617.605 339.159C619.673 339.159 621.065 337.588 621.065 335.222C621.065 332.835 619.673 331.264 617.605 331.264C615.536 331.264 614.144 332.835 614.144 335.222C614.144 337.588 615.536 339.159 617.605 339.159ZM617.605 338.105C616.034 338.105 615.318 336.753 615.318 335.222C615.318 333.69 616.034 332.318 617.605 332.318C619.176 332.318 619.892 333.69 619.892 335.222C619.892 336.753 619.176 338.105 617.605 338.105ZM631.922 333.074C631.555 331.99 630.729 331.264 629.218 331.264C627.607 331.264 626.414 332.179 626.414 333.472C626.414 334.526 627.04 335.232 628.442 335.56L629.715 335.858C630.486 336.037 630.849 336.405 630.849 336.932C630.849 337.588 630.153 338.125 629.059 338.125C628.099 338.125 627.498 337.712 627.289 336.892L626.175 337.17C626.449 338.468 627.518 339.159 629.079 339.159C630.854 339.159 632.062 338.19 632.062 336.872C632.062 335.808 631.395 335.137 630.033 334.804L628.9 334.526C627.995 334.302 627.587 333.999 627.587 333.412C627.587 332.756 628.283 332.278 629.218 332.278C630.242 332.278 630.665 332.845 630.868 333.372L631.922 333.074ZM634.861 334.406C634.861 333.074 635.711 332.318 636.87 332.318C637.973 332.318 638.639 333.014 638.639 334.227V339H639.813V334.148C639.813 332.184 638.769 331.264 637.208 331.264C636.005 331.264 635.318 331.766 634.96 332.557H634.861V328.818H633.688V339H634.861V334.406ZM644.066 339.179C645.399 339.179 646.095 338.463 646.333 337.966H646.393V339H647.566V333.969C647.566 331.543 645.717 331.264 644.743 331.264C643.589 331.264 642.277 331.662 641.68 333.054L642.794 333.452C643.052 332.895 643.664 332.298 644.782 332.298C645.861 332.298 646.393 332.87 646.393 333.849V333.889C646.393 334.456 645.816 334.406 644.424 334.585C643.007 334.769 641.461 335.082 641.461 336.832C641.461 338.324 642.615 339.179 644.066 339.179ZM644.245 338.125C643.311 338.125 642.635 337.707 642.635 336.892C642.635 335.997 643.45 335.719 644.365 335.599C644.862 335.54 646.194 335.401 646.393 335.162V336.236C646.393 337.19 645.637 338.125 644.245 338.125ZM649.568 339H650.741V334.168C650.741 333.134 651.557 332.378 652.67 332.378C652.983 332.378 653.307 332.438 653.386 332.457V331.264C653.252 331.254 652.944 331.244 652.77 331.244C651.855 331.244 651.059 331.761 650.781 332.517H650.701V331.364H649.568V339ZM657.606 339.159C659.157 339.159 660.291 338.384 660.649 337.23L659.515 336.912C659.217 337.707 658.526 338.105 657.606 338.105C656.229 338.105 655.279 337.215 655.225 335.58H660.768V335.082C660.768 332.239 659.078 331.264 657.487 331.264C655.419 331.264 654.047 332.895 654.047 335.241C654.047 337.588 655.399 339.159 657.606 339.159ZM655.225 334.565C655.304 333.377 656.145 332.318 657.487 332.318C658.76 332.318 659.575 333.273 659.575 334.565H655.225ZM666.21 339H667.384V331.364H666.21V339ZM666.807 330.091C667.264 330.091 667.642 329.733 667.642 329.295C667.642 328.858 667.264 328.5 666.807 328.5C666.35 328.5 665.972 328.858 665.972 329.295C665.972 329.733 666.35 330.091 666.807 330.091ZM672.714 331.364H671.083V329.534H669.91V331.364H668.756V332.358H669.91V337.131C669.91 338.463 670.984 339.099 671.978 339.099C672.415 339.099 672.694 339.02 672.853 338.96L672.614 337.906C672.515 337.926 672.356 337.966 672.097 337.966C671.58 337.966 671.083 337.807 671.083 336.812V332.358H672.714V331.364ZM679.866 339H681.02L682.69 333.134H682.809L684.48 339H685.633L687.96 331.364H686.727L685.076 337.19H684.997L683.386 331.364H682.133L680.503 337.21H680.423L678.772 331.364H677.54L679.866 339ZM689.371 339H690.544V331.364H689.371V339ZM689.968 330.091C690.425 330.091 690.803 329.733 690.803 329.295C690.803 328.858 690.425 328.5 689.968 328.5C689.51 328.5 689.132 328.858 689.132 329.295C689.132 329.733 689.51 330.091 689.968 330.091ZM695.874 331.364H694.244V329.534H693.07V331.364H691.917V332.358H693.07V337.131C693.07 338.463 694.144 339.099 695.139 339.099C695.576 339.099 695.855 339.02 696.014 338.96L695.775 337.906C695.676 337.926 695.516 337.966 695.258 337.966C694.741 337.966 694.244 337.807 694.244 336.812V332.358H695.874V331.364ZM698.837 334.406C698.837 333.074 699.687 332.318 700.845 332.318C701.949 332.318 702.615 333.014 702.615 334.227V339H703.788V334.148C703.788 332.184 702.744 331.264 701.183 331.264C699.98 331.264 699.294 331.766 698.936 332.557H698.837V328.818H697.663V339H698.837V334.406ZM712.695 339.159C714.763 339.159 716.155 337.588 716.155 335.222C716.155 332.835 714.763 331.264 712.695 331.264C710.626 331.264 709.234 332.835 709.234 335.222C709.234 337.588 710.626 339.159 712.695 339.159ZM712.695 338.105C711.124 338.105 710.408 336.753 710.408 335.222C710.408 333.69 711.124 332.318 712.695 332.318C714.266 332.318 714.982 333.69 714.982 335.222C714.982 336.753 714.266 338.105 712.695 338.105ZM721.127 331.364H719.496V329.534H718.323V331.364H717.17V332.358H718.323V337.131C718.323 338.463 719.397 339.099 720.391 339.099C720.829 339.099 721.107 339.02 721.266 338.96L721.027 337.906C720.928 337.926 720.769 337.966 720.51 337.966C719.993 337.966 719.496 337.807 719.496 336.812V332.358H721.127V331.364ZM724.089 334.406C724.089 333.074 724.939 332.318 726.098 332.318C727.201 332.318 727.868 333.014 727.868 334.227V339H729.041V334.148C729.041 332.184 727.997 331.264 726.436 331.264C725.233 331.264 724.547 331.766 724.189 332.557H724.089V328.818H722.916V339H724.089V334.406ZM734.249 339.159C735.8 339.159 736.934 338.384 737.292 337.23L736.158 336.912C735.86 337.707 735.169 338.105 734.249 338.105C732.872 338.105 731.922 337.215 731.868 335.58H737.411V335.082C737.411 332.239 735.721 331.264 734.13 331.264C732.062 331.264 730.689 332.895 730.689 335.241C730.689 337.588 732.042 339.159 734.249 339.159ZM731.868 334.565C731.947 333.377 732.787 332.318 734.13 332.318C735.402 332.318 736.218 333.273 736.218 334.565H731.868ZM739.056 339H740.229V334.168C740.229 333.134 741.044 332.378 742.158 332.378C742.471 332.378 742.794 332.438 742.874 332.457V331.264C742.74 331.254 742.432 331.244 742.258 331.244C741.343 331.244 740.547 331.761 740.269 332.517H740.189V331.364H739.056V339ZM749.534 333.074C749.166 331.99 748.341 331.264 746.829 331.264C745.219 331.264 744.025 332.179 744.025 333.472C744.025 334.526 744.652 335.232 746.054 335.56L747.327 335.858C748.097 336.037 748.46 336.405 748.46 336.932C748.46 337.588 747.764 338.125 746.67 338.125C745.711 338.125 745.109 337.712 744.9 336.892L743.787 337.17C744.06 338.468 745.129 339.159 746.69 339.159C748.465 339.159 749.673 338.19 749.673 336.872C749.673 335.808 749.007 335.137 747.645 334.804L746.511 334.526C745.606 334.302 745.199 333.999 745.199 333.412C745.199 332.756 745.895 332.278 746.829 332.278C747.853 332.278 748.276 332.845 748.48 333.372L749.534 333.074Z" fill="#767A85"/><circle cx="436" cy="322" r="20" fill="#F2F2FF"/><path d="M435.262 325.031L436.561 323.739C435.911 323.664 435.337 323.411 434.975 323.049C433.888 321.955 433.881 320.438 434.968 319.351L437.312 317.013C438.399 315.926 439.917 315.926 441.004 317.013C442.098 318.106 442.098 319.624 441.018 320.704L440.177 321.538C440.45 322.16 440.573 322.974 440.361 323.671L442.234 321.812C443.998 320.068 443.991 317.56 442.221 315.796C440.45 314.025 437.962 314.032 436.205 315.789L433.751 318.243C431.994 320 431.994 322.495 433.758 324.259C434.1 324.601 434.633 324.901 435.262 325.031ZM436.731 319.009L435.433 320.308C436.082 320.383 436.649 320.636 437.012 320.998C438.105 322.092 438.105 323.609 437.025 324.689L434.674 327.034C433.587 328.121 432.069 328.121 430.989 327.034C429.889 325.94 429.889 324.423 430.976 323.336L431.81 322.502C431.543 321.88 431.42 321.073 431.632 320.369L429.759 322.229C427.995 323.979 428.002 326.48 429.766 328.244C431.536 330.015 434.031 330.008 435.781 328.258L438.242 325.797C439.992 324.04 439.999 321.545 438.229 319.781C437.894 319.439 437.36 319.146 436.731 319.009Z" fill="#3700FF"/><rect x="392" y="392" width="656" height="48" rx="8" fill="#FAFAFC"/><line x1="440.5" y1="406" x2="440.5" y2="426" stroke="#C1C3CC"/><path d="M446 422C449.545 422 451.545 419.795 451.545 416.159C451.545 412.545 449.545 410.364 446.159 410.364H442.409V422H446ZM443.818 420.75V411.614H446.068C448.795 411.614 450.182 413.341 450.182 416.159C450.182 419 448.795 420.75 445.909 420.75H443.818ZM457.226 422.182C458.999 422.182 460.295 421.295 460.704 419.977L459.408 419.614C459.067 420.523 458.278 420.977 457.226 420.977C455.653 420.977 454.567 419.96 454.505 418.091H460.84V417.523C460.84 414.273 458.908 413.159 457.09 413.159C454.726 413.159 453.158 415.023 453.158 417.705C453.158 420.386 454.704 422.182 457.226 422.182ZM454.505 416.932C454.596 415.574 455.556 414.364 457.09 414.364C458.545 414.364 459.476 415.455 459.476 416.932H454.505ZM468.902 415.227C468.481 413.989 467.538 413.159 465.811 413.159C463.97 413.159 462.606 414.205 462.606 415.682C462.606 416.886 463.322 417.693 464.924 418.068L466.379 418.409C467.26 418.614 467.674 419.034 467.674 419.636C467.674 420.386 466.879 421 465.629 421C464.532 421 463.845 420.528 463.606 419.591L462.333 419.909C462.646 421.392 463.868 422.182 465.652 422.182C467.68 422.182 469.061 421.074 469.061 419.568C469.061 418.352 468.299 417.585 466.743 417.205L465.447 416.886C464.413 416.631 463.947 416.284 463.947 415.614C463.947 414.864 464.743 414.318 465.811 414.318C466.981 414.318 467.464 414.966 467.697 415.568L468.902 415.227ZM470.919 422H472.26V413.273H470.919V422ZM471.601 411.818C472.124 411.818 472.556 411.409 472.556 410.909C472.556 410.409 472.124 410 471.601 410C471.078 410 470.646 410.409 470.646 410.909C470.646 411.409 471.078 411.818 471.601 411.818ZM478.079 425.455C480.17 425.455 481.851 424.5 481.851 422.25V413.273H480.556V414.659H480.42C480.124 414.205 479.579 413.159 477.874 413.159C475.67 413.159 474.147 414.909 474.147 417.591C474.147 420.318 475.738 421.864 477.851 421.864C479.556 421.864 480.101 420.864 480.397 420.386H480.511V422.159C480.511 423.614 479.488 424.273 478.079 424.273C476.494 424.273 475.937 423.438 475.579 422.955L474.511 423.705C475.056 424.619 476.13 425.455 478.079 425.455ZM478.033 420.659C476.351 420.659 475.488 419.386 475.488 417.568C475.488 415.795 476.329 414.364 478.033 414.364C479.67 414.364 480.533 415.682 480.533 417.568C480.533 419.5 479.647 420.659 478.033 420.659ZM485.487 416.75C485.487 415.227 486.43 414.364 487.714 414.364C488.959 414.364 489.714 415.176 489.714 416.545V422H491.055V416.455C491.055 414.227 489.868 413.159 488.101 413.159C486.782 413.159 485.964 413.75 485.555 414.636H485.441V413.273H484.146V422H485.487V416.75ZM501.481 413.273H499.617V411.182H498.276V413.273H496.958V414.409H498.276V419.864C498.276 421.386 499.504 422.114 500.64 422.114C501.14 422.114 501.458 422.023 501.64 421.955L501.367 420.75C501.254 420.773 501.072 420.818 500.776 420.818C500.185 420.818 499.617 420.636 499.617 419.5V414.409H501.481V413.273ZM504.866 416.75C504.866 415.227 505.838 414.364 507.162 414.364C508.423 414.364 509.184 415.159 509.184 416.545V422H510.525V416.455C510.525 414.21 509.332 413.159 507.548 413.159C506.173 413.159 505.389 413.733 504.98 414.636H504.866V410.364H503.525V422H504.866V416.75ZM516.478 422.182C518.25 422.182 519.546 421.295 519.955 419.977L518.659 419.614C518.319 420.523 517.529 420.977 516.478 420.977C514.904 420.977 513.819 419.96 513.756 418.091H520.091V417.523C520.091 414.273 518.159 413.159 516.341 413.159C513.978 413.159 512.409 415.023 512.409 417.705C512.409 420.386 513.955 422.182 516.478 422.182ZM513.756 416.932C513.847 415.574 514.807 414.364 516.341 414.364C517.796 414.364 518.728 415.455 518.728 416.932H513.756ZM526.311 425.273H527.652V420.659H527.766C528.061 421.136 528.629 422.182 530.311 422.182C532.493 422.182 534.016 420.432 534.016 417.659C534.016 414.909 532.493 413.159 530.288 413.159C528.584 413.159 528.061 414.205 527.766 414.659H527.606V413.273H526.311V425.273ZM527.629 417.636C527.629 415.682 528.493 414.364 530.129 414.364C531.834 414.364 532.675 415.795 532.675 417.636C532.675 419.5 531.811 420.977 530.129 420.977C528.516 420.977 527.629 419.614 527.629 417.636ZM537.242 410.364H535.901V422H537.242V410.364ZM542.106 422.205C543.629 422.205 544.424 421.386 544.697 420.818H544.765V422H546.106V416.25C546.106 413.477 543.992 413.159 542.879 413.159C541.561 413.159 540.061 413.614 539.379 415.205L540.652 415.659C540.947 415.023 541.646 414.341 542.924 414.341C544.157 414.341 544.765 414.994 544.765 416.114V416.159C544.765 416.807 544.106 416.75 542.515 416.955C540.896 417.165 539.129 417.523 539.129 419.523C539.129 421.227 540.447 422.205 542.106 422.205ZM542.311 421C541.242 421 540.47 420.523 540.47 419.591C540.47 418.568 541.402 418.25 542.447 418.114C543.015 418.045 544.538 417.886 544.765 417.614V418.841C544.765 419.932 543.902 421 542.311 421ZM551.939 422.182C553.871 422.182 555.144 421 555.371 419.455H554.03C553.78 420.409 552.984 420.977 551.939 420.977C550.348 420.977 549.325 419.659 549.325 417.636C549.325 415.659 550.371 414.364 551.939 414.364C553.121 414.364 553.825 415.091 554.03 415.886H555.371C555.144 414.25 553.757 413.159 551.916 413.159C549.553 413.159 547.984 415.023 547.984 417.682C547.984 420.295 549.484 422.182 551.939 422.182ZM560.83 422.182C562.603 422.182 563.898 421.295 564.307 419.977L563.012 419.614C562.671 420.523 561.881 420.977 560.83 420.977C559.256 420.977 558.171 419.96 558.109 418.091H564.444V417.523C564.444 414.273 562.512 413.159 560.694 413.159C558.33 413.159 556.762 415.023 556.762 417.705C556.762 420.386 558.307 422.182 560.83 422.182ZM558.109 416.932C558.199 415.574 559.16 414.364 560.694 414.364C562.148 414.364 563.08 415.455 563.08 416.932H558.109ZM567.664 416.75C567.664 415.227 568.636 414.364 569.96 414.364C571.221 414.364 571.983 415.159 571.983 416.545V422H573.324V416.455C573.324 414.21 572.13 413.159 570.346 413.159C568.971 413.159 568.187 413.733 567.778 414.636H567.664V410.364H566.324V422H567.664V416.75ZM579.162 422.182C581.526 422.182 583.117 420.386 583.117 417.682C583.117 414.955 581.526 413.159 579.162 413.159C576.798 413.159 575.208 414.955 575.208 417.682C575.208 420.386 576.798 422.182 579.162 422.182ZM579.162 420.977C577.367 420.977 576.548 419.432 576.548 417.682C576.548 415.932 577.367 414.364 579.162 414.364C580.958 414.364 581.776 415.932 581.776 417.682C581.776 419.432 580.958 420.977 579.162 420.977ZM586.344 410.364H585.004V422H586.344V410.364ZM591.936 422.182C593.618 422.182 594.186 421.136 594.481 420.659H594.64V422H595.936V410.364H594.595V414.659H594.481C594.186 414.205 593.663 413.159 591.959 413.159C589.754 413.159 588.231 414.909 588.231 417.659C588.231 420.432 589.754 422.182 591.936 422.182ZM592.118 420.977C590.436 420.977 589.572 419.5 589.572 417.636C589.572 415.795 590.413 414.364 592.118 414.364C593.754 414.364 594.618 415.682 594.618 417.636C594.618 419.614 593.731 420.977 592.118 420.977ZM602.077 422.182C603.85 422.182 605.145 421.295 605.554 419.977L604.259 419.614C603.918 420.523 603.128 420.977 602.077 420.977C600.503 420.977 599.418 419.96 599.355 418.091H605.691V417.523C605.691 414.273 603.759 413.159 601.941 413.159C599.577 413.159 598.009 415.023 598.009 417.705C598.009 420.386 599.554 422.182 602.077 422.182ZM599.355 416.932C599.446 415.574 600.407 414.364 601.941 414.364C603.395 414.364 604.327 415.455 604.327 416.932H599.355ZM607.57 422H608.911V416.477C608.911 415.295 609.843 414.432 611.116 414.432C611.474 414.432 611.843 414.5 611.934 414.523V413.159C611.781 413.148 611.428 413.136 611.229 413.136C610.184 413.136 609.275 413.727 608.957 414.591H608.866V413.273H607.57V422ZM623.885 415.227C623.465 413.989 622.522 413.159 620.794 413.159C618.954 413.159 617.59 414.205 617.59 415.682C617.59 416.886 618.306 417.693 619.908 418.068L621.363 418.409C622.243 418.614 622.658 419.034 622.658 419.636C622.658 420.386 621.863 421 620.613 421C619.516 421 618.829 420.528 618.59 419.591L617.317 419.909C617.63 421.392 618.851 422.182 620.635 422.182C622.664 422.182 624.044 421.074 624.044 419.568C624.044 418.352 623.283 417.585 621.726 417.205L620.431 416.886C619.397 416.631 618.931 416.284 618.931 415.614C618.931 414.864 619.726 414.318 620.794 414.318C621.965 414.318 622.448 414.966 622.681 415.568L623.885 415.227ZM629.698 413.273H627.835V411.182H626.494V413.273H625.176V414.409H626.494V419.864C626.494 421.386 627.721 422.114 628.857 422.114C629.357 422.114 629.676 422.023 629.857 421.955L629.585 420.75C629.471 420.773 629.289 420.818 628.994 420.818C628.403 420.818 627.835 420.636 627.835 419.5V414.409H629.698V413.273ZM634.124 422.205C635.646 422.205 636.442 421.386 636.714 420.818H636.783V422H638.124V416.25C638.124 413.477 636.01 413.159 634.896 413.159C633.578 413.159 632.078 413.614 631.396 415.205L632.669 415.659C632.964 415.023 633.663 414.341 634.942 414.341C636.175 414.341 636.783 414.994 636.783 416.114V416.159C636.783 416.807 636.124 416.75 634.533 416.955C632.913 417.165 631.146 417.523 631.146 419.523C631.146 421.227 632.464 422.205 634.124 422.205ZM634.328 421C633.26 421 632.487 420.523 632.487 419.591C632.487 418.568 633.419 418.25 634.464 418.114C635.033 418.045 636.555 417.886 636.783 417.614V418.841C636.783 419.932 635.919 421 634.328 421ZM644.206 413.273H642.343V411.182H641.002V413.273H639.684V414.409H641.002V419.864C641.002 421.386 642.229 422.114 643.366 422.114C643.866 422.114 644.184 422.023 644.366 421.955L644.093 420.75C643.979 420.773 643.797 420.818 643.502 420.818C642.911 420.818 642.343 420.636 642.343 419.5V414.409H644.206V413.273ZM649.629 422.182C651.402 422.182 652.697 421.295 653.106 419.977L651.811 419.614C651.47 420.523 650.68 420.977 649.629 420.977C648.055 420.977 646.97 419.96 646.907 418.091H653.242V417.523C653.242 414.273 651.311 413.159 649.492 413.159C647.129 413.159 645.561 415.023 645.561 417.705C645.561 420.386 647.106 422.182 649.629 422.182ZM646.907 416.932C646.998 415.574 647.958 414.364 649.492 414.364C650.947 414.364 651.879 415.455 651.879 416.932H646.907Z" fill="#C1C3CC"/><g filter="url(#filter1_d)"><rect x="416" y="408" width="16" height="16" rx="4" fill="#fff"/><rect x="416.5" y="408.5" width="15" height="15" rx="3.5" stroke="#C1C3CC"/></g><rect x="392" y="440" width="656" height="48" rx="8" fill="#fff"/><path d="M446 470C449.545 470 451.545 467.795 451.545 464.159C451.545 460.545 449.545 458.364 446.159 458.364H442.409V470H446ZM443.818 468.75V459.614H446.068C448.795 459.614 450.182 461.341 450.182 464.159C450.182 467 448.795 468.75 445.909 468.75H443.818ZM457.226 470.182C458.999 470.182 460.295 469.295 460.704 467.977L459.408 467.614C459.067 468.523 458.278 468.977 457.226 468.977C455.653 468.977 454.567 467.96 454.505 466.091H460.84V465.523C460.84 462.273 458.908 461.159 457.09 461.159C454.726 461.159 453.158 463.023 453.158 465.705C453.158 468.386 454.704 470.182 457.226 470.182ZM454.505 464.932C454.596 463.574 455.556 462.364 457.09 462.364C458.545 462.364 459.476 463.455 459.476 464.932H454.505ZM468.902 463.227C468.481 461.989 467.538 461.159 465.811 461.159C463.97 461.159 462.606 462.205 462.606 463.682C462.606 464.886 463.322 465.693 464.924 466.068L466.379 466.409C467.26 466.614 467.674 467.034 467.674 467.636C467.674 468.386 466.879 469 465.629 469C464.532 469 463.845 468.528 463.606 467.591L462.333 467.909C462.646 469.392 463.868 470.182 465.652 470.182C467.68 470.182 469.061 469.074 469.061 467.568C469.061 466.352 468.299 465.585 466.743 465.205L465.447 464.886C464.413 464.631 463.947 464.284 463.947 463.614C463.947 462.864 464.743 462.318 465.811 462.318C466.981 462.318 467.464 462.966 467.697 463.568L468.902 463.227ZM470.919 470H472.26V461.273H470.919V470ZM471.601 459.818C472.124 459.818 472.556 459.409 472.556 458.909C472.556 458.409 472.124 458 471.601 458C471.078 458 470.646 458.409 470.646 458.909C470.646 459.409 471.078 459.818 471.601 459.818ZM478.079 473.455C480.17 473.455 481.851 472.5 481.851 470.25V461.273H480.556V462.659H480.42C480.124 462.205 479.579 461.159 477.874 461.159C475.67 461.159 474.147 462.909 474.147 465.591C474.147 468.318 475.738 469.864 477.851 469.864C479.556 469.864 480.101 468.864 480.397 468.386H480.511V470.159C480.511 471.614 479.488 472.273 478.079 472.273C476.494 472.273 475.937 471.438 475.579 470.955L474.511 471.705C475.056 472.619 476.13 473.455 478.079 473.455ZM478.033 468.659C476.351 468.659 475.488 467.386 475.488 465.568C475.488 463.795 476.329 462.364 478.033 462.364C479.67 462.364 480.533 463.682 480.533 465.568C480.533 467.5 479.647 468.659 478.033 468.659ZM485.487 464.75C485.487 463.227 486.43 462.364 487.714 462.364C488.959 462.364 489.714 463.176 489.714 464.545V470H491.055V464.455C491.055 462.227 489.868 461.159 488.101 461.159C486.782 461.159 485.964 461.75 485.555 462.636H485.441V461.273H484.146V470H485.487V464.75ZM501.481 461.273H499.617V459.182H498.276V461.273H496.958V462.409H498.276V467.864C498.276 469.386 499.504 470.114 500.64 470.114C501.14 470.114 501.458 470.023 501.64 469.955L501.367 468.75C501.254 468.773 501.072 468.818 500.776 468.818C500.185 468.818 499.617 468.636 499.617 467.5V462.409H501.481V461.273ZM504.866 464.75C504.866 463.227 505.838 462.364 507.162 462.364C508.423 462.364 509.184 463.159 509.184 464.545V470H510.525V464.455C510.525 462.21 509.332 461.159 507.548 461.159C506.173 461.159 505.389 461.733 504.98 462.636H504.866V458.364H503.525V470H504.866V464.75ZM516.478 470.182C518.25 470.182 519.546 469.295 519.955 467.977L518.659 467.614C518.319 468.523 517.529 468.977 516.478 468.977C514.904 468.977 513.819 467.96 513.756 466.091H520.091V465.523C520.091 462.273 518.159 461.159 516.341 461.159C513.978 461.159 512.409 463.023 512.409 465.705C512.409 468.386 513.955 470.182 516.478 470.182ZM513.756 464.932C513.847 463.574 514.807 462.364 516.341 462.364C517.796 462.364 518.728 463.455 518.728 464.932H513.756ZM529.606 470.182C531.288 470.182 531.856 469.136 532.152 468.659H532.311V470H533.606V458.364H532.266V462.659H532.152C531.856 462.205 531.334 461.159 529.629 461.159C527.425 461.159 525.902 462.909 525.902 465.659C525.902 468.432 527.425 470.182 529.606 470.182ZM529.788 468.977C528.106 468.977 527.243 467.5 527.243 465.636C527.243 463.795 528.084 462.364 529.788 462.364C531.425 462.364 532.288 463.682 532.288 465.636C532.288 467.614 531.402 468.977 529.788 468.977ZM539.748 470.182C541.52 470.182 542.816 469.295 543.225 467.977L541.929 467.614C541.589 468.523 540.799 468.977 539.748 468.977C538.174 468.977 537.089 467.96 537.026 466.091H543.361V465.523C543.361 462.273 541.429 461.159 539.611 461.159C537.248 461.159 535.679 463.023 535.679 465.705C535.679 468.386 537.225 470.182 539.748 470.182ZM537.026 464.932C537.117 463.574 538.077 462.364 539.611 462.364C541.066 462.364 541.998 463.455 541.998 464.932H537.026ZM549.127 461.273H547.173V460.386C547.173 459.523 547.536 459.068 548.423 459.068C548.809 459.068 549.036 459.159 549.173 459.205L549.559 458.045C549.355 457.955 548.946 457.818 548.286 457.818C547.036 457.818 545.832 458.568 545.832 460.068V461.273H544.423V462.409H545.832V470H547.173V462.409H549.127V461.273ZM553.165 470.205C554.688 470.205 555.483 469.386 555.756 468.818H555.824V470H557.165V464.25C557.165 461.477 555.051 461.159 553.938 461.159C552.619 461.159 551.119 461.614 550.438 463.205L551.71 463.659C552.006 463.023 552.705 462.341 553.983 462.341C555.216 462.341 555.824 462.994 555.824 464.114V464.159C555.824 464.807 555.165 464.75 553.574 464.955C551.955 465.165 550.188 465.523 550.188 467.523C550.188 469.227 551.506 470.205 553.165 470.205ZM553.369 469C552.301 469 551.528 468.523 551.528 467.591C551.528 466.568 552.46 466.25 553.506 466.114C554.074 466.045 555.597 465.886 555.824 465.614V466.841C555.824 467.932 554.96 469 553.369 469ZM564.952 466.432C564.952 468.068 563.702 468.818 562.702 468.818C561.589 468.818 560.793 468 560.793 466.727V461.273H559.452V466.818C559.452 469.045 560.634 470.114 562.27 470.114C563.589 470.114 564.452 469.409 564.861 468.523H564.952V470H566.293V461.273H564.952V466.432ZM569.93 458.364H568.589V470H569.93V458.364ZM576.021 461.273H574.158V459.182H572.817V461.273H571.499V462.409H572.817V467.864C572.817 469.386 574.044 470.114 575.181 470.114C575.681 470.114 575.999 470.023 576.181 469.955L575.908 468.75C575.794 468.773 575.612 468.818 575.317 468.818C574.726 468.818 574.158 468.636 574.158 467.5V462.409H576.021V461.273ZM588.4 463.227C587.98 461.989 587.037 461.159 585.309 461.159C583.469 461.159 582.105 462.205 582.105 463.682C582.105 464.886 582.821 465.693 584.423 466.068L585.878 466.409C586.758 466.614 587.173 467.034 587.173 467.636C587.173 468.386 586.378 469 585.128 469C584.031 469 583.344 468.528 583.105 467.591L581.832 467.909C582.145 469.392 583.366 470.182 585.15 470.182C587.179 470.182 588.559 469.074 588.559 467.568C588.559 466.352 587.798 465.585 586.241 465.205L584.946 464.886C583.912 464.631 583.446 464.284 583.446 463.614C583.446 462.864 584.241 462.318 585.309 462.318C586.48 462.318 586.963 462.966 587.196 463.568L588.4 463.227ZM594.213 461.273H592.35V459.182H591.009V461.273H589.691V462.409H591.009V467.864C591.009 469.386 592.236 470.114 593.372 470.114C593.872 470.114 594.191 470.023 594.372 469.955L594.1 468.75C593.986 468.773 593.804 468.818 593.509 468.818C592.918 468.818 592.35 468.636 592.35 467.5V462.409H594.213V461.273ZM598.639 470.205C600.161 470.205 600.957 469.386 601.229 468.818H601.298V470H602.639V464.25C602.639 461.477 600.525 461.159 599.411 461.159C598.093 461.159 596.593 461.614 595.911 463.205L597.184 463.659C597.479 463.023 598.178 462.341 599.457 462.341C600.69 462.341 601.298 462.994 601.298 464.114V464.159C601.298 464.807 600.639 464.75 599.048 464.955C597.428 465.165 595.661 465.523 595.661 467.523C595.661 469.227 596.979 470.205 598.639 470.205ZM598.843 469C597.775 469 597.002 468.523 597.002 467.591C597.002 466.568 597.934 466.25 598.979 466.114C599.548 466.045 601.07 465.886 601.298 465.614V466.841C601.298 467.932 600.434 469 598.843 469ZM608.721 461.273H606.858V459.182H605.517V461.273H604.199V462.409H605.517V467.864C605.517 469.386 606.744 470.114 607.881 470.114C608.381 470.114 608.699 470.023 608.881 469.955L608.608 468.75C608.494 468.773 608.312 468.818 608.017 468.818C607.426 468.818 606.858 468.636 606.858 467.5V462.409H608.721V461.273ZM614.144 470.182C615.917 470.182 617.212 469.295 617.621 467.977L616.326 467.614C615.985 468.523 615.195 468.977 614.144 468.977C612.57 468.977 611.485 467.96 611.422 466.091H617.758V465.523C617.758 462.273 615.826 461.159 614.008 461.159C611.644 461.159 610.076 463.023 610.076 465.705C610.076 468.386 611.621 470.182 614.144 470.182ZM611.422 464.932C611.513 463.574 612.473 462.364 614.008 462.364C615.462 462.364 616.394 463.455 616.394 464.932H611.422Z" fill="#42444E"/><g filter="url(#filter2_d)"><rect x="416" y="456" width="16" height="16" rx="4" fill="#fff"/><rect x="416.5" y="456.5" width="15" height="15" rx="3.5" stroke="#C1C3CC"/></g><rect x="392" y="632" width="656" height="48" rx="8" fill="#FAFAFC"/><g filter="url(#filter3_d)"><path d="M525 647.505H526.503M526.503 647.505H528M526.503 647.505V642.678M526.503 647.505V653.219M526.503 642.678C526.011 641.204 524.474 640.437 523 640.505M526.503 642.678C526.953 641.135 528.505 640.436 530 640.505M526.503 653.219C526.948 654.746 528.512 655.573 530 655.505M526.503 653.219C525.996 654.738 524.503 655.574 523 655.505" stroke="#000"/></g><g filter="url(#filter4_d)"><rect x="416" y="648" width="16" height="16" rx="4" fill="#fff"/><rect x="416.5" y="648.5" width="15" height="15" rx="3.5" stroke="#C1C3CC"/></g><rect x="392" y="584" width="656" height="48" rx="8" fill="#fff"/><g filter="url(#filter5_d)"><rect x="416" y="600" width="16" height="16" rx="4" fill="#fff"/><rect x="416.5" y="600.5" width="15" height="15" rx="3.5" stroke="#C1C3CC"/></g><rect x="392" y="536" width="656" height="48" rx="8" fill="#FAFAFC"/><path d="M441.773 555.614H445.432V566H446.841V555.614H450.5V554.364H441.773V555.614ZM454.613 566.182C456.976 566.182 458.567 564.386 458.567 561.682C458.567 558.955 456.976 557.159 454.613 557.159C452.249 557.159 450.658 558.955 450.658 561.682C450.658 564.386 452.249 566.182 454.613 566.182ZM454.613 564.977C452.817 564.977 451.999 563.432 451.999 561.682C451.999 559.932 452.817 558.364 454.613 558.364C456.408 558.364 457.226 559.932 457.226 561.682C457.226 563.432 456.408 564.977 454.613 564.977ZM468.09 566.182C469.771 566.182 470.34 565.136 470.635 564.659H470.794V566H472.09V554.364H470.749V558.659H470.635C470.34 558.205 469.817 557.159 468.112 557.159C465.908 557.159 464.385 558.909 464.385 561.659C464.385 564.432 465.908 566.182 468.09 566.182ZM468.271 564.977C466.59 564.977 465.726 563.5 465.726 561.636C465.726 559.795 466.567 558.364 468.271 558.364C469.908 558.364 470.771 559.682 470.771 561.636C470.771 563.614 469.885 564.977 468.271 564.977ZM478.231 566.182C480.003 566.182 481.299 565.295 481.708 563.977L480.413 563.614C480.072 564.523 479.282 564.977 478.231 564.977C476.657 564.977 475.572 563.96 475.509 562.091H481.844V561.523C481.844 558.273 479.913 557.159 478.094 557.159C475.731 557.159 474.163 559.023 474.163 561.705C474.163 564.386 475.708 566.182 478.231 566.182ZM475.509 560.932C475.6 559.574 476.56 558.364 478.094 558.364C479.549 558.364 480.481 559.455 480.481 560.932H475.509ZM485.065 554.364H483.724V566H485.065V554.364ZM491.02 566.182C492.793 566.182 494.088 565.295 494.497 563.977L493.202 563.614C492.861 564.523 492.071 564.977 491.02 564.977C489.446 564.977 488.361 563.96 488.299 562.091H494.634V561.523C494.634 558.273 492.702 557.159 490.884 557.159C488.52 557.159 486.952 559.023 486.952 561.705C486.952 564.386 488.497 566.182 491.02 566.182ZM488.299 560.932C488.389 559.574 489.35 558.364 490.884 558.364C492.338 558.364 493.27 559.455 493.27 560.932H488.299ZM500.309 557.273H498.445V555.182H497.104V557.273H495.786V558.409H497.104V563.864C497.104 565.386 498.332 566.114 499.468 566.114C499.968 566.114 500.286 566.023 500.468 565.955L500.195 564.75C500.082 564.773 499.9 564.818 499.604 564.818C499.014 564.818 498.445 564.636 498.445 563.5V558.409H500.309V557.273ZM505.731 566.182C507.504 566.182 508.8 565.295 509.209 563.977L507.913 563.614C507.572 564.523 506.783 564.977 505.731 564.977C504.158 564.977 503.072 563.96 503.01 562.091H509.345V561.523C509.345 558.273 507.413 557.159 505.595 557.159C503.231 557.159 501.663 559.023 501.663 561.705C501.663 564.386 503.209 566.182 505.731 566.182ZM503.01 560.932C503.101 559.574 504.061 558.364 505.595 558.364C507.05 558.364 507.981 559.455 507.981 560.932H503.01ZM518.133 566.205C519.656 566.205 520.451 565.386 520.724 564.818H520.792V566H522.133V560.25C522.133 557.477 520.019 557.159 518.906 557.159C517.588 557.159 516.088 557.614 515.406 559.205L516.678 559.659C516.974 559.023 517.673 558.341 518.951 558.341C520.184 558.341 520.792 558.994 520.792 560.114V560.159C520.792 560.807 520.133 560.75 518.542 560.955C516.923 561.165 515.156 561.523 515.156 563.523C515.156 565.227 516.474 566.205 518.133 566.205ZM518.338 565C517.269 565 516.497 564.523 516.497 563.591C516.497 562.568 517.428 562.25 518.474 562.114C519.042 562.045 520.565 561.886 520.792 561.614V562.841C520.792 563.932 519.928 565 518.338 565ZM525.761 560.75C525.761 559.227 526.704 558.364 527.989 558.364C529.233 558.364 529.989 559.176 529.989 560.545V566H531.329V560.455C531.329 558.227 530.142 557.159 528.375 557.159C527.057 557.159 526.239 557.75 525.829 558.636H525.716V557.273H524.42V566H525.761V560.75ZM537.96 566H539.301V557.273H537.96V566ZM538.642 555.818C539.164 555.818 539.596 555.409 539.596 554.909C539.596 554.409 539.164 554 538.642 554C538.119 554 537.687 554.409 537.687 554.909C537.687 555.409 538.119 555.818 538.642 555.818ZM545.392 557.273H543.528V555.182H542.188V557.273H540.869V558.409H542.188V563.864C542.188 565.386 543.415 566.114 544.551 566.114C545.051 566.114 545.369 566.023 545.551 565.955L545.278 564.75C545.165 564.773 544.983 564.818 544.688 564.818C544.097 564.818 543.528 564.636 543.528 563.5V558.409H545.392V557.273ZM550.814 566.182C552.587 566.182 553.883 565.295 554.292 563.977L552.996 563.614C552.655 564.523 551.866 564.977 550.814 564.977C549.241 564.977 548.155 563.96 548.093 562.091H554.428V561.523C554.428 558.273 552.496 557.159 550.678 557.159C548.314 557.159 546.746 559.023 546.746 561.705C546.746 564.386 548.292 566.182 550.814 566.182ZM548.093 560.932C548.184 559.574 549.144 558.364 550.678 558.364C552.133 558.364 553.064 559.455 553.064 560.932H548.093ZM556.308 566H557.649V560.545C557.649 559.267 558.581 558.364 559.626 558.364C560.643 558.364 561.353 559.028 561.353 560.023V566H562.717V560.318C562.717 559.193 563.422 558.364 564.649 558.364C565.603 558.364 566.422 558.869 566.422 560.159V566H567.762V560.159C567.762 558.108 566.66 557.159 565.103 557.159C563.853 557.159 562.939 557.733 562.49 558.636H562.399C561.967 557.705 561.206 557.159 560.058 557.159C558.922 557.159 558.081 557.705 557.717 558.636H557.603V557.273H556.308V566ZM574.394 557.273V566.636C574.394 567.523 574.031 568.023 573.212 568.023H572.962V569.273H573.235C574.917 569.273 575.735 568.25 575.735 566.636V557.273H574.394ZM575.053 555.818C575.576 555.818 576.008 555.409 576.008 554.909C576.008 554.409 575.576 554 575.053 554C574.531 554 574.099 554.409 574.099 554.909C574.099 555.409 574.531 555.818 575.053 555.818ZM583.531 562.432C583.531 564.068 582.281 564.818 581.281 564.818C580.167 564.818 579.372 564 579.372 562.727V557.273H578.031V562.818C578.031 565.045 579.213 566.114 580.849 566.114C582.167 566.114 583.031 565.409 583.44 564.523H583.531V566H584.872V557.273H583.531V562.432ZM593.35 559.227C592.929 557.989 591.986 557.159 590.259 557.159C588.418 557.159 587.054 558.205 587.054 559.682C587.054 560.886 587.77 561.693 589.372 562.068L590.827 562.409C591.708 562.614 592.122 563.034 592.122 563.636C592.122 564.386 591.327 565 590.077 565C588.98 565 588.293 564.528 588.054 563.591L586.782 563.909C587.094 565.392 588.316 566.182 590.1 566.182C592.128 566.182 593.509 565.074 593.509 563.568C593.509 562.352 592.747 561.585 591.191 561.205L589.895 560.886C588.861 560.631 588.395 560.284 588.395 559.614C588.395 558.864 589.191 558.318 590.259 558.318C591.429 558.318 591.912 558.966 592.145 559.568L593.35 559.227ZM599.163 557.273H597.299V555.182H595.958V557.273H594.64V558.409H595.958V563.864C595.958 565.386 597.185 566.114 598.322 566.114C598.822 566.114 599.14 566.023 599.322 565.955L599.049 564.75C598.935 564.773 598.754 564.818 598.458 564.818C597.867 564.818 597.299 564.636 597.299 563.5V558.409H599.163V557.273ZM610.86 562.432C610.86 564.068 609.61 564.818 608.61 564.818C607.496 564.818 606.701 564 606.701 562.727V557.273H605.36V562.818C605.36 565.045 606.542 566.114 608.178 566.114C609.496 566.114 610.36 565.409 610.769 564.523H610.86V566H612.201V557.273H610.86V562.432ZM620.678 559.227C620.258 557.989 619.315 557.159 617.588 557.159C615.747 557.159 614.383 558.205 614.383 559.682C614.383 560.886 615.099 561.693 616.701 562.068L618.156 562.409C619.036 562.614 619.451 563.034 619.451 563.636C619.451 564.386 618.656 565 617.406 565C616.309 565 615.622 564.528 615.383 563.591L614.11 563.909C614.423 565.392 615.644 566.182 617.428 566.182C619.457 566.182 620.838 565.074 620.838 563.568C620.838 562.352 620.076 561.585 618.519 561.205L617.224 560.886C616.19 560.631 615.724 560.284 615.724 559.614C615.724 558.864 616.519 558.318 617.588 558.318C618.758 558.318 619.241 558.966 619.474 559.568L620.678 559.227ZM626.355 566.182C628.128 566.182 629.423 565.295 629.832 563.977L628.537 563.614C628.196 564.523 627.406 564.977 626.355 564.977C624.781 564.977 623.696 563.96 623.634 562.091H629.969V561.523C629.969 558.273 628.037 557.159 626.219 557.159C623.855 557.159 622.287 559.023 622.287 561.705C622.287 564.386 623.832 566.182 626.355 566.182ZM623.634 560.932C623.724 559.574 624.685 558.364 626.219 558.364C627.673 558.364 628.605 559.455 628.605 560.932H623.634ZM636.37 566H637.666V564.659H637.825C638.12 565.136 638.689 566.182 640.37 566.182C642.552 566.182 644.075 564.432 644.075 561.659C644.075 558.909 642.552 557.159 640.348 557.159C638.643 557.159 638.12 558.205 637.825 558.659H637.711V554.364H636.37V566ZM637.689 561.636C637.689 559.682 638.552 558.364 640.189 558.364C641.893 558.364 642.734 559.795 642.734 561.636C642.734 563.5 641.87 564.977 640.189 564.977C638.575 564.977 637.689 563.614 637.689 561.636ZM648.534 566.205C650.057 566.205 650.852 565.386 651.125 564.818H651.193V566H652.534V560.25C652.534 557.477 650.421 557.159 649.307 557.159C647.989 557.159 646.489 557.614 645.807 559.205L647.08 559.659C647.375 559.023 648.074 558.341 649.352 558.341C650.585 558.341 651.193 558.994 651.193 560.114V560.159C651.193 560.807 650.534 560.75 648.943 560.955C647.324 561.165 645.557 561.523 645.557 563.523C645.557 565.227 646.875 566.205 648.534 566.205ZM648.739 565C647.671 565 646.898 564.523 646.898 563.591C646.898 562.568 647.83 562.25 648.875 562.114C649.443 562.045 650.966 561.886 651.193 561.614V562.841C651.193 563.932 650.33 565 648.739 565ZM658.367 566.182C660.299 566.182 661.572 565 661.799 563.455H660.458C660.208 564.409 659.413 564.977 658.367 564.977C656.776 564.977 655.753 563.659 655.753 561.636C655.753 559.659 656.799 558.364 658.367 558.364C659.549 558.364 660.253 559.091 660.458 559.886H661.799C661.572 558.25 660.185 557.159 658.344 557.159C655.981 557.159 654.413 559.023 654.413 561.682C654.413 564.295 655.913 566.182 658.367 566.182ZM663.599 566H664.94V562.733L665.878 561.864L669.145 566H670.849L666.889 561L670.576 557.273H668.917L665.099 561.159H664.94V554.364H663.599V566ZM678.324 559.227C677.904 557.989 676.96 557.159 675.233 557.159C673.392 557.159 672.029 558.205 672.029 559.682C672.029 560.886 672.745 561.693 674.347 562.068L675.801 562.409C676.682 562.614 677.097 563.034 677.097 563.636C677.097 564.386 676.301 565 675.051 565C673.955 565 673.267 564.528 673.029 563.591L671.756 563.909C672.068 565.392 673.29 566.182 675.074 566.182C677.102 566.182 678.483 565.074 678.483 563.568C678.483 562.352 677.722 561.585 676.165 561.205L674.87 560.886C673.835 560.631 673.37 560.284 673.37 559.614C673.37 558.864 674.165 558.318 675.233 558.318C676.404 558.318 676.887 558.966 677.12 559.568L678.324 559.227ZM680.342 569.273H681.683V564.659H681.796C682.092 565.136 682.66 566.182 684.342 566.182C686.523 566.182 688.046 564.432 688.046 561.659C688.046 558.909 686.523 557.159 684.319 557.159C682.614 557.159 682.092 558.205 681.796 558.659H681.637V557.273H680.342V569.273ZM681.66 561.636C681.66 559.682 682.523 558.364 684.16 558.364C685.864 558.364 686.705 559.795 686.705 561.636C686.705 563.5 685.842 564.977 684.16 564.977C682.546 564.977 681.66 563.614 681.66 561.636ZM692.5 566.205C694.023 566.205 694.818 565.386 695.091 564.818H695.159V566H696.5V560.25C696.5 557.477 694.386 557.159 693.273 557.159C691.954 557.159 690.454 557.614 689.773 559.205L691.045 559.659C691.341 559.023 692.04 558.341 693.318 558.341C694.551 558.341 695.159 558.994 695.159 560.114V560.159C695.159 560.807 694.5 560.75 692.909 560.955C691.29 561.165 689.523 561.523 689.523 563.523C689.523 565.227 690.841 566.205 692.5 566.205ZM692.704 565C691.636 565 690.863 564.523 690.863 563.591C690.863 562.568 691.795 562.25 692.841 562.114C693.409 562.045 694.932 561.886 695.159 561.614V562.841C695.159 563.932 694.295 565 692.704 565Z" fill="#42444E"/><line x1="698.5" y1="550" x2="698.5" y2="570" stroke="#42444E"/><g filter="url(#filter6_d)"><rect x="416" y="552" width="16" height="16" rx="4" fill="#fff"/><rect x="416.5" y="552.5" width="15" height="15" rx="3.5" stroke="#C1C3CC"/></g><rect x="392" y="488" width="656" height="48" rx="8" fill="#fff"/><path d="M446 518C449.545 518 451.545 515.795 451.545 512.159C451.545 508.545 449.545 506.364 446.159 506.364H442.409V518H446ZM443.818 516.75V507.614H446.068C448.795 507.614 450.182 509.341 450.182 512.159C450.182 515 448.795 516.75 445.909 516.75H443.818ZM457.226 518.182C458.999 518.182 460.295 517.295 460.704 515.977L459.408 515.614C459.067 516.523 458.278 516.977 457.226 516.977C455.653 516.977 454.567 515.96 454.505 514.091H460.84V513.523C460.84 510.273 458.908 509.159 457.09 509.159C454.726 509.159 453.158 511.023 453.158 513.705C453.158 516.386 454.704 518.182 457.226 518.182ZM454.505 512.932C454.596 511.574 455.556 510.364 457.09 510.364C458.545 510.364 459.476 511.455 459.476 512.932H454.505ZM468.902 511.227C468.481 509.989 467.538 509.159 465.811 509.159C463.97 509.159 462.606 510.205 462.606 511.682C462.606 512.886 463.322 513.693 464.924 514.068L466.379 514.409C467.26 514.614 467.674 515.034 467.674 515.636C467.674 516.386 466.879 517 465.629 517C464.532 517 463.845 516.528 463.606 515.591L462.333 515.909C462.646 517.392 463.868 518.182 465.652 518.182C467.68 518.182 469.061 517.074 469.061 515.568C469.061 514.352 468.299 513.585 466.743 513.205L465.447 512.886C464.413 512.631 463.947 512.284 463.947 511.614C463.947 510.864 464.743 510.318 465.811 510.318C466.981 510.318 467.464 510.966 467.697 511.568L468.902 511.227ZM470.919 518H472.26V509.273H470.919V518ZM471.601 507.818C472.124 507.818 472.556 507.409 472.556 506.909C472.556 506.409 472.124 506 471.601 506C471.078 506 470.646 506.409 470.646 506.909C470.646 507.409 471.078 507.818 471.601 507.818ZM478.079 521.455C480.17 521.455 481.851 520.5 481.851 518.25V509.273H480.556V510.659H480.42C480.124 510.205 479.579 509.159 477.874 509.159C475.67 509.159 474.147 510.909 474.147 513.591C474.147 516.318 475.738 517.864 477.851 517.864C479.556 517.864 480.101 516.864 480.397 516.386H480.511V518.159C480.511 519.614 479.488 520.273 478.079 520.273C476.494 520.273 475.937 519.438 475.579 518.955L474.511 519.705C475.056 520.619 476.13 521.455 478.079 521.455ZM478.033 516.659C476.351 516.659 475.488 515.386 475.488 513.568C475.488 511.795 476.329 510.364 478.033 510.364C479.67 510.364 480.533 511.682 480.533 513.568C480.533 515.5 479.647 516.659 478.033 516.659ZM485.487 512.75C485.487 511.227 486.43 510.364 487.714 510.364C488.959 510.364 489.714 511.176 489.714 512.545V518H491.055V512.455C491.055 510.227 489.868 509.159 488.101 509.159C486.782 509.159 485.964 509.75 485.555 510.636H485.441V509.273H484.146V518H485.487V512.75ZM501.481 509.273H499.617V507.182H498.276V509.273H496.958V510.409H498.276V515.864C498.276 517.386 499.504 518.114 500.64 518.114C501.14 518.114 501.458 518.023 501.64 517.955L501.367 516.75C501.254 516.773 501.072 516.818 500.776 516.818C500.185 516.818 499.617 516.636 499.617 515.5V510.409H501.481V509.273ZM504.866 512.75C504.866 511.227 505.838 510.364 507.162 510.364C508.423 510.364 509.184 511.159 509.184 512.545V518H510.525V512.455C510.525 510.21 509.332 509.159 507.548 509.159C506.173 509.159 505.389 509.733 504.98 510.636H504.866V506.364H503.525V518H504.866V512.75ZM516.478 518.182C518.25 518.182 519.546 517.295 519.955 515.977L518.659 515.614C518.319 516.523 517.529 516.977 516.478 516.977C514.904 516.977 513.819 515.96 513.756 514.091H520.091V513.523C520.091 510.273 518.159 509.159 516.341 509.159C513.978 509.159 512.409 511.023 512.409 513.705C512.409 516.386 513.955 518.182 516.478 518.182ZM513.756 512.932C513.847 511.574 514.807 510.364 516.341 510.364C517.796 510.364 518.728 511.455 518.728 512.932H513.756ZM529.856 518.182C531.788 518.182 533.061 517 533.288 515.455H531.947C531.697 516.409 530.902 516.977 529.856 516.977C528.266 516.977 527.243 515.659 527.243 513.636C527.243 511.659 528.288 510.364 529.856 510.364C531.038 510.364 531.743 511.091 531.947 511.886H533.288C533.061 510.25 531.675 509.159 529.834 509.159C527.47 509.159 525.902 511.023 525.902 513.682C525.902 516.295 527.402 518.182 529.856 518.182ZM536.429 512.75C536.429 511.227 537.401 510.364 538.725 510.364C539.986 510.364 540.748 511.159 540.748 512.545V518H542.089V512.455C542.089 510.21 540.895 509.159 539.111 509.159C537.736 509.159 536.952 509.733 536.543 510.636H536.429V506.364H535.089V518H536.429V512.75ZM548.041 518.182C549.813 518.182 551.109 517.295 551.518 515.977L550.223 515.614C549.882 516.523 549.092 516.977 548.041 516.977C546.467 516.977 545.382 515.96 545.319 514.091H551.654V513.523C551.654 510.273 549.723 509.159 547.904 509.159C545.541 509.159 543.973 511.023 543.973 513.705C543.973 516.386 545.518 518.182 548.041 518.182ZM545.319 512.932C545.41 511.574 546.37 510.364 547.904 510.364C549.359 510.364 550.291 511.455 550.291 512.932H545.319ZM557.08 518.182C559.011 518.182 560.284 517 560.511 515.455H559.171C558.921 516.409 558.125 516.977 557.08 516.977C555.489 516.977 554.466 515.659 554.466 513.636C554.466 511.659 555.511 510.364 557.08 510.364C558.261 510.364 558.966 511.091 559.171 511.886H560.511C560.284 510.25 558.898 509.159 557.057 509.159C554.693 509.159 553.125 511.023 553.125 513.682C553.125 516.295 554.625 518.182 557.08 518.182ZM562.312 518H563.653V514.733L564.59 513.864L567.857 518H569.562L565.601 513L569.289 509.273H567.63L563.812 513.159H563.653V506.364H562.312V518ZM574.154 518.182C575.927 518.182 577.223 517.295 577.632 515.977L576.336 515.614C575.995 516.523 575.206 516.977 574.154 516.977C572.581 516.977 571.495 515.96 571.433 514.091H577.768V513.523C577.768 510.273 575.836 509.159 574.018 509.159C571.654 509.159 570.086 511.023 570.086 513.705C570.086 516.386 571.632 518.182 574.154 518.182ZM571.433 512.932C571.524 511.574 572.484 510.364 574.018 510.364C575.473 510.364 576.404 511.455 576.404 512.932H571.433ZM582.943 518.182C584.625 518.182 585.193 517.136 585.489 516.659H585.648V518H586.943V506.364H585.602V510.659H585.489C585.193 510.205 584.671 509.159 582.966 509.159C580.762 509.159 579.239 510.909 579.239 513.659C579.239 516.432 580.762 518.182 582.943 518.182ZM583.125 516.977C581.443 516.977 580.58 515.5 580.58 513.636C580.58 511.795 581.421 510.364 583.125 510.364C584.762 510.364 585.625 511.682 585.625 513.636C585.625 515.614 584.739 516.977 583.125 516.977ZM594.425 512.386H589.334V513.636H594.425V512.386ZM600.17 518.182C602.534 518.182 604.125 516.386 604.125 513.682C604.125 510.955 602.534 509.159 600.17 509.159C597.807 509.159 596.216 510.955 596.216 513.682C596.216 516.386 597.807 518.182 600.17 518.182ZM600.17 516.977C598.375 516.977 597.557 515.432 597.557 513.682C597.557 511.932 598.375 510.364 600.17 510.364C601.966 510.364 602.784 511.932 602.784 513.682C602.784 515.432 601.966 516.977 600.17 516.977ZM609.898 509.273H607.943V508.386C607.943 507.523 608.307 507.068 609.193 507.068C609.58 507.068 609.807 507.159 609.943 507.205L610.33 506.045C610.125 505.955 609.716 505.818 609.057 505.818C607.807 505.818 606.603 506.568 606.603 508.068V509.273H605.193V510.409H606.603V518H607.943V510.409H609.898V509.273ZM615.504 509.273H613.549V508.386C613.549 507.523 613.913 507.068 614.799 507.068C615.185 507.068 615.413 507.159 615.549 507.205L615.935 506.045C615.731 505.955 615.322 505.818 614.663 505.818C613.413 505.818 612.208 506.568 612.208 508.068V509.273H610.799V510.409H612.208V518H613.549V510.409H615.504V509.273ZM627.745 511.227C627.324 509.989 626.381 509.159 624.654 509.159C622.813 509.159 621.449 510.205 621.449 511.682C621.449 512.886 622.165 513.693 623.767 514.068L625.222 514.409C626.103 514.614 626.517 515.034 626.517 515.636C626.517 516.386 625.722 517 624.472 517C623.375 517 622.688 516.528 622.449 515.591L621.177 515.909C621.489 517.392 622.711 518.182 624.495 518.182C626.523 518.182 627.904 517.074 627.904 515.568C627.904 514.352 627.142 513.585 625.586 513.205L624.29 512.886C623.256 512.631 622.79 512.284 622.79 511.614C622.79 510.864 623.586 510.318 624.654 510.318C625.824 510.318 626.307 510.966 626.54 511.568L627.745 511.227ZM633.558 509.273H631.694V507.182H630.353V509.273H629.035V510.409H630.353V515.864C630.353 517.386 631.58 518.114 632.717 518.114C633.217 518.114 633.535 518.023 633.717 517.955L633.444 516.75C633.33 516.773 633.149 516.818 632.853 516.818C632.262 516.818 631.694 516.636 631.694 515.5V510.409H633.558V509.273ZM637.983 518.205C639.506 518.205 640.301 517.386 640.574 516.818H640.642V518H641.983V512.25C641.983 509.477 639.869 509.159 638.756 509.159C637.438 509.159 635.938 509.614 635.256 511.205L636.528 511.659C636.824 511.023 637.523 510.341 638.801 510.341C640.034 510.341 640.642 510.994 640.642 512.114V512.159C640.642 512.807 639.983 512.75 638.392 512.955C636.773 513.165 635.006 513.523 635.006 515.523C635.006 517.227 636.324 518.205 637.983 518.205ZM638.188 517C637.119 517 636.347 516.523 636.347 515.591C636.347 514.568 637.278 514.25 638.324 514.114C638.892 514.045 640.415 513.886 640.642 513.614V514.841C640.642 515.932 639.778 517 638.188 517ZM648.066 509.273H646.202V507.182H644.861V509.273H643.543V510.409H644.861V515.864C644.861 517.386 646.089 518.114 647.225 518.114C647.725 518.114 648.043 518.023 648.225 517.955L647.952 516.75C647.839 516.773 647.657 516.818 647.361 516.818C646.77 516.818 646.202 516.636 646.202 515.5V510.409H648.066V509.273ZM653.488 518.182C655.261 518.182 656.556 517.295 656.966 515.977L655.67 515.614C655.329 516.523 654.539 516.977 653.488 516.977C651.914 516.977 650.829 515.96 650.767 514.091H657.102V513.523C657.102 510.273 655.17 509.159 653.352 509.159C650.988 509.159 649.42 511.023 649.42 513.705C649.42 516.386 650.966 518.182 653.488 518.182ZM650.767 512.932C650.858 511.574 651.818 510.364 653.352 510.364C654.806 510.364 655.738 511.455 655.738 512.932H650.767Z" fill="#42444E"/><rect opacity=".64" x="441" y="512" width="217" height="2" fill="#A1A7B3"/><rect x="416" y="504" width="16" height="16" rx="4" fill="#3700FF"/><path d="M421.25 512L423.5 514L427 510" stroke="#fff" stroke-width="1.5" stroke-linecap="round" stroke-linejoin="round"/><path d="M415.724 222.064V241H420.764V215.152H413.528L407.588 233.548L401.612 215.152H394.268V241H399.236V222.064L405.464 241H409.496L415.724 222.064ZM441.44 222.064H436.364L432.188 234.52L427.904 222.064H422.684L429.488 240.244L428.876 241.756C428.624 242.404 428.3 242.836 427.94 243.088C427.544 243.376 427.004 243.484 426.284 243.484C426.14 243.484 425.96 243.484 425.744 243.484C425.492 243.484 425.204 243.448 424.844 243.412V247.48C425.276 247.552 425.6 247.588 425.852 247.588C426.104 247.588 426.428 247.588 426.824 247.588C428.624 247.588 430.064 247.192 431.18 246.364C432.26 245.536 433.196 244.096 433.952 242.08L441.44 222.064ZM456.473 241.216C457.049 241.216 457.625 241.216 458.165 241.144C458.705 241.108 459.209 241.036 459.713 240.928V236.752C459.281 236.824 458.957 236.86 458.741 236.86C458.525 236.86 458.273 236.86 457.985 236.86C457.049 236.86 456.401 236.752 456.077 236.464C455.753 236.176 455.609 235.708 455.609 235.024V226.276H459.461V222.064H455.609V216.664H450.641V222.064H448.121V226.276H450.641V236.068C450.641 237.868 451.073 239.2 452.009 239.992C452.909 240.82 454.385 241.216 456.473 241.216ZM477.198 224.512C476.334 223.612 475.326 222.928 474.174 222.424C473.022 221.956 471.762 221.704 470.394 221.704C469.026 221.704 467.73 221.956 466.578 222.424C465.426 222.928 464.418 223.612 463.59 224.512C462.762 225.412 462.15 226.456 461.718 227.644C461.286 228.868 461.106 230.164 461.106 231.532C461.106 232.936 461.286 234.232 461.718 235.42C462.15 236.644 462.762 237.688 463.59 238.552C464.418 239.488 465.426 240.208 466.578 240.676C467.73 241.18 469.026 241.396 470.394 241.396C471.762 241.396 473.022 241.18 474.174 240.676C475.326 240.208 476.334 239.488 477.198 238.552C477.99 237.688 478.602 236.644 479.034 235.42C479.466 234.232 479.682 232.936 479.682 231.532C479.682 230.164 479.466 228.868 479.034 227.644C478.602 226.456 477.99 225.412 477.198 224.512ZM470.394 225.88C471.69 225.88 472.734 226.384 473.49 227.392C474.246 228.4 474.642 229.768 474.642 231.532C474.642 233.332 474.246 234.7 473.49 235.708C472.734 236.716 471.69 237.22 470.394 237.22C469.026 237.22 467.982 236.716 467.226 235.708C466.47 234.7 466.11 233.332 466.11 231.532C466.11 229.804 466.47 228.4 467.262 227.392C468.018 226.384 469.062 225.88 470.394 225.88ZM492.746 232.72V228.22H482.378V232.72H492.746ZM503.645 241.396C504.725 241.396 505.733 241.216 506.669 240.784C507.569 240.388 508.325 239.812 508.937 239.056V241H513.977V215.152H508.937V224.008C508.325 223.288 507.569 222.712 506.669 222.316C505.733 221.92 504.725 221.704 503.645 221.704C502.349 221.704 501.197 221.992 500.153 222.496C499.073 223 498.173 223.756 497.453 224.764C496.769 225.628 496.265 226.672 495.905 227.824C495.545 228.976 495.401 230.236 495.401 231.532C495.401 232.864 495.545 234.124 495.905 235.276C496.265 236.428 496.769 237.472 497.453 238.336C498.173 239.344 499.073 240.1 500.153 240.604C501.197 241.144 502.349 241.396 503.645 241.396ZM509.045 232.072C509.045 233.62 508.649 234.844 507.893 235.744C507.101 236.644 506.093 237.076 504.833 237.076C503.465 237.076 502.385 236.608 501.629 235.6C500.837 234.628 500.477 233.26 500.477 231.532C500.477 229.84 500.837 228.508 501.629 227.5C502.385 226.528 503.465 226.024 504.833 226.024C506.093 226.024 507.101 226.492 507.893 227.392C508.649 228.292 509.045 229.516 509.045 231.028V232.072ZM532.755 224.512C531.891 223.612 530.883 222.928 529.731 222.424C528.579 221.956 527.319 221.704 525.951 221.704C524.583 221.704 523.287 221.956 522.135 222.424C520.983 222.928 519.975 223.612 519.147 224.512C518.319 225.412 517.707 226.456 517.275 227.644C516.843 228.868 516.663 230.164 516.663 231.532C516.663 232.936 516.843 234.232 517.275 235.42C517.707 236.644 518.319 237.688 519.147 238.552C519.975 239.488 520.983 240.208 522.135 240.676C523.287 241.18 524.583 241.396 525.951 241.396C527.319 241.396 528.579 241.18 529.731 240.676C530.883 240.208 531.891 239.488 532.755 238.552C533.547 237.688 534.159 236.644 534.591 235.42C535.023 234.232 535.239 232.936 535.239 231.532C535.239 230.164 535.023 228.868 534.591 227.644C534.159 226.456 533.547 225.412 532.755 224.512ZM525.951 225.88C527.247 225.88 528.291 226.384 529.047 227.392C529.803 228.4 530.199 229.768 530.199 231.532C530.199 233.332 529.803 234.7 529.047 235.708C528.291 236.716 527.247 237.22 525.951 237.22C524.583 237.22 523.539 236.716 522.783 235.708C522.027 234.7 521.667 233.332 521.667 231.532C521.667 229.804 522.027 228.4 522.819 227.392C523.575 226.384 524.619 225.88 525.951 225.88ZM544.868 215.152V241H549.908V215.152H544.868ZM558.759 219.832V215.152H553.611V219.832H558.759ZM553.683 222.064V241H558.723V222.064H553.683ZM569.375 241.396C571.751 241.396 573.695 240.82 575.243 239.632C576.791 238.444 577.583 236.896 577.583 234.988C577.583 234.052 577.367 233.224 576.971 232.504C576.575 231.82 575.999 231.244 575.207 230.776C574.703 230.524 574.163 230.272 573.515 230.056C572.867 229.84 571.787 229.588 570.347 229.264C569.555 229.12 569.051 229.048 568.799 228.976C568.547 228.904 568.331 228.832 568.151 228.76C567.647 228.616 567.287 228.436 567.071 228.22C566.855 228.004 566.747 227.716 566.747 227.356C566.747 226.852 566.963 226.42 567.467 226.096C567.935 225.808 568.583 225.628 569.375 225.628C570.347 225.628 571.283 225.844 572.183 226.276C573.047 226.708 573.803 227.356 574.451 228.148L577.331 224.98C576.539 224.008 575.459 223.216 574.055 222.604C572.615 222.028 571.103 221.704 569.519 221.704C567.215 221.704 565.379 222.28 563.939 223.432C562.499 224.584 561.779 226.06 561.779 227.86C561.779 228.796 561.923 229.588 562.283 230.236C562.607 230.884 563.111 231.424 563.795 231.856C564.227 232.144 564.767 232.432 565.415 232.648C566.063 232.864 566.999 233.116 568.223 233.332C569.303 233.548 569.987 233.692 570.239 233.728C570.455 233.8 570.671 233.836 570.851 233.872C571.499 234.052 571.967 234.268 572.255 234.52C572.507 234.772 572.651 235.096 572.651 235.528C572.651 236.14 572.363 236.608 571.787 236.968C571.211 237.328 570.455 237.472 569.483 237.472C568.403 237.472 567.323 237.22 566.279 236.68C565.235 236.176 564.407 235.456 563.759 234.592L560.627 237.796C561.419 238.912 562.643 239.776 564.227 240.424C565.811 241.072 567.539 241.396 569.375 241.396ZM586.475 241.216C587.051 241.216 587.627 241.216 588.167 241.144C588.707 241.108 589.211 241.036 589.715 240.928V236.752C589.283 236.824 588.959 236.86 588.743 236.86C588.527 236.86 588.275 236.86 587.987 236.86C587.051 236.86 586.403 236.752 586.079 236.464C585.755 236.176 585.611 235.708 585.611 235.024V226.276H589.463V222.064H585.611V216.664H580.643V222.064H578.123V226.276H580.643V236.068C580.643 237.868 581.075 239.2 582.011 239.992C582.911 240.82 584.387 241.216 586.475 241.216Z" fill="#111215"/><circle cx="1230" cy="36" r="12" fill="#48A7FF"/><path d="M1230.86 32V37.625C1230.86 38.4687 1230.47 38.918 1229.77 38.918C1229.12 38.918 1228.69 38.5234 1228.68 37.875H1227.24C1227.24 39.3516 1228.32 40.1094 1229.72 40.1094C1231.26 40.1094 1232.3 39.1719 1232.3 37.625V32H1230.86Z" fill="#fff"/><path d="M1250 33.3636V41.4773C1250 42.1882 1249.71 42.576 1249 42.576C1248.92 42.576 1248.85 42.576 1248.76 42.571V43.8537H1249.05C1250.65 43.8736 1251.49 43.0185 1251.49 41.4872V33.3636H1250ZM1250.74 32.1854C1251.25 32.1854 1251.67 31.7876 1251.67 31.3004C1251.67 30.8132 1251.25 30.4105 1250.74 30.4105C1250.22 30.4105 1249.8 30.8132 1249.8 31.3004C1249.8 31.7876 1250.22 32.1854 1250.74 32.1854ZM1256.56 41.1541C1258.71 41.1541 1260.12 39.5781 1260.12 37.2166C1260.12 34.8402 1258.71 33.2642 1256.56 33.2642C1254.41 33.2642 1253 34.8402 1253 37.2166C1253 39.5781 1254.41 41.1541 1256.56 41.1541ZM1256.57 39.9062C1255.16 39.9062 1254.5 38.6783 1254.5 37.2116C1254.5 35.75 1255.16 34.5071 1256.57 34.5071C1257.96 34.5071 1258.62 35.75 1258.62 37.2116C1258.62 38.6783 1257.96 39.9062 1256.57 39.9062ZM1263.13 36.4659C1263.13 35.2479 1263.9 34.5518 1264.96 34.5518C1265.98 34.5518 1266.59 35.2031 1266.59 36.3217V41H1268.08V36.1428C1268.08 34.2386 1267.04 33.2642 1265.46 33.2642C1264.28 33.2642 1263.56 33.7812 1263.2 34.6065H1263.11V30.8182H1261.64V41H1263.13V36.4659ZM1271.41 36.4659C1271.41 35.2479 1272.16 34.5518 1273.19 34.5518C1274.2 34.5518 1274.81 35.2131 1274.81 36.3217V41H1276.3V36.1428C1276.3 34.2536 1275.26 33.2642 1273.7 33.2642C1272.55 33.2642 1271.8 33.7962 1271.44 34.6065H1271.35V33.3636H1269.92V41H1271.41V36.4659ZM1280.37 41.169C1281.64 41.169 1282.35 40.5277 1282.63 39.956H1282.69V41H1284.14V35.929C1284.14 33.7067 1282.39 33.2642 1281.18 33.2642C1279.8 33.2642 1278.52 33.821 1278.03 35.2131L1279.42 35.5312C1279.64 34.9893 1280.2 34.4673 1281.2 34.4673C1282.16 34.4673 1282.65 34.9695 1282.65 35.8345V35.8693C1282.65 36.4112 1282.09 36.4013 1280.72 36.5604C1279.27 36.7294 1277.79 37.1072 1277.79 38.8423C1277.79 40.3438 1278.92 41.169 1280.37 41.169ZM1280.7 39.9759C1279.86 39.9759 1279.25 39.598 1279.25 38.8622C1279.25 38.0668 1279.95 37.7834 1280.82 37.669C1281.3 37.6044 1282.44 37.4751 1282.65 37.2614V38.2457C1282.65 39.1506 1281.93 39.9759 1280.7 39.9759ZM1285.98 43.8636H1287.47V39.8118H1287.56C1287.83 40.299 1288.37 41.1491 1289.76 41.1491C1291.61 41.1491 1292.96 39.6676 1292.96 37.1967C1292.96 34.7209 1291.59 33.2642 1289.75 33.2642C1288.33 33.2642 1287.82 34.1293 1287.56 34.6016H1287.43V33.3636H1285.98V43.8636ZM1287.44 37.1818C1287.44 35.5859 1288.13 34.527 1289.43 34.527C1290.78 34.527 1291.45 35.6655 1291.45 37.1818C1291.45 38.7131 1290.76 39.8814 1289.43 39.8814C1288.15 39.8814 1287.44 38.7876 1287.44 37.1818ZM1294.48 43.8636H1295.97V39.8118H1296.06C1296.33 40.299 1296.87 41.1491 1298.26 41.1491C1300.11 41.1491 1301.46 39.6676 1301.46 37.1967C1301.46 34.7209 1300.09 33.2642 1298.25 33.2642C1296.83 33.2642 1296.32 34.1293 1296.06 34.6016H1295.93V33.3636H1294.48V43.8636ZM1295.94 37.1818C1295.94 35.5859 1296.63 34.527 1297.93 34.527C1299.28 34.527 1299.96 35.6655 1299.96 37.1818C1299.96 38.7131 1299.26 39.8814 1297.93 39.8814C1296.65 39.8814 1295.94 38.7876 1295.94 37.1818ZM1304.47 30.8182H1302.98V41H1304.47V30.8182ZM1309.62 41.1541C1311.29 41.1541 1312.46 40.3338 1312.8 39.0909L1311.39 38.8374C1311.13 39.5582 1310.48 39.9261 1309.63 39.9261C1308.36 39.9261 1307.51 39.1009 1307.47 37.6293H1312.9V37.1023C1312.9 34.343 1311.25 33.2642 1309.52 33.2642C1307.39 33.2642 1305.99 34.8849 1305.99 37.2315C1305.99 39.603 1307.37 41.1541 1309.62 41.1541ZM1307.47 36.5156C1307.53 35.4318 1308.32 34.4922 1309.53 34.4922C1310.68 34.4922 1311.43 35.3473 1311.44 36.5156H1307.47ZM1320.13 35.228C1319.82 34.0398 1318.89 33.2642 1317.24 33.2642C1315.51 33.2642 1314.29 34.174 1314.29 35.5263C1314.29 36.6101 1314.95 37.331 1316.38 37.6491L1317.67 37.9325C1318.41 38.0966 1318.75 38.4247 1318.75 38.902C1318.75 39.4936 1318.12 39.956 1317.14 39.956C1316.25 39.956 1315.68 39.5732 1315.5 38.8224L1314.07 39.0412C1314.32 40.3935 1315.44 41.1541 1317.15 41.1541C1319 41.1541 1320.28 40.1747 1320.28 38.7926C1320.28 37.7138 1319.59 37.0476 1318.19 36.7244L1316.98 36.446C1316.14 36.2472 1315.77 35.9638 1315.78 35.4467C1315.77 34.8601 1316.41 34.4425 1317.25 34.4425C1318.18 34.4425 1318.61 34.9545 1318.78 35.4666L1320.13 35.228ZM1325.06 41.1541C1326.73 41.1541 1327.91 40.3338 1328.24 39.0909L1326.84 38.8374C1326.57 39.5582 1325.92 39.9261 1325.08 39.9261C1323.8 39.9261 1322.95 39.1009 1322.91 37.6293H1328.34V37.1023C1328.34 34.343 1326.69 33.2642 1324.96 33.2642C1322.83 33.2642 1321.43 34.8849 1321.43 37.2315C1321.43 39.603 1322.81 41.1541 1325.06 41.1541ZM1322.91 36.5156C1322.97 35.4318 1323.76 34.4922 1324.97 34.4922C1326.12 34.4922 1326.88 35.3473 1326.88 36.5156H1322.91ZM1333.14 41.1541C1334.8 41.1541 1335.98 40.3338 1336.32 39.0909L1334.91 38.8374C1334.65 39.5582 1334 39.9261 1333.15 39.9261C1331.88 39.9261 1331.03 39.1009 1330.99 37.6293H1336.42V37.1023C1336.42 34.343 1334.76 33.2642 1333.03 33.2642C1330.91 33.2642 1329.5 34.8849 1329.5 37.2315C1329.5 39.603 1330.89 41.1541 1333.14 41.1541ZM1330.99 36.5156C1331.05 35.4318 1331.84 34.4922 1333.04 34.4922C1334.2 34.4922 1334.95 35.3473 1334.96 36.5156H1330.99ZM1340.78 41.1491C1342.18 41.1491 1342.72 40.299 1342.99 39.8118H1343.12V41H1344.57V30.8182H1343.08V34.6016H1342.99C1342.72 34.1293 1342.22 33.2642 1340.79 33.2642C1338.95 33.2642 1337.59 34.7209 1337.59 37.1967C1337.59 39.6676 1338.93 41.1491 1340.78 41.1491ZM1341.11 39.8814C1339.78 39.8814 1339.09 38.7131 1339.09 37.1818C1339.09 35.6655 1339.77 34.527 1341.11 34.527C1342.41 34.527 1343.11 35.5859 1343.11 37.1818C1343.11 38.7876 1342.39 39.8814 1341.11 39.8814Z" fill="#111215"/><path d="M1369.3 33.3636H1370.49C1370.44 31.8274 1369.02 30.679 1367.05 30.679C1365.1 30.679 1363.57 31.8125 1363.57 33.5227C1363.57 34.8949 1364.57 35.7102 1366.16 36.1676L1367.41 36.5256C1368.48 36.8239 1369.44 37.2017 1369.44 38.2159C1369.44 39.3295 1368.36 40.0653 1366.95 40.0653C1365.74 40.0653 1364.67 39.5284 1364.57 38.375H1363.29C1363.41 40.0455 1364.76 41.179 1366.95 41.179C1369.3 41.179 1370.63 39.8864 1370.63 38.2358C1370.63 36.3267 1368.82 35.7102 1367.77 35.4318L1366.73 35.1534C1365.98 34.9545 1364.76 34.5568 1364.76 33.4631C1364.76 32.4886 1365.66 31.7727 1367.01 31.7727C1368.24 31.7727 1369.18 32.3594 1369.3 33.3636ZM1372.36 41H1373.53V33.3636H1372.36V41ZM1372.96 32.0909C1373.41 32.0909 1373.79 31.733 1373.79 31.2955C1373.79 30.858 1373.41 30.5 1372.96 30.5C1372.5 30.5 1372.12 30.858 1372.12 31.2955C1372.12 31.733 1372.5 32.0909 1372.96 32.0909ZM1378.62 44.0227C1380.45 44.0227 1381.92 43.1875 1381.92 41.2188V33.3636H1380.79V34.5767H1380.67C1380.41 34.179 1379.94 33.2642 1378.44 33.2642C1376.52 33.2642 1375.18 34.7955 1375.18 37.142C1375.18 39.5284 1376.58 40.8807 1378.42 40.8807C1379.92 40.8807 1380.39 40.0057 1380.65 39.5881H1380.75V41.1392C1380.75 42.4119 1379.86 42.9886 1378.62 42.9886C1377.24 42.9886 1376.75 42.2578 1376.44 41.8352L1375.5 42.4915C1375.98 43.2919 1376.92 44.0227 1378.62 44.0227ZM1378.58 39.8267C1377.11 39.8267 1376.36 38.7131 1376.36 37.1222C1376.36 35.571 1377.09 34.3182 1378.58 34.3182C1380.02 34.3182 1380.77 35.4716 1380.77 37.1222C1380.77 38.8125 1380 39.8267 1378.58 39.8267ZM1385.11 36.4062C1385.11 35.0739 1385.93 34.3182 1387.05 34.3182C1388.14 34.3182 1388.8 35.0291 1388.8 36.2273V41H1389.98V36.1477C1389.98 34.1989 1388.94 33.2642 1387.39 33.2642C1386.24 33.2642 1385.52 33.7812 1385.17 34.5568H1385.07V33.3636H1383.93V41H1385.11V36.4062ZM1398.88 41.1591C1400.95 41.1591 1402.34 39.5881 1402.34 37.2216C1402.34 34.8352 1400.95 33.2642 1398.88 33.2642C1396.81 33.2642 1395.42 34.8352 1395.42 37.2216C1395.42 39.5881 1396.81 41.1591 1398.88 41.1591ZM1398.88 40.1051C1397.31 40.1051 1396.59 38.7528 1396.59 37.2216C1396.59 35.6903 1397.31 34.3182 1398.88 34.3182C1400.45 34.3182 1401.17 35.6903 1401.17 37.2216C1401.17 38.7528 1400.45 40.1051 1398.88 40.1051ZM1408.81 37.8778C1408.81 39.3097 1407.71 39.9659 1406.84 39.9659C1405.86 39.9659 1405.17 39.25 1405.17 38.1364V33.3636H1403.99V38.2159C1403.99 40.1648 1405.03 41.0994 1406.46 41.0994C1407.61 41.0994 1408.37 40.483 1408.73 39.7074H1408.81V41H1409.98V33.3636H1408.81V37.8778ZM1415.31 33.3636H1413.68V31.5341H1412.5V33.3636H1411.35V34.358H1412.5V39.1307C1412.5 40.4631 1413.58 41.0994 1414.57 41.0994C1415.01 41.0994 1415.29 41.0199 1415.45 40.9602L1415.21 39.9062C1415.11 39.9261 1414.95 39.9659 1414.69 39.9659C1414.18 39.9659 1413.68 39.8068 1413.68 38.8125V34.358H1415.31V33.3636Z" fill="#767A85"/><path d="M64.47 30.948H56.21V32.516H59.444V41H61.236V32.516H64.47V30.948ZM69.566 34.63C69.23 34.266 68.852 34 68.404 33.804C67.956 33.608 67.48 33.51 66.962 33.51C66.43 33.51 65.954 33.608 65.506 33.804C65.058 34 64.68 34.266 64.358 34.63C64.05 34.966 63.812 35.372 63.658 35.834C63.49 36.296 63.42 36.8 63.42 37.332C63.42 37.878 63.49 38.382 63.658 38.844C63.812 39.306 64.05 39.698 64.358 40.034C64.68 40.398 65.058 40.678 65.506 40.874C65.954 41.07 66.43 41.154 66.962 41.154C67.48 41.154 67.956 41.07 68.404 40.874C68.852 40.678 69.23 40.398 69.566 40.034C69.874 39.698 70.098 39.306 70.266 38.844C70.42 38.382 70.504 37.878 70.504 37.332C70.504 36.8 70.42 36.296 70.266 35.834C70.098 35.372 69.874 34.966 69.566 34.63ZM66.962 34.924C67.522 34.924 67.97 35.148 68.306 35.568C68.642 36.002 68.81 36.59 68.81 37.332C68.81 38.088 68.642 38.676 68.306 39.096C67.97 39.53 67.522 39.74 66.962 39.74C66.388 39.74 65.94 39.53 65.604 39.096C65.268 38.676 65.114 38.088 65.114 37.332C65.114 36.59 65.268 36.002 65.604 35.568C65.94 35.148 66.388 34.924 66.962 34.924ZM75.6831 37.668V36.17H71.7631V37.668H75.6831ZM80.1755 41.154C80.6095 41.154 81.0015 41.084 81.3655 40.916C81.7295 40.762 82.0375 40.538 82.2895 40.23V41H83.9695V30.948H82.2895V34.434C82.0375 34.14 81.7295 33.916 81.3655 33.748C81.0015 33.594 80.6095 33.51 80.1755 33.51C79.6715 33.51 79.2235 33.622 78.8035 33.818C78.3835 34.014 78.0335 34.308 77.7535 34.686C77.4875 35.036 77.2915 35.442 77.1515 35.89C77.0115 36.338 76.9415 36.828 76.9415 37.332C76.9415 37.85 77.0115 38.34 77.1515 38.788C77.2915 39.236 77.4875 39.642 77.7535 39.978C78.0335 40.37 78.3835 40.664 78.8035 40.86C79.2235 41.056 79.6715 41.154 80.1755 41.154ZM82.3315 37.556C82.3315 38.2 82.1635 38.718 81.8275 39.11C81.4915 39.502 81.0435 39.684 80.5115 39.684C79.9235 39.684 79.4615 39.474 79.1255 39.054C78.7895 38.634 78.6355 38.06 78.6355 37.332C78.6355 36.604 78.7895 36.03 79.1255 35.61C79.4615 35.19 79.9235 34.98 80.5115 34.98C81.0575 34.98 81.4915 35.176 81.8275 35.568C82.1635 35.96 82.3315 36.478 82.3315 37.122V37.556ZM91.4137 34.63C91.0777 34.266 90.6997 34 90.2517 33.804C89.8037 33.608 89.3277 33.51 88.8097 33.51C88.2777 33.51 87.8017 33.608 87.3537 33.804C86.9057 34 86.5277 34.266 86.2057 34.63C85.8977 34.966 85.6597 35.372 85.5057 35.834C85.3377 36.296 85.2677 36.8 85.2677 37.332C85.2677 37.878 85.3377 38.382 85.5057 38.844C85.6597 39.306 85.8977 39.698 86.2057 40.034C86.5277 40.398 86.9057 40.678 87.3537 40.874C87.8017 41.07 88.2777 41.154 88.8097 41.154C89.3277 41.154 89.8037 41.07 90.2517 40.874C90.6997 40.678 91.0777 40.398 91.4137 40.034C91.7217 39.698 91.9457 39.306 92.1137 38.844C92.2677 38.382 92.3517 37.878 92.3517 37.332C92.3517 36.8 92.2677 36.296 92.1137 35.834C91.9457 35.372 91.7217 34.966 91.4137 34.63ZM88.8097 34.924C89.3697 34.924 89.8177 35.148 90.1537 35.568C90.4897 36.002 90.6577 36.59 90.6577 37.332C90.6577 38.088 90.4897 38.676 90.1537 39.096C89.8177 39.53 89.3697 39.74 88.8097 39.74C88.2357 39.74 87.7877 39.53 87.4517 39.096C87.1157 38.676 86.9617 38.088 86.9617 37.332C86.9617 36.59 87.1157 36.002 87.4517 35.568C87.7877 35.148 88.2357 34.924 88.8097 34.924Z" fill="#000"/><mask id="mask0" mask-type="alpha" maskUnits="userSpaceOnUse" x="24" y="24" width="24" height="24"><path d="M24 33.6C24 30.2397 24 28.5595 24.654 27.2761C25.2292 26.1471 26.1471 25.2292 27.2761 24.654C28.5595 24 30.2397 24 33.6 24H38.4C41.7603 24 43.4405 24 44.7239 24.654C45.8529 25.2292 46.7708 26.1471 47.346 27.2761C48 28.5595 48 30.2397 48 33.6V38.4C48 41.7603 48 43.4405 47.346 44.7239C46.7708 45.8529 45.8529 46.7708 44.7239 47.346C43.4405 48 41.7603 48 38.4 48H33.6C30.2397 48 28.5595 48 27.2761 47.346C26.1471 46.7708 25.2292 45.8529 24.654 44.7239C24 43.4405 24 41.7603 24 38.4V33.6Z" fill="#F0F0F5"/></mask><g mask="url(#mask0)"><rect x="24" y="24" width="24" height="24" rx="8" fill="#AAB3FF"/><path d="M31.6718 33.7863C32.1197 33.7863 32.4865 33.4174 32.4865 32.967C32.4865 32.5166 32.1197 32.1428 31.6718 32.1428C31.224 32.1428 30.8572 32.5166 30.8572 32.967C30.8572 33.4174 31.224 33.7863 31.6718 33.7863ZM34.1539 33.5611H40.5521C40.8809 33.5611 41.1429 33.2976 41.1429 32.967C41.1429 32.6363 40.8856 32.3728 40.5521 32.3728H34.1539C33.8252 32.3728 33.5632 32.6316 33.5632 32.967C33.5632 33.2976 33.8205 33.5611 34.1539 33.5611ZM31.6718 36.8193C32.1197 36.8193 32.4865 36.4504 32.4865 36C32.4865 35.5496 32.1197 35.1806 31.6718 35.1806C31.224 35.1806 30.8572 35.5496 30.8572 36C30.8572 36.4504 31.224 36.8193 31.6718 36.8193ZM34.1539 36.5941H40.5521C40.8809 36.5941 41.1429 36.3354 41.1429 36C41.1429 35.6694 40.8856 35.4058 40.5521 35.4058H34.1539C33.8252 35.4058 33.5632 35.6646 33.5632 36C33.5632 36.3306 33.8205 36.5941 34.1539 36.5941ZM31.6718 39.8571C32.1197 39.8571 32.4865 39.4882 32.4865 39.0378C32.4865 38.5874 32.1197 38.2136 31.6718 38.2136C31.224 38.2136 30.8572 38.5874 30.8572 39.0378C30.8572 39.4882 31.224 39.8571 31.6718 39.8571ZM34.1539 39.6319H40.5521C40.8809 39.6319 41.1429 39.3684 41.1429 39.0378C41.1429 38.7072 40.8856 38.4436 40.5521 38.4436H34.1539C33.8252 38.4436 33.5632 38.7024 33.5632 39.0378C33.5632 39.3684 33.8205 39.6319 34.1539 39.6319Z" fill="#fff"/></g><defs><filter id="filter0_d" x="390" y="275" width="660" height="96" filterUnits="userSpaceOnUse" color-interpolation-filters="sRGB"><feFlood flood-opacity="0" result="BackgroundImageFix"/><feColorMatrix in="SourceAlpha" type="matrix" values="0 0 0 0 0 0 0 0 0 0 0 0 0 0 0 0 0 0 127 0"/><feOffset dy="1"/><feGaussianBlur stdDeviation="1"/><feColorMatrix type="matrix" values="0 0 0 0 0 0 0 0 0 0 0 0 0 0 0 0 0 0 0.04 0"/><feBlend mode="normal" in2="BackgroundImageFix" result="effect1_dropShadow"/><feBlend mode="normal" in="SourceGraphic" in2="effect1_dropShadow" result="shape"/></filter><filter id="filter1_d" x="414" y="407" width="20" height="20" filterUnits="userSpaceOnUse" color-interpolation-filters="sRGB"><feFlood flood-opacity="0" result="BackgroundImageFix"/><feColorMatrix in="SourceAlpha" type="matrix" values="0 0 0 0 0 0 0 0 0 0 0 0 0 0 0 0 0 0 127 0"/><feOffset dy="1"/><feGaussianBlur stdDeviation="1"/><feColorMatrix type="matrix" values="0 0 0 0 0 0 0 0 0 0 0 0 0 0 0 0 0 0 0.04 0"/><feBlend mode="normal" in2="BackgroundImageFix" result="effect1_dropShadow"/><feBlend mode="normal" in="SourceGraphic" in2="effect1_dropShadow" result="shape"/></filter><filter id="filter2_d" x="414" y="455" width="20" height="20" filterUnits="userSpaceOnUse" color-interpolation-filters="sRGB"><feFlood flood-opacity="0" result="BackgroundImageFix"/><feColorMatrix in="SourceAlpha" type="matrix" values="0 0 0 0 0 0 0 0 0 0 0 0 0 0 0 0 0 0 127 0"/><feOffset dy="1"/><feGaussianBlur stdDeviation="1"/><feColorMatrix type="matrix" values="0 0 0 0 0 0 0 0 0 0 0 0 0 0 0 0 0 0 0.04 0"/><feBlend mode="normal" in2="BackgroundImageFix" result="effect1_dropShadow"/><feBlend mode="normal" in="SourceGraphic" in2="effect1_dropShadow" result="shape"/></filter><filter id="filter3_d" x="520.377" y="638.4" width="12.246" height="21.209" filterUnits="userSpaceOnUse" color-interpolation-filters="sRGB"><feFlood flood-opacity="0" result="BackgroundImageFix"/><feColorMatrix in="SourceAlpha" type="matrix" values="0 0 0 0 0 0 0 0 0 0 0 0 0 0 0 0 0 0 127 0"/><feOffset dy="1"/><feGaussianBlur stdDeviation="1.3"/><feColorMatrix type="matrix" values="0 0 0 0 1 0 0 0 0 1 0 0 0 0 1 0 0 0 0.32 0"/><feBlend mode="normal" in2="BackgroundImageFix" result="effect1_dropShadow"/><feBlend mode="normal" in="SourceGraphic" in2="effect1_dropShadow" result="shape"/></filter><filter id="filter4_d" x="414" y="647" width="20" height="20" filterUnits="userSpaceOnUse" color-interpolation-filters="sRGB"><feFlood flood-opacity="0" result="BackgroundImageFix"/><feColorMatrix in="SourceAlpha" type="matrix" values="0 0 0 0 0 0 0 0 0 0 0 0 0 0 0 0 0 0 127 0"/><feOffset dy="1"/><feGaussianBlur stdDeviation="1"/><feColorMatrix type="matrix" values="0 0 0 0 0 0 0 0 0 0 0 0 0 0 0 0 0 0 0.04 0"/><feBlend mode="normal" in2="BackgroundImageFix" result="effect1_dropShadow"/><feBlend mode="normal" in="SourceGraphic" in2="effect1_dropShadow" result="shape"/></filter><filter id="filter5_d" x="414" y="599" width="20" height="20" filterUnits="userSpaceOnUse" color-interpolation-filters="sRGB"><feFlood flood-opacity="0" result="BackgroundImageFix"/><feColorMatrix in="SourceAlpha" type="matrix" values="0 0 0 0 0 0 0 0 0 0 0 0 0 0 0 0 0 0 127 0"/><feOffset dy="1"/><feGaussianBlur stdDeviation="1"/><feColorMatrix type="matrix" values="0 0 0 0 0 0 0 0 0 0 0 0 0 0 0 0 0 0 0.04 0"/><feBlend mode="normal" in2="BackgroundImageFix" result="effect1_dropShadow"/><feBlend mode="normal" in="SourceGraphic" in2="effect1_dropShadow" result="shape"/></filter><filter id="filter6_d" x="414" y="551" width="20" height="20" filterUnits="userSpaceOnUse" color-interpolation-filters="sRGB"><feFlood flood-opacity="0" result="BackgroundImageFix"/><feColorMatrix in="SourceAlpha" type="matrix" values="0 0 0 0 0 0 0 0 0 0 0 0 0 0 0 0 0 0 127 0"/><feOffset dy="1"/><feGaussianBlur stdDeviation="1"/><feColorMatrix type="matrix" values="0 0 0 0 0 0 0 0 0 0 0 0 0 0 0 0 0 0 0.04 0"/><feBlend mode="normal" in2="BackgroundImageFix" result="effect1_dropShadow"/><feBlend mode="normal" in="SourceGraphic" in2="effect1_dropShadow" result="shape"/></filter></defs></svg>