<svg width="24" height="24" viewBox="0 0 24 24" fill="none" xmlns="http://www.w3.org/2000/svg">
<path fill-rule="evenodd" clip-rule="evenodd" d="M0.296084 2.17027C-1.11759e-07 2.85448 -7.61996e-08 3.72699 0 5.472L2.85426e-07 12L5.70773e-07 18.528C6.4705e-07 20.273 0 21.1455 0.296084 21.8297C0.659732 22.6701 1.32993 23.3403 2.17027 23.7039C2.85448 24 3.72698 24 5.472 24H12H18.528C20.273 24 21.1455 24 21.8297 23.7039C22.6701 23.3403 23.3403 22.6701 23.7039 21.8297C24 21.1455 24 20.273 24 18.528V12V5.472C24 3.72698 24 2.85448 23.7039 2.17027C23.3403 1.32993 22.6701 0.65973 21.8297 0.296083C21.1455 -1.3411e-07 20.273 -7.61996e-08 18.528 0L12 2.85426e-07L5.472 5.70774e-07C3.72698 6.47051e-07 2.8125 5.81145e-07 2.17027 0.296084C1.32993 0.659733 0.659732 1.32993 0.296084 2.17027ZM15.8313 10.3393C14.6336 10.3393 13.6625 9.36817 13.6625 8.17022C13.6625 6.97287 14.6336 6.00176 15.8313 6.00176C17.029 6.00176 18.0001 6.97287 18.0001 8.17022C18.0001 9.36817 17.029 10.3393 15.8313 10.3393ZM10.3357 8.17001C10.3357 9.36716 9.36506 10.3379 8.16764 10.3379C6.97083 10.3379 6.00015 9.36716 6.00015 8.17001C6.00015 6.97286 6.97083 6.00215 8.16764 6.00215C9.36506 6.00215 10.3357 6.97286 10.3357 8.17001ZM15.8315 13.6692C14.6336 13.6692 13.6625 14.6403 13.6625 15.838C13.6625 17.0357 14.6336 18.0068 15.8315 18.0068C17.0289 18.0068 18 17.0357 18 15.838C18 14.6403 17.0289 13.6692 15.8315 13.6692ZM8.16783 13.6713C9.36497 13.6713 10.3357 14.642 10.3357 15.8394C10.3357 17.0362 9.36497 18.0068 8.16783 18.0068C6.9707 18.0068 6 17.0362 6 15.8394C6 14.642 6.9707 13.6713 8.16783 13.6713Z" fill="white"/>
</svg>
