<svg width="154" height="154" viewBox="0 0 154 154" fill="none" xmlns="http://www.w3.org/2000/svg">
  <path fill-rule="evenodd" clip-rule="evenodd"
    d="M77 154C119.526 154 154 119.526 154 77C154 34.4741 119.526 0 77 0C34.4741 0 0 34.4741 0 77C0 119.526 34.4741 154 77 154ZM110.569 74.8096V66.6358H90.5009L104.594 45.3276H93.9395L76.9718 71.0328L60.0605 45.3276H49.4064L63.4991 66.6358H43.431V74.866H110.569V74.8096ZM104.368 112.466L90.1063 90.8754H110.569V82.758H43.431V90.9318H63.8937L49.6319 112.466H60.2296L76.9718 87.0985L93.714 112.466H104.368Z"
    fill="black" />
</svg>