<svg width="65" height="65" viewBox="0 0 65 65" fill="none" xmlns="http://www.w3.org/2000/svg">
<mask id="mask0" mask-type="alpha" maskUnits="userSpaceOnUse" x="0" y="0" width="65" height="65">
<path d="M64.5764 0.0744896H0.576416V64.0745H64.5764V0.0744896Z" fill="#F0F0F5"/>
</mask>
<g mask="url(#mask0)">
<path d="M64.5764 0.0744896H0.576416V64.0745H64.5764V0.0744896Z" fill="#9985FF"/>
<path d="M12.5764 16.0745C12.5764 13.8654 14.3673 12.0745 16.5764 12.0745H104.576C106.786 12.0745 108.576 13.8654 108.576 16.0745V68.0745H12.5764V16.0745Z" fill="white"/>
<path opacity="0.32" d="M24.5764 26.5745C24.5764 26.0222 25.0241 25.5745 25.5764 25.5745H67.5764C68.1287 25.5745 68.5764 26.0222 68.5764 26.5745V30.0745C68.5764 30.6268 68.1287 31.0745 67.5764 31.0745H25.5764C25.0241 31.0745 24.5764 30.6268 24.5764 30.0745V26.5745Z" fill="#08018A"/>
<path opacity="0.2" d="M31.5764 40.5745C31.5764 40.0222 32.0241 39.5745 32.5764 39.5745H66.5764C67.1287 39.5745 67.5764 40.0222 67.5764 40.5745V44.0745C67.5764 44.6268 67.1287 45.0745 66.5764 45.0745H32.5764C32.0241 45.0745 31.5764 44.6268 31.5764 44.0745V40.5745Z" fill="#08018A"/>
<path opacity="0.12" d="M27.5764 54.5745C27.5764 54.0222 28.0241 53.5745 28.5764 53.5745H82.5764C83.1287 53.5745 83.5764 54.0222 83.5764 54.5745V58.0745C83.5764 58.6268 83.1287 59.0745 82.5764 59.0745H28.5764C28.0241 59.0745 27.5764 58.6268 27.5764 58.0745V54.5745Z" fill="#08018A"/>
<path d="M28.0165 7L8 14.138L11.053 40.6045L28.0165 50L44.98 40.6045L48.033 14.138L28.0165 7Z" fill="#DD0031"/>
<path d="M28.0165 7V11.773V11.7515V33.531V50L44.98 40.6045L48.033 14.138L28.0165 7Z" fill="#C3002F"/>
<path d="M28.0165 11.7515L15.5035 39.809H20.169L22.6845 33.531H33.3055L35.821 39.809H40.4865L28.0165 11.7515ZM31.6715 29.661H24.3615L28.0165 20.8675L31.6715 29.661Z" fill="white"/>
</g>
</svg>
