<svg width="65" height="65" viewBox="0 0 65 65" fill="none" xmlns="http://www.w3.org/2000/svg">
<rect x="0.667969" y="0.439056" width="64" height="64" fill="#9985FF"/>
<path d="M46.668 32.4391C44.5668 32.4391 42.4862 32.0252 40.545 31.2211C38.6038 30.4171 36.84 29.2385 35.3543 27.7528C33.8685 26.267 32.69 24.5032 31.8859 22.562C31.0818 20.6208 30.668 18.5402 30.668 16.4391L46.668 16.4391L46.668 32.4391Z" fill="white" fill-opacity="0.64"/>
<path d="M18.668 32.4391C20.7691 32.4391 22.8497 32.0252 24.7909 31.2211C26.7321 30.4171 28.4959 29.2385 29.9817 27.7528C31.4674 26.267 32.646 24.5032 33.45 22.562C34.2541 20.6208 34.668 18.5402 34.668 16.4391L18.668 16.4391L18.668 32.4391Z" fill="white"/>
<path d="M18.668 32.4391C20.7691 32.4391 22.8497 32.8529 24.7909 33.657C26.7321 34.4611 28.4959 35.6396 29.9817 37.1253C31.4674 38.6111 32.646 40.3749 33.45 42.3161C34.2541 44.2573 34.668 46.3379 34.668 48.4391L18.668 48.4391L18.668 32.4391Z" fill="white" fill-opacity="0.64"/>
<path d="M46.668 32.4391C44.5668 32.4391 42.4862 32.8529 40.545 33.657C38.6038 34.4611 36.84 35.6396 35.3543 37.1253C33.8685 38.6111 32.69 40.3749 31.8859 42.3161C31.0818 44.2573 30.668 46.3379 30.668 48.4391L46.668 48.4391L46.668 32.4391Z" fill="white"/>
</svg>
