<svg width="257" height="145" viewBox="0 0 257 145" fill="none" xmlns="http://www.w3.org/2000/svg">
<rect x="0.0919189" y="0.439056" width="256" height="144" fill="#9985FF"/>
<mask id="mask0" mask-type="alpha" maskUnits="userSpaceOnUse" x="0" y="0" width="257" height="145">
<rect x="0.0919189" y="0.439056" width="256" height="144" fill="#9985FF"/>
</mask>
<g mask="url(#mask0)">
<path d="M161.372 72.4391C156.445 72.4391 151.567 71.4687 147.015 69.5833C142.463 67.6979 138.328 64.9344 134.844 61.4507C131.36 57.9669 128.597 53.8311 126.711 49.2793C124.826 44.7276 123.855 39.8491 123.855 34.9223L161.372 34.9223V72.4391Z" fill="white" fill-opacity="0.64"/>
<path d="M95.718 72.4391C100.645 72.4391 105.523 71.4687 110.075 69.5833C114.627 67.6979 118.763 64.9344 122.246 61.4507C125.73 57.9669 128.494 53.8311 130.379 49.2793C132.264 44.7276 133.235 39.8491 133.235 34.9223L95.718 34.9223V72.4391Z" fill="white"/>
<path d="M95.7178 72.439C100.645 72.439 105.523 73.4094 110.075 75.2948C114.627 77.1802 118.762 79.9437 122.246 83.4275C125.73 86.9112 128.493 91.047 130.379 95.5988C132.264 100.151 133.235 105.029 133.235 109.956L95.7178 109.956V72.439Z" fill="white" fill-opacity="0.64"/>
<path d="M161.372 72.439C156.445 72.439 151.567 73.4094 147.015 75.2948C142.463 77.1802 138.328 79.9437 134.844 83.4275C131.36 86.9112 128.597 91.047 126.711 95.5988C124.826 100.151 123.855 105.029 123.855 109.956L161.372 109.956V72.439Z" fill="white"/>
</g>
</svg>
