<svg width="257" height="145" viewBox="0 0 257 145" fill="none" xmlns="http://www.w3.org/2000/svg">
<rect x="0.395874" y="0.0744896" width="256" height="144" fill="#9985FF"/>
<g style="mix-blend-mode:multiply">
<rect x="0.395874" y="0.0744896" width="256" height="144" fill="#9985FF"/>
</g>
<path fill-rule="evenodd" clip-rule="evenodd" d="M167.758 34.7124H89.0338V88.8353H97.6689C98.5716 87.7078 99.5374 86.6287 100.563 85.6034C104.218 81.9483 108.557 79.0489 113.333 77.0708C118.108 75.0926 123.227 74.0745 128.396 74.0745C133.565 74.0745 138.684 75.0926 143.459 77.0708C148.235 79.0489 152.574 81.9483 156.229 85.6034C157.254 86.6287 158.22 87.7078 159.123 88.8353H167.758V34.7124Z" fill="white"/>
<path opacity="0.64" d="M167.758 113.437C167.758 108.268 166.74 103.149 164.762 98.3734C162.784 93.5978 159.884 89.2585 156.229 85.6034C152.574 81.9483 148.235 79.0489 143.459 77.0708C138.684 75.0926 133.565 74.0745 128.396 74.0745C123.227 74.0745 118.108 75.0926 113.333 77.0708C108.557 79.0489 104.218 81.9483 100.563 85.6034C96.9076 89.2585 94.0082 93.5978 92.0301 98.3734C90.0519 103.149 89.0338 108.268 89.0338 113.437L128.396 113.437H167.758Z" fill="white"/>
</svg>
