<svg xmlns="http://www.w3.org/2000/svg" viewBox="0 0 682.73 385.13"><defs><style>.cls-1{fill:#9586f7;}.cls-2{fill:#fff;}.cls-3{fill:#5946ef;}.cls-4{fill:#060282;}.cls-5{opacity:0.15;}.cls-6,.cls-8{fill:none;stroke-miterlimit:10;}.cls-6{stroke:#4d4d4d;stroke-width:2px;}.cls-7{opacity:0.28;}.cls-8{stroke:#fff;stroke-linecap:round;stroke-width:1.68px;}</style></defs><g id="Layer_2" data-name="Layer 2"><g id="Layer_1-2" data-name="Layer 1"><rect class="cls-1" width="682.73" height="385.13"/><polygon class="cls-2" points="531.96 325.28 531.24 325.13 530.52 325.23 529.81 324.96 529.09 325.08 528.37 325.43 527.66 325.32 526.94 325.25 526.22 324.94 525.51 325.12 524.79 325.53 524.07 325.14 523.36 325.48 522.64 325.22 521.92 325.44 521.21 324.89 520.49 325.27 519.77 325 519.06 325.03 518.34 324.94 517.62 325.46 516.91 325.12 516.19 325.25 515.47 325.04 514.75 324.93 514.04 325.35 513.32 324.95 512.6 325.53 511.89 325.52 511.17 325.31 510.45 325.53 509.74 325.03 509.02 324.99 508.3 325.25 507.58 325.08 506.87 325.16 506.15 325.5 505.43 325.28 504.71 325.4 504 325.43 503.28 325.4 502.56 325.02 501.84 325.27 501.12 325.2 500.4 325.14 499.69 324.92 498.97 325.39 498.25 324.96 497.53 325.37 496.81 325.56 496.1 325.34 495.38 324.97 494.66 325.02 493.94 325.58 493.22 325.51 492.5 325.25 491.78 325.55 491.06 324.91 490.35 325.4 489.63 325.18 488.91 325.14 488.19 324.99 487.47 325.06 486.75 325.12 486.03 325.18 485.31 325.52 484.59 325.2 483.87 325 483.15 325.34 482.43 324.89 481.71 325.02 480.99 325.51 480.27 325.08 479.55 325.36 478.83 325.32 478.11 324.99 477.38 325.5 476.66 325.36 475.94 325.25 475.22 325.34 474.5 324.98 473.78 325.37 473.06 325.31 472.34 325.1 471.62 325.43 470.9 324.91 470.18 324.93 469.46 325.22 468.74 325.32 468.02 324.98 467.3 325.06 466.58 325.57 465.86 325.2 465.14 325.55 464.42 324.9 463.7 324.92 462.98 325.43 462.26 325.45 461.55 325.22 460.83 325.18 460.11 325.22 459.39 325.31 458.67 325.41 457.95 325.07 457.23 325.51 456.51 324.94 455.79 325.21 455.07 325.11 454.36 325.37 453.64 324.89 452.92 325.17 452.2 325.56 451.48 324.96 450.76 325.53 450.05 325.23 449.33 325.25 448.61 325.27 447.89 325.25 447.17 325.58 446.45 325.34 445.74 325.29 445.02 324.89 444.3 325.18 443.58 325.48 442.86 324.91 442.14 325.35 441.43 324.98 440.71 325.12 439.99 325.08 439.27 324.93 438.55 325.4 437.83 325.57 437.12 325.16 436.4 325.53 435.68 325.28 434.96 325.31 434.24 325.17 433.53 325.07 432.81 325.1 432.09 325.29 431.37 325.07 430.65 325.39 429.93 324.91 429.22 325.39 428.5 325.23 427.78 325.4 427.06 325.33 426.34 325.24 425.62 325.31 424.9 325.24 424.19 324.89 423.47 325.47 422.75 325.57 422.03 325.07 421.31 325.53 420.59 324.92 419.87 325.01 419.15 324.89 418.43 325.55 417.71 325.21 417 325.32 416.28 324.91 415.56 325.25 414.84 325.18 414.12 325.31 413.4 325.27 412.68 325.01 411.96 325.49 411.24 325.12 410.52 325.29 409.8 325.09 409.08 325.13 408.36 325.02 407.64 325.27 406.92 325.17 406.2 325.44 405.48 325.46 404.75 325.43 404.03 325.09 403.31 325.38 402.59 325.05 401.87 324.95 401.15 325.51 400.43 325 399.7 325.34 398.98 324.92 398.26 325.12 397.54 325.14 396.82 324.9 396.1 325.37 395.38 325.02 394.66 325.57 393.94 325 393.22 325.31 392.5 324.9 391.78 324.98 391.06 325.2 390.34 324.94 389.62 325.28 388.9 325.1 388.18 325.46 387.46 325.53 386.74 325.21 386.02 325.46 385.3 325.06 384.58 325.04 383.86 325.58 383.14 325.17 382.42 325.08 381.7 325.01 380.98 325.31 380.26 325.17 379.54 325.49 378.82 325.18 378.1 325.45 377.38 324.91 376.67 324.94 375.95 324.89 375.23 325.01 374.51 325.17 373.79 325.55 373.07 325.23 372.35 324.89 371.63 325.4 370.91 325.54 370.19 325.04 369.47 325.12 368.75 325.07 368.03 325.19 367.31 325 366.59 324.94 365.87 325.2 365.15 325.35 364.43 325.41 363.71 325.43 362.99 325.56 362.27 325.13 361.55 325.26 360.83 325.31 360.11 324.9 359.39 325.39 358.67 325.35 357.95 325.31 357.23 325.34 356.51 324.94 355.79 325.33 355.07 325.11 354.35 324.95 353.63 325.17 352.91 325.14 352.19 325.49 351.46 325.25 350.74 325.19 350.02 325.03 349.3 325.54 348.58 325.48 347.86 325.32 347.13 325.45 346.41 325.21 345.69 325.41 344.97 325.05 344.25 325.24 343.53 325.24 342.81 324.96 342.09 325.12 341.37 324.88 340.64 324.94 339.92 325.25 339.2 325.28 338.48 325.09 337.76 325.25 337.04 325.18 336.32 325.34 335.6 325.19 334.88 325.08 334.16 325.05 333.44 325.31 332.72 325.55 332 325.16 331.28 325.1 330.56 325.16 329.84 325.46 329.12 325.35 328.4 325.49 327.68 324.98 326.96 325.35 326.24 325.53 325.52 325.38 324.81 325.25 324.09 325.5 323.37 325.12 322.65 325.1 321.93 325.35 321.21 325.44 320.5 324.91 319.78 325.15 319.06 325.56 318.34 325.01 317.62 324.98 316.9 324.92 316.18 324.99 315.46 325.13 314.74 325.15 314.01 325.31 313.29 325.04 312.57 325.05 311.85 325.22 311.13 325.45 310.4 325.14 309.68 325.29 308.96 325.19 308.24 325.53 307.52 325.25 306.8 325.35 306.08 325.46 305.36 325.12 304.64 325.5 303.92 325.38 303.2 325.13 302.48 324.88 301.76 325.34 301.04 325.19 300.32 325.4 299.61 325.17 298.89 325.37 298.17 325.42 297.45 325.05 296.73 325.33 296.02 325.1 295.3 325.1 294.58 325.31 293.86 325.48 293.14 325.22 292.43 325.27 291.71 325.06 290.99 325.53 290.28 325.06 289.56 325.14 288.84 325.56 288.12 325.39 287.41 325.16 286.69 325.43 285.97 325.05 285.25 325.19 284.54 325.51 283.82 325.35 283.1 325.21 282.38 325.36 281.67 325.32 280.95 325.06 280.23 325.57 279.51 325.36 278.8 325.33 278.08 324.9 277.36 325.18 276.64 325.14 275.92 325.21 275.2 325.02 274.48 324.96 273.76 325.26 273.04 325.46 272.32 325.55 271.61 324.95 270.88 324.9 270.16 324.95 269.44 325.47 268.72 325.31 268 325.56 267.28 325.04 266.56 325.33 265.83 325.19 265.11 324.99 264.39 325.52 263.67 325.47 262.94 325.56 262.22 325.34 261.5 325.06 260.77 324.99 260.05 325.3 259.33 325.13 258.61 325.22 257.89 325.01 257.16 325.56 256.44 325.58 255.72 325.44 255 325.4 254.28 324.89 253.56 325.03 252.84 325.06 252.12 325.51 251.4 324.92 250.68 324.9 249.96 325.29 249.24 325.02 248.52 324.92 247.8 325.2 247.08 325.39 246.36 324.96 245.64 325.11 244.92 325.31 244.2 325.05 243.48 325.15 242.76 325.2 242.04 324.93 241.31 325.08 240.59 324.94 239.87 325.06 239.15 325.34 238.43 324.9 237.71 325.57 236.98 325 236.26 325.33 235.54 325.41 234.81 325.22 234.09 325.53 233.36 325.2 232.64 324.93 231.92 325.02 231.19 324.9 230.47 325.44 229.75 325.25 229.03 325.37 228.3 325.49 227.58 325.1 226.86 325.11 226.14 325.34 225.41 325.51 224.69 325.44 223.97 325.02 223.25 325.13 222.53 325.36 221.81 324.91 221.08 324.95 220.36 325.23 219.64 325.25 218.92 325.01 218.19 324.89 217.47 325.47 216.75 324.95 216.02 325.43 215.3 325.08 214.57 325.26 213.85 324.9 213.12 325.29 212.4 325.49 211.68 324.96 210.95 325.44 210.23 325.51 209.51 324.94 208.78 325.24 208.06 325.53 207.34 325.41 206.62 325.48 205.89 325.21 205.17 325.43 204.45 325.51 203.72 325.21 203 325.21 202.27 325.51 201.55 325.23 200.82 325.25 200.1 325.28 199.37 325.14 198.65 325.37 197.93 325.06 197.21 325.15 196.49 324.91 195.77 324.88 195.05 325.45 194.32 325.25 193.6 325.52 192.88 325.38 192.15 325.41 191.43 325.4 190.7 325.52 189.98 324.9 189.25 325.18 188.53 324.95 187.81 324.89 187.09 325.14 186.37 324.94 185.65 325.15 184.93 324.93 184.2 325.2 183.48 324.89 182.76 324.94 182.04 325.16 181.31 325.28 180.59 324.92 179.86 325.12 179.13 325.06 178.41 325.43 177.68 325.52 176.96 325.42 176.24 325.22 175.51 325.08 174.79 325.43 174.06 325.56 173.34 325.08 172.61 325.46 171.88 325.23 171.16 325.24 170.43 325.25 169.71 325.11 168.98 325.47 168.25 324.9 167.53 325.21 166.8 325.29 166.07 324.99 165.34 325.22 164.62 325.12 163.9 325.07 163.18 324.89 162.45 324.88 161.72 325.36 160.99 324.96 160.27 325.52 159.54 325.23 158.81 325.4 158.08 325.15 157.36 325.45 156.63 325.22 155.9 324.94 155.17 325.33 154.44 325.35 153.71 324.91 152.98 325.25 152.24 325.46 151.51 325.2 150.77 325.4 150.05 325.22 149.32 325.35 148.64 324.82 147.92 324.88 147.22 324.7 146.42 325.06 145.76 324.69 145.09 324.4 144.43 324.12 143.66 324.15 142.9 324.13 142.39 323.44 141.83 322.95 141.12 322.78 140.41 322.59 139.91 322.03 138.99 322.15 138.48 321.61 137.91 321.15 137.31 320.75 136.92 320.08 136.18 319.85 135.92 319.06 135.16 318.82 134.76 318.2 134.03 317.88 133.89 317.06 133.34 316.57 132.94 315.98 132.4 315.48 131.99 314.88 131.59 314.28 131.19 313.67 130.97 312.96 130.62 312.33 130.58 311.57 130.2 310.95 129.73 310.35 129.62 309.62 129.62 308.87 129.14 308.25 129.26 307.49 128.73 306.85 128.75 306.11 128.77 305.37 129.01 304.63 128.66 303.93 128.42 303.21 128.46 302.49 128.47 301.77 128.85 301.05 128.71 300.33 128.56 299.62 129.02 298.9 128.42 298.18 129.07 297.46 129.01 296.74 129.07 296.02 128.85 295.3 129 294.58 128.8 293.87 128.94 293.15 128.76 292.43 128.84 291.71 129.01 290.99 129.09 290.27 128.69 289.55 129.09 288.83 128.79 288.11 128.49 287.39 128.83 286.67 128.49 285.95 128.85 285.23 128.58 284.51 128.89 283.79 128.44 283.07 128.97 282.35 128.85 281.63 128.78 280.91 128.82 280.19 128.69 279.47 128.88 278.75 128.74 278.02 128.94 277.31 128.73 276.58 128.71 275.86 129.05 275.14 128.71 274.42 129.04 273.7 128.76 272.98 128.58 272.26 128.92 271.55 128.87 270.82 128.74 270.11 128.66 269.39 128.53 268.67 128.75 267.95 128.8 267.23 128.89 266.51 129.07 265.79 128.7 265.07 128.99 264.35 128.51 263.63 128.66 262.91 128.89 262.19 128.75 261.47 128.83 260.75 128.41 260.04 129.01 259.32 128.95 258.6 128.77 257.88 128.6 257.16 128.53 256.44 128.94 255.73 128.66 255.01 128.61 254.29 128.97 253.57 128.96 252.86 128.57 252.14 128.75 251.42 128.41 250.71 128.86 249.99 128.85 249.27 128.42 248.55 128.95 247.83 128.69 247.11 128.75 246.39 128.65 245.67 128.59 244.95 129.08 244.23 128.8 243.51 128.46 242.79 128.62 242.06 128.42 241.34 128.62 240.62 128.63 239.9 128.56 239.18 129.01 238.46 128.57 237.75 129.01 237.03 128.9 236.31 128.72 235.59 128.48 234.87 128.56 234.15 128.82 233.43 128.6 232.71 128.82 232 129.05 231.28 128.55 230.56 128.73 229.84 129.08 229.13 128.58 228.41 128.75 227.69 128.73 226.97 128.87 226.26 128.73 225.54 128.66 224.82 128.49 224.11 129.03 223.39 128.42 222.67 128.73 221.96 128.54 221.24 128.59 220.53 128.93 219.81 129.05 219.09 128.45 218.38 128.93 217.66 128.65 216.94 128.48 216.23 128.42 215.51 129.04 214.79 128.68 214.08 128.48 213.36 128.82 212.64 128.72 211.93 128.42 211.21 129.08 210.49 128.64 209.78 128.63 209.06 128.78 208.34 128.54 207.62 128.9 206.91 128.73 206.19 128.63 205.47 128.99 204.75 128.59 204.03 128.46 203.31 128.98 202.59 128.74 201.88 129.05 201.16 129 200.44 128.77 199.72 128.7 199 128.74 198.28 128.99 197.55 128.64 196.83 128.84 196.11 128.45 195.39 128.78 194.67 128.6 193.94 128.66 193.22 129.04 192.5 128.95 191.78 128.64 191.06 128.7 190.34 129.02 189.61 128.41 188.89 128.93 188.17 128.89 187.45 128.61 186.73 128.79 186.01 128.4 185.29 129.04 184.57 128.75 183.85 128.7 183.13 128.93 182.42 128.82 181.7 128.81 180.98 128.73 180.26 128.99 179.54 128.95 178.82 128.99 178.1 128.43 177.38 128.88 176.66 128.82 175.94 128.61 175.22 128.56 174.5 128.53 173.78 128.63 173.06 129.01 172.34 129.1 171.62 128.7 170.9 128.47 170.18 128.86 169.46 129 168.74 128.69 168.02 128.83 167.3 128.88 166.57 128.84 165.85 129.08 165.13 128.59 164.4 128.89 163.68 128.47 162.96 128.49 162.24 128.45 161.51 128.76 160.79 129.02 160.07 128.47 159.35 128.69 158.63 128.51 157.91 128.57 157.19 128.53 156.47 128.78 155.75 128.83 155.02 128.7 154.3 128.94 153.58 128.77 152.86 128.61 152.14 128.53 151.42 128.81 150.7 128.8 149.98 128.41 149.25 129 148.53 128.78 147.81 128.73 147.09 128.83 146.36 129.07 145.64 128.58 144.91 128.54 144.19 128.47 143.47 128.71 142.75 128.87 142.02 128.6 141.3 128.64 140.58 128.87 139.86 128.89 139.13 129.09 138.41 128.51 137.69 128.55 136.97 128.65 136.25 129.1 135.52 129.07 134.8 128.87 134.08 128.76 133.35 128.79 132.63 128.9 131.91 128.66 131.18 128.77 130.46 129 129.74 128.68 129.01 128.61 128.29 128.98 127.58 128.72 126.86 128.94 126.14 128.51 125.42 129 124.69 128.96 123.97 128.65 123.25 128.96 122.52 128.78 121.8 128.63 121.08 129.08 120.35 129.1 119.63 128.65 118.91 128.69 118.19 128.57 117.47 128.93 116.75 128.74 116.03 128.8 115.31 128.8 114.59 128.5 113.87 129.09 113.14 128.55 112.42 128.51 111.7 129 110.97 128.72 110.25 128.61 109.52 128.6 108.8 128.8 108.07 128.53 107.35 128.61 106.63 128.9 105.91 128.42 105.18 128.5 104.46 128.89 103.73 128.47 103 128.61 102.28 128.48 101.55 128.71 100.83 128.88 100.1 129.02 99.38 129 98.65 128.93 97.93 128.97 97.2 128.5 96.47 129.07 95.75 128.71 95.03 128.83 94.31 128.93 93.58 128.54 92.86 128.65 92.13 128.8 91.4 128.92 90.68 129.07 89.95 129.07 89.22 128.52 88.5 128.94 87.77 128.83 87.04 128.96 86.31 128.59 85.58 128.41 84.85 128.69 84.12 128.88 83.39 128.79 82.66 128.85 81.92 128.95 81.2 128.87 80.48 129.02 79.78 128.6 79 129.03 78.33 129.43 77.67 129.4 76.93 129.59 76.24 129.91 75.59 130.11 74.9 130.42 74.26 130.16 73.38 130.99 72.95 130.87 72.1 131.6 71.67 131.93 71.04 132.13 70.32 132.43 69.66 133.03 69.2 133.28 68.49 133.87 68.04 134.12 67.31 134.78 66.94 135.07 66.21 135.77 65.89 136.34 65.46 136.71 64.78 137.22 64.25 137.91 63.96 138.73 63.88 139.16 63.23 139.71 62.74 140.52 62.73 140.91 61.9 141.57 61.6 142.32 61.51 143.04 61.37 143.74 61.18 144.35 60.74 145.02 60.45 145.84 60.76 146.46 60.21 147.15 59.97 147.88 59.97 148.59 59.72 149.34 60.13 150.06 60.07 150.77 59.64 151.49 59.71 152.21 59.87 152.92 59.8 153.64 60.19 154.35 59.56 155.07 59.73 155.79 59.78 156.5 60.09 157.22 60.1 157.94 59.62 158.66 59.96 159.37 59.95 160.09 60.03 160.8 59.59 161.52 59.74 162.24 60.24 162.96 59.95 163.67 59.94 164.39 59.74 165.1 60.15 165.82 59.93 166.54 59.87 167.26 59.8 167.97 60.05 168.69 60.06 169.41 60.21 170.12 59.82 170.84 60.11 171.56 60.16 172.28 59.6 172.99 59.56 173.71 59.88 174.43 60.13 175.15 60.08 175.86 59.85 176.58 59.8 177.3 59.78 178.01 59.64 178.73 59.8 179.45 60.25 180.17 60.14 180.89 60.21 181.6 59.78 182.32 59.85 183.04 59.86 183.76 59.66 184.48 60.19 185.19 59.89 185.91 59.57 186.63 59.69 187.35 59.68 188.07 59.68 188.79 60.22 189.51 59.57 190.23 59.76 190.94 59.59 191.66 60.05 192.38 60.03 193.1 60.19 193.82 60.05 194.54 59.59 195.26 59.77 195.98 60.15 196.7 59.98 197.42 60.24 198.14 59.7 198.86 60 199.58 59.66 200.3 59.85 201.02 59.67 201.74 59.55 202.46 59.68 203.18 59.68 203.9 59.97 204.62 59.72 205.34 59.63 206.06 59.69 206.79 59.86 207.51 59.97 208.23 59.89 208.95 59.77 209.67 60 210.39 59.83 211.11 59.89 211.83 60.17 212.55 59.7 213.27 59.6 213.99 60.22 214.71 59.77 215.43 59.76 216.15 60.17 216.87 60.01 217.59 60.23 218.31 60.08 219.03 59.94 219.75 59.67 220.46 59.72 221.18 59.75 221.9 59.88 222.62 59.64 223.34 59.97 224.06 60.1 224.78 60.08 225.5 59.92 226.22 59.72 226.94 59.59 227.65 60.12 228.37 59.8 229.09 59.55 229.81 59.67 230.53 60.08 231.25 59.9 231.96 59.89 232.68 59.67 233.4 59.69 234.12 59.7 234.84 60.12 235.56 60.21 236.27 60.1 236.99 59.58 237.71 60.24 238.43 59.59 239.15 59.67 239.87 59.94 240.58 59.79 241.3 60.04 242.02 60.01 242.74 59.93 243.46 59.66 244.18 59.59 244.89 59.59 245.61 59.81 246.33 59.98 247.05 59.87 247.77 59.77 248.48 59.57 249.2 59.84 249.92 60.18 250.64 59.74 251.36 59.74 252.07 59.78 252.79 60.09 253.51 59.58 254.23 60.16 254.95 59.96 255.67 60.01 256.39 59.97 257.11 59.67 257.82 60.09 258.54 59.74 259.26 60.07 259.98 60.07 260.7 59.62 261.42 60.16 262.14 59.79 262.86 60 263.57 59.85 264.29 59.98 265.01 60.19 265.73 59.56 266.45 59.71 267.17 59.67 267.89 59.74 268.61 59.83 269.33 60.02 270.05 60.09 270.77 59.98 271.49 59.93 272.21 59.63 272.93 59.79 273.65 59.92 274.37 59.73 275.09 59.66 275.81 60.03 276.53 59.77 277.25 60.11 277.97 59.95 278.69 59.94 279.42 59.79 280.14 59.9 280.86 59.68 281.58 59.76 282.3 59.9 283.02 59.78 283.75 59.56 284.47 59.68 285.19 60.02 285.91 59.93 286.63 60.2 287.35 59.55 288.07 59.75 288.79 60.05 289.51 60.22 290.23 60.19 290.95 60.05 291.67 60.24 292.39 59.9 293.11 59.83 293.83 60.13 294.55 60.1 295.27 60 295.99 59.64 296.71 59.72 297.43 59.63 298.15 60.2 298.87 59.91 299.59 60.01 300.31 59.77 301.03 59.86 301.75 60.18 302.47 60.16 303.19 60.05 303.9 59.55 304.62 59.74 305.34 60.12 306.06 60.2 306.78 59.59 307.5 59.63 308.22 59.67 308.94 59.69 309.66 59.55 310.38 59.9 311.1 60.23 311.82 59.96 312.54 60.08 313.26 59.62 313.98 60.03 314.7 59.77 315.42 59.71 316.13 59.63 316.86 59.76 317.57 59.77 318.29 59.8 319.01 60.01 319.73 60.09 320.45 60.23 321.17 59.92 321.89 60.19 322.61 59.8 323.33 59.77 324.06 59.63 324.77 59.8 325.5 59.8 326.22 59.98 326.94 59.98 327.66 59.9 328.38 60.02 329.1 59.91 329.82 59.94 330.54 59.76 331.26 59.95 331.99 60.19 332.71 59.75 333.43 60.11 334.15 59.81 334.87 59.86 335.6 59.6 336.32 59.69 337.04 59.72 337.76 60.17 338.48 59.9 339.2 60.09 339.92 60 340.64 59.89 341.36 59.9 342.08 60.18 342.8 59.7 343.52 59.74 344.25 59.79 344.97 60 345.69 60.21 346.41 59.91 347.13 59.89 347.85 59.67 348.57 60.05 349.29 59.82 350.01 60.17 350.73 59.82 351.45 59.73 352.17 60.18 352.89 60.07 353.61 59.57 354.33 59.78 355.05 59.78 355.77 60.18 356.49 60.06 357.21 59.65 357.92 60.21 358.64 59.74 359.36 59.73 360.08 59.62 360.79 59.94 361.51 59.84 362.23 59.78 362.95 60.01 363.67 59.94 364.39 59.8 365.11 59.83 365.83 59.81 366.55 60.14 367.27 59.7 367.99 59.93 368.71 59.66 369.44 59.89 370.16 59.84 370.88 59.67 371.6 59.91 372.32 59.94 373.04 59.66 373.77 59.86 374.49 59.55 375.21 60.08 375.93 60.16 376.65 59.66 377.37 59.95 378.09 59.84 378.81 59.84 379.53 59.67 380.25 59.63 380.96 59.95 381.68 60.06 382.4 60.16 383.12 60.07 383.84 59.91 384.56 59.93 385.28 60.13 385.99 59.8 386.71 59.98 387.43 59.64 388.15 59.77 388.87 60.08 389.58 60.13 390.3 59.86 391.02 59.97 391.74 60.22 392.45 60.01 393.17 60.08 393.89 60.1 394.6 59.63 395.32 60.24 396.04 59.7 396.76 59.72 397.47 59.93 398.19 59.94 398.91 59.65 399.63 59.63 400.34 59.71 401.06 59.89 401.78 60.16 402.5 59.65 403.21 59.79 403.93 60.01 404.65 60.06 405.37 59.75 406.09 59.81 406.81 59.75 407.53 60.19 408.25 59.85 408.96 59.56 409.68 59.95 410.4 59.55 411.12 59.83 411.84 59.99 412.56 60.06 413.29 60.12 414.01 60.12 414.73 59.9 415.45 59.74 416.17 59.78 416.89 59.57 417.62 59.94 418.34 60.17 419.06 59.79 419.79 59.91 420.51 60.06 421.23 60.01 421.95 60.06 422.68 60.23 423.4 60.15 424.12 59.71 424.84 60.1 425.56 60.05 426.29 59.64 427.01 59.83 427.73 59.97 428.45 59.78 429.17 60.16 429.89 60.08 430.61 59.58 431.33 59.8 432.05 59.6 432.77 59.68 433.49 59.66 434.21 60.25 434.93 60.2 435.65 59.82 436.37 59.95 437.09 59.79 437.81 59.7 438.53 59.86 439.25 60.16 439.97 59.92 440.69 59.97 441.41 60.11 442.13 59.74 442.86 59.55 443.58 60 444.3 59.73 445.02 60.09 445.75 59.8 446.47 60.12 447.19 60.01 447.92 59.64 448.64 59.6 449.36 60.22 450.09 60.11 450.81 59.95 451.54 59.83 452.26 60.17 452.98 59.66 453.7 60.17 454.43 60.22 455.15 59.7 455.87 59.61 456.59 60.03 457.31 59.58 458.04 59.8 458.76 60.23 459.48 59.86 460.2 59.84 460.92 60.02 461.64 59.63 462.37 59.66 463.09 59.9 463.81 60.05 464.53 59.99 465.26 59.7 465.98 59.98 466.71 59.94 467.43 59.81 468.15 59.83 468.88 59.91 469.6 59.63 470.33 59.63 471.05 59.81 471.77 59.89 472.5 59.95 473.22 60.07 473.94 60.18 474.67 59.91 475.39 60.07 476.11 59.58 476.83 60.19 477.56 59.99 478.28 59.8 479.01 60.05 479.73 60.05 480.45 59.6 481.18 59.75 481.9 59.58 482.63 59.97 483.35 59.79 484.08 60.07 484.8 59.6 485.52 60.16 486.24 60.05 486.96 59.65 487.68 59.98 488.4 60.15 489.13 59.76 489.85 59.56 490.58 60.18 491.3 60.02 492.03 59.73 492.75 59.92 493.47 59.77 494.19 59.85 494.92 59.79 495.64 60.19 496.36 60.2 497.08 60.09 497.8 59.74 498.52 59.91 499.25 59.78 499.97 59.56 500.69 60.18 501.42 59.97 502.14 59.8 502.87 59.76 503.59 59.69 504.32 60.15 505.04 59.86 505.77 60.05 506.49 59.94 507.22 59.86 507.94 60.21 508.67 60.06 509.39 59.98 510.12 60.08 510.84 59.78 511.57 59.78 512.3 59.64 513.02 60.05 513.75 59.92 514.47 59.99 515.2 59.55 515.93 59.91 516.66 59.75 517.38 60.03 518.11 59.62 518.83 59.64 519.55 60.2 520.28 59.78 521 60.15 521.73 60.23 522.46 59.74 523.19 59.96 523.91 59.83 524.64 59.77 525.37 59.68 526.1 59.88 526.83 59.64 527.56 60.17 528.29 59.83 529.02 60.17 529.75 59.94 530.49 59.6 531.22 59.71 531.96 59.8 532.68 59.67 533.41 59.77 534.1 60.15 534.85 59.93 535.57 60.04 536.24 60.41 536.9 60.72 537.69 60.53 538.29 61.04 539.08 60.94 539.73 61.27 540.25 61.9 541.1 61.76 541.66 62.24 542.46 62.28 542.87 63.01 543.74 62.98 544.13 63.7 544.78 64.02 545.36 64.45 545.77 65.09 546.68 65.14 547.16 65.7 547.65 66.24 548.16 66.75 548.26 67.63 548.98 67.95 549.29 68.63 549.58 69.3 550.48 69.55 550.81 70.2 551.08 70.89 551.1 71.69 551.43 72.33 552.31 72.7 552.14 73.57 552.25 74.29 552.54 74.94 553.19 75.48 553.09 76.26 553.62 76.87 553.37 77.66 553.71 78.33 553.66 79.06 553.78 79.77 553.63 80.5 553.77 81.21 554.26 81.92 554.14 82.64 553.85 83.36 553.72 84.08 553.64 84.8 553.66 85.51 553.96 86.23 554.24 86.95 553.95 87.67 554.11 88.39 554.12 89.11 553.94 89.83 554.13 90.54 554.01 91.26 554.16 91.98 554.25 92.7 554.04 93.42 554.24 94.14 553.69 94.86 553.71 95.58 554.12 96.3 553.91 97.02 553.67 97.74 553.63 98.46 553.81 99.18 554.03 99.9 553.93 100.62 554 101.34 553.94 102.06 553.76 102.78 553.68 103.5 553.66 104.22 554 104.94 554 105.66 554.27 106.38 553.81 107.1 553.69 107.82 553.83 108.54 553.76 109.27 553.81 109.98 554.08 110.7 553.66 111.42 553.67 112.14 553.7 112.86 554.27 113.58 553.75 114.3 554.04 115.02 553.71 115.74 553.66 116.46 553.97 117.18 553.65 117.9 554.15 118.62 553.65 119.34 553.95 120.06 554.09 120.78 554.2 121.5 554.07 122.22 554.12 122.94 554.3 123.66 553.72 124.37 553.73 125.09 553.86 125.81 553.89 126.53 553.91 127.25 553.7 127.97 554.19 128.69 553.98 129.4 553.82 130.12 553.97 130.84 554.28 131.55 554.26 132.27 553.96 132.99 553.92 133.71 554.17 134.42 553.93 135.14 554.25 135.86 554.23 136.58 553.66 137.3 553.79 138.02 554.05 138.74 553.93 139.46 554.01 140.18 553.89 140.9 554.04 141.62 554.16 142.34 554.06 143.06 553.67 143.78 553.82 144.5 554 145.22 554.19 145.94 554.15 146.66 554.03 147.38 554.09 148.1 554.23 148.82 554.13 149.54 553.99 150.26 554.06 150.98 553.88 151.7 554.13 152.41 553.77 153.13 553.98 153.85 554.25 154.57 553.75 155.29 553.74 156 554.27 156.72 553.76 157.44 553.88 158.15 554.26 158.87 553.7 159.59 553.73 160.31 553.86 161.02 554.08 161.74 553.8 162.45 553.69 163.17 554.24 163.89 554.3 164.6 554.27 165.32 553.82 166.04 553.8 166.75 554.03 167.47 553.7 168.19 554.26 168.9 554.32 169.62 554.16 170.34 554.2 171.05 554.14 171.77 554.06 172.49 554.18 173.2 553.68 173.92 553.94 174.64 553.95 175.35 554.13 176.07 554.26 176.79 553.63 177.5 553.89 178.22 553.7 178.94 553.84 179.66 553.64 180.38 554.13 181.1 554.22 181.81 554.11 182.53 553.93 183.25 553.84 183.97 554.12 184.69 553.67 185.41 554.03 186.13 554.04 186.85 554.26 187.57 553.7 188.3 554.12 189.02 554.28 189.74 553.69 190.46 553.99 191.19 553.93 191.91 553.76 192.63 553.8 193.35 554.27 194.07 554.21 194.79 553.91 195.51 554.14 196.24 554.01 196.96 554.13 197.68 554.27 198.4 553.75 199.12 553.68 199.84 554.31 200.55 554.06 201.27 553.81 201.99 554.14 202.71 553.9 203.43 554.08 204.15 553.7 204.87 553.78 205.59 554.14 206.31 553.88 207.03 553.9 207.75 553.91 208.47 554.21 209.19 554.22 209.91 553.68 210.62 553.91 211.34 553.68 212.06 554.08 212.78 553.88 213.5 554.3 214.22 553.77 214.95 553.71 215.67 553.78 216.39 554.22 217.11 554.29 217.83 553.74 218.56 553.66 219.28 553.71 220 553.78 220.72 554.02 221.45 554.03 222.17 554.22 222.89 553.96 223.61 554.2 224.34 554.15 225.06 553.93 225.78 554.2 226.5 554 227.22 554.11 227.94 554.2 228.66 554.18 229.38 553.95 230.1 553.98 230.82 554.26 231.55 553.73 232.27 553.8 232.99 554.18 233.71 553.94 234.43 553.98 235.15 554.11 235.88 553.68 236.6 554.1 237.32 553.95 238.04 554.21 238.77 554.01 239.49 554.32 240.22 554.17 240.94 554.15 241.66 554.05 242.38 554.25 243.11 553.93 243.83 553.73 244.55 554.01 245.27 554.08 245.99 553.64 246.72 554.09 247.44 554.21 248.16 554.09 248.88 553.8 249.6 553.69 250.33 553.86 251.05 553.74 251.78 553.79 252.5 553.9 253.22 554.28 253.95 553.75 254.67 553.74 255.39 554.12 256.12 553.65 256.83 553.92 257.55 554.31 258.27 553.72 258.99 553.67 259.71 554.27 260.44 554.21 261.16 554.09 261.88 554.16 262.61 553.81 263.33 554.27 264.05 554.21 264.78 553.9 265.5 553.64 266.22 553.78 266.94 554.12 267.66 553.92 268.38 553.9 269.1 553.68 269.82 554.07 270.54 554.27 271.26 554.11 271.99 553.65 272.71 553.83 273.43 553.87 274.16 553.92 274.88 554.07 275.61 554.1 276.33 554.19 277.06 554.25 277.78 554.3 278.5 553.88 279.22 553.94 279.95 554.32 280.67 553.9 281.4 554.23 282.13 553.86 282.85 553.63 283.57 553.9 284.3 553.79 285.02 553.64 285.75 553.71 286.48 554.24 287.2 554.21 287.93 554.03 288.65 554.1 289.38 554.21 290.1 553.99 290.82 553.73 291.55 554.01 292.27 553.63 293 554.3 293.73 554.04 294.45 554.21 295.18 554.27 295.91 553.9 296.63 554.15 297.36 553.85 298.09 553.93 298.82 554.07 299.55 553.85 300.28 554.15 301.01 553.64 301.74 554.11 302.47 553.86 303.21 553.91 303.93 553.98 304.65 553.88 305.37 553.47 306.04 553.5 306.77 553.61 307.52 553.36 308.2 553 308.85 553.07 309.62 552.51 310.19 552.87 311.08 552.28 311.63 551.74 312.17 552 313.1 551.19 313.49 550.91 314.16 550.41 314.69 549.98 315.26 549.96 316.11 549.46 316.64 548.92 317.14 548.25 317.51 548.23 318.45 547.36 318.62 546.8 319.07 546.23 319.49 545.86 320.16 545.52 320.89 544.74 321.06 544.06 321.34 543.54 321.85 542.99 322.33 542.3 322.58 541.6 322.77 541.03 323.26 540.37 323.54 539.83 324.13 538.97 323.9 538.34 324.25 537.69 324.61 536.89 324.38 536.29 325 535.51 324.77 534.84 325.09 534.11 325.1 533.41 325.35 532.68 325.34 531.96 325.28"/><polygon class="cls-3" points="240.62 160.75 240.61 161.47 240.88 162.19 240.46 162.88 240.96 163.64 240.57 164.32 240.48 165.03 240.72 165.79 240.17 166.42 240.12 167.14 240.38 167.94 239.75 168.53 239.49 169.19 239.36 169.9 239.47 170.69 238.77 171.2 239.07 172.08 238.29 172.54 238.22 173.29 237.86 173.91 237.41 174.48 237.32 175.24 236.99 175.87 236.39 176.35 236.22 177.08 236.02 177.8 235.54 178.34 235.36 179.1 234.74 179.53 234.18 180.01 233.81 180.63 233.15 181.01 232.77 181.62 232.54 182.39 231.97 182.84 231.41 183.29 230.68 183.56 230.28 184.18 230.01 184.96 229.2 185.12 228.85 185.83 228.12 186.06 227.67 186.66 226.77 186.61 226.38 187.32 225.63 187.47 225.03 187.86 224.37 188.13 223.99 188.93 223.19 188.95 222.6 189.37 221.86 189.47 221.16 189.64 220.65 190.3 219.84 190.17 219.35 190.95 218.66 191.16 217.91 191.16 217.27 191.56 216.46 191.24 215.75 191.35 215.1 191.75 214.37 191.7 213.67 191.89 213 192.31 212.26 192.17 211.55 192.34 210.83 192.41 210.11 192.41 209.39 192.04 208.67 192.28 207.96 192.18 207.25 192.09 206.55 191.81 205.79 192.2 205.14 191.69 204.37 191.98 203.62 192.05 202.96 191.7 202.34 191.19 201.63 191.07 200.79 191.42 200.12 191.15 199.51 190.69 198.73 190.74 198.28 189.89 197.43 190.08 196.86 189.59 196.22 189.26 195.64 188.83 194.97 188.57 194.31 188.28 193.66 187.98 192.87 187.91 192.43 187.26 191.94 186.69 191.16 186.57 190.84 185.79 190.2 185.46 189.34 185.39 189.06 184.6 188.33 184.34 187.83 183.83 187.54 183.1 186.67 182.95 186.28 182.33 185.88 181.72 185.34 181.24 185.15 180.46 184.4 180.15 184.01 179.54 183.77 178.84 183.08 178.44 183.13 177.55 182.73 176.96 182.12 176.5 181.68 175.92 181.65 175.13 181.25 174.53 180.48 174.1 180.53 173.29 179.92 172.76 180.27 171.85 180 171.2 179.29 170.69 179.05 170.01 179.07 169.25 178.93 168.55 178.72 167.86 178.47 167.18 178.23 166.49 178.45 165.73 177.91 165.08 178.38 164.3 178.05 163.62 178.09 162.9 177.79 162.2 178.25 161.47 177.96 160.75 177.57 160.03 178.2 159.33 177.67 158.58 178.03 157.89 178.07 157.17 178.15 156.46 178.28 155.75 178.07 154.99 178.44 154.32 178.65 153.63 179.21 153.03 179.11 152.27 179.03 151.49 179.78 150.98 179.6 150.16 180.19 149.62 180.32 148.9 180.64 148.26 181.07 147.67 180.95 146.82 181.13 146.1 181.82 145.66 181.85 144.85 182.44 144.36 182.8 143.73 183.3 143.21 183.8 142.68 184.19 142.09 184.47 141.4 185.09 140.97 185.3 140.22 186.14 140 186.26 139.15 186.88 138.74 187.26 138.11 187.83 137.66 188.42 137.25 188.92 136.72 189.51 136.32 190.29 136.14 190.51 135.25 191.03 134.74 191.91 134.75 192.26 133.97 193.19 134.11 193.76 133.67 194.43 133.43 194.75 132.5 195.55 132.49 196.15 132.08 196.97 132.16 197.49 131.56 198.19 131.37 198.82 131 199.51 130.81 200.26 130.83 200.82 130.17 201.61 130.34 202.26 130.01 203.01 130.06 203.7 129.88 204.42 129.87 205.09 129.52 205.82 129.52 206.5 129.18 207.22 129.11 207.94 129.1 208.68 129.41 209.39 129.11 210.1 129.45 210.81 129.57 211.56 129.05 212.23 129.62 212.98 129.35 213.64 129.87 214.37 129.76 215.08 129.86 215.73 130.24 216.53 129.94 217.15 130.44 217.99 130.09 218.51 130.84 219.29 130.76 219.83 131.38 220.53 131.56 221.27 131.62 221.83 132.13 222.62 132.11 223.19 132.59 223.99 132.59 224.66 132.86 225.13 133.5 225.88 133.65 226.28 134.37 226.86 134.78 227.76 134.75 228.1 135.5 228.62 136 229.13 136.5 229.87 136.73 230.32 137.3 231.07 137.55 231.37 138.28 232.07 138.59 232.17 139.49 232.68 139.99 233.11 140.55 233.66 141.02 234.22 141.48 234.96 141.83 235.12 142.6 235.25 143.38 236.07 143.69 236.57 144.23 236.5 145.1 236.93 145.69 237.22 146.34 237.65 146.92 237.78 147.65 238.02 148.32 238.53 148.88 238.94 149.49 239.24 150.15 239.49 150.82 239.83 151.47 239.62 152.28 239.94 152.94 240.15 153.63 239.91 154.41 240.52 155.02 240.6 155.74 240.67 156.45 240.79 157.16 240.46 157.91 240.91 158.6 240.72 159.32 240.59 160.04 240.62 160.75"/><polygon class="cls-4" points="505.17 252.74 505.12 253.46 504.63 254.16 504.81 254.89 504.66 255.6 504.3 256.28 504.72 257.05 504.17 257.69 504.39 258.46 504.36 259.19 504.13 259.87 503.95 260.57 503.8 261.28 503.3 261.88 503.2 262.6 503.2 263.36 502.98 264.05 502.44 264.61 502.45 265.39 501.69 265.83 501.42 266.5 501.44 267.31 501.23 268.01 500.37 268.35 500.52 269.27 499.96 269.77 499.48 270.32 498.8 270.72 498.43 271.33 498 271.9 497.79 272.64 497.04 272.94 496.99 273.85 496.27 274.16 495.77 274.68 495.51 275.43 494.69 275.61 494.22 276.16 493.96 276.95 493.11 277.05 492.5 277.43 491.98 277.92 491.6 278.61 490.73 278.61 490.45 279.5 489.55 279.4 489.05 279.96 488.39 280.25 487.69 280.45 487.17 281 486.53 281.31 485.76 281.34 485.19 281.82 484.6 282.28 483.89 282.44 483.31 282.94 482.54 282.92 481.81 282.98 481.14 283.25 480.39 283.16 479.72 283.43 479.08 283.9 478.35 283.93 477.63 283.95 476.89 283.74 476.2 283.99 475.51 284.46 474.77 284.11 474.06 284.47 473.34 284.22 472.62 284.44 471.92 283.86 471.19 284.2 470.49 283.87 469.78 283.83 469.09 283.66 468.3 284.07 467.65 283.61 466.92 283.59 466.27 283.23 465.6 282.96 464.8 283.18 464.23 282.6 463.37 282.94 462.69 282.69 462.08 282.24 461.33 282.19 460.86 281.44 460.23 281.11 459.47 281.04 458.91 280.57 458.24 280.31 457.45 280.24 456.94 279.69 456.27 279.41 455.65 279.03 455.07 278.6 454.71 277.88 454 277.64 453.48 277.14 452.97 276.64 452.57 276 451.73 275.86 451.51 275.06 450.72 274.84 450.08 274.45 449.75 273.77 449.56 272.99 449.07 272.48 448.19 272.26 447.8 271.64 447.59 270.91 446.93 270.49 447.07 269.54 446.28 269.19 446.11 268.45 445.79 267.81 445.58 267.12 445.2 266.51 444.84 265.89 444.5 265.26 443.9 264.73 443.93 263.95 443.88 263.21 443.32 262.64 443.53 261.83 443.21 261.18 442.56 260.61 442.8 259.81 442.37 259.18 442.28 258.46 442.48 257.7 441.87 257.07 441.92 256.33 441.96 255.61 441.81 254.9 442.13 254.16 441.71 253.46 441.77 252.74 441.99 252.02 441.68 251.29 442.24 250.61 442.27 249.9 442.05 249.16 442.05 248.44 442.49 247.78 442.53 247.06 442.17 246.26 442.69 245.63 442.51 244.85 443.33 244.32 443.51 243.64 443.24 242.8 443.45 242.11 443.92 241.51 444.22 240.86 444.46 240.19 444.67 239.49 444.89 238.8 445.51 238.31 445.47 237.47 446.31 237.13 446.45 236.38 446.92 235.82 447.09 235.08 447.89 234.77 448.08 234.02 448.2 233.21 449.13 233.03 449.15 232.11 449.85 231.77 450.31 231.22 450.8 230.69 451.32 230.2 451.61 229.47 452.31 229.15 452.88 228.72 453.68 228.57 454.06 227.9 454.45 227.23 455.36 227.26 455.7 226.5 456.5 226.41 457.04 225.92 457.67 225.59 458.36 225.37 458.77 224.62 459.34 224.15 460.17 224.2 460.67 223.57 461.43 223.52 462.09 223.23 462.81 223.11 463.52 222.98 464.19 222.73 464.82 222.35 465.57 222.38 466.19 221.9 466.99 222.22 467.6 221.61 468.34 221.64 469.02 221.37 469.75 221.35 470.47 221.37 471.18 221.24 471.9 221.27 472.63 221.59 473.34 221 474.06 220.91 474.76 221.44 475.51 221.02 476.18 221.69 476.89 221.67 477.58 221.88 478.39 221.32 479.04 221.78 479.77 221.81 480.38 222.37 481.15 222.2 481.83 222.45 482.55 222.53 483.23 222.79 483.82 223.26 484.66 223.06 485.19 223.67 485.92 223.8 486.49 224.27 487.15 224.54 487.74 224.96 488.49 225.08 489.06 225.51 489.82 225.65 490.44 226.02 491.03 226.44 491.43 227.13 492.18 227.31 492.55 228.01 493.04 228.53 493.95 228.56 494.16 229.41 494.92 229.65 495.14 230.45 495.79 230.81 496.3 231.31 496.6 232 497.42 232.23 497.61 233 498.49 233.22 498.47 234.14 499.14 234.53 499.21 235.35 499.66 235.9 500.23 236.39 500.37 237.14 501.01 237.59 501.19 238.31 501.83 238.79 502.21 239.41 502.21 240.2 502.72 240.76 502.61 241.58 502.84 242.25 503.58 242.76 503.41 243.57 503.52 244.28 503.65 244.98 504.1 245.61 504.12 246.34 504.57 246.98 504.38 247.75 504.76 248.42 504.31 249.19 504.42 249.9 504.42 250.61 504.58 251.31 504.76 252.02 505.17 252.74"/><g class="cls-5"><polygon class="cls-6" points="494.89 192.66 494.17 192.48 493.45 192.12 492.74 192.32 492.02 192.5 491.3 192.41 490.58 192.06 489.86 192.32 489.14 192.45 488.43 192.69 487.71 192.03 486.99 192.04 486.27 192.17 485.55 192.06 484.84 192.12 484.12 192.63 483.4 192.34 482.68 192.25 481.96 192.03 481.25 192.11 480.53 192.23 479.81 192.41 479.09 192.3 478.37 192.29 477.65 192.32 476.93 192.48 476.21 192.11 475.5 192.6 474.78 192.48 474.06 192.45 473.34 192.1 472.62 192.46 471.9 192.29 471.18 192.51 470.46 192.54 469.74 192.57 469.02 192.47 468.3 192.43 467.58 192.48 466.86 192.18 466.14 192.6 465.42 192.08 464.7 192.27 463.98 192.32 463.26 192.68 462.54 192.29 461.82 192.29 461.1 192.19 460.38 192.29 459.66 192.43 458.94 192.57 458.22 192.32 457.5 192.66 456.78 192.16 456.06 192.21 455.34 192.35 454.62 192.05 453.9 192.36 453.19 192.1 452.47 192.08 451.75 192.35 451.03 192.31 450.31 192.08 449.59 192.08 448.87 192.53 448.15 192.72 447.43 192.18 446.71 192.04 446 192.47 445.28 192.5 444.56 192.18 443.84 192.23 443.12 192.57 442.4 192.64 441.68 192.62 440.96 192.7 440.25 192.54 439.53 192.04 438.82 192.17 438.1 192.17 437.38 192.68 436.67 192.18 435.95 192.34 435.23 192.41 434.51 192.17 433.8 192.14 433.08 192.51 432.36 192.53 431.64 192.62 430.92 192.15 430.2 192.41 429.48 192.29 428.76 192.72 428.04 192.68 427.32 192.2 426.6 192.43 425.88 192.33 425.16 192.04 424.44 192.56 423.72 192.11 423 192.45 422.28 192.56 421.56 192.48 420.84 192.47 420.12 192.51 419.4 192.2 418.69 192.33 417.97 192.57 417.25 192.6 416.53 192.3 415.81 192.62 415.1 192.1 414.38 192.15 413.66 192.54 412.95 192.68 412.23 192.1 411.51 192.69 410.8 192.48 410.08 192.39 409.36 192.05 408.65 192.11 407.93 192.12 407.21 192.41 406.5 192.03 405.78 192.58 405.07 192.26 404.35 192.26 403.63 192.62 402.92 192.17 402.2 192.26 401.49 192.69 400.77 192.22 400.05 192.14 399.34 192.21 398.62 192.55 397.9 192.06 397.19 192.64 396.47 192.09 395.76 192.31 395.04 192.24 394.32 192.08 393.61 192.34 392.89 192.35 392.17 192.06 391.45 192.28 390.74 192.5 390.02 192.4 389.3 192.68 388.58 192.43 387.87 192.28 387.15 192.37 386.43 192.1 385.71 192.22 384.99 192.57 384.27 192.47 383.55 192.39 382.83 192.09 382.11 192.27 381.39 192.68 380.67 192.29 379.95 192.63 379.23 192.37 378.5 192.59 377.78 192.03 377.06 192.41 376.34 192.15 375.62 192.17 374.9 192.09 374.18 192.61 373.45 192.27 372.74 192.39 372.01 192.18 371.3 192.07 370.57 192.49 369.86 192.1 369.14 192.68 368.42 192.66 367.7 192.45 366.98 192.68 366.26 192.17 365.54 192.13 364.82 192.39 364.1 192.22 363.39 192.31 362.67 192.64 361.95 192.43 361.23 192.54 360.51 192.57 359.79 192.55 359.07 192.17 358.35 192.41 357.63 192.34 356.91 192.29 356.19 192.07 355.47 192.53 354.75 192.11 354.03 192.51 353.31 192.71 352.59 192.49 351.87 192.12 351.15 192.17 350.43 192.72 349.7 192.65 348.98 192.4 348.26 192.7 347.54 192.06 346.81 192.55 346.09 192.32 345.37 192.28 344.65 192.14 343.93 192.21 343.21 192.27 342.49 192.32 341.76 192.66 341.04 192.34 340.32 192.14 339.6 192.48 338.88 192.04 338.16 192.17 337.44 192.65 336.72 192.22 336 192.5 335.28 192.46 334.56 192.14 333.84 192.65 333.12 192.5 332.39 192.39 331.67 192.48 330.95 192.12 330.23 192.52 329.5 192.45 328.78 192.24 328.06 192.58 327.33 192.06 326.61 192.07 325.89 192.37 325.17 192.47 324.44 192.12 323.72 192.21 323 192.71 322.28 192.34 321.56 192.7 320.84 192.04 320.11 192.07 319.39 192.57 318.67 192.59 317.95 192.37 317.22 192.32 316.5 192.36 315.78 192.46 315.05 192.56 314.33 192.22 313.61 192.65 312.88 192.09 312.17 192.35 311.45 192.25 310.73 192.52 310.01 192.03 309.29 192.32 308.57 192.71 307.84 192.1 307.12 192.68 306.4 192.37 305.67 192.4 304.95 192.41 304.23 192.39 303.51 192.72 302.79 192.48 302.07 192.43 301.35 192.03 300.63 192.32 299.91 192.62 299.19 192.06 298.47 192.5 297.75 192.13 297.02 192.26 296.3 192.22 295.58 192.07 294.85 192.55 294.13 192.71 293.4 192.31 292.68 192.68 291.96 192.43 291.23 192.46 290.51 192.32 289.79 192.21 289.06 192.24 288.34 192.44 287.62 192.22 286.89 192.53 286.16 192.05 285.44 192.53 284.71 192.37 283.99 192.55 283.27 192.48 282.54 192.38 281.81 192.46 281.09 192.38 280.36 192.04 279.64 192.62 278.92 192.72 278.2 192.22 277.47 192.67 276.75 192.06 276.02 192.15 275.29 192.03 274.57 192.7 273.84 192.35 273.12 192.46 272.39 192.06 271.66 192.4 270.93 192.33 270.2 192.45 269.47 192.41 268.75 192.16 268.02 192.64 267.28 192.27 266.55 192.43 265.82 192.23 265.11 192.25 264.43 192.07 263.7 192.18 263.03 191.92 262.27 191.95 261.59 191.68 260.96 191.32 260.52 190.67 259.77 190.51 259.43 189.8 258.99 189.26 258.1 189.12 258.05 188.25 257.37 187.86 257.37 187.04 256.88 186.51 256.58 185.88 256.59 185.14 255.97 184.58 256.18 183.82 255.56 183.17 256.11 182.44 255.79 181.71 256.2 180.99 256.12 180.27 255.91 179.55 256.17 178.83 255.82 178.11 256.01 177.39 255.65 176.67 255.57 175.94 255.9 175.22 255.65 174.5 256.05 173.77 256.06 173.05 255.53 172.33 255.93 171.61 256.02 170.89 256.09 170.16 255.8 169.44 255.93 168.72 255.62 168 255.93 167.28 255.66 166.56 256.2 165.84 256.16 165.12 256.21 164.39 256.09 163.67 255.93 162.95 255.56 162.22 255.88 161.5 256.22 160.78 255.7 160.06 255.56 159.33 256.07 158.61 255.98 157.89 256.03 157.17 255.91 156.45 256.1 155.73 256.16 155.01 255.91 154.29 255.75 153.57 255.7 152.85 255.68 152.13 255.55 151.4 255.98 150.68 255.84 149.96 255.8 149.24 256.2 148.52 255.72 147.79 255.76 147.08 255.79 146.36 255.77 145.64 256.17 144.92 255.77 144.2 256 143.48 256.15 142.76 255.94 142.03 255.97 141.31 255.62 140.59 255.85 139.86 255.92 139.14 256.07 138.41 255.57 137.69 255.63 136.97 255.79 136.25 255.65 135.52 255.89 134.8 255.69 134.08 256.05 133.35 255.87 132.63 255.86 131.9 256.15 131.18 255.98 130.46 256.22 129.73 256.17 129.01 255.85 128.28 255.82 127.56 256.01 126.83 255.86 126.11 255.93 125.38 255.77 124.66 255.92 123.94 256.02 123.21 256.05 122.49 255.8 121.77 255.55 121.04 255.94 120.31 256 119.59 255.94 118.86 255.64 118.14 255.75 117.41 255.62 116.68 256.12 115.95 255.76 115.22 255.57 114.5 255.73 113.77 255.85 113.04 255.61 112.31 255.99 111.57 256.01 110.84 255.78 110.12 255.77 109.4 256.42 108.8 256.36 108.06 256.2 107.25 256.98 106.81 257.32 106.2 257.72 105.64 258.06 105.03 258.39 104.41 258.86 103.88 259.26 103.28 259.98 103.04 260.55 102.64 261.06 102.13 261.6 101.6 262.38 101.62 263 101.24 263.71 101.16 264.36 100.7 265.11 100.9 265.82 100.78 266.54 100.67 267.25 101.01 267.97 100.63 268.69 100.75 269.41 101 270.13 101.25 270.84 100.79 271.56 100.94 272.28 100.73 273 100.96 273.71 100.76 274.43 100.71 275.15 101.08 275.87 100.8 276.59 101.03 277.31 101.03 278.02 100.82 278.74 100.65 279.46 100.91 280.18 100.86 280.9 101.07 281.62 100.6 282.33 101.07 283.05 100.99 283.77 100.57 284.49 100.74 285.21 100.97 285.93 100.7 286.65 101.08 287.37 100.94 288.08 100.62 288.81 100.78 289.52 100.92 290.24 100.77 290.96 100.81 291.68 101.07 292.4 100.56 293.12 100.77 293.84 100.8 294.56 101.22 295.28 100.95 296 100.99 296.72 100.92 297.44 101.11 298.17 101.17 298.88 100.87 299.61 100.67 300.32 100.58 301.05 101.18 301.76 101.23 302.48 101.17 303.2 100.66 303.92 100.82 304.64 100.57 305.36 101.09 306.08 100.8 306.8 100.94 307.52 101.14 308.24 100.61 308.96 100.66 309.68 100.57 310.4 100.79 311.12 101.07 311.83 101.14 312.55 100.83 313.27 101 313.99 100.91 314.71 101.12 315.43 100.57 316.15 100.55 316.87 100.69 317.58 100.72 318.3 101.24 319.02 101.1 319.74 101.06 320.46 100.61 321.17 101.21 321.89 101.23 322.61 100.84 323.32 101.11 324.04 101.21 324.76 100.93 325.47 100.74 326.19 101.17 326.91 101.02 327.63 100.82 328.35 101.08 329.06 100.97 329.78 100.93 330.5 101.2 331.22 101.05 331.94 101.19 332.66 101.07 333.38 100.79 334.11 101.23 334.83 100.56 335.55 101.13 336.27 100.8 336.99 100.72 337.71 100.91 338.43 100.6 339.14 100.92 339.86 101.2 340.58 101.11 341.3 101.23 342.02 100.69 342.74 100.88 343.45 100.76 344.17 100.64 344.89 101.03 345.61 101.02 346.32 100.79 347.04 100.62 347.76 100.69 348.48 101.11 349.19 101 349.91 100.77 350.63 101.22 351.34 101.17 352.06 100.9 352.77 100.88 353.49 101.12 354.21 101.23 354.92 100.66 355.64 101.18 356.36 100.7 357.07 101.05 357.79 100.87 358.5 101.23 359.22 100.84 359.94 100.64 360.65 101.17 361.37 100.69 362.08 100.62 362.8 101.19 363.52 100.89 364.23 100.6 364.95 100.72 365.67 100.65 366.38 100.92 367.1 100.7 367.82 100.61 368.53 100.92 369.25 100.92 369.97 100.62 370.69 100.9 371.4 100.88 372.12 100.85 372.84 100.99 373.56 100.77 374.28 101.07 375 100.98 375.71 101.22 376.43 101.25 377.15 100.68 377.87 100.89 378.59 100.61 379.31 100.75 380.04 100.72 380.76 100.73 381.48 100.61 382.2 101.23 382.92 100.95 383.65 101.18 384.37 101.24 385.09 100.98 385.81 101.19 386.53 100.98 387.25 101.2 387.97 100.93 388.69 101.24 389.41 101.19 390.13 100.97 390.85 100.85 391.57 101.21 392.29 101.01 393.01 101.07 393.73 100.7 394.44 100.61 395.16 100.71 395.88 100.91 396.6 101.05 397.32 100.7 398.04 100.57 398.76 101.05 399.48 100.67 400.19 100.9 400.91 100.89 401.63 100.88 402.35 101.02 403.07 100.66 403.79 101.22 404.51 100.92 405.23 100.84 405.95 101.14 406.67 100.91 407.39 101.01 408.11 101.06 408.83 101.24 409.56 101.25 410.28 100.77 411 101.17 411.73 100.61 412.45 100.9 413.17 100.73 413.89 100.97 414.62 100.68 415.34 100.91 416.06 101.19 416.78 100.8 417.5 100.78 418.22 101.22 418.94 100.88 419.66 100.67 420.38 100.93 421.1 100.73 421.82 100.9 422.54 100.73 423.26 101.2 423.99 101.06 424.7 101.14 425.43 100.64 426.15 100.86 426.87 100.98 427.59 101.06 428.31 100.8 429.04 100.56 429.76 101.01 430.48 101.24 431.2 101.08 431.93 100.93 432.65 101.17 433.37 100.59 434.1 100.77 434.82 100.82 435.54 100.78 436.26 101.07 436.98 100.76 437.7 101.17 438.43 100.81 439.15 100.96 439.87 100.64 440.59 101.06 441.31 100.93 442.04 100.96 442.76 100.81 443.48 100.78 444.21 100.76 444.93 100.71 445.65 100.84 446.38 100.79 447.1 101.06 447.82 100.93 448.54 100.7 449.26 100.81 449.98 101.02 450.7 100.71 451.42 100.99 452.14 100.58 452.86 100.7 453.59 100.82 454.31 101.12 455.03 100.8 455.75 100.56 456.48 100.61 457.2 100.61 457.92 101 458.64 100.85 459.36 100.71 460.08 101.17 460.8 100.57 461.52 101.22 462.24 101.16 462.96 101.22 463.68 101 464.4 101.15 465.13 100.94 465.85 101.08 466.58 100.91 467.3 100.99 468.03 101.16 468.75 101.24 469.47 100.84 470.19 101.24 470.92 100.94 471.64 100.64 472.37 100.98 473.09 100.63 473.82 101 474.54 100.73 475.27 101.04 475.99 100.59 476.71 101.12 477.44 101 478.17 100.93 478.89 100.97 479.62 100.84 480.34 101.03 481.07 100.89 481.79 101.09 482.51 100.88 483.23 100.86 483.96 101.2 484.69 100.86 485.41 101.19 486.14 100.91 486.86 100.73 487.59 101.07 488.32 101.02 489.05 100.89 489.77 100.81 490.5 100.68 491.23 100.9 491.96 100.95 492.69 101.04 493.42 101.22 494.15 100.85 494.89 101.14 495.62 100.68 496.32 100.91 496.97 101.27 497.69 101.31 498.33 101.6 499.16 101.49 499.52 102.35 500.15 102.66 500.83 102.91 501.49 103.22 502.06 103.67 502.25 104.47 502.92 104.83 503.36 105.4 503.41 106.19 503.74 106.8 504.37 107.31 504.43 108.04 504.94 108.66 504.63 109.44 504.71 110.14 505.17 110.84 504.63 111.56 504.89 112.28 504.83 113 504.93 113.72 504.99 114.44 504.5 115.17 504.78 115.89 505.12 116.61 504.96 117.33 505.16 118.05 504.97 118.78 504.95 119.5 505.02 120.22 504.57 120.94 505.01 121.67 504.57 122.39 504.68 123.11 504.86 123.83 505.1 124.55 505.02 125.27 504.76 126 504.98 126.72 504.76 127.44 504.53 128.16 505.03 128.88 504.85 129.6 504.5 130.33 505 131.05 504.83 131.77 504.85 132.5 504.71 133.22 504.85 133.94 504.93 134.66 505.09 135.39 504.55 136.1 505.16 136.82 504.85 137.54 505.04 138.26 505 138.98 504.65 139.7 504.53 140.43 505.13 141.15 504.65 141.87 504.93 142.6 505.1 143.32 505.16 144.04 504.54 144.76 504.9 145.48 505.1 146.2 504.76 146.92 504.86 147.64 505.16 148.36 504.5 149.08 504.94 149.8 504.95 150.52 504.8 151.24 505.04 151.96 504.68 152.69 504.85 153.41 504.96 154.14 504.59 154.86 504.99 155.58 505.12 156.31 504.6 157.03 504.84 157.75 504.53 158.47 504.58 159.2 504.81 159.92 504.88 160.65 504.84 161.37 504.59 162.1 504.94 162.82 504.74 163.54 505.13 164.27 504.8 164.99 504.98 165.72 504.92 166.44 504.54 167.17 504.63 167.9 504.94 168.62 504.88 169.34 504.56 170.06 505.17 170.78 504.65 171.51 504.69 172.24 504.97 172.96 504.79 173.69 505.18 174.41 504.54 175.14 504.83 175.87 504.88 176.59 504.65 177.32 504.76 178.05 504.77 178.78 504.85 179.51 504.59 180.24 504.63 180.97 504.59 181.7 505.15 182.44 504.67 183.13 504.66 183.84 504.74 184.58 504.61 185.29 504.41 185.99 504.03 186.61 503.38 187.07 502.95 187.61 502.88 188.42 502.61 189.12 501.83 189.38 501.23 189.75 500.88 190.44 500.22 190.73 499.59 191.04 498.98 191.4 498.24 191.44 497.73 192.13 496.97 192.01 496.34 192.55 495.62 192.61 494.89 192.66"/></g><g class="cls-7"><polygon class="cls-1" points="396.17 284.1 395.45 284.06 394.74 284.17 394.02 283.9 393.31 284.29 392.59 284 391.88 283.9 391.17 284.4 390.46 284.05 389.75 283.9 389.04 284.25 388.33 284.46 387.62 284.54 386.9 284.14 386.19 284.31 385.48 284.08 384.76 284.22 384.05 284.04 383.33 284.17 382.62 284.32 381.9 283.98 381.19 284.34 380.48 284.1 379.77 284.51 379.06 284.55 378.35 283.99 377.64 283.96 376.92 284.25 376.21 284 375.5 284.53 374.79 284.36 374.07 284.13 373.36 284.05 372.64 284.31 371.93 283.96 371.21 284.12 370.49 284.53 369.78 284.11 369.07 284.49 368.35 284.31 367.64 284.34 366.92 284.47 366.21 284.27 365.49 284.06 364.77 284.52 364.06 284.33 363.34 283.97 362.63 284.17 361.91 284.36 361.19 284.27 360.48 283.91 359.76 284.17 359.04 284.3 358.33 284.54 357.61 283.88 356.9 283.9 356.19 284.02 355.47 283.91 354.75 283.97 354.04 284.48 353.32 284.19 352.6 284.1 351.88 283.89 351.17 283.97 350.45 284.09 349.73 284.27 349.01 284.15 348.29 284.15 347.57 284.18 346.85 284.34 346.13 283.96 345.4 284.45 344.68 284.34 343.95 284.3 343.24 283.95 342.52 284.28 341.81 284.07 341.08 284.23 340.36 284.19 339.64 284.13 338.94 283.92 338.24 283.76 337.53 283.68 336.89 283.23 336.1 283.46 335.54 282.77 334.8 282.75 334.1 282.59 333.31 282.69 332.77 282.07 332.1 281.81 331.49 281.44 330.79 281.24 330.09 281.06 329.38 280.85 328.87 280.29 328.07 280.24 327.72 279.44 327.08 279.1 326.41 278.82 326 278.17 325.24 278 324.83 277.37 324.29 276.9 323.57 276.66 323.05 276.16 322.68 275.51 322.17 275.01 321.35 274.83 320.71 274.44 320.63 273.54 320.26 272.92 319.48 272.64 319 272.1 318.82 271.34 318.37 270.79 317.68 270.4 317.22 269.83 316.86 269.21 316.42 268.63 316.2 267.92 316.31 267.06 315.87 266.48 315.56 265.84 314.8 265.39 314.98 264.54 314.57 263.94 314.25 263.29 314.25 262.53 314.06 261.85 313.5 261.27 313.3 260.58 313.04 259.9 313.35 259.1 312.95 258.45 312.95 257.72 312.42 257.07 312.37 256.35 312.76 255.59 312.48 254.89 312.54 254.17 312.8 253.45 312.28 252.74 312.73 252.74 312.4 252.02 312.31 251.3 312.43 250.58 312.5 249.87 312.53 249.15 312.93 248.47 312.91 247.75 312.79 247 312.9 246.29 313.35 245.65 313.21 244.88 313.9 244.32 314.05 243.62 313.9 242.82 314 242.09 314.8 241.62 314.51 240.74 314.98 240.15 315.37 239.54 315.98 239.04 316.25 238.38 316.58 237.75 316.68 236.99 317.37 236.57 317.28 235.67 317.94 235.25 318.35 234.66 318.48 233.87 319.27 233.57 319.64 232.95 319.77 232.13 320.6 231.9 321.14 231.43 321.58 230.86 321.85 230.12 322.71 229.98 322.84 229.06 323.75 229.01 324.15 228.38 324.75 228 325.41 227.69 325.84 227.06 326.42 226.65 327.18 226.49 327.66 225.93 328.17 225.38 328.84 225.11 329.34 224.52 330.1 224.42 330.81 224.25 331.42 223.87 332.18 223.84 332.8 223.46 333.35 222.89 334.06 222.75 334.77 222.6 335.54 222.69 336.18 222.33 336.78 221.77 337.57 221.99 338.21 221.52 338.96 221.66 339.64 221.33 340.42 221.79 341.09 221.34 341.82 221.55 342.53 221.48 343.24 221.54 343.95 221.01 344.67 221.35 345.38 221.23 346.1 221.44 346.81 221.55 347.53 221.13 348.24 221.53 348.96 220.94 349.66 220.96 350.37 221.17 351.08 220.94 351.79 221.45 352.5 221.49 353.22 221.23 353.93 221.4 354.64 221.31 355.36 220.98 356.07 221.19 356.79 221.08 357.5 221.05 358.22 221.08 358.93 221.45 359.64 221.21 360.35 221.28 361.06 221.34 361.77 221.56 362.49 221.09 363.2 221.52 363.91 221.11 364.62 220.92 365.33 221.13 366.05 221.5 366.76 221.45 367.48 220.9 368.2 220.97 368.91 221.23 369.63 220.92 370.34 221.56 371.06 221.07 371.77 221.3 372.48 221.34 373.2 221.48 373.91 221.41 374.63 221.35 375.35 221.3 376.06 220.96 376.78 221.28 377.5 221.48 378.21 221.14 378.93 221.59 379.64 221.46 380.36 220.97 381.08 221.4 381.8 221.12 382.51 221.16 383.22 221.49 383.94 220.97 384.65 221.12 385.37 221.23 386.09 221.14 386.8 221.5 387.52 221.1 388.24 221.17 388.96 221.38 389.68 221.04 390.39 221.57 391.12 221.55 391.83 221.25 392.55 221.15 393.27 221.5 393.99 221.41 394.72 220.91 395.44 221.28 396.17 220.93 396.88 221.59 397.59 221.59 398.33 221.12 399.05 221.16 399.74 221.46 400.45 221.59 401.16 221.66 401.88 221.69 402.61 221.73 403.24 222.21 404.04 221.96 404.58 222.69 405.34 222.64 406 222.96 406.76 222.94 407.26 223.64 408.03 223.64 408.84 223.56 409.25 224.41 410.14 224.2 410.65 224.8 411.29 225.11 411.92 225.45 412.53 225.84 413.31 225.94 413.78 226.54 414.35 226.99 414.69 227.73 415.43 227.94 416.18 228.15 416.37 229.04 417.19 229.18 417.47 229.94 418.08 230.33 418.55 230.86 418.94 231.48 419.77 231.69 420.37 232.12 420.52 232.94 421.26 233.27 421.49 233.99 421.94 234.56 422.23 235.22 422.54 235.88 422.94 236.46 423.48 236.98 423.63 237.71 424.25 238.19 424.15 239.05 424.89 239.48 425.04 240.2 425.48 240.8 425.68 241.49 425.84 242.2 426.14 242.85 426.29 243.56 426.16 244.34 426.91 244.88 427.18 245.56 426.84 246.37 427.43 246.98 426.95 247.79 427.14 248.48 427.11 249.2 427.85 249.84 427.56 250.59 427.71 251.3 427.33 252.03 427.68 252.74 427.61 252.74 427.73 253.46 427.66 254.17 427.37 254.87 427.79 255.62 427.35 256.3 427.42 257.03 427.12 257.71 427.04 258.42 426.79 259.1 426.88 259.85 426.62 260.53 426.69 261.29 426.5 261.99 426.25 262.67 425.7 263.24 425.72 264.01 425.15 264.55 424.78 265.17 425 266.05 424.23 266.48 424.21 267.27 423.49 267.7 423.32 268.42 422.98 269.04 422.39 269.52 422.39 270.37 421.7 270.76 421.72 271.67 420.83 271.89 420.63 272.64 419.86 272.93 419.45 273.52 419.13 274.19 418.45 274.52 418.18 275.27 417.54 275.63 417.25 276.38 416.76 276.91 416 277.13 415.59 277.77 414.78 277.88 414.19 278.29 413.91 279.14 413.08 279.2 412.43 279.5 411.79 279.81 411.31 280.41 410.61 280.63 410.12 281.24 409.33 281.27 408.79 281.81 407.92 281.59 407.27 281.89 406.59 282.09 405.96 282.43 405.33 282.8 404.75 283.36 403.97 283.25 403.19 283.08 402.61 283.74 401.93 284.02 401.13 283.64 400.44 283.83 399.73 283.87 399.03 284.06 398.3 283.93 397.59 283.91 396.88 284.19 396.17 284.1"/></g><polygon class="cls-1" points="350.22 258.85 350.22 258.89 349.49 259.24 348.83 258.83 348.08 258.83 347.35 258.68 346.81 258.16 346.49 257.41 345.88 257.07 345.46 256.53 344.97 256.04 344.88 255.31 344.25 254.82 344.33 254.08 344.31 253.4 343.78 252.74 344.13 252.74 344.32 252.07 344.09 251.34 344.09 250.59 344.29 249.88 344.99 249.45 345.26 248.78 345.9 248.41 346.32 247.85 346.99 247.6 347.53 247.15 348.12 246.73 348.88 246.88 349.5 246.4 350.22 246.6 350.22 246.19 350.96 246.19 351.56 246.87 352.2 247.08 352.95 247.07 353.43 247.63 354.31 247.61 354.73 248.22 355.04 248.9 355.37 249.5 355.93 249.99 355.88 250.76 356.23 251.37 356.74 252 356.37 252.74 356.74 252.74 356.53 253.45 356.44 254.16 356.36 254.89 355.9 255.47 355.37 255.98 355.34 256.82 354.71 257.24 353.96 257.43 353.52 257.99 352.99 258.5 352.3 258.69 351.54 258.54 350.91 258.91 350.22 258.85"/><polygon class="cls-1" points="370.06 258.95 370.06 259.18 369.35 259.08 368.68 258.8 367.98 258.68 367.38 258.3 366.85 257.85 366.17 257.62 365.75 257.05 365.26 256.56 364.53 256.21 364.43 255.45 363.96 254.87 363.62 254.21 363.69 253.46 364.08 252.74 363.92 252.74 364 252.06 364.01 251.36 364.46 250.78 364.37 249.99 364.95 249.53 365.42 249.04 365.52 248.19 366.27 247.99 366.91 247.71 367.33 247.08 367.92 246.61 368.6 246.32 369.37 246.6 370.06 246.39 370.06 246.62 370.76 246.52 371.41 246.81 372.11 246.88 372.82 247.01 373.26 247.65 374.03 247.76 374.39 248.4 375.17 248.66 375.63 249.24 375.48 250.13 375.72 250.76 376.19 251.34 376.06 252.06 376.63 252.74 376.45 252.74 376.19 253.43 376 254.09 376.05 254.83 375.46 255.34 375.27 256.01 375.19 256.83 374.4 257.08 374.12 257.83 373.44 258.11 372.83 258.48 372.21 258.88 371.46 258.89 370.74 258.79 370.06 258.95"/><polygon class="cls-1" points="389.9 259.21 389.9 259.05 389.24 258.65 388.44 259.16 387.88 258.51 387.2 258.35 386.45 258.23 386.21 257.37 385.51 257.13 384.87 256.75 384.5 256.13 384.3 255.44 383.96 254.81 383.88 254.11 383.9 253.41 383.65 252.74 383.79 252.74 383.79 252.05 383.52 251.28 384 250.67 384.08 249.94 384.32 249.23 384.9 248.75 385.68 248.51 386.08 247.94 386.66 247.58 387.21 247.15 387.94 247.14 388.5 246.57 389.23 246.74 389.9 246.8 389.9 246.3 390.58 246.69 391.22 246.95 391.98 246.81 392.72 246.89 393.4 247.17 393.75 247.91 394.39 248.25 394.68 248.93 395.2 249.41 395.38 250.1 395.76 250.69 396.11 251.32 395.88 252.06 396.28 252.74 396.04 252.74 396.41 253.47 396.32 254.2 395.58 254.73 395.3 255.34 395.22 256.08 394.61 256.5 394.54 257.38 393.88 257.73 393.18 257.95 392.54 258.22 392 258.73 391.24 258.59 390.59 258.86 389.9 259.21"/><path class="cls-4" d="M305.54,157.32l-.1,1-.31.48-.72-.28-.72,0-.73.25-.72-.15-.73.2-.72,0-.72-.07h-.73l-.72-.26-.73,0-.73.59-.73-.3-.67-.45.2-1,.47-.51.1-.2.67-.07.78-.37.33-.77,0-.82-.38-.78.31-.69-.32-.69.1-.69-.12-.69.16-.69,0-.69.43-.7-.25-.75-.15-.74-.16-.72-.36-.59-.14-.88-.87.18-.69-.22-.65.24-.66.07-.61.27-.55.37-.62.31-.74.3.24.82-.46.65.11.69.26.69-.56.69.28.69.23.69-.06.69-.16.69.07.69-.07.74.05.77.51.58.41.64.69.32.75-.28.06.29.68.47.14,1-.82.62-.71-.43-.71.16-.72,0-.71.12-.72-.28-.71.4-.72-.29-.71-.1-.72.49-.72-.35-.72-.14-.72.35-.72.2-.79-.7.4-1,.39-.57.07.23.71-.24.75-.19.42-.65.16-.71.5-.64-.32-.75.24-.71-.41-.7,0-.7.56-.71,0-.7-.29-.7.25-.71-.53-.71.17-.7.23-.71.08-.7-.26-.71.35-.7-.17-.71-.4-.71.42-.71-.38-.71.16-.77-.09-.76-.28-.69-.14-.73-.46-.68-.85.24-.45-.71.35-.54-.19-.55.35-.54.74-.16.83.07.6-.52.63-.43.57-.53,1,.23.65-.39.58-.52.66-.34,0-.07.07-.51v.32l-.09.72-.21.72.08.72.12.72.18.72-.11.72v.72l0,.73.16.72-.37.72.49.73-.12.72,0,.72-.34.72.35.73-.16.73.22.7.1-.68.45-.59.59-.44.6-.42.6-.42.78,0,.56-.61.8.38.69-.22.71,0,.76-.27.62.53.67.23.56.41.6.34.57.45.48.55,0,.76.52.61-.39.78.12.69.16.71-.3.69.31.7-.26.7,0,.7.27.7,0,.7-.23.7v.7l.49.7.34.62-.19.86.44.69.86,0,.69.07.09.32Z"/><path class="cls-4" d="M315.09,156.38l.75.34.54-.73.8.12.44-.62.79-.15.18-.81.74-.31h.11l.7-.06.4.72.18,0,.07.62-.49.54-.49.54-.53.46-.4.61-.72.19-.62.3-.53.5-.72.06-.64.34-.71.1-.72,0-.71,0-.67-.33-.68-.1-.84.39-.58-.53-.74-.11-.54-.52-.6-.38-.69-.31-.42-.6-.19-.77-.36-.58-.47-.54-.67-.48.05-.78-.5-.62,0-.73-.2-.72.13-.73.06-.71.48-.66-.14-.72,0-.72.13-.7.14-.72L307,146l0-.85.57-.46.38-.64.63-.37.6-.4.63-.36.72-.1.76.16.57-.77.75.38.69-.13.74-.22.6.66.75-.1.75.06.61.39.5.54.58.41.4.59.32.64.55.48.19.69.27.64.55.61-.23.75-.2.57-.6.41-.74.11-.83-.1-.6.44-.68.24-.61.4-.78,0-.5.65-.78,0-.7.2-.46.75-.81,0-.73.16-.52.6.49.51.42.52.11.79.62.37.42.61.69.22.6.41.73,0ZM312.46,145l-.81-.29-.44.82-.82.16-.16.78-.62.55.27.82-.44.71,0,.84.41.8.13,1.15.66-.54.52-.57.71-.19.67-.25.69-.24.57-.48.77-.08.74-.33-.18-.94V147l-.45-.6-.39-.58-.46-.53-.62-.34Z"/><path class="cls-4" d="M338.51,143.24l.44,1-.6.54-.45.26-.65-.09-.49.5-.29.65-.19.71-.77.42.1.86-.63.49,0,.77-.65.48.15.88-.65.48-.19.71-.63.48-.23.69-.22.69-.27.66-.06.77-.54.53-.43.59-.07.77-.75.43-.34.63.11.86-.21.71-.74.43-.33.64,0,.83-.84.39.21.91-.32.65-.59.51-.21.71-.69.47-.48.6-.36-.65H325l-.38-.61L324,164l.66-.47.35-.62v-.77l.68-.46.11-.73.05-.76.43-.58.37-.6.39-.6.14-.72.55-.52.37-.76-.56-.68-.18-.71-.49-.56-.34-.63-.26-.68-.29-.65-.09-.76-.33-.64-.84-.4,0-.78-.51-.55-.14-.73-.34-.64-.5-.57-.2-.7v-.82l-.34-.68-.65-.49-.77.21-.06-.32-.77-.44.1-1,.67-.79.74.16.73,0,.74.43.74-.26.74-.13.73-.07.74-.15.74.53.75-.49.74.16.75.57-.1,1-.65.65-.06,0h-.7l-.65.62.78.65-.17.88.42.66.54.56-.21.89.57.55.52.57.25.69.16.74.34.62.41-.6.45-.62.14-.76.45-.62.3-.69,0-.85.59-.55.16-.82L333,146l.33-.68.13-.73-.72-.07-.58,0-.42-.31.28-1,.14-.54.69.28.68.1.69-.49.68.35.69.14.68-.35.69-.2.69-.09.69.4Z"/><path class="cls-4" d="M344.69,134.28l.61,0,.55.39.66.6.73.54.12.73.76.51-.49.69-.08.7.08.73-.11.69-.23.68.12.75-.67.6.32.77-.17.69.15.74-.39.66-.11.7v.72l.07.72-.57.67.41.86-.41.79.27.83-.6.21-.67.52-.67-.37-.68.14-.18-.5-.13-.83-.18-.81-.11-.82-.36-.68.18-.73,0-.72-.38-.67.37-.77-.08-.71-.6-.62L342,142l.34-.77-.11-.7-.52-.62.45-.8-.7-.6-.09-.71.25-.72.05-.71.72-.29v-.83l.73-.13.21-.64.77-.13Zm0,19.2.62,0,.54.4.66.58.73.52.12.76.76.55-.61.63-.4.54-.49.76-.62.63-.64.36-.67.42-.52-.7-.78-.06-.6-.66-.83-.44-.21-.79-.17-.69.1-.73.33-.7,1-.27.31-1,.76-.17Z"/><polygon class="cls-2" points="459.18 250.61 459.27 251.47 458.54 251.98 457.94 252.46 457.18 252.25 456.48 252.29 455.87 251.91 455.42 251.34 455.13 250.61 455.63 249.97 455.55 248.99 456.47 248.9 457.18 248.75 457.96 248.71 458.63 249.15 458.97 249.87 459.18 250.61"/><polygon class="cls-2" points="475.99 250.61 476.26 251.49 475.75 252.23 475.01 252.71 474.14 252.61 473.27 252.7 472.77 251.98 472.29 251.38 472.5 250.61 472.45 249.91 472.83 249.3 473.41 248.85 474.14 248.56 474.78 249.06 475.76 248.99 475.84 249.9 475.99 250.61"/><polygon class="cls-2" points="459.25 257.92 459.86 257.77 460.57 257.97 461.3 257.37 462.02 257.75 462.74 257.3 463.46 257.31 464.19 257.32 464.91 257.6 465.63 257.34 466.36 257.67 467.08 257.6 467.81 257.97 468.54 257.78 469.26 257.76 469.99 257.7 470.71 257.56 471.44 257.93 472.29 257.33 472.02 258.34 471.89 259.02 471.82 259.76 471.47 260.4 470.93 260.89 470.56 261.58 469.66 261.51 469.23 262.21 468.52 262.4 467.87 262.84 467.1 262.67 466.38 262.72 465.66 262.82 464.92 262.95 464.25 262.38 463.46 262.74 462.84 262.23 462.06 262.27 461.57 261.63 460.68 261.66 460.37 260.89 459.82 260.41 459.77 259.62 459.44 259.01 459.19 258.34 459.25 257.92"/><polygon class="cls-2" points="205.89 159.28 206.16 160.06 205.78 160.77 204.89 160.72 204.29 160.88 203.62 160.91 203.19 160.39 202.29 160.11 202.51 159.28 202.23 158.43 202.73 157.71 203.45 157.24 204.29 157.35 205.13 157.25 205.61 157.97 206.08 158.54 205.89 159.28"/><polygon class="cls-2" points="225.86 159.28 225.66 160 225.32 160.66 224.77 161.29 223.94 160.88 223.17 161.15 222.45 160.77 222.5 159.88 222.34 159.28 222.31 158.61 222.83 158.18 223.11 157.28 223.94 157.5 224.79 157.22 225.51 157.72 225.98 158.44 225.86 159.28"/><polyline class="cls-8" points="209.32 167.03 209.97 167.28 210.38 168.04 211.16 168.04 211.81 168.32 212.52 168.41 213.25 168.3 213.9 168.95 214.63 168.55 215.33 168.44 216.09 168.91 216.81 168.77 217.48 168.45 218.23 168.46 218.73 167.67 219.53 167.78 220.01 167.09 220.65 166.8"/></g></g></svg>