<svg width="64" height="64" viewBox="0 0 64 64" fill="none" xmlns="http://www.w3.org/2000/svg">
<mask id="mask0" mask-type="alpha" maskUnits="userSpaceOnUse" x="0" y="0" width="64" height="64">
<rect width="64" height="64" fill="#AAB3FF"/>
</mask>
<g mask="url(#mask0)">
<path d="M73.075 0H-9.07422V64H73.075V0Z" fill="#9985FF"/>
<g style="mix-blend-mode:multiply">
<path d="M73.075 0H-9.07422V64H73.075V0Z" fill="#9985FF"/>
</g>
<path d="M31.9561 39.164C32.0755 39.164 32.171 39.2595 32.2904 39.2595C32.4098 39.2595 32.5293 39.1879 32.6248 39.2118C32.7442 39.2118 32.8397 39.2595 32.9591 39.2834C33.0785 39.3073 33.174 39.4028 33.2695 39.4267C33.389 39.4506 33.5084 39.4028 33.6039 39.4267C33.7233 39.4506 33.8188 39.5222 33.9143 39.5461C34.0337 39.57 34.1292 39.6416 34.2248 39.6655C34.3203 39.7133 34.4636 39.6655 34.583 39.7133C34.6785 39.761 34.774 39.8327 34.8934 39.8804C34.989 39.9282 35.0845 39.9998 35.18 40.0476C35.2755 40.0953 35.3472 40.1909 35.4427 40.2386C35.5382 40.3103 35.6337 40.358 35.7293 40.4297C35.8248 40.5013 35.8964 40.5968 35.9681 40.6685C36.0636 40.7401 36.1591 40.7879 36.2546 40.8595C36.3501 40.9312 36.4218 41.0028 36.5173 41.0744C36.589 41.1461 36.6845 41.2177 36.78 41.2894C36.8516 41.361 36.9233 41.4565 36.9949 41.5521C37.0666 41.6476 37.186 41.6953 37.2576 41.767C37.3292 41.8625 37.3293 41.9819 37.4009 42.0774C37.4725 42.173 37.5442 42.2446 37.6158 42.3401C37.6875 42.4356 37.7113 42.5312 37.783 42.6267C37.8307 42.7222 37.9263 42.8177 37.974 42.9133C38.0218 43.0088 38.0218 43.1282 38.0695 43.2476C38.1173 43.3431 38.1412 43.4625 38.189 43.558C38.2367 43.6536 38.3322 43.7491 38.3561 43.8446C38.38 43.9401 38.3561 44.0834 38.38 44.1789C38.4039 44.2983 38.4755 44.3939 38.4994 44.4894C38.5233 44.6088 38.5472 44.7043 38.571 44.8237C38.5949 44.9431 38.6188 45.0386 38.6188 45.158C38.6188 45.2774 38.5949 45.373 38.5949 45.4924C38.5949 45.6118 38.6188 45.7073 38.6188 45.8267C38.6188 45.9461 38.571 46.0416 38.571 46.161C38.571 46.2804 38.6427 46.3998 38.6188 46.4953C38.6188 46.6147 38.5472 46.7103 38.5233 46.8297C38.4994 46.9491 38.4755 47.0446 38.4516 47.164C38.4278 47.2834 38.4994 47.4028 38.4755 47.5222C38.4516 47.6416 38.3322 47.7133 38.3084 47.8327C38.2845 47.9521 38.3084 48.0715 38.2606 48.167C38.2128 48.2625 38.1173 48.358 38.0934 48.4536C38.0457 48.5491 38.0457 48.6924 37.9979 48.7879C37.9501 48.8834 37.8546 48.9789 37.8069 49.0744C37.7591 49.17 37.6875 49.2655 37.6397 49.361C37.5681 49.4565 37.5681 49.5759 37.4964 49.6715C37.4248 49.767 37.2815 49.7909 37.2098 49.8864C37.1382 49.9819 37.1621 50.1491 37.0904 50.2207C37.0188 50.3162 36.8516 50.3162 36.78 50.3879C36.7084 50.4595 36.6845 50.6267 36.6128 50.6983C36.5412 50.77 36.4218 50.8416 36.3501 50.9133C36.2546 50.9849 36.1591 51.0565 36.0875 51.1282C35.9919 51.1998 35.8725 51.2237 35.777 51.2953C35.6815 51.367 35.6098 51.4386 35.5143 51.5103C35.4188 51.5819 35.3233 51.6058 35.2278 51.6774C35.1322 51.7252 35.0367 51.7968 34.9412 51.8446C34.8457 51.8924 34.774 52.0118 34.6546 52.0595C34.5591 52.1073 34.4397 52.155 34.3442 52.2028C34.2487 52.2506 34.1293 52.2506 34.0098 52.2983C33.9143 52.3222 33.7949 52.3939 33.6994 52.4177C33.58 52.4416 33.4606 52.3939 33.3412 52.4177C33.2218 52.4416 33.1263 52.5133 33.0069 52.5371C32.8875 52.561 32.7919 52.5849 32.6725 52.6088C32.5531 52.6088 32.4337 52.6088 32.3382 52.6088C32.2188 52.6088 32.1233 52.6088 32.0039 52.6088C31.8845 52.6088 31.789 52.5849 31.6695 52.5849C31.5501 52.5849 31.4307 52.6327 31.3352 52.6088C31.2158 52.6088 31.1203 52.5371 31.0009 52.5133C30.8815 52.4894 30.7621 52.4894 30.6666 52.4655C30.5472 52.4416 30.4278 52.4655 30.3322 52.4177C30.2128 52.3939 30.1173 52.3222 30.0218 52.2744C29.9024 52.2506 29.8307 52.155 29.7113 52.1073C29.6158 52.0595 29.4964 52.0356 29.4009 51.9879C29.3054 51.9401 29.186 51.9401 29.0666 51.8924C28.971 51.8446 28.8516 51.8207 28.7561 51.773C28.6606 51.7252 28.5651 51.6536 28.4695 51.6058C28.374 51.5341 28.2785 51.4625 28.183 51.4147C28.0875 51.3431 27.9681 51.3192 27.8725 51.2476C27.777 51.1759 27.7531 51.0327 27.6815 50.961C27.586 50.8894 27.4427 50.8894 27.371 50.7939C27.2994 50.7222 27.2278 50.6267 27.1561 50.5312C27.0845 50.4595 27.0606 50.3162 26.989 50.2446C26.9173 50.1491 26.774 50.1252 26.7024 50.0536C26.6307 49.958 26.6546 49.8147 26.6069 49.7192C26.5352 49.6237 26.4636 49.5521 26.3919 49.4565C26.3203 49.361 26.2248 49.2894 26.177 49.1939C26.1293 49.0983 26.0337 49.0028 25.986 48.9073C25.9382 48.8118 25.9382 48.6685 25.8904 48.573C25.8427 48.4774 25.7949 48.358 25.7472 48.2625C25.6994 48.167 25.6278 48.0715 25.6039 47.9521C25.58 47.8565 25.6039 47.7133 25.58 47.6177C25.5561 47.4983 25.4606 47.4028 25.4367 47.3073C25.4128 47.1879 25.4128 47.0924 25.389 46.973C25.3651 46.8536 25.389 46.7342 25.389 46.6386C25.389 46.5192 25.3173 46.4237 25.3173 46.3043C25.3173 46.1849 25.3651 46.0655 25.3651 45.97C25.3651 45.8506 25.389 45.755 25.389 45.6356C25.389 45.5162 25.2934 45.3968 25.3173 45.3013C25.3173 45.1819 25.4367 45.0864 25.4606 44.967C25.4845 44.8476 25.4606 44.7282 25.4845 44.6327C25.5084 44.5133 25.4845 44.3939 25.5084 44.2983C25.5322 44.1789 25.6516 44.1073 25.6994 43.9879C25.7233 43.8685 25.7472 43.773 25.7949 43.6536C25.8427 43.558 25.7949 43.4147 25.8427 43.3192C25.8904 43.2237 25.9382 43.1043 25.986 43.0088C26.0337 42.9133 26.1054 42.8177 26.1531 42.7222C26.2009 42.6267 26.2725 42.5312 26.3442 42.4356C26.4158 42.3401 26.4636 42.2446 26.5352 42.1491C26.6069 42.0536 26.7263 42.0058 26.7979 41.9341C26.8695 41.8386 26.8457 41.6715 26.9173 41.5998C26.989 41.5043 27.0845 41.4327 27.1561 41.361C27.2278 41.2894 27.3472 41.2177 27.4188 41.1461C27.4904 41.0745 27.586 40.9789 27.6576 40.9073C27.7531 40.8356 27.8487 40.764 27.9203 40.6924C28.0158 40.6207 28.1113 40.573 28.2069 40.5013C28.3024 40.4297 28.374 40.3341 28.4695 40.2625C28.5651 40.1909 28.6845 40.167 28.78 40.1192C28.8755 40.0715 28.971 40.0237 29.0904 39.9759C29.186 39.9282 29.2815 39.8804 29.4009 39.8327C29.4964 39.7849 29.5919 39.7371 29.7113 39.6894C29.8069 39.6416 29.9263 39.6416 30.0457 39.6177C30.1412 39.5939 30.2606 39.57 30.38 39.5461C30.4994 39.5222 30.5949 39.5222 30.7143 39.4983C30.8337 39.4744 30.9054 39.355 31.0248 39.3312C31.1442 39.3073 31.2397 39.2834 31.3591 39.2595C31.4785 39.2595 31.5979 39.355 31.7173 39.355C31.7412 39.2595 31.8367 39.164 31.9561 39.164Z" fill="white"/>
<path d="M38.6866 45.8269C38.6866 45.9463 38.6627 46.0657 38.6627 46.1851C38.6627 46.3045 38.615 46.4 38.5911 46.5194C38.5911 46.6388 38.6627 46.7582 38.6389 46.8537C38.615 46.9731 38.5672 47.0686 38.5433 47.1642C38.5194 47.2597 38.4956 47.3791 38.4717 47.4746C38.4478 47.5701 38.4 47.6895 38.3762 47.7851C38.3523 47.8806 38.3762 48.0239 38.3284 48.1194C38.2806 48.2149 38.1851 48.2866 38.1374 48.406C38.0896 48.5015 38.1135 48.6448 38.0657 48.7403C38.018 48.8358 37.8986 48.9074 37.8508 49.003C37.803 49.0985 37.7553 49.194 37.7075 49.2895C37.6597 49.3851 37.5642 49.4567 37.5165 49.5522C37.4687 49.6477 37.3971 49.7194 37.3254 49.8149C37.2538 49.9104 37.206 49.9821 37.1344 50.0776C37.0627 50.1731 37.0389 50.2686 36.9672 50.3642C36.8956 50.4358 36.8 50.5075 36.7284 50.5791C36.6568 50.6507 36.5612 50.7224 36.4896 50.794C36.418 50.8657 36.3702 50.9851 36.2747 51.0567C36.1791 51.1283 36.0597 51.1283 35.9642 51.2C35.8687 51.2716 35.8448 51.391 35.7493 51.4627C35.6538 51.5343 35.5344 51.5104 35.4388 51.5821C35.3433 51.6298 35.2478 51.7015 35.1523 51.7492C35.0568 51.797 34.9374 51.797 34.8418 51.8448C34.7463 51.8925 34.6986 52.0358 34.5791 52.0836C34.4836 52.1313 34.3642 52.1552 34.2687 52.1791C34.1732 52.2269 34.0538 52.2269 33.9344 52.2507C33.8389 52.2746 33.7194 52.2507 33.6 52.2746C33.5045 52.2985 33.3851 52.3224 33.2896 52.3463C33.1941 52.3701 33.0747 52.394 32.9791 52.394C32.8597 52.4179 32.7642 52.5134 32.6687 52.5134C32.5493 52.5134 32.4538 52.5612 32.3344 52.5612C32.215 52.5612 32.1194 52.5373 32 52.5373C31.8806 52.5373 31.7851 52.5134 31.6657 52.5134C31.5463 52.5134 31.4508 52.5373 31.3314 52.5373C31.212 52.5373 31.1165 52.4179 31.0209 52.394C30.9015 52.3701 30.806 52.394 30.6866 52.3701C30.5911 52.3463 30.4717 52.2985 30.3762 52.2746C30.2806 52.2507 30.1612 52.2507 30.0657 52.203C29.9702 52.1791 29.8747 52.1075 29.7553 52.0836C29.6597 52.0358 29.5165 52.0836 29.4209 52.0358C29.3254 51.988 29.206 51.9642 29.1105 51.9164C29.015 51.8686 28.9194 51.797 28.8239 51.7254C28.7284 51.6776 28.609 51.6537 28.5135 51.606C28.418 51.5582 28.3463 51.4388 28.2747 51.3672C28.203 51.2955 28.1075 51.2239 28.0359 51.1522C27.9403 51.0806 27.8209 51.0806 27.7254 51.0089C27.6299 50.9373 27.5344 50.8895 27.4627 50.8179C27.3911 50.7463 27.2956 50.6746 27.2239 50.603C27.1523 50.5313 27.0806 50.4358 27.009 50.3403C26.9374 50.2686 26.9374 50.1015 26.8657 50.0298C26.7941 49.9343 26.7224 49.8627 26.6747 49.7672C26.603 49.6716 26.5314 49.6 26.4597 49.5045C26.3881 49.4089 26.2687 49.3612 26.2209 49.2657C26.1732 49.1701 26.1971 49.0269 26.1493 48.9313C26.1015 48.8358 26.0538 48.7403 26.006 48.6448C25.9583 48.5492 25.815 48.5015 25.7672 48.3821C25.7194 48.2866 25.7672 48.1433 25.7194 48.0477C25.6717 47.9522 25.6239 47.8567 25.5762 47.7373C25.5523 47.6418 25.5045 47.5224 25.4806 47.4269C25.4568 47.3313 25.4329 47.2119 25.409 47.1164C25.3851 47.0209 25.3612 46.9015 25.3374 46.7821C25.3135 46.6627 25.3135 46.5672 25.3135 46.4477C25.3135 46.3283 25.3612 46.2328 25.3612 46.1134C25.3612 45.994 25.3135 45.8985 25.3135 45.7791C25.4806 45.7313 25.4806 45.7791 25.6717 45.7791C25.8388 45.7791 25.8388 45.8269 26.0299 45.8269C26.1971 45.8269 26.1971 45.8269 26.3881 45.8269C26.5553 45.8269 26.5553 45.7791 26.7463 45.7791C26.9135 45.7791 26.9135 45.8269 27.1045 45.8269C27.2717 45.8269 27.2717 45.8269 27.4627 45.8269C27.6299 45.8269 27.6299 45.803 27.8209 45.803C27.9881 45.803 27.9881 45.8269 28.1791 45.8269C28.3463 45.8269 28.3463 45.803 28.5374 45.803C28.7045 45.803 28.7045 45.7791 28.8956 45.7791C29.0866 45.7791 29.0627 45.7313 29.2538 45.7313C29.4209 45.7313 29.4209 45.8269 29.612 45.8269C29.7791 45.8269 29.7791 45.8269 29.9702 45.8269C30.1374 45.8269 30.1374 45.7313 30.3284 45.7313C30.4956 45.7313 30.4956 45.7313 30.6866 45.7313C30.8538 45.7313 30.8538 45.7313 31.0448 45.7313C31.212 45.7313 31.212 45.8269 31.403 45.8269C31.5702 45.8269 31.5702 45.8269 31.7612 45.8269C31.9284 45.8269 31.9284 45.8269 32.1194 45.8269C32.2866 45.8269 32.2866 45.7791 32.4777 45.7791C32.6448 45.7791 32.6448 45.7313 32.8359 45.7313C33.003 45.7313 33.003 45.7313 33.1941 45.7313C33.3612 45.7313 33.3612 45.7791 33.5523 45.7791C33.7194 45.7791 33.7194 45.7313 33.9105 45.7313C34.0777 45.7313 34.0777 45.7552 34.2687 45.7552C34.4359 45.7552 34.4359 45.8269 34.6269 45.8269C34.7941 45.8269 34.7941 45.8269 34.9851 45.8269C35.1523 45.8269 35.1523 45.8507 35.3433 45.8507C35.5105 45.8507 35.5105 45.7791 35.7015 45.7791C35.8926 45.7791 35.8687 45.8269 36.0597 45.8269C36.2269 45.8269 36.2269 45.803 36.418 45.803C36.5851 45.803 36.5851 45.8507 36.7762 45.8507C36.9433 45.8507 36.9433 45.8269 37.1344 45.8269C37.3015 45.8269 37.3015 45.7791 37.4926 45.7791C37.6597 45.7791 37.6597 45.7791 37.8508 45.7791C38.018 45.7791 38.018 45.7552 38.209 45.7552C38.3762 45.7552 38.3762 45.7791 38.5672 45.7552C38.5194 45.7791 38.5194 45.7791 38.6866 45.8269Z" fill="#0F1117"/>
<path d="M18.6273 39.1164C18.7467 39.1164 18.8661 39.1642 18.9616 39.1642C19.081 39.1642 19.1766 39.2358 19.296 39.2597C19.4154 39.2597 19.5348 39.2358 19.6303 39.2358C19.7497 39.2597 19.8691 39.2597 19.9646 39.2836C20.084 39.3075 20.1796 39.3314 20.299 39.3791C20.4184 39.403 20.49 39.4985 20.6094 39.5224C20.7288 39.5463 20.8243 39.594 20.9198 39.6418C21.0154 39.6896 21.1348 39.7134 21.2303 39.7612C21.3258 39.809 21.493 39.7612 21.5885 39.809C21.684 39.8567 21.7796 39.9284 21.8751 39.9761C21.9706 40.0239 22.0184 40.1672 22.1139 40.2388C22.2094 40.3105 22.3766 40.2627 22.4721 40.3343C22.5676 40.406 22.6393 40.4776 22.7348 40.5493C22.8303 40.6209 22.9258 40.6925 22.9975 40.7642C23.093 40.8358 23.1407 40.9552 23.2124 41.0269C23.284 41.0985 23.3796 41.1702 23.4751 41.2657C23.5467 41.3373 23.6661 41.409 23.7378 41.4806C23.8094 41.5761 23.881 41.6478 23.9527 41.7433C24.0243 41.8388 24.0004 41.9821 24.0721 42.0776C24.1437 42.1731 24.2393 42.2448 24.287 42.3403C24.3587 42.4358 24.3587 42.5552 24.4064 42.6508C24.4542 42.7463 24.5736 42.8179 24.6213 42.9134C24.6691 43.009 24.6691 43.1523 24.7169 43.2478C24.7646 43.3433 24.8601 43.4388 24.9079 43.5343C24.9557 43.6299 25.0273 43.7254 25.0751 43.8448C25.099 43.9403 25.099 44.0836 25.1228 44.1791C25.1467 44.2985 25.1467 44.4179 25.1706 44.5134C25.1945 44.6328 25.2184 44.7284 25.2184 44.8478C25.2422 44.9672 25.2422 45.0627 25.2661 45.1821C25.2661 45.3015 25.3378 45.397 25.3616 45.5164C25.3616 45.6358 25.3616 45.7552 25.3616 45.8508C25.3616 45.9702 25.2661 46.0657 25.2661 46.1851C25.2661 46.3045 25.3378 46.4239 25.3139 46.5194C25.3139 46.6388 25.2184 46.7343 25.1945 46.8537C25.1706 46.9731 25.2184 47.0926 25.1945 47.1881C25.1706 47.3075 25.0751 47.3791 25.0512 47.4985C25.0273 47.6179 25.0751 47.7373 25.0273 47.8567C25.0034 47.9761 25.0034 48.0955 24.9557 48.1911C24.9079 48.2866 24.8124 48.3821 24.7646 48.4776C24.7169 48.5731 24.6691 48.6926 24.6213 48.7881C24.5736 48.8836 24.4781 48.9791 24.4303 49.0746C24.3825 49.1702 24.3348 49.2896 24.287 49.3851C24.2154 49.4806 24.1676 49.5761 24.096 49.6717C24.0243 49.7672 24.0243 49.8866 23.9527 49.9821C23.881 50.0776 23.8094 50.1493 23.7378 50.2448C23.6661 50.3403 23.5945 50.412 23.5228 50.5075C23.4512 50.5791 23.3079 50.6269 23.2363 50.6985C23.1646 50.7702 23.0452 50.8418 22.9736 50.9134C22.8781 50.9851 22.8303 51.0806 22.7348 51.1523C22.6393 51.2239 22.5915 51.3194 22.496 51.3911C22.4004 51.4627 22.3049 51.5105 22.2094 51.5582C22.1139 51.6299 22.0184 51.7015 21.9228 51.7493C21.8273 51.797 21.684 51.797 21.5885 51.8448C21.493 51.8926 21.3975 51.9881 21.3019 52.0358C21.2064 52.0836 21.0631 52.0358 20.9437 52.0836C20.8482 52.1314 20.7527 52.2508 20.6572 52.2746C20.5616 52.2985 20.4184 52.2508 20.299 52.2746C20.1796 52.2985 20.1079 52.4179 19.9885 52.4418C19.8691 52.4657 19.7497 52.4179 19.6542 52.4418C19.5348 52.4657 19.4393 52.5134 19.3198 52.5373C19.2004 52.5373 19.1049 52.609 18.9855 52.609C18.8661 52.609 18.7467 52.609 18.6512 52.609C18.5318 52.609 18.4363 52.5373 18.3169 52.5373C18.1975 52.5373 18.0781 52.609 17.9825 52.5851C17.8631 52.5851 17.7676 52.5373 17.6482 52.5134C17.5288 52.4896 17.4333 52.4896 17.3139 52.4657C17.1945 52.4418 17.099 52.394 16.9795 52.3702C16.8601 52.3463 16.7646 52.2985 16.6691 52.2508C16.5497 52.2269 16.4542 52.203 16.3348 52.1552C16.2393 52.1075 16.1437 52.0358 16.0482 51.9881C15.9527 51.9403 15.8333 51.9403 15.7378 51.8926C15.6422 51.8448 15.5467 51.7493 15.4512 51.7015C15.3557 51.6537 15.2601 51.5821 15.1646 51.5343C15.0691 51.4627 14.9497 51.4388 14.8542 51.3911C14.7587 51.3194 14.6393 51.2955 14.5437 51.2478C14.4482 51.1761 14.4004 51.0806 14.3049 51.009C14.2094 50.9373 14.09 50.8896 14.0184 50.8179C13.9467 50.7463 13.899 50.603 13.8273 50.5314C13.7557 50.4597 13.6363 50.412 13.5646 50.3164C13.493 50.2209 13.4213 50.1254 13.3497 50.0537C13.2781 49.9582 13.2303 49.8627 13.1587 49.7672C13.087 49.6717 13.0393 49.5761 12.9915 49.4806C12.9198 49.3851 12.9198 49.2657 12.8482 49.1702C12.8004 49.0746 12.7049 48.9791 12.6572 48.8836C12.6094 48.7881 12.5855 48.6687 12.5378 48.5731C12.49 48.4776 12.4661 48.3582 12.4184 48.2627C12.3706 48.1672 12.299 48.0717 12.2512 47.9523C12.2273 47.8567 12.1796 47.7373 12.1557 47.6179C12.1318 47.4985 12.0601 47.403 12.0363 47.3075C12.0124 47.1881 12.0601 47.0687 12.0363 46.9731C12.0124 46.8537 11.9407 46.7582 11.9407 46.6388C11.9407 46.5194 12.0363 46.4 12.0124 46.3045C12.0124 46.1851 11.9169 46.0896 11.9169 45.9702C11.9169 45.8508 11.893 45.7314 11.9169 45.6358C11.9169 45.5164 11.9885 45.4209 12.0124 45.3015C12.0124 45.1821 11.9646 45.0627 11.9885 44.9672C12.0124 44.8478 12.0601 44.7523 12.084 44.6328C12.1079 44.5134 12.1079 44.4179 12.1318 44.2985C12.1557 44.1791 12.2273 44.0836 12.2751 43.9881C12.299 43.8687 12.3706 43.7731 12.4184 43.6776C12.4661 43.5821 12.4422 43.4388 12.4661 43.3433C12.5139 43.2478 12.5855 43.1523 12.6333 43.0567C12.681 42.9612 12.7049 42.8418 12.7527 42.7463C12.8004 42.6508 12.8721 42.5552 12.9198 42.4597C12.9915 42.3642 13.0631 42.2925 13.1348 42.197C13.2064 42.1015 13.2303 41.9821 13.3019 41.9105C13.3736 41.8149 13.4452 41.7433 13.5169 41.6478C13.5885 41.5523 13.684 41.5045 13.7557 41.409C13.8273 41.3373 13.8751 41.2179 13.9467 41.1224C14.0184 41.0508 14.1616 41.0269 14.2572 40.9552C14.3527 40.8836 14.4243 40.812 14.5198 40.7403C14.6154 40.6687 14.7109 40.6209 14.8064 40.5493C14.9019 40.4776 14.9497 40.3582 15.0452 40.3105C15.1407 40.2388 15.2363 40.1911 15.3318 40.1194C15.4273 40.0717 15.5467 40.0478 15.6422 40C15.7378 39.9523 15.8572 39.9284 15.9527 39.8806C16.0482 39.8328 16.1437 39.7612 16.2631 39.7134C16.3587 39.6657 16.4781 39.6657 16.5975 39.6418C16.693 39.6179 16.7885 39.5224 16.9079 39.4985C17.0273 39.4746 17.1467 39.4985 17.2422 39.4746C17.3616 39.4508 17.4572 39.4269 17.5766 39.403C17.696 39.3791 17.7915 39.3552 17.9109 39.3552C18.0303 39.3552 18.1258 39.2597 18.2452 39.2597C18.3885 39.1164 18.5079 39.1164 18.6273 39.1164Z" fill="white"/>
<path d="M24.4303 42.5552C24.478 42.6507 24.5497 42.6985 24.5974 42.794C24.6452 42.8895 24.6452 43.0089 24.693 43.1045C24.7407 43.2 24.8124 43.2955 24.8601 43.391C24.9079 43.4865 24.9557 43.5821 24.9795 43.7015C25.0034 43.797 25.0273 43.9164 25.0751 44.0119C25.0989 44.1074 25.0989 44.2268 25.1228 44.3463C25.1467 44.4418 25.2422 44.5373 25.2661 44.6567C25.29 44.7761 25.1945 44.8955 25.2183 44.991C25.2422 45.1104 25.2422 45.206 25.2422 45.3254C25.2422 45.4448 25.3139 45.5403 25.3139 45.6597C25.3139 45.7791 25.29 45.8746 25.29 45.994C25.29 46.1134 25.29 46.2089 25.29 46.3283C25.29 46.4477 25.2661 46.5433 25.2422 46.6627C25.2183 46.7821 25.2183 46.8776 25.1945 46.9731C25.1706 47.0925 25.2183 47.188 25.1945 47.3074C25.1706 47.403 25.1228 47.5224 25.0989 47.6179C25.0751 47.7134 25.0512 47.8328 25.0273 47.9283C25.0034 48.0239 24.9557 48.1433 24.9318 48.2388C24.884 48.3343 24.8601 48.4537 24.8124 48.5492C24.7646 48.6448 24.6691 48.7164 24.6213 48.8358C24.5736 48.9313 24.5019 49.0268 24.4542 49.1224C24.4064 49.2179 24.3348 49.3134 24.287 49.4089C24.2392 49.5045 24.2392 49.6477 24.1915 49.7433C24.1198 49.8388 24.0721 49.9343 24.0243 50.0298C23.9527 50.1254 23.8333 50.1731 23.7616 50.2448C23.69 50.3164 23.6183 50.4119 23.5467 50.5074C23.4751 50.5791 23.4034 50.6746 23.3318 50.7463C23.2601 50.8179 23.1646 50.8895 23.093 50.9612C23.0213 51.0328 22.9497 51.1283 22.8542 51.2C22.7586 51.2716 22.6392 51.2955 22.5676 51.3433C22.4721 51.4149 22.3765 51.4627 22.281 51.5104C22.1855 51.5582 22.09 51.606 21.9945 51.6537C21.8989 51.7015 21.8034 51.7731 21.7079 51.8209C21.6124 51.8686 21.5168 51.9403 21.4213 51.988C21.3258 52.0358 21.2064 52.0358 21.1109 52.0836C21.0154 52.1313 20.9198 52.2268 20.8243 52.2507C20.7288 52.2746 20.5855 52.2268 20.49 52.2507C20.3945 52.2746 20.2751 52.2746 20.1795 52.2985C20.084 52.3224 19.9885 52.394 19.8691 52.4179C19.7497 52.4418 19.6542 52.4179 19.5348 52.4179C19.4154 52.4418 19.3198 52.4657 19.2004 52.4657C19.081 52.4657 18.9855 52.4657 18.8661 52.4657C18.7467 52.4657 18.6512 52.4657 18.5318 52.4657C18.4124 52.4657 18.3168 52.5134 18.1974 52.5134C18.078 52.5134 17.9825 52.4418 17.887 52.4418C17.7676 52.4179 17.6721 52.4418 17.5527 52.4418C17.4333 52.4179 17.3377 52.394 17.2422 52.3701C17.1467 52.3463 17.0512 52.2746 16.9318 52.2507C16.8362 52.2268 16.7168 52.203 16.6213 52.1791C16.5258 52.1552 16.4064 52.1552 16.287 52.1074C16.1915 52.0597 16.0721 52.0597 15.9765 52.0119C15.881 51.9642 15.8333 51.8209 15.7377 51.7731C15.6422 51.7254 15.5467 51.6776 15.4512 51.6298C15.3557 51.5821 15.2362 51.5821 15.1407 51.5104C15.0452 51.4627 14.9497 51.391 14.878 51.3194C14.7825 51.2477 14.7109 51.1522 14.6392 51.1045C14.5437 51.0328 14.4482 50.9851 14.3765 50.9134C14.3049 50.8418 14.2094 50.7701 14.1377 50.6746C14.0661 50.603 13.9467 50.5552 13.8751 50.4836C13.8034 50.4119 13.8034 50.2686 13.7318 50.1731C13.6601 50.1015 13.5646 50.0298 13.493 49.9343C13.4213 49.8388 13.3497 49.7671 13.278 49.6955C13.2064 49.6 13.1348 49.5283 13.0631 49.4328C13.0154 49.3373 12.9198 49.194 12.8721 49.0985C12.9915 48.9791 13.0392 49.003 13.1825 48.9074C13.3258 48.8119 13.3974 48.9074 13.5407 48.8358C13.684 48.7403 13.684 48.7164 13.8273 48.6209C13.9706 48.5254 13.9706 48.5254 14.1377 48.4537C14.281 48.3582 14.3049 48.3821 14.4482 48.3104C14.5915 48.2149 14.5437 48.1433 14.7109 48.0477C14.8542 47.9522 14.9019 48.0239 15.0452 47.9283C15.1885 47.8328 15.1885 47.8328 15.3557 47.7612C15.4989 47.6657 15.4751 47.6179 15.6183 47.5224C15.7616 47.4268 15.8094 47.4985 15.9527 47.403C16.096 47.3074 16.1198 47.3552 16.2631 47.2597C16.4064 47.1642 16.4064 47.1642 16.5497 47.0686C16.693 46.9731 16.693 46.9731 16.8601 46.9015C17.0034 46.806 16.9795 46.7582 17.1228 46.6627C17.2661 46.5671 17.3139 46.6388 17.4571 46.5433C17.6004 46.4477 17.6243 46.4716 17.7676 46.3761C17.9109 46.2806 17.887 46.2328 18.0303 46.1373C18.1736 46.0418 18.1497 46.0179 18.3168 45.9224C18.4601 45.8268 18.484 45.8507 18.6273 45.7552C18.7706 45.6597 18.8183 45.7313 18.9616 45.6358C19.1049 45.5403 19.1049 45.5403 19.2721 45.4686C19.4154 45.3731 19.4154 45.3492 19.5586 45.2537C19.7019 45.1582 19.7019 45.1582 19.8452 45.0627C19.9885 44.9671 20.0362 45.0388 20.1795 44.9433C20.3228 44.8477 20.3228 44.8477 20.4661 44.7522C20.6094 44.6567 20.6094 44.6567 20.7765 44.5612C20.9198 44.4657 20.8959 44.4418 21.0631 44.3463C21.2064 44.2507 21.1825 44.2268 21.3497 44.1313C21.493 44.0358 21.5168 44.0597 21.6601 43.9642C21.8034 43.8686 21.8512 43.9403 21.9945 43.8686C22.1377 43.7731 22.1139 43.7254 22.2571 43.6298C22.4004 43.5343 22.4243 43.5582 22.5676 43.4866C22.7109 43.391 22.7348 43.4388 22.9019 43.3433C23.0452 43.2477 22.9974 43.1761 23.1646 43.0806C23.3079 42.9851 23.3557 43.0806 23.5228 42.9851C23.6661 42.8895 23.6422 42.8657 23.8094 42.7701C23.9527 42.6746 23.9527 42.6746 24.1198 42.5791C24.2631 42.5791 24.2631 42.5791 24.4303 42.5552Z" fill="#0F1117"/>
<path d="M45.373 39.1642C45.4924 39.1642 45.6118 39.1164 45.7073 39.1403C45.8267 39.1403 45.9461 39.1403 46.0417 39.1403C46.1611 39.1403 46.2805 39.1642 46.376 39.188C46.4954 39.2119 46.5909 39.2836 46.7103 39.3075C46.8297 39.3313 46.9252 39.3791 47.0208 39.403C47.1402 39.4269 47.2357 39.4507 47.3551 39.4746C47.4745 39.4985 47.5939 39.4507 47.7133 39.4985C47.8088 39.5463 47.9043 39.6418 47.9999 39.6657C48.0954 39.7134 48.2148 39.7373 48.3342 39.7851C48.4297 39.8328 48.5252 39.8806 48.6446 39.9522C48.7402 40 48.8118 40.0955 48.9073 40.1672C49.0029 40.2388 49.0984 40.2866 49.1939 40.3582C49.2894 40.4298 49.3372 40.5492 49.4327 40.6209C49.5282 40.6925 49.6476 40.7164 49.7432 40.788C49.8387 40.8597 49.9103 40.9552 49.982 41.0269C50.0536 41.0985 50.1491 41.194 50.2208 41.2657C50.2924 41.3373 50.4357 41.3851 50.5073 41.4806C50.579 41.5761 50.6267 41.6716 50.6984 41.7672C50.77 41.8627 50.7939 41.9821 50.8655 42.0537C50.9372 42.1492 51.0088 42.2448 51.0566 42.3403C51.1282 42.4358 51.176 42.5313 51.2476 42.6269C51.2954 42.7224 51.367 42.8179 51.4148 42.9134C51.4626 43.0089 51.5103 43.1283 51.5581 43.2239C51.6058 43.3194 51.6536 43.4149 51.7014 43.5343C51.7491 43.6298 51.773 43.7492 51.8208 43.8448C51.8446 43.9403 51.9163 44.0597 51.9402 44.1552C51.964 44.2746 51.9402 44.394 51.9402 44.5134C51.964 44.6328 51.964 44.7283 51.9879 44.8477C52.0118 44.9672 52.0357 45.0627 52.0357 45.1821C52.0357 45.3015 52.0596 45.397 52.0596 45.5164C52.0596 45.6358 52.0357 45.7313 52.0357 45.8507C52.0357 45.9701 52.1312 46.0895 52.1312 46.1851C52.1312 46.3045 52.1073 46.4239 52.0835 46.5194C52.0835 46.6388 52.0596 46.7343 52.0357 46.8537C52.0118 46.9731 51.9163 47.0686 51.8924 47.1642C51.8685 47.2836 51.8924 47.403 51.8685 47.4985C51.8446 47.6179 51.8446 47.7373 51.8208 47.8328C51.7969 47.9522 51.7491 48.0478 51.7014 48.1433C51.6536 48.2388 51.6058 48.3582 51.5581 48.4537C51.5103 48.5492 51.3909 48.6209 51.3432 48.7164C51.2954 48.8119 51.2476 48.9074 51.176 49.003C51.1282 49.0985 51.0805 49.194 51.0088 49.2895C50.9372 49.3851 50.9611 49.5283 50.8894 49.6239C50.8178 49.7194 50.7461 49.791 50.6745 49.8866C50.6029 49.9821 50.4834 50.0298 50.4118 50.1254C50.3402 50.2209 50.2924 50.3403 50.2208 50.4119C50.1491 50.4836 50.0775 50.5791 49.982 50.6507C49.9103 50.7224 49.767 50.7463 49.6954 50.8179C49.5999 50.8895 49.576 51.0328 49.4805 51.1045C49.3849 51.1761 49.2417 51.1522 49.1461 51.2239C49.0506 51.2955 49.0029 51.4388 48.9073 51.4866C48.8118 51.5582 48.6924 51.5821 48.5969 51.6298C48.5014 51.6776 48.382 51.7015 48.2626 51.7492C48.167 51.797 48.0715 51.8686 47.9521 51.8925C47.8566 51.9403 47.7611 52.0358 47.6655 52.0836C47.57 52.1313 47.4506 52.1552 47.3312 52.1791C47.2357 52.203 47.0924 52.1552 46.973 52.1791C46.8536 52.203 46.7581 52.2746 46.6626 52.2985C46.5431 52.3224 46.4476 52.3224 46.3282 52.3463C46.2088 52.3701 46.1133 52.394 45.9939 52.4179C45.8745 52.4179 45.7551 52.394 45.6596 52.394C45.5402 52.394 45.4446 52.4179 45.3252 52.4179C45.2058 52.4179 45.0864 52.5134 44.9909 52.5134C44.8715 52.5134 44.7521 52.4895 44.6566 52.4657C44.5372 52.4657 44.4417 52.394 44.3223 52.3701C44.2029 52.3463 44.0834 52.3701 43.9879 52.3463C43.8685 52.3224 43.773 52.2746 43.6536 52.2507C43.5342 52.2269 43.4148 52.2269 43.3193 52.203C43.1999 52.1791 43.1282 52.0597 43.0327 52.0119C42.9372 51.9642 42.8178 51.9403 42.7223 51.8925C42.6267 51.8448 42.5073 51.8209 42.4118 51.7731C42.3163 51.7254 42.2446 51.6298 42.1252 51.5821C42.0297 51.5343 41.9103 51.5104 41.8148 51.4388C41.7193 51.3672 41.6237 51.2955 41.5521 51.2478C41.4566 51.1761 41.3372 51.1761 41.2417 51.1045C41.1461 51.0328 41.0984 50.9134 41.0267 50.8418C40.9312 50.7701 40.8596 50.6746 40.7879 50.603C40.7163 50.5313 40.6446 50.4358 40.573 50.3403C40.5014 50.2686 40.4297 50.1731 40.3342 50.1015C40.2626 50.006 40.1909 49.9343 40.1193 49.8388C40.0476 49.7433 39.9043 49.7194 39.8327 49.6239C39.7611 49.5283 39.7849 49.3851 39.7372 49.2895C39.6655 49.194 39.6178 49.0985 39.57 49.003C39.5223 48.9074 39.379 48.8597 39.3073 48.7642C39.2596 48.6686 39.3073 48.5254 39.2596 48.406C39.2118 48.3104 39.0685 48.2388 39.0208 48.1433C38.973 48.0478 39.0208 47.9045 38.973 47.7851C38.9491 47.6895 38.8536 47.594 38.8297 47.4746C38.8058 47.3552 38.8536 47.2358 38.8297 47.1164C38.8058 46.997 38.7581 46.9015 38.7581 46.7821C38.7342 46.6627 38.6864 46.5672 38.6864 46.4477C38.6864 46.3283 38.6626 46.2328 38.6626 46.1134C38.6626 45.994 38.6387 45.8985 38.6387 45.7791C38.6387 45.6597 38.7342 45.5642 38.7581 45.4448C38.7581 45.3254 38.6626 45.206 38.6626 45.1104C38.6626 44.991 38.7581 44.8955 38.782 44.7761C38.8058 44.6567 38.782 44.5373 38.8058 44.4418C38.8297 44.3224 38.8536 44.2269 38.8775 44.1074C38.9014 43.988 38.9969 43.8925 39.0208 43.797C39.0446 43.6776 39.1163 43.5821 39.164 43.4866C39.2118 43.391 39.2357 43.2716 39.2834 43.1761C39.3312 43.0806 39.3312 42.9373 39.379 42.8418C39.4267 42.7463 39.4745 42.6507 39.5461 42.5313C39.5939 42.4358 39.6894 42.3642 39.7611 42.2686C39.8327 42.1731 39.7849 42.0298 39.8566 41.9343C39.9282 41.8388 39.9999 41.7672 40.0715 41.6716C40.1431 41.5761 40.2387 41.5045 40.3103 41.4328C40.382 41.3373 40.5252 41.3134 40.5969 41.2418C40.6685 41.1701 40.6685 41.003 40.764 40.9075C40.8357 40.8358 40.979 40.8119 41.0745 40.7403C41.17 40.6686 41.2178 40.5731 41.3133 40.5015C41.4088 40.4298 41.4805 40.3343 41.576 40.2866C41.6715 40.2149 41.767 40.1672 41.8626 40.0955C41.9581 40.0239 42.0775 40.0239 42.173 39.9522C42.2685 39.9045 42.3879 39.8806 42.4834 39.8328C42.579 39.7851 42.6984 39.7612 42.7939 39.7134C42.8894 39.6657 42.9611 39.5224 43.0805 39.4985C43.176 39.4507 43.2954 39.4507 43.4148 39.4269C43.5103 39.403 43.6536 39.4269 43.7491 39.3791C43.8685 39.3552 43.9402 39.2358 44.0596 39.2119C44.179 39.188 44.2984 39.2597 44.4178 39.2597C44.5372 39.2358 44.6327 39.188 44.7521 39.188C44.8715 39.188 44.967 39.2119 45.0864 39.188C45.1581 39.2358 45.2536 39.1642 45.373 39.1642Z" fill="white"/>
<path d="M51.8446 47.5702C51.8208 47.6657 51.7252 47.7851 51.7014 47.8806C51.6775 47.9761 51.7252 48.1194 51.6775 48.2149C51.6297 48.3105 51.6058 48.4299 51.5581 48.5254C51.5103 48.6209 51.4864 48.7403 51.4387 48.8358C51.3909 48.9313 51.3193 49.0269 51.2476 49.1224C51.1999 49.2179 51.1521 49.3134 51.1043 49.409C51.0566 49.5045 50.9133 49.5284 50.8417 49.6239C50.77 49.7194 50.7461 49.8149 50.6745 49.9105C50.6028 50.006 50.579 50.1254 50.5073 50.197C50.4357 50.2687 50.3163 50.3164 50.2446 50.3881C50.173 50.4597 50.1252 50.5791 50.0536 50.6508C49.982 50.7224 49.9103 50.8179 49.8148 50.8896C49.7432 50.9612 49.6476 51.0328 49.5521 51.1045C49.4566 51.1761 49.3849 51.2239 49.2894 51.2955C49.1939 51.3672 49.0745 51.391 49.0028 51.4388C48.9073 51.4866 48.8357 51.5821 48.7402 51.6299C48.6446 51.6776 48.5252 51.7015 48.4297 51.7493C48.3342 51.797 48.2626 51.9403 48.167 51.9642C48.0715 52.0119 47.9282 51.9881 47.8327 52.0119C47.7372 52.0597 47.6417 52.1313 47.5461 52.1791C47.4506 52.203 47.3312 52.2508 47.2357 52.2985C47.1402 52.3224 47.0208 52.2985 46.9014 52.3224C46.8058 52.3463 46.7103 52.4418 46.5909 52.4657C46.4715 52.4896 46.3521 52.394 46.2566 52.4179C46.1372 52.4418 46.0417 52.4418 45.9223 52.4418C45.8029 52.4418 45.7073 52.5612 45.6118 52.5612C45.4924 52.5612 45.3969 52.4418 45.2775 52.4418C45.1581 52.4418 45.0626 52.4418 44.9431 52.4418C44.8237 52.4418 44.7282 52.4896 44.6088 52.4657C44.4894 52.4418 44.37 52.5134 44.2745 52.4896C44.1551 52.4657 44.0834 52.3463 43.964 52.3224C43.8685 52.2985 43.7252 52.3463 43.6297 52.3224C43.5342 52.2985 43.4387 52.1791 43.3431 52.1552C43.2476 52.1313 43.1282 52.1075 43.0327 52.0597C42.9372 52.0119 42.8178 52.0119 42.7223 51.9642C42.6267 51.9164 42.5312 51.8687 42.4118 51.8209C42.3163 51.7731 42.1969 51.7493 42.1014 51.6776C42.0058 51.6299 41.9103 51.5821 41.8148 51.5343C41.7193 51.4866 41.6237 51.4388 41.5282 51.3672C41.4327 51.2955 41.4088 51.1522 41.3133 51.1045C41.2178 51.0328 41.17 50.9373 41.0745 50.8657C41.0029 50.794 40.8834 50.7463 40.8118 50.6746C40.7402 50.603 40.6446 50.5313 40.573 50.4358C40.5014 50.3642 40.4058 50.2925 40.3342 50.2209C40.2626 50.1493 40.167 50.0776 40.0954 49.9821C40.0237 49.8866 39.9999 49.7911 39.9282 49.6955C39.8566 49.6 39.8327 49.4806 39.7849 49.409C39.7372 49.3134 39.6178 49.2657 39.57 49.1702C39.5223 49.0746 39.5223 48.9552 39.4745 48.8597C39.4267 48.7642 39.379 48.6687 39.3312 48.5731C39.2834 48.4776 39.1879 48.406 39.1402 48.2866C39.0924 48.191 39.1163 48.0716 39.0924 47.9522C39.0685 47.8567 39.0208 47.7373 38.9969 47.6418C38.973 47.5463 38.8775 47.4508 38.8536 47.3313C38.8297 47.2358 38.7581 47.1164 38.7342 47.0209C38.7103 46.9015 38.8058 46.7821 38.782 46.6866C38.7581 46.5672 38.7342 46.4716 38.7342 46.3522C38.7342 46.2328 38.7581 46.1373 38.7581 46.0179C38.7581 45.8985 38.6387 45.803 38.6387 45.6836C38.6387 45.5642 38.6387 45.4687 38.6387 45.3493C38.6387 45.2299 38.6864 45.1343 38.7103 45.0149C38.7342 44.8955 38.782 44.8 38.8058 44.7045C38.8297 44.5851 38.8775 44.4896 38.9014 44.394C38.9252 44.2985 38.9014 44.203 38.9252 44.0836C39.0924 44.0836 39.1163 44.0358 39.2834 44.0836C39.4506 44.1314 39.4267 44.2269 39.5939 44.2746C39.7611 44.3224 39.7611 44.2985 39.9282 44.3463C40.0954 44.394 40.0954 44.4179 40.2626 44.4418C40.4297 44.4896 40.4536 44.4418 40.6208 44.4896C40.7879 44.5373 40.7879 44.5612 40.9551 44.609C41.1223 44.6567 41.1223 44.6806 41.2894 44.7284C41.4566 44.7761 41.4566 44.7522 41.6476 44.8C41.8148 44.8478 41.8387 44.8 42.0058 44.8478C42.173 44.8955 42.173 44.8955 42.3402 44.9194C42.5073 44.9672 42.5073 44.9911 42.6745 45.0388C42.8417 45.0866 42.8417 45.0866 43.0088 45.1343C43.176 45.1821 43.1999 45.1343 43.367 45.1821C43.5342 45.2299 43.5342 45.2776 43.7014 45.3254C43.8685 45.3731 43.8685 45.3731 44.0357 45.397C44.2028 45.4448 44.2029 45.4925 44.37 45.5164C44.5372 45.5642 44.5372 45.5403 44.7282 45.5881C44.8954 45.6358 44.8954 45.6358 45.0626 45.6836C45.2297 45.7314 45.2536 45.6836 45.4208 45.7313C45.5879 45.7791 45.564 45.8746 45.7312 45.9224C45.8984 45.9702 45.8984 45.9463 46.0655 45.994C46.2327 46.0418 46.2566 45.9702 46.4237 46.0179C46.5909 46.0657 46.567 46.1612 46.7342 46.209C46.9014 46.2567 46.9252 46.209 47.0924 46.2567C47.2596 46.3045 47.2596 46.3045 47.4267 46.3522C47.5939 46.4 47.6178 46.3522 47.7849 46.4C47.9521 46.4478 47.9282 46.5433 48.0954 46.5911C48.2626 46.6388 48.2864 46.5672 48.4536 46.6149C48.6208 46.6627 48.6208 46.6866 48.7879 46.7343C48.9551 46.7821 48.9551 46.7582 49.1223 46.806C49.2894 46.8537 49.2894 46.9015 49.4566 46.9493C49.6237 46.997 49.6237 46.9731 49.7909 47.0209C49.9581 47.0687 49.9581 47.0925 50.1252 47.1403C50.2924 47.1881 50.2924 47.1642 50.4596 47.2119C50.6267 47.2597 50.6506 47.1642 50.8178 47.2119C50.9849 47.2597 50.9849 47.2836 51.1521 47.3313C51.3193 47.3791 51.3193 47.4269 51.4864 47.4508C51.6775 47.4985 51.7014 47.4746 51.8446 47.5702Z" fill="#0F1117"/>
<path d="M45.3726 25.7433C45.492 25.7433 45.5875 25.8388 45.7069 25.8388C45.8263 25.8388 45.9457 25.7672 46.0412 25.791C46.1606 25.791 46.2561 25.8627 46.3755 25.8866C46.4949 25.9104 46.5905 25.9582 46.7099 25.9821C46.8293 26.006 46.9248 26.006 47.0442 26.0299C47.1636 26.0537 47.2591 26.1015 47.3546 26.1493C47.4741 26.1731 47.5935 26.1493 47.7129 26.1731C47.8084 26.2209 47.9039 26.2925 48.0233 26.3164C48.1188 26.3642 48.2144 26.4597 48.3099 26.5075C48.4054 26.5552 48.5248 26.5791 48.6203 26.6269C48.7158 26.6746 48.8114 26.7463 48.9069 26.8179C49.0024 26.8896 49.1218 26.9134 49.2173 26.9612C49.3129 27.0328 49.4084 27.0806 49.5039 27.1522C49.5994 27.2239 49.6472 27.3433 49.7188 27.4149C49.8144 27.4866 49.9099 27.5343 49.9815 27.6299C50.0532 27.7015 50.1726 27.7493 50.2442 27.8448C50.3158 27.9164 50.4114 28.0119 50.483 28.0836C50.5546 28.1791 50.6263 28.2746 50.6979 28.3463C50.7696 28.4418 50.8173 28.5373 50.889 28.6328C50.9606 28.7284 51.0084 28.8239 51.08 28.9194C51.1517 29.0149 51.1517 29.1343 51.1994 29.2299C51.2472 29.3254 51.3188 29.4209 51.3666 29.5164C51.4144 29.6119 51.5576 29.6836 51.6054 29.7791C51.6532 29.8746 51.677 29.994 51.7248 30.1134C51.7726 30.209 51.8203 30.3284 51.8681 30.4239C51.892 30.5194 51.9158 30.6388 51.9636 30.7582C51.9875 30.8776 51.9875 30.997 52.0114 31.0925C52.0352 31.2119 52.0591 31.3075 52.083 31.4269C52.1069 31.5463 52.0591 31.6657 52.083 31.7612C52.083 31.8806 52.083 31.9761 52.083 32.0955C52.083 32.2149 52.1308 32.3105 52.1308 32.4299C52.1308 32.5493 52.1069 32.6448 52.083 32.7642C52.083 32.8836 52.1308 33.003 52.1308 33.0985C52.1308 33.2179 52.0352 33.3134 52.0114 33.4328C51.9875 33.5522 51.9875 33.6478 51.9636 33.7672C51.9397 33.8866 51.892 33.9821 51.8681 34.0776C51.8442 34.197 51.8681 34.3164 51.8203 34.4119C51.7964 34.5313 51.7964 34.6507 51.7726 34.7463C51.7248 34.8418 51.677 34.9612 51.6532 35.0567C51.6054 35.1522 51.4621 35.2239 51.4144 35.3194C51.3666 35.4149 51.4144 35.5821 51.3666 35.6776C51.3188 35.7731 51.2472 35.8687 51.1755 35.9642C51.1039 36.0597 50.9606 36.1075 50.9129 36.203C50.8412 36.2985 50.8651 36.4657 50.7935 36.5373C50.7218 36.6328 50.5785 36.6567 50.5069 36.7522C50.4352 36.8478 50.4352 36.991 50.3397 37.0627C50.2681 37.1343 50.1487 37.1821 50.0532 37.2537C49.9815 37.3254 49.8621 37.3731 49.7666 37.4448C49.6711 37.5164 49.6233 37.6358 49.5517 37.7075C49.4561 37.7791 49.3845 37.8746 49.289 37.9463C49.1935 38.0179 49.0741 38.0418 48.9785 38.0896C48.883 38.1612 48.7875 38.2328 48.692 38.2806C48.5964 38.3284 48.477 38.3761 48.3815 38.4239C48.286 38.4716 48.1666 38.4955 48.0711 38.5433C47.9755 38.591 47.8323 38.5672 47.7367 38.6149C47.6412 38.6627 47.5457 38.7105 47.4263 38.7582C47.3308 38.7821 47.2352 38.9254 47.1397 38.9493C47.0203 38.9731 46.9009 38.9015 46.7815 38.9254C46.6621 38.9493 46.5666 39.0209 46.4711 39.0448C46.3517 39.0687 46.2561 39.1164 46.1367 39.1403C46.0173 39.1403 45.8979 39.0925 45.8024 39.0925C45.683 39.0925 45.5875 39.1642 45.4681 39.1642C45.3487 39.1642 45.2532 39.0687 45.1338 39.0687C45.0144 39.0687 44.9188 39.0448 44.7994 39.0448C44.68 39.0448 44.5606 39.0687 44.4651 39.0448C44.3457 39.0209 44.2263 39.0448 44.1308 39.0209C44.0114 38.997 43.9158 38.9493 43.7964 38.9015C43.677 38.8776 43.5576 38.8776 43.4621 38.8537C43.3427 38.8299 43.2472 38.7582 43.1517 38.7105C43.0561 38.6627 42.9367 38.6388 42.8173 38.6149C42.7218 38.5672 42.6024 38.5194 42.5069 38.4716C42.4114 38.4239 42.3397 38.3045 42.2442 38.2567C42.1487 38.209 42.0293 38.1612 41.9338 38.1134C41.8382 38.0418 41.7188 38.0179 41.6233 37.9463C41.5278 37.8746 41.48 37.7552 41.4084 37.6836C41.3129 37.6119 41.2173 37.5642 41.1218 37.4925C41.0263 37.4209 40.9308 37.3731 40.8352 37.3015C40.7636 37.2299 40.6681 37.1343 40.5964 37.0627C40.5248 36.991 40.4532 36.8955 40.3815 36.8C40.3099 36.7045 40.2382 36.609 40.1666 36.5373C40.0949 36.4418 40.0472 36.3463 39.9755 36.2507C39.9039 36.1552 39.8084 36.0836 39.7606 35.9881C39.689 35.8925 39.689 35.7731 39.6412 35.6776C39.5935 35.5821 39.4741 35.5105 39.4263 35.4149C39.3785 35.3194 39.3308 35.2 39.283 35.1045C39.2352 35.009 39.2114 34.8896 39.1636 34.794C39.1158 34.6985 39.1158 34.5791 39.0681 34.4597C39.0442 34.3642 38.9487 34.2687 38.9248 34.1493C38.9009 34.0299 38.9248 33.9105 38.9009 33.8149C38.877 33.6955 38.8054 33.6 38.7815 33.4806C38.7576 33.3612 38.8532 33.2418 38.8293 33.1224C38.8293 33.003 38.686 32.9075 38.686 32.7881C38.686 32.6687 38.6621 32.5493 38.6621 32.4537C38.6621 32.3343 38.7099 32.2149 38.7338 32.1194C38.7338 32 38.686 31.8806 38.7099 31.7851C38.7099 31.6657 38.7338 31.5463 38.7576 31.4507C38.7815 31.3313 38.877 31.2358 38.9009 31.1403C38.9248 31.0209 38.9248 30.9254 38.9487 30.806C38.9726 30.6866 39.0442 30.591 39.092 30.4955C39.1158 30.3761 39.1636 30.2806 39.1875 30.1851C39.2352 30.0896 39.283 29.9702 39.3308 29.8746C39.3785 29.7791 39.3785 29.6358 39.4263 29.5403C39.4741 29.4448 39.5218 29.3254 39.5696 29.2299C39.6173 29.1343 39.7129 29.0388 39.7606 28.9433C39.8323 28.8478 39.8323 28.7045 39.9039 28.6328C39.9755 28.5373 40.0949 28.4896 40.1666 28.394C40.2382 28.2985 40.286 28.203 40.3576 28.1313C40.4293 28.0358 40.5248 27.9642 40.5964 27.8925C40.6681 27.8209 40.7636 27.7254 40.8352 27.6537C40.9069 27.5821 40.9785 27.4627 41.0502 27.391C41.1457 27.3194 41.2173 27.2239 41.3129 27.1761C41.4084 27.1045 41.5278 27.0806 41.5994 27.009C41.6949 26.9373 41.7666 26.8418 41.8621 26.794C41.9576 26.7224 42.077 26.7224 42.1726 26.6746C42.2681 26.6269 42.3636 26.5552 42.4591 26.5075C42.5546 26.4597 42.6502 26.3642 42.7457 26.3164C42.8412 26.2687 42.9606 26.2687 43.08 26.2209C43.1755 26.1731 43.2949 26.1493 43.3905 26.1254C43.486 26.1015 43.6054 26.0776 43.7248 26.0537C43.8442 26.0299 43.9158 25.9104 44.0352 25.8866C44.1546 25.8627 44.2741 25.8866 44.3696 25.8866C44.489 25.8627 44.5845 25.8149 44.7039 25.8149C44.8233 25.8149 44.9427 25.8627 45.0382 25.8627C45.1576 25.8149 45.2532 25.7433 45.3726 25.7433Z" fill="white"/>
<path d="M52.0601 32.4537C52.0601 32.5731 52.0362 32.7164 52.0362 32.8358C52.0362 32.9552 52.0123 33.0746 52.0123 33.194C51.9884 33.3134 52.0123 33.4328 51.9884 33.5522C51.9645 33.6716 51.9407 33.791 51.9168 33.8866C51.8929 34.006 51.869 34.1015 51.8213 34.2209C51.7974 34.3403 51.7974 34.4597 51.7735 34.5791C51.7257 34.6985 51.7019 34.8179 51.678 34.9134C51.6302 35.0328 51.5347 35.1045 51.4869 35.2239C51.4392 35.3194 51.3914 35.4388 51.3436 35.5343C51.2959 35.6298 51.1765 35.7015 51.1048 35.797C51.0571 35.8925 51.0332 36.0119 50.9616 36.1075C50.8899 36.203 50.8899 36.3463 50.8183 36.4418C50.7466 36.5373 50.675 36.6328 50.6033 36.7045C50.5317 36.8 50.4123 36.8478 50.3407 36.9433C50.269 37.0388 50.1257 37.0627 50.0541 37.1582C49.9825 37.2298 49.9347 37.3731 49.863 37.4686C49.7675 37.5403 49.6959 37.6358 49.6004 37.7075C49.5048 37.7791 49.4093 37.8269 49.3138 37.8985C49.2183 37.9701 49.0989 37.994 49.0033 38.0657C48.9078 38.1373 48.8362 38.2328 48.7407 38.3045C48.6451 38.3522 48.5019 38.3522 48.4063 38.4C48.3108 38.4478 48.2392 38.5672 48.1198 38.6149C48.0242 38.6627 47.881 38.6388 47.7616 38.6627C47.6422 38.7104 47.5466 38.7821 47.4511 38.806C47.3317 38.8537 47.2362 38.9015 47.1168 38.9254C46.9974 38.9492 46.878 38.9731 46.7824 38.997C46.663 39.0209 46.5436 39.0209 46.4242 39.0448C46.3048 39.0686 46.1854 39.0925 46.0899 39.0925C45.9705 39.1164 45.8511 39.1881 45.7556 39.1881C45.6362 39.1881 45.5168 39.1881 45.3974 39.1881C45.278 39.1881 45.1586 39.0925 45.0392 39.0687C44.9198 39.0687 44.8004 39.1642 44.681 39.1642C44.5616 39.1403 44.466 39.0448 44.3466 39.0448C44.2272 39.0209 44.1078 39.0209 43.9884 38.997C43.869 38.9731 43.7735 38.9492 43.6541 38.9015C43.5347 38.8776 43.4392 38.806 43.3198 38.7821C43.2004 38.7343 43.1048 38.7104 42.9854 38.6866C42.866 38.6388 42.7705 38.591 42.675 38.5433C42.5795 38.4955 42.4362 38.5194 42.3168 38.4716C42.2213 38.4239 42.1019 38.3761 42.0063 38.3045C41.9108 38.2567 41.863 38.1134 41.7675 38.0418C41.672 37.9701 41.5526 37.9463 41.4571 37.8746C41.3616 37.803 41.2899 37.7075 41.1944 37.6358C41.0989 37.5642 40.9556 37.5642 40.8601 37.4686C40.7645 37.397 40.7168 37.2776 40.6451 37.1821C40.5735 37.1104 40.478 37.0149 40.4063 36.9194C40.3347 36.8239 40.2153 36.7761 40.1436 36.6806C40.072 36.5851 40.072 36.4418 40.0004 36.3463C39.9287 36.2507 39.8332 36.1791 39.7616 36.0836C39.6899 35.9881 39.5944 35.9164 39.5466 35.797C39.4989 35.7015 39.4511 35.5821 39.4033 35.4627C39.3556 35.3672 39.3795 35.2239 39.3317 35.1045C39.2839 35.0089 39.1645 34.9134 39.1168 34.8179C39.069 34.6985 39.1168 34.5791 39.069 34.4597C39.0213 34.3403 38.9974 34.2448 38.9735 34.1254C38.9496 34.006 38.878 33.9104 38.8541 33.791C38.8302 33.6716 38.7586 33.5761 38.7347 33.4567C38.7108 33.3373 38.6869 33.2179 38.663 33.0985C38.6392 32.9791 38.7347 32.8597 38.7108 32.7403C38.7108 32.6209 38.663 32.4776 38.663 32.3582C38.8302 32.3104 38.8541 32.3821 39.0213 32.3821C39.1884 32.3821 39.1884 32.3582 39.3795 32.3582C39.5466 32.3582 39.5466 32.3821 39.7377 32.3821C39.9048 32.3821 39.9048 32.3343 40.0959 32.3343C40.263 32.3343 40.263 32.406 40.4541 32.406C40.6213 32.406 40.6213 32.3104 40.8123 32.3104C40.9795 32.3104 40.9795 32.4298 41.1705 32.4298C41.3377 32.4298 41.3377 32.3582 41.5287 32.3582C41.6959 32.3582 41.6959 32.406 41.8869 32.406C42.0541 32.406 42.0541 32.4298 42.2451 32.4298C42.4362 32.4298 42.4123 32.406 42.6033 32.406C42.7705 32.406 42.7705 32.406 42.9616 32.406C43.1287 32.406 43.1287 32.3104 43.3198 32.3104C43.4869 32.3104 43.4869 32.3104 43.678 32.3104C43.8451 32.3104 43.8451 32.3104 44.0362 32.3104C44.2033 32.3104 44.2033 32.3582 44.3944 32.3582C44.5616 32.3582 44.5616 32.406 44.7526 32.406C44.9198 32.406 44.9198 32.2866 45.1108 32.2866C45.278 32.2866 45.278 32.3104 45.469 32.3104C45.6362 32.3104 45.6362 32.2866 45.8272 32.2866C45.9944 32.2866 45.9944 32.406 46.1854 32.406C46.3526 32.406 46.3526 32.3821 46.5436 32.3821C46.7108 32.3821 46.7108 32.3343 46.9019 32.3343C47.069 32.3343 47.069 32.3821 47.2601 32.3821C47.4272 32.3821 47.4272 32.2627 47.6183 32.2627C47.7854 32.2627 47.7854 32.3582 47.9765 32.3582C48.1436 32.3582 48.1436 32.3582 48.3347 32.3582C48.5019 32.3582 48.5019 32.2866 48.6929 32.2866C48.8601 32.2866 48.8601 32.3582 49.0511 32.3582C49.2421 32.3582 49.2183 32.3104 49.4093 32.3104C49.5765 32.3104 49.5765 32.2866 49.7675 32.2866C49.9347 32.2866 49.9347 32.3343 50.1257 32.3343C50.2929 32.3343 50.2929 32.3582 50.4839 32.3582C50.6511 32.3582 50.6511 32.2866 50.8421 32.2866C51.0093 32.2866 51.0093 32.3343 51.2004 32.3343C51.3675 32.3343 51.3675 32.3343 51.5586 32.3343C51.7257 32.3343 51.7496 32.3821 51.9168 32.3582C51.8929 32.4776 51.8929 32.3821 52.0601 32.4537Z" fill="#0F1117"/>
<path d="M45.3724 12.3463C45.4918 12.3463 45.6112 12.394 45.7067 12.394C45.8261 12.394 45.9216 12.4418 46.041 12.4657C46.1604 12.4657 46.256 12.4657 46.3754 12.4895C46.4948 12.5134 46.5903 12.5373 46.7097 12.5612C46.8291 12.5851 46.9246 12.5851 47.044 12.6328C47.1634 12.6567 47.2351 12.7522 47.3545 12.7761C47.4739 12.8 47.5694 12.8477 47.6649 12.8955C47.7604 12.9433 47.9037 12.9194 47.9992 12.9671C48.0948 13.0149 48.1664 13.1343 48.2858 13.1821C48.3813 13.2298 48.5246 13.2298 48.6201 13.2776C48.7157 13.3254 48.8351 13.3492 48.9306 13.4209C49.0261 13.4925 49.1216 13.5642 49.1933 13.6358C49.2888 13.7074 49.3604 13.803 49.4321 13.8746C49.5276 13.9463 49.647 13.9701 49.7425 14.0418C49.838 14.1134 49.9097 14.2089 49.9813 14.2806C50.053 14.3522 50.1485 14.4239 50.2201 14.5194C50.2918 14.591 50.3157 14.7343 50.3873 14.806C50.4589 14.9015 50.5545 14.9492 50.6261 15.0448C50.6978 15.1403 50.7694 15.2119 50.841 15.3074C50.9127 15.403 50.9604 15.4985 51.0082 15.594C51.0798 15.6895 51.056 15.8089 51.1276 15.9283C51.1754 16.0239 51.3425 16.0716 51.3903 16.1671C51.438 16.2627 51.4142 16.406 51.4619 16.5015C51.5097 16.597 51.5813 16.6925 51.6052 16.8119C51.653 16.9074 51.6052 17.0507 51.653 17.1463C51.6769 17.2418 51.8201 17.3373 51.844 17.4328C51.8679 17.5522 51.9157 17.6477 51.9395 17.7671C51.9634 17.8866 51.8918 18.006 51.9157 18.1254C51.9395 18.2448 51.9634 18.3403 51.9634 18.4597C51.9634 18.5791 51.9873 18.6746 51.9873 18.794C51.9873 18.9134 51.9395 19.0089 51.9395 19.1283C51.9395 19.2477 52.0112 19.3433 51.9873 19.4627C51.9873 19.5821 51.9157 19.6776 51.9157 19.797C51.9157 19.9164 51.9634 20.0358 51.9395 20.1313C51.9157 20.2507 51.8679 20.3463 51.8679 20.4657C51.844 20.5851 51.8201 20.6806 51.7963 20.8C51.7724 20.9194 51.6769 20.991 51.653 21.1104C51.6291 21.2298 51.6052 21.3254 51.5575 21.4448C51.5097 21.5403 51.5336 21.6836 51.4858 21.7791C51.4381 21.8746 51.3903 21.994 51.3425 22.0895C51.2948 22.1851 51.1754 22.2567 51.1276 22.3522C51.0798 22.4477 51.0798 22.591 51.0321 22.6866C50.9604 22.7821 50.8649 22.8298 50.7933 22.9254C50.7216 23.0209 50.6978 23.1403 50.6261 23.2358C50.5545 23.3313 50.4351 23.3791 50.3634 23.4507C50.2918 23.5463 50.1963 23.594 50.1246 23.6895C50.053 23.7612 49.9813 23.8567 49.9097 23.9522C49.838 24.0239 49.7425 24.0955 49.647 24.1671C49.5515 24.2388 49.4798 24.3343 49.4082 24.406C49.3127 24.4776 49.2172 24.5254 49.1216 24.597C49.0261 24.6686 48.9545 24.7642 48.8589 24.8358C48.7634 24.9074 48.6679 24.9313 48.5485 25.003C48.453 25.0507 48.3336 25.0746 48.238 25.1224C48.1425 25.1701 48.047 25.2179 47.9276 25.2657C47.8321 25.3134 47.7366 25.4089 47.641 25.4567C47.5455 25.5045 47.45 25.5761 47.3306 25.6239C47.2351 25.6477 47.0918 25.6 46.9724 25.6239C46.853 25.6477 46.7574 25.7194 46.6619 25.7433C46.5425 25.7671 46.4231 25.6955 46.3037 25.7194C46.1843 25.7433 46.0888 25.8149 45.9694 25.8388C45.85 25.8388 45.7306 25.8149 45.6351 25.8149C45.5157 25.8149 45.4201 25.9104 45.3007 25.9104C45.1813 25.9104 45.0858 25.8149 44.9664 25.8149C44.847 25.8149 44.7515 25.8149 44.6321 25.791C44.5127 25.791 44.3933 25.791 44.2977 25.7671C44.1783 25.7433 44.0828 25.7194 43.9634 25.6955C43.844 25.6716 43.7485 25.6716 43.6291 25.6239C43.5097 25.6 43.4142 25.5761 43.2948 25.5522C43.1754 25.5283 43.0798 25.5045 42.9604 25.4806C42.8649 25.4328 42.7455 25.4089 42.6261 25.3851C42.5306 25.3373 42.4351 25.2418 42.3395 25.194C42.244 25.1463 42.1246 25.1224 42.0291 25.0507C41.9336 25.003 41.8619 24.9074 41.7664 24.8358C41.6709 24.7642 41.5992 24.6686 41.5037 24.6209C41.4082 24.5492 41.2649 24.5492 41.1933 24.4776C41.0977 24.406 41.0261 24.3343 40.9306 24.2627C40.8351 24.191 40.8112 24.0716 40.7395 23.9761C40.6679 23.9045 40.5485 23.8567 40.4769 23.7612C40.4052 23.6895 40.3097 23.6179 40.238 23.5224C40.1664 23.4268 40.0948 23.3552 40.0231 23.2597C39.9515 23.1642 39.8321 23.1164 39.7843 23.0209C39.7127 22.9254 39.6649 22.8298 39.5933 22.7343C39.5216 22.6388 39.5216 22.5194 39.45 22.4239C39.4022 22.3283 39.3545 22.2328 39.2828 22.1134C39.2351 22.0179 39.1873 21.8985 39.1395 21.803C39.0918 21.7074 39.044 21.6119 38.9963 21.4925C38.9485 21.397 38.9246 21.2776 38.9007 21.1582C38.8769 21.0627 38.9007 20.9194 38.8769 20.8239C38.853 20.7045 38.7336 20.6328 38.7097 20.5134C38.6858 20.394 38.7097 20.2746 38.6858 20.1791C38.6619 20.0597 38.638 19.9642 38.6142 19.8448C38.6142 19.7254 38.5664 19.6298 38.5664 19.5104C38.5664 19.391 38.6142 19.2716 38.6142 19.1761C38.6142 19.0567 38.638 18.9612 38.638 18.8418C38.638 18.7224 38.5664 18.603 38.5664 18.5074C38.5664 18.388 38.6858 18.2925 38.7097 18.1731C38.7336 18.0537 38.6619 17.9343 38.6858 17.8149C38.7097 17.6955 38.7336 17.6 38.7575 17.4806C38.7813 17.3612 38.853 17.2657 38.8769 17.1701C38.9007 17.0507 38.9963 16.9791 39.044 16.8597C39.0918 16.7642 39.1395 16.6448 39.1634 16.5492C39.2112 16.4537 39.1873 16.3104 39.2351 16.2149C39.2828 16.1194 39.4261 16.0477 39.4739 15.9522C39.5216 15.8567 39.5455 15.7373 39.5933 15.6418C39.6649 15.5463 39.6888 15.4268 39.7604 15.3313C39.8321 15.2358 39.9037 15.1642 39.9754 15.0686C40.047 14.9731 40.1186 14.8776 40.1903 14.806C40.2619 14.7104 40.4052 14.6866 40.4769 14.6149C40.5485 14.5433 40.5724 14.3761 40.644 14.3045C40.7157 14.2328 40.8589 14.1851 40.9306 14.1134C41.0261 14.0418 41.0739 13.9224 41.1455 13.8507C41.241 13.7791 41.3604 13.7552 41.456 13.6836C41.5515 13.6119 41.6948 13.6358 41.7903 13.5642C41.8858 13.4925 41.9336 13.3492 42.0291 13.3015C42.1246 13.2537 42.244 13.206 42.3395 13.1582C42.4351 13.1104 42.5545 13.0627 42.65 13.0149C42.7455 12.9671 42.841 12.9194 42.9604 12.8716C43.056 12.8239 43.1754 12.7761 43.2709 12.7283C43.3664 12.7045 43.5097 12.7761 43.6291 12.7522C43.7485 12.7283 43.844 12.6806 43.9634 12.6567C44.0828 12.6328 44.1783 12.5373 44.2739 12.5134C44.3933 12.4895 44.5127 12.5851 44.6321 12.5851C44.7515 12.5851 44.847 12.5373 44.9664 12.5373C45.1575 12.4418 45.253 12.3463 45.3724 12.3463Z" fill="white"/>
<path d="M51.8207 20.8239C51.7968 20.9433 51.7252 21.0388 51.7013 21.1582C51.6535 21.2776 51.7013 21.4209 51.6535 21.5164C51.6058 21.6358 51.558 21.7313 51.5103 21.8507C51.4625 21.9701 51.4147 22.0657 51.367 22.1851C51.3192 22.2806 51.152 22.3284 51.0804 22.4478C51.0088 22.5433 51.0565 22.7104 51.0088 22.8298C50.9371 22.9254 50.8416 22.997 50.77 23.0925C50.6983 23.1881 50.6028 23.2597 50.5312 23.3552C50.4595 23.4507 50.364 23.5224 50.2923 23.6179C50.2207 23.7134 50.1729 23.8328 50.0774 23.9284C49.9819 24 49.9341 24.1194 49.8386 24.191C49.7431 24.2627 49.5998 24.2866 49.5043 24.3582C49.4088 24.4298 49.361 24.5731 49.2655 24.6209C49.17 24.6925 49.0028 24.6687 48.9073 24.7164C48.8117 24.7881 48.7401 24.9075 48.6446 24.9791C48.5491 25.0269 48.4058 25.0507 48.3103 25.0985C48.2147 25.1463 48.1192 25.2418 47.9998 25.2895C47.8804 25.3373 47.7849 25.3851 47.6655 25.409C47.5461 25.4567 47.4506 25.5284 47.3311 25.5761C47.2117 25.6 47.0923 25.5761 46.9729 25.6C46.8535 25.6239 46.758 25.7194 46.6386 25.7433C46.5192 25.7672 46.3998 25.7672 46.2804 25.791C46.161 25.8149 46.0416 25.7433 45.9222 25.7433C45.8028 25.7433 45.6834 25.8149 45.564 25.8149C45.4446 25.8149 45.3252 25.8866 45.2058 25.8866C45.0864 25.8866 44.967 25.7672 44.8476 25.7433C44.7282 25.7433 44.6088 25.7672 44.4894 25.7433C44.37 25.7194 44.2506 25.6955 44.1312 25.6716C44.0117 25.6478 43.8685 25.7194 43.7491 25.6955C43.6297 25.6716 43.5341 25.5522 43.4147 25.5284C43.2953 25.5045 43.1759 25.4806 43.0804 25.4328C42.961 25.3851 42.8655 25.3373 42.7461 25.2895C42.6267 25.2418 42.5311 25.1701 42.4356 25.1224C42.3401 25.0746 42.2446 24.9791 42.1252 24.9313C42.0297 24.8836 41.8625 24.9075 41.767 24.8358C41.6714 24.7642 41.5998 24.6448 41.5043 24.5731C41.4088 24.5015 41.2655 24.5015 41.17 24.4298C41.0744 24.3582 41.0506 24.2149 40.955 24.1194C40.8595 24.0478 40.7879 23.9522 40.7162 23.8567C40.6207 23.7612 40.4774 23.7373 40.4058 23.6657C40.3341 23.5701 40.2147 23.4985 40.1431 23.4269C40.0715 23.3313 39.9998 23.2358 39.9282 23.1403C39.8565 23.0448 39.8804 22.8776 39.8088 22.7821C39.7371 22.6866 39.6655 22.591 39.6177 22.4955C39.5461 22.4 39.4506 22.3045 39.4028 22.209C39.355 22.1134 39.3073 21.994 39.2595 21.8746C39.2117 21.7552 39.164 21.6597 39.1162 21.5403C39.0685 21.4209 38.9729 21.3254 38.9491 21.2298C38.9013 21.1104 38.9491 20.991 38.9252 20.8716C38.9013 20.7522 38.8058 20.6567 38.7819 20.5373C38.758 20.4179 38.8058 20.2985 38.7819 20.1791C38.758 20.0597 38.7819 19.9403 38.7819 19.8209C38.7819 19.7015 38.7341 19.5821 38.7341 19.4627C38.7341 19.3433 38.7103 19.2239 38.7103 19.1045C38.7103 18.9851 38.6625 18.8657 38.6864 18.7463C38.6864 18.6269 38.8058 18.5075 38.8297 18.4119C38.8535 18.2925 38.8535 18.1731 38.8535 18.0537C38.8774 17.9343 38.8774 17.8149 38.9013 17.6955C38.9252 17.5761 38.9729 17.4567 38.9968 17.3612C39.0207 17.2418 38.9968 17.1224 39.0446 17.003C39.0923 16.8836 39.2117 16.8119 39.2595 16.6925C39.3073 16.5731 39.2595 16.4298 39.3073 16.3104C39.355 16.191 39.4267 16.0955 39.4744 16C39.5222 15.9045 39.5938 15.7851 39.6416 15.6895C39.7132 15.594 39.761 15.4746 39.8326 15.3791C39.9043 15.2836 39.9759 15.1881 40.0476 15.0925C40.1192 14.997 40.2386 14.9254 40.3103 14.8298C40.3819 14.7343 40.4535 14.6388 40.5491 14.5672C40.6207 14.4716 40.6923 14.3522 40.764 14.2806C40.8595 14.209 41.0028 14.209 41.0983 14.1134C41.1938 14.0418 41.2894 13.9701 41.3849 13.8985C41.4804 13.8269 41.5282 13.6836 41.6237 13.6119C41.7192 13.5403 41.8386 13.5164 41.958 13.4687C42.0535 13.397 42.1252 13.3015 42.2446 13.2537C42.3401 13.206 42.4595 13.1582 42.5789 13.1104C42.6983 13.0627 42.7938 13.0149 42.9132 12.9672C43.0326 12.9194 43.1282 12.8239 43.2237 12.8C43.3431 12.7522 43.4625 12.7522 43.5819 12.7284C43.7013 12.7045 43.8207 12.7045 43.9401 12.6806C44.0595 12.6567 44.1789 12.609 44.2983 12.5851C44.4177 12.5612 44.5371 12.5134 44.6565 12.5134C44.7759 12.4895 44.8953 12.4657 45.0147 12.4657C45.1341 12.4657 45.2535 12.5612 45.3729 12.5612C45.4923 12.5612 45.6117 12.5612 45.7312 12.5851C45.8506 12.5851 45.97 12.5851 46.0894 12.5851C46.2088 12.609 46.3282 12.5373 46.4476 12.5373C46.567 12.5612 46.6864 12.5851 46.8058 12.609C46.9252 12.6328 46.9968 12.7045 47.0923 12.7522C47.0923 12.9194 47.1401 12.9194 47.0923 13.1104C47.0446 13.2776 47.0207 13.2776 46.9968 13.4448C46.9491 13.6119 46.9252 13.6119 46.8774 13.7791C46.8297 13.9463 46.7819 13.9463 46.7341 14.1134C46.6864 14.2806 46.7103 14.2806 46.6864 14.4716C46.6386 14.6388 46.6386 14.6388 46.5909 14.806C46.5431 14.9731 46.5909 14.997 46.5431 15.1642C46.4953 15.3313 46.4714 15.3313 46.4237 15.4985C46.3759 15.6657 46.3282 15.6418 46.2804 15.8328C46.2326 16 46.3282 16.0239 46.3043 16.191C46.2565 16.3582 46.161 16.3343 46.1132 16.5015C46.0655 16.6687 46.1132 16.6925 46.0655 16.8597C46.0177 17.0269 46.0416 17.0269 45.9938 17.194C45.9461 17.3612 45.9938 17.3851 45.9461 17.5522C45.8983 17.7194 45.8744 17.7194 45.8267 17.8866C45.7789 18.0537 45.7312 18.0537 45.6834 18.2209C45.6356 18.3881 45.6117 18.3881 45.564 18.5552C45.5162 18.7224 45.564 18.7463 45.5162 18.9134C45.4685 19.0806 45.3252 19.1284 45.4207 19.2716C45.5162 19.4149 45.5879 19.3672 45.7789 19.391C45.9461 19.4388 45.97 19.3672 46.1371 19.4149C46.3043 19.4627 46.3043 19.4627 46.4715 19.5104C46.6386 19.5582 46.6386 19.5821 46.8058 19.6298C46.9729 19.6776 46.9968 19.606 47.164 19.6537C47.3312 19.7015 47.3311 19.6776 47.4983 19.7254C47.6655 19.7731 47.6416 19.8448 47.8088 19.8925C47.9759 19.9403 47.9998 19.8925 48.167 19.9403C48.3341 19.9881 48.3103 20.0358 48.5013 20.0836C48.6685 20.1313 48.6923 20.0597 48.8595 20.1075C49.0267 20.1552 49.0506 20.1075 49.2177 20.1552C49.3849 20.203 49.3849 20.2269 49.552 20.2746C49.7192 20.3224 49.7192 20.3701 49.8864 20.4179C50.0535 20.4657 50.0535 20.4418 50.2207 20.4895C50.3879 20.5373 50.3879 20.5373 50.555 20.5851C50.7222 20.6328 50.7222 20.609 50.9132 20.6567C51.0804 20.7045 51.0804 20.6806 51.2714 20.7284C51.4386 20.7761 51.4147 20.8478 51.6058 20.8716C51.6774 20.7761 51.6774 20.7284 51.8207 20.8239Z" fill="#0F1117"/>
<path d="M31.9996 25.7672C32.119 25.7672 32.2384 25.7672 32.3339 25.791C32.4533 25.791 32.5488 25.8149 32.6682 25.8388C32.7876 25.8388 32.8831 25.9343 33.0025 25.9582C33.1219 25.9821 33.2175 25.9582 33.3369 25.9821C33.4563 26.006 33.5757 25.9343 33.6951 25.9582C33.8145 25.9821 33.8861 26.0776 34.0055 26.1254C34.1249 26.1492 34.2443 26.1254 34.3637 26.1731C34.4593 26.2209 34.5787 26.2686 34.6742 26.3164C34.7697 26.3642 34.8891 26.4119 34.9846 26.4597C35.0802 26.5075 35.1757 26.5791 35.2712 26.6269C35.3667 26.6746 35.4384 26.7701 35.5339 26.8418C35.6294 26.9134 35.7249 26.9612 35.8205 27.0089C35.916 27.0806 36.0354 27.1045 36.1309 27.1761C36.2264 27.2478 36.2503 27.3672 36.3458 27.4627C36.4414 27.5343 36.5608 27.5582 36.6563 27.6298C36.7279 27.7015 36.7518 27.8448 36.8234 27.9403C36.8951 28.0119 37.0384 28.0597 37.11 28.1313C37.1817 28.2269 37.2533 28.2985 37.3249 28.394C37.3966 28.4895 37.4443 28.5851 37.516 28.6806C37.5876 28.7761 37.6593 28.8477 37.7309 28.9433C37.8025 29.0388 37.8025 29.1582 37.8503 29.2537C37.8981 29.3492 37.9697 29.4448 38.0175 29.5403C38.0652 29.6358 38.0891 29.7552 38.1369 29.8507C38.1846 29.9463 38.1846 30.0657 38.2324 30.1851C38.2802 30.2806 38.3518 30.3761 38.3996 30.4955C38.4234 30.591 38.4234 30.7104 38.4473 30.8298C38.4712 30.9492 38.5667 31.0448 38.5906 31.1403C38.6145 31.2597 38.6622 31.3552 38.6861 31.4746C38.71 31.594 38.5906 31.7134 38.6145 31.8328C38.6145 31.9522 38.7339 32.0477 38.7339 32.1672C38.7339 32.2866 38.6861 32.3821 38.6861 32.5015C38.6861 32.6209 38.6622 32.7164 38.6622 32.8358C38.6622 32.9552 38.6861 33.0746 38.6861 33.1701C38.6861 33.2895 38.7339 33.4089 38.71 33.5045C38.6861 33.6239 38.6145 33.7194 38.5906 33.8388C38.5667 33.9582 38.4951 34.0537 38.4712 34.1492C38.4473 34.2686 38.519 34.4119 38.4951 34.5075C38.4712 34.6269 38.3279 34.6985 38.2802 34.794C38.2324 34.8895 38.2324 35.0089 38.1846 35.1045C38.1369 35.2 38.0652 35.2955 38.0175 35.391C37.9697 35.4866 37.9936 35.6298 37.9458 35.7254C37.8981 35.8209 37.7548 35.8686 37.707 35.9642C37.6354 36.0597 37.6115 36.1791 37.5399 36.2746C37.4682 36.3701 37.4682 36.5134 37.3966 36.5851C37.3249 36.6806 37.2055 36.7283 37.1339 36.8C37.0622 36.8955 37.0145 36.991 36.919 37.0627C36.8473 37.1343 36.7518 37.206 36.6563 37.2776C36.5846 37.3492 36.4891 37.4209 36.3936 37.4925C36.2981 37.5642 36.2025 37.6119 36.107 37.6836C36.0115 37.7552 35.9399 37.8269 35.8443 37.8746C35.7488 37.9463 35.6533 37.994 35.5578 38.0418C35.4622 38.1134 35.3667 38.1612 35.2712 38.2328C35.1757 38.2806 35.104 38.3761 34.9846 38.4239C34.8891 38.4716 34.7936 38.5672 34.6981 38.6149C34.6025 38.6627 34.4831 38.7104 34.3876 38.7582C34.2921 38.806 34.1488 38.7821 34.0533 38.8298C33.9578 38.8537 33.8384 38.9492 33.7428 38.9731C33.6234 38.997 33.5279 38.997 33.4085 39.0209C33.2891 39.0448 33.1697 39.0209 33.0742 39.0448C32.9548 39.0686 32.8354 39.0448 32.7399 39.0448C32.6205 39.0448 32.5249 39.0925 32.4055 39.1164C32.2861 39.1164 32.1906 39.0686 32.0712 39.0686C31.9518 39.0686 31.8324 39.188 31.7369 39.1642C31.6175 39.1642 31.522 39.0209 31.4025 39.0209C31.2831 39.0209 31.1637 39.0925 31.0443 39.0925C30.9249 39.0686 30.8294 38.997 30.71 38.9731C30.5906 38.9492 30.4712 38.9731 30.3757 38.9492C30.2563 38.9254 30.1846 38.806 30.0652 38.7821C29.9458 38.7582 29.8503 38.7343 29.7309 38.6866C29.6354 38.6388 29.5399 38.591 29.4205 38.5433C29.3249 38.4955 29.2055 38.4478 29.11 38.4C29.0145 38.3522 28.8712 38.3522 28.7757 38.3045C28.6802 38.2567 28.5608 38.2089 28.4652 38.1373C28.3697 38.0657 28.3458 37.9224 28.2503 37.8507C28.1548 37.7791 28.0354 37.7552 27.9399 37.6836C27.8443 37.6119 27.7488 37.5642 27.6533 37.4925C27.5578 37.4209 27.4861 37.3254 27.4145 37.2537C27.3428 37.1821 27.2234 37.1343 27.1518 37.0388C27.0802 36.9672 27.0324 36.8477 26.9608 36.7522C26.8891 36.6567 26.7936 36.6089 26.7219 36.5134C26.6503 36.4179 26.6742 36.2746 26.6025 36.1791C26.5309 36.0836 26.4593 36.0119 26.3876 35.9164C26.316 35.8209 26.316 35.7015 26.2682 35.606C26.2205 35.5104 26.1727 35.4149 26.1249 35.2955C26.0772 35.2 26.0055 35.1045 25.9578 35.0089C25.91 34.9134 25.8145 34.8179 25.7906 34.7224C25.7428 34.6269 25.7906 34.4836 25.7667 34.388C25.7428 34.2925 25.6712 34.1731 25.6473 34.0776C25.6234 33.9582 25.5518 33.8627 25.5279 33.7672C25.504 33.6477 25.4563 33.5522 25.4563 33.4328C25.4324 33.3134 25.504 33.194 25.504 33.0985C25.504 32.9791 25.4563 32.8836 25.4324 32.7642C25.4324 32.6448 25.4563 32.5492 25.4563 32.4298C25.4563 32.3104 25.3846 32.191 25.3846 32.0955C25.3846 31.9761 25.3608 31.8567 25.3846 31.7612C25.3846 31.6418 25.504 31.5463 25.5279 31.4269C25.5518 31.3075 25.504 31.188 25.5279 31.0925C25.5518 30.9731 25.6473 30.9015 25.6951 30.7821C25.719 30.6627 25.719 30.5672 25.7667 30.4477C25.7906 30.3283 25.8384 30.2328 25.8622 30.1134C25.91 30.0179 25.9578 29.8985 26.0055 29.803C26.0533 29.7075 26.0533 29.588 26.1011 29.4686C26.1488 29.3731 26.2682 29.3015 26.316 29.206C26.3637 29.1104 26.3637 28.9672 26.4354 28.8716C26.507 28.7761 26.6025 28.7283 26.6742 28.6328C26.7458 28.5373 26.7219 28.394 26.7936 28.2985C26.8652 28.203 26.9369 28.1313 27.0085 28.0358C27.0802 27.9403 27.1996 27.9164 27.2712 27.8209C27.3428 27.7492 27.4622 27.6776 27.5339 27.606C27.6055 27.5343 27.6533 27.4149 27.7488 27.3433C27.8443 27.2716 27.9399 27.2 28.0115 27.1283C28.107 27.0567 28.1548 26.9373 28.2503 26.8657C28.3458 26.794 28.4652 26.794 28.5608 26.7224C28.6563 26.6507 28.7279 26.5552 28.8234 26.5075C28.919 26.4597 29.0145 26.388 29.1339 26.3403C29.2294 26.2925 29.3488 26.2448 29.4443 26.197C29.5399 26.1492 29.6593 26.1254 29.7548 26.0776C29.8503 26.0298 29.9936 26.0537 30.0891 26.0298C30.1846 26.006 30.2802 25.8866 30.3996 25.8388C30.519 25.8149 30.6145 25.791 30.7339 25.7672C30.8533 25.7433 30.9727 25.7433 31.0682 25.7433C31.1876 25.7194 31.307 25.791 31.4025 25.7672C31.522 25.7672 31.6175 25.7194 31.7369 25.7194C31.7846 25.8388 31.8802 25.7672 31.9996 25.7672Z" fill="white"/>
<path d="M36.7276 27.7492C36.7992 27.8209 36.8709 27.9403 36.9664 28.0358C37.038 28.1313 37.0619 28.2507 37.1335 28.3463C37.2052 28.4418 37.3246 28.4895 37.3962 28.5851C37.4679 28.6806 37.5156 28.7761 37.5873 28.8716C37.6589 28.9671 37.7306 29.0627 37.7783 29.1582C37.8261 29.2537 37.9216 29.3492 37.9694 29.4448C38.0171 29.5403 38.0171 29.6836 38.0649 29.7791C38.1127 29.8746 38.2559 29.9463 38.3037 30.0657C38.3515 30.1851 38.3276 30.3045 38.3515 30.4239C38.3992 30.5433 38.4947 30.6149 38.5425 30.7343C38.5664 30.8537 38.4709 30.997 38.4947 31.0925C38.5186 31.2119 38.638 31.3074 38.6619 31.4269C38.6858 31.5463 38.6858 31.6657 38.6858 31.7851C38.7097 31.9045 38.6619 32.0239 38.6858 32.1433C38.6858 32.2627 38.7335 32.3821 38.7335 32.5015C38.7335 32.6209 38.7097 32.7403 38.7097 32.8597C38.7097 32.9791 38.7335 33.0985 38.7335 33.2179C38.7097 33.3373 38.638 33.4328 38.6141 33.5522C38.5903 33.6716 38.7097 33.8149 38.6858 33.9104C38.6619 34.0298 38.5903 34.1254 38.5425 34.2448C38.5186 34.3642 38.4709 34.4597 38.4231 34.5791C38.3753 34.6985 38.3276 34.794 38.3037 34.9134C38.2559 35.0328 38.2321 35.1283 38.1843 35.2477C38.1365 35.3433 38.041 35.4388 37.9933 35.5343C37.9455 35.6298 37.8738 35.7254 37.8022 35.8209C37.7544 35.9164 37.7544 36.0597 37.6828 36.1552C37.6112 36.2507 37.444 36.2746 37.3724 36.3701C37.3007 36.4657 37.3246 36.6328 37.253 36.7283C37.1813 36.8239 37.0858 36.8955 37.0141 36.9671C36.9425 37.0627 36.847 37.1343 36.7753 37.206C36.7037 37.2776 36.6082 37.3731 36.5365 37.4448C36.441 37.5164 36.3933 37.6358 36.2977 37.7074C36.2022 37.7791 36.1306 37.8985 36.035 37.9463C35.9395 38.0179 35.8201 38.0418 35.7246 38.1134C35.6291 38.1851 35.5097 38.2089 35.4141 38.2806C35.3186 38.3283 35.1992 38.3761 35.1037 38.4239C35.0082 38.4716 34.8888 38.4955 34.7694 38.5433C34.6738 38.591 34.6022 38.7582 34.4828 38.806C34.3634 38.8537 34.244 38.8298 34.1246 38.8776C34.0052 38.9254 33.8858 38.8776 33.7664 38.9254C33.647 38.9492 33.5515 39.0686 33.4559 39.0925C33.3365 39.1164 33.2171 39.0686 33.0977 39.0925C32.9783 39.1164 32.8589 39.1164 32.7395 39.1403C32.6201 39.1642 32.5246 39.2836 32.4052 39.2836C32.2858 39.2836 32.1664 39.188 32.047 39.188C31.9276 39.188 31.8082 39.1642 31.6888 39.1642C31.5694 39.1642 31.45 39.1642 31.3306 39.1403C31.2112 39.1164 31.0918 39.1403 30.9724 39.1164C30.853 39.0925 30.7574 39.0448 30.638 39.0209C30.5186 38.997 30.3992 38.997 30.3037 38.9731C30.1843 38.9492 30.0649 38.9492 29.9455 38.9254C29.8261 38.8776 29.7306 38.8537 29.6112 38.806C29.4918 38.7582 29.4201 38.6866 29.3007 38.6388C29.2052 38.591 29.1097 38.5194 28.9903 38.4477C28.8947 38.4 28.7753 38.3522 28.6798 38.2806C28.5843 38.2328 28.4649 38.1851 28.3694 38.1134C28.2738 38.0418 28.1544 38.0179 28.0589 37.9463C27.9634 37.8746 27.844 37.8269 27.7485 37.7552C27.653 37.6836 27.653 37.5164 27.5574 37.4448C27.4619 37.3731 27.2947 37.3015 27.1992 37.2298C27.2709 37.0627 27.4141 37.1582 27.5335 37.0388C27.653 36.9194 27.6052 36.8716 27.7485 36.7522C27.8679 36.6328 27.8679 36.6089 27.9873 36.4895C28.1067 36.3701 28.1783 36.4179 28.2977 36.2985C28.4171 36.1791 28.3455 36.0836 28.4649 35.9642C28.5843 35.8448 28.6082 35.8448 28.7276 35.7254C28.847 35.606 28.8709 35.606 28.9903 35.4866C29.1097 35.3671 29.2052 35.4388 29.3246 35.3194C29.444 35.2 29.4201 35.1761 29.5395 35.0567C29.6589 34.9373 29.6589 34.9134 29.7783 34.794C29.8977 34.6746 29.8977 34.6746 30.0171 34.5552C30.1365 34.4358 30.1604 34.4358 30.2798 34.3164C30.3992 34.197 30.3753 34.1731 30.4947 34.0298C30.6141 33.9104 30.5903 33.8866 30.7097 33.7433C30.8291 33.6239 30.8052 33.6 30.9246 33.4806C31.044 33.3612 31.0679 33.3851 31.2112 33.2657C31.3306 33.1463 31.3306 33.1463 31.45 33.003C31.5694 32.8836 31.5216 32.8358 31.6649 32.7164C31.8082 32.597 31.8321 32.6448 31.9753 32.5254C32.0947 32.406 32.047 32.3582 32.1664 32.2388C32.2858 32.1194 32.3335 32.1671 32.4768 32.0477C32.5962 31.9283 32.5962 31.9283 32.7156 31.7851C32.835 31.6657 32.8589 31.6657 32.9783 31.5463C33.0977 31.4269 33.05 31.3791 33.1933 31.2597C33.3127 31.1403 33.3127 31.1164 33.4321 30.997C33.5515 30.8776 33.5992 30.9254 33.7186 30.806C33.838 30.6866 33.8619 30.7104 33.9813 30.591C34.1007 30.4716 34.1007 30.4716 34.244 30.3522C34.3634 30.2328 34.3156 30.1612 34.435 30.0418C34.5544 29.9224 34.6022 29.9701 34.7216 29.8507C34.841 29.7313 34.7932 29.6597 34.9127 29.5403C35.0321 29.4209 35.0798 29.4686 35.1992 29.3492C35.3186 29.2298 35.3186 29.206 35.438 29.0866C35.5574 28.9671 35.5574 28.9671 35.6768 28.8477C35.7962 28.7283 35.8201 28.7283 35.9395 28.6089C36.0589 28.4895 35.9873 28.394 36.1067 28.2746C36.2261 28.1552 36.3216 28.2268 36.441 28.0836C36.6082 27.8686 36.5604 27.8209 36.7276 27.7492Z" fill="#0F1117"/>
</g>
</svg>
