<svg width="257" height="145" viewBox="0 0 257 145" fill="none" xmlns="http://www.w3.org/2000/svg">
<rect x="0.697876" y="0.710495" width="256" height="144" fill="#08018A"/>
<path d="M87.1246 28.9416C91.2849 28.9416 91.2849 28.9416 95.4451 28.9416C99.6053 28.9416 99.6053 28.8261 103.765 28.8261C107.926 28.8261 107.926 28.8838 112.086 28.8838C116.246 28.8838 116.246 28.8261 120.406 28.8261C124.567 28.8261 124.567 28.8838 128.727 28.8838C132.887 28.8838 132.887 28.8838 137.047 28.8838C141.207 28.8838 141.207 28.8838 145.368 28.8838C149.528 28.8838 149.528 28.8261 153.688 28.8261C157.848 28.8261 157.848 28.8261 162.008 28.8261C166.169 28.8261 166.169 28.7105 170.329 28.7105C171.6 28.7105 172.64 29.8661 172.64 31.1373C172.64 35.2975 172.582 35.2975 172.582 39.4577C172.582 43.6179 172.756 43.6179 172.756 47.7781C172.756 51.9383 172.756 51.9383 172.756 56.0985C172.756 60.2588 172.582 60.2588 172.582 64.419C172.582 68.5792 172.698 68.5792 172.698 72.7394C172.698 76.8996 172.698 76.8996 172.698 81.0598C172.698 85.22 172.698 85.22 172.698 89.3802C172.698 93.5404 172.756 93.5404 172.756 97.7007C172.756 101.861 172.582 101.861 172.582 106.021C172.582 110.181 172.698 110.181 172.698 114.341C172.698 115.613 171.6 116.71 170.329 116.71C166.169 116.71 166.169 116.537 162.008 116.537C157.848 116.537 157.848 116.595 153.688 116.595C149.528 116.595 149.528 116.653 145.368 116.653C141.207 116.653 141.207 116.595 137.047 116.595C132.887 116.595 132.887 116.595 128.727 116.595C124.567 116.595 124.567 116.537 120.406 116.537C116.246 116.537 116.246 116.71 112.086 116.71C107.926 116.71 107.926 116.479 103.765 116.479C99.6053 116.479 99.6053 116.595 95.4451 116.595C91.2849 116.595 91.2849 116.595 87.1246 116.595C85.8535 116.595 84.8712 115.555 84.8712 114.284C84.8712 110.123 84.8712 110.123 84.8712 105.963C84.8712 101.803 84.929 101.803 84.929 97.6429C84.929 93.4827 84.929 93.4827 84.929 89.3224C84.929 85.1622 84.8134 85.1622 84.8134 81.002C84.8134 76.8418 84.929 76.8418 84.929 72.6816C84.929 68.5214 84.929 68.5214 84.929 64.3612C84.929 60.201 84.8712 60.201 84.8712 56.0408C84.8712 51.8806 84.7556 51.8806 84.7556 47.7203C84.7556 43.5601 84.6401 43.5601 84.6401 39.3999C84.6401 35.2397 84.6979 35.2397 84.6979 31.0795C84.7556 29.9239 85.8535 28.9416 87.1246 28.9416Z" fill="white"/>
<path d="M149.354 102.669C154.46 102.669 158.599 98.5303 158.599 93.4244C158.599 88.3186 154.46 84.1795 149.354 84.1795C144.248 84.1795 140.109 88.3186 140.109 93.4244C140.109 98.5303 144.248 102.669 149.354 102.669Z" fill="#08018A"/>
<path fill-rule="evenodd" clip-rule="evenodd" d="M148.776 88.4553L149.643 88.6865L149.412 89.5532L149.874 89.6687L150.105 88.802L150.972 89.0331L150.741 89.9576C151.319 90.131 151.781 90.4777 152.012 90.8243C152.301 91.2288 152.416 91.7488 152.243 92.3844C152.127 92.7889 151.954 93.0778 151.723 93.2511C151.492 93.4822 151.203 93.5978 150.799 93.6556C151.145 93.8867 151.376 94.1756 151.55 94.5223C151.665 94.869 151.723 95.2734 151.607 95.6779C151.434 96.3135 151.087 96.718 150.567 96.9491C150.105 97.1802 149.527 97.1802 148.834 97.0647L148.603 97.9891L147.736 97.758L147.967 96.8913L145.714 96.3135L147.621 89.1487L148.487 89.3798L148.776 88.4553ZM148.603 90.5354L150.105 90.9399C150.51 91.0555 150.799 91.2288 150.972 91.4021C151.145 91.6333 151.203 91.8644 151.087 92.2111C151.03 92.5578 150.856 92.7311 150.567 92.8467C150.336 92.9622 149.99 92.9622 149.585 92.8467L148.083 92.4422L148.603 90.5354ZM149.527 93.9445C149.874 94.06 150.163 94.2334 150.336 94.4645C150.51 94.6956 150.567 94.9845 150.452 95.2734C150.394 95.6201 150.163 95.7935 149.932 95.9668C149.643 96.0824 149.354 96.0824 148.95 95.9668L147.274 95.5046L147.794 93.4822L149.527 93.9445ZM147.563 96.718L146.696 96.4868L146.465 97.3536L147.332 97.5847L147.563 96.718Z" fill="white"/>
<path fill-rule="evenodd" clip-rule="evenodd" d="M114.686 72.5656C117.979 72.3345 120.926 71.0055 123.295 68.9832L121.677 67.3653C121.446 67.1342 121.33 66.7875 121.33 66.4986C121.33 66.2097 121.446 65.9786 121.677 65.7475C122.139 65.2852 122.833 65.2852 123.295 65.7475L124.913 67.3653C126.935 64.9963 128.206 62.0495 128.495 58.756H126.242C125.606 58.756 125.086 58.236 125.086 57.6004C125.086 56.9648 125.606 56.4448 126.242 56.4448H128.495C128.264 53.1513 126.935 50.2045 124.913 47.8355L123.295 49.4533C123.179 49.5689 123.006 49.6845 122.833 49.7422C122.775 49.7422 122.659 49.8 122.602 49.8C122.544 49.8 122.428 49.8 122.37 49.8C122.255 49.8 122.082 49.7422 121.966 49.6845L121.908 49.6267C121.85 49.5689 121.735 49.5111 121.677 49.4533C121.215 48.9911 121.215 48.2399 121.677 47.8355L123.295 46.2176C120.926 44.1953 117.979 42.8663 114.686 42.6352V44.8887C114.686 45.5242 114.166 46.0443 113.53 46.0443C112.894 46.0443 112.374 45.5242 112.374 44.8887V42.6352C109.081 42.8663 106.134 44.1953 103.765 46.2176L105.383 47.8355C105.845 48.2977 105.845 48.9911 105.383 49.4533C105.21 49.6267 104.921 49.7422 104.69 49.8C104.343 49.8578 103.996 49.7422 103.765 49.4533L102.147 47.8355C100.125 50.2045 98.8538 53.1513 98.5648 56.4448H100.818C101.454 56.4448 101.974 56.9648 101.974 57.6004C101.974 58.236 101.454 58.756 100.818 58.756H98.5648C98.6804 60.2005 98.9693 61.5873 99.4893 62.9162C100.125 64.5341 100.992 66.0364 102.147 67.3653L103.765 65.7475C104.227 65.2852 104.921 65.2852 105.383 65.7475C105.845 66.2097 105.845 66.9609 105.383 67.3653L103.765 68.9832C106.134 71.0055 109.081 72.3345 112.374 72.5656V70.3122C112.374 69.6766 112.894 69.1565 113.53 69.1565C113.819 69.1565 114.05 69.2721 114.223 69.3877C114.281 69.4454 114.339 69.5032 114.397 69.561C114.455 69.6188 114.512 69.6766 114.512 69.7344C114.57 69.7921 114.57 69.8499 114.628 69.9655C114.686 70.081 114.686 70.1966 114.686 70.3122V72.5656Z" fill="#5D9DEC"/>
<path d="M115.437 58.9293L119.019 52.3423C119.193 52.0534 118.846 51.7645 118.557 51.8801L111.97 55.4625C110.468 56.2714 110.121 58.3515 111.392 59.5649C112.606 60.7783 114.628 60.4894 115.437 58.9293Z" fill="black"/>
</svg>
