<svg width="65" height="65" viewBox="0 0 65 65" fill="none" xmlns="http://www.w3.org/2000/svg">
<mask id="mask0" mask-type="alpha" maskUnits="userSpaceOnUse" x="0" y="0" width="65" height="65">
<rect x="0.576431" y="0.0744896" width="64" height="64" fill="#F0F0F5"/>
</mask>
<g mask="url(#mask0)">
<rect x="0.576431" y="0.0744896" width="64" height="64" fill="#9985FF"/>
<path d="M12.5764 16.0745C12.5764 13.8654 14.3673 12.0745 16.5764 12.0745H104.576C106.786 12.0745 108.576 13.8654 108.576 16.0745V68.0745H12.5764V16.0745Z" fill="white"/>
<path d="M20.5764 26.0745C20.5764 24.9699 21.4719 24.0745 22.5764 24.0745H26.5764C27.681 24.0745 28.5764 24.9699 28.5764 26.0745V30.0745C28.5764 31.1791 27.681 32.0745 26.5764 32.0745H22.5764C21.4719 32.0745 20.5764 31.1791 20.5764 30.0745V26.0745Z" fill="#08018A"/>
<path fill-rule="evenodd" clip-rule="evenodd" d="M26.3382 26.806C26.4865 26.9506 26.4895 27.188 26.3449 27.3363L24.3949 29.3363C24.3244 29.4087 24.2275 29.4495 24.1264 29.4495C24.0253 29.4495 23.9285 29.4087 23.8579 29.3363L22.8079 28.2594C22.6634 28.1111 22.6664 27.8736 22.8146 27.7291C22.9629 27.5845 23.2004 27.5875 23.3449 27.7358L24.1264 28.5373L25.8079 26.8127C25.9525 26.6644 26.1899 26.6614 26.3382 26.806Z" fill="white"/>
<path opacity="0.32" d="M34.5764 26.5745C34.5764 26.0222 35.0241 25.5745 35.5764 25.5745H77.5764C78.1287 25.5745 78.5764 26.0222 78.5764 26.5745V30.0745C78.5764 30.6268 78.1287 31.0745 77.5764 31.0745H35.5764C35.0241 31.0745 34.5764 30.6268 34.5764 30.0745V26.5745Z" fill="#08018A"/>
<path opacity="0.2" d="M34.5764 40.5745C34.5764 40.0222 35.0241 39.5745 35.5764 39.5745H69.5764C70.1287 39.5745 70.5764 40.0222 70.5764 40.5745V44.0745C70.5764 44.6268 70.1287 45.0745 69.5764 45.0745H35.5764C35.0241 45.0745 34.5764 44.6268 34.5764 44.0745V40.5745Z" fill="#08018A"/>
<path opacity="0.12" d="M34.5764 54.5745C34.5764 54.0222 35.0241 53.5745 35.5764 53.5745H89.5764C90.1287 53.5745 90.5764 54.0222 90.5764 54.5745V58.0745C90.5764 58.6268 90.1287 59.0745 89.5764 59.0745H35.5764C35.0241 59.0745 34.5764 58.6268 34.5764 58.0745V54.5745Z" fill="#08018A"/>
<path d="M20.5764 40.0745C20.5764 38.9699 21.4719 38.0745 22.5764 38.0745H26.5764C27.681 38.0745 28.5764 38.9699 28.5764 40.0745V44.0745C28.5764 45.1791 27.681 46.0745 26.5764 46.0745H22.5764C21.4719 46.0745 20.5764 45.1791 20.5764 44.0745V40.0745Z" fill="white"/>
<path fill-rule="evenodd" clip-rule="evenodd" d="M26.5764 39.0745H22.5764C22.0241 39.0745 21.5764 39.5222 21.5764 40.0745V44.0745C21.5764 44.6268 22.0241 45.0745 22.5764 45.0745H26.5764C27.1287 45.0745 27.5764 44.6268 27.5764 44.0745V40.0745C27.5764 39.5222 27.1287 39.0745 26.5764 39.0745ZM22.5764 38.0745C21.4719 38.0745 20.5764 38.9699 20.5764 40.0745V44.0745C20.5764 45.1791 21.4719 46.0745 22.5764 46.0745H26.5764C27.681 46.0745 28.5764 45.1791 28.5764 44.0745V40.0745C28.5764 38.9699 27.681 38.0745 26.5764 38.0745H22.5764Z" fill="#08018A" fill-opacity="0.2"/>
<path d="M20.5764 54.0745C20.5764 52.9699 21.4719 52.0745 22.5764 52.0745H26.5764C27.681 52.0745 28.5764 52.9699 28.5764 54.0745V58.0745C28.5764 59.1791 27.681 60.0745 26.5764 60.0745H22.5764C21.4719 60.0745 20.5764 59.1791 20.5764 58.0745V54.0745Z" fill="white"/>
<path fill-rule="evenodd" clip-rule="evenodd" d="M26.5764 53.0745H22.5764C22.0241 53.0745 21.5764 53.5222 21.5764 54.0745V58.0745C21.5764 58.6268 22.0241 59.0745 22.5764 59.0745H26.5764C27.1287 59.0745 27.5764 58.6268 27.5764 58.0745V54.0745C27.5764 53.5222 27.1287 53.0745 26.5764 53.0745ZM22.5764 52.0745C21.4719 52.0745 20.5764 52.9699 20.5764 54.0745V58.0745C20.5764 59.1791 21.4719 60.0745 22.5764 60.0745H26.5764C27.681 60.0745 28.5764 59.1791 28.5764 58.0745V54.0745C28.5764 52.9699 27.681 52.0745 26.5764 52.0745H22.5764Z" fill="#08018A" fill-opacity="0.12"/>
</g>
</svg>
